<?xml version="1.0" encoding="utf-8" standalone="no"?>
<!DOCTYPE svg PUBLIC "-//W3C//DTD SVG 1.1//EN"
  "http://www.w3.org/Graphics/SVG/1.1/DTD/svg11.dtd">
<svg xmlns:xlink="http://www.w3.org/1999/xlink" width="518.4pt" height="261.36pt" viewBox="0 0 518.4 261.36" xmlns="http://www.w3.org/2000/svg" version="1.1">
 <metadata>
  <rdf:RDF xmlns:dc="http://purl.org/dc/elements/1.1/" xmlns:cc="http://creativecommons.org/ns#" xmlns:rdf="http://www.w3.org/1999/02/22-rdf-syntax-ns#">
   <cc:Work>
    <dc:type rdf:resource="http://purl.org/dc/dcmitype/StillImage"/>
    <dc:date>2024-07-05T00:51:30.099282</dc:date>
    <dc:format>image/svg+xml</dc:format>
    <dc:creator>
     <cc:Agent>
      <dc:title>Matplotlib v3.8.4, https://matplotlib.org/</dc:title>
     </cc:Agent>
    </dc:creator>
   </cc:Work>
  </rdf:RDF>
 </metadata>
 <defs>
  <style type="text/css">*{stroke-linejoin: round; stroke-linecap: butt}</style>
 </defs>
 <g id="figure_1">
  <g id="patch_1">
   <path d="M 0 261.36 
L 518.4 261.36 
L 518.4 0 
L 0 0 
z
" style="fill: #ffffff"/>
  </g>
  <g id="axes_1">
   <g id="patch_2">
    <path d="M 101.079186 269.067279 
L 250.81799 269.067279 
L 250.81799 118.914832 
L 101.079186 118.914832 
z
" clip-path="url(#pd9547ebe9f)" style="fill: #008080; opacity: 0.2; stroke: #008080; stroke-linejoin: miter"/>
   </g>
   <g id="patch_3">
    <path d="M 250.81799 118.914832 
L 325.687392 118.914832 
L 325.687392 43.838608 
L 250.81799 43.838608 
z
" clip-path="url(#pd9547ebe9f)" style="fill: #008000; opacity: 0.2; stroke: #008000; stroke-linejoin: miter"/>
   </g>
   <g id="patch_4">
    <path d="M 250.81799 269.067279 
L 325.687392 269.067279 
L 325.687392 118.914832 
L 250.81799 118.914832 
z
" clip-path="url(#pd9547ebe9f)" style="fill: #ff0000; opacity: 0.2; stroke: #ff0000; stroke-linejoin: miter"/>
   </g>
   <g id="patch_5">
    <path d="M 101.079186 118.914832 
L 250.81799 118.914832 
L 250.81799 43.838608 
L 101.079186 43.838608 
z
" clip-path="url(#pd9547ebe9f)" style="fill: #ff0000; opacity: 0.2; stroke: #ff0000; stroke-linejoin: miter"/>
   </g>
   <g id="text_1">
    <!-- $a + b$ -->
    <g transform="translate(192.51565 296.570827) scale(0.2 -0.2)">
     <defs>
      <path id="CMMI12-61" d="M 1926 759 
C 1894 651 1894 638 1805 517 
C 1664 338 1382 64 1082 64 
C 819 64 672 300 672 676 
C 672 1028 870 1743 992 2011 
C 1210 2458 1510 2687 1760 2687 
C 2182 2687 2266 2164 2266 2113 
C 2266 2107 2246 2024 2240 2011 
L 1926 759 
z
M 2336 2394 
C 2266 2560 2093 2816 1760 2816 
C 1037 2816 256 1883 256 938 
C 256 306 627 -64 1062 -64 
C 1414 -64 1715 210 1894 421 
C 1958 44 2259 -64 2451 -64 
C 2643 -64 2797 51 2912 280 
C 3014 496 3104 885 3104 910 
C 3104 942 3078 968 3040 968 
C 2982 968 2976 936 2950 840 
C 2854 465 2733 64 2470 64 
C 2285 64 2272 229 2272 356 
C 2272 503 2291 573 2349 821 
C 2394 980 2426 1120 2477 1305 
C 2714 2260 2771 2489 2771 2528 
C 2771 2617 2701 2688 2605 2688 
C 2400 2688 2349 2464 2336 2388 
L 2336 2394 
z
" transform="scale(0.015625)"/>
      <path id="CMR17-2b" d="M 2413 1472 
L 4109 1472 
C 4198 1472 4307 1472 4307 1580 
C 4307 1696 4205 1696 4109 1696 
L 2413 1696 
L 2413 3385 
C 2413 3475 2413 3584 2304 3584 
C 2189 3584 2189 3481 2189 3385 
L 2189 1696 
L 493 1696 
C 403 1696 294 1696 294 1587 
C 294 1472 397 1472 493 1472 
L 2189 1472 
L 2189 -194 
C 2189 -282 2189 -391 2298 -391 
C 2413 -391 2413 -289 2413 -194 
L 2413 1472 
z
" transform="scale(0.015625)"/>
      <path id="CMMI12-62" d="M 1478 4255 
C 1485 4281 1498 4319 1498 4351 
C 1498 4416 1434 4416 1421 4416 
C 1414 4416 1184 4396 1069 4383 
C 960 4377 864 4364 749 4358 
C 595 4345 550 4339 550 4223 
C 550 4159 614 4159 678 4159 
C 1005 4159 1005 4103 1005 4040 
C 1005 3995 954 3812 928 3699 
L 774 3093 
C 710 2841 346 1392 320 1277 
C 288 1117 288 1008 288 925 
C 288 274 653 -64 1069 -64 
C 1811 -64 2579 887 2579 1813 
C 2579 2400 2246 2816 1766 2816 
C 1434 2816 1133 2541 1011 2413 
L 1478 4255 
z
M 1075 64 
C 870 64 646 217 646 715 
C 646 925 666 1047 781 1494 
C 800 1577 902 1985 928 2068 
C 941 2119 1318 2687 1754 2687 
C 2035 2687 2163 2407 2163 2075 
C 2163 1768 1984 1047 1824 715 
C 1664 370 1370 64 1075 64 
z
" transform="scale(0.015625)"/>
     </defs>
     <use xlink:href="#CMMI12-61" transform="scale(0.996264)"/>
     <use xlink:href="#CMR17-2b" transform="translate(73.347065 0) scale(0.996264)"/>
     <use xlink:href="#CMMI12-62" transform="translate(167.20106 0) scale(0.996264)"/>
    </g>
   </g>
   <g id="text_2">
    <!-- $a + b$ -->
    <g transform="translate(83.599047 177.320582) rotate(-90) scale(0.2 -0.2)">
     <use xlink:href="#CMMI12-61" transform="scale(0.996264)"/>
     <use xlink:href="#CMR17-2b" transform="translate(73.347065 0) scale(0.996264)"/>
     <use xlink:href="#CMMI12-62" transform="translate(167.20106 0) scale(0.996264)"/>
    </g>
   </g>
   <g id="text_3">
    <!-- $a^2$ -->
    <g transform="translate(167.413578 198.971737) scale(0.2 -0.2)">
     <defs>
      <path id="CMR17-32" d="M 2669 990 
L 2554 990 
C 2490 537 2438 460 2413 422 
C 2381 371 1920 371 1830 371 
L 602 371 
C 832 620 1280 1073 1824 1596 
C 2214 1966 2669 2400 2669 3033 
C 2669 3788 2067 4224 1395 4224 
C 691 4224 262 3603 262 3027 
C 262 2777 448 2745 525 2745 
C 589 2745 781 2783 781 3007 
C 781 3206 614 3264 525 3264 
C 486 3264 448 3257 422 3244 
C 544 3788 915 4057 1306 4057 
C 1862 4057 2227 3616 2227 3033 
C 2227 2477 1901 1998 1536 1583 
L 262 147 
L 262 0 
L 2515 0 
L 2669 990 
z
" transform="scale(0.015625)"/>
     </defs>
     <use xlink:href="#CMMI12-61" transform="scale(0.996264)"/>
     <use xlink:href="#CMR17-32" transform="translate(51.207858 36.153639) scale(0.697382)"/>
    </g>
   </g>
   <g id="text_4">
    <!-- $b^2$ -->
    <g transform="translate(279.934701 86.855473) scale(0.22 -0.22)">
     <use xlink:href="#CMMI12-62" transform="scale(0.996264)"/>
     <use xlink:href="#CMR17-32" transform="translate(41.475874 36.153639) scale(0.697382)"/>
    </g>
   </g>
   <g id="text_5">
    <!-- $ab$ -->
    <g transform="translate(278.057486 199.469808) scale(0.22 -0.22)">
     <use xlink:href="#CMMI12-61" transform="scale(0.996264)"/>
     <use xlink:href="#CMMI12-62" transform="translate(51.207858 0) scale(0.996264)"/>
    </g>
   </g>
   <g id="text_6">
    <!-- $ab$ -->
    <g transform="translate(165.753383 86.855473) scale(0.22 -0.22)">
     <use xlink:href="#CMMI12-61" transform="scale(0.996264)"/>
     <use xlink:href="#CMMI12-62" transform="translate(51.207858 0) scale(0.996264)"/>
    </g>
   </g>
   <g id="text_7">
    <!-- $=$ -->
    <g transform="translate(352.364878 163.923966) scale(0.3 -0.3)">
     <defs>
      <path id="CMR17-3d" d="M 4115 2048 
C 4211 2048 4307 2048 4307 2156 
C 4307 2272 4198 2272 4090 2272 
L 512 2272 
C 403 2272 294 2272 294 2156 
C 294 2048 390 2048 486 2048 
L 4115 2048 
z
M 4090 927 
C 4198 927 4307 927 4307 1043 
C 4307 1152 4211 1152 4115 1152 
L 486 1152 
C 390 1152 294 1152 294 1043 
C 294 927 403 927 512 927 
L 4090 927 
z
" transform="scale(0.015625)"/>
     </defs>
     <use xlink:href="#CMR17-3d" transform="scale(0.996264)"/>
    </g>
   </g>
   <g id="text_8">
    <!-- $(a+b)^2$ -->
    <g transform="translate(391.308303 164.895603) scale(0.3 -0.3)">
     <defs>
      <path id="CMR17-28" d="M 1958 -1562 
C 1958 -1556 1958 -1543 1939 -1524 
C 1645 -1223 858 -403 858 1596 
C 858 3595 1632 4408 1946 4729 
C 1946 4735 1958 4748 1958 4767 
C 1958 4787 1939 4800 1914 4800 
C 1843 4800 1299 4325 986 3620 
C 666 2909 576 2218 576 1603 
C 576 1141 621 360 1005 -467 
C 1312 -1133 1837 -1600 1914 -1600 
C 1946 -1600 1958 -1588 1958 -1562 
z
" transform="scale(0.015625)"/>
      <path id="CMR17-29" d="M 1683 1596 
C 1683 2057 1638 2839 1254 3665 
C 947 4332 422 4800 346 4800 
C 326 4800 301 4793 301 4761 
C 301 4748 307 4742 314 4729 
C 621 4408 1402 3595 1402 1603 
C 1402 -396 627 -1210 314 -1530 
C 307 -1543 301 -1549 301 -1562 
C 301 -1594 326 -1600 346 -1600 
C 416 -1600 960 -1127 1274 -422 
C 1594 289 1683 981 1683 1596 
z
" transform="scale(0.015625)"/>
     </defs>
     <use xlink:href="#CMR17-28" transform="scale(0.996264)"/>
     <use xlink:href="#CMMI12-61" transform="translate(35.280768 0) scale(0.996264)"/>
     <use xlink:href="#CMR17-2b" transform="translate(108.627832 0) scale(0.996264)"/>
     <use xlink:href="#CMMI12-62" transform="translate(202.481828 0) scale(0.996264)"/>
     <use xlink:href="#CMR17-29" transform="translate(243.957702 0) scale(0.996264)"/>
     <use xlink:href="#CMR17-32" transform="translate(279.23847 36.153639) scale(0.697382)"/>
    </g>
   </g>
  </g>
 </g>
 <defs>
  <clipPath id="pd9547ebe9f">
   <rect x="12.15" y="8.1675" width="462.362099" height="236.509908"/>
  </clipPath>
 </defs>
</svg>
