<?xml version="1.0" encoding="utf-8" standalone="no"?>
<!DOCTYPE svg PUBLIC "-//W3C//DTD SVG 1.1//EN"
  "http://www.w3.org/Graphics/SVG/1.1/DTD/svg11.dtd">
<svg xmlns:xlink="http://www.w3.org/1999/xlink" width="460.8pt" height="345.6pt" viewBox="0 0 460.8 345.6" xmlns="http://www.w3.org/2000/svg" version="1.1">
 <metadata>
  <rdf:RDF xmlns:dc="http://purl.org/dc/elements/1.1/" xmlns:cc="http://creativecommons.org/ns#" xmlns:rdf="http://www.w3.org/1999/02/22-rdf-syntax-ns#">
   <cc:Work>
    <dc:type rdf:resource="http://purl.org/dc/dcmitype/StillImage"/>
    <dc:date>2025-04-18T05:08:06.765458</dc:date>
    <dc:format>image/svg+xml</dc:format>
    <dc:creator>
     <cc:Agent>
      <dc:title>Matplotlib v3.9.1, https://matplotlib.org/</dc:title>
     </cc:Agent>
    </dc:creator>
   </cc:Work>
  </rdf:RDF>
 </metadata>
 <defs>
  <style type="text/css">*{stroke-linejoin: round; stroke-linecap: butt}</style>
 </defs>
 <g id="figure_1">
  <g id="patch_1">
   <path d="M 0 345.6 
L 460.8 345.6 
L 460.8 0 
L 0 0 
z
" style="fill: #ffffff"/>
  </g>
  <g id="axes_1">
   <g id="patch_2">
    <path d="M 10.8 319.653871 
L 447 319.653871 
L 447 18.064532 
L 10.8 18.064532 
z
" style="fill: #ffffff"/>
   </g>
   <g id="matplotlib.axis_1">
    <g id="xtick_1">
     <g id="line2d_1">
      <path d="M 59.266667 319.653871 
L 59.266667 18.064532 
" clip-path="url(#p5494f0ab5d)" style="fill: none; stroke-dasharray: 2.96,1.28; stroke-dashoffset: 0; stroke: #b0b0b0; stroke-opacity: 0.6; stroke-width: 0.8"/>
     </g>
     <g id="line2d_2">
      <defs>
       <path id="m0290c8882a" d="M 0 0 
L 0 3.5 
" style="stroke: #000000; stroke-width: 0.8"/>
      </defs>
      <g>
       <use xlink:href="#m0290c8882a" x="59.266667" y="292.236658" style="stroke: #000000; stroke-width: 0.8"/>
      </g>
     </g>
     <g id="text_1">
      <!-- $\mathdefault{−1}$ -->
      <g transform="translate(49.165675 310.306247) scale(0.16 -0.16)">
       <defs>
        <path id="CMSY10-0" d="M 4218 1472 
C 4326 1472 4442 1472 4442 1600 
C 4442 1728 4326 1728 4218 1728 
L 755 1728 
C 646 1728 531 1728 531 1600 
C 531 1472 646 1472 755 1472 
L 4218 1472 
z
" transform="scale(0.015625)"/>
        <path id="CMR17-31" d="M 1702 4058 
C 1702 4192 1696 4192 1606 4192 
C 1357 3916 979 3827 621 3827 
C 602 3827 570 3827 563 3808 
C 557 3795 557 3782 557 3648 
C 755 3648 1088 3686 1344 3839 
L 1344 461 
C 1344 236 1331 160 781 160 
L 589 160 
L 589 0 
C 896 0 1216 0 1523 0 
C 1830 0 2150 0 2458 0 
L 2458 160 
L 2266 160 
C 1715 160 1702 230 1702 458 
L 1702 4058 
z
" transform="scale(0.015625)"/>
       </defs>
       <use xlink:href="#CMSY10-0" transform="scale(0.996264)"/>
       <use xlink:href="#CMR17-31" transform="translate(77.487468 0) scale(0.996264)"/>
      </g>
     </g>
    </g>
    <g id="xtick_2">
     <g id="line2d_3">
      <path d="M 156.2 319.653871 
L 156.2 18.064532 
" clip-path="url(#p5494f0ab5d)" style="fill: none; stroke-dasharray: 2.96,1.28; stroke-dashoffset: 0; stroke: #b0b0b0; stroke-opacity: 0.6; stroke-width: 0.8"/>
     </g>
     <g id="line2d_4">
      <g>
       <use xlink:href="#m0290c8882a" x="156.2" y="292.236658" style="stroke: #000000; stroke-width: 0.8"/>
      </g>
     </g>
     <g id="text_2">
      <!-- $\mathdefault{1}$ -->
      <g transform="translate(152.298006 310.306247) scale(0.16 -0.16)">
       <use xlink:href="#CMR17-31" transform="scale(0.996264)"/>
      </g>
     </g>
    </g>
    <g id="xtick_3">
     <g id="line2d_5">
      <path d="M 204.666667 319.653871 
L 204.666667 18.064532 
" clip-path="url(#p5494f0ab5d)" style="fill: none; stroke-dasharray: 2.96,1.28; stroke-dashoffset: 0; stroke: #b0b0b0; stroke-opacity: 0.6; stroke-width: 0.8"/>
     </g>
     <g id="line2d_6">
      <g>
       <use xlink:href="#m0290c8882a" x="204.666667" y="292.236658" style="stroke: #000000; stroke-width: 0.8"/>
      </g>
     </g>
     <g id="text_3">
      <!-- $\mathdefault{2}$ -->
      <g transform="translate(200.764673 310.306247) scale(0.16 -0.16)">
       <defs>
        <path id="CMR17-32" d="M 2669 989 
L 2554 989 
C 2490 536 2438 459 2413 420 
C 2381 369 1920 369 1830 369 
L 602 369 
C 832 619 1280 1072 1824 1597 
C 2214 1967 2669 2402 2669 3035 
C 2669 3790 2067 4224 1395 4224 
C 691 4224 262 3604 262 3030 
C 262 2780 448 2748 525 2748 
C 589 2748 781 2787 781 3010 
C 781 3207 614 3264 525 3264 
C 486 3264 448 3258 422 3245 
C 544 3790 915 4058 1306 4058 
C 1862 4058 2227 3617 2227 3035 
C 2227 2479 1901 2000 1536 1584 
L 262 146 
L 262 0 
L 2515 0 
L 2669 989 
z
" transform="scale(0.015625)"/>
       </defs>
       <use xlink:href="#CMR17-32" transform="scale(0.996264)"/>
      </g>
     </g>
    </g>
    <g id="xtick_4">
     <g id="line2d_7">
      <path d="M 253.133333 319.653871 
L 253.133333 18.064532 
" clip-path="url(#p5494f0ab5d)" style="fill: none; stroke-dasharray: 2.96,1.28; stroke-dashoffset: 0; stroke: #b0b0b0; stroke-opacity: 0.6; stroke-width: 0.8"/>
     </g>
     <g id="line2d_8">
      <g>
       <use xlink:href="#m0290c8882a" x="253.133333" y="292.236658" style="stroke: #000000; stroke-width: 0.8"/>
      </g>
     </g>
     <g id="text_4">
      <!-- $\mathdefault{3}$ -->
      <g transform="translate(249.23134 310.306247) scale(0.16 -0.16)">
       <defs>
        <path id="CMR17-33" d="M 1414 2157 
C 1984 2157 2234 1662 2234 1090 
C 2234 320 1824 25 1453 25 
C 1114 25 563 194 390 693 
C 422 680 454 680 486 680 
C 640 680 755 782 755 948 
C 755 1133 614 1216 486 1216 
C 378 1216 211 1165 211 926 
C 211 335 787 -128 1466 -128 
C 2176 -128 2720 430 2720 1085 
C 2720 1707 2208 2157 1600 2227 
C 2086 2328 2554 2756 2554 3329 
C 2554 3820 2048 4179 1472 4179 
C 890 4179 378 3829 378 3329 
C 378 3110 544 3072 627 3072 
C 762 3072 877 3155 877 3321 
C 877 3486 762 3569 627 3569 
C 602 3569 570 3569 544 3557 
C 730 3959 1235 4032 1459 4032 
C 1683 4032 2106 3925 2106 3320 
C 2106 3143 2080 2828 1862 2550 
C 1670 2304 1453 2304 1242 2284 
C 1210 2284 1062 2269 1037 2269 
C 992 2263 966 2257 966 2208 
C 966 2163 973 2157 1101 2157 
L 1414 2157 
z
" transform="scale(0.015625)"/>
       </defs>
       <use xlink:href="#CMR17-33" transform="scale(0.996264)"/>
      </g>
     </g>
    </g>
    <g id="xtick_5">
     <g id="line2d_9">
      <path d="M 301.6 319.653871 
L 301.6 18.064532 
" clip-path="url(#p5494f0ab5d)" style="fill: none; stroke-dasharray: 2.96,1.28; stroke-dashoffset: 0; stroke: #b0b0b0; stroke-opacity: 0.6; stroke-width: 0.8"/>
     </g>
     <g id="line2d_10">
      <g>
       <use xlink:href="#m0290c8882a" x="301.6" y="292.236658" style="stroke: #000000; stroke-width: 0.8"/>
      </g>
     </g>
     <g id="text_5">
      <!-- $\mathdefault{4}$ -->
      <g transform="translate(297.698006 310.306247) scale(0.16 -0.16)">
       <defs>
        <path id="CMR17-34" d="M 2150 4122 
C 2150 4256 2144 4256 2029 4256 
L 128 1254 
L 128 1088 
L 1779 1088 
L 1779 457 
C 1779 224 1766 160 1318 160 
L 1197 160 
L 1197 0 
C 1402 0 1747 0 1965 0 
C 2182 0 2528 0 2733 0 
L 2733 160 
L 2611 160 
C 2163 160 2150 224 2150 457 
L 2150 1088 
L 2803 1088 
L 2803 1254 
L 2150 1254 
L 2150 4122 
z
M 1798 3703 
L 1798 1254 
L 256 1254 
L 1798 3703 
z
" transform="scale(0.015625)"/>
       </defs>
       <use xlink:href="#CMR17-34" transform="scale(0.996264)"/>
      </g>
     </g>
    </g>
    <g id="xtick_6">
     <g id="line2d_11">
      <path d="M 350.066667 319.653871 
L 350.066667 18.064532 
" clip-path="url(#p5494f0ab5d)" style="fill: none; stroke-dasharray: 2.96,1.28; stroke-dashoffset: 0; stroke: #b0b0b0; stroke-opacity: 0.6; stroke-width: 0.8"/>
     </g>
     <g id="line2d_12">
      <g>
       <use xlink:href="#m0290c8882a" x="350.066667" y="292.236658" style="stroke: #000000; stroke-width: 0.8"/>
      </g>
     </g>
     <g id="text_6">
      <!-- $\mathdefault{5}$ -->
      <g transform="translate(346.164673 310.306247) scale(0.16 -0.16)">
       <defs>
        <path id="CMR17-35" d="M 730 3692 
C 794 3666 1056 3584 1325 3584 
C 1920 3584 2246 3911 2432 4100 
C 2432 4157 2432 4192 2394 4192 
C 2387 4192 2374 4192 2323 4163 
C 2099 4058 1837 3973 1517 3973 
C 1325 3973 1037 3999 723 4139 
C 653 4171 640 4171 634 4171 
C 602 4171 595 4164 595 4037 
L 595 2203 
C 595 2089 595 2057 659 2057 
C 691 2057 704 2070 736 2114 
C 941 2401 1222 2522 1542 2522 
C 1766 2522 2246 2382 2246 1289 
C 2246 1085 2246 715 2054 421 
C 1894 159 1645 25 1370 25 
C 947 25 518 320 403 814 
C 429 807 480 795 506 795 
C 589 795 749 840 749 1038 
C 749 1210 627 1280 506 1280 
C 358 1280 262 1190 262 1011 
C 262 454 704 -128 1382 -128 
C 2042 -128 2669 440 2669 1264 
C 2669 2030 2170 2624 1549 2624 
C 1222 2624 947 2503 730 2274 
L 730 3692 
z
" transform="scale(0.015625)"/>
       </defs>
       <use xlink:href="#CMR17-35" transform="scale(0.996264)"/>
      </g>
     </g>
    </g>
    <g id="xtick_7">
     <g id="line2d_13">
      <path d="M 398.533333 319.653871 
L 398.533333 18.064532 
" clip-path="url(#p5494f0ab5d)" style="fill: none; stroke-dasharray: 2.96,1.28; stroke-dashoffset: 0; stroke: #b0b0b0; stroke-opacity: 0.6; stroke-width: 0.8"/>
     </g>
     <g id="line2d_14">
      <g>
       <use xlink:href="#m0290c8882a" x="398.533333" y="292.236658" style="stroke: #000000; stroke-width: 0.8"/>
      </g>
     </g>
     <g id="text_7">
      <!-- $\mathdefault{6}$ -->
      <g transform="translate(394.63134 310.306247) scale(0.16 -0.16)">
       <defs>
        <path id="CMR17-36" d="M 678 2176 
C 678 3690 1395 4032 1811 4032 
C 1946 4032 2272 4009 2400 3776 
C 2298 3776 2106 3776 2106 3553 
C 2106 3381 2246 3323 2336 3323 
C 2394 3323 2566 3348 2566 3560 
C 2566 3954 2246 4179 1805 4179 
C 1043 4179 243 3390 243 1984 
C 243 253 966 -128 1478 -128 
C 2099 -128 2688 427 2688 1283 
C 2688 2081 2170 2662 1517 2662 
C 1126 2662 838 2407 678 1960 
L 678 2176 
z
M 1478 25 
C 691 25 691 1200 691 1436 
C 691 1896 909 2560 1504 2560 
C 1613 2560 1926 2560 2138 2120 
C 2253 1870 2253 1609 2253 1289 
C 2253 944 2253 690 2118 434 
C 1978 171 1773 25 1478 25 
z
" transform="scale(0.015625)"/>
       </defs>
       <use xlink:href="#CMR17-36" transform="scale(0.996264)"/>
      </g>
     </g>
    </g>
    <g id="text_8">
     <!-- $x$ -->
     <g transform="translate(438.13055 328.475311) scale(0.16 -0.16)">
      <defs>
       <path id="CMMI12-78" d="M 3034 2606 
C 2829 2567 2752 2414 2752 2293 
C 2752 2139 2874 2088 2963 2088 
C 3155 2088 3290 2254 3290 2427 
C 3290 2695 2982 2816 2714 2816 
C 2323 2816 2106 2433 2048 2312 
C 1901 2816 1504 2816 1389 2816 
C 736 2816 390 1980 390 1839 
C 390 1814 416 1782 461 1782 
C 512 1782 525 1820 538 1846 
C 755 2555 1184 2689 1370 2689 
C 1658 2689 1715 2420 1715 2267 
C 1715 2127 1677 1980 1600 1673 
L 1382 798 
C 1286 415 1101 64 762 64 
C 730 64 570 64 435 147 
C 666 192 717 383 717 460 
C 717 588 621 664 499 664 
C 346 664 179 530 179 326 
C 179 57 480 -64 755 -64 
C 1062 -64 1280 179 1414 441 
C 1517 64 1837 -64 2074 -64 
C 2726 -64 3072 773 3072 913 
C 3072 945 3046 971 3008 971 
C 2950 971 2944 939 2925 888 
C 2752 326 2381 64 2093 64 
C 1869 64 1747 230 1747 492 
C 1747 632 1773 734 1875 1156 
L 2099 2024 
C 2195 2408 2413 2689 2707 2689 
C 2720 2689 2899 2689 3034 2606 
z
" transform="scale(0.015625)"/>
      </defs>
      <use xlink:href="#CMMI12-78" transform="scale(0.996264)"/>
     </g>
    </g>
   </g>
   <g id="matplotlib.axis_2">
    <g id="ytick_1">
     <g id="line2d_15">
      <path d="M 10.8 264.819446 
L 447 264.819446 
" clip-path="url(#p5494f0ab5d)" style="fill: none; stroke-dasharray: 2.96,1.28; stroke-dashoffset: 0; stroke: #b0b0b0; stroke-opacity: 0.6; stroke-width: 0.8"/>
     </g>
     <g id="line2d_16">
      <defs>
       <path id="me17f89296a" d="M 0 0 
L -3.5 0 
" style="stroke: #000000; stroke-width: 0.8"/>
      </defs>
      <g>
       <use xlink:href="#me17f89296a" x="107.733333" y="264.819446" style="stroke: #000000; stroke-width: 0.8"/>
      </g>
     </g>
     <g id="text_9">
      <!-- $\mathdefault{1}$ -->
      <g transform="translate(92.929346 270.35424) scale(0.16 -0.16)">
       <use xlink:href="#CMR17-31" transform="scale(0.996264)"/>
      </g>
     </g>
    </g>
    <g id="ytick_2">
     <g id="line2d_17">
      <path d="M 10.8 237.402233 
L 447 237.402233 
" clip-path="url(#p5494f0ab5d)" style="fill: none; stroke-dasharray: 2.96,1.28; stroke-dashoffset: 0; stroke: #b0b0b0; stroke-opacity: 0.6; stroke-width: 0.8"/>
     </g>
     <g id="line2d_18">
      <g>
       <use xlink:href="#me17f89296a" x="107.733333" y="237.402233" style="stroke: #000000; stroke-width: 0.8"/>
      </g>
     </g>
     <g id="text_10">
      <!-- $\mathdefault{2}$ -->
      <g transform="translate(92.929346 242.937027) scale(0.16 -0.16)">
       <use xlink:href="#CMR17-32" transform="scale(0.996264)"/>
      </g>
     </g>
    </g>
    <g id="ytick_3">
     <g id="line2d_19">
      <path d="M 10.8 209.985021 
L 447 209.985021 
" clip-path="url(#p5494f0ab5d)" style="fill: none; stroke-dasharray: 2.96,1.28; stroke-dashoffset: 0; stroke: #b0b0b0; stroke-opacity: 0.6; stroke-width: 0.8"/>
     </g>
     <g id="line2d_20">
      <g>
       <use xlink:href="#me17f89296a" x="107.733333" y="209.985021" style="stroke: #000000; stroke-width: 0.8"/>
      </g>
     </g>
     <g id="text_11">
      <!-- $\mathdefault{3}$ -->
      <g transform="translate(92.929346 215.519815) scale(0.16 -0.16)">
       <use xlink:href="#CMR17-33" transform="scale(0.996264)"/>
      </g>
     </g>
    </g>
    <g id="ytick_4">
     <g id="line2d_21">
      <path d="M 10.8 182.567808 
L 447 182.567808 
" clip-path="url(#p5494f0ab5d)" style="fill: none; stroke-dasharray: 2.96,1.28; stroke-dashoffset: 0; stroke: #b0b0b0; stroke-opacity: 0.6; stroke-width: 0.8"/>
     </g>
     <g id="line2d_22">
      <g>
       <use xlink:href="#me17f89296a" x="107.733333" y="182.567808" style="stroke: #000000; stroke-width: 0.8"/>
      </g>
     </g>
     <g id="text_12">
      <!-- $\mathdefault{4}$ -->
      <g transform="translate(92.929346 188.102602) scale(0.16 -0.16)">
       <use xlink:href="#CMR17-34" transform="scale(0.996264)"/>
      </g>
     </g>
    </g>
    <g id="ytick_5">
     <g id="line2d_23">
      <path d="M 10.8 155.150595 
L 447 155.150595 
" clip-path="url(#p5494f0ab5d)" style="fill: none; stroke-dasharray: 2.96,1.28; stroke-dashoffset: 0; stroke: #b0b0b0; stroke-opacity: 0.6; stroke-width: 0.8"/>
     </g>
     <g id="line2d_24">
      <g>
       <use xlink:href="#me17f89296a" x="107.733333" y="155.150595" style="stroke: #000000; stroke-width: 0.8"/>
      </g>
     </g>
     <g id="text_13">
      <!-- $\mathdefault{5}$ -->
      <g transform="translate(92.929346 160.685389) scale(0.16 -0.16)">
       <use xlink:href="#CMR17-35" transform="scale(0.996264)"/>
      </g>
     </g>
    </g>
    <g id="ytick_6">
     <g id="line2d_25">
      <path d="M 10.8 127.733383 
L 447 127.733383 
" clip-path="url(#p5494f0ab5d)" style="fill: none; stroke-dasharray: 2.96,1.28; stroke-dashoffset: 0; stroke: #b0b0b0; stroke-opacity: 0.6; stroke-width: 0.8"/>
     </g>
     <g id="line2d_26">
      <g>
       <use xlink:href="#me17f89296a" x="107.733333" y="127.733383" style="stroke: #000000; stroke-width: 0.8"/>
      </g>
     </g>
     <g id="text_14">
      <!-- $\mathdefault{6}$ -->
      <g transform="translate(92.929346 133.268177) scale(0.16 -0.16)">
       <use xlink:href="#CMR17-36" transform="scale(0.996264)"/>
      </g>
     </g>
    </g>
    <g id="ytick_7">
     <g id="line2d_27">
      <path d="M 10.8 100.31617 
L 447 100.31617 
" clip-path="url(#p5494f0ab5d)" style="fill: none; stroke-dasharray: 2.96,1.28; stroke-dashoffset: 0; stroke: #b0b0b0; stroke-opacity: 0.6; stroke-width: 0.8"/>
     </g>
     <g id="line2d_28">
      <g>
       <use xlink:href="#me17f89296a" x="107.733333" y="100.31617" style="stroke: #000000; stroke-width: 0.8"/>
      </g>
     </g>
     <g id="text_15">
      <!-- $\mathdefault{7}$ -->
      <g transform="translate(92.929346 105.850964) scale(0.16 -0.16)">
       <defs>
        <path id="CMR17-37" d="M 2886 3941 
L 2886 4081 
L 1382 4081 
C 634 4081 621 4165 595 4288 
L 480 4288 
L 294 3094 
L 410 3094 
C 429 3215 474 3540 550 3661 
C 589 3712 1062 3712 1171 3712 
L 2579 3712 
L 1869 2661 
C 1395 1954 1069 999 1069 165 
C 1069 89 1069 -128 1299 -128 
C 1530 -128 1530 89 1530 171 
L 1530 465 
C 1530 1508 1709 2196 2003 2636 
L 2886 3941 
z
" transform="scale(0.015625)"/>
       </defs>
       <use xlink:href="#CMR17-37" transform="scale(0.996264)"/>
      </g>
     </g>
    </g>
    <g id="ytick_8">
     <g id="line2d_29">
      <path d="M 10.8 72.898957 
L 447 72.898957 
" clip-path="url(#p5494f0ab5d)" style="fill: none; stroke-dasharray: 2.96,1.28; stroke-dashoffset: 0; stroke: #b0b0b0; stroke-opacity: 0.6; stroke-width: 0.8"/>
     </g>
     <g id="line2d_30">
      <g>
       <use xlink:href="#me17f89296a" x="107.733333" y="72.898957" style="stroke: #000000; stroke-width: 0.8"/>
      </g>
     </g>
     <g id="text_16">
      <!-- $\mathdefault{8}$ -->
      <g transform="translate(92.929346 78.433752) scale(0.16 -0.16)">
       <defs>
        <path id="CMR17-38" d="M 1741 2264 
C 2144 2467 2554 2773 2554 3263 
C 2554 3841 1990 4179 1472 4179 
C 890 4179 378 3759 378 3180 
C 378 3021 416 2747 666 2505 
C 730 2442 998 2251 1171 2130 
C 883 1983 211 1634 211 934 
C 211 279 838 -128 1459 -128 
C 2144 -128 2720 362 2720 1010 
C 2720 1590 2330 1857 2074 2029 
L 1741 2264 
z
M 902 2822 
C 851 2854 595 3051 595 3351 
C 595 3739 998 4032 1459 4032 
C 1965 4032 2336 3676 2336 3262 
C 2336 2669 1670 2331 1638 2331 
C 1632 2331 1626 2331 1574 2370 
L 902 2822 
z
M 2080 1519 
C 2176 1449 2483 1240 2483 851 
C 2483 381 2010 25 1472 25 
C 890 25 448 438 448 940 
C 448 1443 838 1862 1280 2060 
L 2080 1519 
z
" transform="scale(0.015625)"/>
       </defs>
       <use xlink:href="#CMR17-38" transform="scale(0.996264)"/>
      </g>
     </g>
    </g>
    <g id="ytick_9">
     <g id="line2d_31">
      <path d="M 10.8 45.481745 
L 447 45.481745 
" clip-path="url(#p5494f0ab5d)" style="fill: none; stroke-dasharray: 2.96,1.28; stroke-dashoffset: 0; stroke: #b0b0b0; stroke-opacity: 0.6; stroke-width: 0.8"/>
     </g>
     <g id="line2d_32">
      <g>
       <use xlink:href="#me17f89296a" x="107.733333" y="45.481745" style="stroke: #000000; stroke-width: 0.8"/>
      </g>
     </g>
     <g id="text_17">
      <!-- $\mathdefault{9}$ -->
      <g transform="translate(92.929346 51.016539) scale(0.16 -0.16)">
       <defs>
        <path id="CMR17-39" d="M 2253 1864 
C 2253 464 1670 31 1190 31 
C 1043 31 685 31 538 294 
C 704 268 826 357 826 518 
C 826 692 685 749 595 749 
C 538 749 365 723 365 506 
C 365 71 742 -128 1203 -128 
C 1939 -128 2688 674 2688 2073 
C 2688 3817 1971 4179 1485 4179 
C 851 4179 243 3628 243 2778 
C 243 1991 762 1408 1414 1408 
C 1952 1408 2189 1903 2253 2112 
L 2253 1864 
z
M 1427 1510 
C 1254 1510 1011 1542 813 1922 
C 678 2169 678 2461 678 2771 
C 678 3146 678 3405 858 3684 
C 947 3817 1114 4032 1485 4032 
C 2240 4032 2240 2885 2240 2632 
C 2240 2182 2035 1510 1427 1510 
z
" transform="scale(0.015625)"/>
       </defs>
       <use xlink:href="#CMR17-39" transform="scale(0.996264)"/>
      </g>
     </g>
    </g>
    <g id="text_18">
     <!-- $y$ -->
     <g transform="translate(81.319076 14.965056) scale(0.16 -0.16)">
      <defs>
       <path id="CMMI12-79" d="M 1683 -700 
C 1510 -939 1261 -1152 947 -1152 
C 870 -1152 563 -1152 467 -889 
C 486 -895 518 -895 531 -895 
C 723 -895 851 -729 851 -582 
C 851 -435 730 -384 634 -384 
C 531 -384 307 -458 307 -759 
C 307 -1071 582 -1286 947 -1286 
C 1587 -1286 2234 -700 2413 6 
L 3040 2485 
C 3046 2517 3059 2556 3059 2594 
C 3059 2689 2982 2753 2886 2753 
C 2829 2753 2694 2727 2643 2535 
L 2170 658 
C 2138 543 2138 530 2086 460 
C 1958 281 1747 64 1440 64 
C 1082 64 1050 415 1050 588 
C 1050 952 1222 1443 1395 1903 
C 1466 2088 1504 2178 1504 2305 
C 1504 2574 1312 2816 998 2816 
C 410 2816 173 1890 173 1839 
C 173 1814 198 1782 243 1782 
C 301 1782 307 1807 333 1897 
C 486 2433 730 2689 979 2689 
C 1037 2689 1146 2689 1146 2478 
C 1146 2312 1075 2127 979 1884 
C 666 1047 666 837 666 683 
C 666 77 1101 -64 1421 -64 
C 1606 -64 1837 -6 2061 230 
L 2067 224 
C 1971 -147 1907 -392 1683 -700 
z
" transform="scale(0.015625)"/>
      </defs>
      <use xlink:href="#CMMI12-79" transform="scale(0.996264)"/>
     </g>
    </g>
   </g>
   <g id="line2d_33">
    <defs>
     <path id="m28a949be50" d="M 3 0 
L -3 -3 
L -3 3 
z
" style="stroke: #000000; stroke-linejoin: miter"/>
    </defs>
    <g>
     <use xlink:href="#m28a949be50" x="447" y="292.236658" style="stroke: #000000; stroke-linejoin: miter"/>
    </g>
   </g>
   <g id="line2d_34">
    <defs>
     <path id="m29f2624f7a" d="M 0 -3 
L -3 3 
L 3 3 
z
" style="stroke: #000000; stroke-linejoin: miter"/>
    </defs>
    <g>
     <use xlink:href="#m29f2624f7a" x="107.733333" y="18.064532" style="stroke: #000000; stroke-linejoin: miter"/>
    </g>
   </g>
   <g id="line2d_35">
    <path d="M 53.754291 -1 
L 59.586227 19.147977 
L 65.338315 38.242356 
L 70.983883 56.2321 
L 76.52293 73.159323 
L 81.955458 89.065346 
L 87.281465 103.990692 
L 92.500952 117.975093 
L 97.613919 131.057484 
L 102.726886 143.529617 
L 107.733333 155.150595 
L 112.63326 165.957765 
L 117.426667 175.987677 
L 122.113553 185.27609 
L 126.693919 193.857965 
L 131.167766 201.767472 
L 135.535092 209.037983 
L 139.795897 215.702077 
L 143.950183 221.791539 
L 147.997949 227.337358 
L 151.939194 232.369729 
L 155.773919 236.918053 
L 159.608645 241.123107 
L 163.33685 244.882255 
L 166.958535 248.223308 
L 170.4737 251.173282 
L 173.988864 253.834815 
L 177.397509 256.140231 
L 180.806154 258.174422 
L 184.108278 259.8864 
L 187.410403 261.34384 
L 190.606007 262.51191 
L 193.801612 263.441599 
L 196.890696 264.113703 
L 199.97978 264.563053 
L 203.068864 264.789648 
L 206.157949 264.793489 
L 209.247033 264.574575 
L 212.336117 264.132906 
L 215.425201 263.468483 
L 218.514286 262.581306 
L 221.70989 261.429127 
L 224.905495 260.038567 
L 228.101099 258.409625 
L 231.403223 256.475952 
L 234.705348 254.28774 
L 238.113993 251.761953 
L 241.629158 248.873163 
L 245.144322 245.695932 
L 248.766007 242.120735 
L 252.494212 238.120557 
L 256.222418 233.795915 
L 260.057143 229.009209 
L 263.998388 223.731834 
L 268.046154 217.93439 
L 272.20044 211.586681 
L 276.461245 204.657718 
L 280.722051 197.304965 
L 285.089377 189.328579 
L 289.563223 180.695981 
L 294.14359 171.373798 
L 298.830476 161.327861 
L 303.623883 150.523208 
L 308.52381 138.924082 
L 313.530256 126.49393 
L 318.643223 113.195407 
L 323.862711 98.99037 
L 329.188718 83.839885 
L 334.621245 67.704222 
L 340.160293 50.542854 
L 345.805861 32.314464 
L 351.557949 12.976936 
L 355.579042 -1 
L 355.579042 -1 
" clip-path="url(#p5494f0ab5d)" style="fill: none; stroke: #0072b2; stroke-opacity: 0.9; stroke-width: 2.5; stroke-linecap: square"/>
   </g>
   <g id="line2d_36">
    <path d="M 10.8 319.653871 
L 447 72.898957 
L 447 72.898957 
" clip-path="url(#p5494f0ab5d)" style="fill: none; stroke: #dc5e8b; stroke-width: 2.5; stroke-linecap: square"/>
   </g>
   <g id="patch_3">
    <path d="M 107.733333 319.653871 
L 107.733333 18.064532 
" style="fill: none; stroke: #000000; stroke-width: 0.8; stroke-linejoin: miter; stroke-linecap: square"/>
   </g>
   <g id="patch_4">
    <path d="M 447 319.653871 
L 447 18.064532 
" style="fill: none"/>
   </g>
   <g id="patch_5">
    <path d="M 10.8 292.236658 
L 447 292.236658 
" style="fill: none; stroke: #000000; stroke-width: 0.8; stroke-linejoin: miter; stroke-linecap: square"/>
   </g>
   <g id="patch_6">
    <path d="M 10.8 18.064532 
L 447 18.064532 
" style="fill: none"/>
   </g>
   <g id="patch_7">
    <path d="M 206.642047 96.452037 
Q 206.349054 173.447277 158.817592 234.075512 
" style="fill: none; opacity: 0.7; stroke: #000000; stroke-width: 2; stroke-linecap: round"/>
    <path d="M 165.28459 231.013171 
L 158.817592 234.075512 
L 160.247918 227.064509 
" style="fill: none; opacity: 0.7; stroke: #000000; stroke-width: 2; stroke-linecap: round"/>
   </g>
   <g id="text_19">
    <g id="patch_8">
     <path d="M 107.733333 93.949119 
L 303.516435 93.949119 
Q 308.316435 93.949119 308.316435 89.149119 
L 308.316435 57.534376 
Q 308.316435 52.734376 303.516435 52.734376 
L 107.733333 52.734376 
Q 102.933333 52.734376 102.933333 57.534376 
L 102.933333 89.149119 
Q 102.933333 93.949119 107.733333 93.949119 
z
" style="fill: #ffffff; opacity: 0.7; stroke: #000000; stroke-linejoin: miter"/>
    </g>
    <!-- $x$-koordinatene til skjæringene  -->
    <g transform="translate(107.733333 67.718385) scale(0.16 -0.16)">
     <defs>
      <path id="CMSS17-2d" d="M 1664 1216 
L 1664 1585 
L 64 1585 
L 64 1216 
L 1664 1216 
z
" transform="scale(0.015625)"/>
      <path id="CMSS17-6b" d="M 1696 1688 
L 2688 2739 
L 2074 2739 
L 954 1554 
L 954 4416 
L 480 4416 
L 480 0 
L 947 0 
L 947 892 
L 1376 1344 
L 2278 0 
L 2822 0 
L 1696 1688 
z
" transform="scale(0.015625)"/>
      <path id="CMSS17-6f" d="M 2829 1356 
C 2829 2176 2221 2816 1504 2816 
C 768 2816 173 2157 173 1356 
C 173 544 787 -64 1498 -64 
C 2227 -64 2829 563 2829 1356 
z
M 1504 337 
C 1050 337 659 709 659 1408 
C 659 2151 1114 2427 1498 2427 
C 1914 2427 2342 2126 2342 1408 
C 2342 683 1926 337 1504 337 
z
" transform="scale(0.015625)"/>
      <path id="CMSS17-72" d="M 954 1363 
C 954 1965 1395 2368 1958 2368 
L 1958 2789 
C 1549 2789 1165 2585 934 2253 
L 934 2758 
L 480 2758 
L 480 0 
L 954 0 
L 954 1363 
z
" transform="scale(0.015625)"/>
      <path id="CMSS17-64" d="M 2611 4416 
L 2138 4416 
L 2138 2438 
C 1939 2603 1613 2756 1254 2756 
C 672 2756 211 2131 211 1347 
C 211 562 666 -64 1235 -64 
C 1677 -64 1971 172 2125 306 
L 2125 -13 
L 2611 -13 
L 2611 4416 
z
M 2125 836 
C 2125 747 2125 653 1926 482 
C 1798 375 1645 325 1498 325 
C 1152 325 698 576 698 1340 
C 698 2134 1210 2368 1562 2368 
C 1798 2368 1990 2254 2125 2065 
L 2125 836 
z
" transform="scale(0.015625)"/>
      <path id="CMSS17-69" d="M 979 4183 
L 442 4183 
L 442 3648 
L 979 3648 
L 979 4183 
z
M 947 2739 
L 474 2739 
L 474 0 
L 947 0 
L 947 2739 
z
" transform="scale(0.015625)"/>
      <path id="CMSS17-6e" d="M 2618 1877 
C 2618 2283 2522 2816 1798 2816 
C 1389 2816 1120 2606 941 2389 
L 941 2758 
L 474 2758 
L 474 0 
L 960 0 
L 960 1559 
C 960 1964 1114 2428 1549 2428 
C 2112 2428 2131 2048 2131 1829 
L 2131 0 
L 2618 0 
L 2618 1877 
z
" transform="scale(0.015625)"/>
      <path id="CMSS17-61" d="M 2406 1791 
C 2406 2392 1978 2808 1402 2808 
C 1120 2808 813 2757 461 2553 
L 499 2135 
C 659 2248 934 2432 1395 2432 
C 1722 2432 1920 2180 1920 1782 
L 1920 1536 
C 896 1536 256 1238 256 726 
C 256 461 416 -64 947 -64 
C 1043 -64 1562 -64 1933 217 
L 1933 -19 
L 2406 -19 
L 2406 1791 
z
M 1920 816 
C 1920 701 1920 548 1728 434 
C 1562 325 1350 325 1261 325 
C 941 325 723 511 723 744 
C 723 1211 1722 1211 1920 1211 
L 1920 816 
z
" transform="scale(0.015625)"/>
      <path id="CMSS17-74" d="M 1069 2368 
L 1901 2368 
L 1901 2737 
L 1069 2737 
L 1069 3520 
L 614 3520 
L 614 2737 
L 109 2737 
L 109 2368 
L 602 2368 
L 602 749 
C 602 384 685 -64 1107 -64 
C 1427 -64 1722 25 2003 172 
L 1901 548 
C 1747 414 1562 337 1363 337 
C 1082 337 1069 696 1069 856 
L 1069 2368 
z
" transform="scale(0.015625)"/>
      <path id="CMSS17-65" d="M 2502 1377 
C 2502 1590 2490 2003 2285 2345 
C 2061 2713 1696 2816 1421 2816 
C 755 2816 192 2188 192 1375 
C 192 582 774 -64 1510 -64 
C 1798 -64 2150 19 2470 248 
C 2470 274 2458 414 2451 420 
C 2451 433 2432 630 2432 656 
C 2125 407 1773 325 1517 325 
C 1107 325 666 667 646 1377 
L 2502 1377 
z
M 698 1728 
C 781 2084 1062 2421 1421 2421 
C 1517 2421 1965 2421 2080 1728 
L 698 1728 
z
" transform="scale(0.015625)"/>
      <path id="CMSS17-6c" d="M 947 4416 
L 474 4416 
L 474 0 
L 947 0 
L 947 4416 
z
" transform="scale(0.015625)"/>
      <path id="CMSS17-73" d="M 2061 2627 
C 1683 2807 1389 2807 1197 2807 
C 742 2807 198 2648 198 2003 
C 198 1359 902 1218 1094 1179 
C 1389 1122 1715 1058 1715 740 
C 1715 337 1254 337 1171 337 
C 915 337 563 407 243 638 
L 166 210 
C 531 0 883 -64 1178 -64 
C 1965 -64 2163 416 2163 781 
C 2163 1094 1984 1305 1862 1401 
C 1651 1568 1574 1587 1050 1696 
C 960 1709 646 1779 646 2066 
C 646 2432 1050 2432 1139 2432 
C 1555 2432 1811 2303 1984 2208 
L 2061 2627 
z
" transform="scale(0.015625)"/>
      <path id="CMSS17-6a" d="M 1114 4224 
L 576 4224 
L 576 3689 
L 1114 3689 
L 1114 4224 
z
M -371 -1064 
C -166 -1191 83 -1280 352 -1280 
C 755 -1280 1114 -935 1114 -366 
L 1114 2767 
L 640 2767 
L 640 -425 
C 640 -815 346 -873 179 -873 
C 38 -873 -128 -828 -275 -675 
L -371 -1064 
z
" transform="scale(0.015625)"/>
      <path id="CMSS17-1a" d="M 4173 1377 
C 4173 1588 4173 2808 3155 2808 
C 2874 2808 2528 2680 2259 2354 
C 2086 2617 1811 2808 1408 2808 
C 1178 2808 838 2776 461 2553 
L 499 2128 
C 736 2296 1005 2432 1402 2432 
C 1709 2432 1926 2190 1926 1772 
L 1926 1536 
C 1216 1536 269 1322 269 717 
C 269 503 384 -64 966 -64 
C 992 -64 1382 -64 1709 38 
C 1856 83 2112 164 2278 387 
C 2304 355 2656 -64 3251 -64 
C 3546 -64 3866 32 4141 248 
C 4141 274 4128 414 4122 420 
C 4122 433 4102 630 4102 656 
C 3814 401 3488 325 3258 325 
C 2803 325 2419 749 2413 1377 
L 4173 1377 
z
M 2458 1728 
C 2573 2176 2874 2432 3155 2432 
C 3398 2432 3674 2254 3744 1728 
L 2458 1728 
z
M 1939 1085 
C 1952 973 1952 880 1952 773 
C 1952 325 1325 325 1267 325 
C 941 325 736 518 736 735 
C 736 1160 1658 1160 1933 1160 
L 1939 1085 
z
" transform="scale(0.015625)"/>
      <path id="CMSS17-67" d="M 2848 2808 
C 2483 2808 2170 2738 1914 2617 
C 1702 2777 1485 2808 1338 2808 
C 781 2808 358 2349 358 1814 
C 358 1468 550 1207 563 1195 
C 448 1035 384 863 384 672 
C 384 448 474 289 544 200 
C 211 -3 166 -314 166 -435 
C 166 -898 749 -1280 1498 -1280 
C 2253 -1280 2835 -898 2835 -428 
C 2835 448 1856 448 1587 448 
L 1069 448 
C 973 448 717 448 717 791 
C 717 921 774 1004 781 1010 
C 877 940 1075 832 1338 832 
C 1869 832 2310 1278 2310 1827 
C 2310 2132 2170 2355 2112 2432 
L 2131 2432 
C 2150 2432 2419 2432 2515 2432 
C 2720 2432 2739 2429 2918 2419 
L 2848 2808 
z
M 1338 1182 
C 1120 1182 813 1315 813 1823 
C 813 2375 1165 2464 1331 2464 
C 1549 2464 1856 2331 1856 1823 
C 1856 1271 1504 1182 1338 1182 
z
M 1581 -10 
C 1734 -10 2381 -10 2381 -442 
C 2381 -714 1984 -929 1504 -929 
C 1018 -929 621 -720 621 -435 
C 621 -403 621 -10 1062 -10 
L 1581 -10 
z
" transform="scale(0.015625)"/>
     </defs>
     <use xlink:href="#CMMI12-78" transform="scale(0.996264)"/>
     <use xlink:href="#CMSS17-2d" transform="translate(55.43406 0) scale(0.996264)"/>
     <use xlink:href="#CMSS17-6b" transform="translate(86.663172 0) scale(0.996264)"/>
     <use xlink:href="#CMSS17-6f" transform="translate(129.663208 0) scale(0.996264)"/>
     <use xlink:href="#CMSS17-6f" transform="translate(179.10927 0) scale(0.996264)"/>
     <use xlink:href="#CMSS17-72" transform="translate(223.350439 0) scale(0.996264)"/>
     <use xlink:href="#CMSS17-64" transform="translate(255.260212 0) scale(0.996264)"/>
     <use xlink:href="#CMSS17-69" transform="translate(303.465155 0) scale(0.996264)"/>
     <use xlink:href="#CMSS17-6e" transform="translate(325.645878 0) scale(0.996264)"/>
     <use xlink:href="#CMSS17-61" transform="translate(373.850821 0) scale(0.996264)"/>
     <use xlink:href="#CMSS17-74" transform="translate(418.772742 0) scale(0.996264)"/>
     <use xlink:href="#CMSS17-65" transform="translate(452.604309 0) scale(0.996264)"/>
     <use xlink:href="#CMSS17-6e" transform="translate(494.243131 0) scale(0.996264)"/>
     <use xlink:href="#CMSS17-65" transform="translate(542.448074 0) scale(0.996264)"/>
     <use xlink:href="#CMSS17-74" transform="translate(615.316009 0) scale(0.996264)"/>
     <use xlink:href="#CMSS17-69" transform="translate(649.147575 0) scale(0.996264)"/>
     <use xlink:href="#CMSS17-6c" transform="translate(671.328298 0) scale(0.996264)"/>
     <use xlink:href="#CMSS17-73" transform="translate(724.738134 0) scale(0.996264)"/>
     <use xlink:href="#CMSS17-6b" transform="translate(760.651676 0) scale(0.996264)"/>
     <use xlink:href="#CMSS17-6a" transform="translate(806.254165 0) scale(0.996264)"/>
     <use xlink:href="#CMSS17-1a" transform="translate(831.037251 0) scale(0.996264)"/>
     <use xlink:href="#CMSS17-72" transform="translate(898.700278 0) scale(0.996264)"/>
     <use xlink:href="#CMSS17-69" transform="translate(930.610051 0) scale(0.996264)"/>
     <use xlink:href="#CMSS17-6e" transform="translate(952.790774 0) scale(0.996264)"/>
     <use xlink:href="#CMSS17-67" transform="translate(1000.995717 0) scale(0.996264)"/>
     <use xlink:href="#CMSS17-65" transform="translate(1047.83934 0) scale(0.996264)"/>
     <use xlink:href="#CMSS17-6e" transform="translate(1089.478162 0) scale(0.996264)"/>
     <use xlink:href="#CMSS17-65" transform="translate(1137.683105 0) scale(0.996264)"/>
    </g>
    <!--  løser likningen $f(x) = g(x)$ -->
    <g transform="translate(107.733333 85.164063) scale(0.16 -0.16)">
     <defs>
      <path id="CMSS17-1c" d="M 2758 3268 
L 2413 3459 
L 2010 2708 
C 1926 2746 1728 2816 1504 2816 
C 768 2816 173 2157 173 1356 
C 173 888 384 479 672 248 
L 243 -535 
L 589 -727 
L 1005 38 
C 1107 -7 1286 -64 1498 -64 
C 2227 -64 2829 563 2829 1357 
C 2829 1799 2643 2210 2336 2497 
L 2758 3268 
z
M 877 643 
C 685 886 659 1179 659 1363 
C 659 2090 1075 2427 1504 2427 
C 1613 2427 1722 2408 1818 2363 
L 877 643 
z
M 2125 2097 
C 2310 1855 2342 1549 2342 1351 
C 2342 631 1907 325 1498 325 
C 1395 325 1293 344 1197 383 
L 2125 2097 
z
" transform="scale(0.015625)"/>
      <path id="CMMI12-66" d="M 2854 2566 
C 2982 2566 3034 2566 3034 2688 
C 3034 2752 2982 2752 2867 2752 
L 2349 2752 
C 2470 3429 2560 3897 2611 4107 
C 2650 4265 2784 4416 2950 4416 
C 3085 4416 3219 4358 3283 4298 
C 3034 4272 2957 4082 2957 3969 
C 2957 3837 3053 3759 3174 3759 
C 3302 3759 3494 3870 3494 4119 
C 3494 4393 3226 4544 2944 4544 
C 2669 4544 2400 4334 2272 4078 
C 2157 3848 2093 3611 1946 2752 
L 1517 2752 
C 1395 2752 1331 2752 1331 2637 
C 1331 2566 1370 2566 1498 2566 
L 1907 2566 
C 1792 1976 1530 542 1382 -137 
C 1274 -689 1178 -1152 858 -1152 
C 838 -1152 653 -1152 538 -1031 
C 864 -1005 864 -726 864 -720 
C 864 -593 768 -517 646 -517 
C 518 -517 326 -625 326 -867 
C 326 -1140 608 -1280 858 -1280 
C 1510 -1280 1779 -118 1850 199 
C 1965 688 2278 2376 2310 2566 
L 2854 2566 
z
" transform="scale(0.015625)"/>
      <path id="CMR17-28" d="M 1958 -1561 
C 1958 -1555 1958 -1542 1939 -1523 
C 1645 -1224 858 -407 858 1581 
C 858 3569 1632 4379 1946 4697 
C 1946 4704 1958 4717 1958 4736 
C 1958 4755 1939 4768 1914 4768 
C 1843 4768 1299 4296 986 3594 
C 666 2887 576 2199 576 1588 
C 576 1128 621 351 1005 -471 
C 1312 -1135 1837 -1600 1914 -1600 
C 1946 -1600 1958 -1587 1958 -1561 
z
" transform="scale(0.015625)"/>
      <path id="CMR17-29" d="M 1683 1581 
C 1683 2040 1638 2817 1254 3639 
C 947 4303 422 4768 346 4768 
C 326 4768 301 4761 301 4729 
C 301 4717 307 4710 314 4697 
C 621 4378 1402 3568 1402 1584 
C 1402 -407 627 -1217 314 -1537 
C 307 -1549 301 -1556 301 -1568 
C 301 -1600 326 -1600 346 -1600 
C 416 -1600 960 -1128 1274 -426 
C 1594 281 1683 969 1683 1581 
z
" transform="scale(0.015625)"/>
      <path id="CMR17-3d" d="M 4115 2017 
C 4211 2017 4307 2017 4307 2125 
C 4307 2240 4198 2240 4090 2240 
L 512 2240 
C 403 2240 294 2240 294 2125 
C 294 2017 390 2017 486 2017 
L 4115 2017 
z
M 4090 896 
C 4198 896 4307 896 4307 1011 
C 4307 1119 4211 1119 4115 1119 
L 486 1119 
C 390 1119 294 1119 294 1011 
C 294 896 403 896 512 896 
L 4090 896 
z
" transform="scale(0.015625)"/>
      <path id="CMMI12-67" d="M 2163 811 
C 2138 709 2125 683 2042 588 
C 1779 249 1510 128 1312 128 
C 1101 128 902 294 902 734 
C 902 1073 1094 1788 1235 2076 
C 1421 2433 1709 2689 1978 2689 
C 2400 2689 2483 2165 2483 2127 
L 2464 2037 
L 2163 811 
z
M 2560 2395 
C 2477 2580 2298 2816 1978 2816 
C 1280 2816 486 1941 486 990 
C 486 326 890 0 1299 0 
C 1638 0 1939 268 2054 396 
L 1914 -171 
C 1824 -516 1786 -674 1555 -894 
C 1293 -1152 1050 -1152 909 -1152 
C 717 -1152 557 -1139 397 -1089 
C 602 -1033 653 -858 653 -789 
C 653 -689 576 -588 435 -588 
C 282 -588 115 -714 115 -922 
C 115 -1180 378 -1280 922 -1280 
C 1747 -1280 2176 -753 2259 -410 
L 2970 2435 
C 2989 2511 2989 2524 2989 2536 
C 2989 2625 2918 2695 2822 2695 
C 2669 2695 2579 2567 2560 2395 
z
" transform="scale(0.015625)"/>
     </defs>
     <use xlink:href="#CMSS17-6c" transform="scale(0.996264)"/>
     <use xlink:href="#CMSS17-1c" transform="translate(22.180723 0) scale(0.996264)"/>
     <use xlink:href="#CMSS17-73" transform="translate(69.024347 0) scale(0.996264)"/>
     <use xlink:href="#CMSS17-65" transform="translate(104.937889 0) scale(0.996264)"/>
     <use xlink:href="#CMSS17-72" transform="translate(146.576711 0) scale(0.996264)"/>
     <use xlink:href="#CMSS17-6c" transform="translate(209.715596 0) scale(0.996264)"/>
     <use xlink:href="#CMSS17-69" transform="translate(231.896319 0) scale(0.996264)"/>
     <use xlink:href="#CMSS17-6b" transform="translate(254.077042 0) scale(0.996264)"/>
     <use xlink:href="#CMSS17-6e" transform="translate(299.679531 0) scale(0.996264)"/>
     <use xlink:href="#CMSS17-69" transform="translate(347.884474 0) scale(0.996264)"/>
     <use xlink:href="#CMSS17-6e" transform="translate(370.065197 0) scale(0.996264)"/>
     <use xlink:href="#CMSS17-67" transform="translate(418.270141 0) scale(0.996264)"/>
     <use xlink:href="#CMSS17-65" transform="translate(465.113764 0) scale(0.996264)"/>
     <use xlink:href="#CMSS17-6e" transform="translate(506.752586 0) scale(0.996264)"/>
     <use xlink:href="#CMMI12-66" transform="translate(586.186642 0) scale(0.996264)"/>
     <use xlink:href="#CMR17-28" transform="translate(644.906947 0) scale(0.996264)"/>
     <use xlink:href="#CMMI12-78" transform="translate(680.187715 0) scale(0.996264)"/>
     <use xlink:href="#CMR17-29" transform="translate(735.621774 0) scale(0.996264)"/>
     <use xlink:href="#CMR17-3d" transform="translate(798.576551 0) scale(0.996264)"/>
     <use xlink:href="#CMMI12-67" transform="translate(897.965348 0) scale(0.996264)"/>
     <use xlink:href="#CMR17-28" transform="translate(948.250837 0) scale(0.996264)"/>
     <use xlink:href="#CMMI12-78" transform="translate(983.531605 0) scale(0.996264)"/>
     <use xlink:href="#CMR17-29" transform="translate(1038.965665 0) scale(0.996264)"/>
    </g>
   </g>
   <g id="patch_9">
    <path d="M 219.980085 96.075073 
Q 249.84382 136.956141 297.601149 153.754817 
" style="fill: none; opacity: 0.7; stroke: #000000; stroke-width: 2; stroke-linecap: round"/>
    <path d="M 292.625587 148.612466 
L 297.601149 153.754817 
L 290.501931 154.649856 
" style="fill: none; opacity: 0.7; stroke: #000000; stroke-width: 2; stroke-linecap: round"/>
   </g>
   <g id="text_20">
    <g id="patch_10">
     <path d="M 107.733333 93.949119 
L 303.516435 93.949119 
Q 308.316435 93.949119 308.316435 89.149119 
L 308.316435 57.534376 
Q 308.316435 52.734376 303.516435 52.734376 
L 107.733333 52.734376 
Q 102.933333 52.734376 102.933333 57.534376 
L 102.933333 89.149119 
Q 102.933333 93.949119 107.733333 93.949119 
z
" style="fill: #ffffff; opacity: 0.7; stroke: #000000; stroke-linejoin: miter"/>
    </g>
    <!-- $x$-koordinatene til skjæringene  -->
    <g transform="translate(107.733333 67.718385) scale(0.16 -0.16)">
     <use xlink:href="#CMMI12-78" transform="scale(0.996264)"/>
     <use xlink:href="#CMSS17-2d" transform="translate(55.43406 0) scale(0.996264)"/>
     <use xlink:href="#CMSS17-6b" transform="translate(86.663172 0) scale(0.996264)"/>
     <use xlink:href="#CMSS17-6f" transform="translate(129.663208 0) scale(0.996264)"/>
     <use xlink:href="#CMSS17-6f" transform="translate(179.10927 0) scale(0.996264)"/>
     <use xlink:href="#CMSS17-72" transform="translate(223.350439 0) scale(0.996264)"/>
     <use xlink:href="#CMSS17-64" transform="translate(255.260212 0) scale(0.996264)"/>
     <use xlink:href="#CMSS17-69" transform="translate(303.465155 0) scale(0.996264)"/>
     <use xlink:href="#CMSS17-6e" transform="translate(325.645878 0) scale(0.996264)"/>
     <use xlink:href="#CMSS17-61" transform="translate(373.850821 0) scale(0.996264)"/>
     <use xlink:href="#CMSS17-74" transform="translate(418.772742 0) scale(0.996264)"/>
     <use xlink:href="#CMSS17-65" transform="translate(452.604309 0) scale(0.996264)"/>
     <use xlink:href="#CMSS17-6e" transform="translate(494.243131 0) scale(0.996264)"/>
     <use xlink:href="#CMSS17-65" transform="translate(542.448074 0) scale(0.996264)"/>
     <use xlink:href="#CMSS17-74" transform="translate(615.316009 0) scale(0.996264)"/>
     <use xlink:href="#CMSS17-69" transform="translate(649.147575 0) scale(0.996264)"/>
     <use xlink:href="#CMSS17-6c" transform="translate(671.328298 0) scale(0.996264)"/>
     <use xlink:href="#CMSS17-73" transform="translate(724.738134 0) scale(0.996264)"/>
     <use xlink:href="#CMSS17-6b" transform="translate(760.651676 0) scale(0.996264)"/>
     <use xlink:href="#CMSS17-6a" transform="translate(806.254165 0) scale(0.996264)"/>
     <use xlink:href="#CMSS17-1a" transform="translate(831.037251 0) scale(0.996264)"/>
     <use xlink:href="#CMSS17-72" transform="translate(898.700278 0) scale(0.996264)"/>
     <use xlink:href="#CMSS17-69" transform="translate(930.610051 0) scale(0.996264)"/>
     <use xlink:href="#CMSS17-6e" transform="translate(952.790774 0) scale(0.996264)"/>
     <use xlink:href="#CMSS17-67" transform="translate(1000.995717 0) scale(0.996264)"/>
     <use xlink:href="#CMSS17-65" transform="translate(1047.83934 0) scale(0.996264)"/>
     <use xlink:href="#CMSS17-6e" transform="translate(1089.478162 0) scale(0.996264)"/>
     <use xlink:href="#CMSS17-65" transform="translate(1137.683105 0) scale(0.996264)"/>
    </g>
    <!--  løser likningen $f(x) = g(x)$ -->
    <g transform="translate(107.733333 85.164063) scale(0.16 -0.16)">
     <use xlink:href="#CMSS17-6c" transform="scale(0.996264)"/>
     <use xlink:href="#CMSS17-1c" transform="translate(22.180723 0) scale(0.996264)"/>
     <use xlink:href="#CMSS17-73" transform="translate(69.024347 0) scale(0.996264)"/>
     <use xlink:href="#CMSS17-65" transform="translate(104.937889 0) scale(0.996264)"/>
     <use xlink:href="#CMSS17-72" transform="translate(146.576711 0) scale(0.996264)"/>
     <use xlink:href="#CMSS17-6c" transform="translate(209.715596 0) scale(0.996264)"/>
     <use xlink:href="#CMSS17-69" transform="translate(231.896319 0) scale(0.996264)"/>
     <use xlink:href="#CMSS17-6b" transform="translate(254.077042 0) scale(0.996264)"/>
     <use xlink:href="#CMSS17-6e" transform="translate(299.679531 0) scale(0.996264)"/>
     <use xlink:href="#CMSS17-69" transform="translate(347.884474 0) scale(0.996264)"/>
     <use xlink:href="#CMSS17-6e" transform="translate(370.065197 0) scale(0.996264)"/>
     <use xlink:href="#CMSS17-67" transform="translate(418.270141 0) scale(0.996264)"/>
     <use xlink:href="#CMSS17-65" transform="translate(465.113764 0) scale(0.996264)"/>
     <use xlink:href="#CMSS17-6e" transform="translate(506.752586 0) scale(0.996264)"/>
     <use xlink:href="#CMMI12-66" transform="translate(586.186642 0) scale(0.996264)"/>
     <use xlink:href="#CMR17-28" transform="translate(644.906947 0) scale(0.996264)"/>
     <use xlink:href="#CMMI12-78" transform="translate(680.187715 0) scale(0.996264)"/>
     <use xlink:href="#CMR17-29" transform="translate(735.621774 0) scale(0.996264)"/>
     <use xlink:href="#CMR17-3d" transform="translate(798.576551 0) scale(0.996264)"/>
     <use xlink:href="#CMMI12-67" transform="translate(897.965348 0) scale(0.996264)"/>
     <use xlink:href="#CMR17-28" transform="translate(948.250837 0) scale(0.996264)"/>
     <use xlink:href="#CMMI12-78" transform="translate(983.531605 0) scale(0.996264)"/>
     <use xlink:href="#CMR17-29" transform="translate(1038.965665 0) scale(0.996264)"/>
    </g>
   </g>
   <g id="legend_1">
    <g id="patch_11">
     <path d="M 376.906682 193.558678 
L 435.8 193.558678 
Q 439 193.558678 439 190.358678 
L 439 147.359725 
Q 439 144.159725 435.8 144.159725 
L 376.906682 144.159725 
Q 373.706682 144.159725 373.706682 147.359725 
L 373.706682 190.358678 
Q 373.706682 193.558678 376.906682 193.558678 
z
" style="fill: #ffffff; opacity: 0.8; stroke: #cccccc; stroke-linejoin: miter"/>
    </g>
    <g id="line2d_37">
     <path d="M 380.106682 156.159725 
L 396.106682 156.159725 
L 412.106682 156.159725 
" style="fill: none; stroke: #0072b2; stroke-opacity: 0.9; stroke-width: 2.5; stroke-linecap: square"/>
    </g>
    <g id="text_21">
     <!-- $f$ -->
     <g transform="translate(424.906682 161.759725) scale(0.16 -0.16)">
      <use xlink:href="#CMMI12-66" transform="scale(0.996264)"/>
     </g>
    </g>
    <g id="line2d_38">
     <path d="M 380.106682 178.459202 
L 396.106682 178.459202 
L 412.106682 178.459202 
" style="fill: none; stroke: #dc5e8b; stroke-width: 2.5; stroke-linecap: square"/>
    </g>
    <g id="text_22">
     <!-- $g$ -->
     <g transform="translate(424.906682 184.059202) scale(0.16 -0.16)">
      <use xlink:href="#CMMI12-67" transform="scale(0.996264)"/>
     </g>
    </g>
   </g>
  </g>
 </g>
 <defs>
  <clipPath id="p5494f0ab5d">
   <rect x="10.8" y="18.064532" width="436.2" height="301.589339"/>
  </clipPath>
 </defs>
</svg>
