<?xml version='1.0' encoding='ASCII' standalone='yes'?>
<svg xmlns="http://www.w3.org/2000/svg" xmlns:xlink="http://www.w3.org/1999/xlink" version="1.1" width="1152.0px" viewBox="0 0 1152.0 864.0000000000001" height="864.0000000000001px">
  <g>
    <g transform="translate(0, 0) scale(1 1) translate(0, 0) scale(1.25 1.25) "><metadata>
  <rdf:RDF xmlns:dc="http://purl.org/dc/elements/1.1/" xmlns:cc="http://creativecommons.org/ns#" xmlns:rdf="http://www.w3.org/1999/02/22-rdf-syntax-ns#">
   <cc:Work>
    <dc:type rdf:resource="http://purl.org/dc/dcmitype/StillImage"/>
    <dc:date>2025-02-17T17:03:39.307922</dc:date>
    <dc:format>image/svg+xml</dc:format>
    <dc:creator>
     <cc:Agent>
      <dc:title>Matplotlib v3.9.1, https://matplotlib.org/</dc:title>
     </cc:Agent>
    </dc:creator>
   </cc:Work>
  </rdf:RDF>
 </metadata>
 <defs>
  <style type="text/css">*{stroke-linejoin: round; stroke-linecap: butt}</style>
 </defs>
 <g id="figure_1">
  <g id="patch_1">
   <path d="M 0 345.6  L 460.8 345.6  L 460.8 0  L 0 0  z " style="fill: #ffffff"/>
  </g>
  <g id="axes_1">
   <g id="patch_2">
    <path d="M 10.8 334.8  L 447 334.8  L 447 18.064532  L 10.8 18.064532  z " style="fill: #ffffff"/>
   </g>
   <g id="matplotlib.axis_1">
    <g id="text_1">
     <!-- $x$ -->
     <g transform="translate(438.13055 191.501854) scale(0.16 -0.16)">
      <defs>
       <path id="CMMI12-78" d="M 3034 2606  C 2829 2567 2752 2414 2752 2293  C 2752 2139 2874 2088 2963 2088  C 3155 2088 3290 2254 3290 2427  C 3290 2695 2982 2816 2714 2816  C 2323 2816 2106 2433 2048 2312  C 1901 2816 1504 2816 1389 2816  C 736 2816 390 1980 390 1839  C 390 1814 416 1782 461 1782  C 512 1782 525 1820 538 1846  C 755 2555 1184 2689 1370 2689  C 1658 2689 1715 2420 1715 2267  C 1715 2127 1677 1980 1600 1673  L 1382 798  C 1286 415 1101 64 762 64  C 730 64 570 64 435 147  C 666 192 717 383 717 460  C 717 588 621 664 499 664  C 346 664 179 530 179 326  C 179 57 480 -64 755 -64  C 1062 -64 1280 179 1414 441  C 1517 64 1837 -64 2074 -64  C 2726 -64 3072 773 3072 913  C 3072 945 3046 971 3008 971  C 2950 971 2944 939 2925 888  C 2752 326 2381 64 2093 64  C 1869 64 1747 230 1747 492  C 1747 632 1773 734 1875 1156  L 2099 2024  C 2195 2408 2413 2689 2707 2689  C 2720 2689 2899 2689 3034 2606  z " transform="scale(0.015625)"/>
      </defs>
      <use xlink:href="#CMMI12-78" transform="scale(0.996264)"/>
     </g>
    </g>
   </g>
   <g id="matplotlib.axis_2">
    <g id="text_2">
     <!-- $y$ -->
     <g transform="translate(217.289729 14.965056) scale(0.16 -0.16)">
      <defs>
       <path id="CMMI12-79" d="M 1683 -700  C 1510 -939 1261 -1152 947 -1152  C 870 -1152 563 -1152 467 -889  C 486 -895 518 -895 531 -895  C 723 -895 851 -729 851 -582  C 851 -435 730 -384 634 -384  C 531 -384 307 -458 307 -759  C 307 -1071 582 -1286 947 -1286  C 1587 -1286 2234 -700 2413 6  L 3040 2485  C 3046 2517 3059 2556 3059 2594  C 3059 2689 2982 2753 2886 2753  C 2829 2753 2694 2727 2643 2535  L 2170 658  C 2138 543 2138 530 2086 460  C 1958 281 1747 64 1440 64  C 1082 64 1050 415 1050 588  C 1050 952 1222 1443 1395 1903  C 1466 2088 1504 2178 1504 2305  C 1504 2574 1312 2816 998 2816  C 410 2816 173 1890 173 1839  C 173 1814 198 1782 243 1782  C 301 1782 307 1807 333 1897  C 486 2433 730 2689 979 2689  C 1037 2689 1146 2689 1146 2478  C 1146 2312 1075 2127 979 1884  C 666 1047 666 837 666 683  C 666 77 1101 -64 1421 -64  C 1606 -64 1837 -6 2061 230  L 2067 224  C 1971 -147 1907 -392 1683 -700  z " transform="scale(0.015625)"/>
      </defs>
      <use xlink:href="#CMMI12-79" transform="scale(0.996264)"/>
     </g>
    </g>
   </g>
   <g id="line2d_1">
    <defs>
     <path id="m1728b117e7" d="M 3 0  L -3 -3  L -3 3  z " style="stroke: #000000; stroke-linejoin: miter"/>
    </defs>
    <g>
     <use xlink:href="#m1728b117e7" x="447" y="176.432266" style="stroke: #000000; stroke-linejoin: miter"/>
    </g>
   </g>
   <g id="line2d_2">
    <defs>
     <path id="md9b1ac88c1" d="M 0 -3  L -3 3  L 3 3  z " style="stroke: #000000; stroke-linejoin: miter"/>
    </defs>
    <g>
     <use xlink:href="#md9b1ac88c1" x="228.9" y="18.064532" style="stroke: #000000; stroke-linejoin: miter"/>
    </g>
   </g>
   <g id="line2d_3">
    <path d="M 10.458886 162.989934  L 42.822111 163.580537  L 67.339707 164.242906  L 85.973079 164.95751  L 100.683636 165.729108  L 112.942434 166.587377  L 122.749472 167.482862  L 131.085455 168.454154  L 138.440733 169.536545  L 144.324956 170.611289  L 149.718827 171.816627  L 154.131994 173.009173  L 158.054809 174.271657  L 161.977625 175.779593  L 165.410088 177.357907  L 168.352199 178.95677  L 170.803959 180.506776  L 173.255718 182.302427  L 175.707478 184.403517  L 177.668886 186.357412  L 179.630293 188.612118  L 181.591701 191.239041  L 183.553109 194.33364  L 185.024164 197.038241  L 186.49522 200.151568  L 187.966276 203.769636  L 189.437331 208.020642  L 190.908387 213.079613  L 192.379443 219.191856  L 193.850499 226.71204  L 194.831202 232.760078  L 195.811906 239.889412  L 196.79261 248.410747  L 197.773314 258.765752  L 198.754018 271.604116  L 199.734721 287.922252  L 200.715425 309.330024  L 201.696129 338.608469  L 201.901636 346.6  L 201.901636 346.6  " clip-path="url(#p5359794fe7)" style="fill: none; stroke: #008080; stroke-opacity: 0.7; stroke-width: 2; stroke-linecap: square"/>
   </g>
   <g id="line2d_4">
    <path d="M 214.356899 -1  L 215.276745 14.529219  L 216.257449 27.51436  L 217.280792 38.250891  L 218.346774 47.199031  L 219.455396 54.694772  L 220.606657 60.986899  L 221.757918 66.091397  L 222.909179 70.244531  L 224.06044 73.614745  L 225.211701 76.32342  L 226.320323 78.388377  L 227.386305 79.92391  L 228.409648 81.015343  L 229.347713 81.703476  L 230.243138 82.089173  L 231.095924 82.211536  L 231.90607 82.103284  L 232.716217 81.769296  L 233.569003 81.161553  L 234.421789 80.272546  L 235.317214 79.008065  L 236.255279 77.276325  L 237.193343 75.066748  L 238.174047 72.154555  L 239.154751 68.497271  L 240.092815 64.133835  L 241.03088 58.695805  L 241.926305 52.204935  L 242.82173 44.022978  L 243.674516 34.084038  L 244.484663 21.919769  L 245.25217 6.872484  L 245.580524 -1  L 245.580524 -1  " clip-path="url(#p5359794fe7)" style="fill: none; stroke: #008080; stroke-opacity: 0.7; stroke-width: 2; stroke-linecap: square"/>
   </g>
   <g id="line2d_5">
    <path d="M 254.042778 346.6  L 254.142463 339.828161  L 255.123167 295.554484  L 256.103871 267.525835  L 257.084575 248.237263  L 258.065279 234.186942  L 259.045982 223.521349  L 260.026686 215.167705  L 261.00739 208.462167  L 261.988094 202.972009  L 262.968798 198.403156  L 264.439853 192.841166  L 265.910909 188.423961  L 267.381965 184.843953  L 268.853021 181.893713  L 270.324076 179.428364  L 271.795132 177.343731  L 273.75654 175.026595  L 275.717947 173.119908  L 277.679355 171.530484  L 279.640762 170.190778  L 282.092522 168.792211  L 284.544282 167.63444  L 287.486393 166.490644  L 290.918856 165.414889  L 294.841672 164.440328  L 299.254839 163.582737  L 304.64871 162.781325  L 311.023284 162.079165  L 318.868915 161.460546  L 328.675953 160.933404  L 340.934751 160.510123  L 357.606716 160.17352  L 381.143607 159.938335  L 418.410352 159.811289  L 447.341114 159.795683  L 447.341114 159.795683  " clip-path="url(#p5359794fe7)" style="fill: none; stroke: #008080; stroke-opacity: 0.7; stroke-width: 2; stroke-linecap: square"/>
   </g>
   <g id="LineCollection_1">
    <path d="M 207.09 346.6  L 207.09 -1  " clip-path="url(#p5359794fe7)" style="fill: none; stroke-dasharray: 5.55,2.4; stroke-dashoffset: 0; stroke: #ff0000; stroke-width: 1.5"/>
   </g>
   <g id="LineCollection_2">
    <path d="M 250.71 346.6  L 250.71 -1  " clip-path="url(#p5359794fe7)" style="fill: none; stroke-dasharray: 5.55,2.4; stroke-dashoffset: 0; stroke: #ff0000; stroke-width: 1.5"/>
   </g>
   <g id="LineCollection_3">
    <path d="M -1 160.595493  L 461.8 160.595493  " clip-path="url(#p5359794fe7)" style="fill: none; stroke-dasharray: 5.55,2.4; stroke-dashoffset: 0; stroke: #0000ff; stroke-width: 1.5"/>
   </g>
   <g id="line2d_6">
    <defs>
     <path id="mafbb306ab6" d="M 0 4  C 1.060812 4 2.078319 3.578535 2.828427 2.828427  C 3.578535 2.078319 4 1.060812 4 0  C 4 -1.060812 3.578535 -2.078319 2.828427 -2.828427  C 2.078319 -3.578535 1.060812 -4 0 -4  C -1.060812 -4 -2.078319 -3.578535 -2.828427 -2.828427  C -3.578535 -2.078319 -4 -1.060812 -4 0  C -4 1.060812 -3.578535 2.078319 -2.828427 2.828427  C -2.078319 3.578535 -1.060812 4 0 4  z " style="stroke: #000000; stroke-opacity: 0.7"/>
    </defs>
    <g clip-path="url(#p5359794fe7)">
     <use xlink:href="#mafbb306ab6" x="272.52" y="176.432266" style="fill-opacity: 0.7; stroke: #000000; stroke-opacity: 0.7"/>
    </g>
   </g>
   <g id="line2d_7">
    <g clip-path="url(#p5359794fe7)">
     <use xlink:href="#mafbb306ab6" x="163.47" y="176.432266" style="fill-opacity: 0.7; stroke: #000000; stroke-opacity: 0.7"/>
    </g>
   </g>
   <g id="patch_3">
    <path d="M 228.9 334.8  L 228.9 18.064532  " style="fill: none; stroke: #000000; stroke-width: 0.8; stroke-linejoin: miter; stroke-linecap: square"/>
   </g>
   <g id="patch_4">
    <path d="M 447 334.8  L 447 18.064532  " style="fill: none"/>
   </g>
   <g id="patch_5">
    <path d="M 10.8 176.432266  L 447 176.432266  " style="fill: none; stroke: #000000; stroke-width: 0.8; stroke-linejoin: miter; stroke-linecap: square"/>
   </g>
   <g id="patch_6">
    <path d="M 10.8 18.064532  L 447 18.064532  " style="fill: none"/>
   </g>
   <g id="legend_1">
    <g id="patch_7">
     <path d="M 376.906682 53.164008  L 435.8 53.164008  Q 439 53.164008 439 49.964008  L 439 29.264532  Q 439 26.064532 435.8 26.064532  L 376.906682 26.064532  Q 373.706682 26.064532 373.706682 29.264532  L 373.706682 49.964008  Q 373.706682 53.164008 376.906682 53.164008  z " style="fill: #ffffff; opacity: 0.8; stroke: #cccccc; stroke-linejoin: miter"/>
    </g>
    <g id="line2d_8">
     <path d="M 380.106682 38.064532  L 396.106682 38.064532  L 412.106682 38.064532  " style="fill: none; stroke: #008080; stroke-opacity: 0.7; stroke-width: 2; stroke-linecap: square"/>
    </g>
    <g id="text_3">
     <!-- $f$ -->
     <g transform="translate(424.906682 43.664532) scale(0.16 -0.16)">
      <defs>
       <path id="CMMI12-66" d="M 2854 2566  C 2982 2566 3034 2566 3034 2688  C 3034 2752 2982 2752 2867 2752  L 2349 2752  C 2470 3429 2560 3897 2611 4107  C 2650 4265 2784 4416 2950 4416  C 3085 4416 3219 4358 3283 4298  C 3034 4272 2957 4082 2957 3969  C 2957 3837 3053 3759 3174 3759  C 3302 3759 3494 3870 3494 4119  C 3494 4393 3226 4544 2944 4544  C 2669 4544 2400 4334 2272 4078  C 2157 3848 2093 3611 1946 2752  L 1517 2752  C 1395 2752 1331 2752 1331 2637  C 1331 2566 1370 2566 1498 2566  L 1907 2566  C 1792 1976 1530 542 1382 -137  C 1274 -689 1178 -1152 858 -1152  C 838 -1152 653 -1152 538 -1031  C 864 -1005 864 -726 864 -720  C 864 -593 768 -517 646 -517  C 518 -517 326 -625 326 -867  C 326 -1140 608 -1280 858 -1280  C 1510 -1280 1779 -118 1850 199  C 1965 688 2278 2376 2310 2566  L 2854 2566  z " transform="scale(0.015625)"/>
      </defs>
      <use xlink:href="#CMMI12-66" transform="scale(0.996264)"/>
     </g>
    </g>
   </g>
  </g>
 </g>
 <defs>
  <clipPath id="p5359794fe7">
   <rect x="10.8" y="18.064532" width="436.2" height="316.735468"/>
  </clipPath>
 </defs>
</g>
    <g transform="translate(576.0, 0) scale(1 1) translate(0, 0) scale(1.25 1.25) "><metadata>
  <rdf:RDF xmlns:dc="http://purl.org/dc/elements/1.1/" xmlns:cc="http://creativecommons.org/ns#" xmlns:rdf="http://www.w3.org/1999/02/22-rdf-syntax-ns#">
   <cc:Work>
    <dc:type rdf:resource="http://purl.org/dc/dcmitype/StillImage"/>
    <dc:date>2025-02-17T13:27:26.279802</dc:date>
    <dc:format>image/svg+xml</dc:format>
    <dc:creator>
     <cc:Agent>
      <dc:title>Matplotlib v3.9.1, https://matplotlib.org/</dc:title>
     </cc:Agent>
    </dc:creator>
   </cc:Work>
  </rdf:RDF>
 </metadata>
 <defs>
  <style type="text/css">*{stroke-linejoin: round; stroke-linecap: butt}</style>
 </defs>
 <g id="figure_1">
  <g id="patch_1">
   <path d="M 0 345.6  L 460.8 345.6  L 460.8 0  L 0 0  z " style="fill: #ffffff"/>
  </g>
  <g id="axes_1">
   <g id="patch_2">
    <path d="M 10.8 334.8  L 447 334.8  L 447 18.064532  L 10.8 18.064532  z " style="fill: #ffffff"/>
   </g>
   <g id="matplotlib.axis_1">
    <g id="text_1">
     <!-- $x$ -->
     <g transform="translate(438.13055 191.501854) scale(0.16 -0.16)">
      <defs>
       <path id="CMMI12-78" d="M 3034 2606  C 2829 2567 2752 2414 2752 2293  C 2752 2139 2874 2088 2963 2088  C 3155 2088 3290 2254 3290 2427  C 3290 2695 2982 2816 2714 2816  C 2323 2816 2106 2433 2048 2312  C 1901 2816 1504 2816 1389 2816  C 736 2816 390 1980 390 1839  C 390 1814 416 1782 461 1782  C 512 1782 525 1820 538 1846  C 755 2555 1184 2689 1370 2689  C 1658 2689 1715 2420 1715 2267  C 1715 2127 1677 1980 1600 1673  L 1382 798  C 1286 415 1101 64 762 64  C 730 64 570 64 435 147  C 666 192 717 383 717 460  C 717 588 621 664 499 664  C 346 664 179 530 179 326  C 179 57 480 -64 755 -64  C 1062 -64 1280 179 1414 441  C 1517 64 1837 -64 2074 -64  C 2726 -64 3072 773 3072 913  C 3072 945 3046 971 3008 971  C 2950 971 2944 939 2925 888  C 2752 326 2381 64 2093 64  C 1869 64 1747 230 1747 492  C 1747 632 1773 734 1875 1156  L 2099 2024  C 2195 2408 2413 2689 2707 2689  C 2720 2689 2899 2689 3034 2606  z " transform="scale(0.015625)"/>
      </defs>
      <use xlink:href="#CMMI12-78" transform="scale(0.996264)"/>
     </g>
    </g>
   </g>
   <g id="matplotlib.axis_2">
    <g id="text_2">
     <!-- $y$ -->
     <g transform="translate(217.289729 14.965056) scale(0.16 -0.16)">
      <defs>
       <path id="CMMI12-79" d="M 1683 -700  C 1510 -939 1261 -1152 947 -1152  C 870 -1152 563 -1152 467 -889  C 486 -895 518 -895 531 -895  C 723 -895 851 -729 851 -582  C 851 -435 730 -384 634 -384  C 531 -384 307 -458 307 -759  C 307 -1071 582 -1286 947 -1286  C 1587 -1286 2234 -700 2413 6  L 3040 2485  C 3046 2517 3059 2556 3059 2594  C 3059 2689 2982 2753 2886 2753  C 2829 2753 2694 2727 2643 2535  L 2170 658  C 2138 543 2138 530 2086 460  C 1958 281 1747 64 1440 64  C 1082 64 1050 415 1050 588  C 1050 952 1222 1443 1395 1903  C 1466 2088 1504 2178 1504 2305  C 1504 2574 1312 2816 998 2816  C 410 2816 173 1890 173 1839  C 173 1814 198 1782 243 1782  C 301 1782 307 1807 333 1897  C 486 2433 730 2689 979 2689  C 1037 2689 1146 2689 1146 2478  C 1146 2312 1075 2127 979 1884  C 666 1047 666 837 666 683  C 666 77 1101 -64 1421 -64  C 1606 -64 1837 -6 2061 230  L 2067 224  C 1971 -147 1907 -392 1683 -700  z " transform="scale(0.015625)"/>
      </defs>
      <use xlink:href="#CMMI12-79" transform="scale(0.996264)"/>
     </g>
    </g>
   </g>
   <g id="line2d_1">
    <defs>
     <path id="m3104845d1b" d="M 3 0  L -3 -3  L -3 3  z " style="stroke: #000000; stroke-linejoin: miter"/>
    </defs>
    <g>
     <use xlink:href="#m3104845d1b" x="447" y="176.432266" style="stroke: #000000; stroke-linejoin: miter"/>
    </g>
   </g>
   <g id="line2d_2">
    <defs>
     <path id="m99d6e1a1ee" d="M 0 -3  L -3 3  L 3 3  z " style="stroke: #000000; stroke-linejoin: miter"/>
    </defs>
    <g>
     <use xlink:href="#m99d6e1a1ee" x="228.9" y="18.064532" style="stroke: #000000; stroke-linejoin: miter"/>
    </g>
   </g>
   <g id="line2d_3">
    <path d="M 10.330968 314.99311  L 49.772317 285.507653  L 80.152815 262.529072  L 104.137419 244.119112  L 123.325103 229.1216  L 138.781848 216.774758  L 151.573636 206.291782  L 162.766452 196.834117  L 171.827302 188.90141  L 179.82217 181.614642  L 186.751056 174.999851  L 192.613959 169.107688  L 197.943871 163.435895  L 202.740792 157.988973  L 207.004721 152.78538  L 210.73566 147.863433  L 213.933607 143.28727  L 217.131554 138.281764  L 219.79651 133.686409  L 222.461466 128.589116  L 224.593431 124.046632  L 226.725396 118.971808  L 228.857361 113.208837  L 230.456334 108.304287  L 232.055308 102.757995  L 233.654282 96.389471  L 235.253255 88.943539  L 236.852229 80.047251  L 237.918211 73.042054  L 238.984194 64.903918  L 240.050176 55.292963  L 241.116158 43.718247  L 242.182141 29.443362  L 243.248123 11.311092  L 243.832636 -1  L 243.832636 -1  " clip-path="url(#pf39d639e37)" style="fill: none; stroke: #008080; stroke-opacity: 0.7; stroke-width: 2; stroke-linecap: square"/>
   </g>
   <g id="line2d_4">
    <path d="M 255.761772 346.6  L 256.594223 316.584076  L 257.574927 290.715101  L 258.55563 271.135341  L 259.536334 255.748392  L 260.517038 243.29641  L 261.497742 232.97895  L 262.968798 220.384364  L 264.439853 210.259724  L 265.910909 201.887949  L 267.381965 194.805046  L 268.853021 188.697505  L 270.324076 183.34587  L 272.285484 177.118971  L 274.246891 171.692517  L 276.208299 166.88179  L 278.660059 161.53677  L 281.111818 156.766708  L 283.563578 152.442881  L 286.505689 147.714218  L 289.447801 143.379325  L 292.880264 138.70968  L 296.803079 133.77001  L 301.216246 128.601177  L 306.119765 123.225012  L 311.513636 117.64946  L 317.888211 111.403626  L 324.753138 104.988735  L 333.08912 97.51966  L 342.405806 89.476565  L 353.6839 80.049602  L 366.923402 69.289688  L 382.614663 56.835198  L 401.738387 41.954283  L 424.784927 24.311275  L 447.341114 7.249834  L 447.341114 7.249834  " clip-path="url(#pf39d639e37)" style="fill: none; stroke: #008080; stroke-opacity: 0.7; stroke-width: 2; stroke-linecap: square"/>
   </g>
   <g id="LineCollection_1">
    <path d="M 250.71 346.6  L 250.71 -1  " clip-path="url(#pf39d639e37)" style="fill: none; stroke-dasharray: 5.55,2.4; stroke-dashoffset: 0; stroke: #ff0000; stroke-width: 1.5"/>
   </g>
   <g id="line2d_5">
    <defs>
     <path id="m2728e29ec5" d="M 0 4  C 1.060812 4 2.078319 3.578535 2.828427 2.828427  C 3.578535 2.078319 4 1.060812 4 0  C 4 -1.060812 3.578535 -2.078319 2.828427 -2.828427  C 2.078319 -3.578535 1.060812 -4 0 -4  C -1.060812 -4 -2.078319 -3.578535 -2.828427 -2.828427  C -3.578535 -2.078319 -4 -1.060812 -4 0  C -4 1.060812 -3.578535 2.078319 -2.828427 2.828427  C -2.078319 3.578535 -1.060812 4 0 4  z " style="stroke: #000000; stroke-opacity: 0.7"/>
    </defs>
    <g clip-path="url(#pf39d639e37)">
     <use xlink:href="#m2728e29ec5" x="272.52" y="176.432266" style="fill-opacity: 0.7; stroke: #000000; stroke-opacity: 0.7"/>
    </g>
   </g>
   <g id="line2d_6">
    <g clip-path="url(#pf39d639e37)">
     <use xlink:href="#m2728e29ec5" x="185.28" y="176.432266" style="fill-opacity: 0.7; stroke: #000000; stroke-opacity: 0.7"/>
    </g>
   </g>
   <g id="line2d_7">
    <path d="M 10.160411 319.427648  L 447.639589 1.763337  L 447.639589 1.763337  " clip-path="url(#pf39d639e37)" style="fill: none; stroke-dasharray: 5.55,2.4; stroke-dashoffset: 0; stroke: #0000ff; stroke-opacity: 0.7; stroke-width: 1.5"/>
   </g>
   <g id="patch_3">
    <path d="M 228.9 334.8  L 228.9 18.064532  " style="fill: none; stroke: #000000; stroke-width: 0.8; stroke-linejoin: miter; stroke-linecap: square"/>
   </g>
   <g id="patch_4">
    <path d="M 447 334.8  L 447 18.064532  " style="fill: none"/>
   </g>
   <g id="patch_5">
    <path d="M 10.8 176.432266  L 447 176.432266  " style="fill: none; stroke: #000000; stroke-width: 0.8; stroke-linejoin: miter; stroke-linecap: square"/>
   </g>
   <g id="patch_6">
    <path d="M 10.8 18.064532  L 447 18.064532  " style="fill: none"/>
   </g>
   <g id="legend_1">
    <g id="patch_7">
     <path d="M 22 53.164008  L 80.893318 53.164008  Q 84.093318 53.164008 84.093318 49.964008  L 84.093318 29.264532  Q 84.093318 26.064532 80.893318 26.064532  L 22 26.064532  Q 18.8 26.064532 18.8 29.264532  L 18.8 49.964008  Q 18.8 53.164008 22 53.164008  z " style="fill: #ffffff; opacity: 0.8; stroke: #cccccc; stroke-linejoin: miter"/>
    </g>
    <g id="line2d_8">
     <path d="M 25.2 38.064532  L 41.2 38.064532  L 57.2 38.064532  " style="fill: none; stroke: #008080; stroke-opacity: 0.7; stroke-width: 2; stroke-linecap: square"/>
    </g>
    <g id="text_3">
     <!-- $f$ -->
     <g transform="translate(70 43.664532) scale(0.16 -0.16)">
      <defs>
       <path id="CMMI12-66" d="M 2854 2566  C 2982 2566 3034 2566 3034 2688  C 3034 2752 2982 2752 2867 2752  L 2349 2752  C 2470 3429 2560 3897 2611 4107  C 2650 4265 2784 4416 2950 4416  C 3085 4416 3219 4358 3283 4298  C 3034 4272 2957 4082 2957 3969  C 2957 3837 3053 3759 3174 3759  C 3302 3759 3494 3870 3494 4119  C 3494 4393 3226 4544 2944 4544  C 2669 4544 2400 4334 2272 4078  C 2157 3848 2093 3611 1946 2752  L 1517 2752  C 1395 2752 1331 2752 1331 2637  C 1331 2566 1370 2566 1498 2566  L 1907 2566  C 1792 1976 1530 542 1382 -137  C 1274 -689 1178 -1152 858 -1152  C 838 -1152 653 -1152 538 -1031  C 864 -1005 864 -726 864 -720  C 864 -593 768 -517 646 -517  C 518 -517 326 -625 326 -867  C 326 -1140 608 -1280 858 -1280  C 1510 -1280 1779 -118 1850 199  C 1965 688 2278 2376 2310 2566  L 2854 2566  z " transform="scale(0.015625)"/>
      </defs>
      <use xlink:href="#CMMI12-66" transform="scale(0.996264)"/>
     </g>
    </g>
   </g>
  </g>
 </g>
 <defs>
  <clipPath id="pf39d639e37">
   <rect x="10.8" y="18.064532" width="436.2" height="316.735468"/>
  </clipPath>
 </defs>
</g>
    <g transform="translate(0, 432.00000000000006) scale(1 1) translate(0, 0) scale(1.25 1.25) "><metadata>
  <rdf:RDF xmlns:dc="http://purl.org/dc/elements/1.1/" xmlns:cc="http://creativecommons.org/ns#" xmlns:rdf="http://www.w3.org/1999/02/22-rdf-syntax-ns#">
   <cc:Work>
    <dc:type rdf:resource="http://purl.org/dc/dcmitype/StillImage"/>
    <dc:date>2025-02-17T13:30:06.545600</dc:date>
    <dc:format>image/svg+xml</dc:format>
    <dc:creator>
     <cc:Agent>
      <dc:title>Matplotlib v3.9.1, https://matplotlib.org/</dc:title>
     </cc:Agent>
    </dc:creator>
   </cc:Work>
  </rdf:RDF>
 </metadata>
 <defs>
  <style type="text/css">*{stroke-linejoin: round; stroke-linecap: butt}</style>
 </defs>
 <g id="figure_1">
  <g id="patch_1">
   <path d="M 0 345.6  L 460.8 345.6  L 460.8 0  L 0 0  z " style="fill: #ffffff"/>
  </g>
  <g id="axes_1">
   <g id="patch_2">
    <path d="M 10.8 334.8  L 447 334.8  L 447 18.064532  L 10.8 18.064532  z " style="fill: #ffffff"/>
   </g>
   <g id="matplotlib.axis_1">
    <g id="text_1">
     <!-- $x$ -->
     <g transform="translate(438.13055 191.501854) scale(0.16 -0.16)">
      <defs>
       <path id="CMMI12-78" d="M 3034 2606  C 2829 2567 2752 2414 2752 2293  C 2752 2139 2874 2088 2963 2088  C 3155 2088 3290 2254 3290 2427  C 3290 2695 2982 2816 2714 2816  C 2323 2816 2106 2433 2048 2312  C 1901 2816 1504 2816 1389 2816  C 736 2816 390 1980 390 1839  C 390 1814 416 1782 461 1782  C 512 1782 525 1820 538 1846  C 755 2555 1184 2689 1370 2689  C 1658 2689 1715 2420 1715 2267  C 1715 2127 1677 1980 1600 1673  L 1382 798  C 1286 415 1101 64 762 64  C 730 64 570 64 435 147  C 666 192 717 383 717 460  C 717 588 621 664 499 664  C 346 664 179 530 179 326  C 179 57 480 -64 755 -64  C 1062 -64 1280 179 1414 441  C 1517 64 1837 -64 2074 -64  C 2726 -64 3072 773 3072 913  C 3072 945 3046 971 3008 971  C 2950 971 2944 939 2925 888  C 2752 326 2381 64 2093 64  C 1869 64 1747 230 1747 492  C 1747 632 1773 734 1875 1156  L 2099 2024  C 2195 2408 2413 2689 2707 2689  C 2720 2689 2899 2689 3034 2606  z " transform="scale(0.015625)"/>
      </defs>
      <use xlink:href="#CMMI12-78" transform="scale(0.996264)"/>
     </g>
    </g>
   </g>
   <g id="matplotlib.axis_2">
    <g id="text_2">
     <!-- $y$ -->
     <g transform="translate(217.289729 14.965056) scale(0.16 -0.16)">
      <defs>
       <path id="CMMI12-79" d="M 1683 -700  C 1510 -939 1261 -1152 947 -1152  C 870 -1152 563 -1152 467 -889  C 486 -895 518 -895 531 -895  C 723 -895 851 -729 851 -582  C 851 -435 730 -384 634 -384  C 531 -384 307 -458 307 -759  C 307 -1071 582 -1286 947 -1286  C 1587 -1286 2234 -700 2413 6  L 3040 2485  C 3046 2517 3059 2556 3059 2594  C 3059 2689 2982 2753 2886 2753  C 2829 2753 2694 2727 2643 2535  L 2170 658  C 2138 543 2138 530 2086 460  C 1958 281 1747 64 1440 64  C 1082 64 1050 415 1050 588  C 1050 952 1222 1443 1395 1903  C 1466 2088 1504 2178 1504 2305  C 1504 2574 1312 2816 998 2816  C 410 2816 173 1890 173 1839  C 173 1814 198 1782 243 1782  C 301 1782 307 1807 333 1897  C 486 2433 730 2689 979 2689  C 1037 2689 1146 2689 1146 2478  C 1146 2312 1075 2127 979 1884  C 666 1047 666 837 666 683  C 666 77 1101 -64 1421 -64  C 1606 -64 1837 -6 2061 230  L 2067 224  C 1971 -147 1907 -392 1683 -700  z " transform="scale(0.015625)"/>
      </defs>
      <use xlink:href="#CMMI12-79" transform="scale(0.996264)"/>
     </g>
    </g>
   </g>
   <g id="line2d_1">
    <defs>
     <path id="m5a3b602710" d="M 3 0  L -3 -3  L -3 3  z " style="stroke: #000000; stroke-linejoin: miter"/>
    </defs>
    <g>
     <use xlink:href="#m5a3b602710" x="447" y="176.432266" style="stroke: #000000; stroke-linejoin: miter"/>
    </g>
   </g>
   <g id="line2d_2">
    <defs>
     <path id="mcc7320d8b6" d="M 0 -3  L -3 3  L 3 3  z " style="stroke: #000000; stroke-linejoin: miter"/>
    </defs>
    <g>
     <use xlink:href="#mcc7320d8b6" x="228.9" y="18.064532" style="stroke: #000000; stroke-linejoin: miter"/>
    </g>
   </g>
   <g id="line2d_3">
    <path d="M 10.330968 177.749636  L 76.293959 178.192481  L 119.530205 178.689933  L 150.017302 179.251796  L 172.189736 179.874897  L 188.819062 180.558863  L 201.568211 181.300361  L 211.545806 182.096958  L 219.306158 182.923059  L 225.957889 183.850315  L 231.500997 184.852754  L 235.935484 185.873419  L 239.81566 186.993556  L 243.141525 188.189174  L 245.913079 189.413852  L 248.130323 190.593996  L 250.347566 192.010169  L 252.564809 193.741047  L 254.227742 195.314573  L 255.890674 197.202804  L 257.553607 199.510641  L 258.662229 201.356911  L 259.77085 203.524271  L 260.879472 206.104462  L 261.988094 209.227851  L 263.096716 213.086156  L 264.205337 217.973341  L 265.313959 224.364276  L 266.422581 233.079186  L 266.976891 238.743878  L 267.531202 245.667391  L 268.085513 254.321781  L 268.639824 265.448855  L 269.194135 280.284953  L 269.748446 301.055491  L 270.456355 346.6  L 270.456355 346.6  " clip-path="url(#pde659261b0)" style="fill: none; stroke: #008080; stroke-opacity: 0.7; stroke-width: 2; stroke-linecap: square"/>
   </g>
   <g id="line2d_4">
    <path d="M 274.481097 -1  L 274.865161 29.150274  L 275.334194 53.697272  L 275.803226 71.230843  L 276.74129 94.608937  L 277.679355 109.485906  L 278.617419 119.785346  L 279.555484 127.338269  L 280.493548 133.114033  L 281.431613 137.673847  L 282.369677 141.365125  L 283.307742 144.414442  L 284.714839 148.108806  L 286.121935 151.038819  L 287.529032 153.419455  L 288.936129 155.391981  L 290.343226 157.053057  L 292.219355 158.898696  L 294.095484 160.423354  L 296.440645 161.992855  L 298.785806 163.282088  L 301.6 164.554686  L 304.883226 165.759658  L 308.635484 166.8685  L 312.856774 167.86936  L 318.016129 168.840411  L 324.113548 169.73763  L 331.149032 170.540986  L 340.060645 171.318308  L 350.848387 172.022626  L 364.450323 172.675072  L 381.804516 173.271708  L 404.318065 173.81159  L 434.336129 174.297744  L 447.469032 174.457977  L 447.469032 174.457977  " clip-path="url(#pde659261b0)" style="fill: none; stroke: #008080; stroke-opacity: 0.7; stroke-width: 2; stroke-linecap: square"/>
   </g>
   <g id="LineCollection_1">
    <path d="M 272.52 346.6  L 272.52 -1  " clip-path="url(#pde659261b0)" style="fill: none; stroke-dasharray: 5.55,2.4; stroke-dashoffset: 0; stroke: #ff0000; stroke-width: 1.5"/>
   </g>
   <g id="LineCollection_2">
    <path d="M -1 176.432266  L 461.8 176.432266  " clip-path="url(#pde659261b0)" style="fill: none; stroke-dasharray: 5.55,2.4; stroke-dashoffset: 0; stroke: #0000ff; stroke-width: 1.5"/>
   </g>
   <g id="patch_3">
    <path d="M 228.9 334.8  L 228.9 18.064532  " style="fill: none; stroke: #000000; stroke-width: 0.8; stroke-linejoin: miter; stroke-linecap: square"/>
   </g>
   <g id="patch_4">
    <path d="M 447 334.8  L 447 18.064532  " style="fill: none"/>
   </g>
   <g id="patch_5">
    <path d="M 10.8 176.432266  L 447 176.432266  " style="fill: none; stroke: #000000; stroke-width: 0.8; stroke-linejoin: miter; stroke-linecap: square"/>
   </g>
   <g id="patch_6">
    <path d="M 10.8 18.064532  L 447 18.064532  " style="fill: none"/>
   </g>
   <g id="legend_1">
    <g id="patch_7">
     <path d="M 376.906682 53.164008  L 435.8 53.164008  Q 439 53.164008 439 49.964008  L 439 29.264532  Q 439 26.064532 435.8 26.064532  L 376.906682 26.064532  Q 373.706682 26.064532 373.706682 29.264532  L 373.706682 49.964008  Q 373.706682 53.164008 376.906682 53.164008  z " style="fill: #ffffff; opacity: 0.8; stroke: #cccccc; stroke-linejoin: miter"/>
    </g>
    <g id="line2d_5">
     <path d="M 380.106682 38.064532  L 396.106682 38.064532  L 412.106682 38.064532  " style="fill: none; stroke: #008080; stroke-opacity: 0.7; stroke-width: 2; stroke-linecap: square"/>
    </g>
    <g id="text_3">
     <!-- $f$ -->
     <g transform="translate(424.906682 43.664532) scale(0.16 -0.16)">
      <defs>
       <path id="CMMI12-66" d="M 2854 2566  C 2982 2566 3034 2566 3034 2688  C 3034 2752 2982 2752 2867 2752  L 2349 2752  C 2470 3429 2560 3897 2611 4107  C 2650 4265 2784 4416 2950 4416  C 3085 4416 3219 4358 3283 4298  C 3034 4272 2957 4082 2957 3969  C 2957 3837 3053 3759 3174 3759  C 3302 3759 3494 3870 3494 4119  C 3494 4393 3226 4544 2944 4544  C 2669 4544 2400 4334 2272 4078  C 2157 3848 2093 3611 1946 2752  L 1517 2752  C 1395 2752 1331 2752 1331 2637  C 1331 2566 1370 2566 1498 2566  L 1907 2566  C 1792 1976 1530 542 1382 -137  C 1274 -689 1178 -1152 858 -1152  C 838 -1152 653 -1152 538 -1031  C 864 -1005 864 -726 864 -720  C 864 -593 768 -517 646 -517  C 518 -517 326 -625 326 -867  C 326 -1140 608 -1280 858 -1280  C 1510 -1280 1779 -118 1850 199  C 1965 688 2278 2376 2310 2566  L 2854 2566  z " transform="scale(0.015625)"/>
      </defs>
      <use xlink:href="#CMMI12-66" transform="scale(0.996264)"/>
     </g>
    </g>
   </g>
  </g>
 </g>
 <defs>
  <clipPath id="pde659261b0">
   <rect x="10.8" y="18.064532" width="436.2" height="316.735468"/>
  </clipPath>
 </defs>
</g>
    <g transform="translate(576.0, 432.00000000000006) scale(1 1) translate(0, 0) scale(1.25 1.25) "><metadata>
  <rdf:RDF xmlns:dc="http://purl.org/dc/elements/1.1/" xmlns:cc="http://creativecommons.org/ns#" xmlns:rdf="http://www.w3.org/1999/02/22-rdf-syntax-ns#">
   <cc:Work>
    <dc:type rdf:resource="http://purl.org/dc/dcmitype/StillImage"/>
    <dc:date>2025-02-17T17:06:02.846735</dc:date>
    <dc:format>image/svg+xml</dc:format>
    <dc:creator>
     <cc:Agent>
      <dc:title>Matplotlib v3.9.1, https://matplotlib.org/</dc:title>
     </cc:Agent>
    </dc:creator>
   </cc:Work>
  </rdf:RDF>
 </metadata>
 <defs>
  <style type="text/css">*{stroke-linejoin: round; stroke-linecap: butt}</style>
 </defs>
 <g id="figure_1">
  <g id="patch_1">
   <path d="M 0 345.6  L 460.8 345.6  L 460.8 0  L 0 0  z " style="fill: #ffffff"/>
  </g>
  <g id="axes_1">
   <g id="patch_2">
    <path d="M 10.8 334.8  L 447 334.8  L 447 18.064532  L 10.8 18.064532  z " style="fill: #ffffff"/>
   </g>
   <g id="matplotlib.axis_1">
    <g id="text_1">
     <!-- $x$ -->
     <g transform="translate(438.13055 191.501854) scale(0.16 -0.16)">
      <defs>
       <path id="CMMI12-78" d="M 3034 2606  C 2829 2567 2752 2414 2752 2293  C 2752 2139 2874 2088 2963 2088  C 3155 2088 3290 2254 3290 2427  C 3290 2695 2982 2816 2714 2816  C 2323 2816 2106 2433 2048 2312  C 1901 2816 1504 2816 1389 2816  C 736 2816 390 1980 390 1839  C 390 1814 416 1782 461 1782  C 512 1782 525 1820 538 1846  C 755 2555 1184 2689 1370 2689  C 1658 2689 1715 2420 1715 2267  C 1715 2127 1677 1980 1600 1673  L 1382 798  C 1286 415 1101 64 762 64  C 730 64 570 64 435 147  C 666 192 717 383 717 460  C 717 588 621 664 499 664  C 346 664 179 530 179 326  C 179 57 480 -64 755 -64  C 1062 -64 1280 179 1414 441  C 1517 64 1837 -64 2074 -64  C 2726 -64 3072 773 3072 913  C 3072 945 3046 971 3008 971  C 2950 971 2944 939 2925 888  C 2752 326 2381 64 2093 64  C 1869 64 1747 230 1747 492  C 1747 632 1773 734 1875 1156  L 2099 2024  C 2195 2408 2413 2689 2707 2689  C 2720 2689 2899 2689 3034 2606  z " transform="scale(0.015625)"/>
      </defs>
      <use xlink:href="#CMMI12-78" transform="scale(0.996264)"/>
     </g>
    </g>
   </g>
   <g id="matplotlib.axis_2">
    <g id="text_2">
     <!-- $y$ -->
     <g transform="translate(217.289729 14.965056) scale(0.16 -0.16)">
      <defs>
       <path id="CMMI12-79" d="M 1683 -700  C 1510 -939 1261 -1152 947 -1152  C 870 -1152 563 -1152 467 -889  C 486 -895 518 -895 531 -895  C 723 -895 851 -729 851 -582  C 851 -435 730 -384 634 -384  C 531 -384 307 -458 307 -759  C 307 -1071 582 -1286 947 -1286  C 1587 -1286 2234 -700 2413 6  L 3040 2485  C 3046 2517 3059 2556 3059 2594  C 3059 2689 2982 2753 2886 2753  C 2829 2753 2694 2727 2643 2535  L 2170 658  C 2138 543 2138 530 2086 460  C 1958 281 1747 64 1440 64  C 1082 64 1050 415 1050 588  C 1050 952 1222 1443 1395 1903  C 1466 2088 1504 2178 1504 2305  C 1504 2574 1312 2816 998 2816  C 410 2816 173 1890 173 1839  C 173 1814 198 1782 243 1782  C 301 1782 307 1807 333 1897  C 486 2433 730 2689 979 2689  C 1037 2689 1146 2689 1146 2478  C 1146 2312 1075 2127 979 1884  C 666 1047 666 837 666 683  C 666 77 1101 -64 1421 -64  C 1606 -64 1837 -6 2061 230  L 2067 224  C 1971 -147 1907 -392 1683 -700  z " transform="scale(0.015625)"/>
      </defs>
      <use xlink:href="#CMMI12-79" transform="scale(0.996264)"/>
     </g>
    </g>
   </g>
   <g id="line2d_1">
    <defs>
     <path id="ma5afa7ac09" d="M 3 0  L -3 -3  L -3 3  z " style="stroke: #000000; stroke-linejoin: miter"/>
    </defs>
    <g>
     <use xlink:href="#ma5afa7ac09" x="447" y="176.432266" style="stroke: #000000; stroke-linejoin: miter"/>
    </g>
   </g>
   <g id="line2d_2">
    <defs>
     <path id="mfbc4d6267b" d="M 0 -3  L -3 3  L 3 3  z " style="stroke: #000000; stroke-linejoin: miter"/>
    </defs>
    <g>
     <use xlink:href="#mfbc4d6267b" x="228.9" y="18.064532" style="stroke: #000000; stroke-linejoin: miter"/>
    </g>
   </g>
   <g id="line2d_3">
    <path d="M 10.416246 180.736147  L 41.11654 181.496412  L 65.676774 182.324263  L 85.120293 183.193417  L 101.493783 184.144024  L 114.797243 185.128796  L 126.054018 186.170864  L 136.287449 187.346493  L 144.474194 188.497225  L 151.637595 189.705651  L 157.777654 190.932836  L 163.917713 192.383561  L 169.034428 193.805285  L 174.151144 195.466651  L 178.244516 197.004608  L 182.337889 198.764294  L 186.431261 200.784229  L 190.524633 203.106224  L 193.594663 205.07048  L 196.664692 207.240557  L 200.758065 210.458758  L 204.851437 214.002016  L 212.014839 220.35175  L 214.061525 221.909981  L 216.108211 223.168334  L 217.131554 223.64212  L 218.154897 223.987246  L 219.17824 224.184311  L 220.201584 224.214196  L 221.224927 224.058865  L 222.24827 223.702288  L 223.271613 223.131434  L 224.294956 222.337266  L 225.318299 221.315634  L 226.341642 220.067997  L 227.364985 218.601841  L 229.411672 215.074088  L 231.458358 210.905639  L 234.528387 203.972801  L 238.62176 194.738831  L 240.668446 190.550261  L 242.715132 186.789681  L 244.761818 183.494611  L 246.808504 180.662529  L 248.855191 178.265032  L 250.901877 176.259634  L 252.948563 174.598317  L 254.995249 173.233069  L 257.041935 172.119049  L 259.088622 171.216124  L 262.158651 170.182536  L 265.22868 169.449678  L 268.29871 168.942945  L 272.392082 168.523266  L 277.508798 168.279779  L 283.648856 168.242869  L 291.835601 168.427886  L 307.185748 169.048205  L 343.002757 170.526811  L 369.609677 171.368373  L 400.309971 172.105664  L 437.150323 172.760345  L 447.383754 172.909659  L 447.383754 172.909659  " clip-path="url(#pc926f03c30)" style="fill: none; stroke: #008080; stroke-opacity: 0.7; stroke-width: 2; stroke-linecap: square"/>
   </g>
   <g id="LineCollection_1">
    <path d="M -1 176.432266  L 461.8 176.432266  " clip-path="url(#pc926f03c30)" style="fill: none; stroke-dasharray: 5.55,2.4; stroke-dashoffset: 0; stroke: #0000ff; stroke-width: 1.5"/>
   </g>
   <g id="line2d_4">
    <defs>
     <path id="m57ead4b31d" d="M 0 4  C 1.060812 4 2.078319 3.578535 2.828427 2.828427  C 3.578535 2.078319 4 1.060812 4 0  C 4 -1.060812 3.578535 -2.078319 2.828427 -2.828427  C 2.078319 -3.578535 1.060812 -4 0 -4  C -1.060812 -4 -2.078319 -3.578535 -2.828427 -2.828427  C -3.578535 -2.078319 -4 -1.060812 -4 0  C -4 1.060812 -3.578535 2.078319 -2.828427 2.828427  C -2.078319 3.578535 -1.060812 4 0 4  z " style="stroke: #000000; stroke-opacity: 0.7"/>
    </defs>
    <g clip-path="url(#pc926f03c30)">
     <use xlink:href="#m57ead4b31d" x="250.71" y="176.432266" style="fill-opacity: 0.7; stroke: #000000; stroke-opacity: 0.7"/>
    </g>
   </g>
   <g id="patch_3">
    <path d="M 228.9 334.8  L 228.9 18.064532  " style="fill: none; stroke: #000000; stroke-width: 0.8; stroke-linejoin: miter; stroke-linecap: square"/>
   </g>
   <g id="patch_4">
    <path d="M 447 334.8  L 447 18.064532  " style="fill: none"/>
   </g>
   <g id="patch_5">
    <path d="M 10.8 176.432266  L 447 176.432266  " style="fill: none; stroke: #000000; stroke-width: 0.8; stroke-linejoin: miter; stroke-linecap: square"/>
   </g>
   <g id="patch_6">
    <path d="M 10.8 18.064532  L 447 18.064532  " style="fill: none"/>
   </g>
   <g id="legend_1">
    <g id="patch_7">
     <path d="M 376.906682 53.164008  L 435.8 53.164008  Q 439 53.164008 439 49.964008  L 439 29.264532  Q 439 26.064532 435.8 26.064532  L 376.906682 26.064532  Q 373.706682 26.064532 373.706682 29.264532  L 373.706682 49.964008  Q 373.706682 53.164008 376.906682 53.164008  z " style="fill: #ffffff; opacity: 0.8; stroke: #cccccc; stroke-linejoin: miter"/>
    </g>
    <g id="line2d_5">
     <path d="M 380.106682 38.064532  L 396.106682 38.064532  L 412.106682 38.064532  " style="fill: none; stroke: #008080; stroke-opacity: 0.7; stroke-width: 2; stroke-linecap: square"/>
    </g>
    <g id="text_3">
     <!-- $f$ -->
     <g transform="translate(424.906682 43.664532) scale(0.16 -0.16)">
      <defs>
       <path id="CMMI12-66" d="M 2854 2566  C 2982 2566 3034 2566 3034 2688  C 3034 2752 2982 2752 2867 2752  L 2349 2752  C 2470 3429 2560 3897 2611 4107  C 2650 4265 2784 4416 2950 4416  C 3085 4416 3219 4358 3283 4298  C 3034 4272 2957 4082 2957 3969  C 2957 3837 3053 3759 3174 3759  C 3302 3759 3494 3870 3494 4119  C 3494 4393 3226 4544 2944 4544  C 2669 4544 2400 4334 2272 4078  C 2157 3848 2093 3611 1946 2752  L 1517 2752  C 1395 2752 1331 2752 1331 2637  C 1331 2566 1370 2566 1498 2566  L 1907 2566  C 1792 1976 1530 542 1382 -137  C 1274 -689 1178 -1152 858 -1152  C 838 -1152 653 -1152 538 -1031  C 864 -1005 864 -726 864 -720  C 864 -593 768 -517 646 -517  C 518 -517 326 -625 326 -867  C 326 -1140 608 -1280 858 -1280  C 1510 -1280 1779 -118 1850 199  C 1965 688 2278 2376 2310 2566  L 2854 2566  z " transform="scale(0.015625)"/>
      </defs>
      <use xlink:href="#CMMI12-66" transform="scale(0.996264)"/>
     </g>
    </g>
   </g>
  </g>
 </g>
 <defs>
  <clipPath id="pc926f03c30">
   <rect x="10.8" y="18.064532" width="436.2" height="316.735468"/>
  </clipPath>
 </defs>
</g>
  </g>
</svg>
