<?xml version='1.0' encoding='ASCII' standalone='yes'?>
<svg xmlns="http://www.w3.org/2000/svg" xmlns:xlink="http://www.w3.org/1999/xlink" version="1.1" width="1152.0px" viewBox="0 0 1152.0 432.00000000000006" height="432.00000000000006px">
  <g>
    <g transform="translate(0, 0) scale(1 1) translate(0, 0) scale(1.25 1.25) "><metadata>
  <rdf:RDF xmlns:dc="http://purl.org/dc/elements/1.1/" xmlns:cc="http://creativecommons.org/ns#" xmlns:rdf="http://www.w3.org/1999/02/22-rdf-syntax-ns#">
   <cc:Work>
    <dc:type rdf:resource="http://purl.org/dc/dcmitype/StillImage"/>
    <dc:date>2025-03-18T14:36:21.907744</dc:date>
    <dc:format>image/svg+xml</dc:format>
    <dc:creator>
     <cc:Agent>
      <dc:title>Matplotlib v3.9.1, https://matplotlib.org/</dc:title>
     </cc:Agent>
    </dc:creator>
   </cc:Work>
  </rdf:RDF>
 </metadata>
 <defs>
  <style type="text/css">*{stroke-linejoin: round; stroke-linecap: butt}</style>
 </defs>
 <g id="figure_1">
  <g id="patch_1">
   <path d="M 0 345.6  L 460.8 345.6  L 460.8 0  L 0 0  z " style="fill: #ffffff"/>
  </g>
  <g id="axes_1">
   <g id="patch_2">
    <path d="M 10.8 334.8  L 447 334.8  L 447 18.064532  L 10.8 18.064532  z " style="fill: #ffffff"/>
   </g>
   <g id="patch_3">
    <path d="M 228.899661 176.432266  L 372.870497 176.432266  L 104.217258 104.446848  z " clip-path="url(#pe870c7d20d)" style="fill: #00718c; opacity: 0.1; stroke: #00718c; stroke-linejoin: miter"/>
   </g>
   <g id="matplotlib.axis_1">
    <g id="text_1">
     <!-- $x$ -->
     <g transform="translate(438.13055 191.501854) scale(0.16 -0.16)">
      <defs>
       <path id="CMMI12-78" d="M 3034 2606  C 2829 2567 2752 2414 2752 2293  C 2752 2139 2874 2088 2963 2088  C 3155 2088 3290 2254 3290 2427  C 3290 2695 2982 2816 2714 2816  C 2323 2816 2106 2433 2048 2312  C 1901 2816 1504 2816 1389 2816  C 736 2816 390 1980 390 1839  C 390 1814 416 1782 461 1782  C 512 1782 525 1820 538 1846  C 755 2555 1184 2689 1370 2689  C 1658 2689 1715 2420 1715 2267  C 1715 2127 1677 1980 1600 1673  L 1382 798  C 1286 415 1101 64 762 64  C 730 64 570 64 435 147  C 666 192 717 383 717 460  C 717 588 621 664 499 664  C 346 664 179 530 179 326  C 179 57 480 -64 755 -64  C 1062 -64 1280 179 1414 441  C 1517 64 1837 -64 2074 -64  C 2726 -64 3072 773 3072 913  C 3072 945 3046 971 3008 971  C 2950 971 2944 939 2925 888  C 2752 326 2381 64 2093 64  C 1869 64 1747 230 1747 492  C 1747 632 1773 734 1875 1156  L 2099 2024  C 2195 2408 2413 2689 2707 2689  C 2720 2689 2899 2689 3034 2606  z " transform="scale(0.015625)"/>
      </defs>
      <use xlink:href="#CMMI12-78" transform="scale(0.996264)"/>
     </g>
    </g>
   </g>
   <g id="matplotlib.axis_2">
    <g id="text_2">
     <!-- $y$ -->
     <g transform="translate(217.28939 14.965056) scale(0.16 -0.16)">
      <defs>
       <path id="CMMI12-79" d="M 1683 -700  C 1510 -939 1261 -1152 947 -1152  C 870 -1152 563 -1152 467 -889  C 486 -895 518 -895 531 -895  C 723 -895 851 -729 851 -582  C 851 -435 730 -384 634 -384  C 531 -384 307 -458 307 -759  C 307 -1071 582 -1286 947 -1286  C 1587 -1286 2234 -700 2413 6  L 3040 2485  C 3046 2517 3059 2556 3059 2594  C 3059 2689 2982 2753 2886 2753  C 2829 2753 2694 2727 2643 2535  L 2170 658  C 2138 543 2138 530 2086 460  C 1958 281 1747 64 1440 64  C 1082 64 1050 415 1050 588  C 1050 952 1222 1443 1395 1903  C 1466 2088 1504 2178 1504 2305  C 1504 2574 1312 2816 998 2816  C 410 2816 173 1890 173 1839  C 173 1814 198 1782 243 1782  C 301 1782 307 1807 333 1897  C 486 2433 730 2689 979 2689  C 1037 2689 1146 2689 1146 2478  C 1146 2312 1075 2127 979 1884  C 666 1047 666 837 666 683  C 666 77 1101 -64 1421 -64  C 1606 -64 1837 -6 2061 230  L 2067 224  C 1971 -147 1907 -392 1683 -700  z " transform="scale(0.015625)"/>
      </defs>
      <use xlink:href="#CMMI12-79" transform="scale(0.996264)"/>
     </g>
    </g>
   </g>
   <g id="line2d_1">
    <defs>
     <path id="m7233af173d" d="M 3 0  L -3 -3  L -3 3  z " style="stroke: #000000; stroke-linejoin: miter"/>
    </defs>
    <g>
     <use xlink:href="#m7233af173d" x="447" y="176.432266" style="stroke: #000000; stroke-linejoin: miter"/>
    </g>
   </g>
   <g id="line2d_2">
    <defs>
     <path id="m75414202bf" d="M 0 -3  L -3 3  L 3 3  z " style="stroke: #000000; stroke-linejoin: miter"/>
    </defs>
    <g>
     <use xlink:href="#m75414202bf" x="228.899661" y="18.064532" style="stroke: #000000; stroke-linejoin: miter"/>
    </g>
   </g>
   <g id="line2d_3">
    <path d="M 372.870497 176.432266  L 372.77275 171.127922  L 372.47964 165.83078  L 371.991565 160.548034  L 371.309188 155.286857  L 370.433436 150.054392  L 369.365498 144.857746  L 368.106824 139.703974  L 366.659124 134.600075  L 365.024362 129.552979  L 363.204759 124.56954  L 361.202786 119.656524  L 359.021161 114.820602  L 356.662846 110.068342  L 354.131044 105.406197  L 351.429192 100.840496  L 348.56096 96.37744  L 345.530243 92.023089  L 342.341154 87.783355  L 338.998026 83.663997  L 335.505397 79.670606  L 331.86801 75.808607  L 328.090804 72.083242  L 324.178909 68.499571  L 320.137636 65.06246  L 315.972472 61.776576  L 311.689074 58.64638  L 307.293257 55.676124  L 302.790992 52.86984  L 298.18839 50.23134  L 293.491703 47.764205  L 288.707308 45.471786  L 283.8417 43.357197  L 278.901488 41.423307  L 273.89338 39.672743  L 268.824175 38.107883  L 263.700758 36.730851  L 258.530085 35.543516  L 253.319177 34.547492  L 248.07511 33.744131  L 242.805006 33.134523  L 237.516019 32.719496  L 232.215333 32.499615  L 226.910144 32.475176  L 221.607657 32.646215  L 216.315072 33.012498  L 211.039575 33.573527  L 205.78833 34.328543  L 200.568467 35.276518  L 195.387075 36.416165  L 190.251188 37.745939  L 185.167782 39.264031  L 180.143759 40.968382  L 175.18594 42.856677  L 170.301058 44.926351  L 165.495746 47.174595  L 160.776529 49.598356  L 156.149815 52.194342  L 151.621887 54.959028  L 147.198893 57.88866  L 142.886839 60.979261  L 138.69158 64.226633  L 134.618813 67.626367  L 130.674068 71.173847  L 126.862702 74.864255  L 123.189889 78.69258  L 119.660619 82.653625  L 116.279682 86.742009  L 113.051669 90.952182  L 109.980964 95.278427  L 107.071737 99.71487  L 104.327938 104.255485  L 101.753292 108.894108  L 99.351296 113.62444  L 97.125211 118.440057  L 95.07806 123.334421  L 93.212623 128.300886  L 91.531433 133.332707  L 90.036773 138.423052  L 88.730672 143.565009  L 87.614904 148.751596  L 86.690984 153.97577  L 85.960166 159.230438  L 85.423444 164.508463  L 85.081545 169.80268  L 84.934934 175.105899  L 84.983809 180.410918  L 85.228106 185.710536  L 85.667491 190.997554  L 86.301369 196.264795  L 87.128879 201.505105  L 88.148896 206.711369  L 89.360036 211.876518  L 90.760654 216.993538  L 92.348849 222.055481  L 94.122463 227.055472  L 96.079089 231.986723  L 98.21607 236.842538  L 100.530503 241.616323  L 103.019247 246.301596  L 105.678921 250.891994  L 108.505914 255.381285  L 111.496387 259.763373  L 114.646281 264.032307  L 117.951317 268.18229  L 121.407007 272.207688  L 125.00866 276.103034  L 128.751385 279.863039  L 132.630098 283.482597  L 136.639535 286.956793  L 140.77425 290.280911  L 145.028629 293.450435  L 149.396894 296.461063  L 153.873115 299.308706  L 158.451214 301.989497  L 163.124972 304.499796  L 167.888045 306.836195  L 172.733965 308.995521  L 177.656151 310.974841  L 182.647919 312.771469  L 187.702492 314.382964  L 192.813006 315.807139  L 197.972521 317.042059  L 203.174031 318.086048  L 208.410474 318.937687  L 213.674739 319.595822  L 218.959677 320.059557  L 224.258113 320.328263  L 229.562851 320.401576  L 234.866689 320.279395  L 240.162424 319.961887  L 245.442866 319.449483  L 250.700844 318.742878  L 255.929219 317.843032  L 261.120891 316.751168  L 266.26881 315.468767  L 271.365986 313.997571  L 276.405498 312.339577  L 281.380503 310.497038  L 286.284245 308.472454  L 291.110066 306.268576  L 295.851412 303.888395  L 300.501845 301.335144  L 305.055052 298.61229  L 309.504848 295.72353  L 313.845192 292.672786  L 318.07019 289.464202  L 322.174106 286.102133  L 326.151365 282.591146  L 329.996568 278.936008  L 333.704494 275.141682  L 337.270107 271.21332  L 340.688566 267.156257  L 343.955229 262.976001  L 347.06566 258.678229  L 350.015636 254.268777  L 352.80115 249.753632  L 355.418421 245.138926  L 357.863895 240.430924  L 360.13425 235.636019  L 362.226405 230.760723  L 364.137517 225.811655  L 365.864993 220.795536  L 367.406485 215.719176  L 368.759903 210.58947  L 369.923406 205.413383  L 370.895416 200.197942  L 371.674612 194.95023  L 372.259937 189.677374  L 372.650596 184.386532  L 372.846058 179.084889  L 372.870497 176.432266  L 372.870497 176.432266  " clip-path="url(#pe870c7d20d)" style="fill: none; stroke: #008080; stroke-width: 2; stroke-linecap: square"/>
   </g>
   <g id="line2d_4">
    <path d="M 228.899661 176.432266  L 372.870497 176.432266  L 104.217258 104.446848  L 228.899661 176.432266  " clip-path="url(#pe870c7d20d)" style="fill: none; stroke: #000000; stroke-width: 1.5; stroke-linecap: square"/>
   </g>
   <g id="line2d_5">
    <path d="M 243.296744 176.432266  L 243.183699 174.631635  L 242.846337 172.85928  L 242.289958 171.143036  L 241.523298 169.509853  L 240.558397 167.98538  L 239.410408 166.593556  L 238.097358 165.356239  L 236.639869 164.292859  L 235.060827 163.420116  L 233.385031 162.751715  L 231.638796 162.298153  L 229.849547 162.066552  L 228.04538 162.06055  L 226.254629 162.280241  L 224.505416 162.722174  L 222.825209 163.37941  L 221.240396 164.241627  L 219.775863 165.295285  L 218.45461 166.523839  L 217.297385 167.907993  L 216.43142 169.233724  L 216.43142 169.233724  " clip-path="url(#pe870c7d20d)" style="fill: none; stroke: #000000; stroke-linecap: square"/>
   </g>
   <g id="line2d_6">
    <defs>
     <path id="m84b8f99f47" d="M 0 4  C 1.060812 4 2.078319 3.578535 2.828427 2.828427  C 3.578535 2.078319 4 1.060812 4 0  C 4 -1.060812 3.578535 -2.078319 2.828427 -2.828427  C 2.078319 -3.578535 1.060812 -4 0 -4  C -1.060812 -4 -2.078319 -3.578535 -2.828427 -2.828427  C -3.578535 -2.078319 -4 -1.060812 -4 0  C -4 1.060812 -3.578535 2.078319 -2.828427 2.828427  C -2.078319 3.578535 -1.060812 4 0 4  z " style="stroke: #000000; stroke-opacity: 0.7"/>
    </defs>
    <g clip-path="url(#pe870c7d20d)">
     <use xlink:href="#m84b8f99f47" x="104.217258" y="104.446848" style="fill-opacity: 0.7; stroke: #000000; stroke-opacity: 0.7"/>
    </g>
   </g>
   <g id="patch_4">
    <path d="M 228.899661 334.8  L 228.899661 18.064532  " style="fill: none; stroke: #000000; stroke-width: 0.8; stroke-linejoin: miter; stroke-linecap: square"/>
   </g>
   <g id="patch_5">
    <path d="M 447 334.8  L 447 18.064532  " style="fill: none"/>
   </g>
   <g id="patch_6">
    <path d="M 10.8 176.432266  L 447 176.432266  " style="fill: none; stroke: #000000; stroke-width: 0.8; stroke-linejoin: miter; stroke-linecap: square"/>
   </g>
   <g id="patch_7">
    <path d="M 10.8 18.064532  L 447 18.064532  " style="fill: none"/>
   </g>
   <g id="text_3">
    <!-- $150^\circ$ -->
    <g transform="translate(235.999771 158.821697) scale(0.16 -0.16)">
     <defs>
      <path id="CMR17-31" d="M 1702 4058  C 1702 4192 1696 4192 1606 4192  C 1357 3916 979 3827 621 3827  C 602 3827 570 3827 563 3808  C 557 3795 557 3782 557 3648  C 755 3648 1088 3686 1344 3839  L 1344 461  C 1344 236 1331 160 781 160  L 589 160  L 589 0  C 896 0 1216 0 1523 0  C 1830 0 2150 0 2458 0  L 2458 160  L 2266 160  C 1715 160 1702 230 1702 458  L 1702 4058  z " transform="scale(0.015625)"/>
      <path id="CMR17-35" d="M 730 3692  C 794 3666 1056 3584 1325 3584  C 1920 3584 2246 3911 2432 4100  C 2432 4157 2432 4192 2394 4192  C 2387 4192 2374 4192 2323 4163  C 2099 4058 1837 3973 1517 3973  C 1325 3973 1037 3999 723 4139  C 653 4171 640 4171 634 4171  C 602 4171 595 4164 595 4037  L 595 2203  C 595 2089 595 2057 659 2057  C 691 2057 704 2070 736 2114  C 941 2401 1222 2522 1542 2522  C 1766 2522 2246 2382 2246 1289  C 2246 1085 2246 715 2054 421  C 1894 159 1645 25 1370 25  C 947 25 518 320 403 814  C 429 807 480 795 506 795  C 589 795 749 840 749 1038  C 749 1210 627 1280 506 1280  C 358 1280 262 1190 262 1011  C 262 454 704 -128 1382 -128  C 2042 -128 2669 440 2669 1264  C 2669 2030 2170 2624 1549 2624  C 1222 2624 947 2503 730 2274  L 730 3692  z " transform="scale(0.015625)"/>
      <path id="CMR17-30" d="M 2688 2025  C 2688 2416 2682 3080 2413 3591  C 2176 4039 1798 4198 1466 4198  C 1158 4198 768 4058 525 3597  C 269 3118 243 2524 243 2025  C 243 1661 250 1106 448 619  C 723 -39 1216 -128 1466 -128  C 1760 -128 2208 -7 2470 600  C 2662 1042 2688 1559 2688 2025  z M 1466 -26  C 1056 -26 813 325 723 812  C 653 1188 653 1738 653 2096  C 653 2588 653 2997 736 3387  C 858 3929 1216 4096 1466 4096  C 1728 4096 2067 3923 2189 3400  C 2272 3036 2278 2607 2278 2096  C 2278 1680 2278 1169 2202 792  C 2067 95 1690 -26 1466 -26  z " transform="scale(0.015625)"/>
      <path id="CMSY10-e" d="M 2842 1600  C 2842 2277 2272 2828 1600 2828  C 909 2828 352 2264 352 1600  C 352 930 909 372 1600 372  C 2272 372 2842 923 2842 1600  z M 1600 628  C 1043 628 608 1070 608 1600  C 608 2130 1050 2572 1600 2572  C 2131 2572 2586 2142 2586 1600  C 2586 1058 2131 628 1600 628  z " transform="scale(0.015625)"/>
     </defs>
     <use xlink:href="#CMR17-31" transform="scale(0.996264)"/>
     <use xlink:href="#CMR17-35" transform="translate(45.690477 0) scale(0.996264)"/>
     <use xlink:href="#CMR17-30" transform="translate(91.380954 0) scale(0.996264)"/>
     <use xlink:href="#CMSY10-e" transform="translate(137.071431 36.153639) scale(0.697382)"/>
    </g>
   </g>
   <g id="text_4">
    <!-- $P \left(-\frac{\sqrt{3}}{2}, \frac{1}{2} \right)$ -->
    <g transform="translate(16.704033 92.790395) scale(0.18 -0.18)">
     <defs>
      <path id="CMMI12-50" d="M 1894 2023  L 2970 2023  C 3853 2023 4736 2673 4736 3401  C 4736 3898 4314 4352 3507 4352  L 1530 4352  C 1408 4352 1350 4352 1350 4231  C 1350 4167 1408 4167 1504 4167  C 1894 4167 1894 4116 1894 4046  C 1894 4034 1894 3995 1869 3899  L 1005 472  C 947 249 934 185 486 185  C 365 185 301 185 301 70  C 301 0 358 0 397 0  C 518 0 646 0 768 0  L 1517 0  C 1638 0 1773 0 1894 0  C 1946 0 2016 0 2016 121  C 2016 185 1958 185 1862 185  C 1478 185 1472 230 1472 293  C 1472 325 1478 369 1485 401  L 1894 2023  z M 2355 3930  C 2413 4167 2438 4167 2688 4167  L 3322 4167  C 3802 4167 4198 4013 4198 3535  C 4198 3369 4115 2827 3821 2534  C 3712 2419 3405 2176 2822 2176  L 1920 2176  L 2355 3930  z " transform="scale(0.015625)"/>
      <path id="CMEX10-10" d="M 3296 -11187  C 3309 -11194 3366 -11258 3373 -11258  L 3514 -11258  C 3533 -11258 3584 -11251 3584 -11194  C 3584 -11168 3571 -11155 3558 -11136  C 3328 -10906 2982 -10554 2586 -9850  C 1894 -8621 1638 -7040 1638 -5504  C 1638 -2662 2445 -992 3565 141  C 3584 160 3584 179 3584 192  C 3584 256 3539 256 3462 256  C 3379 256 3366 256 3309 205  C 2701 -320 2016 -1210 1574 -2560  C 1299 -3405 1152 -4435 1152 -5498  C 1152 -7014 1427 -8730 2432 -10214  C 2605 -10464 2842 -10726 2842 -10733  C 2906 -10810 2995 -10912 3046 -10957  L 3296 -11187  z " transform="scale(0.015625)"/>
      <path id="CMSY10-0" d="M 4218 1472  C 4326 1472 4442 1472 4442 1600  C 4442 1728 4326 1728 4218 1728  L 755 1728  C 646 1728 531 1728 531 1600  C 531 1472 646 1472 755 1472  L 4218 1472  z " transform="scale(0.015625)"/>
      <path id="CMSY10-70" d="M 2490 -5472  L 1363 -2982  C 1318 -2880 1286 -2880 1267 -2880  C 1261 -2880 1229 -2880 1158 -2931  L 550 -3392  C 467 -3456 467 -3475 467 -3494  C 467 -3526 486 -3565 531 -3565  C 570 -3565 678 -3475 749 -3424  C 787 -3393 883 -3323 954 -3271  L 2214 -6042  C 2259 -6144 2291 -6144 2349 -6144  C 2445 -6144 2464 -6106 2509 -6016  L 5414 0  C 5459 90 5459 115 5459 128  C 5459 192 5408 256 5331 256  C 5280 256 5235 224 5184 122  L 2490 -5472  z " transform="scale(0.015625)"/>
      <path id="CMR17-33" d="M 1414 2157  C 1984 2157 2234 1662 2234 1090  C 2234 320 1824 25 1453 25  C 1114 25 563 194 390 693  C 422 680 454 680 486 680  C 640 680 755 782 755 948  C 755 1133 614 1216 486 1216  C 378 1216 211 1165 211 926  C 211 335 787 -128 1466 -128  C 2176 -128 2720 430 2720 1085  C 2720 1707 2208 2157 1600 2227  C 2086 2328 2554 2756 2554 3329  C 2554 3820 2048 4179 1472 4179  C 890 4179 378 3829 378 3329  C 378 3110 544 3072 627 3072  C 762 3072 877 3155 877 3321  C 877 3486 762 3569 627 3569  C 602 3569 570 3569 544 3557  C 730 3959 1235 4032 1459 4032  C 1683 4032 2106 3925 2106 3320  C 2106 3143 2080 2828 1862 2550  C 1670 2304 1453 2304 1242 2284  C 1210 2284 1062 2269 1037 2269  C 992 2263 966 2257 966 2208  C 966 2163 973 2157 1101 2157  L 1414 2157  z " transform="scale(0.015625)"/>
      <path id="CMR17-32" d="M 2669 989  L 2554 989  C 2490 536 2438 459 2413 420  C 2381 369 1920 369 1830 369  L 602 369  C 832 619 1280 1072 1824 1597  C 2214 1967 2669 2402 2669 3035  C 2669 3790 2067 4224 1395 4224  C 691 4224 262 3604 262 3030  C 262 2780 448 2748 525 2748  C 589 2748 781 2787 781 3010  C 781 3207 614 3264 525 3264  C 486 3264 448 3258 422 3245  C 544 3790 915 4058 1306 4058  C 1862 4058 2227 3617 2227 3035  C 2227 2479 1901 2000 1536 1584  L 262 146  L 262 0  L 2515 0  L 2669 989  z " transform="scale(0.015625)"/>
      <path id="CMMI12-3b" d="M 1248 -31  C 1248 343 1126 619 864 619  C 659 619 557 453 557 313  C 557 172 653 0 870 0  C 954 0 1024 26 1082 83  C 1094 96 1101 96 1107 96  C 1120 96 1120 5 1120 -27  C 1120 -240 1082 -659 710 -1080  C 640 -1157 640 -1170 640 -1183  C 640 -1216 672 -1248 704 -1248  C 755 -1248 1248 -771 1248 -31  z " transform="scale(0.015625)"/>
      <path id="CMEX10-11" d="M 2662 -5498  C 2662 -3661 2234 -1709 973 -269  C 883 -166 646 83 493 218  C 448 256 435 256 352 256  C 288 256 230 256 230 192  C 230 166 256 141 269 128  C 486 -96 832 -448 1229 -1152  C 1920 -2381 2176 -3962 2176 -5498  C 2176 -8275 1408 -9971 256 -11142  C 243 -11155 230 -11174 230 -11194  C 230 -11258 288 -11258 352 -11258  C 435 -11258 448 -11258 506 -11206  C 1114 -10682 1798 -9792 2240 -8442  C 2522 -7565 2662 -6528 2662 -5498  z " transform="scale(0.015625)"/>
     </defs>
     <use xlink:href="#CMMI12-50" transform="scale(0.996264)"/>
     <use xlink:href="#CMEX10-10" transform="translate(93.030226 110.586308) scale(0.996264)"/>
     <use xlink:href="#CMSY10-0" transform="translate(152.529516 0) scale(0.996264)"/>
     <use xlink:href="#CMSY10-70" transform="translate(231.212497 97.832743) scale(0.697382)"/>
     <use xlink:href="#CMR17-33" transform="translate(289.327817 40.13798) scale(0.697382)"/>
     <use xlink:href="#CMR17-32" transform="translate(260.270157 -34.355253) scale(0.697382)"/>
     <use xlink:href="#CMMI12-3b" transform="translate(322.506512 0) scale(0.996264)"/>
     <use xlink:href="#CMR17-31" transform="translate(367.403609 39.226102) scale(0.697382)"/>
     <use xlink:href="#CMR17-32" transform="translate(367.403609 -34.355253) scale(0.697382)"/>
     <use xlink:href="#CMEX10-11" transform="translate(400.582304 110.586308) scale(0.996264)"/>
     <path d="M 289.327817 97.832743  L 321.310999 97.832743  L 321.310999 100.622194  L 289.327817 100.622194  L 289.327817 97.832743  z "/>
     <path d="M 231.212497 22.914133  L 321.310999 22.914133  L 321.310999 26.899083  L 231.212497 26.899083  L 231.212497 22.914133  z "/>
     <path d="M 367.403609 22.914133  L 399.386791 22.914133  L 399.386791 26.899083  L 367.403609 26.899083  L 367.403609 22.914133  z "/>
    </g>
   </g>
  </g>
 </g>
 <defs>
  <clipPath id="pe870c7d20d">
   <rect x="10.8" y="18.064532" width="436.2" height="316.735468"/>
  </clipPath>
 </defs>
</g>
    <g transform="translate(576.0, 0) scale(1 1) translate(0, 0) scale(1.25 1.25) "><metadata>
  <rdf:RDF xmlns:dc="http://purl.org/dc/elements/1.1/" xmlns:cc="http://creativecommons.org/ns#" xmlns:rdf="http://www.w3.org/1999/02/22-rdf-syntax-ns#">
   <cc:Work>
    <dc:type rdf:resource="http://purl.org/dc/dcmitype/StillImage"/>
    <dc:date>2025-03-18T14:42:29.742159</dc:date>
    <dc:format>image/svg+xml</dc:format>
    <dc:creator>
     <cc:Agent>
      <dc:title>Matplotlib v3.9.1, https://matplotlib.org/</dc:title>
     </cc:Agent>
    </dc:creator>
   </cc:Work>
  </rdf:RDF>
 </metadata>
 <defs>
  <style type="text/css">*{stroke-linejoin: round; stroke-linecap: butt}</style>
 </defs>
 <g id="figure_1">
  <g id="patch_1">
   <path d="M 0 345.6  L 460.8 345.6  L 460.8 0  L 0 0  z " style="fill: #ffffff"/>
  </g>
  <g id="axes_1">
   <g id="patch_2">
    <path d="M 224.505426 218.023462  L 398.487273 218.023462  L 73.832727 131.032538  z " clip-path="url(#p41b86baf91)" style="fill: #00648c; opacity: 0.1; stroke: #00648c; stroke-linejoin: miter"/>
   </g>
   <g id="line2d_1">
    <path d="M 224.505426 218.023462  L 398.487273 218.023462  L 73.832727 131.032538  L 224.505426 218.023462  " clip-path="url(#p41b86baf91)" style="fill: none; stroke: #000000; stroke-width: 1.5; stroke-linecap: square"/>
   </g>
   <g id="line2d_2">
    <defs>
     <path id="m3ab59966d9" d="M 0 4  C 1.060812 4 2.078319 3.578535 2.828427 2.828427  C 3.578535 2.078319 4 1.060812 4 0  C 4 -1.060812 3.578535 -2.078319 2.828427 -2.828427  C 2.078319 -3.578535 1.060812 -4 0 -4  C -1.060812 -4 -2.078319 -3.578535 -2.828427 -2.828427  C -3.578535 -2.078319 -4 -1.060812 -4 0  C -4 1.060812 -3.578535 2.078319 -2.828427 2.828427  C -2.078319 3.578535 -1.060812 4 0 4  z " style="stroke: #000000; stroke-opacity: 0.7"/>
    </defs>
    <g clip-path="url(#p41b86baf91)">
     <use xlink:href="#m3ab59966d9" x="398.487273" y="218.023462" style="fill-opacity: 0.7; stroke: #000000; stroke-opacity: 0.7"/>
     <use xlink:href="#m3ab59966d9" x="73.832727" y="131.032538" style="fill-opacity: 0.7; stroke: #000000; stroke-opacity: 0.7"/>
     <use xlink:href="#m3ab59966d9" x="224.505426" y="218.023462" style="fill-opacity: 0.7; stroke: #000000; stroke-opacity: 0.7"/>
    </g>
   </g>
   <g id="line2d_3">
    <path d="M 346.292719 218.023462  L 346.292901 217.885437  L 346.293449 217.747412  L 346.294361 217.60939  L 346.295639 217.471371  L 346.297281 217.333355  L 346.299289 217.195345  L 346.301661 217.05734  L 346.304398 216.919342  L 346.307501 216.781351  L 346.310968 216.64337  L 346.3148 216.505398  L 346.318997 216.367436  L 346.323558 216.229486  L 346.328485 216.091549  L 346.333776 215.953625  L 346.339432 215.815716  L 346.345452 215.677822  L 346.351837 215.539945  L 346.358587 215.402085  L 346.365702 215.264243  L 346.37318 215.12642  L 346.381024 214.988618  L 346.389231 214.850837  L 346.397803 214.713078  L 346.40674 214.575343  L 346.41604 214.437631  L 346.425705 214.299945  L 346.435733 214.162284  L 346.446126 214.024651  L 346.456882 213.887045  L 346.468003 213.749469  L 346.479487 213.611922  L 346.491335 213.474407  L 346.503546 213.336923  L 346.516121 213.199471  L 346.52906 213.062054  L 346.542362 212.924671  L 346.556027 212.787324  L 346.570055 212.650013  L 346.584446 212.512741  L 346.5992 212.375506  L 346.614317 212.238311  L 346.629797 212.101157  L 346.64564 211.964044  L 346.661845 211.826973  L 346.678412 211.689946  L 346.695342 211.552963  L 346.712634 211.416025  L 346.730288 211.279133  L 346.748304 211.142289  L 346.766681 211.005493  L 346.785421 210.868746  L 346.804522 210.732048  L 346.823984 210.595402  L 346.843808 210.458808  L 346.863993 210.322267  L 346.884538 210.185779  L 346.905445 210.049346  L 346.926712 209.912969  L 346.94834 209.776649  L 346.970329 209.640387  L 346.992677 209.504183  L 347.015386 209.368038  L 347.038455 209.231955  L 347.061883 209.095932  L 347.085671 208.959972  L 347.109819 208.824076  L 347.134326 208.688244  L 347.159192 208.552477  L 347.184416 208.416776  L 347.21 208.281143  L 347.235942 208.145577  L 347.262243 208.010081  L 347.288902 207.874655  L 347.315919 207.7393  L 347.343293 207.604016  L 347.371026 207.468806  L 347.399116 207.333669  L 347.427563 207.198607  L 347.456367 207.063621  L 347.485528 206.928711  L 347.515046 206.793879  L 347.54492 206.659126  L 347.57515 206.524452  L 347.605736 206.389858  L 347.636679 206.255346  L 347.667977 206.120916  L 347.69963 205.986569  L 347.731638 205.852307  L 347.764001 205.718129  L 347.796719 205.584038  L 347.829792 205.450033  L 347.863219 205.316117  L 347.896999 205.182289  L 347.931134 205.048552  L 347.965622 204.914904  L 348.000463 204.781349  L 348.035658 204.647886  L 348.071205 204.514517  " clip-path="url(#p41b86baf91)" style="fill: none; stroke: #000000; stroke-linecap: square"/>
   </g>
   <g id="line2d_4">
    <path d="M 119.034537 157.129815  L 119.103391 157.010191  L 119.171929 156.890385  L 119.24015 156.770398  L 119.308054 156.650231  L 119.375639 156.529885  L 119.442906 156.40936  L 119.509854 156.288658  L 119.576482 156.16778  L 119.642791 156.046725  L 119.708779 155.925496  L 119.774446 155.804093  L 119.839792 155.682516  L 119.904817 155.560768  L 119.969519 155.438847  L 120.033899 155.316756  L 120.097955 155.194495  L 120.161688 155.072065  L 120.225097 154.949467  L 120.288182 154.826702  L 120.350941 154.70377  L 120.413376 154.580673  L 120.475484 154.457411  L 120.537267 154.333986  L 120.598723 154.210397  L 120.659852 154.086646  L 120.720653 153.962735  L 120.781126 153.838662  L 120.841271 153.714431  L 120.901088 153.59004  L 120.960575 153.465492  L 121.019733 153.340787  L 121.078561 153.215926  L 121.137058 153.09091  L 121.195225 152.96574  L 121.25306 152.840416  L 121.310564 152.71494  L 121.367735 152.589312  L 121.424575 152.463533  L 121.481081 152.337605  L 121.537254 152.211527  L 121.593094 152.085302  L 121.6486 151.958929  L 121.703771 151.83241  L 121.758607 151.705745  L 121.813109 151.578936  L 121.867275 151.451983  L 121.921105 151.324887  L 121.974598 151.19765  L 122.027755 151.070271  L 122.080575 150.942753  L 122.133058 150.815095  L 122.185203 150.687298  L 122.237009 150.559365  L 122.288477 150.431294  L 122.339607 150.303089  L 122.390397 150.174748  L 122.440847 150.046273  L 122.490958 149.917666  L 122.540728 149.788926  L 122.590158 149.660056  L 122.639247 149.531055  L 122.687994 149.401924  L 122.7364 149.272665  L 122.784464 149.143279  L 122.832186 149.013766  L 122.879564 148.884127  L 122.9266 148.754364  L 122.973293 148.624476  L 123.019642 148.494466  L 123.065647 148.364333  L 123.111307 148.234079  L 123.156624 148.103705  L 123.201595 147.973211  L 123.246221 147.842599  L 123.290501 147.71187  L 123.334435 147.581024  L 123.378024 147.450062  L 123.421265 147.318985  L 123.464161 147.187794  L 123.506709 147.056491  L 123.548909 146.925075  L 123.590762 146.793548  L 123.632267 146.661911  L 123.673424 146.530165  L 123.714232 146.39831  L 123.754691 146.266348  L 123.794802 146.134279  L 123.834563 146.002105  L 123.873974 145.869826  L 123.913035 145.737444  L 123.951746 145.604958  L 123.990107 145.472371  L 124.028117 145.339682  L 124.065775 145.206894  L 124.103083 145.074006  L 124.140039 144.94102  L 124.176643 144.807937  L 124.212895 144.674758  L 124.248795 144.541483  " clip-path="url(#p41b86baf91)" style="fill: none; stroke: #000000; stroke-linecap: square"/>
   </g>
   <g id="text_1">
    <!-- $15^\circ$ -->
    <g transform="translate(310.935785 211.876809) scale(0.16 -0.16)">
     <defs>
      <path id="CMR17-31" d="M 1702 4058  C 1702 4192 1696 4192 1606 4192  C 1357 3916 979 3827 621 3827  C 602 3827 570 3827 563 3808  C 557 3795 557 3782 557 3648  C 755 3648 1088 3686 1344 3839  L 1344 461  C 1344 236 1331 160 781 160  L 589 160  L 589 0  C 896 0 1216 0 1523 0  C 1830 0 2150 0 2458 0  L 2458 160  L 2266 160  C 1715 160 1702 230 1702 458  L 1702 4058  z " transform="scale(0.015625)"/>
      <path id="CMR17-35" d="M 730 3692  C 794 3666 1056 3584 1325 3584  C 1920 3584 2246 3911 2432 4100  C 2432 4157 2432 4192 2394 4192  C 2387 4192 2374 4192 2323 4163  C 2099 4058 1837 3973 1517 3973  C 1325 3973 1037 3999 723 4139  C 653 4171 640 4171 634 4171  C 602 4171 595 4164 595 4037  L 595 2203  C 595 2089 595 2057 659 2057  C 691 2057 704 2070 736 2114  C 941 2401 1222 2522 1542 2522  C 1766 2522 2246 2382 2246 1289  C 2246 1085 2246 715 2054 421  C 1894 159 1645 25 1370 25  C 947 25 518 320 403 814  C 429 807 480 795 506 795  C 589 795 749 840 749 1038  C 749 1210 627 1280 506 1280  C 358 1280 262 1190 262 1011  C 262 454 704 -128 1382 -128  C 2042 -128 2669 440 2669 1264  C 2669 2030 2170 2624 1549 2624  C 1222 2624 947 2503 730 2274  L 730 3692  z " transform="scale(0.015625)"/>
      <path id="CMSY10-e" d="M 2842 1600  C 2842 2277 2272 2828 1600 2828  C 909 2828 352 2264 352 1600  C 352 930 909 372 1600 372  C 2272 372 2842 923 2842 1600  z M 1600 628  C 1043 628 608 1070 608 1600  C 608 2130 1050 2572 1600 2572  C 2131 2572 2586 2142 2586 1600  C 2586 1058 2131 628 1600 628  z " transform="scale(0.015625)"/>
     </defs>
     <use xlink:href="#CMR17-31" transform="scale(0.996264)"/>
     <use xlink:href="#CMR17-35" transform="translate(45.690477 0) scale(0.996264)"/>
     <use xlink:href="#CMSY10-e" transform="translate(91.380954 36.153639) scale(0.697382)"/>
    </g>
   </g>
   <g id="text_2">
    <!-- $15^\circ$ -->
    <g transform="translate(134.952614 164.722261) scale(0.16 -0.16)">
     <use xlink:href="#CMR17-31" transform="scale(0.996264)"/>
     <use xlink:href="#CMR17-35" transform="translate(45.690477 0) scale(0.996264)"/>
     <use xlink:href="#CMSY10-e" transform="translate(91.380954 36.153639) scale(0.697382)"/>
    </g>
   </g>
   <g id="text_3">
    <!-- $19.32$ -->
    <g transform="translate(242.914472 146.22049) scale(0.16 -0.16)">
     <defs>
      <path id="CMR17-39" d="M 2253 1864  C 2253 464 1670 31 1190 31  C 1043 31 685 31 538 294  C 704 268 826 357 826 518  C 826 692 685 749 595 749  C 538 749 365 723 365 506  C 365 71 742 -128 1203 -128  C 1939 -128 2688 674 2688 2073  C 2688 3817 1971 4179 1485 4179  C 851 4179 243 3628 243 2778  C 243 1991 762 1408 1414 1408  C 1952 1408 2189 1903 2253 2112  L 2253 1864  z M 1427 1510  C 1254 1510 1011 1542 813 1922  C 678 2169 678 2461 678 2771  C 678 3146 678 3405 858 3684  C 947 3817 1114 4032 1485 4032  C 2240 4032 2240 2885 2240 2632  C 2240 2182 2035 1510 1427 1510  z " transform="scale(0.015625)"/>
      <path id="CMMI12-3a" d="M 1178 307  C 1178 492 1024 619 870 619  C 685 619 557 466 557 313  C 557 128 710 0 864 0  C 1050 0 1178 153 1178 307  z " transform="scale(0.015625)"/>
      <path id="CMR17-33" d="M 1414 2157  C 1984 2157 2234 1662 2234 1090  C 2234 320 1824 25 1453 25  C 1114 25 563 194 390 693  C 422 680 454 680 486 680  C 640 680 755 782 755 948  C 755 1133 614 1216 486 1216  C 378 1216 211 1165 211 926  C 211 335 787 -128 1466 -128  C 2176 -128 2720 430 2720 1085  C 2720 1707 2208 2157 1600 2227  C 2086 2328 2554 2756 2554 3329  C 2554 3820 2048 4179 1472 4179  C 890 4179 378 3829 378 3329  C 378 3110 544 3072 627 3072  C 762 3072 877 3155 877 3321  C 877 3486 762 3569 627 3569  C 602 3569 570 3569 544 3557  C 730 3959 1235 4032 1459 4032  C 1683 4032 2106 3925 2106 3320  C 2106 3143 2080 2828 1862 2550  C 1670 2304 1453 2304 1242 2284  C 1210 2284 1062 2269 1037 2269  C 992 2263 966 2257 966 2208  C 966 2163 973 2157 1101 2157  L 1414 2157  z " transform="scale(0.015625)"/>
      <path id="CMR17-32" d="M 2669 989  L 2554 989  C 2490 536 2438 459 2413 420  C 2381 369 1920 369 1830 369  L 602 369  C 832 619 1280 1072 1824 1597  C 2214 1967 2669 2402 2669 3035  C 2669 3790 2067 4224 1395 4224  C 691 4224 262 3604 262 3030  C 262 2780 448 2748 525 2748  C 589 2748 781 2787 781 3010  C 781 3207 614 3264 525 3264  C 486 3264 448 3258 422 3245  C 544 3790 915 4058 1306 4058  C 1862 4058 2227 3617 2227 3035  C 2227 2479 1901 2000 1536 1584  L 262 146  L 262 0  L 2515 0  L 2669 989  z " transform="scale(0.015625)"/>
     </defs>
     <use xlink:href="#CMR17-31" transform="scale(0.996264)"/>
     <use xlink:href="#CMR17-39" transform="translate(45.690477 0) scale(0.996264)"/>
     <use xlink:href="#CMMI12-3a" transform="translate(91.380954 0) scale(0.996264)"/>
     <use xlink:href="#CMR17-33" transform="translate(118.478131 0) scale(0.996264)"/>
     <use xlink:href="#CMR17-32" transform="translate(164.168608 0) scale(0.996264)"/>
    </g>
   </g>
  </g>
 </g>
 <defs>
  <clipPath id="p41b86baf91">
   <rect x="57.6" y="41.472" width="357.12" height="266.112"/>
  </clipPath>
 </defs>
</g>
  </g>
</svg>
