<?xml version="1.0" encoding="utf-8" standalone="no"?>
<!DOCTYPE svg PUBLIC "-//W3C//DTD SVG 1.1//EN"
  "http://www.w3.org/Graphics/SVG/1.1/DTD/svg11.dtd">
<svg xmlns:xlink="http://www.w3.org/1999/xlink" width="460.8pt" height="345.6pt" viewBox="0 0 460.8 345.6" xmlns="http://www.w3.org/2000/svg" version="1.1">
 <metadata>
  <rdf:RDF xmlns:dc="http://purl.org/dc/elements/1.1/" xmlns:cc="http://creativecommons.org/ns#" xmlns:rdf="http://www.w3.org/1999/02/22-rdf-syntax-ns#">
   <cc:Work>
    <dc:type rdf:resource="http://purl.org/dc/dcmitype/StillImage"/>
    <dc:date>2025-03-09T03:39:39.886056</dc:date>
    <dc:format>image/svg+xml</dc:format>
    <dc:creator>
     <cc:Agent>
      <dc:title>Matplotlib v3.9.1, https://matplotlib.org/</dc:title>
     </cc:Agent>
    </dc:creator>
   </cc:Work>
  </rdf:RDF>
 </metadata>
 <defs>
  <style type="text/css">*{stroke-linejoin: round; stroke-linecap: butt}</style>
 </defs>
 <g id="figure_1">
  <g id="patch_1">
   <path d="M 0 345.6 
L 460.8 345.6 
L 460.8 0 
L 0 0 
z
" style="fill: #ffffff"/>
  </g>
  <g id="axes_1">
   <g id="patch_2">
    <path d="M 144 291.6 
L 316.8 291.6 
L 273.6 118.8 
z
" clip-path="url(#pb5b427d921)" style="fill: #008080; opacity: 0.1"/>
   </g>
   <g id="line2d_1">
    <path d="M 144 291.6 
L 316.8 291.6 
L 273.6 118.8 
L 144 291.6 
" clip-path="url(#pb5b427d921)" style="fill: none; stroke: #000000; stroke-width: 1.5; stroke-linecap: square"/>
   </g>
   <g id="line2d_2">
    <defs>
     <path id="m29f768f760" d="M 0 4 
C 1.060812 4 2.078319 3.578535 2.828427 2.828427 
C 3.578535 2.078319 4 1.060812 4 0 
C 4 -1.060812 3.578535 -2.078319 2.828427 -2.828427 
C 2.078319 -3.578535 1.060812 -4 0 -4 
C -1.060812 -4 -2.078319 -3.578535 -2.828427 -2.828427 
C -3.578535 -2.078319 -4 -1.060812 -4 0 
C -4 1.060812 -3.578535 2.078319 -2.828427 2.828427 
C -2.078319 3.578535 -1.060812 4 0 4 
z
" style="stroke: #000000; stroke-opacity: 0.7"/>
    </defs>
    <g clip-path="url(#pb5b427d921)">
     <use xlink:href="#m29f768f760" x="144" y="291.6" style="fill-opacity: 0.7; stroke: #000000; stroke-opacity: 0.7"/>
    </g>
   </g>
   <g id="line2d_3">
    <g clip-path="url(#pb5b427d921)">
     <use xlink:href="#m29f768f760" x="316.8" y="291.6" style="fill-opacity: 0.7; stroke: #000000; stroke-opacity: 0.7"/>
    </g>
   </g>
   <g id="line2d_4">
    <g clip-path="url(#pb5b427d921)">
     <use xlink:href="#m29f768f760" x="273.6" y="118.8" style="fill-opacity: 0.7; stroke: #000000; stroke-opacity: 0.7"/>
    </g>
   </g>
   <g id="line2d_5">
    <path d="M 165.6 291.6 
L 165.487246 289.395858 
L 165.150163 287.214728 
L 164.592269 285.079381 
L 163.819388 283.01211 
L 162.839591 281.034498 
L 161.663105 279.167191 
L 160.302214 277.429685 
L 158.771125 275.840119 
L 157.085824 274.415088 
L 156.96 274.32 
L 156.96 274.32 
" clip-path="url(#pb5b427d921)" style="fill: none; stroke: #000000; stroke-width: 1.5; stroke-linecap: square"/>
   </g>
   <g id="line2d_6">
    <path d="M 311.56123 270.644922 
L 309.406116 271.304915 
L 307.331509 272.18589 
L 305.359999 273.278254 
L 303.513053 274.570114 
L 301.810781 276.047402 
L 300.271718 277.694034 
L 298.912622 279.49208 
L 297.748292 281.421963 
L 296.791406 283.462669 
L 296.052382 285.591977 
L 295.539267 287.786703 
L 295.257648 290.022951 
L 295.2 291.6 
L 295.2 291.6 
" clip-path="url(#pb5b427d921)" style="fill: none; stroke: #000000; stroke-width: 1.5; stroke-linecap: square"/>
   </g>
   <g id="line2d_7">
    <path d="M 295.2 118.8 
L 295.094347 116.666213 
L 294.778422 114.553301 
L 294.255315 112.481933 
L 293.530143 110.472372 
L 292.610002 108.544278 
L 291.503891 106.716512 
L 290.222632 105.006955 
L 288.77876 103.432331 
L 287.186399 102.008044 
L 285.461126 100.748028 
L 283.619819 99.664608 
L 281.680492 98.768384 
L 279.662116 98.068122 
L 277.584436 97.570674 
L 275.467778 97.280906 
L 273.332848 97.201652 
L 271.200531 97.333688 
L 269.091688 97.675722 
L 267.026948 98.224408 
L 265.02651 98.974379 
L 263.109943 99.918297 
L 261.295998 101.046929 
L 259.602419 102.349234 
L 258.045773 103.812471 
L 256.64129 105.422326 
L 255.402708 107.163051 
L 254.342145 109.017617 
L 253.469975 110.96788 
L 252.794731 112.994763 
L 252.323018 115.078436 
L 252.059451 117.198517 
L 252 118.8 
L 252 118.8 
" clip-path="url(#pb5b427d921)" style="fill: none; stroke: #000000; stroke-width: 1.5; stroke-linecap: square"/>
   </g>
   <g id="line2d_8">
    <path d="M 260.64 136.08 
L 262.521305 137.342452 
L 264.524498 138.400899 
L 266.627539 139.243698 
L 268.807291 139.861575 
L 271.039773 140.247733 
L 273.300422 140.397922 
L 275.564368 140.310492 
L 277.806701 139.986403 
L 278.83877 139.755078 
L 278.83877 139.755078 
" clip-path="url(#pb5b427d921)" style="fill: none; stroke: #000000; stroke-width: 1.5; stroke-linecap: square"/>
   </g>
   <g id="LineCollection_1">
    <path d="M 100.8 291.6 
L 360 291.6 
" clip-path="url(#pb5b427d921)" style="fill: none; stroke-dasharray: 5.55,2.4; stroke-dashoffset: 0; stroke: #000000; stroke-width: 1.5"/>
   </g>
   <g id="LineCollection_2">
    <path d="M 100.8 118.8 
L 360 118.8 
" clip-path="url(#pb5b427d921)" style="fill: none; stroke-dasharray: 5.55,2.4; stroke-dashoffset: 0; stroke: #000000; stroke-width: 1.5"/>
   </g>
   <g id="line2d_9">
    <path d="M 243.65 -1 
L 244.8 3.6 
L 247.418182 14.072727 
L 250.036364 24.545455 
L 252.654545 35.018182 
L 255.272727 45.490909 
L 257.890909 55.963636 
L 260.509091 66.436364 
L 263.127273 76.909091 
L 265.745455 87.381818 
L 268.363636 97.854545 
L 270.981818 108.327273 
L 273.6 118.8 
L 276.218182 129.272727 
L 278.836364 139.745455 
L 281.454545 150.218182 
L 284.072727 160.690909 
L 286.690909 171.163636 
L 289.309091 181.636364 
L 291.927273 192.109091 
L 294.545455 202.581818 
L 297.163636 213.054545 
L 299.781818 223.527273 
L 302.4 234 
L 305.018182 244.472727 
L 307.636364 254.945455 
L 310.254545 265.418182 
L 312.872727 275.890909 
L 315.490909 286.363636 
L 318.109091 296.836364 
L 320.727273 307.309091 
L 323.345455 317.781818 
L 325.963636 328.254545 
L 328.581818 338.727273 
L 330.55 346.6 
" clip-path="url(#pb5b427d921)" style="fill: none; stroke-dasharray: 5.55,2.4; stroke-dashoffset: 0; stroke: #000000; stroke-width: 1.5"/>
   </g>
   <g id="line2d_10">
    <path d="M 102.75 346.6 
L 103.418182 345.709091 
L 106.036364 342.218182 
L 108.654545 338.727273 
L 111.272727 335.236364 
L 113.890909 331.745455 
L 116.509091 328.254545 
L 119.127273 324.763636 
L 121.745455 321.272727 
L 124.363636 317.781818 
L 126.981818 314.290909 
L 129.6 310.8 
L 132.218182 307.309091 
L 134.836364 303.818182 
L 137.454545 300.327273 
L 140.072727 296.836364 
L 142.690909 293.345455 
L 145.309091 289.854545 
L 147.927273 286.363636 
L 150.545455 282.872727 
L 153.163636 279.381818 
L 155.781818 275.890909 
L 158.4 272.4 
L 161.018182 268.909091 
L 163.636364 265.418182 
L 166.254545 261.927273 
L 168.872727 258.436364 
L 171.490909 254.945455 
L 174.109091 251.454545 
L 176.727273 247.963636 
L 179.345455 244.472727 
L 181.963636 240.981818 
L 184.581818 237.490909 
L 187.2 234 
L 189.818182 230.509091 
L 192.436364 227.018182 
L 195.054545 223.527273 
L 197.672727 220.036364 
L 200.290909 216.545455 
L 202.909091 213.054545 
L 205.527273 209.563636 
L 208.145455 206.072727 
L 210.763636 202.581818 
L 213.381818 199.090909 
L 216 195.6 
L 218.618182 192.109091 
L 221.236364 188.618182 
L 223.854545 185.127273 
L 226.472727 181.636364 
L 229.090909 178.145455 
L 231.709091 174.654545 
L 234.327273 171.163636 
L 236.945455 167.672727 
L 239.563636 164.181818 
L 242.181818 160.690909 
L 244.8 157.2 
L 247.418182 153.709091 
L 250.036364 150.218182 
L 252.654545 146.727273 
L 255.272727 143.236364 
L 257.890909 139.745455 
L 260.509091 136.254545 
L 263.127273 132.763636 
L 265.745455 129.272727 
L 268.363636 125.781818 
L 270.981818 122.290909 
L 273.6 118.8 
L 276.218182 115.309091 
L 278.836364 111.818182 
L 281.454545 108.327273 
L 284.072727 104.836364 
L 286.690909 101.345455 
L 289.309091 97.854545 
L 291.927273 94.363636 
L 294.545455 90.872727 
L 297.163636 87.381818 
L 299.781818 83.890909 
L 302.4 80.4 
L 305.018182 76.909091 
L 307.636364 73.418182 
L 310.254545 69.927273 
L 312.872727 66.436364 
L 315.490909 62.945455 
L 318.109091 59.454545 
L 320.727273 55.963636 
L 323.345455 52.472727 
L 325.963636 48.981818 
L 328.581818 45.490909 
L 331.2 42 
L 333.818182 38.509091 
L 336.436364 35.018182 
L 339.054545 31.527273 
L 341.672727 28.036364 
L 344.290909 24.545455 
L 346.909091 21.054545 
L 349.527273 17.563636 
L 352.145455 14.072727 
L 354.763636 10.581818 
L 357.381818 7.090909 
L 360 3.6 
" clip-path="url(#pb5b427d921)" style="fill: none; stroke-dasharray: 5.55,2.4; stroke-dashoffset: 0; stroke: #000000; stroke-width: 1.5"/>
   </g>
   <g id="text_1">
    <!-- $a$ -->
    <g transform="translate(170.14337 282.625056) scale(0.16 -0.16)">
     <defs>
      <path id="CMMI12-61" d="M 1926 760 
C 1894 651 1894 639 1805 517 
C 1664 338 1382 64 1082 64 
C 819 64 672 300 672 677 
C 672 1028 870 1743 992 2012 
C 1210 2459 1510 2689 1760 2689 
C 2182 2689 2266 2165 2266 2114 
C 2266 2108 2246 2024 2240 2012 
L 1926 760 
z
M 2336 2395 
C 2266 2561 2093 2816 1760 2816 
C 1037 2816 256 1884 256 939 
C 256 307 627 -64 1062 -64 
C 1414 -64 1715 211 1894 422 
C 1958 45 2259 -64 2451 -64 
C 2643 -64 2797 51 2912 281 
C 3014 498 3104 888 3104 913 
C 3104 945 3078 971 3040 971 
C 2982 971 2976 939 2950 843 
C 2854 466 2733 64 2470 64 
C 2285 64 2272 230 2272 358 
C 2272 505 2291 575 2349 824 
C 2394 984 2426 1124 2477 1309 
C 2714 2267 2771 2497 2771 2535 
C 2771 2625 2701 2695 2605 2695 
C 2400 2695 2349 2472 2336 2395 
z
" transform="scale(0.015625)"/>
     </defs>
     <use xlink:href="#CMMI12-61" transform="scale(0.996264)"/>
    </g>
   </g>
   <g id="text_2">
    <!-- $b$ -->
    <g transform="translate(283.24193 278.305056) scale(0.16 -0.16)">
     <defs>
      <path id="CMMI12-62" d="M 1478 4257 
C 1485 4283 1498 4321 1498 4352 
C 1498 4416 1434 4416 1421 4416 
C 1414 4416 1184 4393 1069 4377 
C 960 4377 864 4358 749 4358 
C 595 4345 550 4339 550 4224 
C 550 4160 614 4160 678 4160 
C 1005 4160 1005 4103 1005 4040 
C 1005 3996 954 3811 928 3696 
L 774 3085 
C 710 2831 346 1387 320 1272 
C 288 1114 288 1005 288 922 
C 288 274 653 -64 1069 -64 
C 1811 -64 2579 888 2579 1814 
C 2579 2401 2246 2816 1766 2816 
C 1434 2816 1133 2542 1011 2414 
L 1478 4257 
z
M 1075 64 
C 870 64 646 217 646 715 
C 646 926 666 1047 781 1494 
C 800 1577 902 1986 928 2069 
C 941 2120 1318 2689 1754 2689 
C 2035 2689 2163 2408 2163 2076 
C 2163 1769 1984 1047 1824 715 
C 1664 370 1370 64 1075 64 
z
" transform="scale(0.015625)"/>
     </defs>
     <use xlink:href="#CMMI12-62" transform="scale(0.996264)"/>
    </g>
   </g>
   <g id="text_3">
    <!-- $c$ -->
    <g transform="translate(263.761341 157.345056) scale(0.16 -0.16)">
     <defs>
      <path id="CMMI12-63" d="M 2502 2431 
C 2381 2431 2323 2431 2234 2355 
C 2195 2323 2125 2227 2125 2125 
C 2125 1997 2221 1920 2342 1920 
C 2496 1920 2669 2044 2669 2292 
C 2669 2588 2374 2816 1933 2816 
C 1094 2816 256 1903 256 996 
C 256 441 602 -64 1254 -64 
C 2125 -64 2675 622 2675 706 
C 2675 744 2637 776 2611 776 
C 2592 776 2586 770 2528 713 
C 2118 162 1510 64 1267 64 
C 826 64 685 446 685 764 
C 685 988 794 1605 1024 2039 
C 1190 2338 1536 2682 1939 2682 
C 2022 2682 2374 2682 2502 2431 
z
" transform="scale(0.015625)"/>
     </defs>
     <use xlink:href="#CMMI12-63" transform="scale(0.996264)"/>
    </g>
   </g>
  </g>
 </g>
 <defs>
  <clipPath id="pb5b427d921">
   <rect x="10.8" y="10.8" width="439.2" height="324"/>
  </clipPath>
 </defs>
</svg>
