<?xml version="1.0" encoding="utf-8" standalone="no"?>
<!DOCTYPE svg PUBLIC "-//W3C//DTD SVG 1.1//EN"
  "http://www.w3.org/Graphics/SVG/1.1/DTD/svg11.dtd">
<svg xmlns:xlink="http://www.w3.org/1999/xlink" width="460.8pt" height="345.6pt" viewBox="0 0 460.8 345.6" xmlns="http://www.w3.org/2000/svg" version="1.1">
 <metadata>
  <rdf:RDF xmlns:dc="http://purl.org/dc/elements/1.1/" xmlns:cc="http://creativecommons.org/ns#" xmlns:rdf="http://www.w3.org/1999/02/22-rdf-syntax-ns#">
   <cc:Work>
    <dc:type rdf:resource="http://purl.org/dc/dcmitype/StillImage"/>
    <dc:date>2025-04-19T01:08:05.049875</dc:date>
    <dc:format>image/svg+xml</dc:format>
    <dc:creator>
     <cc:Agent>
      <dc:title>Matplotlib v3.9.1, https://matplotlib.org/</dc:title>
     </cc:Agent>
    </dc:creator>
   </cc:Work>
  </rdf:RDF>
 </metadata>
 <defs>
  <style type="text/css">*{stroke-linejoin: round; stroke-linecap: butt}</style>
 </defs>
 <g id="figure_1">
  <g id="patch_1">
   <path d="M 0 345.6 
L 460.8 345.6 
L 460.8 0 
L 0 0 
L 0 345.6 
z
" style="fill: none"/>
  </g>
  <g id="axes_1">
   <g id="patch_2">
    <path d="M 10.8 334.8 
L 447 334.8 
L 447 18.064532 
L 10.8 18.064532 
L 10.8 334.8 
z
" style="fill: none"/>
   </g>
   <g id="matplotlib.axis_1">
    <g id="text_1">
     <!-- $x$ -->
     <g transform="translate(438.13055 191.501854) scale(0.16 -0.16)">
      <defs>
       <path id="CMMI12-78" d="M 3034 2606 
C 2829 2567 2752 2414 2752 2293 
C 2752 2139 2874 2088 2963 2088 
C 3155 2088 3290 2254 3290 2427 
C 3290 2695 2982 2816 2714 2816 
C 2323 2816 2106 2433 2048 2312 
C 1901 2816 1504 2816 1389 2816 
C 736 2816 390 1980 390 1839 
C 390 1814 416 1782 461 1782 
C 512 1782 525 1820 538 1846 
C 755 2555 1184 2689 1370 2689 
C 1658 2689 1715 2420 1715 2267 
C 1715 2127 1677 1980 1600 1673 
L 1382 798 
C 1286 415 1101 64 762 64 
C 730 64 570 64 435 147 
C 666 192 717 383 717 460 
C 717 588 621 664 499 664 
C 346 664 179 530 179 326 
C 179 57 480 -64 755 -64 
C 1062 -64 1280 179 1414 441 
C 1517 64 1837 -64 2074 -64 
C 2726 -64 3072 773 3072 913 
C 3072 945 3046 971 3008 971 
C 2950 971 2944 939 2925 888 
C 2752 326 2381 64 2093 64 
C 1869 64 1747 230 1747 492 
C 1747 632 1773 734 1875 1156 
L 2099 2024 
C 2195 2408 2413 2689 2707 2689 
C 2720 2689 2899 2689 3034 2606 
z
" transform="scale(0.015625)"/>
      </defs>
      <use xlink:href="#CMMI12-78" transform="scale(0.996264)"/>
     </g>
    </g>
   </g>
   <g id="matplotlib.axis_2">
    <g id="text_2">
     <!-- $y$ -->
     <g transform="translate(217.289729 14.965056) scale(0.16 -0.16)">
      <defs>
       <path id="CMMI12-79" d="M 1683 -700 
C 1510 -939 1261 -1152 947 -1152 
C 870 -1152 563 -1152 467 -889 
C 486 -895 518 -895 531 -895 
C 723 -895 851 -729 851 -582 
C 851 -435 730 -384 634 -384 
C 531 -384 307 -458 307 -759 
C 307 -1071 582 -1286 947 -1286 
C 1587 -1286 2234 -700 2413 6 
L 3040 2485 
C 3046 2517 3059 2556 3059 2594 
C 3059 2689 2982 2753 2886 2753 
C 2829 2753 2694 2727 2643 2535 
L 2170 658 
C 2138 543 2138 530 2086 460 
C 1958 281 1747 64 1440 64 
C 1082 64 1050 415 1050 588 
C 1050 952 1222 1443 1395 1903 
C 1466 2088 1504 2178 1504 2305 
C 1504 2574 1312 2816 998 2816 
C 410 2816 173 1890 173 1839 
C 173 1814 198 1782 243 1782 
C 301 1782 307 1807 333 1897 
C 486 2433 730 2689 979 2689 
C 1037 2689 1146 2689 1146 2478 
C 1146 2312 1075 2127 979 1884 
C 666 1047 666 837 666 683 
C 666 77 1101 -64 1421 -64 
C 1606 -64 1837 -6 2061 230 
L 2067 224 
C 1971 -147 1907 -392 1683 -700 
z
" transform="scale(0.015625)"/>
      </defs>
      <use xlink:href="#CMMI12-79" transform="scale(0.996264)"/>
     </g>
    </g>
   </g>
   <g id="line2d_1">
    <defs>
     <path id="m50fd7deb5a" d="M 3 0 
L -3 -3 
L -3 3 
z
" style="stroke: #000000; stroke-linejoin: miter"/>
    </defs>
    <g>
     <use xlink:href="#m50fd7deb5a" x="447" y="176.432266" style="stroke: #000000; stroke-linejoin: miter"/>
    </g>
   </g>
   <g id="line2d_2">
    <defs>
     <path id="mdee382adc5" d="M 0 -3 
L -3 3 
L 3 3 
z
" style="stroke: #000000; stroke-linejoin: miter"/>
    </defs>
    <g>
     <use xlink:href="#mdee382adc5" x="228.9" y="18.064532" style="stroke: #000000; stroke-linejoin: miter"/>
    </g>
   </g>
   <g id="line2d_3">
    <path d="M 10.352287 159.209508 
L 39.005894 158.699083 
L 59.600674 158.123693 
L 75.270616 157.476312 
L 87.358856 156.769801 
L 97.208534 155.981541 
L 105.267361 155.118784 
L 111.98305 154.176419 
L 117.355601 153.210994 
L 121.832727 152.20469 
L 125.862141 151.083482 
L 129.443842 149.853845 
L 132.57783 148.534877 
L 135.264106 147.163171 
L 137.502669 145.79695 
L 139.741232 144.166351 
L 141.532082 142.616921 
L 143.322933 140.786659 
L 145.113783 138.593156 
L 146.456921 136.640503 
L 147.800059 134.348819 
L 149.143196 131.622619 
L 150.486334 128.326905 
L 151.829472 124.264365 
L 152.724897 120.987891 
L 153.620323 117.112238 
L 154.515748 112.45758 
L 155.411173 106.764166 
L 156.306598 99.642367 
L 157.202023 90.479903 
L 158.097449 78.256309 
L 158.992874 61.134739 
L 159.440587 49.716744 
L 159.888299 35.4415 
L 160.666759 -1 
L 160.666759 -1 
" clip-path="url(#p760c3052d1)" style="fill: none; stroke: #0072b2; stroke-opacity: 0.9; stroke-width: 2.5; stroke-linecap: square"/>
   </g>
   <g id="line2d_4">
    <path d="M 165.995891 346.6 
L 166.540029 314.20876 
L 167.179619 288.363192 
L 167.947126 267.10306 
L 168.714633 252.072113 
L 169.482141 240.884813 
L 170.377566 230.981758 
L 171.272991 223.358038 
L 172.296334 216.54651 
L 173.319677 211.157417 
L 174.470938 206.300882 
L 175.622199 202.372168 
L 176.901378 198.805179 
L 178.180557 195.866817 
L 179.587654 193.182349 
L 181.122669 190.752143 
L 182.657683 188.720973 
L 184.320616 186.869082 
L 186.111466 185.191342 
L 188.158152 183.587138 
L 190.332757 182.167751 
L 192.763196 180.851296 
L 195.449472 179.653871 
L 198.391584 178.583438 
L 201.717449 177.609072 
L 205.554985 176.726077 
L 209.776276 175.987506 
L 214.509238 175.38821 
L 219.753871 174.953171 
L 225.382258 174.713433 
L 231.138563 174.689122 
L 236.894868 174.885986 
L 242.267419 175.285782 
L 247.256217 175.875246 
L 251.733343 176.624703 
L 255.698798 177.510152 
L 259.152581 178.500362 
L 262.22261 179.60253 
L 265.036804 180.851296 
L 267.467243 182.167751 
L 269.641848 183.587138 
L 271.688534 185.191342 
L 273.479384 186.869082 
L 275.142317 188.720973 
L 276.677331 190.752143 
L 278.084428 192.961843 
L 279.491525 195.601307 
L 280.770704 198.485986 
L 281.921965 201.599163 
L 283.073226 205.357667 
L 284.096569 209.416167 
L 285.119912 214.384365 
L 286.143255 220.603178 
L 287.03868 227.484303 
L 287.934106 236.300152 
L 288.701613 246.096275 
L 289.46912 258.993347 
L 290.10871 273.329857 
L 290.748299 292.793328 
L 291.259971 314.20876 
L 291.804109 346.6 
L 291.804109 346.6 
" clip-path="url(#p760c3052d1)" style="fill: none; stroke: #0072b2; stroke-opacity: 0.9; stroke-width: 2.5; stroke-linecap: square"/>
   </g>
   <g id="line2d_5">
    <path d="M 297.133241 -1 
L 297.463988 17.084443 
L 298.359413 49.716744 
L 299.254839 70.474757 
L 300.150264 84.839057 
L 301.045689 95.367241 
L 301.941114 103.413329 
L 302.83654 109.761225 
L 303.731965 114.8962 
L 305.075103 120.987891 
L 306.41824 125.719537 
L 307.761378 129.499312 
L 309.104516 132.586955 
L 310.447654 135.155623 
L 311.790792 137.325189 
L 313.581642 139.741661 
L 315.372493 141.741387 
L 317.163343 143.4226 
L 319.401906 145.180416 
L 321.640469 146.644232 
L 324.326745 148.105718 
L 327.013021 149.320564 
L 330.147009 150.50057 
L 333.72871 151.611349 
L 337.758123 152.633365 
L 342.682962 153.640839 
L 348.503226 154.58329 
L 355.218915 155.433744 
L 363.277742 156.22092 
L 373.127419 156.947569 
L 385.21566 157.605174 
L 400.437889 158.198698 
L 420.137243 158.729148 
L 446.104575 159.190598 
L 447.447713 159.209508 
L 447.447713 159.209508 
" clip-path="url(#p760c3052d1)" style="fill: none; stroke: #0072b2; stroke-opacity: 0.9; stroke-width: 2.5; stroke-linecap: square"/>
   </g>
   <g id="LineCollection_1">
    <path d="M 163.47 346.6 
L 163.47 -1 
" clip-path="url(#p760c3052d1)" style="fill: none; stroke-dasharray: 7.4,3.2; stroke-dashoffset: 0; stroke: #dc5e8b; stroke-width: 2"/>
   </g>
   <g id="LineCollection_2">
    <path d="M 294.33 346.6 
L 294.33 -1 
" clip-path="url(#p760c3052d1)" style="fill: none; stroke-dasharray: 7.4,3.2; stroke-dashoffset: 0; stroke: #dc5e8b; stroke-width: 2"/>
   </g>
   <g id="LineCollection_3">
    <path d="M -1 160.595493 
L 461.8 160.595493 
" clip-path="url(#p760c3052d1)" style="fill: none; stroke-dasharray: 7.4,3.2; stroke-dashoffset: 0; stroke: #dc5e8b; stroke-width: 2"/>
   </g>
   <g id="line2d_6">
    <defs>
     <path id="mbac8b8ec65" d="M 0 4 
C 1.060812 4 2.078319 3.578535 2.828427 2.828427 
C 3.578535 2.078319 4 1.060812 4 0 
C 4 -1.060812 3.578535 -2.078319 2.828427 -2.828427 
C 2.078319 -3.578535 1.060812 -4 0 -4 
C -1.060812 -4 -2.078319 -3.578535 -2.828427 -2.828427 
C -3.578535 -2.078319 -4 -1.060812 -4 0 
C -4 1.060812 -3.578535 2.078319 -2.828427 2.828427 
C -2.078319 3.578535 -1.060812 4 0 4 
z
" style="stroke: #000000; stroke-opacity: 0.7"/>
    </defs>
    <g clip-path="url(#p760c3052d1)">
     <use xlink:href="#mbac8b8ec65" x="207.09" y="176.432266" style="fill-opacity: 0.7; stroke: #000000; stroke-opacity: 0.7"/>
    </g>
   </g>
   <g id="line2d_7">
    <g clip-path="url(#p760c3052d1)">
     <use xlink:href="#mbac8b8ec65" x="250.71" y="176.432266" style="fill-opacity: 0.7; stroke: #000000; stroke-opacity: 0.7"/>
    </g>
   </g>
   <g id="patch_3">
    <path d="M 228.9 334.8 
L 228.9 18.064532 
" style="fill: none; stroke: #000000; stroke-width: 0.8; stroke-linejoin: miter; stroke-linecap: square"/>
   </g>
   <g id="patch_4">
    <path d="M 447 334.8 
L 447 18.064532 
" style="fill: none"/>
   </g>
   <g id="patch_5">
    <path d="M 10.8 176.432266 
L 447 176.432266 
" style="fill: none; stroke: #000000; stroke-width: 0.8; stroke-linejoin: miter; stroke-linecap: square"/>
   </g>
   <g id="patch_6">
    <path d="M 10.8 18.064532 
L 447 18.064532 
" style="fill: none"/>
   </g>
   <g id="legend_1">
    <g id="patch_7">
     <path d="M 373.547103 53.164008 
L 435.8 53.164008 
Q 439 53.164008 439 49.964008 
L 439 29.264532 
Q 439 26.064532 435.8 26.064532 
L 373.547103 26.064532 
Q 370.347103 26.064532 370.347103 29.264532 
L 370.347103 49.964008 
Q 370.347103 53.164008 373.547103 53.164008 
z
" style="fill: #ffffff; opacity: 0.8; stroke: #cccccc; stroke-linejoin: miter"/>
    </g>
    <g id="line2d_8">
     <path d="M 376.747103 38.064532 
L 392.747103 38.064532 
L 408.747103 38.064532 
" style="fill: none; stroke: #0072b2; stroke-opacity: 0.9; stroke-width: 2.5; stroke-linecap: square"/>
    </g>
    <g id="text_3">
     <!-- $\mathrm{B}$ -->
     <g transform="translate(421.547103 43.664532) scale(0.16 -0.16)">
      <defs>
       <path id="CMR17-42" d="M 333 4352 
L 333 4186 
C 774 4186 845 4186 845 3900 
L 845 452 
C 845 166 774 166 333 166 
L 333 0 
L 2534 0 
C 3354 0 3885 583 3885 1164 
C 3885 1741 3360 2233 2675 2233 
C 3290 2356 3718 2771 3718 3264 
C 3718 3802 3194 4352 2368 4352 
L 333 4352 
z
M 1248 2304 
L 1248 3937 
C 1248 4155 1261 4186 1517 4186 
L 2336 4186 
C 2970 4186 3251 3674 3251 3277 
C 3251 2791 2861 2304 2170 2304 
L 1248 2304 
z
M 1517 166 
C 1261 166 1248 197 1248 413 
L 1248 2202 
L 2432 2202 
C 3091 2202 3411 1625 3411 1162 
C 3411 699 3046 166 2349 166 
L 1517 166 
z
" transform="scale(0.015625)"/>
      </defs>
      <use xlink:href="#CMR17-42" transform="scale(0.996264)"/>
     </g>
    </g>
   </g>
  </g>
 </g>
 <defs>
  <clipPath id="p760c3052d1">
   <rect x="10.8" y="18.064532" width="436.2" height="316.735468"/>
  </clipPath>
 </defs>
</svg>
