<?xml version="1.0" encoding="utf-8" standalone="no"?>
<!DOCTYPE svg PUBLIC "-//W3C//DTD SVG 1.1//EN"
  "http://www.w3.org/Graphics/SVG/1.1/DTD/svg11.dtd">
<svg xmlns:xlink="http://www.w3.org/1999/xlink" width="453.6pt" height="338.54pt" viewBox="0 0 453.6 338.54" xmlns="http://www.w3.org/2000/svg" version="1.1">
 <metadata>
  <rdf:RDF xmlns:dc="http://purl.org/dc/elements/1.1/" xmlns:cc="http://creativecommons.org/ns#" xmlns:rdf="http://www.w3.org/1999/02/22-rdf-syntax-ns#">
   <cc:Work>
    <dc:type rdf:resource="http://purl.org/dc/dcmitype/StillImage"/>
    <dc:date>2026-01-22T02:18:14.642713</dc:date>
    <dc:format>image/svg+xml</dc:format>
    <dc:creator>
     <cc:Agent>
      <dc:title>Matplotlib v3.9.1, https://matplotlib.org/</dc:title>
     </cc:Agent>
    </dc:creator>
   </cc:Work>
  </rdf:RDF>
 </metadata>
 <defs>
  <style type="text/css">*{stroke-linejoin: round; stroke-linecap: butt}</style>
 </defs>
 <g id="frame0017_2615ec_figure_1">
  <g id="frame0017_2615ec_patch_1">
   <path d="M 0 338.54 
L 453.6 338.54 
L 453.6 0 
L 0 0 
L 0 338.54 
z
" style="fill: none; opacity: 0"/>
  </g>
  <g id="frame0017_2615ec_axes_1">
   <g id="frame0017_2615ec_patch_2">
    <path d="M 7.2 331.34 
L 443.4 331.34 
L 443.4 16.556315 
L 7.2 16.556315 
L 7.2 331.34 
z
" style="fill: none; opacity: 0"/>
   </g>
   <g id="frame0017_2615ec_matplotlib.axis_1">
    <g id="frame0017_2615ec_xtick_1">
     <g id="frame0017_2615ec_line2d_1">
      <path d="M 34.4625 331.34 
L 34.4625 16.556315 
" clip-path="url(#frame0017_2615ec_p711e2b15c4)" style="fill: none; stroke-dasharray: 2.96,1.28; stroke-dashoffset: 0; stroke: #b0b0b0; stroke-opacity: 0.6; stroke-width: 0.8"/>
     </g>
     <g id="frame0017_2615ec_line2d_2">
      <defs>
       <path id="frame0017_2615ec_mb3d3338a92" d="M 0 0 
L 0 3.5 
" style="stroke: #000000; stroke-width: 0.8"/>
      </defs>
      <g>
       <use xlink:href="#frame0017_2615ec_mb3d3338a92" x="34.4625" y="173.948158" style="stroke: #000000; stroke-width: 0.8"/>
      </g>
     </g>
     <g id="frame0017_2615ec_text_1">
      <!-- $\mathdefault{−1.4}$ -->
      <g transform="translate(14.865943 194.785154) scale(0.2 -0.2)">
       <defs>
        <path id="frame0017_2615ec_CMSY10-0" d="M 4218 1472 
C 4326 1472 4442 1472 4442 1600 
C 4442 1728 4326 1728 4218 1728 
L 755 1728 
C 646 1728 531 1728 531 1600 
C 531 1472 646 1472 755 1472 
L 4218 1472 
z
" transform="scale(0.015625)"/>
        <path id="frame0017_2615ec_CMR17-31" d="M 1702 4058 
C 1702 4192 1696 4192 1606 4192 
C 1357 3916 979 3827 621 3827 
C 602 3827 570 3827 563 3808 
C 557 3795 557 3782 557 3648 
C 755 3648 1088 3686 1344 3839 
L 1344 461 
C 1344 236 1331 160 781 160 
L 589 160 
L 589 0 
C 896 0 1216 0 1523 0 
C 1830 0 2150 0 2458 0 
L 2458 160 
L 2266 160 
C 1715 160 1702 230 1702 458 
L 1702 4058 
z
" transform="scale(0.015625)"/>
        <path id="frame0017_2615ec_CMMI12-3a" d="M 1178 307 
C 1178 492 1024 619 870 619 
C 685 619 557 466 557 313 
C 557 128 710 0 864 0 
C 1050 0 1178 153 1178 307 
z
" transform="scale(0.015625)"/>
        <path id="frame0017_2615ec_CMR17-34" d="M 2150 4122 
C 2150 4256 2144 4256 2029 4256 
L 128 1254 
L 128 1088 
L 1779 1088 
L 1779 457 
C 1779 224 1766 160 1318 160 
L 1197 160 
L 1197 0 
C 1402 0 1747 0 1965 0 
C 2182 0 2528 0 2733 0 
L 2733 160 
L 2611 160 
C 2163 160 2150 224 2150 457 
L 2150 1088 
L 2803 1088 
L 2803 1254 
L 2150 1254 
L 2150 4122 
z
M 1798 3703 
L 1798 1254 
L 256 1254 
L 1798 3703 
z
" transform="scale(0.015625)"/>
       </defs>
       <use xlink:href="#frame0017_2615ec_CMSY10-0" transform="scale(0.996264)"/>
       <use xlink:href="#frame0017_2615ec_CMR17-31" transform="translate(77.487468 0) scale(0.996264)"/>
       <use xlink:href="#frame0017_2615ec_CMMI12-3a" transform="translate(123.177945 0) scale(0.996264)"/>
       <use xlink:href="#frame0017_2615ec_CMR17-34" transform="translate(150.275122 0) scale(0.996264)"/>
      </g>
     </g>
    </g>
    <g id="frame0017_2615ec_xtick_2">
     <g id="frame0017_2615ec_line2d_3">
      <path d="M 61.725 331.34 
L 61.725 16.556315 
" clip-path="url(#frame0017_2615ec_p711e2b15c4)" style="fill: none; stroke-dasharray: 2.96,1.28; stroke-dashoffset: 0; stroke: #b0b0b0; stroke-opacity: 0.6; stroke-width: 0.8"/>
     </g>
     <g id="frame0017_2615ec_line2d_4">
      <g>
       <use xlink:href="#frame0017_2615ec_mb3d3338a92" x="61.725" y="173.948158" style="stroke: #000000; stroke-width: 0.8"/>
      </g>
     </g>
     <g id="frame0017_2615ec_text_2">
      <!-- $\mathdefault{−1.2}$ -->
      <g transform="translate(42.128443 194.785154) scale(0.2 -0.2)">
       <defs>
        <path id="frame0017_2615ec_CMR17-32" d="M 2669 989 
L 2554 989 
C 2490 536 2438 459 2413 420 
C 2381 369 1920 369 1830 369 
L 602 369 
C 832 619 1280 1072 1824 1597 
C 2214 1967 2669 2402 2669 3035 
C 2669 3790 2067 4224 1395 4224 
C 691 4224 262 3604 262 3030 
C 262 2780 448 2748 525 2748 
C 589 2748 781 2787 781 3010 
C 781 3207 614 3264 525 3264 
C 486 3264 448 3258 422 3245 
C 544 3790 915 4058 1306 4058 
C 1862 4058 2227 3617 2227 3035 
C 2227 2479 1901 2000 1536 1584 
L 262 146 
L 262 0 
L 2515 0 
L 2669 989 
z
" transform="scale(0.015625)"/>
       </defs>
       <use xlink:href="#frame0017_2615ec_CMSY10-0" transform="scale(0.996264)"/>
       <use xlink:href="#frame0017_2615ec_CMR17-31" transform="translate(77.487468 0) scale(0.996264)"/>
       <use xlink:href="#frame0017_2615ec_CMMI12-3a" transform="translate(123.177945 0) scale(0.996264)"/>
       <use xlink:href="#frame0017_2615ec_CMR17-32" transform="translate(150.275122 0) scale(0.996264)"/>
      </g>
     </g>
    </g>
    <g id="frame0017_2615ec_xtick_3">
     <g id="frame0017_2615ec_line2d_5">
      <path d="M 88.9875 331.34 
L 88.9875 16.556315 
" clip-path="url(#frame0017_2615ec_p711e2b15c4)" style="fill: none; stroke-dasharray: 2.96,1.28; stroke-dashoffset: 0; stroke: #b0b0b0; stroke-opacity: 0.6; stroke-width: 0.8"/>
     </g>
     <g id="frame0017_2615ec_line2d_6">
      <g>
       <use xlink:href="#frame0017_2615ec_mb3d3338a92" x="88.9875" y="173.948158" style="stroke: #000000; stroke-width: 0.8"/>
      </g>
     </g>
     <g id="frame0017_2615ec_text_3">
      <!-- $\mathdefault{−1.0}$ -->
      <g transform="translate(69.390943 194.785154) scale(0.2 -0.2)">
       <defs>
        <path id="frame0017_2615ec_CMR17-30" d="M 2688 2025 
C 2688 2416 2682 3080 2413 3591 
C 2176 4039 1798 4198 1466 4198 
C 1158 4198 768 4058 525 3597 
C 269 3118 243 2524 243 2025 
C 243 1661 250 1106 448 619 
C 723 -39 1216 -128 1466 -128 
C 1760 -128 2208 -7 2470 600 
C 2662 1042 2688 1559 2688 2025 
z
M 1466 -26 
C 1056 -26 813 325 723 812 
C 653 1188 653 1738 653 2096 
C 653 2588 653 2997 736 3387 
C 858 3929 1216 4096 1466 4096 
C 1728 4096 2067 3923 2189 3400 
C 2272 3036 2278 2607 2278 2096 
C 2278 1680 2278 1169 2202 792 
C 2067 95 1690 -26 1466 -26 
z
" transform="scale(0.015625)"/>
       </defs>
       <use xlink:href="#frame0017_2615ec_CMSY10-0" transform="scale(0.996264)"/>
       <use xlink:href="#frame0017_2615ec_CMR17-31" transform="translate(77.487468 0) scale(0.996264)"/>
       <use xlink:href="#frame0017_2615ec_CMMI12-3a" transform="translate(123.177945 0) scale(0.996264)"/>
       <use xlink:href="#frame0017_2615ec_CMR17-30" transform="translate(150.275122 0) scale(0.996264)"/>
      </g>
     </g>
    </g>
    <g id="frame0017_2615ec_xtick_4">
     <g id="frame0017_2615ec_line2d_7">
      <path d="M 116.25 331.34 
L 116.25 16.556315 
" clip-path="url(#frame0017_2615ec_p711e2b15c4)" style="fill: none; stroke-dasharray: 2.96,1.28; stroke-dashoffset: 0; stroke: #b0b0b0; stroke-opacity: 0.6; stroke-width: 0.8"/>
     </g>
     <g id="frame0017_2615ec_line2d_8">
      <g>
       <use xlink:href="#frame0017_2615ec_mb3d3338a92" x="116.25" y="173.948158" style="stroke: #000000; stroke-width: 0.8"/>
      </g>
     </g>
     <g id="frame0017_2615ec_text_4">
      <!-- $\mathdefault{−0.8}$ -->
      <g transform="translate(96.653443 194.785154) scale(0.2 -0.2)">
       <defs>
        <path id="frame0017_2615ec_CMR17-38" d="M 1741 2264 
C 2144 2467 2554 2773 2554 3263 
C 2554 3841 1990 4179 1472 4179 
C 890 4179 378 3759 378 3180 
C 378 3021 416 2747 666 2505 
C 730 2442 998 2251 1171 2130 
C 883 1983 211 1634 211 934 
C 211 279 838 -128 1459 -128 
C 2144 -128 2720 362 2720 1010 
C 2720 1590 2330 1857 2074 2029 
L 1741 2264 
z
M 902 2822 
C 851 2854 595 3051 595 3351 
C 595 3739 998 4032 1459 4032 
C 1965 4032 2336 3676 2336 3262 
C 2336 2669 1670 2331 1638 2331 
C 1632 2331 1626 2331 1574 2370 
L 902 2822 
z
M 2080 1519 
C 2176 1449 2483 1240 2483 851 
C 2483 381 2010 25 1472 25 
C 890 25 448 438 448 940 
C 448 1443 838 1862 1280 2060 
L 2080 1519 
z
" transform="scale(0.015625)"/>
       </defs>
       <use xlink:href="#frame0017_2615ec_CMSY10-0" transform="scale(0.996264)"/>
       <use xlink:href="#frame0017_2615ec_CMR17-30" transform="translate(77.487468 0) scale(0.996264)"/>
       <use xlink:href="#frame0017_2615ec_CMMI12-3a" transform="translate(123.177945 0) scale(0.996264)"/>
       <use xlink:href="#frame0017_2615ec_CMR17-38" transform="translate(150.275122 0) scale(0.996264)"/>
      </g>
     </g>
    </g>
    <g id="frame0017_2615ec_xtick_5">
     <g id="frame0017_2615ec_line2d_9">
      <path d="M 143.5125 331.34 
L 143.5125 16.556315 
" clip-path="url(#frame0017_2615ec_p711e2b15c4)" style="fill: none; stroke-dasharray: 2.96,1.28; stroke-dashoffset: 0; stroke: #b0b0b0; stroke-opacity: 0.6; stroke-width: 0.8"/>
     </g>
     <g id="frame0017_2615ec_line2d_10">
      <g>
       <use xlink:href="#frame0017_2615ec_mb3d3338a92" x="143.5125" y="173.948158" style="stroke: #000000; stroke-width: 0.8"/>
      </g>
     </g>
     <g id="frame0017_2615ec_text_5">
      <!-- $\mathdefault{−0.6}$ -->
      <g transform="translate(123.915943 194.785154) scale(0.2 -0.2)">
       <defs>
        <path id="frame0017_2615ec_CMR17-36" d="M 678 2176 
C 678 3690 1395 4032 1811 4032 
C 1946 4032 2272 4009 2400 3776 
C 2298 3776 2106 3776 2106 3553 
C 2106 3381 2246 3323 2336 3323 
C 2394 3323 2566 3348 2566 3560 
C 2566 3954 2246 4179 1805 4179 
C 1043 4179 243 3390 243 1984 
C 243 253 966 -128 1478 -128 
C 2099 -128 2688 427 2688 1283 
C 2688 2081 2170 2662 1517 2662 
C 1126 2662 838 2407 678 1960 
L 678 2176 
z
M 1478 25 
C 691 25 691 1200 691 1436 
C 691 1896 909 2560 1504 2560 
C 1613 2560 1926 2560 2138 2120 
C 2253 1870 2253 1609 2253 1289 
C 2253 944 2253 690 2118 434 
C 1978 171 1773 25 1478 25 
z
" transform="scale(0.015625)"/>
       </defs>
       <use xlink:href="#frame0017_2615ec_CMSY10-0" transform="scale(0.996264)"/>
       <use xlink:href="#frame0017_2615ec_CMR17-30" transform="translate(77.487468 0) scale(0.996264)"/>
       <use xlink:href="#frame0017_2615ec_CMMI12-3a" transform="translate(123.177945 0) scale(0.996264)"/>
       <use xlink:href="#frame0017_2615ec_CMR17-36" transform="translate(150.275122 0) scale(0.996264)"/>
      </g>
     </g>
    </g>
    <g id="frame0017_2615ec_xtick_6">
     <g id="frame0017_2615ec_line2d_11">
      <path d="M 170.775 331.34 
L 170.775 16.556315 
" clip-path="url(#frame0017_2615ec_p711e2b15c4)" style="fill: none; stroke-dasharray: 2.96,1.28; stroke-dashoffset: 0; stroke: #b0b0b0; stroke-opacity: 0.6; stroke-width: 0.8"/>
     </g>
     <g id="frame0017_2615ec_line2d_12">
      <g>
       <use xlink:href="#frame0017_2615ec_mb3d3338a92" x="170.775" y="173.948158" style="stroke: #000000; stroke-width: 0.8"/>
      </g>
     </g>
     <g id="frame0017_2615ec_text_6">
      <!-- $\mathdefault{−0.4}$ -->
      <g transform="translate(151.178443 194.785154) scale(0.2 -0.2)">
       <use xlink:href="#frame0017_2615ec_CMSY10-0" transform="scale(0.996264)"/>
       <use xlink:href="#frame0017_2615ec_CMR17-30" transform="translate(77.487468 0) scale(0.996264)"/>
       <use xlink:href="#frame0017_2615ec_CMMI12-3a" transform="translate(123.177945 0) scale(0.996264)"/>
       <use xlink:href="#frame0017_2615ec_CMR17-34" transform="translate(150.275122 0) scale(0.996264)"/>
      </g>
     </g>
    </g>
    <g id="frame0017_2615ec_xtick_7">
     <g id="frame0017_2615ec_line2d_13">
      <path d="M 198.0375 331.34 
L 198.0375 16.556315 
" clip-path="url(#frame0017_2615ec_p711e2b15c4)" style="fill: none; stroke-dasharray: 2.96,1.28; stroke-dashoffset: 0; stroke: #b0b0b0; stroke-opacity: 0.6; stroke-width: 0.8"/>
     </g>
     <g id="frame0017_2615ec_line2d_14">
      <g>
       <use xlink:href="#frame0017_2615ec_mb3d3338a92" x="198.0375" y="173.948158" style="stroke: #000000; stroke-width: 0.8"/>
      </g>
     </g>
     <g id="frame0017_2615ec_text_7">
      <!-- $\mathdefault{−0.2}$ -->
      <g transform="translate(178.440943 194.785154) scale(0.2 -0.2)">
       <use xlink:href="#frame0017_2615ec_CMSY10-0" transform="scale(0.996264)"/>
       <use xlink:href="#frame0017_2615ec_CMR17-30" transform="translate(77.487468 0) scale(0.996264)"/>
       <use xlink:href="#frame0017_2615ec_CMMI12-3a" transform="translate(123.177945 0) scale(0.996264)"/>
       <use xlink:href="#frame0017_2615ec_CMR17-32" transform="translate(150.275122 0) scale(0.996264)"/>
      </g>
     </g>
    </g>
    <g id="frame0017_2615ec_xtick_8">
     <g id="frame0017_2615ec_line2d_15">
      <path d="M 252.5625 331.34 
L 252.5625 16.556315 
" clip-path="url(#frame0017_2615ec_p711e2b15c4)" style="fill: none; stroke-dasharray: 2.96,1.28; stroke-dashoffset: 0; stroke: #b0b0b0; stroke-opacity: 0.6; stroke-width: 0.8"/>
     </g>
     <g id="frame0017_2615ec_line2d_16">
      <g>
       <use xlink:href="#frame0017_2615ec_mb3d3338a92" x="252.5625" y="173.948158" style="stroke: #000000; stroke-width: 0.8"/>
      </g>
     </g>
     <g id="frame0017_2615ec_text_8">
      <!-- $\mathdefault{0.2}$ -->
      <g transform="translate(240.714687 194.785154) scale(0.2 -0.2)">
       <use xlink:href="#frame0017_2615ec_CMR17-30" transform="scale(0.996264)"/>
       <use xlink:href="#frame0017_2615ec_CMMI12-3a" transform="translate(45.690477 0) scale(0.996264)"/>
       <use xlink:href="#frame0017_2615ec_CMR17-32" transform="translate(72.787654 0) scale(0.996264)"/>
      </g>
     </g>
    </g>
    <g id="frame0017_2615ec_xtick_9">
     <g id="frame0017_2615ec_line2d_17">
      <path d="M 279.825 331.34 
L 279.825 16.556315 
" clip-path="url(#frame0017_2615ec_p711e2b15c4)" style="fill: none; stroke-dasharray: 2.96,1.28; stroke-dashoffset: 0; stroke: #b0b0b0; stroke-opacity: 0.6; stroke-width: 0.8"/>
     </g>
     <g id="frame0017_2615ec_line2d_18">
      <g>
       <use xlink:href="#frame0017_2615ec_mb3d3338a92" x="279.825" y="173.948158" style="stroke: #000000; stroke-width: 0.8"/>
      </g>
     </g>
     <g id="frame0017_2615ec_text_9">
      <!-- $\mathdefault{0.4}$ -->
      <g transform="translate(267.977187 194.785154) scale(0.2 -0.2)">
       <use xlink:href="#frame0017_2615ec_CMR17-30" transform="scale(0.996264)"/>
       <use xlink:href="#frame0017_2615ec_CMMI12-3a" transform="translate(45.690477 0) scale(0.996264)"/>
       <use xlink:href="#frame0017_2615ec_CMR17-34" transform="translate(72.787654 0) scale(0.996264)"/>
      </g>
     </g>
    </g>
    <g id="frame0017_2615ec_xtick_10">
     <g id="frame0017_2615ec_line2d_19">
      <path d="M 307.0875 331.34 
L 307.0875 16.556315 
" clip-path="url(#frame0017_2615ec_p711e2b15c4)" style="fill: none; stroke-dasharray: 2.96,1.28; stroke-dashoffset: 0; stroke: #b0b0b0; stroke-opacity: 0.6; stroke-width: 0.8"/>
     </g>
     <g id="frame0017_2615ec_line2d_20">
      <g>
       <use xlink:href="#frame0017_2615ec_mb3d3338a92" x="307.0875" y="173.948158" style="stroke: #000000; stroke-width: 0.8"/>
      </g>
     </g>
     <g id="frame0017_2615ec_text_10">
      <!-- $\mathdefault{0.6}$ -->
      <g transform="translate(295.239687 194.785154) scale(0.2 -0.2)">
       <use xlink:href="#frame0017_2615ec_CMR17-30" transform="scale(0.996264)"/>
       <use xlink:href="#frame0017_2615ec_CMMI12-3a" transform="translate(45.690477 0) scale(0.996264)"/>
       <use xlink:href="#frame0017_2615ec_CMR17-36" transform="translate(72.787654 0) scale(0.996264)"/>
      </g>
     </g>
    </g>
    <g id="frame0017_2615ec_xtick_11">
     <g id="frame0017_2615ec_line2d_21">
      <path d="M 334.35 331.34 
L 334.35 16.556315 
" clip-path="url(#frame0017_2615ec_p711e2b15c4)" style="fill: none; stroke-dasharray: 2.96,1.28; stroke-dashoffset: 0; stroke: #b0b0b0; stroke-opacity: 0.6; stroke-width: 0.8"/>
     </g>
     <g id="frame0017_2615ec_line2d_22">
      <g>
       <use xlink:href="#frame0017_2615ec_mb3d3338a92" x="334.35" y="173.948158" style="stroke: #000000; stroke-width: 0.8"/>
      </g>
     </g>
     <g id="frame0017_2615ec_text_11">
      <!-- $\mathdefault{0.8}$ -->
      <g transform="translate(322.502187 194.785154) scale(0.2 -0.2)">
       <use xlink:href="#frame0017_2615ec_CMR17-30" transform="scale(0.996264)"/>
       <use xlink:href="#frame0017_2615ec_CMMI12-3a" transform="translate(45.690477 0) scale(0.996264)"/>
       <use xlink:href="#frame0017_2615ec_CMR17-38" transform="translate(72.787654 0) scale(0.996264)"/>
      </g>
     </g>
    </g>
    <g id="frame0017_2615ec_xtick_12">
     <g id="frame0017_2615ec_line2d_23">
      <path d="M 361.6125 331.34 
L 361.6125 16.556315 
" clip-path="url(#frame0017_2615ec_p711e2b15c4)" style="fill: none; stroke-dasharray: 2.96,1.28; stroke-dashoffset: 0; stroke: #b0b0b0; stroke-opacity: 0.6; stroke-width: 0.8"/>
     </g>
     <g id="frame0017_2615ec_line2d_24">
      <g>
       <use xlink:href="#frame0017_2615ec_mb3d3338a92" x="361.6125" y="173.948158" style="stroke: #000000; stroke-width: 0.8"/>
      </g>
     </g>
     <g id="frame0017_2615ec_text_12">
      <!-- $\mathdefault{1.0}$ -->
      <g transform="translate(349.764687 194.785154) scale(0.2 -0.2)">
       <use xlink:href="#frame0017_2615ec_CMR17-31" transform="scale(0.996264)"/>
       <use xlink:href="#frame0017_2615ec_CMMI12-3a" transform="translate(45.690477 0) scale(0.996264)"/>
       <use xlink:href="#frame0017_2615ec_CMR17-30" transform="translate(72.787654 0) scale(0.996264)"/>
      </g>
     </g>
    </g>
    <g id="frame0017_2615ec_xtick_13">
     <g id="frame0017_2615ec_line2d_25">
      <path d="M 388.875 331.34 
L 388.875 16.556315 
" clip-path="url(#frame0017_2615ec_p711e2b15c4)" style="fill: none; stroke-dasharray: 2.96,1.28; stroke-dashoffset: 0; stroke: #b0b0b0; stroke-opacity: 0.6; stroke-width: 0.8"/>
     </g>
     <g id="frame0017_2615ec_line2d_26">
      <g>
       <use xlink:href="#frame0017_2615ec_mb3d3338a92" x="388.875" y="173.948158" style="stroke: #000000; stroke-width: 0.8"/>
      </g>
     </g>
     <g id="frame0017_2615ec_text_13">
      <!-- $\mathdefault{1.2}$ -->
      <g transform="translate(377.027187 194.785154) scale(0.2 -0.2)">
       <use xlink:href="#frame0017_2615ec_CMR17-31" transform="scale(0.996264)"/>
       <use xlink:href="#frame0017_2615ec_CMMI12-3a" transform="translate(45.690477 0) scale(0.996264)"/>
       <use xlink:href="#frame0017_2615ec_CMR17-32" transform="translate(72.787654 0) scale(0.996264)"/>
      </g>
     </g>
    </g>
    <g id="frame0017_2615ec_xtick_14">
     <g id="frame0017_2615ec_line2d_27">
      <path d="M 416.1375 331.34 
L 416.1375 16.556315 
" clip-path="url(#frame0017_2615ec_p711e2b15c4)" style="fill: none; stroke-dasharray: 2.96,1.28; stroke-dashoffset: 0; stroke: #b0b0b0; stroke-opacity: 0.6; stroke-width: 0.8"/>
     </g>
     <g id="frame0017_2615ec_line2d_28">
      <g>
       <use xlink:href="#frame0017_2615ec_mb3d3338a92" x="416.1375" y="173.948158" style="stroke: #000000; stroke-width: 0.8"/>
      </g>
     </g>
     <g id="frame0017_2615ec_text_14">
      <!-- $\mathdefault{1.4}$ -->
      <g transform="translate(404.289687 194.785154) scale(0.2 -0.2)">
       <use xlink:href="#frame0017_2615ec_CMR17-31" transform="scale(0.996264)"/>
       <use xlink:href="#frame0017_2615ec_CMMI12-3a" transform="translate(45.690477 0) scale(0.996264)"/>
       <use xlink:href="#frame0017_2615ec_CMR17-34" transform="translate(72.787654 0) scale(0.996264)"/>
      </g>
     </g>
    </g>
    <g id="frame0017_2615ec_text_15">
     <!-- $x$ -->
     <g transform="translate(432.313188 216.497785) scale(0.2 -0.2)">
      <defs>
       <path id="frame0017_2615ec_CMMI12-78" d="M 3034 2606 
C 2829 2567 2752 2414 2752 2293 
C 2752 2139 2874 2088 2963 2088 
C 3155 2088 3290 2254 3290 2427 
C 3290 2695 2982 2816 2714 2816 
C 2323 2816 2106 2433 2048 2312 
C 1901 2816 1504 2816 1389 2816 
C 736 2816 390 1980 390 1839 
C 390 1814 416 1782 461 1782 
C 512 1782 525 1820 538 1846 
C 755 2555 1184 2689 1370 2689 
C 1658 2689 1715 2420 1715 2267 
C 1715 2127 1677 1980 1600 1673 
L 1382 798 
C 1286 415 1101 64 762 64 
C 730 64 570 64 435 147 
C 666 192 717 383 717 460 
C 717 588 621 664 499 664 
C 346 664 179 530 179 326 
C 179 57 480 -64 755 -64 
C 1062 -64 1280 179 1414 441 
C 1517 64 1837 -64 2074 -64 
C 2726 -64 3072 773 3072 913 
C 3072 945 3046 971 3008 971 
C 2950 971 2944 939 2925 888 
C 2752 326 2381 64 2093 64 
C 1869 64 1747 230 1747 492 
C 1747 632 1773 734 1875 1156 
L 2099 2024 
C 2195 2408 2413 2689 2707 2689 
C 2720 2689 2899 2689 3034 2606 
z
" transform="scale(0.015625)"/>
      </defs>
      <use xlink:href="#frame0017_2615ec_CMMI12-78" transform="scale(0.996264)"/>
     </g>
    </g>
   </g>
   <g id="frame0017_2615ec_matplotlib.axis_2">
    <g id="frame0017_2615ec_ytick_1">
     <g id="frame0017_2615ec_line2d_29">
      <path d="M 7.2 308.855451 
L 443.4 308.855451 
" clip-path="url(#frame0017_2615ec_p711e2b15c4)" style="fill: none; stroke-dasharray: 2.96,1.28; stroke-dashoffset: 0; stroke: #b0b0b0; stroke-opacity: 0.6; stroke-width: 0.8"/>
     </g>
     <g id="frame0017_2615ec_line2d_30">
      <defs>
       <path id="frame0017_2615ec_m31d8aaab30" d="M 0 0 
L -3.5 0 
" style="stroke: #000000; stroke-width: 0.8"/>
      </defs>
      <g>
       <use xlink:href="#frame0017_2615ec_m31d8aaab30" x="225.3" y="308.855451" style="stroke: #000000; stroke-width: 0.8"/>
      </g>
     </g>
     <g id="frame0017_2615ec_text_16">
      <!-- $\mathdefault{−1.2}$ -->
      <g transform="translate(179.106886 315.773949) scale(0.2 -0.2)">
       <use xlink:href="#frame0017_2615ec_CMSY10-0" transform="scale(0.996264)"/>
       <use xlink:href="#frame0017_2615ec_CMR17-31" transform="translate(77.487468 0) scale(0.996264)"/>
       <use xlink:href="#frame0017_2615ec_CMMI12-3a" transform="translate(123.177945 0) scale(0.996264)"/>
       <use xlink:href="#frame0017_2615ec_CMR17-32" transform="translate(150.275122 0) scale(0.996264)"/>
      </g>
     </g>
    </g>
    <g id="frame0017_2615ec_ytick_2">
     <g id="frame0017_2615ec_line2d_31">
      <path d="M 7.2 286.370902 
L 443.4 286.370902 
" clip-path="url(#frame0017_2615ec_p711e2b15c4)" style="fill: none; stroke-dasharray: 2.96,1.28; stroke-dashoffset: 0; stroke: #b0b0b0; stroke-opacity: 0.6; stroke-width: 0.8"/>
     </g>
     <g id="frame0017_2615ec_line2d_32">
      <g>
       <use xlink:href="#frame0017_2615ec_m31d8aaab30" x="225.3" y="286.370902" style="stroke: #000000; stroke-width: 0.8"/>
      </g>
     </g>
     <g id="frame0017_2615ec_text_17">
      <!-- $\mathdefault{−1.0}$ -->
      <g transform="translate(179.106886 293.289401) scale(0.2 -0.2)">
       <use xlink:href="#frame0017_2615ec_CMSY10-0" transform="scale(0.996264)"/>
       <use xlink:href="#frame0017_2615ec_CMR17-31" transform="translate(77.487468 0) scale(0.996264)"/>
       <use xlink:href="#frame0017_2615ec_CMMI12-3a" transform="translate(123.177945 0) scale(0.996264)"/>
       <use xlink:href="#frame0017_2615ec_CMR17-30" transform="translate(150.275122 0) scale(0.996264)"/>
      </g>
     </g>
    </g>
    <g id="frame0017_2615ec_ytick_3">
     <g id="frame0017_2615ec_line2d_33">
      <path d="M 7.2 263.886353 
L 443.4 263.886353 
" clip-path="url(#frame0017_2615ec_p711e2b15c4)" style="fill: none; stroke-dasharray: 2.96,1.28; stroke-dashoffset: 0; stroke: #b0b0b0; stroke-opacity: 0.6; stroke-width: 0.8"/>
     </g>
     <g id="frame0017_2615ec_line2d_34">
      <g>
       <use xlink:href="#frame0017_2615ec_m31d8aaab30" x="225.3" y="263.886353" style="stroke: #000000; stroke-width: 0.8"/>
      </g>
     </g>
     <g id="frame0017_2615ec_text_18">
      <!-- $\mathdefault{−0.8}$ -->
      <g transform="translate(179.106886 270.804852) scale(0.2 -0.2)">
       <use xlink:href="#frame0017_2615ec_CMSY10-0" transform="scale(0.996264)"/>
       <use xlink:href="#frame0017_2615ec_CMR17-30" transform="translate(77.487468 0) scale(0.996264)"/>
       <use xlink:href="#frame0017_2615ec_CMMI12-3a" transform="translate(123.177945 0) scale(0.996264)"/>
       <use xlink:href="#frame0017_2615ec_CMR17-38" transform="translate(150.275122 0) scale(0.996264)"/>
      </g>
     </g>
    </g>
    <g id="frame0017_2615ec_ytick_4">
     <g id="frame0017_2615ec_line2d_35">
      <path d="M 7.2 241.401804 
L 443.4 241.401804 
" clip-path="url(#frame0017_2615ec_p711e2b15c4)" style="fill: none; stroke-dasharray: 2.96,1.28; stroke-dashoffset: 0; stroke: #b0b0b0; stroke-opacity: 0.6; stroke-width: 0.8"/>
     </g>
     <g id="frame0017_2615ec_line2d_36">
      <g>
       <use xlink:href="#frame0017_2615ec_m31d8aaab30" x="225.3" y="241.401804" style="stroke: #000000; stroke-width: 0.8"/>
      </g>
     </g>
     <g id="frame0017_2615ec_text_19">
      <!-- $\mathdefault{−0.6}$ -->
      <g transform="translate(179.106886 248.320303) scale(0.2 -0.2)">
       <use xlink:href="#frame0017_2615ec_CMSY10-0" transform="scale(0.996264)"/>
       <use xlink:href="#frame0017_2615ec_CMR17-30" transform="translate(77.487468 0) scale(0.996264)"/>
       <use xlink:href="#frame0017_2615ec_CMMI12-3a" transform="translate(123.177945 0) scale(0.996264)"/>
       <use xlink:href="#frame0017_2615ec_CMR17-36" transform="translate(150.275122 0) scale(0.996264)"/>
      </g>
     </g>
    </g>
    <g id="frame0017_2615ec_ytick_5">
     <g id="frame0017_2615ec_line2d_37">
      <path d="M 7.2 218.917255 
L 443.4 218.917255 
" clip-path="url(#frame0017_2615ec_p711e2b15c4)" style="fill: none; stroke-dasharray: 2.96,1.28; stroke-dashoffset: 0; stroke: #b0b0b0; stroke-opacity: 0.6; stroke-width: 0.8"/>
     </g>
     <g id="frame0017_2615ec_line2d_38">
      <g>
       <use xlink:href="#frame0017_2615ec_m31d8aaab30" x="225.3" y="218.917255" style="stroke: #000000; stroke-width: 0.8"/>
      </g>
     </g>
     <g id="frame0017_2615ec_text_20">
      <!-- $\mathdefault{−0.4}$ -->
      <g transform="translate(179.106886 225.835754) scale(0.2 -0.2)">
       <use xlink:href="#frame0017_2615ec_CMSY10-0" transform="scale(0.996264)"/>
       <use xlink:href="#frame0017_2615ec_CMR17-30" transform="translate(77.487468 0) scale(0.996264)"/>
       <use xlink:href="#frame0017_2615ec_CMMI12-3a" transform="translate(123.177945 0) scale(0.996264)"/>
       <use xlink:href="#frame0017_2615ec_CMR17-34" transform="translate(150.275122 0) scale(0.996264)"/>
      </g>
     </g>
    </g>
    <g id="frame0017_2615ec_ytick_6">
     <g id="frame0017_2615ec_line2d_39">
      <path d="M 7.2 196.432707 
L 443.4 196.432707 
" clip-path="url(#frame0017_2615ec_p711e2b15c4)" style="fill: none; stroke-dasharray: 2.96,1.28; stroke-dashoffset: 0; stroke: #b0b0b0; stroke-opacity: 0.6; stroke-width: 0.8"/>
     </g>
     <g id="frame0017_2615ec_line2d_40">
      <g>
       <use xlink:href="#frame0017_2615ec_m31d8aaab30" x="225.3" y="196.432707" style="stroke: #000000; stroke-width: 0.8"/>
      </g>
     </g>
     <g id="frame0017_2615ec_text_21">
      <!-- $\mathdefault{−0.2}$ -->
      <g transform="translate(179.106886 203.351205) scale(0.2 -0.2)">
       <use xlink:href="#frame0017_2615ec_CMSY10-0" transform="scale(0.996264)"/>
       <use xlink:href="#frame0017_2615ec_CMR17-30" transform="translate(77.487468 0) scale(0.996264)"/>
       <use xlink:href="#frame0017_2615ec_CMMI12-3a" transform="translate(123.177945 0) scale(0.996264)"/>
       <use xlink:href="#frame0017_2615ec_CMR17-32" transform="translate(150.275122 0) scale(0.996264)"/>
      </g>
     </g>
    </g>
    <g id="frame0017_2615ec_ytick_7">
     <g id="frame0017_2615ec_line2d_41">
      <path d="M 7.2 151.463609 
L 443.4 151.463609 
" clip-path="url(#frame0017_2615ec_p711e2b15c4)" style="fill: none; stroke-dasharray: 2.96,1.28; stroke-dashoffset: 0; stroke: #b0b0b0; stroke-opacity: 0.6; stroke-width: 0.8"/>
     </g>
     <g id="frame0017_2615ec_line2d_42">
      <g>
       <use xlink:href="#frame0017_2615ec_m31d8aaab30" x="225.3" y="151.463609" style="stroke: #000000; stroke-width: 0.8"/>
      </g>
     </g>
     <g id="frame0017_2615ec_text_22">
      <!-- $\mathdefault{0.2}$ -->
      <g transform="translate(194.604374 158.382107) scale(0.2 -0.2)">
       <use xlink:href="#frame0017_2615ec_CMR17-30" transform="scale(0.996264)"/>
       <use xlink:href="#frame0017_2615ec_CMMI12-3a" transform="translate(45.690477 0) scale(0.996264)"/>
       <use xlink:href="#frame0017_2615ec_CMR17-32" transform="translate(72.787654 0) scale(0.996264)"/>
      </g>
     </g>
    </g>
    <g id="frame0017_2615ec_ytick_8">
     <g id="frame0017_2615ec_line2d_43">
      <path d="M 7.2 128.97906 
L 443.4 128.97906 
" clip-path="url(#frame0017_2615ec_p711e2b15c4)" style="fill: none; stroke-dasharray: 2.96,1.28; stroke-dashoffset: 0; stroke: #b0b0b0; stroke-opacity: 0.6; stroke-width: 0.8"/>
     </g>
     <g id="frame0017_2615ec_line2d_44">
      <g>
       <use xlink:href="#frame0017_2615ec_m31d8aaab30" x="225.3" y="128.97906" style="stroke: #000000; stroke-width: 0.8"/>
      </g>
     </g>
     <g id="frame0017_2615ec_text_23">
      <!-- $\mathdefault{0.4}$ -->
      <g transform="translate(194.604374 135.897558) scale(0.2 -0.2)">
       <use xlink:href="#frame0017_2615ec_CMR17-30" transform="scale(0.996264)"/>
       <use xlink:href="#frame0017_2615ec_CMMI12-3a" transform="translate(45.690477 0) scale(0.996264)"/>
       <use xlink:href="#frame0017_2615ec_CMR17-34" transform="translate(72.787654 0) scale(0.996264)"/>
      </g>
     </g>
    </g>
    <g id="frame0017_2615ec_ytick_9">
     <g id="frame0017_2615ec_line2d_45">
      <path d="M 7.2 106.494511 
L 443.4 106.494511 
" clip-path="url(#frame0017_2615ec_p711e2b15c4)" style="fill: none; stroke-dasharray: 2.96,1.28; stroke-dashoffset: 0; stroke: #b0b0b0; stroke-opacity: 0.6; stroke-width: 0.8"/>
     </g>
     <g id="frame0017_2615ec_line2d_46">
      <g>
       <use xlink:href="#frame0017_2615ec_m31d8aaab30" x="225.3" y="106.494511" style="stroke: #000000; stroke-width: 0.8"/>
      </g>
     </g>
     <g id="frame0017_2615ec_text_24">
      <!-- $\mathdefault{0.6}$ -->
      <g transform="translate(194.604374 113.413009) scale(0.2 -0.2)">
       <use xlink:href="#frame0017_2615ec_CMR17-30" transform="scale(0.996264)"/>
       <use xlink:href="#frame0017_2615ec_CMMI12-3a" transform="translate(45.690477 0) scale(0.996264)"/>
       <use xlink:href="#frame0017_2615ec_CMR17-36" transform="translate(72.787654 0) scale(0.996264)"/>
      </g>
     </g>
    </g>
    <g id="frame0017_2615ec_ytick_10">
     <g id="frame0017_2615ec_line2d_47">
      <path d="M 7.2 84.009962 
L 443.4 84.009962 
" clip-path="url(#frame0017_2615ec_p711e2b15c4)" style="fill: none; stroke-dasharray: 2.96,1.28; stroke-dashoffset: 0; stroke: #b0b0b0; stroke-opacity: 0.6; stroke-width: 0.8"/>
     </g>
     <g id="frame0017_2615ec_line2d_48">
      <g>
       <use xlink:href="#frame0017_2615ec_m31d8aaab30" x="225.3" y="84.009962" style="stroke: #000000; stroke-width: 0.8"/>
      </g>
     </g>
     <g id="frame0017_2615ec_text_25">
      <!-- $\mathdefault{0.8}$ -->
      <g transform="translate(194.604374 90.92846) scale(0.2 -0.2)">
       <use xlink:href="#frame0017_2615ec_CMR17-30" transform="scale(0.996264)"/>
       <use xlink:href="#frame0017_2615ec_CMMI12-3a" transform="translate(45.690477 0) scale(0.996264)"/>
       <use xlink:href="#frame0017_2615ec_CMR17-38" transform="translate(72.787654 0) scale(0.996264)"/>
      </g>
     </g>
    </g>
    <g id="frame0017_2615ec_ytick_11">
     <g id="frame0017_2615ec_line2d_49">
      <path d="M 7.2 61.525413 
L 443.4 61.525413 
" clip-path="url(#frame0017_2615ec_p711e2b15c4)" style="fill: none; stroke-dasharray: 2.96,1.28; stroke-dashoffset: 0; stroke: #b0b0b0; stroke-opacity: 0.6; stroke-width: 0.8"/>
     </g>
     <g id="frame0017_2615ec_line2d_50">
      <g>
       <use xlink:href="#frame0017_2615ec_m31d8aaab30" x="225.3" y="61.525413" style="stroke: #000000; stroke-width: 0.8"/>
      </g>
     </g>
     <g id="frame0017_2615ec_text_26">
      <!-- $\mathdefault{1.0}$ -->
      <g transform="translate(194.604374 68.443911) scale(0.2 -0.2)">
       <use xlink:href="#frame0017_2615ec_CMR17-31" transform="scale(0.996264)"/>
       <use xlink:href="#frame0017_2615ec_CMMI12-3a" transform="translate(45.690477 0) scale(0.996264)"/>
       <use xlink:href="#frame0017_2615ec_CMR17-30" transform="translate(72.787654 0) scale(0.996264)"/>
      </g>
     </g>
    </g>
    <g id="frame0017_2615ec_ytick_12">
     <g id="frame0017_2615ec_line2d_51">
      <path d="M 7.2 39.040864 
L 443.4 39.040864 
" clip-path="url(#frame0017_2615ec_p711e2b15c4)" style="fill: none; stroke-dasharray: 2.96,1.28; stroke-dashoffset: 0; stroke: #b0b0b0; stroke-opacity: 0.6; stroke-width: 0.8"/>
     </g>
     <g id="frame0017_2615ec_line2d_52">
      <g>
       <use xlink:href="#frame0017_2615ec_m31d8aaab30" x="225.3" y="39.040864" style="stroke: #000000; stroke-width: 0.8"/>
      </g>
     </g>
     <g id="frame0017_2615ec_text_27">
      <!-- $\mathdefault{1.2}$ -->
      <g transform="translate(194.604374 45.959362) scale(0.2 -0.2)">
       <use xlink:href="#frame0017_2615ec_CMR17-31" transform="scale(0.996264)"/>
       <use xlink:href="#frame0017_2615ec_CMMI12-3a" transform="translate(45.690477 0) scale(0.996264)"/>
       <use xlink:href="#frame0017_2615ec_CMR17-32" transform="translate(72.787654 0) scale(0.996264)"/>
      </g>
     </g>
    </g>
    <g id="frame0017_2615ec_text_28">
     <!-- $y$ -->
     <g transform="translate(165.594052 12.680682) scale(0.2 -0.2)">
      <defs>
       <path id="frame0017_2615ec_CMMI12-79" d="M 1683 -700 
C 1510 -939 1261 -1152 947 -1152 
C 870 -1152 563 -1152 467 -889 
C 486 -895 518 -895 531 -895 
C 723 -895 851 -729 851 -582 
C 851 -435 730 -384 634 -384 
C 531 -384 307 -458 307 -759 
C 307 -1071 582 -1286 947 -1286 
C 1587 -1286 2234 -700 2413 6 
L 3040 2485 
C 3046 2517 3059 2556 3059 2594 
C 3059 2689 2982 2753 2886 2753 
C 2829 2753 2694 2727 2643 2535 
L 2170 658 
C 2138 543 2138 530 2086 460 
C 1958 281 1747 64 1440 64 
C 1082 64 1050 415 1050 588 
C 1050 952 1222 1443 1395 1903 
C 1466 2088 1504 2178 1504 2305 
C 1504 2574 1312 2816 998 2816 
C 410 2816 173 1890 173 1839 
C 173 1814 198 1782 243 1782 
C 301 1782 307 1807 333 1897 
C 486 2433 730 2689 979 2689 
C 1037 2689 1146 2689 1146 2478 
C 1146 2312 1075 2127 979 1884 
C 666 1047 666 837 666 683 
C 666 77 1101 -64 1421 -64 
C 1606 -64 1837 -6 2061 230 
L 2067 224 
C 1971 -147 1907 -392 1683 -700 
z
" transform="scale(0.015625)"/>
      </defs>
      <use xlink:href="#frame0017_2615ec_CMMI12-79" transform="scale(0.996264)"/>
     </g>
    </g>
   </g>
   <g id="frame0017_2615ec_line2d_53">
    <defs>
     <path id="frame0017_2615ec_m029b59a3c3" d="M 3 0 
L -3 -3 
L -3 3 
z
" style="stroke: #000000; stroke-linejoin: miter"/>
    </defs>
    <g>
     <use xlink:href="#frame0017_2615ec_m029b59a3c3" x="443.4" y="173.948158" style="stroke: #000000; stroke-linejoin: miter"/>
    </g>
   </g>
   <g id="frame0017_2615ec_line2d_54">
    <defs>
     <path id="frame0017_2615ec_m4489382af8" d="M 0 -3 
L -3 3 
L 3 3 
z
" style="stroke: #000000; stroke-linejoin: miter"/>
    </defs>
    <g>
     <use xlink:href="#frame0017_2615ec_m4489382af8" x="225.3" y="16.556315" style="stroke: #000000; stroke-linejoin: miter"/>
    </g>
   </g>
   <g id="frame0017_2615ec_line2d_55">
    <defs>
     <path id="frame0017_2615ec_m570666d0ba" d="M 0 5 
C 1.326016 5 2.597899 4.473168 3.535534 3.535534 
C 4.473168 2.597899 5 1.326016 5 0 
C 5 -1.326016 4.473168 -2.597899 3.535534 -3.535534 
C 2.597899 -4.473168 1.326016 -5 0 -5 
C -1.326016 -5 -2.597899 -4.473168 -3.535534 -3.535534 
C -4.473168 -2.597899 -5 -1.326016 -5 0 
C -5 1.326016 -4.473168 2.597899 -3.535534 3.535534 
C -2.597899 4.473168 -1.326016 5 0 5 
z
" style="stroke: #000000; stroke-opacity: 0.8"/>
    </defs>
    <g clip-path="url(#frame0017_2615ec_p711e2b15c4)">
     <use xlink:href="#frame0017_2615ec_m570666d0ba" x="89.536254" y="163.87066" style="fill-opacity: 0.8; stroke: #000000; stroke-opacity: 0.8"/>
    </g>
   </g>
   <g id="frame0017_2615ec_line2d_56">
    <path d="M 361.6125 173.948158 
L 361.54456 170.399135 
L 361.340809 166.853649 
L 361.00145 163.315236 
L 360.52682 159.787422 
L 359.917393 156.273723 
L 359.173777 152.777643 
L 358.296712 149.302666 
L 357.287073 145.852256 
L 356.145867 142.429853 
L 354.874231 139.038868 
L 353.473432 135.682681 
L 351.944868 132.364639 
L 350.29006 129.088047 
L 348.510661 125.856173 
L 346.608442 122.672238 
L 344.5853 119.539416 
L 342.443252 116.46083 
L 340.184433 113.439549 
L 337.811094 110.478584 
L 335.325603 107.580886 
L 332.730435 104.749345 
L 330.028178 101.986783 
L 327.221526 99.295954 
L 324.313277 96.67954 
L 321.306329 94.140148 
L 318.203679 91.680311 
L 315.008421 89.30248 
L 311.72374 87.009026 
L 308.35291 84.802235 
L 304.899291 82.684306 
L 301.366326 80.657352 
L 297.757536 78.723391 
L 294.076518 76.884353 
L 290.326943 75.142069 
L 286.512548 73.498278 
L 282.637134 71.954618 
L 278.704566 70.512627 
L 274.718763 69.173743 
L 270.683698 67.9393 
L 266.603394 66.810529 
L 262.481917 65.788555 
L 258.323377 64.874397 
L 254.131918 64.068966 
L 249.91172 63.373065 
L 245.666987 62.787388 
L 241.401952 62.312518 
L 237.120867 61.948929 
L 232.827998 61.696984 
L 228.527626 61.556933 
L 224.224035 61.528915 
L 219.921518 61.61296 
L 215.624362 61.808983 
L 211.33685 62.116789 
L 207.063258 62.53607 
L 202.807844 63.06641 
L 198.574851 63.707279 
L 194.368498 64.458038 
L 190.192978 65.31794 
L 186.052454 66.286126 
L 181.951052 67.361633 
L 177.892862 68.543387 
L 173.881928 69.830211 
L 169.922249 71.220822 
L 166.017772 72.713833 
L 162.172388 74.307758 
L 158.389932 76.001006 
L 154.674172 77.79189 
L 151.028814 79.678624 
L 147.457492 81.659329 
L 143.963764 83.732029 
L 140.551114 85.894658 
L 137.222944 88.145061 
L 133.982571 90.480995 
L 130.833225 92.90013 
L 127.778045 95.400056 
L 124.820078 97.97828 
L 121.962271 100.632233 
L 119.207473 103.359268 
L 116.558431 106.156668 
L 114.017784 109.021645 
L 111.588067 111.951341 
L 109.271699 114.942837 
L 107.070992 117.993151 
L 104.988137 121.099242 
L 103.025212 124.258014 
L 101.184173 127.466318 
L 99.466856 130.720956 
L 97.874972 134.018684 
L 96.410107 137.356215 
L 95.073723 140.730221 
L 93.867152 144.13734 
L 92.791595 147.574175 
L 91.848126 151.0373 
L 91.037685 154.523263 
L 90.361079 158.028589 
L 89.818983 161.549784 
L 89.411938 165.083338 
L 89.140348 168.625729 
L 89.004486 172.173425 
L 89.004486 175.72289 
L 89.140348 179.270586 
L 89.411938 182.812977 
L 89.818983 186.346531 
L 90.361079 189.867726 
L 91.037685 193.373052 
L 91.848126 196.859015 
L 92.791595 200.32214 
L 93.867152 203.758975 
L 95.073723 207.166094 
L 96.410107 210.5401 
L 97.874972 213.877631 
L 99.466856 217.175359 
L 101.184173 220.429997 
L 103.025212 223.638301 
L 104.988137 226.797073 
L 107.070992 229.903164 
L 109.271699 232.953478 
L 111.588067 235.944974 
L 114.017784 238.874671 
L 116.558431 241.739647 
L 119.207473 244.537047 
L 121.962271 247.264082 
L 124.820078 249.918035 
L 127.778045 252.496259 
L 130.833225 254.996185 
L 133.982571 257.41532 
L 137.222944 259.751254 
L 140.551114 262.001657 
L 143.963764 264.164286 
L 147.457492 266.236986 
L 151.028814 268.217691 
L 154.674172 270.104425 
L 158.389932 271.895309 
L 162.172388 273.588557 
L 166.017772 275.182482 
L 169.922249 276.675494 
L 173.881928 278.066105 
L 177.892862 279.352928 
L 181.951052 280.534683 
L 186.052454 281.610189 
L 190.192978 282.578376 
L 194.368498 283.438277 
L 198.574851 284.189037 
L 202.807844 284.829905 
L 207.063258 285.360245 
L 211.33685 285.779527 
L 215.624362 286.087332 
L 219.921518 286.283355 
L 224.224035 286.3674 
L 228.527626 286.339383 
L 232.827998 286.199331 
L 237.120867 285.947386 
L 241.401952 285.583797 
L 245.666987 285.108927 
L 249.91172 284.52325 
L 254.131918 283.827349 
L 258.323377 283.021918 
L 262.481917 282.10776 
L 266.603394 281.085786 
L 270.683698 279.957015 
L 274.718763 278.722573 
L 278.704566 277.383688 
L 282.637134 275.941697 
L 286.512548 274.398037 
L 290.326943 272.754246 
L 294.076518 271.011963 
L 297.757536 269.172924 
L 301.366326 267.238964 
L 304.899291 265.212009 
L 308.35291 263.09408 
L 311.72374 260.887289 
L 315.008421 258.593835 
L 318.203679 256.216004 
L 321.306329 253.756167 
L 324.313277 251.216776 
L 327.221526 248.600361 
L 330.028178 245.909532 
L 332.730435 243.14697 
L 335.325603 240.315429 
L 337.811094 237.417731 
L 340.184433 234.456766 
L 342.443252 231.435485 
L 344.5853 228.356899 
L 346.608442 225.224077 
L 348.510661 222.040142 
L 350.29006 218.808268 
L 351.944868 215.531677 
L 353.473432 212.213634 
L 354.874231 208.857447 
L 356.145867 205.466462 
L 357.287073 202.044059 
L 358.296712 198.593649 
L 359.173777 195.118672 
L 359.917393 191.622592 
L 360.52682 188.108893 
L 361.00145 184.581079 
L 361.340809 181.042666 
L 361.54456 177.497181 
L 361.6125 173.948158 
L 361.6125 173.948158 
" clip-path="url(#frame0017_2615ec_p711e2b15c4)" style="fill: none; stroke: #0072b2; stroke-width: 2.5; stroke-linecap: square"/>
   </g>
   <g id="frame0017_2615ec_patch_3">
    <path d="M 225.3 331.34 
L 225.3 16.556315 
" style="fill: none; stroke: #000000; stroke-width: 0.8; stroke-linejoin: miter; stroke-linecap: square"/>
   </g>
   <g id="frame0017_2615ec_patch_4">
    <path d="M 443.4 331.34 
L 443.4 16.556315 
" style="fill: none"/>
   </g>
   <g id="frame0017_2615ec_patch_5">
    <path d="M 7.2 173.948158 
L 443.4 173.948158 
" style="fill: none; stroke: #000000; stroke-width: 0.8; stroke-linejoin: miter; stroke-linecap: square"/>
   </g>
   <g id="frame0017_2615ec_patch_6">
    <path d="M 7.2 16.556315 
L 443.4 16.556315 
" style="fill: none"/>
   </g>
   <g id="frame0017_2615ec_text_29">
    <g id="frame0017_2615ec_patch_7">
     <path d="M 353.800437 53.897179 
L 423.949563 53.897179 
Q 429.949563 53.897179 429.949563 47.897179 
L 429.949563 30.184549 
Q 429.949563 24.184549 423.949563 24.184549 
L 353.800437 24.184549 
Q 347.800437 24.184549 347.800437 30.184549 
L 347.800437 47.897179 
Q 347.800437 53.897179 353.800437 53.897179 
z
" style="fill: #ffffff; opacity: 0.8"/>
    </g>
    <!-- v = 175° -->
    <g transform="translate(353.800437 44.021546) scale(0.2 -0.2)">
     <defs>
      <path id="frame0017_2615ec_CMSS17-76" d="M 2675 2752 
L 2176 2752 
L 1747 1556 
C 1613 1165 1421 627 1389 352 
L 1382 352 
C 1370 468 1318 634 1286 749 
C 1248 890 1197 1056 1158 1172 
L 595 2752 
L 83 2752 
L 1094 0 
L 1664 0 
L 2675 2752 
z
" transform="scale(0.015625)"/>
      <path id="frame0017_2615ec_CMSS17-3d" d="M 4147 2017 
C 4243 2017 4339 2017 4339 2125 
C 4339 2240 4230 2240 4122 2240 
L 550 2240 
C 442 2240 333 2240 333 2125 
C 333 2017 429 2017 525 2017 
L 4147 2017 
z
M 4122 896 
C 4230 896 4339 896 4339 1011 
C 4339 1119 4243 1119 4147 1119 
L 525 1119 
C 429 1119 333 1119 333 1011 
C 333 896 442 896 550 896 
L 4122 896 
z
" transform="scale(0.015625)"/>
      <path id="frame0017_2615ec_CMSS17-31" d="M 1818 4288 
L 1696 4288 
C 1350 3940 947 3890 538 3890 
L 538 3520 
C 723 3520 1024 3520 1325 3667 
L 1325 369 
L 570 369 
L 570 0 
L 2573 0 
L 2573 369 
L 1818 369 
L 1818 4288 
z
" transform="scale(0.015625)"/>
      <path id="frame0017_2615ec_CMSS17-37" d="M 1389 3776 
C 1466 3776 1542 3776 1619 3776 
L 2355 3776 
C 1440 2711 915 1365 915 -32 
L 1427 -32 
C 1427 1323 1875 2696 2752 3795 
L 2752 4209 
L 250 4209 
L 250 3776 
L 1389 3776 
z
" transform="scale(0.015625)"/>
      <path id="frame0017_2615ec_CMSS17-35" d="M 934 3752 
L 2502 3752 
L 2502 4160 
L 467 4160 
L 467 1781 
L 896 1781 
C 1011 2046 1248 2240 1555 2240 
C 1843 2240 2163 1989 2163 1266 
C 2163 493 1709 267 1376 267 
C 966 267 589 512 422 851 
L 218 499 
C 512 49 992 -128 1376 -128 
C 2118 -128 2701 497 2701 1253 
C 2701 2030 2182 2629 1562 2629 
C 1338 2629 1120 2553 934 2399 
L 934 3752 
z
" transform="scale(0.015625)"/>
      <path id="frame0017_2615ec_SFSS3583-b0" d="M 890 4352 
C 544 4307 326 4016 326 3712 
C 326 3389 576 3072 960 3072 
L 1018 3072 
C 1357 3117 1587 3408 1587 3712 
C 1587 4042 1312 4352 947 4352 
L 890 4352 
z
M 525 3673 
L 525 3712 
C 525 3939 723 4139 947 4139 
C 1178 4139 1338 3960 1382 3751 
L 1382 3711 
C 1382 3482 1184 3278 960 3278 
C 730 3278 570 3460 525 3673 
z
" transform="scale(0.015625)"/>
     </defs>
     <use xlink:href="#frame0017_2615ec_CMSS17-76" transform="scale(0.996264)"/>
     <use xlink:href="#frame0017_2615ec_CMSS17-3d" transform="translate(74.229254 0) scale(0.996264)"/>
     <use xlink:href="#frame0017_2615ec_CMSS17-31" transform="translate(178.326302 0) scale(0.996264)"/>
     <use xlink:href="#frame0017_2615ec_CMSS17-37" transform="translate(225.169926 0) scale(0.996264)"/>
     <use xlink:href="#frame0017_2615ec_CMSS17-35" transform="translate(272.013549 0) scale(0.996264)"/>
     <use xlink:href="#frame0017_2615ec_SFSS3583-b0" transform="translate(318.857173 0) scale(0.356961)"/>
    </g>
   </g>
  </g>
 </g>
 <defs>
  <clipPath id="frame0017_2615ec_p711e2b15c4">
   <rect x="7.2" y="16.556315" width="436.2" height="314.783685"/>
  </clipPath>
 </defs>
</svg>
