<?xml version="1.0" encoding="utf-8" standalone="no"?>
<!DOCTYPE svg PUBLIC "-//W3C//DTD SVG 1.1//EN"
  "http://www.w3.org/Graphics/SVG/1.1/DTD/svg11.dtd">
<svg xmlns:xlink="http://www.w3.org/1999/xlink" width="460.8pt" height="345.6pt" viewBox="0 0 460.8 345.6" xmlns="http://www.w3.org/2000/svg" version="1.1">
 <metadata>
  <rdf:RDF xmlns:dc="http://purl.org/dc/elements/1.1/" xmlns:cc="http://creativecommons.org/ns#" xmlns:rdf="http://www.w3.org/1999/02/22-rdf-syntax-ns#">
   <cc:Work>
    <dc:type rdf:resource="http://purl.org/dc/dcmitype/StillImage"/>
    <dc:date>2025-03-11T23:47:35.894630</dc:date>
    <dc:format>image/svg+xml</dc:format>
    <dc:creator>
     <cc:Agent>
      <dc:title>Matplotlib v3.9.1, https://matplotlib.org/</dc:title>
     </cc:Agent>
    </dc:creator>
   </cc:Work>
  </rdf:RDF>
 </metadata>
 <defs>
  <style type="text/css">*{stroke-linejoin: round; stroke-linecap: butt}</style>
 </defs>
 <g id="figure_1">
  <g id="patch_1">
   <path d="M 0 345.6 
L 460.8 345.6 
L 460.8 0 
L 0 0 
z
" style="fill: #ffffff"/>
  </g>
  <g id="axes_1">
   <g id="patch_2">
    <path d="M 73.832727 268.247695 
L 290.269091 268.247695 
L 398.487273 80.808305 
z
" clip-path="url(#p236bd41e6a)" style="fill: #00648c; opacity: 0.1; stroke: #00648c; stroke-linejoin: miter"/>
   </g>
   <g id="line2d_1">
    <path d="M 73.832727 268.247695 
L 290.269091 268.247695 
L 398.487273 80.808305 
L 73.832727 268.247695 
" clip-path="url(#p236bd41e6a)" style="fill: none; stroke: #000000; stroke-width: 1.5; stroke-linecap: square"/>
   </g>
   <g id="line2d_2">
    <defs>
     <path id="m4969bafdc8" d="M 0 4 
C 1.060812 4 2.078319 3.578535 2.828427 2.828427 
C 3.578535 2.078319 4 1.060812 4 0 
C 4 -1.060812 3.578535 -2.078319 2.828427 -2.828427 
C 2.078319 -3.578535 1.060812 -4 0 -4 
C -1.060812 -4 -2.078319 -3.578535 -2.828427 -2.828427 
C -3.578535 -2.078319 -4 -1.060812 -4 0 
C -4 1.060812 -3.578535 2.078319 -2.828427 2.828427 
C -2.078319 3.578535 -1.060812 4 0 4 
z
" style="stroke: #000000; stroke-opacity: 0.7"/>
    </defs>
    <g clip-path="url(#p236bd41e6a)">
     <use xlink:href="#m4969bafdc8" x="290.269091" y="268.247695" style="fill-opacity: 0.7; stroke: #000000; stroke-opacity: 0.7"/>
     <use xlink:href="#m4969bafdc8" x="398.487273" y="80.808305" style="fill-opacity: 0.7; stroke: #000000; stroke-opacity: 0.7"/>
     <use xlink:href="#m4969bafdc8" x="73.832727" y="268.247695" style="fill-opacity: 0.7; stroke: #000000; stroke-opacity: 0.7"/>
    </g>
   </g>
   <g id="line2d_3">
    <path d="M 124.334545 268.247695 
L 124.333839 267.980598 
L 124.33172 267.713509 
L 124.328189 267.446435 
L 124.323245 267.179383 
L 124.316888 266.912361 
L 124.30912 266.645376 
L 124.29994 266.378437 
L 124.289347 266.111549 
L 124.277344 265.844721 
L 124.26393 265.577961 
L 124.249104 265.311275 
L 124.232869 265.044671 
L 124.215224 264.778157 
L 124.196169 264.51174 
L 124.175706 264.245428 
L 124.153834 263.979227 
L 124.130555 263.713146 
L 124.105869 263.447192 
L 124.079777 263.181372 
L 124.052279 262.915693 
L 124.023377 262.650164 
L 123.99307 262.384791 
L 123.961361 262.119583 
L 123.928249 261.854546 
L 123.893736 261.589687 
L 123.857822 261.325015 
L 123.82051 261.060537 
L 123.781799 260.796259 
L 123.741691 260.53219 
L 123.700186 260.268337 
L 123.657287 260.004707 
L 123.612995 259.741307 
L 123.567309 259.478146 
L 123.520233 259.21523 
L 123.471767 258.952566 
L 123.421912 258.690163 
L 123.37067 258.428026 
L 123.318042 258.166165 
L 123.26403 257.904585 
L 123.208636 257.643295 
L 123.15186 257.382302 
L 123.093705 257.121612 
L 123.034172 256.861234 
L 122.973262 256.601174 
L 122.910978 256.34144 
L 122.847322 256.082039 
L 122.782294 255.822978 
L 122.715897 255.564265 
L 122.648132 255.305906 
L 122.579002 255.04791 
L 122.508509 254.790283 
L 122.436654 254.533032 
L 122.363439 254.276165 
L 122.288867 254.019688 
L 122.212939 253.76361 
L 122.135659 253.507937 
L 122.057027 253.252676 
L 121.977046 252.997834 
L 121.895718 252.743419 
L 121.813046 252.489438 
L 121.729032 252.235898 
L 121.643678 251.982805 
L 121.556987 251.730168 
L 121.468961 251.477992 
L 121.379602 251.226286 
L 121.288913 250.975056 
L 121.196897 250.724308 
L 121.103556 250.474051 
L 121.008893 250.224292 
L 120.91291 249.975036 
L 120.81561 249.726291 
L 120.716996 249.478065 
L 120.61707 249.230363 
L 120.515836 248.983194 
L 120.413296 248.736563 
L 120.309453 248.490478 
L 120.20431 248.244946 
L 120.09787 247.999974 
L 119.990136 247.755567 
L 119.88111 247.511734 
L 119.770797 247.268481 
L 119.659198 247.025815 
L 119.546318 246.783742 
L 119.432159 246.54227 
L 119.316725 246.301405 
L 119.200018 246.061154 
L 119.082042 245.821523 
L 118.9628 245.58252 
L 118.842296 245.344151 
L 118.720533 245.106422 
L 118.597515 244.869341 
L 118.473244 244.632913 
L 118.347725 244.397147 
L 118.22096 244.162047 
L 118.092954 243.927621 
L 117.96371 243.693875 
L 117.833231 243.460817 
L 117.701521 243.228451 
L 117.568585 242.996786 
" clip-path="url(#p236bd41e6a)" style="fill: none; stroke: #000000; stroke-linecap: square"/>
   </g>
   <g id="line2d_4">
    <path d="M 354.751415 106.059214 
L 354.885575 106.290174 
L 355.020955 106.52042 
L 355.15755 106.749948 
L 355.295358 106.978749 
L 355.434374 107.206819 
L 355.574594 107.43415 
L 355.716014 107.660737 
L 355.858631 107.886572 
L 356.00244 108.11165 
L 356.147437 108.335964 
L 356.293619 108.559508 
L 356.440981 108.782276 
L 356.58952 109.004261 
L 356.73923 109.225458 
L 356.890108 109.44586 
L 357.042149 109.66546 
L 357.19535 109.884254 
L 357.349706 110.102234 
L 357.505213 110.319395 
L 357.661866 110.53573 
L 357.819661 110.751234 
L 357.978593 110.9659 
L 358.138659 111.179723 
L 358.299853 111.392696 
L 358.462171 111.604813 
L 358.625609 111.816069 
L 358.790162 112.026458 
L 358.955826 112.235974 
L 359.122595 112.44461 
L 359.290465 112.652362 
L 359.459432 112.859222 
L 359.62949 113.065186 
L 359.800636 113.270248 
L 359.972863 113.474402 
L 360.146168 113.677642 
L 360.320545 113.879963 
L 360.49599 114.081359 
L 360.672498 114.281824 
L 360.850063 114.481352 
L 361.028681 114.679939 
L 361.208347 114.877578 
L 361.389056 115.074264 
L 361.570802 115.269992 
L 361.753581 115.464756 
L 361.937388 115.65855 
L 362.122217 115.85137 
L 362.308063 116.043209 
L 362.494921 116.234063 
L 362.682786 116.423925 
L 362.871653 116.612792 
L 363.061515 116.800657 
L 363.252369 116.987515 
L 363.444208 117.173361 
L 363.637028 117.35819 
L 363.830822 117.541997 
L 364.025586 117.724776 
L 364.221314 117.906522 
L 364.418 118.087231 
L 364.615639 118.266897 
L 364.814226 118.445515 
L 365.013754 118.62308 
L 365.214219 118.799588 
L 365.415615 118.975033 
L 365.617936 119.14941 
L 365.821176 119.322715 
L 366.02533 119.494943 
L 366.230392 119.666088 
L 366.436356 119.836146 
L 366.643217 120.005113 
L 366.850968 120.172983 
L 367.059604 120.339752 
L 367.26912 120.505416 
L 367.479509 120.669969 
L 367.690765 120.833407 
L 367.902882 120.995725 
L 368.115855 121.156919 
L 368.329678 121.316985 
L 368.544344 121.475918 
L 368.759848 121.633712 
L 368.976183 121.790365 
L 369.193344 121.945872 
L 369.411324 122.100228 
L 369.630118 122.253429 
L 369.849719 122.40547 
L 370.07012 122.556348 
L 370.291317 122.706059 
L 370.513302 122.854597 
L 370.73607 123.001959 
L 370.959614 123.148141 
L 371.183928 123.293138 
L 371.409006 123.436948 
L 371.634842 123.579564 
L 371.861428 123.720985 
L 372.088759 123.861205 
L 372.316829 124.00022 
L 372.54563 124.138028 
L 372.775158 124.274623 
L 373.005404 124.410003 
L 373.236364 124.544163 
" clip-path="url(#p236bd41e6a)" style="fill: none; stroke: #000000; stroke-linecap: square"/>
   </g>
   <g id="text_1">
    <!-- $30^\circ$ -->
    <g transform="translate(154.182891 248.475538) scale(0.22 -0.22)">
     <defs>
      <path id="CMR17-33" d="M 1414 2157 
C 1984 2157 2234 1662 2234 1090 
C 2234 320 1824 25 1453 25 
C 1114 25 563 194 390 693 
C 422 680 454 680 486 680 
C 640 680 755 782 755 948 
C 755 1133 614 1216 486 1216 
C 378 1216 211 1165 211 926 
C 211 335 787 -128 1466 -128 
C 2176 -128 2720 430 2720 1085 
C 2720 1707 2208 2157 1600 2227 
C 2086 2328 2554 2756 2554 3329 
C 2554 3820 2048 4179 1472 4179 
C 890 4179 378 3829 378 3329 
C 378 3110 544 3072 627 3072 
C 762 3072 877 3155 877 3321 
C 877 3486 762 3569 627 3569 
C 602 3569 570 3569 544 3557 
C 730 3959 1235 4032 1459 4032 
C 1683 4032 2106 3925 2106 3320 
C 2106 3143 2080 2828 1862 2550 
C 1670 2304 1453 2304 1242 2284 
C 1210 2284 1062 2269 1037 2269 
C 992 2263 966 2257 966 2208 
C 966 2163 973 2157 1101 2157 
L 1414 2157 
z
" transform="scale(0.015625)"/>
      <path id="CMR17-30" d="M 2688 2025 
C 2688 2416 2682 3080 2413 3591 
C 2176 4039 1798 4198 1466 4198 
C 1158 4198 768 4058 525 3597 
C 269 3118 243 2524 243 2025 
C 243 1661 250 1106 448 619 
C 723 -39 1216 -128 1466 -128 
C 1760 -128 2208 -7 2470 600 
C 2662 1042 2688 1559 2688 2025 
z
M 1466 -26 
C 1056 -26 813 325 723 812 
C 653 1188 653 1738 653 2096 
C 653 2588 653 2997 736 3387 
C 858 3929 1216 4096 1466 4096 
C 1728 4096 2067 3923 2189 3400 
C 2272 3036 2278 2607 2278 2096 
C 2278 1680 2278 1169 2202 792 
C 2067 95 1690 -26 1466 -26 
z
" transform="scale(0.015625)"/>
      <path id="CMSY10-e" d="M 2842 1600 
C 2842 2277 2272 2828 1600 2828 
C 909 2828 352 2264 352 1600 
C 352 930 909 372 1600 372 
C 2272 372 2842 923 2842 1600 
z
M 1600 628 
C 1043 628 608 1070 608 1600 
C 608 2130 1050 2572 1600 2572 
C 2131 2572 2586 2142 2586 1600 
C 2586 1058 2131 628 1600 628 
z
" transform="scale(0.015625)"/>
     </defs>
     <use xlink:href="#CMR17-33" transform="scale(0.996264)"/>
     <use xlink:href="#CMR17-30" transform="translate(45.690477 0) scale(0.996264)"/>
     <use xlink:href="#CMSY10-e" transform="translate(91.380954 36.153639) scale(0.697382)"/>
    </g>
   </g>
   <g id="text_2">
    <!-- $D$ -->
    <g transform="translate(26.713889 276.609961) scale(0.22 -0.22)">
     <defs>
      <path id="CMMI12-44" d="M 1005 472 
C 947 249 934 185 486 185 
C 365 185 301 185 301 70 
C 301 0 339 0 467 0 
L 2496 0 
C 3789 0 5050 1332 5050 2753 
C 5050 3671 4499 4352 3584 4352 
L 1530 4352 
C 1408 4352 1350 4352 1350 4231 
C 1350 4167 1408 4167 1504 4167 
C 1894 4167 1894 4116 1894 4046 
C 1894 4034 1894 3995 1869 3899 
L 1005 472 
z
M 2355 3931 
C 2413 4167 2438 4167 2688 4167 
L 3392 4167 
C 3994 4167 4544 3842 4544 2963 
C 4544 2644 4416 1536 3795 835 
C 3616 625 3130 185 2394 185 
L 1664 185 
C 1574 185 1562 185 1523 192 
C 1453 198 1446 211 1446 262 
C 1446 307 1459 345 1472 402 
L 2355 3931 
z
" transform="scale(0.015625)"/>
     </defs>
     <use xlink:href="#CMMI12-44" transform="scale(0.996264)"/>
    </g>
   </g>
   <g id="text_3">
    <!-- $E$ -->
    <g transform="translate(287.00809 285.852435) scale(0.22 -0.22)">
     <defs>
      <path id="CMMI12-45" d="M 4448 1489 
C 4454 1508 4474 1554 4474 1579 
C 4474 1611 4448 1643 4410 1643 
C 4384 1643 4371 1637 4352 1617 
C 4339 1611 4339 1598 4282 1469 
C 3904 570 3629 185 2605 185 
L 1670 185 
C 1581 185 1568 185 1530 192 
C 1459 198 1453 211 1453 262 
C 1453 307 1466 345 1478 403 
L 1920 2176 
L 2554 2176 
C 3053 2176 3091 2066 3091 1874 
C 3091 1810 3091 1752 3046 1560 
C 3034 1534 3027 1508 3027 1489 
C 3027 1444 3059 1425 3098 1425 
C 3155 1425 3162 1469 3187 1559 
L 3552 3042 
C 3552 3073 3526 3105 3488 3105 
C 3430 3105 3424 3080 3398 2990 
C 3270 2501 3142 2361 2573 2361 
L 1965 2361 
L 2362 3930 
C 2419 4154 2432 4154 2694 4154 
L 3610 4154 
C 4397 4154 4557 3943 4557 3458 
C 4557 3451 4557 3273 4531 3062 
C 4525 3036 4518 2998 4518 2985 
C 4518 2934 4550 2915 4589 2915 
C 4634 2915 4659 2941 4672 3055 
L 4806 4174 
C 4806 4195 4819 4263 4819 4277 
C 4819 4352 4762 4352 4646 4352 
L 1523 4352 
C 1402 4352 1338 4352 1338 4229 
C 1338 4154 1382 4154 1491 4154 
C 1888 4154 1888 4114 1888 4052 
C 1888 4020 1882 3994 1862 3924 
L 998 473 
C 941 249 928 185 480 185 
C 358 185 294 185 294 70 
C 294 0 333 0 461 0 
L 3674 0 
C 3814 0 3821 6 3866 110 
L 4448 1489 
z
" transform="scale(0.015625)"/>
     </defs>
     <use xlink:href="#CMMI12-45" transform="scale(0.996264)"/>
    </g>
   </g>
   <g id="text_4">
    <!-- $30^\circ$ -->
    <g transform="translate(315.612994 155.273825) scale(0.22 -0.22)">
     <use xlink:href="#CMR17-33" transform="scale(0.996264)"/>
     <use xlink:href="#CMR17-30" transform="translate(45.690477 0) scale(0.996264)"/>
     <use xlink:href="#CMSY10-e" transform="translate(91.380954 36.153639) scale(0.697382)"/>
    </g>
   </g>
   <g id="text_5">
    <!-- $F$ -->
    <g transform="translate(419.088051 61.535616) scale(0.22 -0.22)">
     <defs>
      <path id="CMMI12-46" d="M 1901 2055 
L 2515 2055 
C 3002 2055 3040 1946 3040 1761 
C 3040 1678 3027 1589 2995 1448 
C 2982 1423 2976 1391 2976 1378 
C 2976 1333 3002 1308 3046 1308 
C 3098 1308 3104 1333 3130 1435 
L 3501 2935 
C 3501 2961 3482 2999 3437 2999 
C 3379 2999 3373 2974 3347 2863 
C 3213 2376 3085 2240 2528 2240 
L 1946 2240 
L 2362 3926 
C 2419 4154 2432 4154 2694 4154 
L 3552 4154 
C 4352 4154 4467 3918 4467 3464 
C 4467 3426 4467 3285 4448 3119 
C 4442 3094 4429 3011 4429 2985 
C 4429 2934 4461 2915 4499 2915 
C 4544 2915 4570 2941 4582 3055 
L 4717 4174 
C 4717 4195 4730 4263 4730 4277 
C 4730 4352 4672 4352 4557 4352 
L 1523 4352 
C 1402 4352 1338 4352 1338 4229 
C 1338 4154 1382 4154 1491 4154 
C 1888 4154 1888 4113 1888 4050 
C 1888 4018 1882 3992 1862 3922 
L 998 473 
C 941 249 928 185 480 185 
C 358 185 294 185 294 70 
C 294 0 352 0 390 0 
C 512 0 640 0 762 0 
L 1594 0 
C 1734 0 1888 0 2029 0 
C 2086 0 2163 0 2163 115 
C 2163 185 2125 185 1984 185 
C 1478 185 1466 229 1466 324 
C 1466 356 1478 406 1491 449 
L 1901 2055 
z
" transform="scale(0.015625)"/>
     </defs>
     <use xlink:href="#CMMI12-46" transform="scale(0.996264)"/>
    </g>
   </g>
   <g id="text_6">
    <!-- $6 \sqrt{3}$ -->
    <g transform="translate(185.16584 170.314676) scale(0.22 -0.22)">
     <defs>
      <path id="CMR17-36" d="M 678 2176 
C 678 3690 1395 4032 1811 4032 
C 1946 4032 2272 4009 2400 3776 
C 2298 3776 2106 3776 2106 3553 
C 2106 3381 2246 3323 2336 3323 
C 2394 3323 2566 3348 2566 3560 
C 2566 3954 2246 4179 1805 4179 
C 1043 4179 243 3390 243 1984 
C 243 253 966 -128 1478 -128 
C 2099 -128 2688 427 2688 1283 
C 2688 2081 2170 2662 1517 2662 
C 1126 2662 838 2407 678 1960 
L 678 2176 
z
M 1478 25 
C 691 25 691 1200 691 1436 
C 691 1896 909 2560 1504 2560 
C 1613 2560 1926 2560 2138 2120 
C 2253 1870 2253 1609 2253 1289 
C 2253 944 2253 690 2118 434 
C 1978 171 1773 25 1478 25 
z
" transform="scale(0.015625)"/>
      <path id="CMSY10-70" d="M 2490 -5472 
L 1363 -2982 
C 1318 -2880 1286 -2880 1267 -2880 
C 1261 -2880 1229 -2880 1158 -2931 
L 550 -3392 
C 467 -3456 467 -3475 467 -3494 
C 467 -3526 486 -3565 531 -3565 
C 570 -3565 678 -3475 749 -3424 
C 787 -3393 883 -3323 954 -3271 
L 2214 -6042 
C 2259 -6144 2291 -6144 2349 -6144 
C 2445 -6144 2464 -6106 2509 -6016 
L 5414 0 
C 5459 90 5459 115 5459 128 
C 5459 192 5408 256 5331 256 
C 5280 256 5235 224 5184 122 
L 2490 -5472 
z
" transform="scale(0.015625)"/>
     </defs>
     <use xlink:href="#CMR17-36" transform="scale(0.996264)"/>
     <use xlink:href="#CMSY10-70" transform="translate(45.690477 82.421465) scale(0.996264)"/>
     <use xlink:href="#CMR17-33" transform="translate(128.712731 0) scale(0.996264)"/>
     <path d="M 128.712731 82.421465 
L 174.403208 82.421465 
L 174.403208 86.406414 
L 128.712731 86.406414 
L 128.712731 82.421465 
z
"/>
    </g>
   </g>
  </g>
 </g>
 <defs>
  <clipPath id="p236bd41e6a">
   <rect x="57.6" y="41.472" width="357.12" height="266.112"/>
  </clipPath>
 </defs>
</svg>
