<svg xmlns:xlink="http://www.w3.org/1999/xlink" xmlns="http://www.w3.org/2000/svg" width="317.585543pt" height="285.633159pt" viewBox="0 0 317.585543 285.633159" version="1.1">
 
 <defs>
  <style type="text/css">*{stroke-linejoin: round; stroke-linecap: butt}</style>
 </defs>
 <g id="figure_1">
  <g id="patch_1">
   <path id="path_0" d="M 0 285.633159  L 317.585543 285.633159  L 317.585543 0  L 0 0  L 0 285.633159  z " style="fill: none; opacity: 0"/>
  </g>
  <g id="axes_1">
   <g id="patch_2">
    <path id="path_1" d="M 7.2 278.433159  L 279.825 278.433159  L 279.825 13.898952  L 7.2 13.898952  L 7.2 278.433159  z " style="fill: none; opacity: 0"/>
   </g>
   <g id="matplotlib.axis_1">
    <g id="text_1">
     <!-- $x$ -->
     <g id="g_0" transform="translate(272.064232 159.851932) scale(0.14 -0.14)">
      <defs>
       <path id="CMMI12-78" d="M 3034 2606  C 2829 2567 2752 2414 2752 2293  C 2752 2139 2874 2088 2963 2088  C 3155 2088 3290 2254 3290 2427  C 3290 2695 2982 2816 2714 2816  C 2323 2816 2106 2433 2048 2312  C 1901 2816 1504 2816 1389 2816  C 736 2816 390 1980 390 1839  C 390 1814 416 1782 461 1782  C 512 1782 525 1820 538 1846  C 755 2555 1184 2689 1370 2689  C 1658 2689 1715 2420 1715 2267  C 1715 2127 1677 1980 1600 1673  L 1382 798  C 1286 415 1101 64 762 64  C 730 64 570 64 435 147  C 666 192 717 383 717 460  C 717 588 621 664 499 664  C 346 664 179 530 179 326  C 179 57 480 -64 755 -64  C 1062 -64 1280 179 1414 441  C 1517 64 1837 -64 2074 -64  C 2726 -64 3072 773 3072 913  C 3072 945 3046 971 3008 971  C 2950 971 2944 939 2925 888  C 2752 326 2381 64 2093 64  C 1869 64 1747 230 1747 492  C 1747 632 1773 734 1875 1156  L 2099 2024  C 2195 2408 2413 2689 2707 2689  C 2720 2689 2899 2689 3034 2606  z " transform="scale(0.015625)"/>
      </defs>
      <use id="use_0" xlink:href="#CMMI12-78" transform="scale(0.996264)"/>
     </g>
    </g>
   </g>
   <g id="matplotlib.axis_2">
    <g id="text_2">
     <!-- $y$ -->
     <g id="g_1" transform="translate(132.853526 11.186924) scale(0.14 -0.14)">
      <defs>
       <path id="CMMI12-79" d="M 1683 -700  C 1510 -939 1261 -1152 947 -1152  C 870 -1152 563 -1152 467 -889  C 486 -895 518 -895 531 -895  C 723 -895 851 -729 851 -582  C 851 -435 730 -384 634 -384  C 531 -384 307 -458 307 -759  C 307 -1071 582 -1286 947 -1286  C 1587 -1286 2234 -700 2413 6  L 3040 2485  C 3046 2517 3059 2556 3059 2594  C 3059 2689 2982 2753 2886 2753  C 2829 2753 2694 2727 2643 2535  L 2170 658  C 2138 543 2138 530 2086 460  C 1958 281 1747 64 1440 64  C 1082 64 1050 415 1050 588  C 1050 952 1222 1443 1395 1903  C 1466 2088 1504 2178 1504 2305  C 1504 2574 1312 2816 998 2816  C 410 2816 173 1890 173 1839  C 173 1814 198 1782 243 1782  C 301 1782 307 1807 333 1897  C 486 2433 730 2689 979 2689  C 1037 2689 1146 2689 1146 2478  C 1146 2312 1075 2127 979 1884  C 666 1047 666 837 666 683  C 666 77 1101 -64 1421 -64  C 1606 -64 1837 -6 2061 230  L 2067 224  C 1971 -147 1907 -392 1683 -700  z " transform="scale(0.015625)"/>
      </defs>
      <use id="use_1" xlink:href="#CMMI12-79" transform="scale(0.996264)"/>
     </g>
    </g>
   </g>
   <g id="line2d_1">
    <defs>
     <path id="m87056087ce" d="M 3 0  L -3 -3  L -3 3  z " style="stroke: #000000; stroke-linejoin: miter"/>
    </defs>
    <g id="g_2">
     <use id="use_2" xlink:href="#m87056087ce" x="279.825" y="146.166056" style="stroke: #000000; stroke-linejoin: miter"/>
    </g>
   </g>
   <g id="line2d_2">
    <defs>
     <path id="mff78a797a1" d="M 0 -3  L -3 3  L 3 3  z " style="stroke: #000000; stroke-linejoin: miter"/>
    </defs>
    <g id="g_3">
     <use id="use_3" xlink:href="#mff78a797a1" x="143.5125" y="13.898952" style="stroke: #000000; stroke-linejoin: miter"/>
    </g>
   </g>
   <g id="line2d_3">
    <defs>
     <path id="m81067c748e" d="M 0 5  C 1.326016 5 2.597899 4.473168 3.535534 3.535534  C 4.473168 2.597899 5 1.326016 5 0  C 5 -1.326016 4.473168 -2.597899 3.535534 -3.535534  C 2.597899 -4.473168 1.326016 -5 0 -5  C -1.326016 -5 -2.597899 -4.473168 -3.535534 -3.535534  C -4.473168 -2.597899 -5 -1.326016 -5 0  C -5 1.326016 -4.473168 2.597899 -3.535534 3.535534  C -2.597899 4.473168 -1.326016 5 0 5  z " style="stroke: #000000; stroke-opacity: 0.8"/>
    </defs>
    <g id="g_4" clip-path="url(#p465a83b982)">
     <use id="use_4" xlink:href="#m81067c748e" x="234.3875" y="146.166056" style="fill-opacity: 0.8; stroke: #000000; stroke-opacity: 0.8"/>
    </g>
   </g>
   <g id="line2d_4">
    <path id="path_2" d="M 234.3875 146.166056  L 234.277823 141.835137  L 233.949057 137.514672  L 233.401995 133.21509  L 232.637958 128.946769  L 231.65879 124.720012  L 230.466855 120.545021  L 229.065029 116.431874  L 227.456697 112.3905  L 225.64574 108.430653  L 223.63653 104.561891  L 221.433917 100.793554  L 219.043218 97.134737  L 216.470202 93.594272  L 213.721081 90.180704  L 210.802491 86.902273  L 207.721476 83.766894  L 204.485474 80.782133  L 201.102295 77.955197  L 197.580106 75.292907  L 193.927409 72.801691  L 190.15302 70.487562  L 186.266051 68.356105  L 182.275883 66.412466  L 178.192148 64.661336  L 174.024703 63.106942  L 169.783608 61.753037  L 165.4791 60.602887  L 161.121568 59.659269  L 156.721532 58.924462  L 152.289613 58.400238  L 147.836507 58.087863  L 143.372963 57.988091  L 138.909757 58.101163  L 134.45766 58.426806  L 130.027421 58.964233  L 125.629731 59.712149  L 121.275207 60.668747  L 116.974359 61.831718  L 112.737569 63.198255  L 108.575063 64.76506  L 104.49689 66.52835  L 100.512892 68.48387  L 96.632686 70.626899  L 92.865639 72.952264  L 89.220844 75.454353  L 85.707097 78.127125  L 82.332881 80.96413  L 79.106341 83.958519  L 76.035264 87.103065  L 73.127063 90.390177  L 70.388759 93.81192  L 67.82696 97.360036  L 65.447852 101.02596  L 63.257175 104.800843  L 61.260219 108.675573  L 59.461803 112.640797  L 57.866269 116.686945  L 56.477468 120.80425  L 55.298751 124.982773  L 54.332965 129.212428  L 53.582441 133.483005  L 53.048989 137.784197  L 52.733898 142.105621  L 52.637929 146.436847  L 52.761312 150.767418  L 53.10375 155.086883  L 53.664417 159.384815  L 54.441959 163.650839  L 55.4345 167.874658  L 56.639643 172.046078  L 58.05448 176.155028  L 59.675595 180.191591  L 61.499075 184.146023  L 63.52052 188.008779  L 65.735049 191.770535  L 68.137317 195.422211  L 70.721526 198.954992  L 73.481437 202.360352  L 76.410389 205.63007  L 79.501313 208.756254  L 82.746746 211.731358  L 86.138856 214.5482  L 89.669454 217.199981  L 93.330018 219.680301  L 97.111713 221.983173  L 101.00541 224.103037  L 105.001711 226.034777  L 109.090969 227.773729  L 113.263313 229.315698  L 117.508673 230.65696  L 121.816801 231.794277  L 126.177298 232.724906  L 130.579639 233.446599  L 135.013197 233.957614  L 139.467271 234.256718  L 143.931109 234.343189  L 148.393936 234.216818  L 152.844981 233.87791  L 157.273499 233.327283  L 161.668801 232.566267  L 166.020277 231.596698  L 170.317424 230.420917  L 174.549869 229.041761  L 178.707396 227.46256  L 182.77997 225.687126  L 186.75776 223.719744  L 190.631165 221.565163  L 194.390835 219.228583  L 198.027694 216.715646  L 201.532965 214.032415  L 204.898187 211.185369  L 208.115235 208.18138  L 211.176346 205.027698  L 214.074129 201.731936  L 216.801591 198.302049  L 219.352148 194.746316  L 221.719643 191.07332  L 223.898362 187.291927  L 225.883046 183.411265  L 227.668904 179.4407  L 229.251625 175.389817  L 230.627389 171.268393  L 231.792875 167.086378  L 232.74527 162.853865  L 233.482276 158.581071  L 234.002112 154.27831  L 234.303525 149.955967  L 234.3875 146.166056  L 234.3875 146.166056  " clip-path="url(#p465a83b982)" style="fill: none; stroke: #0072b2; stroke-width: 2.5; stroke-linecap: square"/>
   </g>
   <g id="LineCollection_1">
    <path id="path_3" d="M 234.3875 146.166056  L 234.3875 146.166056  " clip-path="url(#p465a83b982)" style="fill: none; stroke-dasharray: 9.25,4; stroke-dashoffset: 0; stroke: #808080; stroke-width: 2.5"/>
   </g>
   <g id="LineCollection_2">
    <path id="path_4" d="M 143.5125 146.166056  L 234.3875 146.166056  " clip-path="url(#p465a83b982)" style="fill: none; stroke-dasharray: 9.25,4; stroke-dashoffset: 0; stroke: #808080; stroke-width: 2.5"/>
   </g>
   <g id="line2d_5">
    <path id="path_5" d="M 170.775 146.166056  L 170.775 146.166056  " clip-path="url(#p465a83b982)" style="fill: none; stroke: #dc5e8b; stroke-linecap: square"/>
   </g>
   <g id="line2d_6">
    <path id="path_6" d="M 143.5125 146.166056  L 234.3875 146.166056  " clip-path="url(#p465a83b982)" style="fill: none; stroke: #dc5e8b; stroke-width: 2.5; stroke-linecap: square"/>
   </g>
   <g id="patch_3">
    <path id="path_7" d="M 143.5125 278.433159  L 143.5125 13.898952  " style="fill: none; stroke: #000000; stroke-width: 0.8; stroke-linejoin: miter; stroke-linecap: square"/>
   </g>
   <g id="patch_4">
    <path id="path_8" d="M 279.825 278.433159  L 279.825 13.898952  " style="fill: none"/>
   </g>
   <g id="patch_5">
    <path id="path_9" d="M 7.2 146.166056  L 279.825 146.166056  " style="fill: none; stroke: #000000; stroke-width: 0.8; stroke-linejoin: miter; stroke-linecap: square"/>
   </g>
   <g id="patch_6">
    <path id="path_10" d="M 7.2 13.898952  L 279.825 13.898952  " style="fill: none"/>
   </g>
   <g id="text_3">
    <!-- $v = 0^\circ$ -->
    <g id="g_5" transform="translate(179.8625 149.65298) scale(0.14 -0.14)">
     <defs>
      <path id="CMMI12-76" d="M 2925 2389  C 2925 2791 2720 2816 2669 2816  C 2515 2816 2374 2663 2374 2535  C 2374 2459 2419 2414 2445 2389  C 2509 2331 2675 2159 2675 1827  C 2675 1558 2291 64 1523 64  C 1133 64 1056 390 1056 626  C 1056 945 1203 1392 1376 1852  C 1478 2114 1504 2178 1504 2305  C 1504 2574 1312 2816 998 2816  C 410 2816 173 1890 173 1839  C 173 1814 198 1782 243 1782  C 301 1782 307 1807 333 1897  C 486 2446 736 2689 979 2689  C 1037 2689 1146 2689 1146 2478  C 1146 2312 1075 2127 979 1884  C 672 1067 672 869 672 715  C 672 575 691 313 890 134  C 1120 -64 1440 -64 1498 -64  C 2560 -64 2925 2024 2925 2389  z " transform="scale(0.015625)"/>
      <path id="CMR17-3d" d="M 4115 2017  C 4211 2017 4307 2017 4307 2125  C 4307 2240 4198 2240 4090 2240  L 512 2240  C 403 2240 294 2240 294 2125  C 294 2017 390 2017 486 2017  L 4115 2017  z M 4090 896  C 4198 896 4307 896 4307 1011  C 4307 1119 4211 1119 4115 1119  L 486 1119  C 390 1119 294 1119 294 1011  C 294 896 403 896 512 896  L 4090 896  z " transform="scale(0.015625)"/>
      <path id="CMR17-30" d="M 2688 2025  C 2688 2416 2682 3080 2413 3591  C 2176 4039 1798 4198 1466 4198  C 1158 4198 768 4058 525 3597  C 269 3118 243 2524 243 2025  C 243 1661 250 1106 448 619  C 723 -39 1216 -128 1466 -128  C 1760 -128 2208 -7 2470 600  C 2662 1042 2688 1559 2688 2025  z M 1466 -26  C 1056 -26 813 325 723 812  C 653 1188 653 1738 653 2096  C 653 2588 653 2997 736 3387  C 858 3929 1216 4096 1466 4096  C 1728 4096 2067 3923 2189 3400  C 2272 3036 2278 2607 2278 2096  C 2278 1680 2278 1169 2202 792  C 2067 95 1690 -26 1466 -26  z " transform="scale(0.015625)"/>
      <path id="CMSY10-e" d="M 2842 1600  C 2842 2277 2272 2828 1600 2828  C 909 2828 352 2264 352 1600  C 352 930 909 372 1600 372  C 2272 372 2842 923 2842 1600  z M 1600 628  C 1043 628 608 1070 608 1600  C 608 2130 1050 2572 1600 2572  C 2131 2572 2586 2142 2586 1600  C 2586 1058 2131 628 1600 628  z " transform="scale(0.015625)"/>
     </defs>
     <use id="use_5" xlink:href="#CMMI12-76" transform="scale(0.996264)"/>
     <use id="use_6" xlink:href="#CMR17-3d" transform="translate(78.409182 0) scale(0.996264)"/>
     <use id="use_7" xlink:href="#CMR17-30" transform="translate(177.797979 0) scale(0.996264)"/>
     <use id="use_8" xlink:href="#CMSY10-e" transform="translate(223.488456 36.153639) scale(0.697382)"/>
    </g>
   </g>
   <g id="text_4">
    <!-- $P(1.00, 0.00)$ -->
    <g id="g_6" transform="translate(234.3875 133.861325) scale(0.14 -0.14)">
     <defs>
      <path id="CMMI12-50" d="M 1894 2023  L 2970 2023  C 3853 2023 4736 2673 4736 3401  C 4736 3898 4314 4352 3507 4352  L 1530 4352  C 1408 4352 1350 4352 1350 4231  C 1350 4167 1408 4167 1504 4167  C 1894 4167 1894 4116 1894 4046  C 1894 4034 1894 3995 1869 3899  L 1005 472  C 947 249 934 185 486 185  C 365 185 301 185 301 70  C 301 0 358 0 397 0  C 518 0 646 0 768 0  L 1517 0  C 1638 0 1773 0 1894 0  C 1946 0 2016 0 2016 121  C 2016 185 1958 185 1862 185  C 1478 185 1472 230 1472 293  C 1472 325 1478 369 1485 401  L 1894 2023  z M 2355 3930  C 2413 4167 2438 4167 2688 4167  L 3322 4167  C 3802 4167 4198 4013 4198 3535  C 4198 3369 4115 2827 3821 2534  C 3712 2419 3405 2176 2822 2176  L 1920 2176  L 2355 3930  z " transform="scale(0.015625)"/>
      <path id="CMR17-28" d="M 1958 -1561  C 1958 -1555 1958 -1542 1939 -1523  C 1645 -1224 858 -407 858 1581  C 858 3569 1632 4379 1946 4697  C 1946 4704 1958 4717 1958 4736  C 1958 4755 1939 4768 1914 4768  C 1843 4768 1299 4296 986 3594  C 666 2887 576 2199 576 1588  C 576 1128 621 351 1005 -471  C 1312 -1135 1837 -1600 1914 -1600  C 1946 -1600 1958 -1587 1958 -1561  z " transform="scale(0.015625)"/>
      <path id="CMR17-31" d="M 1702 4058  C 1702 4192 1696 4192 1606 4192  C 1357 3916 979 3827 621 3827  C 602 3827 570 3827 563 3808  C 557 3795 557 3782 557 3648  C 755 3648 1088 3686 1344 3839  L 1344 461  C 1344 236 1331 160 781 160  L 589 160  L 589 0  C 896 0 1216 0 1523 0  C 1830 0 2150 0 2458 0  L 2458 160  L 2266 160  C 1715 160 1702 230 1702 458  L 1702 4058  z " transform="scale(0.015625)"/>
      <path id="CMMI12-3a" d="M 1178 307  C 1178 492 1024 619 870 619  C 685 619 557 466 557 313  C 557 128 710 0 864 0  C 1050 0 1178 153 1178 307  z " transform="scale(0.015625)"/>
      <path id="CMMI12-3b" d="M 1248 -31  C 1248 343 1126 619 864 619  C 659 619 557 453 557 313  C 557 172 653 0 870 0  C 954 0 1024 26 1082 83  C 1094 96 1101 96 1107 96  C 1120 96 1120 5 1120 -27  C 1120 -240 1082 -659 710 -1080  C 640 -1157 640 -1170 640 -1183  C 640 -1216 672 -1248 704 -1248  C 755 -1248 1248 -771 1248 -31  z " transform="scale(0.015625)"/>
      <path id="CMR17-29" d="M 1683 1581  C 1683 2040 1638 2817 1254 3639  C 947 4303 422 4768 346 4768  C 326 4768 301 4761 301 4729  C 301 4717 307 4710 314 4697  C 621 4378 1402 3568 1402 1584  C 1402 -407 627 -1217 314 -1537  C 307 -1549 301 -1556 301 -1568  C 301 -1600 326 -1600 346 -1600  C 416 -1600 960 -1128 1274 -426  C 1594 281 1683 969 1683 1581  z " transform="scale(0.015625)"/>
     </defs>
     <use id="use_9" xlink:href="#CMMI12-50" transform="scale(0.996264)"/>
     <use id="use_10" xlink:href="#CMR17-28" transform="translate(76.425821 0) scale(0.996264)"/>
     <use id="use_11" xlink:href="#CMR17-31" transform="translate(111.706589 0) scale(0.996264)"/>
     <use id="use_12" xlink:href="#CMMI12-3a" transform="translate(157.397066 0) scale(0.996264)"/>
     <use id="use_13" xlink:href="#CMR17-30" transform="translate(184.494243 0) scale(0.996264)"/>
     <use id="use_14" xlink:href="#CMR17-30" transform="translate(230.18472 0) scale(0.996264)"/>
     <use id="use_15" xlink:href="#CMMI12-3b" transform="translate(275.875197 0) scale(0.996264)"/>
     <use id="use_16" xlink:href="#CMR17-30" transform="translate(319.576779 0) scale(0.996264)"/>
     <use id="use_17" xlink:href="#CMMI12-3a" transform="translate(365.267256 0) scale(0.996264)"/>
     <use id="use_18" xlink:href="#CMR17-30" transform="translate(392.364434 0) scale(0.996264)"/>
     <use id="use_19" xlink:href="#CMR17-30" transform="translate(438.054911 0) scale(0.996264)"/>
     <use id="use_20" xlink:href="#CMR17-29" transform="translate(483.745388 0) scale(0.996264)"/>
    </g>
   </g>
  </g>
 </g>
 <defs>
  <clipPath id="p465a83b982">
   <rect id="rect_0" x="7.2" y="13.898952" width="272.625" height="264.534206"/>
  </clipPath>
 </defs>
</svg>