<?xml version="1.0" encoding="utf-8" standalone="no"?>
<!DOCTYPE svg PUBLIC "-//W3C//DTD SVG 1.1//EN"
  "http://www.w3.org/Graphics/SVG/1.1/DTD/svg11.dtd">
<svg xmlns:xlink="http://www.w3.org/1999/xlink" width="288pt" height="288pt" viewBox="0 0 288 288" xmlns="http://www.w3.org/2000/svg" version="1.1">
 <metadata>
  <rdf:RDF xmlns:dc="http://purl.org/dc/elements/1.1/" xmlns:cc="http://creativecommons.org/ns#" xmlns:rdf="http://www.w3.org/1999/02/22-rdf-syntax-ns#">
   <cc:Work>
    <dc:type rdf:resource="http://purl.org/dc/dcmitype/StillImage"/>
    <dc:date>2026-04-11T16:58:37.595090</dc:date>
    <dc:format>image/svg+xml</dc:format>
    <dc:creator>
     <cc:Agent>
      <dc:title>Matplotlib v3.10.8, https://matplotlib.org/</dc:title>
     </cc:Agent>
    </dc:creator>
   </cc:Work>
  </rdf:RDF>
 </metadata>
 <defs>
  <style type="text/css">*{stroke-linejoin: round; stroke-linecap: butt}</style>
 </defs>
 <g id="figure_1">
  <g id="patch_1">
   <path d="M 0 288 
L 288 288 
L 288 0 
L 0 0 
L 0 288 
z
" style="fill: none"/>
  </g>
  <g id="axes_1">
   <g id="patch_2">
    <path d="M 19.44 268.56 
L 265.56 268.56 
L 265.56 24.227838 
L 19.44 24.227838 
L 19.44 268.56 
z
" style="fill: none"/>
   </g>
   <g id="matplotlib.axis_1">
    <g id="text_1">
     <!-- $x$ -->
     <g transform="translate(259.866081 157.312418) scale(0.1 -0.1)">
      <defs>
       <path id="CMMI12-78" d="M 3034 2606 
C 2829 2567 2752 2414 2752 2293 
C 2752 2139 2874 2088 2963 2088 
C 3155 2088 3290 2254 3290 2427 
C 3290 2695 2982 2816 2714 2816 
C 2323 2816 2106 2433 2048 2312 
C 1901 2816 1504 2816 1389 2816 
C 736 2816 390 1980 390 1839 
C 390 1814 416 1782 461 1782 
C 512 1782 525 1820 538 1846 
C 755 2555 1184 2689 1370 2689 
C 1658 2689 1715 2420 1715 2267 
C 1715 2127 1677 1980 1600 1673 
L 1382 798 
C 1286 415 1101 64 762 64 
C 730 64 570 64 435 147 
C 666 192 717 383 717 460 
C 717 588 621 664 499 664 
C 346 664 179 530 179 326 
C 179 57 480 -64 755 -64 
C 1062 -64 1280 179 1414 441 
C 1517 64 1837 -64 2074 -64 
C 2726 -64 3072 773 3072 913 
C 3072 945 3046 971 3008 971 
C 2950 971 2944 939 2925 888 
C 2752 326 2381 64 2093 64 
C 1869 64 1747 230 1747 492 
C 1747 632 1773 734 1875 1156 
L 2099 2024 
C 2195 2408 2413 2689 2707 2689 
C 2720 2689 2899 2689 3034 2606 
z
" transform="scale(0.015625)"/>
      </defs>
      <use xlink:href="#CMMI12-78" transform="scale(0.996264)"/>
     </g>
    </g>
   </g>
   <g id="matplotlib.axis_2">
    <g id="text_2">
     <!-- $y$ -->
     <g transform="translate(133.6155 22.29066) scale(0.1 -0.1)">
      <defs>
       <path id="CMMI12-79" d="M 1683 -700 
C 1510 -939 1261 -1152 947 -1152 
C 870 -1152 563 -1152 467 -889 
C 486 -895 518 -895 531 -895 
C 723 -895 851 -729 851 -582 
C 851 -435 730 -384 634 -384 
C 531 -384 307 -458 307 -759 
C 307 -1071 582 -1286 947 -1286 
C 1587 -1286 2234 -700 2413 6 
L 3040 2485 
C 3046 2517 3059 2556 3059 2594 
C 3059 2689 2982 2753 2886 2753 
C 2829 2753 2694 2727 2643 2535 
L 2170 658 
C 2138 543 2138 530 2086 460 
C 1958 281 1747 64 1440 64 
C 1082 64 1050 415 1050 588 
C 1050 952 1222 1443 1395 1903 
C 1466 2088 1504 2178 1504 2305 
C 1504 2574 1312 2816 998 2816 
C 410 2816 173 1890 173 1839 
C 173 1814 198 1782 243 1782 
C 301 1782 307 1807 333 1897 
C 486 2433 730 2689 979 2689 
C 1037 2689 1146 2689 1146 2478 
C 1146 2312 1075 2127 979 1884 
C 666 1047 666 837 666 683 
C 666 77 1101 -64 1421 -64 
C 1606 -64 1837 -6 2061 230 
L 2067 224 
C 1971 -147 1907 -392 1683 -700 
z
" transform="scale(0.015625)"/>
      </defs>
      <use xlink:href="#CMMI12-79" transform="scale(0.996264)"/>
     </g>
    </g>
   </g>
   <g id="line2d_1">
    <defs>
     <path id="m88c326a619" d="M 3 0 
L -3 -3 
L -3 3 
z
" style="stroke: #000000; stroke-linejoin: miter"/>
    </defs>
    <g>
     <use xlink:href="#m88c326a619" x="265.56" y="146.393919" style="stroke: #000000; stroke-linejoin: miter"/>
    </g>
   </g>
   <g id="line2d_2">
    <defs>
     <path id="m003cd75f41" d="M 0 -3 
L -3 3 
L 3 3 
z
" style="stroke: #000000; stroke-linejoin: miter"/>
    </defs>
    <g>
     <use xlink:href="#m003cd75f41" x="142.5" y="24.227838" style="stroke: #000000; stroke-linejoin: miter"/>
    </g>
   </g>
   <g id="line2d_3">
    <path d="M 160.959 146.393919 
L 160.846309 144.372141 
L 160.509612 142.375048 
L 159.95302 140.427025 
L 159.183329 138.551857 
L 158.209936 136.772439 
L 157.044727 135.110499 
L 155.701929 133.586327 
L 154.197937 132.218535 
L 152.551115 131.023822 
L 150.78157 130.016777 
L 148.910908 129.209694 
L 146.961969 128.612428 
L 144.958551 128.232272 
L 142.925114 128.073867 
L 140.886486 128.139148 
L 138.867559 128.427317 
L 136.892984 128.934857 
L 134.98687 129.655569 
L 133.17249 130.580654 
L 131.471998 131.698817 
L 129.906156 132.996405 
L 128.494084 134.457576 
L 127.253022 136.064487 
L 126.198123 137.79752 
L 125.342269 139.635513 
L 124.695908 141.556026 
L 124.266933 143.535609 
L 124.060581 145.550091 
L 124.079372 147.574877 
L 124.323077 149.585243 
L 124.788719 151.556644 
L 125.470614 153.465008 
L 126.360436 155.287035 
L 127.447319 157.000478 
L 128.717994 158.584417 
L 130.156946 160.019511 
L 131.746604 161.288239 
L 133.46756 162.375109 
L 135.298801 163.26685 
L 137.217968 163.952575 
L 139.201628 164.423912 
L 141.22556 164.675104 
L 143.265053 164.703085 
L 145.295205 164.507514 
L 147.291228 164.090779 
L 149.228751 163.457966 
L 151.084116 162.616804 
L 152.83467 161.577563 
L 154.45904 160.352931 
L 155.937391 158.957862 
L 157.251673 157.409388 
L 158.385839 155.726417 
L 159.326042 153.929498 
L 160.0608 152.04057 
L 160.581143 150.082697 
L 160.880718 148.079784 
L 160.959 146.393919 
L 160.959 146.393919 
" clip-path="url(#p4824af0218)" style="fill: none; stroke: #dc5e8b; stroke-linecap: square"/>
   </g>
   <g id="line2d_4">
    <path d="M 142.5 146.393919 
L 204.03 146.393919 
" clip-path="url(#p4824af0218)" style="fill: none; stroke: #dc5e8b; stroke-width: 2.5; stroke-linecap: square"/>
   </g>
   <g id="line2d_5">
    <path d="M 204.03 146.393919 
L 203.913981 142.644605 
L 203.566362 138.909431 
L 202.988453 135.202481 
L 202.182434 131.537736 
L 201.151345 127.929015 
L 199.899074 124.389928 
L 198.430343 120.933821 
L 196.750691 117.573728 
L 194.866453 114.322319 
L 192.784734 111.191856 
L 190.513384 108.194146 
L 188.06097 105.340491 
L 185.436739 102.641655 
L 182.650588 100.107814 
L 179.713023 97.748525 
L 176.635123 95.572683 
L 173.428496 93.588496 
L 170.105232 91.803444 
L 166.677866 90.224261 
L 163.159321 88.856901 
L 159.562868 87.706521 
L 155.902068 86.777458 
L 152.190728 86.073218 
L 148.442842 85.596455 
L 144.672545 85.348967 
L 140.894055 85.331688 
L 137.121621 85.544683 
L 133.36947 85.987148 
L 129.651751 86.657415 
L 125.982485 87.552957 
L 122.375508 88.670396 
L 118.844424 90.005518 
L 115.402548 91.553288 
L 112.06286 93.30787 
L 108.837955 95.262646 
L 105.739993 97.410245 
L 102.780659 99.742568 
L 99.971111 102.25082 
L 97.321946 104.925541 
L 94.843153 107.756644 
L 92.544081 110.733455 
L 90.433399 113.844745 
L 88.519067 117.078783 
L 86.808304 120.423372 
L 85.307563 123.8659 
L 84.022501 127.393384 
L 82.957966 130.992521 
L 82.117972 134.649739 
L 81.505687 138.351246 
L 81.123419 142.083083 
L 80.972611 145.831176 
L 81.053831 149.581392 
L 81.366772 153.319588 
L 81.910256 157.031665 
L 82.682231 160.703627 
L 83.679787 164.321624 
L 84.899161 167.872014 
L 86.335757 171.341407 
L 87.984155 174.71672 
L 89.838139 177.985224 
L 91.890719 181.134593 
L 94.134153 184.15295 
L 96.559981 187.028912 
L 99.159055 189.751635 
L 101.921574 192.31085 
L 104.837119 194.696905 
L 107.894696 196.900804 
L 111.082774 198.914235 
L 114.389331 200.729605 
L 117.801897 202.340067 
L 121.307602 203.739549 
L 124.893227 204.922773 
L 128.54525 205.885277 
L 132.249898 206.623431 
L 135.9932 207.134451 
L 139.76104 207.416411 
L 143.53921 207.468247 
L 147.31346 207.289763 
L 151.069558 206.881633 
L 154.793339 206.245396 
L 158.470761 205.383451 
L 162.087954 204.299048 
L 165.631279 202.996277 
L 169.087372 201.480051 
L 172.443201 199.756089 
L 175.68611 197.83089 
L 178.80387 195.711715 
L 181.784723 193.406557 
L 184.617428 190.924107 
L 187.291303 188.273729 
L 189.796264 185.465416 
L 192.122864 182.509759 
L 194.26233 179.417904 
L 196.206593 176.201512 
L 197.948321 172.872711 
L 199.480947 169.444055 
L 200.798689 165.928474 
L 201.896579 162.339225 
L 202.770477 158.689845 
L 203.417087 154.994095 
L 203.833971 151.265912 
L 204.019555 147.519357 
L 204.03 146.393919 
L 204.03 146.393919 
" clip-path="url(#p4824af0218)" style="fill: none; stroke: #0072b2; stroke-width: 2.5; stroke-linecap: square"/>
   </g>
   <g id="LineCollection_1">
    <path d="M 204.03 146.393919 
L 204.03 146.393919 
" clip-path="url(#p4824af0218)" style="fill: none; stroke-dasharray: 9.25,4; stroke-dashoffset: 0; stroke: #808080; stroke-width: 2.5"/>
   </g>
   <g id="LineCollection_2">
    <path d="M 142.5 146.393919 
L 204.03 146.393919 
" clip-path="url(#p4824af0218)" style="fill: none; stroke-dasharray: 9.25,4; stroke-dashoffset: 0; stroke: #808080; stroke-width: 2.5"/>
   </g>
   <g id="line2d_6">
    <defs>
     <path id="mb5356fbd7f" d="M 0 5 
C 1.326016 5 2.597899 4.473168 3.535534 3.535534 
C 4.473168 2.597899 5 1.326016 5 0 
C 5 -1.326016 4.473168 -2.597899 3.535534 -3.535534 
C 2.597899 -4.473168 1.326016 -5 0 -5 
C -1.326016 -5 -2.597899 -4.473168 -3.535534 -3.535534 
C -4.473168 -2.597899 -5 -1.326016 -5 0 
C -5 1.326016 -4.473168 2.597899 -3.535534 3.535534 
C -2.597899 4.473168 -1.326016 5 0 5 
z
" style="stroke: #000000; stroke-opacity: 0.8"/>
    </defs>
    <g clip-path="url(#p4824af0218)">
     <use xlink:href="#mb5356fbd7f" x="204.03" y="146.393919" style="fill-opacity: 0.8; stroke: #000000; stroke-opacity: 0.8"/>
    </g>
   </g>
   <g id="patch_3">
    <path d="M 142.5 268.56 
L 142.5 24.227838 
" style="fill: none; stroke: #000000; stroke-width: 0.8; stroke-linejoin: miter; stroke-linecap: square"/>
   </g>
   <g id="patch_4">
    <path d="M 265.56 268.56 
L 265.56 24.227838 
" style="fill: none"/>
   </g>
   <g id="patch_5">
    <path d="M 19.44 146.393919 
L 265.56 146.393919 
" style="fill: none; stroke: #000000; stroke-width: 0.8; stroke-linejoin: miter; stroke-linecap: square"/>
   </g>
   <g id="patch_6">
    <path d="M 19.44 24.227838 
L 265.56 24.227838 
" style="fill: none"/>
   </g>
   <g id="text_3">
    <!-- $v = 360^\circ$ -->
    <g transform="translate(170.8038 148.884579) scale(0.1 -0.1)">
     <defs>
      <path id="CMMI12-76" d="M 2925 2389 
C 2925 2791 2720 2816 2669 2816 
C 2515 2816 2374 2663 2374 2535 
C 2374 2459 2419 2414 2445 2389 
C 2509 2331 2675 2159 2675 1827 
C 2675 1558 2291 64 1523 64 
C 1133 64 1056 390 1056 626 
C 1056 945 1203 1392 1376 1852 
C 1478 2114 1504 2178 1504 2305 
C 1504 2574 1312 2816 998 2816 
C 410 2816 173 1890 173 1839 
C 173 1814 198 1782 243 1782 
C 301 1782 307 1807 333 1897 
C 486 2446 736 2689 979 2689 
C 1037 2689 1146 2689 1146 2478 
C 1146 2312 1075 2127 979 1884 
C 672 1067 672 869 672 715 
C 672 575 691 313 890 134 
C 1120 -64 1440 -64 1498 -64 
C 2560 -64 2925 2024 2925 2389 
z
" transform="scale(0.015625)"/>
      <path id="CMR17-3d" d="M 4115 2017 
C 4211 2017 4307 2017 4307 2125 
C 4307 2240 4198 2240 4090 2240 
L 512 2240 
C 403 2240 294 2240 294 2125 
C 294 2017 390 2017 486 2017 
L 4115 2017 
z
M 4090 896 
C 4198 896 4307 896 4307 1011 
C 4307 1119 4211 1119 4115 1119 
L 486 1119 
C 390 1119 294 1119 294 1011 
C 294 896 403 896 512 896 
L 4090 896 
z
" transform="scale(0.015625)"/>
      <path id="CMR17-33" d="M 1414 2157 
C 1984 2157 2234 1662 2234 1090 
C 2234 320 1824 25 1453 25 
C 1114 25 563 194 390 693 
C 422 680 454 680 486 680 
C 640 680 755 782 755 948 
C 755 1133 614 1216 486 1216 
C 378 1216 211 1165 211 926 
C 211 335 787 -128 1466 -128 
C 2176 -128 2720 430 2720 1085 
C 2720 1707 2208 2157 1600 2227 
C 2086 2328 2554 2756 2554 3329 
C 2554 3820 2048 4179 1472 4179 
C 890 4179 378 3829 378 3329 
C 378 3110 544 3072 627 3072 
C 762 3072 877 3155 877 3321 
C 877 3486 762 3569 627 3569 
C 602 3569 570 3569 544 3557 
C 730 3959 1235 4032 1459 4032 
C 1683 4032 2106 3925 2106 3320 
C 2106 3143 2080 2828 1862 2550 
C 1670 2304 1453 2304 1242 2284 
C 1210 2284 1062 2269 1037 2269 
C 992 2263 966 2257 966 2208 
C 966 2163 973 2157 1101 2157 
L 1414 2157 
z
" transform="scale(0.015625)"/>
      <path id="CMR17-36" d="M 678 2176 
C 678 3690 1395 4032 1811 4032 
C 1946 4032 2272 4009 2400 3776 
C 2298 3776 2106 3776 2106 3553 
C 2106 3381 2246 3323 2336 3323 
C 2394 3323 2566 3348 2566 3560 
C 2566 3954 2246 4179 1805 4179 
C 1043 4179 243 3390 243 1984 
C 243 253 966 -128 1478 -128 
C 2099 -128 2688 427 2688 1283 
C 2688 2081 2170 2662 1517 2662 
C 1126 2662 838 2407 678 1960 
L 678 2176 
z
M 1478 25 
C 691 25 691 1200 691 1436 
C 691 1896 909 2560 1504 2560 
C 1613 2560 1926 2560 2138 2120 
C 2253 1870 2253 1609 2253 1289 
C 2253 944 2253 690 2118 434 
C 1978 171 1773 25 1478 25 
z
" transform="scale(0.015625)"/>
      <path id="CMR17-30" d="M 2688 2025 
C 2688 2416 2682 3080 2413 3591 
C 2176 4039 1798 4198 1466 4198 
C 1158 4198 768 4058 525 3597 
C 269 3118 243 2524 243 2025 
C 243 1661 250 1106 448 619 
C 723 -39 1216 -128 1466 -128 
C 1760 -128 2208 -7 2470 600 
C 2662 1042 2688 1559 2688 2025 
z
M 1466 -26 
C 1056 -26 813 325 723 812 
C 653 1188 653 1738 653 2096 
C 653 2588 653 2997 736 3387 
C 858 3929 1216 4096 1466 4096 
C 1728 4096 2067 3923 2189 3400 
C 2272 3036 2278 2607 2278 2096 
C 2278 1680 2278 1169 2202 792 
C 2067 95 1690 -26 1466 -26 
z
" transform="scale(0.015625)"/>
      <path id="CMSY10-e" d="M 2842 1600 
C 2842 2277 2272 2828 1600 2828 
C 909 2828 352 2264 352 1600 
C 352 930 909 372 1600 372 
C 2272 372 2842 923 2842 1600 
z
M 1600 628 
C 1043 628 608 1070 608 1600 
C 608 2130 1050 2572 1600 2572 
C 2131 2572 2586 2142 2586 1600 
C 2586 1058 2131 628 1600 628 
z
" transform="scale(0.015625)"/>
     </defs>
     <use xlink:href="#CMMI12-76" transform="scale(0.996264)"/>
     <use xlink:href="#CMR17-3d" transform="translate(78.409182 0) scale(0.996264)"/>
     <use xlink:href="#CMR17-33" transform="translate(177.797979 0) scale(0.996264)"/>
     <use xlink:href="#CMR17-36" transform="translate(223.488456 0) scale(0.996264)"/>
     <use xlink:href="#CMR17-30" transform="translate(269.178933 0) scale(0.996264)"/>
     <use xlink:href="#CMSY10-e" transform="translate(314.869411 36.153639) scale(0.697382)"/>
    </g>
   </g>
   <g id="text_4">
    <!-- $P(1.00, -0.00)$ -->
    <g transform="translate(207.7218 134.129973) scale(0.1 -0.1)">
     <defs>
      <path id="CMMI12-50" d="M 1894 2023 
L 2970 2023 
C 3853 2023 4736 2673 4736 3401 
C 4736 3898 4314 4352 3507 4352 
L 1530 4352 
C 1408 4352 1350 4352 1350 4231 
C 1350 4167 1408 4167 1504 4167 
C 1894 4167 1894 4116 1894 4046 
C 1894 4034 1894 3995 1869 3899 
L 1005 472 
C 947 249 934 185 486 185 
C 365 185 301 185 301 70 
C 301 0 358 0 397 0 
C 518 0 646 0 768 0 
L 1517 0 
C 1638 0 1773 0 1894 0 
C 1946 0 2016 0 2016 121 
C 2016 185 1958 185 1862 185 
C 1478 185 1472 230 1472 293 
C 1472 325 1478 369 1485 401 
L 1894 2023 
z
M 2355 3930 
C 2413 4167 2438 4167 2688 4167 
L 3322 4167 
C 3802 4167 4198 4013 4198 3535 
C 4198 3369 4115 2827 3821 2534 
C 3712 2419 3405 2176 2822 2176 
L 1920 2176 
L 2355 3930 
z
" transform="scale(0.015625)"/>
      <path id="CMR17-28" d="M 1958 -1561 
C 1958 -1555 1958 -1542 1939 -1523 
C 1645 -1224 858 -407 858 1581 
C 858 3569 1632 4379 1946 4697 
C 1946 4704 1958 4717 1958 4736 
C 1958 4755 1939 4768 1914 4768 
C 1843 4768 1299 4296 986 3594 
C 666 2887 576 2199 576 1588 
C 576 1128 621 351 1005 -471 
C 1312 -1135 1837 -1600 1914 -1600 
C 1946 -1600 1958 -1587 1958 -1561 
z
" transform="scale(0.015625)"/>
      <path id="CMR17-31" d="M 1702 4058 
C 1702 4192 1696 4192 1606 4192 
C 1357 3916 979 3827 621 3827 
C 602 3827 570 3827 563 3808 
C 557 3795 557 3782 557 3648 
C 755 3648 1088 3686 1344 3839 
L 1344 461 
C 1344 236 1331 160 781 160 
L 589 160 
L 589 0 
C 896 0 1216 0 1523 0 
C 1830 0 2150 0 2458 0 
L 2458 160 
L 2266 160 
C 1715 160 1702 230 1702 458 
L 1702 4058 
z
" transform="scale(0.015625)"/>
      <path id="CMMI12-3a" d="M 1178 307 
C 1178 492 1024 619 870 619 
C 685 619 557 466 557 313 
C 557 128 710 0 864 0 
C 1050 0 1178 153 1178 307 
z
" transform="scale(0.015625)"/>
      <path id="CMMI12-3b" d="M 1248 -31 
C 1248 343 1126 619 864 619 
C 659 619 557 453 557 313 
C 557 172 653 0 870 0 
C 954 0 1024 26 1082 83 
C 1094 96 1101 96 1107 96 
C 1120 96 1120 5 1120 -27 
C 1120 -240 1082 -659 710 -1080 
C 640 -1157 640 -1170 640 -1183 
C 640 -1216 672 -1248 704 -1248 
C 755 -1248 1248 -771 1248 -31 
z
" transform="scale(0.015625)"/>
      <path id="CMSY10-0" d="M 4218 1472 
C 4326 1472 4442 1472 4442 1600 
C 4442 1728 4326 1728 4218 1728 
L 755 1728 
C 646 1728 531 1728 531 1600 
C 531 1472 646 1472 755 1472 
L 4218 1472 
z
" transform="scale(0.015625)"/>
      <path id="CMR17-29" d="M 1683 1581 
C 1683 2040 1638 2817 1254 3639 
C 947 4303 422 4768 346 4768 
C 326 4768 301 4761 301 4729 
C 301 4717 307 4710 314 4697 
C 621 4378 1402 3568 1402 1584 
C 1402 -407 627 -1217 314 -1537 
C 307 -1549 301 -1556 301 -1568 
C 301 -1600 326 -1600 346 -1600 
C 416 -1600 960 -1128 1274 -426 
C 1594 281 1683 969 1683 1581 
z
" transform="scale(0.015625)"/>
     </defs>
     <use xlink:href="#CMMI12-50" transform="scale(0.996264)"/>
     <use xlink:href="#CMR17-28" transform="translate(76.425821 0) scale(0.996264)"/>
     <use xlink:href="#CMR17-31" transform="translate(111.706589 0) scale(0.996264)"/>
     <use xlink:href="#CMMI12-3a" transform="translate(157.397066 0) scale(0.996264)"/>
     <use xlink:href="#CMR17-30" transform="translate(184.494243 0) scale(0.996264)"/>
     <use xlink:href="#CMR17-30" transform="translate(230.18472 0) scale(0.996264)"/>
     <use xlink:href="#CMMI12-3b" transform="translate(275.875197 0) scale(0.996264)"/>
     <use xlink:href="#CMSY10-0" transform="translate(319.576779 0) scale(0.996264)"/>
     <use xlink:href="#CMR17-30" transform="translate(397.064247 0) scale(0.996264)"/>
     <use xlink:href="#CMMI12-3a" transform="translate(442.754724 0) scale(0.996264)"/>
     <use xlink:href="#CMR17-30" transform="translate(469.851901 0) scale(0.996264)"/>
     <use xlink:href="#CMR17-30" transform="translate(515.542378 0) scale(0.996264)"/>
     <use xlink:href="#CMR17-29" transform="translate(561.232855 0) scale(0.996264)"/>
    </g>
   </g>
  </g>
 </g>
 <defs>
  <clipPath id="p4824af0218">
   <rect x="19.44" y="24.227838" width="246.12" height="244.332162"/>
  </clipPath>
 </defs>
</svg>
