<?xml version="1.0" encoding="utf-8" standalone="no"?>
<!DOCTYPE svg PUBLIC "-//W3C//DTD SVG 1.1//EN"
  "http://www.w3.org/Graphics/SVG/1.1/DTD/svg11.dtd">
<svg xmlns:xlink="http://www.w3.org/1999/xlink" width="288pt" height="288pt" viewBox="0 0 288 288" xmlns="http://www.w3.org/2000/svg" version="1.1">
 <metadata>
  <rdf:RDF xmlns:dc="http://purl.org/dc/elements/1.1/" xmlns:cc="http://creativecommons.org/ns#" xmlns:rdf="http://www.w3.org/1999/02/22-rdf-syntax-ns#">
   <cc:Work>
    <dc:type rdf:resource="http://purl.org/dc/dcmitype/StillImage"/>
    <dc:date>2026-02-18T22:59:42.375007</dc:date>
    <dc:format>image/svg+xml</dc:format>
    <dc:creator>
     <cc:Agent>
      <dc:title>Matplotlib v3.9.1, https://matplotlib.org/</dc:title>
     </cc:Agent>
    </dc:creator>
   </cc:Work>
  </rdf:RDF>
 </metadata>
 <defs>
  <style type="text/css">*{stroke-linejoin: round; stroke-linecap: butt}</style>
 </defs>
 <g id="figure_1">
  <g id="patch_1">
   <path d="M 0 288 
L 288 288 
L 288 0 
L 0 0 
L 0 288 
z
" style="fill: none"/>
  </g>
  <g id="axes_1">
   <g id="patch_2">
    <path d="M 10.8 277.2 
L 231.701847 277.2 
L 231.701847 17.358952 
L 10.8 17.358952 
L 10.8 277.2 
z
" style="fill: none"/>
   </g>
   <g id="matplotlib.axis_1">
    <g id="text_1">
     <!-- $x$ -->
     <g transform="translate(223.941079 160.965353) scale(0.14 -0.14)">
      <defs>
       <path id="CMMI12-78" d="M 3034 2606 
C 2829 2567 2752 2414 2752 2293 
C 2752 2139 2874 2088 2963 2088 
C 3155 2088 3290 2254 3290 2427 
C 3290 2695 2982 2816 2714 2816 
C 2323 2816 2106 2433 2048 2312 
C 1901 2816 1504 2816 1389 2816 
C 736 2816 390 1980 390 1839 
C 390 1814 416 1782 461 1782 
C 512 1782 525 1820 538 1846 
C 755 2555 1184 2689 1370 2689 
C 1658 2689 1715 2420 1715 2267 
C 1715 2127 1677 1980 1600 1673 
L 1382 798 
C 1286 415 1101 64 762 64 
C 730 64 570 64 435 147 
C 666 192 717 383 717 460 
C 717 588 621 664 499 664 
C 346 664 179 530 179 326 
C 179 57 480 -64 755 -64 
C 1062 -64 1280 179 1414 441 
C 1517 64 1837 -64 2074 -64 
C 2726 -64 3072 773 3072 913 
C 3072 945 3046 971 3008 971 
C 2950 971 2944 939 2925 888 
C 2752 326 2381 64 2093 64 
C 1869 64 1747 230 1747 492 
C 1747 632 1773 734 1875 1156 
L 2099 2024 
C 2195 2408 2413 2689 2707 2689 
C 2720 2689 2899 2689 3034 2606 
z
" transform="scale(0.015625)"/>
      </defs>
      <use xlink:href="#CMMI12-78" transform="scale(0.996264)"/>
     </g>
    </g>
   </g>
   <g id="matplotlib.axis_2">
    <g id="text_2">
     <!-- $y$ -->
     <g transform="translate(110.59195 14.646924) scale(0.14 -0.14)">
      <defs>
       <path id="CMMI12-79" d="M 1683 -700 
C 1510 -939 1261 -1152 947 -1152 
C 870 -1152 563 -1152 467 -889 
C 486 -895 518 -895 531 -895 
C 723 -895 851 -729 851 -582 
C 851 -435 730 -384 634 -384 
C 531 -384 307 -458 307 -759 
C 307 -1071 582 -1286 947 -1286 
C 1587 -1286 2234 -700 2413 6 
L 3040 2485 
C 3046 2517 3059 2556 3059 2594 
C 3059 2689 2982 2753 2886 2753 
C 2829 2753 2694 2727 2643 2535 
L 2170 658 
C 2138 543 2138 530 2086 460 
C 1958 281 1747 64 1440 64 
C 1082 64 1050 415 1050 588 
C 1050 952 1222 1443 1395 1903 
C 1466 2088 1504 2178 1504 2305 
C 1504 2574 1312 2816 998 2816 
C 410 2816 173 1890 173 1839 
C 173 1814 198 1782 243 1782 
C 301 1782 307 1807 333 1897 
C 486 2433 730 2689 979 2689 
C 1037 2689 1146 2689 1146 2478 
C 1146 2312 1075 2127 979 1884 
C 666 1047 666 837 666 683 
C 666 77 1101 -64 1421 -64 
C 1606 -64 1837 -6 2061 230 
L 2067 224 
C 1971 -147 1907 -392 1683 -700 
z
" transform="scale(0.015625)"/>
      </defs>
      <use xlink:href="#CMMI12-79" transform="scale(0.996264)"/>
     </g>
    </g>
   </g>
   <g id="line2d_1">
    <defs>
     <path id="ma128bed8e3" d="M 3 0 
L -3 -3 
L -3 3 
z
" style="stroke: #000000; stroke-linejoin: miter"/>
    </defs>
    <g>
     <use xlink:href="#ma128bed8e3" x="231.701847" y="147.279476" style="stroke: #000000; stroke-linejoin: miter"/>
    </g>
   </g>
   <g id="line2d_2">
    <defs>
     <path id="m83db97256c" d="M 0 -3 
L -3 3 
L 3 3 
z
" style="stroke: #000000; stroke-linejoin: miter"/>
    </defs>
    <g>
     <use xlink:href="#m83db97256c" x="121.250924" y="17.358952" style="stroke: #000000; stroke-linejoin: miter"/>
    </g>
   </g>
   <g id="line2d_3">
    <path d="M 143.341108 147.279476 
L 143.23453 144.730107 
L 142.915824 142.205338 
L 142.388065 139.72953 
L 141.656347 137.326575 
L 140.727728 135.019659 
L 139.611171 132.831043 
L 138.317449 130.781845 
L 136.859046 128.891839 
L 135.250035 127.179262 
L 133.50594 125.660639 
L 131.763119 124.426139 
L 129.931137 123.385474 
L 128.025531 122.547472 
L 126.062465 121.91924 
L 124.058589 121.506105 
L 122.030899 121.311574 
L 119.996594 121.337294 
L 117.972928 121.583049 
L 115.977064 122.046754 
L 114.025932 122.724476 
L 112.13608 123.610466 
L 110.323538 124.69721 
L 108.603679 125.975491 
L 106.887738 127.53786 
L 105.310394 129.290724 
L 103.886866 131.217168 
L 102.630889 133.298604 
L 101.554585 135.514945 
L 100.668337 137.844807 
L 99.980699 140.265708 
L 99.498305 142.754287 
L 99.225809 145.286531 
L 99.165843 147.838006 
L 99.318983 150.384092 
L 99.683753 152.90022 
L 100.256632 155.362111 
L 101.032093 157.74601 
L 102.002653 160.028914 
L 103.158947 162.188793 
L 104.489817 164.204807 
L 105.98242 166.057502 
L 107.622356 167.729001 
L 109.393798 169.203176 
L 111.158775 170.393325 
L 113.009352 171.387429 
L 114.929831 172.177056 
L 116.903923 172.755509 
L 118.914886 173.117881 
L 120.945662 173.2611 
L 122.979027 173.18395 
L 124.997735 172.887085 
L 126.984664 172.373023 
L 128.922961 171.646126 
L 130.796185 170.712557 
L 132.58845 169.580236 
L 134.284553 168.258766 
L 135.971546 166.653371 
L 137.516494 164.86103 
L 138.90449 162.899039 
L 140.12214 160.786328 
L 141.157695 158.543285 
L 142.001162 156.191553 
L 142.644403 153.753826 
L 143.081209 151.253625 
L 143.307368 148.715076 
L 143.341108 147.279476 
L 143.341108 147.279476 
" clip-path="url(#p66016d5074)" style="fill: none; stroke: #dc5e8b; stroke-linecap: square"/>
   </g>
   <g id="line2d_4">
    <path d="M 121.250924 147.279476 
L 194.884873 147.279476 
" clip-path="url(#p66016d5074)" style="fill: none; stroke: #dc5e8b; stroke-width: 2.5; stroke-linecap: square"/>
   </g>
   <g id="line2d_5">
    <path d="M 194.884873 147.279476 
L 194.772404 142.494144 
L 194.435342 137.723431 
L 193.874716 132.981909 
L 193.092239 128.284064 
L 192.090301 123.644245 
L 190.871963 119.076628 
L 189.440947 114.595165 
L 187.801623 110.213545 
L 185.959 105.945155 
L 183.918708 101.803033 
L 181.686977 97.799832 
L 179.270626 93.947782 
L 176.677037 90.25865 
L 173.914132 86.743705 
L 170.990352 83.413684 
L 167.914627 80.278761 
L 164.696354 77.348512 
L 161.345364 74.631887 
L 158.263556 72.403174 
L 155.092407 70.355197 
L 151.839572 68.492899 
L 148.512901 66.820777 
L 145.120426 65.342866 
L 141.670335 64.062733 
L 138.170955 62.983468 
L 134.630734 62.107677 
L 131.058216 61.437474 
L 127.462026 60.974476 
L 123.850843 60.719801 
L 120.233385 60.674064 
L 116.618383 60.837375 
L 113.014562 61.209339 
L 109.430623 61.78906 
L 105.875216 62.575137 
L 102.356922 63.565673 
L 98.884235 64.758278 
L 95.465536 66.150072 
L 92.109078 67.737697 
L 88.822963 69.517319 
L 85.615122 71.484643 
L 82.493299 73.634921 
L 79.465029 75.962962 
L 76.179143 78.787478 
L 73.030942 81.821223 
L 70.030043 85.054929 
L 67.185614 88.47872 
L 64.506343 92.082135 
L 62.000416 95.854167 
L 59.675488 99.783293 
L 57.53866 103.85751 
L 55.59646 108.064373 
L 53.854822 112.39103 
L 52.319066 116.824265 
L 50.993882 121.350534 
L 49.88332 125.956011 
L 48.990772 130.626626 
L 48.318964 135.348113 
L 47.869948 140.106048 
L 47.645097 144.885896 
L 47.645097 149.673056 
L 47.869948 154.452904 
L 48.318964 159.210839 
L 48.990772 163.932326 
L 49.88332 168.602942 
L 50.993882 173.208419 
L 52.319066 177.734688 
L 53.854822 182.167922 
L 55.59646 186.494579 
L 57.53866 190.701442 
L 59.675488 194.77566 
L 62.000416 198.704786 
L 64.506343 202.476818 
L 67.185614 206.080233 
L 70.030043 209.504023 
L 73.030942 212.73773 
L 76.179143 215.771475 
L 79.465029 218.59599 
L 82.878563 221.202648 
L 86.011555 223.330332 
L 89.229608 225.274444 
L 92.524953 227.030292 
L 95.889638 228.593637 
L 99.315539 229.960707 
L 102.794388 231.1282 
L 106.317787 232.0933 
L 109.877232 232.853676 
L 113.464131 233.407494 
L 117.069825 233.753415 
L 120.685612 233.890606 
L 124.302763 233.818735 
L 127.912548 233.537976 
L 131.506253 233.049006 
L 135.075203 232.353006 
L 138.610785 231.451655 
L 142.104463 230.347129 
L 145.547806 229.042095 
L 148.9325 227.539703 
L 152.250377 225.843578 
L 155.493427 223.957816 
L 158.653822 221.886967 
L 161.723935 219.636031 
L 164.696354 217.210441 
L 167.914627 214.280191 
L 170.990352 211.145268 
L 173.914132 207.815248 
L 176.677037 204.300303 
L 179.270626 200.61117 
L 181.686977 196.75912 
L 183.918708 192.755919 
L 185.959 188.613797 
L 187.801623 184.345407 
L 189.440947 179.963788 
L 190.871963 175.482325 
L 192.090301 170.914707 
L 193.092239 166.274889 
L 193.874716 161.577043 
L 194.435342 156.835522 
L 194.772404 152.064808 
L 194.884873 147.279476 
L 194.884873 147.279476 
" clip-path="url(#p66016d5074)" style="fill: none; stroke: #0072b2; stroke-width: 2.5; stroke-linecap: square"/>
   </g>
   <g id="LineCollection_1">
    <path d="M 194.884873 147.279476 
L 194.884873 147.279476 
" clip-path="url(#p66016d5074)" style="fill: none; stroke-dasharray: 9.25,4; stroke-dashoffset: 0; stroke: #808080; stroke-width: 2.5"/>
   </g>
   <g id="LineCollection_2">
    <path d="M 121.250924 147.279476 
L 194.884873 147.279476 
" clip-path="url(#p66016d5074)" style="fill: none; stroke-dasharray: 9.25,4; stroke-dashoffset: 0; stroke: #808080; stroke-width: 2.5"/>
   </g>
   <g id="line2d_6">
    <defs>
     <path id="m75667b96ba" d="M 0 5 
C 1.326016 5 2.597899 4.473168 3.535534 3.535534 
C 4.473168 2.597899 5 1.326016 5 0 
C 5 -1.326016 4.473168 -2.597899 3.535534 -3.535534 
C 2.597899 -4.473168 1.326016 -5 0 -5 
C -1.326016 -5 -2.597899 -4.473168 -3.535534 -3.535534 
C -4.473168 -2.597899 -5 -1.326016 -5 0 
C -5 1.326016 -4.473168 2.597899 -3.535534 3.535534 
C -2.597899 4.473168 -1.326016 5 0 5 
z
" style="stroke: #000000; stroke-opacity: 0.8"/>
    </defs>
    <g clip-path="url(#p66016d5074)">
     <use xlink:href="#m75667b96ba" x="194.884873" y="147.279476" style="fill-opacity: 0.8; stroke: #000000; stroke-opacity: 0.8"/>
    </g>
   </g>
   <g id="patch_3">
    <path d="M 121.250924 277.2 
L 121.250924 17.358952 
" style="fill: none; stroke: #000000; stroke-width: 0.8; stroke-linejoin: miter; stroke-linecap: square"/>
   </g>
   <g id="patch_4">
    <path d="M 231.701847 277.2 
L 231.701847 17.358952 
" style="fill: none"/>
   </g>
   <g id="patch_5">
    <path d="M 10.8 147.279476 
L 231.701847 147.279476 
" style="fill: none; stroke: #000000; stroke-width: 0.8; stroke-linejoin: miter; stroke-linecap: square"/>
   </g>
   <g id="patch_6">
    <path d="M 10.8 17.358952 
L 231.701847 17.358952 
" style="fill: none"/>
   </g>
   <g id="text_3">
    <!-- $v = 360^\circ$ -->
    <g transform="translate(154.018031 150.7664) scale(0.14 -0.14)">
     <defs>
      <path id="CMMI12-76" d="M 2925 2389 
C 2925 2791 2720 2816 2669 2816 
C 2515 2816 2374 2663 2374 2535 
C 2374 2459 2419 2414 2445 2389 
C 2509 2331 2675 2159 2675 1827 
C 2675 1558 2291 64 1523 64 
C 1133 64 1056 390 1056 626 
C 1056 945 1203 1392 1376 1852 
C 1478 2114 1504 2178 1504 2305 
C 1504 2574 1312 2816 998 2816 
C 410 2816 173 1890 173 1839 
C 173 1814 198 1782 243 1782 
C 301 1782 307 1807 333 1897 
C 486 2446 736 2689 979 2689 
C 1037 2689 1146 2689 1146 2478 
C 1146 2312 1075 2127 979 1884 
C 672 1067 672 869 672 715 
C 672 575 691 313 890 134 
C 1120 -64 1440 -64 1498 -64 
C 2560 -64 2925 2024 2925 2389 
z
" transform="scale(0.015625)"/>
      <path id="CMR17-3d" d="M 4115 2017 
C 4211 2017 4307 2017 4307 2125 
C 4307 2240 4198 2240 4090 2240 
L 512 2240 
C 403 2240 294 2240 294 2125 
C 294 2017 390 2017 486 2017 
L 4115 2017 
z
M 4090 896 
C 4198 896 4307 896 4307 1011 
C 4307 1119 4211 1119 4115 1119 
L 486 1119 
C 390 1119 294 1119 294 1011 
C 294 896 403 896 512 896 
L 4090 896 
z
" transform="scale(0.015625)"/>
      <path id="CMR17-33" d="M 1414 2157 
C 1984 2157 2234 1662 2234 1090 
C 2234 320 1824 25 1453 25 
C 1114 25 563 194 390 693 
C 422 680 454 680 486 680 
C 640 680 755 782 755 948 
C 755 1133 614 1216 486 1216 
C 378 1216 211 1165 211 926 
C 211 335 787 -128 1466 -128 
C 2176 -128 2720 430 2720 1085 
C 2720 1707 2208 2157 1600 2227 
C 2086 2328 2554 2756 2554 3329 
C 2554 3820 2048 4179 1472 4179 
C 890 4179 378 3829 378 3329 
C 378 3110 544 3072 627 3072 
C 762 3072 877 3155 877 3321 
C 877 3486 762 3569 627 3569 
C 602 3569 570 3569 544 3557 
C 730 3959 1235 4032 1459 4032 
C 1683 4032 2106 3925 2106 3320 
C 2106 3143 2080 2828 1862 2550 
C 1670 2304 1453 2304 1242 2284 
C 1210 2284 1062 2269 1037 2269 
C 992 2263 966 2257 966 2208 
C 966 2163 973 2157 1101 2157 
L 1414 2157 
z
" transform="scale(0.015625)"/>
      <path id="CMR17-36" d="M 678 2176 
C 678 3690 1395 4032 1811 4032 
C 1946 4032 2272 4009 2400 3776 
C 2298 3776 2106 3776 2106 3553 
C 2106 3381 2246 3323 2336 3323 
C 2394 3323 2566 3348 2566 3560 
C 2566 3954 2246 4179 1805 4179 
C 1043 4179 243 3390 243 1984 
C 243 253 966 -128 1478 -128 
C 2099 -128 2688 427 2688 1283 
C 2688 2081 2170 2662 1517 2662 
C 1126 2662 838 2407 678 1960 
L 678 2176 
z
M 1478 25 
C 691 25 691 1200 691 1436 
C 691 1896 909 2560 1504 2560 
C 1613 2560 1926 2560 2138 2120 
C 2253 1870 2253 1609 2253 1289 
C 2253 944 2253 690 2118 434 
C 1978 171 1773 25 1478 25 
z
" transform="scale(0.015625)"/>
      <path id="CMR17-30" d="M 2688 2025 
C 2688 2416 2682 3080 2413 3591 
C 2176 4039 1798 4198 1466 4198 
C 1158 4198 768 4058 525 3597 
C 269 3118 243 2524 243 2025 
C 243 1661 250 1106 448 619 
C 723 -39 1216 -128 1466 -128 
C 1760 -128 2208 -7 2470 600 
C 2662 1042 2688 1559 2688 2025 
z
M 1466 -26 
C 1056 -26 813 325 723 812 
C 653 1188 653 1738 653 2096 
C 653 2588 653 2997 736 3387 
C 858 3929 1216 4096 1466 4096 
C 1728 4096 2067 3923 2189 3400 
C 2272 3036 2278 2607 2278 2096 
C 2278 1680 2278 1169 2202 792 
C 2067 95 1690 -26 1466 -26 
z
" transform="scale(0.015625)"/>
      <path id="CMSY10-e" d="M 2842 1600 
C 2842 2277 2272 2828 1600 2828 
C 909 2828 352 2264 352 1600 
C 352 930 909 372 1600 372 
C 2272 372 2842 923 2842 1600 
z
M 1600 628 
C 1043 628 608 1070 608 1600 
C 608 2130 1050 2572 1600 2572 
C 2131 2572 2586 2142 2586 1600 
C 2586 1058 2131 628 1600 628 
z
" transform="scale(0.015625)"/>
     </defs>
     <use xlink:href="#CMMI12-76" transform="scale(0.996264)"/>
     <use xlink:href="#CMR17-3d" transform="translate(78.409182 0) scale(0.996264)"/>
     <use xlink:href="#CMR17-33" transform="translate(177.797979 0) scale(0.996264)"/>
     <use xlink:href="#CMR17-36" transform="translate(223.488456 0) scale(0.996264)"/>
     <use xlink:href="#CMR17-30" transform="translate(269.178933 0) scale(0.996264)"/>
     <use xlink:href="#CMSY10-e" transform="translate(314.869411 36.153639) scale(0.697382)"/>
    </g>
   </g>
   <g id="text_4">
    <!-- $P(1.00, -0.00)$ -->
    <g transform="translate(198.1984 131.233568) scale(0.14 -0.14)">
     <defs>
      <path id="CMMI12-50" d="M 1894 2023 
L 2970 2023 
C 3853 2023 4736 2673 4736 3401 
C 4736 3898 4314 4352 3507 4352 
L 1530 4352 
C 1408 4352 1350 4352 1350 4231 
C 1350 4167 1408 4167 1504 4167 
C 1894 4167 1894 4116 1894 4046 
C 1894 4034 1894 3995 1869 3899 
L 1005 472 
C 947 249 934 185 486 185 
C 365 185 301 185 301 70 
C 301 0 358 0 397 0 
C 518 0 646 0 768 0 
L 1517 0 
C 1638 0 1773 0 1894 0 
C 1946 0 2016 0 2016 121 
C 2016 185 1958 185 1862 185 
C 1478 185 1472 230 1472 293 
C 1472 325 1478 369 1485 401 
L 1894 2023 
z
M 2355 3930 
C 2413 4167 2438 4167 2688 4167 
L 3322 4167 
C 3802 4167 4198 4013 4198 3535 
C 4198 3369 4115 2827 3821 2534 
C 3712 2419 3405 2176 2822 2176 
L 1920 2176 
L 2355 3930 
z
" transform="scale(0.015625)"/>
      <path id="CMR17-28" d="M 1958 -1561 
C 1958 -1555 1958 -1542 1939 -1523 
C 1645 -1224 858 -407 858 1581 
C 858 3569 1632 4379 1946 4697 
C 1946 4704 1958 4717 1958 4736 
C 1958 4755 1939 4768 1914 4768 
C 1843 4768 1299 4296 986 3594 
C 666 2887 576 2199 576 1588 
C 576 1128 621 351 1005 -471 
C 1312 -1135 1837 -1600 1914 -1600 
C 1946 -1600 1958 -1587 1958 -1561 
z
" transform="scale(0.015625)"/>
      <path id="CMR17-31" d="M 1702 4058 
C 1702 4192 1696 4192 1606 4192 
C 1357 3916 979 3827 621 3827 
C 602 3827 570 3827 563 3808 
C 557 3795 557 3782 557 3648 
C 755 3648 1088 3686 1344 3839 
L 1344 461 
C 1344 236 1331 160 781 160 
L 589 160 
L 589 0 
C 896 0 1216 0 1523 0 
C 1830 0 2150 0 2458 0 
L 2458 160 
L 2266 160 
C 1715 160 1702 230 1702 458 
L 1702 4058 
z
" transform="scale(0.015625)"/>
      <path id="CMMI12-3a" d="M 1178 307 
C 1178 492 1024 619 870 619 
C 685 619 557 466 557 313 
C 557 128 710 0 864 0 
C 1050 0 1178 153 1178 307 
z
" transform="scale(0.015625)"/>
      <path id="CMMI12-3b" d="M 1248 -31 
C 1248 343 1126 619 864 619 
C 659 619 557 453 557 313 
C 557 172 653 0 870 0 
C 954 0 1024 26 1082 83 
C 1094 96 1101 96 1107 96 
C 1120 96 1120 5 1120 -27 
C 1120 -240 1082 -659 710 -1080 
C 640 -1157 640 -1170 640 -1183 
C 640 -1216 672 -1248 704 -1248 
C 755 -1248 1248 -771 1248 -31 
z
" transform="scale(0.015625)"/>
      <path id="CMSY10-0" d="M 4218 1472 
C 4326 1472 4442 1472 4442 1600 
C 4442 1728 4326 1728 4218 1728 
L 755 1728 
C 646 1728 531 1728 531 1600 
C 531 1472 646 1472 755 1472 
L 4218 1472 
z
" transform="scale(0.015625)"/>
      <path id="CMR17-29" d="M 1683 1581 
C 1683 2040 1638 2817 1254 3639 
C 947 4303 422 4768 346 4768 
C 326 4768 301 4761 301 4729 
C 301 4717 307 4710 314 4697 
C 621 4378 1402 3568 1402 1584 
C 1402 -407 627 -1217 314 -1537 
C 307 -1549 301 -1556 301 -1568 
C 301 -1600 326 -1600 346 -1600 
C 416 -1600 960 -1128 1274 -426 
C 1594 281 1683 969 1683 1581 
z
" transform="scale(0.015625)"/>
     </defs>
     <use xlink:href="#CMMI12-50" transform="scale(0.996264)"/>
     <use xlink:href="#CMR17-28" transform="translate(76.425821 0) scale(0.996264)"/>
     <use xlink:href="#CMR17-31" transform="translate(111.706589 0) scale(0.996264)"/>
     <use xlink:href="#CMMI12-3a" transform="translate(157.397066 0) scale(0.996264)"/>
     <use xlink:href="#CMR17-30" transform="translate(184.494243 0) scale(0.996264)"/>
     <use xlink:href="#CMR17-30" transform="translate(230.18472 0) scale(0.996264)"/>
     <use xlink:href="#CMMI12-3b" transform="translate(275.875197 0) scale(0.996264)"/>
     <use xlink:href="#CMSY10-0" transform="translate(319.576779 0) scale(0.996264)"/>
     <use xlink:href="#CMR17-30" transform="translate(397.064247 0) scale(0.996264)"/>
     <use xlink:href="#CMMI12-3a" transform="translate(442.754724 0) scale(0.996264)"/>
     <use xlink:href="#CMR17-30" transform="translate(469.851901 0) scale(0.996264)"/>
     <use xlink:href="#CMR17-30" transform="translate(515.542378 0) scale(0.996264)"/>
     <use xlink:href="#CMR17-29" transform="translate(561.232855 0) scale(0.996264)"/>
    </g>
   </g>
  </g>
 </g>
 <defs>
  <clipPath id="p66016d5074">
   <rect x="10.8" y="17.358952" width="220.901847" height="259.841048"/>
  </clipPath>
 </defs>
</svg>
