<?xml version="1.0" encoding="utf-8" standalone="no"?>
<!DOCTYPE svg PUBLIC "-//W3C//DTD SVG 1.1//EN"
  "http://www.w3.org/Graphics/SVG/1.1/DTD/svg11.dtd">
<svg xmlns:xlink="http://www.w3.org/1999/xlink" width="432pt" height="432pt" viewBox="0 0 432 432" xmlns="http://www.w3.org/2000/svg" version="1.1">
 <metadata>
  <rdf:RDF xmlns:dc="http://purl.org/dc/elements/1.1/" xmlns:cc="http://creativecommons.org/ns#" xmlns:rdf="http://www.w3.org/1999/02/22-rdf-syntax-ns#">
   <cc:Work>
    <dc:type rdf:resource="http://purl.org/dc/dcmitype/StillImage"/>
    <dc:date>2026-03-21T12:37:36.502489</dc:date>
    <dc:format>image/svg+xml</dc:format>
    <dc:creator>
     <cc:Agent>
      <dc:title>Matplotlib v3.10.8, https://matplotlib.org/</dc:title>
     </cc:Agent>
    </dc:creator>
   </cc:Work>
  </rdf:RDF>
 </metadata>
 <defs>
  <style type="text/css">*{stroke-linejoin: round; stroke-linecap: butt}</style>
 </defs>
 <g id="figure_1">
  <g id="patch_1">
   <path d="M 0 432 
L 432 432 
L 432 0 
L 0 0 
L 0 432 
z
" style="fill: none"/>
  </g>
  <g id="axes_1">
   <g id="line2d_1">
    <path d="M 40.730792 318.473612 
L 245.678015 318.473612 
" clip-path="url(#p5c832d3f2b)" style="fill: none; stroke: #0072b2; stroke-width: 3; stroke-linecap: square"/>
   </g>
   <g id="line2d_2">
    <path d="M 245.678015 318.473612 
L 395.709796 113.526388 
" clip-path="url(#p5c832d3f2b)" style="fill: none; stroke: #0072b2; stroke-width: 3; stroke-linecap: square"/>
   </g>
   <g id="line2d_3">
    <path d="M 395.709796 113.526388 
L 40.730792 318.473612 
" clip-path="url(#p5c832d3f2b)" style="fill: none; stroke: #0072b2; stroke-width: 3; stroke-linecap: square"/>
   </g>
   <g id="line2d_4">
    <path d="M 93.620398 318.473612 
L 93.617285 317.896044 
L 93.607946 317.318544 
L 93.592382 316.74118 
L 93.570595 316.16402 
L 93.542588 315.587132 
L 93.508364 315.010584 
L 93.467926 314.434443 
L 93.421281 313.858778 
L 93.368432 313.283656 
L 93.309387 312.709145 
L 93.244153 312.135313 
L 93.172736 311.562227 
L 93.095146 310.989954 
L 93.011392 310.418562 
L 92.921482 309.848119 
L 92.825429 309.278691 
L 92.723244 308.710346 
L 92.614937 308.14315 
L 92.500523 307.57717 
L 92.380014 307.012473 
L 92.253425 306.449125 
L 92.120771 305.887192 
L 91.982067 305.326741 
L 91.83733 304.767838 
L 91.686576 304.210549 
L 91.529824 303.654938 
L 91.367091 303.101072 
L 91.198398 302.549016 
L 91.023763 301.998834 
L 90.843208 301.450592 
L 90.656754 300.904353 
L 90.464422 300.360183 
L 90.266235 299.818146 
L 90.062218 299.278304 
L 89.852392 298.740722 
L 89.636784 298.205463 
L 89.415419 297.67259 
L 89.188322 297.142166 
L 88.955521 296.614253 
L 88.717043 296.088914 
L 88.472916 295.566209 
L 88.223169 295.046202 
L 87.967831 294.528952 
L 87.706931 294.014521 
L 87.440502 293.502969 
L 87.168574 292.994357 
L 86.89118 292.488744 
L 86.608351 291.986191 
" clip-path="url(#p5c832d3f2b)" style="fill: none; stroke: #dc5e8b; stroke-width: 2.4; stroke-linecap: square"/>
   </g>
   <g id="line2d_5">
    <path d="M 192.788409 318.473612 
L 192.844245 316.028194 
L 193.011635 313.58794 
L 193.290225 311.158001 
L 193.679427 308.743508 
L 194.17842 306.34956 
L 194.786149 303.98121 
L 195.501332 301.64346 
L 196.322459 299.341246 
L 197.247795 297.079427 
L 198.275388 294.862781 
L 199.403067 292.695986 
L 200.628452 290.583619 
L 201.948954 288.530139 
L 203.361787 286.539883 
L 204.863967 284.617051 
L 206.452322 282.765704 
L 208.123498 280.989752 
L 209.873968 279.292943 
L 211.700034 277.678861 
L 213.597843 276.150913 
L 215.563385 274.712326 
L 217.592512 273.366138 
L 219.680939 272.115189 
L 221.824256 270.962122 
L 224.017939 269.909372 
L 226.257355 268.95916 
L 228.537776 268.113494 
L 230.854387 267.374159 
L 233.202296 266.742716 
L 235.576547 266.220498 
L 237.972127 265.808607 
L 240.383977 265.507915 
L 242.807004 265.319054 
L 245.236094 265.242425 
L 247.666116 265.278189 
L 250.091941 265.42627 
L 252.508447 265.686356 
L 254.91053 266.057897 
L 257.29312 266.54011 
L 259.651185 267.131975 
L 261.979748 267.832244 
L 264.273891 268.639437 
L 266.52877 269.551851 
L 268.739625 270.567559 
L 270.901787 271.684417 
L 273.010691 272.900065 
L 275.061885 274.211938 
L 277.051038 275.617266 
" clip-path="url(#p5c832d3f2b)" style="fill: none; stroke: #dc5e8b; stroke-width: 2.4; stroke-linecap: square"/>
   </g>
   <g id="line2d_6">
    <path d="M 349.832237 140.013809 
L 350.061473 140.412034 
L 350.294122 140.808248 
L 350.530165 141.202423 
L 350.769585 141.59453 
L 351.012365 141.984538 
L 351.258486 142.37242 
L 351.507929 142.758145 
L 351.760676 143.141685 
L 352.016708 143.523011 
L 352.276007 143.902096 
L 352.538552 144.278909 
L 352.804323 144.653424 
L 353.073302 145.025613 
L 353.345468 145.395447 
L 353.620801 145.762899 
L 353.899279 146.127941 
L 354.180883 146.490546 
L 354.465591 146.850687 
L 354.753382 147.208338 
L 355.044234 147.563471 
L 355.338126 147.916059 
L 355.635035 148.266077 
L 355.934941 148.613499 
L 356.237819 148.958297 
L 356.543647 149.300447 
L 356.852403 149.639924 
L 357.164064 149.9767 
L 357.478606 150.310753 
L 357.796005 150.642055 
L 358.116239 150.970584 
L 358.439283 151.296313 
L 358.765112 151.619219 
L 359.093703 151.939278 
L 359.425031 152.256466 
L 359.759071 152.570759 
L 360.095798 152.882133 
L 360.435188 153.190565 
L 360.777214 153.496033 
L 361.121851 153.798513 
L 361.469074 154.097983 
L 361.818856 154.39442 
L 362.171171 154.687802 
L 362.525993 154.978108 
L 362.883296 155.265315 
L 363.243052 155.549402 
L 363.605235 155.830349 
L 363.969818 156.108133 
L 364.336773 156.382734 
" clip-path="url(#p5c832d3f2b)" style="fill: none; stroke: #dc5e8b; stroke-width: 2.4; stroke-linecap: square"/>
   </g>
   <g id="text_1">
    <!-- $A$ -->
    <g transform="translate(10.415919 330.679844) scale(0.27 -0.27)">
     <defs>
      <path id="CMMI12-41" d="M 1088 691 
C 864 314 646 186 339 186 
C 269 180 218 180 218 58 
C 218 24 250 0 294 0 
C 410 0 698 0 813 0 
C 998 0 1203 0 1382 0 
C 1421 0 1498 0 1498 122 
C 1498 180 1446 186 1408 186 
C 1261 186 1139 236 1139 388 
C 1139 476 1178 546 1261 685 
L 1747 1479 
L 3379 1479 
C 3386 1423 3386 1373 3392 1316 
C 3411 1152 3488 495 3488 376 
C 3488 186 3162 186 3059 186 
C 2989 186 2918 186 2918 70 
C 2918 0 2976 0 3014 0 
C 3123 0 3251 0 3360 0 
L 3725 0 
C 4115 0 4397 0 4403 0 
C 4448 0 4518 0 4518 122 
C 4518 186 4461 186 4365 186 
C 4013 186 4006 244 3987 434 
L 3597 4404 
C 3584 4531 3558 4544 3488 4544 
C 3424 4544 3386 4531 3328 4435 
L 1088 691 
z
M 1856 1664 
L 3142 3819 
L 3360 1664 
L 1856 1664 
z
" transform="scale(0.015625)"/>
     </defs>
     <use xlink:href="#CMMI12-41" transform="scale(0.996264)"/>
    </g>
   </g>
   <g id="text_2">
    <!-- $B$ -->
    <g transform="translate(245.214937 344.202131) scale(0.27 -0.27)">
     <defs>
      <path id="CMMI12-42" d="M 2342 3921 
C 2400 4160 2426 4160 2675 4160 
L 3507 4160 
C 4230 4160 4230 3544 4230 3485 
C 4230 2966 3712 2304 2867 2304 
L 1946 2304 
L 2342 3921 
z
M 3424 2275 
C 4122 2402 4755 2886 4755 3473 
C 4755 3970 4314 4352 3590 4352 
L 1536 4352 
C 1414 4352 1357 4352 1357 4226 
C 1357 4160 1414 4160 1510 4160 
C 1901 4160 1901 4112 1901 4044 
C 1901 4032 1901 3993 1875 3897 
L 1011 472 
C 954 249 941 185 493 185 
C 371 185 307 185 307 70 
C 307 0 346 0 474 0 
L 2669 0 
C 3648 0 4403 739 4403 1383 
C 4403 1906 3942 2224 3424 2275 
z
M 2515 185 
L 1651 185 
C 1562 185 1549 185 1510 192 
C 1440 198 1434 211 1434 261 
C 1434 305 1446 343 1459 399 
L 1907 2176 
L 3110 2176 
C 3866 2176 3866 1483 3866 1433 
C 3866 828 3309 185 2515 185 
z
" transform="scale(0.015625)"/>
     </defs>
     <use xlink:href="#CMMI12-42" transform="scale(0.996264)"/>
    </g>
   </g>
   <g id="text_3">
    <!-- $C$ -->
    <g transform="translate(402.076666 106.077548) scale(0.27 -0.27)">
     <defs>
      <path id="CMMI12-43" d="M 4781 4423 
C 4781 4480 4736 4480 4723 4480 
C 4710 4480 4685 4480 4634 4416 
L 4192 3882 
C 3968 4264 3616 4480 3136 4480 
C 1754 4480 320 3088 320 1595 
C 320 533 1069 -128 2003 -128 
C 2515 -128 2963 88 3334 400 
C 3891 863 4058 1481 4058 1531 
C 4058 1588 4006 1588 3987 1588 
C 3930 1588 3923 1550 3910 1524 
C 3616 534 2752 57 2112 57 
C 1434 57 845 489 845 1391 
C 845 1595 909 2700 1632 3532 
C 1984 3939 2586 4295 3194 4295 
C 3898 4295 4211 3717 4211 3068 
C 4211 2903 4192 2764 4192 2738 
C 4192 2681 4256 2681 4275 2681 
C 4346 2681 4352 2687 4378 2801 
L 4781 4423 
z
" transform="scale(0.015625)"/>
     </defs>
     <use xlink:href="#CMMI12-43" transform="scale(0.996264)"/>
    </g>
   </g>
  </g>
 </g>
 <defs>
  <clipPath id="p5c832d3f2b">
   <rect x="22.981841" y="10.8" width="390.476904" height="410.4"/>
  </clipPath>
 </defs>
</svg>
