<?xml version="1.0" encoding="utf-8" standalone="no"?>
<!DOCTYPE svg PUBLIC "-//W3C//DTD SVG 1.1//EN"
  "http://www.w3.org/Graphics/SVG/1.1/DTD/svg11.dtd">
<svg xmlns:xlink="http://www.w3.org/1999/xlink" width="460.8pt" height="345.6pt" viewBox="0 0 460.8 345.6" xmlns="http://www.w3.org/2000/svg" version="1.1">
 <metadata>
  <rdf:RDF xmlns:dc="http://purl.org/dc/elements/1.1/" xmlns:cc="http://creativecommons.org/ns#" xmlns:rdf="http://www.w3.org/1999/02/22-rdf-syntax-ns#">
   <cc:Work>
    <dc:type rdf:resource="http://purl.org/dc/dcmitype/StillImage"/>
    <dc:date>2025-10-03T21:50:26.136968</dc:date>
    <dc:format>image/svg+xml</dc:format>
    <dc:creator>
     <cc:Agent>
      <dc:title>Matplotlib v3.9.1, https://matplotlib.org/</dc:title>
     </cc:Agent>
    </dc:creator>
   </cc:Work>
  </rdf:RDF>
 </metadata>
 <defs>
  <style type="text/css">*{stroke-linejoin: round; stroke-linecap: butt}</style>
 </defs>
 <g id="figure_1">
  <g id="patch_1">
   <path d="M 0 345.6 
L 460.8 345.6 
L 460.8 0 
L 0 0 
L 0 345.6 
z
" style="fill: none"/>
  </g>
  <g id="axes_1">
   <g id="patch_2">
    <path d="M 10.8 313.735469 
L 434.053846 313.735469 
L 434.053846 20.016315 
L 10.8 20.016315 
L 10.8 313.735469 
z
" style="fill: none"/>
   </g>
   <g id="Quiver_1">
    <path d="M 364.887113 -214.959008 
L 364.887113 125.123802 
L 369.013838 125.123802 
L 363.511538 137.503977 
L 358.009238 125.123802 
L 362.135963 125.123802 
L 362.135963 -214.959008 
L 364.887113 -214.959008 
" clip-path="url(#pde2e716848)" style="fill: #dc5e8b"/>
   </g>
   <g id="Quiver_2">
    <path d="M 364.240222 138.670693 
L 233.656052 220.228286 
L 235.842103 223.728434 
L 222.426923 225.619723 
L 230.012633 214.394705 
L 232.198684 217.894853 
L 362.782854 136.337261 
L 364.240222 138.670693 
" clip-path="url(#pde2e716848)" style="fill: #dc5e8b"/>
   </g>
   <g id="matplotlib.axis_1">
    <g id="text_1">
     <!-- $x$ -->
     <g transform="translate(422.967034 272.828635) scale(0.2 -0.2)">
      <defs>
       <path id="CMMI12-78" d="M 3034 2606 
C 2829 2567 2752 2414 2752 2293 
C 2752 2139 2874 2088 2963 2088 
C 3155 2088 3290 2254 3290 2427 
C 3290 2695 2982 2816 2714 2816 
C 2323 2816 2106 2433 2048 2312 
C 1901 2816 1504 2816 1389 2816 
C 736 2816 390 1980 390 1839 
C 390 1814 416 1782 461 1782 
C 512 1782 525 1820 538 1846 
C 755 2555 1184 2689 1370 2689 
C 1658 2689 1715 2420 1715 2267 
C 1715 2127 1677 1980 1600 1673 
L 1382 798 
C 1286 415 1101 64 762 64 
C 730 64 570 64 435 147 
C 666 192 717 383 717 460 
C 717 588 621 664 499 664 
C 346 664 179 530 179 326 
C 179 57 480 -64 755 -64 
C 1062 -64 1280 179 1414 441 
C 1517 64 1837 -64 2074 -64 
C 2726 -64 3072 773 3072 913 
C 3072 945 3046 971 3008 971 
C 2950 971 2944 939 2925 888 
C 2752 326 2381 64 2093 64 
C 1869 64 1747 230 1747 492 
C 1747 632 1773 734 1875 1156 
L 2099 2024 
C 2195 2408 2413 2689 2707 2689 
C 2720 2689 2899 2689 3034 2606 
z
" transform="scale(0.015625)"/>
      </defs>
      <use xlink:href="#CMMI12-78" transform="scale(0.996264)"/>
     </g>
    </g>
   </g>
   <g id="matplotlib.axis_2">
    <g id="text_2">
     <!-- $y$ -->
     <g transform="translate(208.914088 16.140682) scale(0.2 -0.2)">
      <defs>
       <path id="CMMI12-79" d="M 1683 -700 
C 1510 -939 1261 -1152 947 -1152 
C 870 -1152 563 -1152 467 -889 
C 486 -895 518 -895 531 -895 
C 723 -895 851 -729 851 -582 
C 851 -435 730 -384 634 -384 
C 531 -384 307 -458 307 -759 
C 307 -1071 582 -1286 947 -1286 
C 1587 -1286 2234 -700 2413 6 
L 3040 2485 
C 3046 2517 3059 2556 3059 2594 
C 3059 2689 2982 2753 2886 2753 
C 2829 2753 2694 2727 2643 2535 
L 2170 658 
C 2138 543 2138 530 2086 460 
C 1958 281 1747 64 1440 64 
C 1082 64 1050 415 1050 588 
C 1050 952 1222 1443 1395 1903 
C 1466 2088 1504 2178 1504 2305 
C 1504 2574 1312 2816 998 2816 
C 410 2816 173 1890 173 1839 
C 173 1814 198 1782 243 1782 
C 301 1782 307 1807 333 1897 
C 486 2433 730 2689 979 2689 
C 1037 2689 1146 2689 1146 2478 
C 1146 2312 1075 2127 979 1884 
C 666 1047 666 837 666 683 
C 666 77 1101 -64 1421 -64 
C 1606 -64 1837 -6 2061 230 
L 2067 224 
C 1971 -147 1907 -392 1683 -700 
z
" transform="scale(0.015625)"/>
      </defs>
      <use xlink:href="#CMMI12-79" transform="scale(0.996264)"/>
     </g>
    </g>
   </g>
   <g id="line2d_1">
    <defs>
     <path id="m980dc4ba63" d="M 3 0 
L -3 -3 
L -3 3 
z
" style="stroke: #000000; stroke-linejoin: miter"/>
    </defs>
    <g>
     <use xlink:href="#m980dc4ba63" x="434.053846" y="254.991639" style="stroke: #000000; stroke-linejoin: miter"/>
    </g>
   </g>
   <g id="line2d_2">
    <defs>
     <path id="m0304dd46cd" d="M 0 -3 
L -3 3 
L 3 3 
z
" style="stroke: #000000; stroke-linejoin: miter"/>
    </defs>
    <g>
     <use xlink:href="#m0304dd46cd" x="222.426923" y="20.016315" style="stroke: #000000; stroke-linejoin: miter"/>
    </g>
   </g>
   <g id="line2d_3">
    <path d="M 14.171459 -1 
L 21.135869 15.835303 
L 28.060902 32.007674 
L 34.882575 47.38516 
L 41.60089 61.992731 
L 48.215847 75.854979 
L 54.727444 88.996118 
L 61.239042 101.636718 
L 67.647281 113.587989 
L 73.952161 124.873387 
L 80.153683 135.515992 
L 86.251845 145.538504 
L 92.24665 154.963243 
L 98.138095 163.812155 
L 103.926182 172.106804 
L 109.61091 179.868377 
L 115.192279 187.117682 
L 120.67029 193.875149 
L 126.044942 200.160832 
L 131.419594 206.105506 
L 136.690887 211.604627 
L 141.858822 216.677488 
L 146.923398 221.343008 
L 151.987974 225.705732 
L 156.949191 229.685831 
L 161.80705 233.301467 
L 166.664908 236.638521 
L 171.419408 239.634819 
L 176.070549 242.307767 
L 180.72169 244.725337 
L 185.269473 246.842255 
L 189.817255 248.715021 
L 194.261679 250.309331 
L 198.706103 251.670459 
L 203.150527 252.798406 
L 207.59495 253.693172 
L 211.936016 254.342019 
L 216.277081 254.768404 
L 220.618146 254.972328 
L 224.959211 254.953789 
L 229.300276 254.712789 
L 233.641341 254.249327 
L 237.982406 253.563403 
L 242.323471 252.655017 
L 246.767895 251.494533 
L 251.212319 250.100867 
L 255.656742 248.47402 
L 260.204525 246.567961 
L 264.752307 244.417749 
L 269.30009 242.023384 
L 273.951231 239.322061 
L 278.602372 236.365362 
L 283.356872 233.079005 
L 288.214731 229.445588 
L 293.072589 225.533589 
L 298.033806 221.25082 
L 303.098382 216.579121 
L 308.162958 211.604627 
L 313.330893 206.216485 
L 318.602186 200.395778 
L 323.976838 194.123212 
L 329.35149 187.509638 
L 334.829501 180.417973 
L 340.41087 172.828165 
L 346.095598 164.719784 
L 351.883685 156.072021 
L 357.775131 146.86369 
L 363.769935 137.073225 
L 369.868098 126.678683 
L 375.96626 115.845144 
L 382.167782 104.377766 
L 388.472662 92.253847 
L 394.880901 79.450311 
L 401.392499 65.943699 
L 408.007455 51.710176 
L 414.72577 36.72553 
L 421.547444 20.965167 
L 428.472476 4.404119 
L 430.682387 -1 
L 430.682387 -1 
" clip-path="url(#pde2e716848)" style="fill: none; stroke: #0072b2; stroke-width: 2.5; stroke-linecap: square"/>
   </g>
   <g id="line2d_4">
    <path d="M 237.965453 346.6 
L 434.053846 20.016315 
" clip-path="url(#pde2e716848)" style="fill: none; stroke-dasharray: 9.25,4; stroke-dashoffset: 0; stroke: #dc5e8b; stroke-width: 2.5"/>
   </g>
   <g id="line2d_5">
    <path d="M 363.511538 137.503977 
L 363.511538 284.363554 
" clip-path="url(#pde2e716848)" style="fill: none; stroke: #000000; stroke-width: 2.5; stroke-linecap: square"/>
   </g>
   <g id="line2d_6">
    <path d="M 222.426923 225.619723 
L 363.511538 284.363554 
" clip-path="url(#pde2e716848)" style="fill: none; stroke: #000000; stroke-width: 2.5; stroke-linecap: square"/>
   </g>
   <g id="LineCollection_1">
    <path d="M -1 284.363554 
L 461.8 284.363554 
" clip-path="url(#pde2e716848)" style="fill: none; stroke: #808080; stroke-width: 2.5"/>
   </g>
   <g id="line2d_7">
    <defs>
     <path id="m0ddd0bf1ff" d="M 0 5 
C 1.326016 5 2.597899 4.473168 3.535534 3.535534 
C 4.473168 2.597899 5 1.326016 5 0 
C 5 -1.326016 4.473168 -2.597899 3.535534 -3.535534 
C 2.597899 -4.473168 1.326016 -5 0 -5 
C -1.326016 -5 -2.597899 -4.473168 -3.535534 -3.535534 
C -4.473168 -2.597899 -5 -1.326016 -5 0 
C -5 1.326016 -4.473168 2.597899 -3.535534 3.535534 
C -2.597899 4.473168 -1.326016 5 0 5 
z
" style="stroke: #000000; stroke-opacity: 0.8"/>
    </defs>
    <g clip-path="url(#pde2e716848)">
     <use xlink:href="#m0ddd0bf1ff" x="222.426923" y="225.619723" style="fill-opacity: 0.8; stroke: #000000; stroke-opacity: 0.8"/>
    </g>
   </g>
   <g id="line2d_8">
    <g clip-path="url(#pde2e716848)">
     <use xlink:href="#m0ddd0bf1ff" x="363.511538" y="137.503977" style="fill-opacity: 0.8; stroke: #000000; stroke-opacity: 0.8"/>
    </g>
   </g>
   <g id="line2d_9">
    <g clip-path="url(#pde2e716848)">
     <use xlink:href="#m0ddd0bf1ff" x="363.511538" y="284.363554" style="fill-opacity: 0.8; stroke: #000000; stroke-opacity: 0.8"/>
    </g>
   </g>
   <g id="line2d_10">
    <g clip-path="url(#pde2e716848)">
     <use xlink:href="#m0ddd0bf1ff" x="292.96923" y="254.991639" style="fill-opacity: 0.8; stroke: #000000; stroke-opacity: 0.8"/>
    </g>
   </g>
   <g id="patch_3">
    <path d="M 222.426923 313.735469 
L 222.426923 20.016315 
" style="fill: none; stroke: #000000; stroke-width: 0.8; stroke-linejoin: miter; stroke-linecap: square"/>
   </g>
   <g id="patch_4">
    <path d="M 434.053846 313.735469 
L 434.053846 20.016315 
" style="fill: none"/>
   </g>
   <g id="patch_5">
    <path d="M 10.8 254.991639 
L 434.053846 254.991639 
" style="fill: none; stroke: #000000; stroke-width: 0.8; stroke-linejoin: miter; stroke-linecap: square"/>
   </g>
   <g id="patch_6">
    <path d="M 10.8 20.016315 
L 434.053846 20.016315 
" style="fill: none"/>
   </g>
   <g id="text_3">
    <!-- $B\left(0, \displaystyle \frac{1}{4a}\right)$ -->
    <g transform="translate(127.946542 202.284676) scale(0.2 -0.2)">
     <defs>
      <path id="CMMI12-42" d="M 2342 3921 
C 2400 4160 2426 4160 2675 4160 
L 3507 4160 
C 4230 4160 4230 3544 4230 3485 
C 4230 2966 3712 2304 2867 2304 
L 1946 2304 
L 2342 3921 
z
M 3424 2275 
C 4122 2402 4755 2886 4755 3473 
C 4755 3970 4314 4352 3590 4352 
L 1536 4352 
C 1414 4352 1357 4352 1357 4226 
C 1357 4160 1414 4160 1510 4160 
C 1901 4160 1901 4112 1901 4044 
C 1901 4032 1901 3993 1875 3897 
L 1011 472 
C 954 249 941 185 493 185 
C 371 185 307 185 307 70 
C 307 0 346 0 474 0 
L 2669 0 
C 3648 0 4403 739 4403 1383 
C 4403 1906 3942 2224 3424 2275 
z
M 2515 185 
L 1651 185 
C 1562 185 1549 185 1510 192 
C 1440 198 1434 211 1434 261 
C 1434 305 1446 343 1459 399 
L 1907 2176 
L 3110 2176 
C 3866 2176 3866 1483 3866 1433 
C 3866 828 3309 185 2515 185 
z
" transform="scale(0.015625)"/>
      <path id="CMEX10-12" d="M 4480 -15034 
C 4480 -15008 4467 -14995 4454 -14976 
C 4218 -14739 3789 -14310 3360 -13619 
C 2330 -11968 1862 -9888 1862 -7424 
C 1862 -5702 2093 -3482 3149 -1574 
C 3654 -666 4179 -141 4461 141 
C 4480 160 4480 173 4480 192 
C 4480 256 4435 256 4346 256 
C 4256 256 4243 256 4147 160 
C 2003 -1792 1331 -4723 1331 -7418 
C 1331 -9933 1907 -12467 3533 -14381 
C 3661 -14528 3904 -14790 4166 -15021 
C 4243 -15098 4256 -15098 4346 -15098 
C 4435 -15098 4480 -15098 4480 -15034 
z
" transform="scale(0.015625)"/>
      <path id="CMR17-30" d="M 2688 2025 
C 2688 2416 2682 3080 2413 3591 
C 2176 4039 1798 4198 1466 4198 
C 1158 4198 768 4058 525 3597 
C 269 3118 243 2524 243 2025 
C 243 1661 250 1106 448 619 
C 723 -39 1216 -128 1466 -128 
C 1760 -128 2208 -7 2470 600 
C 2662 1042 2688 1559 2688 2025 
z
M 1466 -26 
C 1056 -26 813 325 723 812 
C 653 1188 653 1738 653 2096 
C 653 2588 653 2997 736 3387 
C 858 3929 1216 4096 1466 4096 
C 1728 4096 2067 3923 2189 3400 
C 2272 3036 2278 2607 2278 2096 
C 2278 1680 2278 1169 2202 792 
C 2067 95 1690 -26 1466 -26 
z
" transform="scale(0.015625)"/>
      <path id="CMMI12-3b" d="M 1248 -31 
C 1248 343 1126 619 864 619 
C 659 619 557 453 557 313 
C 557 172 653 0 870 0 
C 954 0 1024 26 1082 83 
C 1094 96 1101 96 1107 96 
C 1120 96 1120 5 1120 -27 
C 1120 -240 1082 -659 710 -1080 
C 640 -1157 640 -1170 640 -1183 
C 640 -1216 672 -1248 704 -1248 
C 755 -1248 1248 -771 1248 -31 
z
" transform="scale(0.015625)"/>
      <path id="CMR17-31" d="M 1702 4058 
C 1702 4192 1696 4192 1606 4192 
C 1357 3916 979 3827 621 3827 
C 602 3827 570 3827 563 3808 
C 557 3795 557 3782 557 3648 
C 755 3648 1088 3686 1344 3839 
L 1344 461 
C 1344 236 1331 160 781 160 
L 589 160 
L 589 0 
C 896 0 1216 0 1523 0 
C 1830 0 2150 0 2458 0 
L 2458 160 
L 2266 160 
C 1715 160 1702 230 1702 458 
L 1702 4058 
z
" transform="scale(0.015625)"/>
      <path id="CMR17-34" d="M 2150 4122 
C 2150 4256 2144 4256 2029 4256 
L 128 1254 
L 128 1088 
L 1779 1088 
L 1779 457 
C 1779 224 1766 160 1318 160 
L 1197 160 
L 1197 0 
C 1402 0 1747 0 1965 0 
C 2182 0 2528 0 2733 0 
L 2733 160 
L 2611 160 
C 2163 160 2150 224 2150 457 
L 2150 1088 
L 2803 1088 
L 2803 1254 
L 2150 1254 
L 2150 4122 
z
M 1798 3703 
L 1798 1254 
L 256 1254 
L 1798 3703 
z
" transform="scale(0.015625)"/>
      <path id="CMMI12-61" d="M 1926 760 
C 1894 651 1894 639 1805 517 
C 1664 338 1382 64 1082 64 
C 819 64 672 300 672 677 
C 672 1028 870 1743 992 2012 
C 1210 2459 1510 2689 1760 2689 
C 2182 2689 2266 2165 2266 2114 
C 2266 2108 2246 2024 2240 2012 
L 1926 760 
z
M 2336 2395 
C 2266 2561 2093 2816 1760 2816 
C 1037 2816 256 1884 256 939 
C 256 307 627 -64 1062 -64 
C 1414 -64 1715 211 1894 422 
C 1958 45 2259 -64 2451 -64 
C 2643 -64 2797 51 2912 281 
C 3014 498 3104 888 3104 913 
C 3104 945 3078 971 3040 971 
C 2982 971 2976 939 2950 843 
C 2854 466 2733 64 2470 64 
C 2285 64 2272 230 2272 358 
C 2272 505 2291 575 2349 824 
C 2394 984 2426 1124 2477 1309 
C 2714 2267 2771 2497 2771 2535 
C 2771 2625 2701 2695 2605 2695 
C 2400 2695 2349 2472 2336 2395 
z
" transform="scale(0.015625)"/>
      <path id="CMEX10-13" d="M 3373 -7424 
C 3373 -4909 2797 -2374 1171 -461 
C 1043 -314 800 -51 538 179 
C 461 256 448 256 358 256 
C 282 256 224 256 224 192 
C 224 166 250 141 262 128 
C 486 -102 915 -531 1344 -1222 
C 2374 -2874 2842 -4954 2842 -7418 
C 2842 -9139 2611 -11360 1555 -13267 
C 1050 -14176 518 -14707 250 -14976 
C 237 -14995 224 -15014 224 -15034 
C 224 -15098 282 -15098 358 -15098 
C 448 -15098 461 -15098 557 -15002 
C 2701 -13050 3373 -10118 3373 -7424 
z
" transform="scale(0.015625)"/>
     </defs>
     <use xlink:href="#CMMI12-42" transform="scale(0.996264)"/>
     <use xlink:href="#CMEX10-12" transform="translate(95.739929 140.474533) scale(0.996264)"/>
     <use xlink:href="#CMR17-30" transform="translate(169.076367 0) scale(0.996264)"/>
     <use xlink:href="#CMMI12-3b" transform="translate(214.766844 0) scale(0.996264)"/>
     <use xlink:href="#CMR17-31" transform="translate(285.267877 67.398045) scale(0.996264)"/>
     <use xlink:href="#CMR17-34" transform="translate(259.66394 -68.338837) scale(0.996264)"/>
     <use xlink:href="#CMMI12-61" transform="translate(305.354417 -68.338837) scale(0.996264)"/>
     <use xlink:href="#CMEX10-13" transform="translate(357.757789 140.474533) scale(0.996264)"/>
     <path d="M 259.66394 22.914133 
L 356.562275 22.914133 
L 356.562275 26.899083 
L 259.66394 26.899083 
L 259.66394 22.914133 
z
"/>
    </g>
   </g>
   <g id="text_4">
    <!-- $R(s, f(s))$ -->
    <g transform="translate(369.860346 156.835786) scale(0.2 -0.2)">
     <defs>
      <path id="CMMI12-52" d="M 2355 3924 
C 2413 4160 2438 4160 2688 4160 
L 3149 4160 
C 3699 4160 4109 3995 4109 3499 
C 4109 3175 3942 2240 2656 2240 
L 1933 2240 
L 2355 3924 
z
M 3245 2169 
C 4038 2341 4659 2851 4659 3398 
C 4659 3894 4154 4352 3264 4352 
L 1530 4352 
C 1402 4352 1344 4352 1344 4226 
C 1344 4160 1389 4160 1510 4160 
C 1894 4160 1894 4112 1894 4045 
C 1894 4033 1894 3994 1869 3899 
L 1005 479 
C 947 256 934 192 493 192 
C 346 192 301 192 301 71 
C 301 7 371 7 390 7 
C 506 7 640 7 762 7 
L 1517 7 
C 1632 7 1766 7 1882 7 
C 1933 7 2003 7 2003 128 
C 2003 192 1946 192 1850 192 
C 1459 192 1459 243 1459 306 
C 1459 313 1459 357 1472 407 
L 1901 2112 
L 2669 2112 
C 3277 2112 3392 1731 3392 1522 
C 3392 1427 3328 1179 3283 1014 
C 3213 723 3194 652 3194 532 
C 3194 82 3565 -128 3994 -128 
C 4512 -128 4736 501 4736 591 
C 4736 635 4704 654 4666 654 
C 4614 654 4602 616 4589 565 
C 4435 114 4173 0 4013 0 
C 3853 0 3750 70 3750 356 
C 3750 509 3827 1088 3834 1120 
C 3866 1355 3866 1380 3866 1432 
C 3866 1896 3488 2093 3245 2169 
z
" transform="scale(0.015625)"/>
      <path id="CMR17-28" d="M 1958 -1561 
C 1958 -1555 1958 -1542 1939 -1523 
C 1645 -1224 858 -407 858 1581 
C 858 3569 1632 4379 1946 4697 
C 1946 4704 1958 4717 1958 4736 
C 1958 4755 1939 4768 1914 4768 
C 1843 4768 1299 4296 986 3594 
C 666 2887 576 2199 576 1588 
C 576 1128 621 351 1005 -471 
C 1312 -1135 1837 -1600 1914 -1600 
C 1946 -1600 1958 -1587 1958 -1561 
z
" transform="scale(0.015625)"/>
      <path id="CMMI12-73" d="M 1459 1280 
C 1568 1261 1741 1223 1779 1216 
C 1862 1192 2150 1090 2150 783 
C 2150 586 1971 70 1229 70 
C 1094 70 614 70 486 436 
C 742 404 870 603 870 745 
C 870 880 781 950 653 950 
C 512 950 326 841 326 552 
C 326 173 710 -64 1222 -64 
C 2195 -64 2483 651 2483 984 
C 2483 1079 2483 1258 2278 1462 
C 2118 1616 1965 1648 1619 1718 
C 1446 1756 1171 1814 1171 2101 
C 1171 2229 1286 2689 1894 2689 
C 2163 2689 2426 2589 2490 2368 
C 2208 2368 2195 2125 2195 2119 
C 2195 1984 2317 1946 2374 1946 
C 2464 1946 2643 2015 2643 2281 
C 2643 2545 2400 2816 1901 2816 
C 1062 2816 838 2160 838 1899 
C 838 1414 1312 1312 1459 1280 
z
" transform="scale(0.015625)"/>
      <path id="CMMI12-66" d="M 2854 2566 
C 2982 2566 3034 2566 3034 2688 
C 3034 2752 2982 2752 2867 2752 
L 2349 2752 
C 2470 3429 2560 3897 2611 4107 
C 2650 4265 2784 4416 2950 4416 
C 3085 4416 3219 4358 3283 4298 
C 3034 4272 2957 4082 2957 3969 
C 2957 3837 3053 3759 3174 3759 
C 3302 3759 3494 3870 3494 4119 
C 3494 4393 3226 4544 2944 4544 
C 2669 4544 2400 4334 2272 4078 
C 2157 3848 2093 3611 1946 2752 
L 1517 2752 
C 1395 2752 1331 2752 1331 2637 
C 1331 2566 1370 2566 1498 2566 
L 1907 2566 
C 1792 1976 1530 542 1382 -137 
C 1274 -689 1178 -1152 858 -1152 
C 838 -1152 653 -1152 538 -1031 
C 864 -1005 864 -726 864 -720 
C 864 -593 768 -517 646 -517 
C 518 -517 326 -625 326 -867 
C 326 -1140 608 -1280 858 -1280 
C 1510 -1280 1779 -118 1850 199 
C 1965 688 2278 2376 2310 2566 
L 2854 2566 
z
" transform="scale(0.015625)"/>
      <path id="CMR17-29" d="M 1683 1581 
C 1683 2040 1638 2817 1254 3639 
C 947 4303 422 4768 346 4768 
C 326 4768 301 4761 301 4729 
C 301 4717 307 4710 314 4697 
C 621 4378 1402 3568 1402 1584 
C 1402 -407 627 -1217 314 -1537 
C 307 -1549 301 -1556 301 -1568 
C 301 -1600 326 -1600 346 -1600 
C 416 -1600 960 -1128 1274 -426 
C 1594 281 1683 969 1683 1581 
z
" transform="scale(0.015625)"/>
     </defs>
     <use xlink:href="#CMMI12-52" transform="scale(0.996264)"/>
     <use xlink:href="#CMR17-28" transform="translate(75.070962 0) scale(0.996264)"/>
     <use xlink:href="#CMMI12-73" transform="translate(110.35173 0) scale(0.996264)"/>
     <use xlink:href="#CMMI12-3b" transform="translate(156.301777 0) scale(0.996264)"/>
     <use xlink:href="#CMMI12-66" transform="translate(200.00336 0) scale(0.996264)"/>
     <use xlink:href="#CMR17-28" transform="translate(258.723664 0) scale(0.996264)"/>
     <use xlink:href="#CMMI12-73" transform="translate(294.004432 0) scale(0.996264)"/>
     <use xlink:href="#CMR17-29" transform="translate(339.95448 0) scale(0.996264)"/>
     <use xlink:href="#CMR17-29" transform="translate(375.235248 0) scale(0.996264)"/>
    </g>
   </g>
   <g id="text_5">
    <!-- $S\left(s, -\displaystyle \frac{1}{4a}\right)$ -->
    <g transform="translate(313.005159 317.661226) scale(0.2 -0.2)">
     <defs>
      <path id="CMMI12-53" d="M 4064 4423 
C 4064 4480 4019 4480 4006 4480 
C 3981 4480 3974 4474 3898 4378 
C 3859 4333 3597 4001 3590 3995 
C 3379 4410 2957 4480 2688 4480 
C 1875 4480 1139 3743 1139 3025 
C 1139 2549 1427 2269 1741 2161 
C 1811 2135 2189 2033 2381 1989 
C 2707 1900 2790 1875 2925 1735 
C 2950 1703 3078 1557 3078 1258 
C 3078 667 2528 57 1888 57 
C 1363 57 781 280 781 991 
C 781 1112 806 1265 826 1328 
C 826 1348 832 1378 832 1391 
C 832 1417 819 1449 768 1449 
C 710 1449 704 1436 678 1328 
L 352 24 
C 352 18 326 -64 326 -71 
C 326 -128 378 -128 390 -128 
C 416 -128 422 -122 499 -26 
L 794 356 
C 947 126 1280 -128 1875 -128 
C 2701 -128 3456 666 3456 1460 
C 3456 1728 3392 1963 3149 2197 
C 3014 2331 2899 2363 2310 2516 
C 1882 2630 1824 2649 1709 2751 
C 1600 2858 1517 3011 1517 3227 
C 1517 3761 2061 4308 2669 4308 
C 3296 4308 3590 3926 3590 3323 
C 3590 3158 3558 2986 3558 2961 
C 3558 2903 3610 2903 3629 2903 
C 3686 2903 3693 2922 3718 3024 
L 4064 4423 
z
" transform="scale(0.015625)"/>
      <path id="CMSY10-0" d="M 4218 1472 
C 4326 1472 4442 1472 4442 1600 
C 4442 1728 4326 1728 4218 1728 
L 755 1728 
C 646 1728 531 1728 531 1600 
C 531 1472 646 1472 755 1472 
L 4218 1472 
z
" transform="scale(0.015625)"/>
     </defs>
     <use xlink:href="#CMMI12-53" transform="scale(0.996264)"/>
     <use xlink:href="#CMEX10-12" transform="translate(82.398844 140.474533) scale(0.996264)"/>
     <use xlink:href="#CMMI12-73" transform="translate(155.735283 0) scale(0.996264)"/>
     <use xlink:href="#CMMI12-3b" transform="translate(201.68533 0) scale(0.996264)"/>
     <use xlink:href="#CMSY10-0" transform="translate(245.386913 0) scale(0.996264)"/>
     <use xlink:href="#CMR17-31" transform="translate(349.673831 67.398045) scale(0.996264)"/>
     <use xlink:href="#CMR17-34" transform="translate(324.069894 -68.338837) scale(0.996264)"/>
     <use xlink:href="#CMMI12-61" transform="translate(369.760371 -68.338837) scale(0.996264)"/>
     <use xlink:href="#CMEX10-13" transform="translate(422.163743 140.474533) scale(0.996264)"/>
     <path d="M 324.069894 22.914133 
L 420.968229 22.914133 
L 420.968229 26.899083 
L 324.069894 26.899083 
L 324.069894 22.914133 
z
"/>
    </g>
   </g>
   <g id="text_6">
    <!-- $M$ -->
    <g transform="translate(267.745738 273.234423) scale(0.2 -0.2)">
     <defs>
      <path id="CMMI12-4d" d="M 5811 3886 
C 5869 4103 5882 4167 6336 4167 
C 6458 4167 6515 4167 6515 4288 
C 6515 4352 6470 4352 6349 4352 
L 5581 4352 
C 5421 4352 5414 4346 5344 4243 
L 3008 562 
L 2528 4211 
C 2509 4352 2502 4352 2336 4352 
L 1542 4352 
C 1421 4352 1363 4352 1363 4231 
C 1363 4167 1421 4167 1517 4167 
C 1907 4167 1907 4116 1907 4046 
C 1907 4034 1907 3995 1882 3899 
L 1062 634 
C 986 327 838 186 410 186 
C 390 186 314 186 314 73 
C 314 0 371 0 397 0 
C 525 0 851 0 979 0 
L 1286 0 
C 1376 0 1485 0 1574 0 
C 1619 0 1690 0 1690 122 
C 1690 180 1626 186 1600 186 
C 1389 186 1184 224 1184 454 
C 1184 518 1184 524 1210 613 
L 2093 4129 
L 2099 4129 
L 2630 172 
C 2650 19 2656 0 2714 0 
C 2784 0 2816 51 2848 109 
L 5421 4161 
L 5427 4161 
L 4499 473 
C 4442 250 4429 186 3981 186 
C 3859 186 3795 186 3795 70 
C 3795 0 3853 0 3891 0 
C 4000 0 4128 0 4237 0 
L 4992 0 
C 5101 0 5235 0 5344 0 
C 5395 0 5466 0 5466 122 
C 5466 186 5408 186 5312 186 
C 4922 186 4922 234 4922 294 
C 4922 301 4922 345 4934 396 
L 5811 3886 
z
" transform="scale(0.015625)"/>
     </defs>
     <use xlink:href="#CMMI12-4d" transform="scale(0.996264)"/>
    </g>
   </g>
  </g>
 </g>
 <defs>
  <clipPath id="pde2e716848">
   <rect x="10.8" y="20.016315" width="423.253846" height="293.719154"/>
  </clipPath>
 </defs>
</svg>
