<?xml version="1.0" encoding="utf-8" standalone="no"?>
<!DOCTYPE svg PUBLIC "-//W3C//DTD SVG 1.1//EN"
  "http://www.w3.org/Graphics/SVG/1.1/DTD/svg11.dtd">
<svg xmlns:xlink="http://www.w3.org/1999/xlink" width="432pt" height="432pt" viewBox="0 0 432 432" xmlns="http://www.w3.org/2000/svg" version="1.1">
 <metadata>
  <rdf:RDF xmlns:dc="http://purl.org/dc/elements/1.1/" xmlns:cc="http://creativecommons.org/ns#" xmlns:rdf="http://www.w3.org/1999/02/22-rdf-syntax-ns#">
   <cc:Work>
    <dc:type rdf:resource="http://purl.org/dc/dcmitype/StillImage"/>
    <dc:date>2026-03-21T12:37:08.162712</dc:date>
    <dc:format>image/svg+xml</dc:format>
    <dc:creator>
     <cc:Agent>
      <dc:title>Matplotlib v3.10.8, https://matplotlib.org/</dc:title>
     </cc:Agent>
    </dc:creator>
   </cc:Work>
  </rdf:RDF>
 </metadata>
 <defs>
  <style type="text/css">*{stroke-linejoin: round; stroke-linecap: butt}</style>
 </defs>
 <g id="figure_1">
  <g id="patch_1">
   <path d="M 0 432 
L 432 432 
L 432 0 
L 0 0 
L 0 432 
z
" style="fill: none"/>
  </g>
  <g id="axes_1">
   <g id="line2d_1">
    <path d="M 40.730792 318.473612 
L 245.678015 318.473612 
" clip-path="url(#p974b94137d)" style="fill: none; stroke: #0072b2; stroke-width: 3; stroke-linecap: square"/>
   </g>
   <g id="line2d_2">
    <path d="M 245.678015 318.473612 
L 395.709796 113.526388 
" clip-path="url(#p974b94137d)" style="fill: none; stroke: #0072b2; stroke-width: 3; stroke-linecap: square"/>
   </g>
   <g id="line2d_3">
    <path d="M 395.709796 113.526388 
L 40.730792 318.473612 
" clip-path="url(#p974b94137d)" style="fill: none; stroke: #0072b2; stroke-width: 3; stroke-linecap: square"/>
   </g>
   <g id="line2d_4">
    <path d="M 111.250266 318.473612 
L 111.246116 317.703521 
L 111.233664 316.933521 
L 111.212912 316.163703 
L 111.183863 315.394156 
L 111.14652 314.624972 
L 111.100888 313.856241 
L 111.046971 313.088053 
L 110.984777 312.3205 
L 110.914313 311.553671 
L 110.835586 310.787656 
L 110.748607 310.022546 
L 110.653384 309.258431 
L 110.549931 308.495401 
L 110.438258 307.733546 
L 110.318379 306.972955 
L 110.190309 306.213718 
L 110.054061 305.455924 
L 109.909652 304.699662 
L 109.7571 303.945022 
L 109.596422 303.192093 
L 109.427637 302.440962 
L 109.250764 301.691719 
L 109.065826 300.944451 
L 108.872842 300.199247 
L 108.671838 299.456194 
L 108.462834 298.71538 
L 108.245858 297.976892 
L 108.020933 297.240817 
L 107.788087 296.507241 
L 107.547347 295.776252 
L 107.298741 295.047934 
L 107.042299 294.322374 
L 106.77805 293.599657 
L 106.506026 292.879868 
L 106.226259 292.163092 
L 105.938782 291.449414 
L 105.643628 290.738917 
L 105.340833 290.031685 
L 105.030431 289.327801 
L 104.712461 288.627348 
L 104.386958 287.930409 
L 104.053961 287.237065 
L 103.71351 286.547398 
L 103.365645 285.86149 
L 103.010406 285.179421 
L 102.647835 284.501272 
L 102.277976 283.827122 
L 101.900871 283.15705 
" clip-path="url(#p974b94137d)" style="fill: none; stroke: #dc5e8b; stroke-width: 2.4; stroke-linecap: square"/>
   </g>
   <g id="line2d_5">
    <path d="M 175.15854 318.473612 
L 175.232988 315.213055 
L 175.456174 311.959382 
L 175.827628 308.719464 
L 176.346564 305.50014 
L 177.011888 302.308209 
L 177.822194 299.15041 
L 178.775771 296.03341 
L 179.870607 292.96379 
L 181.104389 289.948032 
L 182.474512 286.992504 
L 183.978084 284.103445 
L 185.611931 281.286955 
L 187.372601 278.548982 
L 189.256378 275.895306 
L 191.259284 273.331531 
L 193.377091 270.863069 
L 195.605326 268.495132 
L 197.939285 266.23272 
L 200.374041 264.080611 
L 202.904452 262.043347 
L 205.525175 260.125231 
L 208.230677 258.330313 
L 211.015247 256.662381 
L 213.873003 255.124959 
L 216.797913 253.721292 
L 219.783801 252.454343 
L 222.824362 251.326788 
L 225.913177 250.341008 
L 229.043723 249.499084 
L 232.209391 248.802793 
L 235.403497 248.253606 
L 238.619297 247.852682 
L 241.850001 247.600868 
L 245.088787 247.498696 
L 248.328817 247.546381 
L 251.56325 247.743822 
L 254.785257 248.090603 
L 257.988035 248.585992 
L 261.164821 249.228942 
L 264.308909 250.018096 
L 267.413659 250.951788 
L 270.472516 252.028046 
L 273.479021 253.244598 
L 276.426828 254.598875 
L 279.309711 256.088018 
L 282.121583 257.708883 
L 284.856509 259.458047 
L 287.508712 261.331818 
" clip-path="url(#p974b94137d)" style="fill: none; stroke: #dc5e8b; stroke-width: 2.4; stroke-linecap: square"/>
   </g>
   <g id="line2d_6">
    <path d="M 334.539717 148.84295 
L 334.845366 149.373915 
L 335.155564 149.902201 
L 335.470288 150.427768 
L 335.789515 150.950577 
L 336.113222 151.470588 
L 336.441382 151.987763 
L 336.773973 152.502063 
L 337.11097 153.01345 
L 337.452346 153.521886 
L 337.798077 154.027331 
L 338.148137 154.52975 
L 338.502499 155.029103 
L 338.861138 155.525354 
L 339.224026 156.018466 
L 339.591136 156.508402 
L 339.96244 156.995125 
L 340.337912 157.478599 
L 340.717523 157.958787 
L 341.101244 158.435654 
L 341.489047 158.909165 
L 341.880903 159.379283 
L 342.276782 159.845974 
L 342.676655 160.309202 
L 343.080493 160.768933 
L 343.488264 161.225134 
L 343.899939 161.677769 
L 344.315487 162.126804 
L 344.734876 162.572207 
L 345.158075 163.013944 
L 345.585053 163.451982 
L 346.015778 163.886288 
L 346.450217 164.31683 
L 346.888339 164.743575 
L 347.330109 165.166492 
L 347.775496 165.585549 
L 348.224466 166.000714 
L 348.676985 166.411958 
L 349.13302 166.819248 
L 349.592536 167.222554 
L 350.0555 167.621847 
L 350.521876 168.017097 
L 350.991629 168.408273 
L 351.464725 168.795348 
L 351.941129 169.178291 
L 352.420804 169.557074 
L 352.903715 169.931669 
L 353.389825 170.302048 
L 353.879099 170.668182 
" clip-path="url(#p974b94137d)" style="fill: none; stroke: #dc5e8b; stroke-width: 2.4; stroke-linecap: square"/>
   </g>
   <g id="text_1">
    <!-- $A$ -->
    <g transform="translate(10.415919 330.679844) scale(0.27 -0.27)">
     <defs>
      <path id="CMMI12-41" d="M 1088 691 
C 864 314 646 186 339 186 
C 269 180 218 180 218 58 
C 218 24 250 0 294 0 
C 410 0 698 0 813 0 
C 998 0 1203 0 1382 0 
C 1421 0 1498 0 1498 122 
C 1498 180 1446 186 1408 186 
C 1261 186 1139 236 1139 388 
C 1139 476 1178 546 1261 685 
L 1747 1479 
L 3379 1479 
C 3386 1423 3386 1373 3392 1316 
C 3411 1152 3488 495 3488 376 
C 3488 186 3162 186 3059 186 
C 2989 186 2918 186 2918 70 
C 2918 0 2976 0 3014 0 
C 3123 0 3251 0 3360 0 
L 3725 0 
C 4115 0 4397 0 4403 0 
C 4448 0 4518 0 4518 122 
C 4518 186 4461 186 4365 186 
C 4013 186 4006 244 3987 434 
L 3597 4404 
C 3584 4531 3558 4544 3488 4544 
C 3424 4544 3386 4531 3328 4435 
L 1088 691 
z
M 1856 1664 
L 3142 3819 
L 3360 1664 
L 1856 1664 
z
" transform="scale(0.015625)"/>
     </defs>
     <use xlink:href="#CMMI12-41" transform="scale(0.996264)"/>
    </g>
   </g>
   <g id="text_2">
    <!-- $B$ -->
    <g transform="translate(245.214937 344.202131) scale(0.27 -0.27)">
     <defs>
      <path id="CMMI12-42" d="M 2342 3921 
C 2400 4160 2426 4160 2675 4160 
L 3507 4160 
C 4230 4160 4230 3544 4230 3485 
C 4230 2966 3712 2304 2867 2304 
L 1946 2304 
L 2342 3921 
z
M 3424 2275 
C 4122 2402 4755 2886 4755 3473 
C 4755 3970 4314 4352 3590 4352 
L 1536 4352 
C 1414 4352 1357 4352 1357 4226 
C 1357 4160 1414 4160 1510 4160 
C 1901 4160 1901 4112 1901 4044 
C 1901 4032 1901 3993 1875 3897 
L 1011 472 
C 954 249 941 185 493 185 
C 371 185 307 185 307 70 
C 307 0 346 0 474 0 
L 2669 0 
C 3648 0 4403 739 4403 1383 
C 4403 1906 3942 2224 3424 2275 
z
M 2515 185 
L 1651 185 
C 1562 185 1549 185 1510 192 
C 1440 198 1434 211 1434 261 
C 1434 305 1446 343 1459 399 
L 1907 2176 
L 3110 2176 
C 3866 2176 3866 1483 3866 1433 
C 3866 828 3309 185 2515 185 
z
" transform="scale(0.015625)"/>
     </defs>
     <use xlink:href="#CMMI12-42" transform="scale(0.996264)"/>
    </g>
   </g>
   <g id="text_3">
    <!-- $C$ -->
    <g transform="translate(402.076666 106.077548) scale(0.27 -0.27)">
     <defs>
      <path id="CMMI12-43" d="M 4781 4423 
C 4781 4480 4736 4480 4723 4480 
C 4710 4480 4685 4480 4634 4416 
L 4192 3882 
C 3968 4264 3616 4480 3136 4480 
C 1754 4480 320 3088 320 1595 
C 320 533 1069 -128 2003 -128 
C 2515 -128 2963 88 3334 400 
C 3891 863 4058 1481 4058 1531 
C 4058 1588 4006 1588 3987 1588 
C 3930 1588 3923 1550 3910 1524 
C 3616 534 2752 57 2112 57 
C 1434 57 845 489 845 1391 
C 845 1595 909 2700 1632 3532 
C 1984 3939 2586 4295 3194 4295 
C 3898 4295 4211 3717 4211 3068 
C 4211 2903 4192 2764 4192 2738 
C 4192 2681 4256 2681 4275 2681 
C 4346 2681 4352 2687 4378 2801 
L 4781 4423 
z
" transform="scale(0.015625)"/>
     </defs>
     <use xlink:href="#CMMI12-43" transform="scale(0.996264)"/>
    </g>
   </g>
  </g>
 </g>
 <defs>
  <clipPath id="p974b94137d">
   <rect x="22.981841" y="10.8" width="390.476904" height="410.4"/>
  </clipPath>
 </defs>
</svg>
