<?xml version="1.0" encoding="utf-8" standalone="no"?>
<!DOCTYPE svg PUBLIC "-//W3C//DTD SVG 1.1//EN"
  "http://www.w3.org/Graphics/SVG/1.1/DTD/svg11.dtd">
<svg xmlns:xlink="http://www.w3.org/1999/xlink" width="432pt" height="432pt" viewBox="0 0 432 432" xmlns="http://www.w3.org/2000/svg" version="1.1">
 <metadata>
  <rdf:RDF xmlns:dc="http://purl.org/dc/elements/1.1/" xmlns:cc="http://creativecommons.org/ns#" xmlns:rdf="http://www.w3.org/1999/02/22-rdf-syntax-ns#">
   <cc:Work>
    <dc:type rdf:resource="http://purl.org/dc/dcmitype/StillImage"/>
    <dc:date>2026-03-22T02:14:12.050130</dc:date>
    <dc:format>image/svg+xml</dc:format>
    <dc:creator>
     <cc:Agent>
      <dc:title>Matplotlib v3.10.8, https://matplotlib.org/</dc:title>
     </cc:Agent>
    </dc:creator>
   </cc:Work>
  </rdf:RDF>
 </metadata>
 <defs>
  <style type="text/css">*{stroke-linejoin: round; stroke-linecap: butt}</style>
 </defs>
 <g id="figure_1">
  <g id="patch_1">
   <path d="M 0 432 
L 432 432 
L 432 0 
L 0 0 
L 0 432 
z
" style="fill: none"/>
  </g>
  <g id="axes_1">
   <g id="line2d_1">
    <path d="M 30.38845 324.401432 
L 247.191315 324.401432 
" clip-path="url(#pdb89759e22)" style="fill: none; stroke: #0072b2; stroke-width: 2.5; stroke-linecap: square"/>
   </g>
   <g id="line2d_2">
    <path d="M 247.191315 324.401432 
L 405.902027 107.598568 
" clip-path="url(#pdb89759e22)" style="fill: none; stroke: #0072b2; stroke-width: 2.5; stroke-linecap: square"/>
   </g>
   <g id="line2d_3">
    <path d="M 405.902027 107.598568 
L 30.38845 324.401432 
" clip-path="url(#pdb89759e22)" style="fill: none; stroke: #0072b2; stroke-width: 2.5; stroke-linecap: square"/>
   </g>
   <g id="line2d_4">
    <path d="M 63.957926 324.401432 
L 63.95595 324.034845 
L 63.950022 323.668301 
L 63.940144 323.301844 
L 63.926316 322.935515 
L 63.908539 322.56936 
L 63.886817 322.203419 
L 63.861151 321.837738 
L 63.831545 321.472359 
L 63.798001 321.107324 
L 63.760525 320.742677 
L 63.71912 320.378461 
L 63.673791 320.014718 
L 63.624544 319.651492 
L 63.571385 319.288825 
L 63.514319 318.92676 
L 63.453353 318.565339 
L 63.388495 318.204606 
L 63.319752 317.844602 
L 63.247132 317.48537 
L 63.170644 317.126951 
L 63.090297 316.76939 
L 63.0061 316.412727 
L 62.918064 316.057004 
L 62.826198 315.702263 
L 62.730513 315.348547 
L 62.631021 314.995896 
L 62.527733 314.644353 
L 62.420662 314.293958 
L 62.30982 313.944753 
L 62.19522 313.596779 
L 62.076876 313.250077 
L 61.954802 312.904688 
L 61.829011 312.560652 
L 61.699519 312.21801 
L 61.566341 311.876802 
L 61.429493 311.537069 
L 61.288991 311.19885 
L 61.144851 310.862185 
L 60.99709 310.527115 
L 60.845726 310.193677 
L 60.690776 309.861912 
L 60.53226 309.531859 
L 60.370194 309.203556 
L 60.204599 308.877043 
L 60.035495 308.552356 
L 59.8629 308.229536 
L 59.686835 307.908619 
L 59.507321 307.589644 
" clip-path="url(#pdb89759e22)" style="fill: none; stroke: #dc5e8b; stroke-width: 2; stroke-linecap: square"/>
   </g>
   <g id="line2d_5">
    <path d="M 213.621839 324.401432 
L 213.657279 322.849305 
L 213.763522 321.300455 
L 213.940346 319.758153 
L 214.187376 318.225654 
L 214.50409 316.706195 
L 214.889821 315.202984 
L 215.343754 313.719194 
L 215.86493 312.257959 
L 216.452249 310.822364 
L 217.104471 309.41544 
L 217.820218 308.040158 
L 218.59798 306.699421 
L 219.436114 305.39606 
L 220.332851 304.132827 
L 221.286297 302.91239 
L 222.294439 301.737325 
L 223.355149 300.610113 
L 224.466186 299.533134 
L 225.625206 298.508663 
L 226.829761 297.538861 
L 228.077307 296.625778 
L 229.365211 295.771341 
L 230.690753 294.977353 
L 232.051134 294.245492 
L 233.443483 293.577303 
L 234.864859 292.974195 
L 236.312261 292.437444 
L 237.782634 291.968182 
L 239.272872 291.5674 
L 240.779829 291.235943 
L 242.300323 290.974513 
L 243.831144 290.783661 
L 245.36906 290.66379 
L 246.910824 290.615152 
L 248.453179 290.637852 
L 249.992871 290.73184 
L 251.526647 290.896919 
L 253.051269 291.132739 
L 254.563519 291.438804 
L 256.060203 291.814466 
L 257.538161 292.258932 
L 258.994273 292.771265 
L 260.425464 293.350382 
L 261.828712 293.99506 
L 263.201054 294.703939 
L 264.539593 295.475521 
L 265.841503 296.308178 
L 267.104035 297.200151 
" clip-path="url(#pdb89759e22)" style="fill: none; stroke: #dc5e8b; stroke-width: 2; stroke-linecap: square"/>
   </g>
   <g id="line2d_6">
    <path d="M 376.783156 124.410356 
L 376.928655 124.663112 
L 377.076319 124.914592 
L 377.226137 125.164779 
L 377.3781 125.413652 
L 377.532194 125.661194 
L 377.688409 125.907385 
L 377.846732 126.152208 
L 378.007153 126.395644 
L 378.169659 126.637675 
L 378.334238 126.878283 
L 378.500877 127.11745 
L 378.669565 127.355158 
L 378.840288 127.591389 
L 379.013034 127.826126 
L 379.18779 128.059351 
L 379.364542 128.291046 
L 379.543279 128.521195 
L 379.723985 128.749779 
L 379.906648 128.976783 
L 380.091255 129.202189 
L 380.27779 129.42598 
L 380.466241 129.648139 
L 380.656594 129.86865 
L 380.848833 130.087497 
L 381.042945 130.304662 
L 381.238915 130.520131 
L 381.436729 130.733886 
L 381.636371 130.945912 
L 381.837827 131.156192 
L 382.041082 131.364712 
L 382.246121 131.571455 
L 382.452927 131.776406 
L 382.661487 131.97955 
L 382.871783 132.180872 
L 383.083801 132.380356 
L 383.297525 132.577988 
L 383.512938 132.773753 
L 383.730025 132.967636 
L 383.948769 133.159622 
L 384.169154 133.349698 
L 384.391164 133.537849 
L 384.614781 133.724062 
L 384.83999 133.908321 
L 385.066773 134.090614 
L 385.295113 134.270926 
L 385.524994 134.449245 
L 385.756398 134.625557 
L 385.989307 134.799849 
" clip-path="url(#pdb89759e22)" style="fill: none; stroke: #dc5e8b; stroke-width: 2; stroke-linecap: square"/>
   </g>
   <g id="text_1">
    <!-- $3$ -->
    <g transform="translate(134.67774 351.409023) scale(0.18 -0.18)">
     <defs>
      <path id="CMR17-33" d="M 1414 2157 
C 1984 2157 2234 1662 2234 1090 
C 2234 320 1824 25 1453 25 
C 1114 25 563 194 390 693 
C 422 680 454 680 486 680 
C 640 680 755 782 755 948 
C 755 1133 614 1216 486 1216 
C 378 1216 211 1165 211 926 
C 211 335 787 -128 1466 -128 
C 2176 -128 2720 430 2720 1085 
C 2720 1707 2208 2157 1600 2227 
C 2086 2328 2554 2756 2554 3329 
C 2554 3820 2048 4179 1472 4179 
C 890 4179 378 3829 378 3329 
C 378 3110 544 3072 627 3072 
C 762 3072 877 3155 877 3321 
C 877 3486 762 3569 627 3569 
C 602 3569 570 3569 544 3557 
C 730 3959 1235 4032 1459 4032 
C 1683 4032 2106 3925 2106 3320 
C 2106 3143 2080 2828 1862 2550 
C 1670 2304 1453 2304 1242 2284 
C 1210 2284 1062 2269 1037 2269 
C 992 2263 966 2257 966 2208 
C 966 2163 973 2157 1101 2157 
L 1414 2157 
z
" transform="scale(0.015625)"/>
     </defs>
     <use xlink:href="#CMR17-33" transform="scale(0.996264)"/>
    </g>
   </g>
   <g id="text_2">
    <!-- $3 \sqrt{5 - 2 \sqrt{3}}$ -->
    <g transform="translate(300.717964 236.633038) scale(0.18 -0.18)">
     <defs>
      <path id="CMEX10-70" d="M 2714 -7424 
C 2912 -7424 2918 -7418 2982 -7296 
L 6483 13 
C 6528 96 6528 109 6528 128 
C 6528 198 6477 256 6400 256 
C 6317 256 6291 198 6259 128 
L 2957 -6758 
L 1594 -3584 
L 704 -4269 
L 800 -4371 
L 1254 -4026 
L 2714 -7424 
z
" transform="scale(0.015625)"/>
      <path id="CMR17-35" d="M 730 3692 
C 794 3666 1056 3584 1325 3584 
C 1920 3584 2246 3911 2432 4100 
C 2432 4157 2432 4192 2394 4192 
C 2387 4192 2374 4192 2323 4163 
C 2099 4058 1837 3973 1517 3973 
C 1325 3973 1037 3999 723 4139 
C 653 4171 640 4171 634 4171 
C 602 4171 595 4164 595 4037 
L 595 2203 
C 595 2089 595 2057 659 2057 
C 691 2057 704 2070 736 2114 
C 941 2401 1222 2522 1542 2522 
C 1766 2522 2246 2382 2246 1289 
C 2246 1085 2246 715 2054 421 
C 1894 159 1645 25 1370 25 
C 947 25 518 320 403 814 
C 429 807 480 795 506 795 
C 589 795 749 840 749 1038 
C 749 1210 627 1280 506 1280 
C 358 1280 262 1190 262 1011 
C 262 454 704 -128 1382 -128 
C 2042 -128 2669 440 2669 1264 
C 2669 2030 2170 2624 1549 2624 
C 1222 2624 947 2503 730 2274 
L 730 3692 
z
" transform="scale(0.015625)"/>
      <path id="CMSY10-0" d="M 4218 1472 
C 4326 1472 4442 1472 4442 1600 
C 4442 1728 4326 1728 4218 1728 
L 755 1728 
C 646 1728 531 1728 531 1600 
C 531 1472 646 1472 755 1472 
L 4218 1472 
z
" transform="scale(0.015625)"/>
      <path id="CMR17-32" d="M 2669 989 
L 2554 989 
C 2490 536 2438 459 2413 420 
C 2381 369 1920 369 1830 369 
L 602 369 
C 832 619 1280 1072 1824 1597 
C 2214 1967 2669 2402 2669 3035 
C 2669 3790 2067 4224 1395 4224 
C 691 4224 262 3604 262 3030 
C 262 2780 448 2748 525 2748 
C 589 2748 781 2787 781 3010 
C 781 3207 614 3264 525 3264 
C 486 3264 448 3258 422 3245 
C 544 3790 915 4058 1306 4058 
C 1862 4058 2227 3617 2227 3035 
C 2227 2479 1901 2000 1536 1584 
L 262 146 
L 262 0 
L 2515 0 
L 2669 989 
z
" transform="scale(0.015625)"/>
      <path id="CMSY10-70" d="M 2490 -5472 
L 1363 -2982 
C 1318 -2880 1286 -2880 1267 -2880 
C 1261 -2880 1229 -2880 1158 -2931 
L 550 -3392 
C 467 -3456 467 -3475 467 -3494 
C 467 -3526 486 -3565 531 -3565 
C 570 -3565 678 -3475 749 -3424 
C 787 -3393 883 -3323 954 -3271 
L 2214 -6042 
C 2259 -6144 2291 -6144 2349 -6144 
C 2445 -6144 2464 -6106 2509 -6016 
L 5414 0 
C 5459 90 5459 115 5459 128 
C 5459 192 5408 256 5331 256 
C 5280 256 5235 224 5184 122 
L 2490 -5472 
z
" transform="scale(0.015625)"/>
     </defs>
     <use xlink:href="#CMR17-33" transform="scale(0.996264)"/>
     <use xlink:href="#CMEX10-70" transform="translate(45.690477 98.860262) scale(0.996264)"/>
     <use xlink:href="#CMR17-35" transform="translate(145.317152 0) scale(0.996264)"/>
     <use xlink:href="#CMSY10-0" transform="translate(213.146836 0) scale(0.996264)"/>
     <use xlink:href="#CMR17-32" transform="translate(312.77351 0) scale(0.996264)"/>
     <use xlink:href="#CMSY10-70" transform="translate(358.463988 82.421465) scale(0.996264)"/>
     <use xlink:href="#CMR17-33" transform="translate(441.486242 0) scale(0.996264)"/>
     <path d="M 145.317152 98.860262 
L 487.176719 98.860262 
L 487.176719 102.845211 
L 145.317152 102.845211 
L 145.317152 98.860262 
z
"/>
     <path d="M 441.486242 82.421465 
L 487.176719 82.421465 
L 487.176719 86.406414 
L 441.486242 86.406414 
L 441.486242 82.421465 
z
"/>
    </g>
   </g>
   <g id="text_3">
    <!-- $6$ -->
    <g transform="translate(202.897546 200.943982) scale(0.18 -0.18)">
     <defs>
      <path id="CMR17-36" d="M 678 2176 
C 678 3690 1395 4032 1811 4032 
C 1946 4032 2272 4009 2400 3776 
C 2298 3776 2106 3776 2106 3553 
C 2106 3381 2246 3323 2336 3323 
C 2394 3323 2566 3348 2566 3560 
C 2566 3954 2246 4179 1805 4179 
C 1043 4179 243 3390 243 1984 
C 243 253 966 -128 1478 -128 
C 2099 -128 2688 427 2688 1283 
C 2688 2081 2170 2662 1517 2662 
C 1126 2662 838 2407 678 1960 
L 678 2176 
z
M 1478 25 
C 691 25 691 1200 691 1436 
C 691 1896 909 2560 1504 2560 
C 1613 2560 1926 2560 2138 2120 
C 2253 1870 2253 1609 2253 1289 
C 2253 944 2253 690 2118 434 
C 1978 171 1773 25 1478 25 
z
" transform="scale(0.015625)"/>
     </defs>
     <use xlink:href="#CMR17-36" transform="scale(0.996264)"/>
    </g>
   </g>
   <g id="text_4">
    <!-- $A$ -->
    <g transform="translate(2.18178 334.683497) scale(0.18 -0.18)">
     <defs>
      <path id="CMMI12-41" d="M 1088 691 
C 864 314 646 186 339 186 
C 269 180 218 180 218 58 
C 218 24 250 0 294 0 
C 410 0 698 0 813 0 
C 998 0 1203 0 1382 0 
C 1421 0 1498 0 1498 122 
C 1498 180 1446 186 1408 186 
C 1261 186 1139 236 1139 388 
C 1139 476 1178 546 1261 685 
L 1747 1479 
L 3379 1479 
C 3386 1423 3386 1373 3392 1316 
C 3411 1152 3488 495 3488 376 
C 3488 186 3162 186 3059 186 
C 2989 186 2918 186 2918 70 
C 2918 0 2976 0 3014 0 
C 3123 0 3251 0 3360 0 
L 3725 0 
C 4115 0 4397 0 4403 0 
C 4448 0 4518 0 4518 122 
C 4518 186 4461 186 4365 186 
C 4013 186 4006 244 3987 434 
L 3597 4404 
C 3584 4531 3558 4544 3488 4544 
C 3424 4544 3386 4531 3328 4435 
L 1088 691 
z
M 1856 1664 
L 3142 3819 
L 3360 1664 
L 1856 1664 
z
" transform="scale(0.015625)"/>
     </defs>
     <use xlink:href="#CMMI12-41" transform="scale(0.996264)"/>
    </g>
   </g>
   <g id="text_5">
    <!-- $B$ -->
    <g transform="translate(250.615047 348.988011) scale(0.18 -0.18)">
     <defs>
      <path id="CMMI12-42" d="M 2342 3921 
C 2400 4160 2426 4160 2675 4160 
L 3507 4160 
C 4230 4160 4230 3544 4230 3485 
C 4230 2966 3712 2304 2867 2304 
L 1946 2304 
L 2342 3921 
z
M 3424 2275 
C 4122 2402 4755 2886 4755 3473 
C 4755 3970 4314 4352 3590 4352 
L 1536 4352 
C 1414 4352 1357 4352 1357 4226 
C 1357 4160 1414 4160 1510 4160 
C 1901 4160 1901 4112 1901 4044 
C 1901 4032 1901 3993 1875 3897 
L 1011 472 
C 954 249 941 185 493 185 
C 371 185 307 185 307 70 
C 307 0 346 0 474 0 
L 2669 0 
C 3648 0 4403 739 4403 1383 
C 4403 1906 3942 2224 3424 2275 
z
M 2515 185 
L 1651 185 
C 1562 185 1549 185 1510 192 
C 1440 198 1434 211 1434 261 
C 1434 305 1446 343 1459 399 
L 1907 2176 
L 3110 2176 
C 3866 2176 3866 1483 3866 1433 
C 3866 828 3309 185 2515 185 
z
" transform="scale(0.015625)"/>
     </defs>
     <use xlink:href="#CMMI12-42" transform="scale(0.996264)"/>
    </g>
   </g>
   <g id="text_6">
    <!-- $C$ -->
    <g transform="translate(416.322879 97.088566) scale(0.18 -0.18)">
     <defs>
      <path id="CMMI12-43" d="M 4781 4423 
C 4781 4480 4736 4480 4723 4480 
C 4710 4480 4685 4480 4634 4416 
L 4192 3882 
C 3968 4264 3616 4480 3136 4480 
C 1754 4480 320 3088 320 1595 
C 320 533 1069 -128 2003 -128 
C 2515 -128 2963 88 3334 400 
C 3891 863 4058 1481 4058 1531 
C 4058 1588 4006 1588 3987 1588 
C 3930 1588 3923 1550 3910 1524 
C 3616 534 2752 57 2112 57 
C 1434 57 845 489 845 1391 
C 845 1595 909 2700 1632 3532 
C 1984 3939 2586 4295 3194 4295 
C 3898 4295 4211 3717 4211 3068 
C 4211 2903 4192 2764 4192 2738 
C 4192 2681 4256 2681 4275 2681 
C 4346 2681 4352 2687 4378 2801 
L 4781 4423 
z
" transform="scale(0.015625)"/>
     </defs>
     <use xlink:href="#CMMI12-43" transform="scale(0.996264)"/>
    </g>
   </g>
  </g>
 </g>
 <defs>
  <clipPath id="pdb89759e22">
   <rect x="19.691089" y="10.8" width="396.9083" height="410.4"/>
  </clipPath>
 </defs>
</svg>
