<?xml version="1.0" encoding="utf-8" standalone="no"?>
<!DOCTYPE svg PUBLIC "-//W3C//DTD SVG 1.1//EN"
  "http://www.w3.org/Graphics/SVG/1.1/DTD/svg11.dtd">
<svg xmlns:xlink="http://www.w3.org/1999/xlink" width="460.8pt" height="345.6pt" viewBox="0 0 460.8 345.6" xmlns="http://www.w3.org/2000/svg" version="1.1">
 <metadata>
  <rdf:RDF xmlns:dc="http://purl.org/dc/elements/1.1/" xmlns:cc="http://creativecommons.org/ns#" xmlns:rdf="http://www.w3.org/1999/02/22-rdf-syntax-ns#">
   <cc:Work>
    <dc:type rdf:resource="http://purl.org/dc/dcmitype/StillImage"/>
    <dc:date>2026-01-19T21:34:03.709951</dc:date>
    <dc:format>image/svg+xml</dc:format>
    <dc:creator>
     <cc:Agent>
      <dc:title>Matplotlib v3.9.1, https://matplotlib.org/</dc:title>
     </cc:Agent>
    </dc:creator>
   </cc:Work>
  </rdf:RDF>
 </metadata>
 <defs>
  <style type="text/css">*{stroke-linejoin: round; stroke-linecap: butt}</style>
 </defs>
 <g id="figure_1">
  <g id="patch_1">
   <path d="M 0 345.6 
L 460.8 345.6 
L 460.8 0 
L 0 0 
L 0 345.6 
z
" style="fill: none"/>
  </g>
  <g id="axes_1">
   <g id="patch_2">
    <path d="M 10.8 334.8 
L 447 334.8 
L 447 24.444473 
L 10.8 24.444473 
L 10.8 334.8 
z
" style="fill: none"/>
   </g>
   <g id="matplotlib.axis_1">
    <g id="text_1">
     <!-- $x$ -->
     <g transform="translate(430.369782 204.377732) scale(0.3 -0.3)">
      <defs>
       <path id="CMMI12-78" d="M 3034 2606 
C 2829 2567 2752 2414 2752 2293 
C 2752 2139 2874 2088 2963 2088 
C 3155 2088 3290 2254 3290 2427 
C 3290 2695 2982 2816 2714 2816 
C 2323 2816 2106 2433 2048 2312 
C 1901 2816 1504 2816 1389 2816 
C 736 2816 390 1980 390 1839 
C 390 1814 416 1782 461 1782 
C 512 1782 525 1820 538 1846 
C 755 2555 1184 2689 1370 2689 
C 1658 2689 1715 2420 1715 2267 
C 1715 2127 1677 1980 1600 1673 
L 1382 798 
C 1286 415 1101 64 762 64 
C 730 64 570 64 435 147 
C 666 192 717 383 717 460 
C 717 588 621 664 499 664 
C 346 664 179 530 179 326 
C 179 57 480 -64 755 -64 
C 1062 -64 1280 179 1414 441 
C 1517 64 1837 -64 2074 -64 
C 2726 -64 3072 773 3072 913 
C 3072 945 3046 971 3008 971 
C 2950 971 2944 939 2925 888 
C 2752 326 2381 64 2093 64 
C 1869 64 1747 230 1747 492 
C 1747 632 1773 734 1875 1156 
L 2099 2024 
C 2195 2408 2413 2689 2707 2689 
C 2720 2689 2899 2689 3034 2606 
z
" transform="scale(0.015625)"/>
      </defs>
      <use xlink:href="#CMMI12-78" transform="scale(0.996264)"/>
     </g>
    </g>
   </g>
   <g id="matplotlib.axis_2">
    <g id="text_2">
     <!-- $y$ -->
     <g transform="translate(210.630756 18.631022) scale(0.3 -0.3)">
      <defs>
       <path id="CMMI12-79" d="M 1683 -700 
C 1510 -939 1261 -1152 947 -1152 
C 870 -1152 563 -1152 467 -889 
C 486 -895 518 -895 531 -895 
C 723 -895 851 -729 851 -582 
C 851 -435 730 -384 634 -384 
C 531 -384 307 -458 307 -759 
C 307 -1071 582 -1286 947 -1286 
C 1587 -1286 2234 -700 2413 6 
L 3040 2485 
C 3046 2517 3059 2556 3059 2594 
C 3059 2689 2982 2753 2886 2753 
C 2829 2753 2694 2727 2643 2535 
L 2170 658 
C 2138 543 2138 530 2086 460 
C 1958 281 1747 64 1440 64 
C 1082 64 1050 415 1050 588 
C 1050 952 1222 1443 1395 1903 
C 1466 2088 1504 2178 1504 2305 
C 1504 2574 1312 2816 998 2816 
C 410 2816 173 1890 173 1839 
C 173 1814 198 1782 243 1782 
C 301 1782 307 1807 333 1897 
C 486 2433 730 2689 979 2689 
C 1037 2689 1146 2689 1146 2478 
C 1146 2312 1075 2127 979 1884 
C 666 1047 666 837 666 683 
C 666 77 1101 -64 1421 -64 
C 1606 -64 1837 -6 2061 230 
L 2067 224 
C 1971 -147 1907 -392 1683 -700 
z
" transform="scale(0.015625)"/>
      </defs>
      <use xlink:href="#CMMI12-79" transform="scale(0.996264)"/>
     </g>
    </g>
   </g>
   <g id="line2d_1">
    <defs>
     <path id="m3fdbe46491" d="M 3 0 
L -3 -3 
L -3 3 
z
" style="stroke: #000000; stroke-linejoin: miter"/>
    </defs>
    <g>
     <use xlink:href="#m3fdbe46491" x="447" y="179.622236" style="stroke: #000000; stroke-linejoin: miter"/>
    </g>
   </g>
   <g id="line2d_2">
    <defs>
     <path id="mea3616f76e" d="M 0 -3 
L -3 3 
L 3 3 
z
" style="stroke: #000000; stroke-linejoin: miter"/>
    </defs>
    <g>
     <use xlink:href="#mea3616f76e" x="228.9" y="24.444473" style="stroke: #000000; stroke-linejoin: miter"/>
    </g>
   </g>
   <g id="line2d_3">
    <path d="M 128.478799 346.6 
L 132.743234 316.507948 
L 136.923384 288.56527 
L 140.997034 262.815283 
L 144.964182 239.143348 
L 148.824831 217.43782 
L 152.552353 197.726446 
L 156.173375 179.750138 
L 159.687896 163.406992 
L 163.095916 148.598104 
L 166.397436 135.227563 
L 169.592456 123.202459 
L 172.680974 112.432877 
L 175.662992 102.831901 
L 178.511884 94.391124 
L 181.254276 86.941184 
L 183.890167 80.404904 
L 186.446182 74.651137 
L 188.895697 69.677095 
L 191.238711 65.413845 
L 193.475224 61.795449 
L 195.605237 58.758968 
L 197.655374 56.213776 
L 199.625636 54.116602 
L 201.516023 52.425862 
L 203.326534 51.101655 
L 205.057169 50.105768 
L 206.734554 49.392284 
L 208.358689 48.9376 
L 209.956198 48.717029 
L 211.553708 48.721243 
L 213.151218 48.950244 
L 214.748727 49.40403 
L 216.372862 50.095816 
L 218.050247 51.054177 
L 219.780883 52.302714 
L 221.564768 53.865779 
L 223.42853 55.798234 
L 225.372166 58.139417 
L 227.395678 60.930352 
L 229.525691 64.257806 
L 231.73558 68.132419 
L 234.051969 72.655507 
L 236.448233 77.831903 
L 238.950998 83.778346 
L 241.560264 90.565269 
L 244.27603 98.266103 
L 247.071672 106.872004 
L 249.973814 116.533993 
L 252.982457 127.333741 
L 256.097601 139.355918 
L 259.319246 152.688191 
L 262.647391 167.421222 
L 266.082036 183.648673 
L 269.623183 201.467202 
L 273.27083 220.976463 
L 277.024977 242.27911 
L 280.885625 265.48079 
L 284.852774 290.690151 
L 288.926424 318.018837 
L 292.971201 346.6 
L 292.971201 346.6 
" clip-path="url(#pde6e945434)" style="fill: none; stroke: #0072b2; stroke-width: 2.5; stroke-linecap: square"/>
   </g>
   <g id="patch_3">
    <path d="M 228.9 334.8 
L 228.9 24.444473 
" style="fill: none; stroke: #000000; stroke-width: 0.8; stroke-linejoin: miter; stroke-linecap: square"/>
   </g>
   <g id="patch_4">
    <path d="M 447 334.8 
L 447 24.444473 
" style="fill: none"/>
   </g>
   <g id="patch_5">
    <path d="M 10.8 179.622236 
L 447 179.622236 
" style="fill: none; stroke: #000000; stroke-width: 0.8; stroke-linejoin: miter; stroke-linecap: square"/>
   </g>
   <g id="patch_6">
    <path d="M 10.8 24.444473 
L 447 24.444473 
" style="fill: none"/>
   </g>
   <g id="text_3">
    <g id="patch_7">
     <path d="M 401.317322 59.427556 
L 419.982678 59.427556 
Q 431.982678 59.427556 431.982678 47.427556 
L 431.982678 20.85861 
Q 431.982678 8.85861 419.982678 8.85861 
L 401.317322 8.85861 
Q 389.317322 8.85861 389.317322 20.85861 
L 389.317322 47.427556 
Q 389.317322 59.427556 401.317322 59.427556 
z
" style="fill: #ffffff; opacity: 0.7; stroke: #000000; stroke-width: 1.5; stroke-linejoin: miter"/>
    </g>
    <!-- A -->
    <g transform="translate(401.317322 41.614105) scale(0.3 -0.3)">
     <defs>
      <path id="CMSS17-41" d="M 2272 4416 
L 1722 4416 
L 166 0 
L 653 0 
L 1101 1280 
L 2816 1280 
L 3270 0 
L 3827 0 
L 2272 4416 
z
M 2694 1637 
L 1222 1637 
C 1530 2528 1914 3638 1958 3925 
L 1965 3925 
C 2010 3663 2138 3281 2246 2956 
L 2694 1637 
z
" transform="scale(0.015625)"/>
     </defs>
     <use xlink:href="#CMSS17-41" transform="scale(0.996264)"/>
    </g>
   </g>
  </g>
 </g>
 <defs>
  <clipPath id="pde6e945434">
   <rect x="10.8" y="24.444473" width="436.2" height="310.355527"/>
  </clipPath>
 </defs>
</svg>
