<?xml version="1.0" encoding="utf-8" standalone="no"?>
<!DOCTYPE svg PUBLIC "-//W3C//DTD SVG 1.1//EN"
  "http://www.w3.org/Graphics/SVG/1.1/DTD/svg11.dtd">
<svg xmlns:xlink="http://www.w3.org/1999/xlink" width="460.8pt" height="345.6pt" viewBox="0 0 460.8 345.6" xmlns="http://www.w3.org/2000/svg" version="1.1">
 <metadata>
  <rdf:RDF xmlns:dc="http://purl.org/dc/elements/1.1/" xmlns:cc="http://creativecommons.org/ns#" xmlns:rdf="http://www.w3.org/1999/02/22-rdf-syntax-ns#">
   <cc:Work>
    <dc:type rdf:resource="http://purl.org/dc/dcmitype/StillImage"/>
    <dc:date>2026-01-26T09:51:37.145248</dc:date>
    <dc:format>image/svg+xml</dc:format>
    <dc:creator>
     <cc:Agent>
      <dc:title>Matplotlib v3.9.1, https://matplotlib.org/</dc:title>
     </cc:Agent>
    </dc:creator>
   </cc:Work>
  </rdf:RDF>
 </metadata>
 <defs>
  <style type="text/css">*{stroke-linejoin: round; stroke-linecap: butt}</style>
 </defs>
 <g id="figure_1">
  <g id="patch_1">
   <path d="M 0 345.6 
L 460.8 345.6 
L 460.8 0 
L 0 0 
L 0 345.6 
z
" style="fill: none"/>
  </g>
  <g id="axes_1">
   <g id="patch_2">
    <path d="M 10.8 334.8 
L 447 334.8 
L 447 20.016315 
L 10.8 20.016315 
L 10.8 334.8 
z
" style="fill: none"/>
   </g>
   <g id="matplotlib.axis_1">
    <g id="text_1">
     <!-- $x$ -->
     <g transform="translate(435.913188 195.245154) scale(0.2 -0.2)">
      <defs>
       <path id="CMMI12-78" d="M 3034 2606 
C 2829 2567 2752 2414 2752 2293 
C 2752 2139 2874 2088 2963 2088 
C 3155 2088 3290 2254 3290 2427 
C 3290 2695 2982 2816 2714 2816 
C 2323 2816 2106 2433 2048 2312 
C 1901 2816 1504 2816 1389 2816 
C 736 2816 390 1980 390 1839 
C 390 1814 416 1782 461 1782 
C 512 1782 525 1820 538 1846 
C 755 2555 1184 2689 1370 2689 
C 1658 2689 1715 2420 1715 2267 
C 1715 2127 1677 1980 1600 1673 
L 1382 798 
C 1286 415 1101 64 762 64 
C 730 64 570 64 435 147 
C 666 192 717 383 717 460 
C 717 588 621 664 499 664 
C 346 664 179 530 179 326 
C 179 57 480 -64 755 -64 
C 1062 -64 1280 179 1414 441 
C 1517 64 1837 -64 2074 -64 
C 2726 -64 3072 773 3072 913 
C 3072 945 3046 971 3008 971 
C 2950 971 2944 939 2925 888 
C 2752 326 2381 64 2093 64 
C 1869 64 1747 230 1747 492 
C 1747 632 1773 734 1875 1156 
L 2099 2024 
C 2195 2408 2413 2689 2707 2689 
C 2720 2689 2899 2689 3034 2606 
z
" transform="scale(0.015625)"/>
      </defs>
      <use xlink:href="#CMMI12-78" transform="scale(0.996264)"/>
     </g>
    </g>
   </g>
   <g id="matplotlib.axis_2">
    <g id="text_2">
     <!-- $y$ -->
     <g transform="translate(215.387165 16.140682) scale(0.2 -0.2)">
      <defs>
       <path id="CMMI12-79" d="M 1683 -700 
C 1510 -939 1261 -1152 947 -1152 
C 870 -1152 563 -1152 467 -889 
C 486 -895 518 -895 531 -895 
C 723 -895 851 -729 851 -582 
C 851 -435 730 -384 634 -384 
C 531 -384 307 -458 307 -759 
C 307 -1071 582 -1286 947 -1286 
C 1587 -1286 2234 -700 2413 6 
L 3040 2485 
C 3046 2517 3059 2556 3059 2594 
C 3059 2689 2982 2753 2886 2753 
C 2829 2753 2694 2727 2643 2535 
L 2170 658 
C 2138 543 2138 530 2086 460 
C 1958 281 1747 64 1440 64 
C 1082 64 1050 415 1050 588 
C 1050 952 1222 1443 1395 1903 
C 1466 2088 1504 2178 1504 2305 
C 1504 2574 1312 2816 998 2816 
C 410 2816 173 1890 173 1839 
C 173 1814 198 1782 243 1782 
C 301 1782 307 1807 333 1897 
C 486 2433 730 2689 979 2689 
C 1037 2689 1146 2689 1146 2478 
C 1146 2312 1075 2127 979 1884 
C 666 1047 666 837 666 683 
C 666 77 1101 -64 1421 -64 
C 1606 -64 1837 -6 2061 230 
L 2067 224 
C 1971 -147 1907 -392 1683 -700 
z
" transform="scale(0.015625)"/>
      </defs>
      <use xlink:href="#CMMI12-79" transform="scale(0.996264)"/>
     </g>
    </g>
   </g>
   <g id="line2d_1">
    <defs>
     <path id="m0d9860e89b" d="M 3 0 
L -3 -3 
L -3 3 
z
" style="stroke: #000000; stroke-linejoin: miter"/>
    </defs>
    <g>
     <use xlink:href="#m0d9860e89b" x="447" y="177.408158" style="stroke: #000000; stroke-linejoin: miter"/>
    </g>
   </g>
   <g id="line2d_2">
    <defs>
     <path id="m274e91d018" d="M 0 -3 
L -3 3 
L 3 3 
z
" style="stroke: #000000; stroke-linejoin: miter"/>
    </defs>
    <g>
     <use xlink:href="#m274e91d018" x="228.9" y="20.016315" style="stroke: #000000; stroke-linejoin: miter"/>
    </g>
   </g>
   <g id="line2d_3">
    <path d="M 10.8 167.895464 
L 34.602893 168.745093 
L 53.613258 169.63804 
L 68.975975 170.574631 
L 81.4898 171.55281 
L 91.793737 172.574207 
L 100.340414 173.637831 
L 107.502582 174.746526 
L 113.546493 175.900374 
L 118.711774 177.107317 
L 123.131551 178.362314 
L 126.965574 179.676503 
L 130.320344 181.057242 
L 133.275737 182.511075 
L 135.885003 184.038504 
L 138.228017 185.665341 
L 140.331405 187.393732 
L 142.248416 189.255503 
L 144.005677 191.272998 
L 145.629811 193.480228 
L 147.12082 195.882286 
L 148.505329 198.53138 
L 149.809962 201.509144 
L 151.034719 204.863321 
L 152.179601 208.647035 
L 153.271232 213.035931 
L 154.309614 218.171176 
L 155.268119 224.055313 
L 156.173375 231.021731 
L 157.02538 239.355612 
L 157.824135 249.442222 
L 158.569639 261.812034 
L 159.261893 277.21141 
L 159.900897 296.716691 
L 160.486651 321.924907 
L 160.899627 346.6 
M 166.165372 -1 
L 166.770189 30.157471 
L 167.435818 53.472669 
L 168.154697 71.223762 
L 168.926827 85.092797 
L 169.778832 96.470117 
L 170.684087 105.627615 
L 171.642593 113.126434 
L 172.654349 119.357893 
L 173.745981 124.719964 
L 174.890862 129.257666 
L 176.11562 133.218463 
L 177.420253 136.68975 
L 178.804761 139.745779 
L 180.269145 142.449269 
L 181.840029 144.89117 
L 183.54404 147.131304 
L 185.381176 149.182323 
L 187.404688 151.10732 
L 189.641201 152.924382 
L 192.117341 154.647831 
L 194.912983 156.320198 
L 198.108002 157.968616 
L 201.835525 159.635819 
L 206.308552 161.384413 
L 211.953086 163.340888 
L 220.553012 166.058446 
L 233.120088 170.052564 
L 239.190624 172.225847 
L 244.063029 174.200463 
L 248.216554 176.119064 
L 251.837576 178.031974 
L 255.05922 179.981431 
L 257.961362 181.994982 
L 260.597253 184.093213 
L 262.993518 186.281775 
L 265.203406 188.598016 
L 267.253543 191.066511 
L 269.170555 193.72245 
L 270.981066 196.616607 
L 272.685076 199.769454 
L 274.282586 203.199915 
L 275.80022 206.995489 
L 277.237978 211.202536 
L 278.595862 215.872015 
L 279.900494 221.176742 
L 281.125252 227.101696 
L 282.296759 233.889039 
L 283.415016 241.718626 
L 284.480022 250.819979 
L 285.465153 261.177994 
L 286.397034 273.336413 
L 287.275664 287.734963 
L 288.101044 304.953929 
L 288.873173 325.770702 
L 289.475412 346.6 
M 300.07569 -1 
L 300.907746 19.17393 
L 301.813001 36.031176 
L 302.771507 49.944046 
L 303.809888 61.846273 
L 304.90152 71.842522 
L 306.046402 80.329779 
L 307.244534 87.604868 
L 308.522542 94.015568 
L 309.8538 99.575353 
L 311.264933 104.518731 
L 312.729317 108.851173 
L 314.273576 112.734892 
L 315.897711 116.223611 
L 317.601721 119.364559 
L 319.412232 122.238347 
L 321.329244 124.865265 
L 323.379381 127.295208 
L 325.562644 129.536519 
L 327.905658 131.622012 
L 330.435049 133.574164 
L 333.17744 135.408266 
L 336.186083 137.149024 
L 339.487603 138.797665 
L 343.108625 140.354874 
L 347.129024 141.839609 
L 351.628676 143.260698 
L 356.687457 144.620428 
L 362.385241 145.917311 
L 368.855155 147.15752 
L 376.256949 148.344759 
L 384.750375 149.476853 
L 394.57506 150.556977 
L 406.023878 151.586455 
L 419.469584 152.566138 
L 435.364805 153.495086 
L 447 154.058818 
L 447 154.058818 
" clip-path="url(#pc93b1d320f)" style="fill: none; stroke: #0072b2; stroke-width: 2.5; stroke-linecap: square"/>
   </g>
   <g id="LineCollection_1">
    <path d="M 163.47 334.8 
L 163.47 20.016315 
" clip-path="url(#pc93b1d320f)" style="fill: none; stroke-dasharray: 9.25,4; stroke-dashoffset: 0; stroke: #dc5e8b; stroke-width: 2.5"/>
   </g>
   <g id="LineCollection_2">
    <path d="M 294.33 334.8 
L 294.33 20.016315 
" clip-path="url(#pc93b1d320f)" style="fill: none; stroke-dasharray: 9.25,4; stroke-dashoffset: 0; stroke: #dc5e8b; stroke-width: 2.5"/>
   </g>
   <g id="LineCollection_3">
    <path d="M 10.8 161.668973 
L 447 161.668973 
" clip-path="url(#pc93b1d320f)" style="fill: none; stroke-dasharray: 9.25,4; stroke-dashoffset: 0; stroke: #dc5e8b; stroke-width: 2.5"/>
   </g>
   <g id="patch_3">
    <path d="M 228.9 334.8 
L 228.9 20.016315 
" style="fill: none; stroke: #000000; stroke-width: 0.8; stroke-linejoin: miter; stroke-linecap: square"/>
   </g>
   <g id="patch_4">
    <path d="M 447 334.8 
L 447 20.016315 
" style="fill: none"/>
   </g>
   <g id="patch_5">
    <path d="M 10.8 177.408158 
L 447 177.408158 
" style="fill: none; stroke: #000000; stroke-width: 0.8; stroke-linejoin: miter; stroke-linecap: square"/>
   </g>
   <g id="patch_6">
    <path d="M 10.8 20.016315 
L 447 20.016315 
" style="fill: none"/>
   </g>
   <g id="text_3">
    <g id="patch_7">
     <path d="M 332.360799 68.350999 
L 343.539201 68.350999 
Q 351.539201 68.350999 351.539201 60.350999 
L 351.539201 42.638368 
Q 351.539201 34.638368 343.539201 34.638368 
L 332.360799 34.638368 
Q 324.360799 34.638368 324.360799 42.638368 
L 324.360799 60.350999 
Q 324.360799 68.350999 332.360799 68.350999 
z
" style="fill: #ffffff; opacity: 0.7; stroke: #000000; stroke-width: 1.5; stroke-linejoin: miter"/>
    </g>
    <!-- E -->
    <g transform="translate(332.360799 56.475365) scale(0.2 -0.2)">
     <defs>
      <path id="CMSS17-45" d="M 1958 433 
C 1446 433 1216 433 1101 433 
L 1101 2107 
L 3085 2107 
L 3085 2496 
L 1101 2496 
L 1101 4009 
L 1926 4009 
C 2003 4009 2080 4009 2157 4009 
L 3251 4009 
L 3251 4416 
L 563 4416 
L 563 0 
L 3334 0 
L 3334 433 
L 1958 433 
z
" transform="scale(0.015625)"/>
     </defs>
     <use xlink:href="#CMSS17-45" transform="scale(0.996264)"/>
    </g>
   </g>
  </g>
 </g>
 <defs>
  <clipPath id="pc93b1d320f">
   <rect x="10.8" y="20.016315" width="436.2" height="314.783685"/>
  </clipPath>
 </defs>
</svg>
