<?xml version="1.0" encoding="utf-8" standalone="no"?>
<!DOCTYPE svg PUBLIC "-//W3C//DTD SVG 1.1//EN"
  "http://www.w3.org/Graphics/SVG/1.1/DTD/svg11.dtd">
<svg xmlns:xlink="http://www.w3.org/1999/xlink" width="491.999443pt" height="292.68063pt" viewBox="0 0 491.999443 292.68063" xmlns="http://www.w3.org/2000/svg" version="1.1">
 <metadata>
  <rdf:RDF xmlns:dc="http://purl.org/dc/elements/1.1/" xmlns:cc="http://creativecommons.org/ns#" xmlns:rdf="http://www.w3.org/1999/02/22-rdf-syntax-ns#">
   <cc:Work>
    <dc:type rdf:resource="http://purl.org/dc/dcmitype/StillImage"/>
    <dc:date>2025-09-30T16:38:45.636097</dc:date>
    <dc:format>image/svg+xml</dc:format>
    <dc:creator>
     <cc:Agent>
      <dc:title>Matplotlib v3.9.1, https://matplotlib.org/</dc:title>
     </cc:Agent>
    </dc:creator>
   </cc:Work>
  </rdf:RDF>
 </metadata>
 <defs>
  <style type="text/css">*{stroke-linejoin: round; stroke-linecap: butt}</style>
 </defs>
 <g id="figure_1">
  <g id="patch_1">
   <path d="M 0 292.68063 
L 491.999443 292.68063 
L 491.999443 0 
L 0 0 
L 0 292.68063 
z
" style="fill: none"/>
  </g>
  <g id="axes_1">
   <g id="line2d_1">
    <path d="M 70.229721 49.86063 
L 73.834159 61.878248 
L 77.328538 72.770623 
L 80.712857 82.608294 
L 84.014632 91.531182 
L 87.206348 99.523086 
L 90.288005 106.648436 
L 93.259603 112.96944 
L 96.121141 118.546083 
L 98.900135 123.482692 
L 101.56907 127.779313 
L 104.155461 131.527546 
L 106.631792 134.733037 
L 109.025579 137.475305 
L 111.336822 139.79059 
L 113.56552 141.713885 
L 115.711674 143.278931 
L 117.802798 144.532986 
L 119.838893 145.497156 
L 121.819958 146.191991 
L 123.773508 146.642209 
L 125.699544 146.857667 
L 127.598064 146.848086 
L 129.496585 146.61814 
L 131.422621 146.159684 
L 133.376171 145.462997 
L 135.357236 144.518221 
L 137.393331 143.297167 
L 139.484455 141.779286 
L 141.630609 139.943471 
L 143.859307 137.738993 
L 146.17055 135.13211 
L 148.564337 132.08783 
L 151.040668 128.569913 
L 153.599544 124.540867 
L 156.240964 119.961951 
L 158.992443 114.738651 
L 161.826467 108.874761 
L 164.77055 102.263132 
L 167.797177 94.913714 
L 170.933863 86.706074 
L 174.180609 77.576893 
L 177.537414 67.46063 
L 180.976763 56.381077 
L 182.902798 49.86063 
L 182.902798 49.86063 
" clip-path="url(#p6b75395aab)" style="fill: none; stroke: #0072b2; stroke-linecap: square"/>
   </g>
   <g id="line2d_2">
    <path d="M 149.901618 146.88063 
L 153.506056 134.863012 
L 157.000435 123.970637 
L 160.384754 114.132966 
L 163.686529 105.210079 
L 166.878245 97.218175 
L 169.959902 90.092824 
L 172.9315 83.771821 
L 175.793038 78.195178 
L 178.572032 73.258569 
L 181.240967 68.961947 
L 183.827358 65.213714 
L 186.303689 62.008223 
L 188.697476 59.265956 
L 191.008719 56.950671 
L 193.237417 55.027376 
L 195.383571 53.46233 
L 197.474695 52.208275 
L 199.51079 51.244105 
L 201.491855 50.549269 
L 203.445405 50.099052 
L 205.37144 49.883594 
L 207.269961 49.893175 
L 209.168482 50.12312 
L 211.094517 50.581577 
L 213.048068 51.278264 
L 215.029133 52.22304 
L 217.065227 53.444093 
L 219.156352 54.961975 
L 221.302506 56.79779 
L 223.531204 59.002268 
L 225.842446 61.609151 
L 228.236233 64.65343 
L 230.712565 68.171348 
L 233.27144 72.200394 
L 235.912861 76.77931 
L 238.66434 82.00261 
L 241.498364 87.8665 
L 244.442446 94.478129 
L 247.469074 101.827546 
L 250.60576 110.035187 
L 253.852506 119.164368 
L 257.20931 129.28063 
L 260.648659 140.360183 
L 262.574695 146.88063 
L 262.574695 146.88063 
" clip-path="url(#p6b75395aab)" style="fill: none; stroke: #0072b2; stroke-linecap: square"/>
   </g>
   <g id="line2d_3">
    <path d="M 229.573515 49.86063 
L 233.177953 61.878248 
L 236.672331 72.770623 
L 240.056651 82.608294 
L 243.358426 91.531182 
L 246.550142 99.523086 
L 249.631799 106.648436 
L 252.603396 112.96944 
L 255.464935 118.546083 
L 258.243929 123.482692 
L 260.912864 127.779313 
L 263.499254 131.527546 
L 265.975586 134.733037 
L 268.369373 137.475305 
L 270.680615 139.79059 
L 272.909314 141.713885 
L 275.055467 143.278931 
L 277.146592 144.532986 
L 279.182686 145.497156 
L 281.163751 146.191991 
L 283.117302 146.642209 
L 285.043337 146.857667 
L 286.941858 146.848086 
L 288.840379 146.61814 
L 290.766414 146.159684 
L 292.719964 145.462997 
L 294.70103 144.518221 
L 296.737124 143.297167 
L 298.828248 141.779286 
L 300.974402 139.943471 
L 303.203101 137.738993 
L 305.514343 135.13211 
L 307.90813 132.08783 
L 310.384461 128.569913 
L 312.943337 124.540867 
L 315.584757 119.961951 
L 318.336237 114.738651 
L 321.17026 108.874761 
L 324.114343 102.263132 
L 327.14097 94.913714 
L 330.277657 86.706074 
L 333.524402 77.576893 
L 336.881207 67.46063 
L 340.320556 56.381077 
L 342.246592 49.86063 
L 342.246592 49.86063 
" clip-path="url(#p6b75395aab)" style="fill: none; stroke: #0072b2; stroke-linecap: square"/>
   </g>
   <g id="line2d_4">
    <path d="M 309.245411 146.88063 
L 312.849849 134.863012 
L 316.344228 123.970637 
L 319.728548 114.132966 
L 323.030323 105.210079 
L 326.222039 97.218175 
L 329.303696 90.092824 
L 332.275293 83.771821 
L 335.136832 78.195178 
L 337.915826 73.258569 
L 340.584761 68.961947 
L 343.171151 65.213714 
L 345.647483 62.008223 
L 348.041269 59.265956 
L 350.352512 56.950671 
L 352.58121 55.027376 
L 354.727364 53.46233 
L 356.818488 52.208275 
L 358.854583 51.244105 
L 360.835648 50.549269 
L 362.789198 50.099052 
L 364.715234 49.883594 
L 366.613755 49.893175 
L 368.512275 50.12312 
L 370.438311 50.581577 
L 372.391861 51.278264 
L 374.372926 52.22304 
L 376.409021 53.444093 
L 378.500145 54.961975 
L 380.646299 56.79779 
L 382.874997 59.002268 
L 385.18624 61.609151 
L 387.580027 64.65343 
L 390.056358 68.171348 
L 392.615234 72.200394 
L 395.256654 76.77931 
L 398.008133 82.00261 
L 400.842157 87.8665 
L 403.78624 94.478129 
L 406.812867 101.827546 
L 409.949554 110.035187 
L 413.196299 119.164368 
L 416.553104 129.28063 
L 419.992453 140.360183 
L 421.918488 146.88063 
L 421.918488 146.88063 
" clip-path="url(#p6b75395aab)" style="fill: none; stroke: #0072b2; stroke-linecap: square"/>
   </g>
   <g id="line2d_5">
    <path d="M 70.229721 243.90063 
L 73.834159 231.883012 
L 77.328538 220.990637 
L 80.712857 211.152966 
L 84.014632 202.230079 
L 87.206348 194.238175 
L 90.288005 187.112824 
L 93.259603 180.791821 
L 96.121141 175.215178 
L 98.900135 170.278569 
L 101.56907 165.981947 
L 104.155461 162.233714 
L 106.631792 159.028223 
L 109.025579 156.285956 
L 111.336822 153.970671 
L 113.56552 152.047376 
L 115.711674 150.48233 
L 117.802798 149.228275 
L 119.838893 148.264105 
L 121.819958 147.569269 
L 123.773508 147.119052 
L 125.699544 146.903594 
L 127.598064 146.913175 
L 129.496585 147.14312 
L 131.422621 147.601577 
L 133.376171 148.298264 
L 135.357236 149.24304 
L 137.393331 150.464093 
L 139.484455 151.981975 
L 141.630609 153.81779 
L 143.859307 156.022268 
L 146.17055 158.629151 
L 148.564337 161.67343 
L 151.040668 165.191348 
L 153.599544 169.220394 
L 156.240964 173.79931 
L 158.992443 179.02261 
L 161.826467 184.8865 
L 164.77055 191.498129 
L 167.797177 198.847546 
L 170.933863 207.055187 
L 174.180609 216.184368 
L 177.537414 226.30063 
L 180.976763 237.380183 
L 182.902798 243.90063 
L 182.902798 243.90063 
" clip-path="url(#p6b75395aab)" style="fill: none; stroke: #0072b2; stroke-linecap: square"/>
   </g>
   <g id="line2d_6">
    <path d="M 149.901618 146.88063 
L 153.506056 158.898248 
L 157.000435 169.790623 
L 160.384754 179.628294 
L 163.686529 188.551182 
L 166.878245 196.543086 
L 169.959902 203.668436 
L 172.9315 209.98944 
L 175.793038 215.566083 
L 178.572032 220.502692 
L 181.240967 224.799313 
L 183.827358 228.547546 
L 186.303689 231.753037 
L 188.697476 234.495305 
L 191.008719 236.81059 
L 193.237417 238.733885 
L 195.383571 240.298931 
L 197.474695 241.552986 
L 199.51079 242.517156 
L 201.491855 243.211991 
L 203.445405 243.662209 
L 205.37144 243.877667 
L 207.269961 243.868086 
L 209.168482 243.63814 
L 211.094517 243.179684 
L 213.048068 242.482997 
L 215.029133 241.538221 
L 217.065227 240.317167 
L 219.156352 238.799286 
L 221.302506 236.963471 
L 223.531204 234.758993 
L 225.842446 232.15211 
L 228.236233 229.10783 
L 230.712565 225.589913 
L 233.27144 221.560867 
L 235.912861 216.981951 
L 238.66434 211.758651 
L 241.498364 205.894761 
L 244.442446 199.283132 
L 247.469074 191.933714 
L 250.60576 183.726074 
L 253.852506 174.596893 
L 257.20931 164.48063 
L 260.648659 153.401077 
L 262.574695 146.88063 
L 262.574695 146.88063 
" clip-path="url(#p6b75395aab)" style="fill: none; stroke: #0072b2; stroke-linecap: square"/>
   </g>
   <g id="line2d_7">
    <path d="M 229.573515 243.90063 
L 233.177953 231.883012 
L 236.672331 220.990637 
L 240.056651 211.152966 
L 243.358426 202.230079 
L 246.550142 194.238175 
L 249.631799 187.112824 
L 252.603396 180.791821 
L 255.464935 175.215178 
L 258.243929 170.278569 
L 260.912864 165.981947 
L 263.499254 162.233714 
L 265.975586 159.028223 
L 268.369373 156.285956 
L 270.680615 153.970671 
L 272.909314 152.047376 
L 275.055467 150.48233 
L 277.146592 149.228275 
L 279.182686 148.264105 
L 281.163751 147.569269 
L 283.117302 147.119052 
L 285.043337 146.903594 
L 286.941858 146.913175 
L 288.840379 147.14312 
L 290.766414 147.601577 
L 292.719964 148.298264 
L 294.70103 149.24304 
L 296.737124 150.464093 
L 298.828248 151.981975 
L 300.974402 153.81779 
L 303.203101 156.022268 
L 305.514343 158.629151 
L 307.90813 161.67343 
L 310.384461 165.191348 
L 312.943337 169.220394 
L 315.584757 173.79931 
L 318.336237 179.02261 
L 321.17026 184.8865 
L 324.114343 191.498129 
L 327.14097 198.847546 
L 330.277657 207.055187 
L 333.524402 216.184368 
L 336.881207 226.30063 
L 340.320556 237.380183 
L 342.246592 243.90063 
L 342.246592 243.90063 
" clip-path="url(#p6b75395aab)" style="fill: none; stroke: #0072b2; stroke-linecap: square"/>
   </g>
   <g id="line2d_8">
    <path d="M 309.245411 146.88063 
L 312.849849 158.898248 
L 316.344228 169.790623 
L 319.728548 179.628294 
L 323.030323 188.551182 
L 326.222039 196.543086 
L 329.303696 203.668436 
L 332.275293 209.98944 
L 335.136832 215.566083 
L 337.915826 220.502692 
L 340.584761 224.799313 
L 343.171151 228.547546 
L 345.647483 231.753037 
L 348.041269 234.495305 
L 350.352512 236.81059 
L 352.58121 238.733885 
L 354.727364 240.298931 
L 356.818488 241.552986 
L 358.854583 242.517156 
L 360.835648 243.211991 
L 362.789198 243.662209 
L 364.715234 243.877667 
L 366.613755 243.868086 
L 368.512275 243.63814 
L 370.438311 243.179684 
L 372.391861 242.482997 
L 374.372926 241.538221 
L 376.409021 240.317167 
L 378.500145 238.799286 
L 380.646299 236.963471 
L 382.874997 234.758993 
L 385.18624 232.15211 
L 387.580027 229.10783 
L 390.056358 225.589913 
L 392.615234 221.560867 
L 395.256654 216.981951 
L 398.008133 211.758651 
L 400.842157 205.894761 
L 403.78624 199.283132 
L 406.812867 191.933714 
L 409.949554 183.726074 
L 413.196299 174.596893 
L 416.553104 164.48063 
L 419.992453 153.401077 
L 421.918488 146.88063 
L 421.918488 146.88063 
" clip-path="url(#p6b75395aab)" style="fill: none; stroke: #0072b2; stroke-linecap: square"/>
   </g>
   <g id="LineCollection_1">
    <path d="M 70.229721 243.90063 
L 70.229721 49.86063 
" clip-path="url(#p6b75395aab)" style="fill: none; stroke: #0072b2"/>
   </g>
   <g id="LineCollection_2">
    <path d="M 421.918488 243.90063 
L 421.918488 49.86063 
" clip-path="url(#p6b75395aab)" style="fill: none; stroke: #0072b2"/>
   </g>
   <g id="LineCollection_3">
    <path d="M 70.229721 243.90063 
L 421.918488 243.90063 
" clip-path="url(#p6b75395aab)" style="fill: none; stroke: #0072b2"/>
   </g>
   <g id="LineCollection_4">
    <path d="M 70.229721 49.86063 
L 421.918488 49.86063 
" clip-path="url(#p6b75395aab)" style="fill: none; stroke: #0072b2"/>
   </g>
   <g id="LineCollection_5">
    <path d="M 149.901618 146.88063 
L 262.574695 146.88063 
" clip-path="url(#p6b75395aab)" style="fill: none; stroke: #0072b2"/>
   </g>
   <g id="LineCollection_6">
    <path d="M 309.245411 146.88063 
L 421.918488 146.88063 
" clip-path="url(#p6b75395aab)" style="fill: none; stroke: #0072b2"/>
   </g>
   <g id="LineCollection_7">
    <path d="M 70.229721 98.37063 
L 421.918488 98.37063 
" clip-path="url(#p6b75395aab)" style="fill: none; stroke-dasharray: 3.7,1.6; stroke-dashoffset: 0; stroke: #808080"/>
   </g>
   <g id="LineCollection_8">
    <path d="M 70.229721 146.88063 
L 421.918488 146.88063 
" clip-path="url(#p6b75395aab)" style="fill: none; stroke-dasharray: 3.7,1.6; stroke-dashoffset: 0; stroke: #808080"/>
   </g>
   <g id="patch_2">
    <path d="M 180.905024 36.00063 
Q 126.568814 36.00063 72.232604 36.00063 
" style="fill: none; stroke: #000000; stroke-linecap: round"/>
    <path d="M 180.905024 41.00063 
L 180.905024 41.00063 
L 180.905024 31.00063 
L 180.905024 31.00063 
" style="fill: none; stroke: #000000; stroke-linecap: round"/>
    <path d="M 72.232604 31.00063 
L 72.232604 31.00063 
L 72.232604 41.00063 
L 72.232604 41.00063 
" style="fill: none; stroke: #000000; stroke-linecap: round"/>
   </g>
   <g id="patch_3">
    <path d="M 61.215875 51.859181 
Q 61.215875 74.114217 61.215875 96.369253 
" style="fill: none; stroke: #000000; stroke-linecap: round"/>
    <path d="M 66.215875 51.859181 
L 66.215875 51.859181 
L 56.215875 51.859181 
L 56.215875 51.859181 
" style="fill: none; stroke: #000000; stroke-linecap: round"/>
    <path d="M 56.215875 96.369253 
L 56.215875 96.369253 
L 66.215875 96.369253 
L 66.215875 96.369253 
" style="fill: none; stroke: #000000; stroke-linecap: round"/>
   </g>
   <g id="patch_4">
    <path d="M 430.783567 51.859181 
Q 430.783567 98.370916 430.783567 144.882651 
" style="fill: none; stroke: #000000; stroke-linecap: round"/>
    <path d="M 435.783567 51.859181 
L 435.783567 51.859181 
L 425.783567 51.859181 
L 425.783567 51.859181 
" style="fill: none; stroke: #000000; stroke-linecap: round"/>
    <path d="M 425.783567 144.882651 
L 425.783567 144.882651 
L 435.783567 144.882651 
L 435.783567 144.882651 
" style="fill: none; stroke: #000000; stroke-linecap: round"/>
   </g>
   <g id="text_1">
    <!-- 150 cm -->
    <g transform="translate(97.803461 21.036997) scale(0.2 -0.2)">
     <defs>
      <path id="CMSS17-31" d="M 1818 4288 
L 1696 4288 
C 1350 3940 947 3890 538 3890 
L 538 3520 
C 723 3520 1024 3520 1325 3667 
L 1325 369 
L 570 369 
L 570 0 
L 2573 0 
L 2573 369 
L 1818 369 
L 1818 4288 
z
" transform="scale(0.015625)"/>
      <path id="CMSS17-35" d="M 934 3752 
L 2502 3752 
L 2502 4160 
L 467 4160 
L 467 1781 
L 896 1781 
C 1011 2046 1248 2240 1555 2240 
C 1843 2240 2163 1989 2163 1266 
C 2163 493 1709 267 1376 267 
C 966 267 589 512 422 851 
L 218 499 
C 512 49 992 -128 1376 -128 
C 2118 -128 2701 497 2701 1253 
C 2701 2030 2182 2629 1562 2629 
C 1338 2629 1120 2553 934 2399 
L 934 3752 
z
" transform="scale(0.015625)"/>
      <path id="CMSS17-30" d="M 2758 2044 
C 2758 2405 2752 3077 2490 3596 
C 2227 4096 1805 4229 1504 4229 
C 1069 4229 698 3975 506 3570 
C 301 3146 243 2709 243 2044 
C 243 1589 262 1031 493 543 
C 755 5 1197 -128 1498 -128 
C 1894 -128 2278 81 2496 518 
C 2720 974 2758 1474 2758 2044 
z
M 1498 261 
C 1011 261 864 811 819 995 
C 742 1310 730 1614 730 2114 
C 730 2506 730 2948 851 3297 
C 998 3701 1254 3840 1498 3840 
C 1971 3840 2125 3372 2176 3208 
C 2272 2873 2272 2481 2272 2114 
C 2272 1526 2272 261 1498 261 
z
" transform="scale(0.015625)"/>
      <path id="CMSS17-63" d="M 2464 2541 
C 2464 2585 2170 2714 2093 2739 
C 1882 2816 1613 2816 1542 2816 
C 710 2816 211 2093 211 1363 
C 211 595 768 -64 1517 -64 
C 1946 -64 2253 76 2502 242 
L 2464 664 
C 2189 453 1869 337 1523 337 
C 1024 337 698 774 698 1369 
C 698 1831 909 2414 1549 2414 
C 1901 2414 2099 2343 2394 2145 
L 2464 2541 
z
" transform="scale(0.015625)"/>
      <path id="CMSS17-6d" d="M 4288 1877 
C 4288 2308 4179 2816 3462 2816 
C 2982 2816 2694 2516 2566 2331 
C 2451 2670 2182 2816 1798 2816 
C 1363 2816 1088 2568 941 2389 
L 941 2758 
L 474 2758 
L 474 0 
L 960 0 
L 960 1559 
C 960 1939 1101 2428 1555 2428 
C 2138 2428 2138 2016 2138 1829 
L 2138 0 
L 2624 0 
L 2624 1559 
C 2624 1939 2765 2428 3219 2428 
C 3802 2428 3802 2016 3802 1829 
L 3802 0 
L 4288 0 
L 4288 1877 
z
" transform="scale(0.015625)"/>
     </defs>
     <use xlink:href="#CMSS17-31" transform="scale(0.996264)"/>
     <use xlink:href="#CMSS17-35" transform="translate(46.843624 0) scale(0.996264)"/>
     <use xlink:href="#CMSS17-30" transform="translate(93.687247 0) scale(0.996264)"/>
     <use xlink:href="#CMSS17-63" transform="translate(171.759983 0) scale(0.996264)"/>
     <use xlink:href="#CMSS17-6d" transform="translate(213.398805 0) scale(0.996264)"/>
    </g>
   </g>
   <g id="text_2">
    <!-- 35 cm -->
    <g transform="translate(7.2 79.096312) scale(0.2 -0.2)">
     <defs>
      <path id="CMSS17-33" d="M 1005 2025 
L 1440 2025 
C 2042 2025 2214 1507 2214 1146 
C 2214 653 1933 267 1472 267 
C 1114 267 608 444 320 912 
C 275 691 275 678 250 526 
C 550 88 1037 -128 1485 -128 
C 2214 -128 2752 473 2752 1138 
C 2752 1638 2400 2057 1920 2215 
C 2304 2424 2586 2816 2586 3273 
C 2586 3805 2093 4229 1491 4229 
C 941 4229 512 3892 333 3530 
C 378 3468 493 3284 550 3189 
C 691 3562 1056 3840 1485 3840 
C 1843 3840 2080 3607 2080 3271 
C 2080 2923 1856 2543 1478 2455 
C 1453 2455 1056 2417 1005 2411 
L 1005 2025 
z
" transform="scale(0.015625)"/>
     </defs>
     <use xlink:href="#CMSS17-33" transform="scale(0.996264)"/>
     <use xlink:href="#CMSS17-35" transform="translate(46.843624 0) scale(0.996264)"/>
     <use xlink:href="#CMSS17-63" transform="translate(124.91636 0) scale(0.996264)"/>
     <use xlink:href="#CMSS17-6d" transform="translate(166.555182 0) scale(0.996264)"/>
    </g>
   </g>
   <g id="text_3">
    <!-- 70 cm -->
    <g transform="translate(436.642567 103.351312) scale(0.2 -0.2)">
     <defs>
      <path id="CMSS17-37" d="M 1389 3776 
C 1466 3776 1542 3776 1619 3776 
L 2355 3776 
C 1440 2711 915 1365 915 -32 
L 1427 -32 
C 1427 1323 1875 2696 2752 3795 
L 2752 4209 
L 250 4209 
L 250 3776 
L 1389 3776 
z
" transform="scale(0.015625)"/>
     </defs>
     <use xlink:href="#CMSS17-37" transform="scale(0.996264)"/>
     <use xlink:href="#CMSS17-30" transform="translate(46.843624 0) scale(0.996264)"/>
     <use xlink:href="#CMSS17-63" transform="translate(124.91636 0) scale(0.996264)"/>
     <use xlink:href="#CMSS17-6d" transform="translate(166.555182 0) scale(0.996264)"/>
    </g>
   </g>
  </g>
 </g>
 <defs>
  <clipPath id="p6b75395aab">
   <rect x="55.206644" y="8.28063" width="390.6" height="277.2"/>
  </clipPath>
 </defs>
</svg>
