<?xml version="1.0" encoding="utf-8" standalone="no"?>
<!DOCTYPE svg PUBLIC "-//W3C//DTD SVG 1.1//EN"
  "http://www.w3.org/Graphics/SVG/1.1/DTD/svg11.dtd">
<svg xmlns:xlink="http://www.w3.org/1999/xlink" width="576pt" height="180pt" viewBox="0 0 576 180" xmlns="http://www.w3.org/2000/svg" version="1.1">
 <metadata>
  <rdf:RDF xmlns:dc="http://purl.org/dc/elements/1.1/" xmlns:cc="http://creativecommons.org/ns#" xmlns:rdf="http://www.w3.org/1999/02/22-rdf-syntax-ns#">
   <cc:Work>
    <dc:type rdf:resource="http://purl.org/dc/dcmitype/StillImage"/>
    <dc:date>2026-02-18T14:24:41.024327</dc:date>
    <dc:format>image/svg+xml</dc:format>
    <dc:creator>
     <cc:Agent>
      <dc:title>Matplotlib v3.9.1, https://matplotlib.org/</dc:title>
     </cc:Agent>
    </dc:creator>
   </cc:Work>
  </rdf:RDF>
 </metadata>
 <defs>
  <style type="text/css">*{stroke-linejoin: round; stroke-linecap: butt}</style>
 </defs>
 <g id="figure_1">
  <g id="patch_1">
   <path d="M 0 180 
L 576 180 
L 576 0 
L 0 0 
L 0 180 
z
" style="fill: none"/>
  </g>
  <g id="axes_1">
   <g id="patch_2">
    <path d="M 36 115.91985 
L 139.679401 115.91985 
L 139.679401 64.08015 
L 36 64.08015 
z
" clip-path="url(#p123badd0e9)" style="fill: #0072b2; opacity: 0.3; stroke: #0072b2; stroke-linejoin: miter"/>
   </g>
   <g id="patch_3">
    <path d="M 150.047341 115.91985 
L 232.990862 115.91985 
L 232.990862 69.26412 
L 150.047341 69.26412 
z
" clip-path="url(#p123badd0e9)" style="fill: #0072b2; opacity: 0.3; stroke: #0072b2; stroke-linejoin: miter"/>
   </g>
   <g id="patch_4">
    <path d="M 243.358802 115.91985 
L 309.713618 115.91985 
L 309.713618 73.929693 
L 243.358802 73.929693 
z
" clip-path="url(#p123badd0e9)" style="fill: #0072b2; opacity: 0.3; stroke: #0072b2; stroke-linejoin: miter"/>
   </g>
   <g id="patch_5">
    <path d="M 320.081558 115.91985 
L 373.165412 115.91985 
L 373.165412 78.128709 
L 320.081558 78.128709 
z
" clip-path="url(#p123badd0e9)" style="fill: #0072b2; opacity: 0.3; stroke: #0072b2; stroke-linejoin: miter"/>
   </g>
   <g id="patch_6">
    <path d="M 383.533352 115.91985 
L 426.000434 115.91985 
L 426.000434 81.907823 
L 383.533352 81.907823 
z
" clip-path="url(#p123badd0e9)" style="fill: #0072b2; opacity: 0.3; stroke: #0072b2; stroke-linejoin: miter"/>
   </g>
   <g id="patch_7">
    <path d="M 436.368375 115.91985 
L 470.342041 115.91985 
L 470.342041 85.309026 
L 436.368375 85.309026 
z
" clip-path="url(#p123badd0e9)" style="fill: #0072b2; opacity: 0.3; stroke: #0072b2; stroke-linejoin: miter"/>
   </g>
   <g id="patch_8">
    <path d="M 480.709981 115.91985 
L 507.888914 115.91985 
L 507.888914 88.370108 
L 480.709981 88.370108 
z
" clip-path="url(#p123badd0e9)" style="fill: #0072b2; opacity: 0.3; stroke: #0072b2; stroke-linejoin: miter"/>
   </g>
   <g id="patch_9">
    <path d="M 518.256854 115.91985 
L 540 115.91985 
L 540 91.125082 
L 518.256854 91.125082 
z
" clip-path="url(#p123badd0e9)" style="fill: #0072b2; opacity: 0.3; stroke: #0072b2; stroke-linejoin: miter"/>
   </g>
   <g id="line2d_1">
    <path d="M 36 115.91985 
L 139.679401 115.91985 
L 139.679401 64.08015 
L 36 64.08015 
L 36 115.91985 
" clip-path="url(#p123badd0e9)" style="fill: none; stroke: #000000; stroke-width: 1.5; stroke-linecap: square"/>
   </g>
   <g id="line2d_2">
    <path d="M 150.047341 115.91985 
L 232.990862 115.91985 
L 232.990862 69.26412 
L 150.047341 69.26412 
L 150.047341 115.91985 
" clip-path="url(#p123badd0e9)" style="fill: none; stroke: #000000; stroke-width: 1.5; stroke-linecap: square"/>
   </g>
   <g id="line2d_3">
    <path d="M 243.358802 115.91985 
L 309.713618 115.91985 
L 309.713618 73.929693 
L 243.358802 73.929693 
L 243.358802 115.91985 
" clip-path="url(#p123badd0e9)" style="fill: none; stroke: #000000; stroke-width: 1.5; stroke-linecap: square"/>
   </g>
   <g id="line2d_4">
    <path d="M 320.081558 115.91985 
L 373.165412 115.91985 
L 373.165412 78.128709 
L 320.081558 78.128709 
L 320.081558 115.91985 
" clip-path="url(#p123badd0e9)" style="fill: none; stroke: #000000; stroke-width: 1.5; stroke-linecap: square"/>
   </g>
   <g id="line2d_5">
    <path d="M 383.533352 115.91985 
L 426.000434 115.91985 
L 426.000434 81.907823 
L 383.533352 81.907823 
L 383.533352 115.91985 
" clip-path="url(#p123badd0e9)" style="fill: none; stroke: #000000; stroke-width: 1.5; stroke-linecap: square"/>
   </g>
   <g id="line2d_6">
    <path d="M 436.368375 115.91985 
L 470.342041 115.91985 
L 470.342041 85.309026 
L 436.368375 85.309026 
L 436.368375 115.91985 
" clip-path="url(#p123badd0e9)" style="fill: none; stroke: #000000; stroke-width: 1.5; stroke-linecap: square"/>
   </g>
   <g id="line2d_7">
    <path d="M 480.709981 115.91985 
L 507.888914 115.91985 
L 507.888914 88.370108 
L 480.709981 88.370108 
L 480.709981 115.91985 
" clip-path="url(#p123badd0e9)" style="fill: none; stroke: #000000; stroke-width: 1.5; stroke-linecap: square"/>
   </g>
   <g id="line2d_8">
    <path d="M 518.256854 115.91985 
L 540 115.91985 
L 540 91.125082 
L 518.256854 91.125082 
L 518.256854 115.91985 
" clip-path="url(#p123badd0e9)" style="fill: none; stroke: #000000; stroke-width: 1.5; stroke-linecap: square"/>
   </g>
  </g>
 </g>
 <defs>
  <clipPath id="p123badd0e9">
   <rect x="10.8" y="10.8" width="554.4" height="158.4"/>
  </clipPath>
 </defs>
</svg>
