<?xml version="1.0" encoding="utf-8" standalone="no"?>
<!DOCTYPE svg PUBLIC "-//W3C//DTD SVG 1.1//EN"
  "http://www.w3.org/Graphics/SVG/1.1/DTD/svg11.dtd">
<svg xmlns:xlink="http://www.w3.org/1999/xlink" width="460.8pt" height="345.6pt" viewBox="0 0 460.8 345.6" xmlns="http://www.w3.org/2000/svg" version="1.1">
 <metadata>
  <rdf:RDF xmlns:dc="http://purl.org/dc/elements/1.1/" xmlns:cc="http://creativecommons.org/ns#" xmlns:rdf="http://www.w3.org/1999/02/22-rdf-syntax-ns#">
   <cc:Work>
    <dc:type rdf:resource="http://purl.org/dc/dcmitype/StillImage"/>
    <dc:date>2026-03-21T11:38:58.046801</dc:date>
    <dc:format>image/svg+xml</dc:format>
    <dc:creator>
     <cc:Agent>
      <dc:title>Matplotlib v3.10.8, https://matplotlib.org/</dc:title>
     </cc:Agent>
    </dc:creator>
   </cc:Work>
  </rdf:RDF>
 </metadata>
 <defs>
  <style type="text/css">*{stroke-linejoin: round; stroke-linecap: butt}</style>
 </defs>
 <g id="figure_1">
  <g id="patch_1">
   <path d="M 0 345.6 
L 460.8 345.6 
L 460.8 0 
L 0 0 
L 0 345.6 
z
" style="fill: none"/>
  </g>
  <g id="axes_1">
   <g id="patch_2">
    <path d="M 10.8 334.8 
L 447 334.8 
L 447 24.444473 
L 10.8 24.444473 
L 10.8 334.8 
z
" style="fill: none"/>
   </g>
   <g id="matplotlib.axis_1">
    <g id="text_1">
     <!-- $x$ -->
     <g transform="translate(430.369782 204.377732) scale(0.3 -0.3)">
      <defs>
       <path id="CMMI12-78" d="M 3034 2606 
C 2829 2567 2752 2414 2752 2293 
C 2752 2139 2874 2088 2963 2088 
C 3155 2088 3290 2254 3290 2427 
C 3290 2695 2982 2816 2714 2816 
C 2323 2816 2106 2433 2048 2312 
C 1901 2816 1504 2816 1389 2816 
C 736 2816 390 1980 390 1839 
C 390 1814 416 1782 461 1782 
C 512 1782 525 1820 538 1846 
C 755 2555 1184 2689 1370 2689 
C 1658 2689 1715 2420 1715 2267 
C 1715 2127 1677 1980 1600 1673 
L 1382 798 
C 1286 415 1101 64 762 64 
C 730 64 570 64 435 147 
C 666 192 717 383 717 460 
C 717 588 621 664 499 664 
C 346 664 179 530 179 326 
C 179 57 480 -64 755 -64 
C 1062 -64 1280 179 1414 441 
C 1517 64 1837 -64 2074 -64 
C 2726 -64 3072 773 3072 913 
C 3072 945 3046 971 3008 971 
C 2950 971 2944 939 2925 888 
C 2752 326 2381 64 2093 64 
C 1869 64 1747 230 1747 492 
C 1747 632 1773 734 1875 1156 
L 2099 2024 
C 2195 2408 2413 2689 2707 2689 
C 2720 2689 2899 2689 3034 2606 
z
" transform="scale(0.015625)"/>
      </defs>
      <use xlink:href="#CMMI12-78" transform="scale(0.996264)"/>
     </g>
    </g>
   </g>
   <g id="matplotlib.axis_2">
    <g id="text_2">
     <!-- $y$ -->
     <g transform="translate(210.630756 18.631022) scale(0.3 -0.3)">
      <defs>
       <path id="CMMI12-79" d="M 1683 -700 
C 1510 -939 1261 -1152 947 -1152 
C 870 -1152 563 -1152 467 -889 
C 486 -895 518 -895 531 -895 
C 723 -895 851 -729 851 -582 
C 851 -435 730 -384 634 -384 
C 531 -384 307 -458 307 -759 
C 307 -1071 582 -1286 947 -1286 
C 1587 -1286 2234 -700 2413 6 
L 3040 2485 
C 3046 2517 3059 2556 3059 2594 
C 3059 2689 2982 2753 2886 2753 
C 2829 2753 2694 2727 2643 2535 
L 2170 658 
C 2138 543 2138 530 2086 460 
C 1958 281 1747 64 1440 64 
C 1082 64 1050 415 1050 588 
C 1050 952 1222 1443 1395 1903 
C 1466 2088 1504 2178 1504 2305 
C 1504 2574 1312 2816 998 2816 
C 410 2816 173 1890 173 1839 
C 173 1814 198 1782 243 1782 
C 301 1782 307 1807 333 1897 
C 486 2433 730 2689 979 2689 
C 1037 2689 1146 2689 1146 2478 
C 1146 2312 1075 2127 979 1884 
C 666 1047 666 837 666 683 
C 666 77 1101 -64 1421 -64 
C 1606 -64 1837 -6 2061 230 
L 2067 224 
C 1971 -147 1907 -392 1683 -700 
z
" transform="scale(0.015625)"/>
      </defs>
      <use xlink:href="#CMMI12-79" transform="scale(0.996264)"/>
     </g>
    </g>
   </g>
   <g id="line2d_1">
    <defs>
     <path id="md971e314c5" d="M 3 0 
L -3 -3 
L -3 3 
z
" style="stroke: #000000; stroke-linejoin: miter"/>
    </defs>
    <g>
     <use xlink:href="#md971e314c5" x="447" y="179.622236" style="stroke: #000000; stroke-linejoin: miter"/>
    </g>
   </g>
   <g id="line2d_2">
    <defs>
     <path id="m455c6ebc01" d="M 0 -3 
L -3 3 
L 3 3 
z
" style="stroke: #000000; stroke-linejoin: miter"/>
    </defs>
    <g>
     <use xlink:href="#m455c6ebc01" x="228.9" y="24.444473" style="stroke: #000000; stroke-linejoin: miter"/>
    </g>
   </g>
   <g id="line2d_3">
    <path d="M 10.8 149.14089 
L 31.008497 148.347223 
L 47.32972 147.4913 
L 60.722175 146.573452 
L 71.878118 145.592431 
L 81.276799 144.548578 
L 89.264347 143.443776 
L 96.133639 142.274965 
L 102.097674 141.039631 
L 107.316206 139.735734 
L 111.895733 138.367016 
L 115.969383 136.921105 
L 119.590405 135.404375 
L 122.865299 133.793934 
L 125.820692 132.094734 
L 128.509833 130.293915 
L 130.959348 128.389513 
L 133.222487 126.351293 
L 135.325874 124.158589 
L 137.296136 121.780616 
L 139.133272 119.212142 
L 140.863908 116.406453 
L 142.488042 113.348234 
L 144.032302 109.962215 
L 145.496686 106.209586 
L 146.881194 102.048058 
L 148.212452 97.32994 
L 149.463834 92.072688 
L 150.661967 86.071956 
L 151.806849 79.181322 
L 152.89848 71.216359 
L 153.936861 61.942109 
L 154.921992 51.055458 
L 155.853873 38.159857 
L 156.732503 22.728355 
L 157.531258 4.731996 
L 157.747301 -1 
M 168.230227 346.6 
L 168.980077 320.821328 
L 169.832082 298.913371 
L 170.737337 281.272119 
L 171.695843 266.83292 
L 172.707599 254.850109 
L 173.772606 244.787179 
L 174.890862 236.249159 
L 176.088995 228.789231 
L 177.340377 222.382831 
L 178.64501 216.838217 
L 180.002893 212.006425 
L 181.440652 207.69673 
L 182.958286 203.848735 
L 184.52917 200.461714 
L 186.17993 197.420091 
L 187.937191 194.647291 
L 189.774327 192.159904 
L 191.717964 189.897514 
L 193.794726 187.81996 
L 196.004615 185.922586 
L 198.374254 184.180681 
L 200.930269 182.57937 
L 203.672661 181.124227 
L 206.654679 179.796618 
L 209.849698 178.618888 
L 213.284344 177.590322 
L 216.958616 176.723614 
L 220.819264 176.042611 
L 224.786413 175.568479 
L 228.753562 175.316723 
L 232.61421 175.29295 
L 236.235232 175.489772 
L 239.563377 175.889224 
L 242.57202 176.469787 
L 245.261161 177.209533 
L 247.684051 178.103309 
L 249.840689 179.131554 
L 251.784325 180.300373 
L 253.541586 181.612272 
L 255.165721 183.103736 
L 256.65673 184.779269 
L 258.041238 186.677606 
L 259.319246 188.813382 
L 260.517378 191.256397 
L 261.635634 194.047452 
L 262.700641 197.321272 
L 263.685772 201.07537 
L 264.617652 205.510134 
L 265.496283 210.790867 
L 266.321663 217.136359 
L 267.093792 224.840667 
L 267.812672 234.305777 
L 268.478301 246.091691 
L 269.090679 260.995024 
L 269.649808 280.175526 
L 270.155686 305.365079 
L 270.608313 339.221905 
L 270.684813 346.6 
M 274.597902 -1 
L 275.107966 31.067986 
L 275.693719 55.162223 
L 276.359348 73.602867 
L 277.078227 87.454612 
L 277.850357 98.156299 
L 278.675737 106.613162 
L 279.554367 113.421171 
L 280.486248 118.987418 
L 281.498004 123.709008 
L 282.56301 127.638175 
L 283.681267 130.944043 
L 284.879399 133.80949 
L 286.157407 136.29825 
L 287.51529 138.465023 
L 288.979674 140.388135 
L 290.577184 142.116863 
L 292.307819 143.660726 
L 294.224831 145.068646 
L 296.354843 146.351481 
L 298.724483 147.516535 
L 301.413624 148.5885 
L 304.502142 149.576385 
L 308.096539 150.486495 
L 312.303314 151.316048 
L 317.308845 152.069488 
L 323.352756 152.746159 
L 330.75455 153.342641 
L 340.020106 153.85726 
L 351.948178 154.286712 
L 367.870024 154.625228 
L 390.315034 154.864675 
L 424.901117 154.990453 
L 447 155.002687 
L 447 155.002687 
" clip-path="url(#pa0a5b5ea9a)" style="fill: none; stroke: #0072b2; stroke-width: 4; stroke-linecap: square"/>
   </g>
   <g id="LineCollection_1">
    <path d="M 163.47 334.8 
L 163.47 24.444473 
" clip-path="url(#pa0a5b5ea9a)" style="fill: none; stroke-dasharray: 14.8,6.4; stroke-dashoffset: 0; stroke: #dc5e8b; stroke-width: 4"/>
   </g>
   <g id="LineCollection_2">
    <path d="M 272.52 334.8 
L 272.52 24.444473 
" clip-path="url(#pa0a5b5ea9a)" style="fill: none; stroke-dasharray: 14.8,6.4; stroke-dashoffset: 0; stroke: #dc5e8b; stroke-width: 4"/>
   </g>
   <g id="LineCollection_3">
    <path d="M 10.8 153.759276 
L 447 153.759276 
" clip-path="url(#pa0a5b5ea9a)" style="fill: none; stroke-dasharray: 14.8,6.4; stroke-dashoffset: 0; stroke: #dc5e8b; stroke-width: 4"/>
   </g>
   <g id="patch_3">
    <path d="M 228.9 334.8 
L 228.9 24.444473 
" style="fill: none; stroke: #000000; stroke-width: 0.8; stroke-linejoin: miter; stroke-linecap: square"/>
   </g>
   <g id="patch_4">
    <path d="M 447 334.8 
L 447 24.444473 
" style="fill: none"/>
   </g>
   <g id="patch_5">
    <path d="M 10.8 179.622236 
L 447 179.622236 
" style="fill: none; stroke: #000000; stroke-width: 0.8; stroke-linejoin: miter; stroke-linecap: square"/>
   </g>
   <g id="patch_6">
    <path d="M 10.8 24.444473 
L 447 24.444473 
" style="fill: none"/>
   </g>
   <g id="text_3">
    <g id="patch_7">
     <path d="M 46.036202 75.591906 
L 62.803798 75.591906 
Q 74.803798 75.591906 74.803798 63.591906 
L 74.803798 37.022961 
Q 74.803798 25.022961 62.803798 25.022961 
L 46.036202 25.022961 
Q 34.036202 25.022961 34.036202 37.022961 
L 34.036202 63.591906 
Q 34.036202 75.591906 46.036202 75.591906 
z
" style="fill: #ffffff; opacity: 0.7; stroke: #000000; stroke-width: 1.5; stroke-linejoin: miter"/>
    </g>
    <!-- E -->
    <g transform="translate(46.036202 57.778456) scale(0.3 -0.3)">
     <defs>
      <path id="CMSS17-45" d="M 1958 433 
C 1446 433 1216 433 1101 433 
L 1101 2107 
L 3085 2107 
L 3085 2496 
L 1101 2496 
L 1101 4009 
L 1926 4009 
C 2003 4009 2080 4009 2157 4009 
L 3251 4009 
L 3251 4416 
L 563 4416 
L 563 0 
L 3334 0 
L 3334 433 
L 1958 433 
z
" transform="scale(0.015625)"/>
     </defs>
     <use xlink:href="#CMSS17-45" transform="scale(0.996264)"/>
    </g>
   </g>
  </g>
 </g>
 <defs>
  <clipPath id="pa0a5b5ea9a">
   <rect x="10.8" y="24.444473" width="436.2" height="310.355527"/>
  </clipPath>
 </defs>
</svg>
