<?xml version="1.0" encoding="utf-8" standalone="no"?>
<!DOCTYPE svg PUBLIC "-//W3C//DTD SVG 1.1//EN"
  "http://www.w3.org/Graphics/SVG/1.1/DTD/svg11.dtd">
<svg xmlns:xlink="http://www.w3.org/1999/xlink" width="432pt" height="432pt" viewBox="0 0 432 432" xmlns="http://www.w3.org/2000/svg" version="1.1">
 <metadata>
  <rdf:RDF xmlns:dc="http://purl.org/dc/elements/1.1/" xmlns:cc="http://creativecommons.org/ns#" xmlns:rdf="http://www.w3.org/1999/02/22-rdf-syntax-ns#">
   <cc:Work>
    <dc:type rdf:resource="http://purl.org/dc/dcmitype/StillImage"/>
    <dc:date>2026-03-25T21:10:06.700253</dc:date>
    <dc:format>image/svg+xml</dc:format>
    <dc:creator>
     <cc:Agent>
      <dc:title>Matplotlib v3.10.8, https://matplotlib.org/</dc:title>
     </cc:Agent>
    </dc:creator>
   </cc:Work>
  </rdf:RDF>
 </metadata>
 <defs>
  <style type="text/css">*{stroke-linejoin: round; stroke-linecap: butt}</style>
 </defs>
 <g id="figure_1">
  <g id="patch_1">
   <path d="M 0 432 
L 432 432 
L 432 0 
L 0 0 
L 0 432 
z
" style="fill: none"/>
  </g>
  <g id="axes_1">
   <g id="line2d_1">
    <path d="M 53.554342 312.096277 
L 386.441612 312.096277 
" clip-path="url(#p0f58d865a9)" style="fill: none; stroke: #0072b2; stroke-width: 2.5; stroke-linecap: square"/>
   </g>
   <g id="line2d_2">
    <path d="M 386.441612 312.096277 
L 386.441612 119.903723 
" clip-path="url(#p0f58d865a9)" style="fill: none; stroke: #0072b2; stroke-width: 2.5; stroke-linecap: square"/>
   </g>
   <g id="line2d_3">
    <path d="M 386.441612 119.903723 
L 53.554342 312.096277 
" clip-path="url(#p0f58d865a9)" style="fill: none; stroke: #0072b2; stroke-width: 2.5; stroke-linecap: square"/>
   </g>
   <g id="line2d_4">
    <path d="M 196.731663 312.096277 
L 196.723235 310.532745 
L 196.697954 308.969396 
L 196.655821 307.406416 
L 196.596842 305.843987 
L 196.521024 304.282295 
L 196.428376 302.721522 
L 196.318908 301.161853 
L 196.192634 299.603472 
L 196.049568 298.046561 
L 195.889727 296.491304 
L 195.713131 294.937884 
L 195.519799 293.386484 
L 195.309755 291.837286 
L 195.083023 290.290474 
L 194.839631 288.746228 
L 194.579606 287.204731 
L 194.302979 285.666165 
L 194.009783 284.13071 
L 193.700052 282.598547 
L 193.373824 281.069856 
L 193.031135 279.544818 
L 192.672027 278.023612 
L 192.296542 276.506417 
L 191.904724 274.993412 
L 191.496619 273.484775 
L 191.072275 271.980683 
L 190.631742 270.481313 
L 190.175073 268.986843 
L 189.70232 267.497447 
L 189.21354 266.013302 
L 188.708789 264.534582 
L 188.188128 263.06146 
L 187.651618 261.594111 
L 187.099322 260.132708 
L 186.531304 258.677421 
L 185.947632 257.228423 
L 185.348375 255.785885 
L 184.733603 254.349975 
L 184.103388 252.920863 
L 183.457804 251.498718 
L 182.796928 250.083706 
L 182.120838 248.675994 
L 181.429612 247.275748 
L 180.723333 245.883133 
L 180.002083 244.498313 
L 179.265948 243.12145 
L 178.515013 241.752708 
L 177.749368 240.392246 
" clip-path="url(#p0f58d865a9)" style="fill: none; stroke: #dc5e8b; stroke-width: 2; stroke-linecap: square"/>
   </g>
   <g id="line2d_5">
    <path d="M 286.217488 312.096277 
L 286.217488 211.221347 
L 386.441612 211.221347 
" clip-path="url(#p0f58d865a9)" style="fill: none; stroke: #dc5e8b; stroke-width: 2; stroke-linecap: square"/>
   </g>
   <g id="line2d_6">
    <path d="M 262.246586 191.607754 
L 263.834575 194.324777 
L 265.48123 197.006191 
L 267.185764 199.650711 
L 268.947361 202.257073 
L 270.765178 204.82403 
L 272.638345 207.350353 
L 274.565967 209.834833 
L 276.54712 212.276282 
L 278.580857 214.673531 
L 280.666204 217.025434 
L 282.802164 219.330865 
L 284.987715 221.58872 
L 287.221811 223.79792 
L 289.503383 225.957408 
L 291.831338 228.066149 
L 294.204565 230.123136 
L 296.621926 232.127383 
L 299.082265 234.077932 
L 301.584405 235.97385 
L 304.127148 237.814229 
L 306.709278 239.598188 
L 309.32956 241.324875 
L 311.986739 242.993463 
L 314.679544 244.603153 
L 317.406687 246.153175 
L 320.166863 247.642788 
L 322.95875 249.071279 
L 325.781014 250.437964 
L 328.632303 251.742189 
L 331.511254 252.983331 
L 334.416488 254.160795 
L 337.346616 255.274018 
L 340.300236 256.322467 
L 343.275934 257.305641 
L 346.272286 258.223069 
L 349.287859 259.074312 
L 352.32121 259.858964 
L 355.370887 260.576647 
L 358.435432 261.22702 
L 361.513377 261.80977 
L 364.60325 262.32462 
L 367.703572 262.771322 
L 370.812861 263.149663 
L 373.929628 263.459462 
L 377.052382 263.700571 
L 380.179628 263.872874 
L 383.309871 263.976289 
L 386.441612 264.010766 
" clip-path="url(#p0f58d865a9)" style="fill: none; stroke: #dc5e8b; stroke-width: 2; stroke-linecap: square"/>
   </g>
   <g id="text_1">
    <!-- $3$ -->
    <g transform="translate(213.144406 354.15299) scale(0.3 -0.3)">
     <defs>
      <path id="CMR17-33" d="M 1414 2157 
C 1984 2157 2234 1662 2234 1090 
C 2234 320 1824 25 1453 25 
C 1114 25 563 194 390 693 
C 422 680 454 680 486 680 
C 640 680 755 782 755 948 
C 755 1133 614 1216 486 1216 
C 378 1216 211 1165 211 926 
C 211 335 787 -128 1466 -128 
C 2176 -128 2720 430 2720 1085 
C 2720 1707 2208 2157 1600 2227 
C 2086 2328 2554 2756 2554 3329 
C 2554 3820 2048 4179 1472 4179 
C 890 4179 378 3829 378 3329 
C 378 3110 544 3072 627 3072 
C 762 3072 877 3155 877 3321 
C 877 3486 762 3569 627 3569 
C 602 3569 570 3569 544 3557 
C 730 3959 1235 4032 1459 4032 
C 1683 4032 2106 3925 2106 3320 
C 2106 3143 2080 2828 1862 2550 
C 1670 2304 1453 2304 1242 2284 
C 1210 2284 1062 2269 1037 2269 
C 992 2263 966 2257 966 2208 
C 966 2163 973 2157 1101 2157 
L 1414 2157 
z
" transform="scale(0.015625)"/>
     </defs>
     <use xlink:href="#CMR17-33" transform="scale(0.996264)"/>
    </g>
   </g>
   <g id="text_2">
    <!-- $2 \sqrt{3}$ -->
    <g transform="translate(176.739554 195.130145) scale(0.3 -0.3)">
     <defs>
      <path id="CMR17-32" d="M 2669 989 
L 2554 989 
C 2490 536 2438 459 2413 420 
C 2381 369 1920 369 1830 369 
L 602 369 
C 832 619 1280 1072 1824 1597 
C 2214 1967 2669 2402 2669 3035 
C 2669 3790 2067 4224 1395 4224 
C 691 4224 262 3604 262 3030 
C 262 2780 448 2748 525 2748 
C 589 2748 781 2787 781 3010 
C 781 3207 614 3264 525 3264 
C 486 3264 448 3258 422 3245 
C 544 3790 915 4058 1306 4058 
C 1862 4058 2227 3617 2227 3035 
C 2227 2479 1901 2000 1536 1584 
L 262 146 
L 262 0 
L 2515 0 
L 2669 989 
z
" transform="scale(0.015625)"/>
      <path id="CMSY10-70" d="M 2490 -5472 
L 1363 -2982 
C 1318 -2880 1286 -2880 1267 -2880 
C 1261 -2880 1229 -2880 1158 -2931 
L 550 -3392 
C 467 -3456 467 -3475 467 -3494 
C 467 -3526 486 -3565 531 -3565 
C 570 -3565 678 -3475 749 -3424 
C 787 -3393 883 -3323 954 -3271 
L 2214 -6042 
C 2259 -6144 2291 -6144 2349 -6144 
C 2445 -6144 2464 -6106 2509 -6016 
L 5414 0 
C 5459 90 5459 115 5459 128 
C 5459 192 5408 256 5331 256 
C 5280 256 5235 224 5184 122 
L 2490 -5472 
z
" transform="scale(0.015625)"/>
     </defs>
     <use xlink:href="#CMR17-32" transform="scale(0.996264)"/>
     <use xlink:href="#CMSY10-70" transform="translate(45.690477 82.421465) scale(0.996264)"/>
     <use xlink:href="#CMR17-33" transform="translate(128.712731 0) scale(0.996264)"/>
     <path d="M 128.712731 82.421465 
L 174.403208 82.421465 
L 174.403208 86.406414 
L 128.712731 86.406414 
L 128.712731 82.421465 
z
"/>
    </g>
   </g>
   <g id="text_3">
    <!-- $A$ -->
    <g transform="translate(9.38107 328.471987) scale(0.3 -0.3)">
     <defs>
      <path id="CMMI12-41" d="M 1088 691 
C 864 314 646 186 339 186 
C 269 180 218 180 218 58 
C 218 24 250 0 294 0 
C 410 0 698 0 813 0 
C 998 0 1203 0 1382 0 
C 1421 0 1498 0 1498 122 
C 1498 180 1446 186 1408 186 
C 1261 186 1139 236 1139 388 
C 1139 476 1178 546 1261 685 
L 1747 1479 
L 3379 1479 
C 3386 1423 3386 1373 3392 1316 
C 3411 1152 3488 495 3488 376 
C 3488 186 3162 186 3059 186 
C 2989 186 2918 186 2918 70 
C 2918 0 2976 0 3014 0 
C 3123 0 3251 0 3360 0 
L 3725 0 
C 4115 0 4397 0 4403 0 
C 4448 0 4518 0 4518 122 
C 4518 186 4461 186 4365 186 
C 4013 186 4006 244 3987 434 
L 3597 4404 
C 3584 4531 3558 4544 3488 4544 
C 3424 4544 3386 4531 3328 4435 
L 1088 691 
z
M 1856 1664 
L 3142 3819 
L 3360 1664 
L 1856 1664 
z
" transform="scale(0.015625)"/>
     </defs>
     <use xlink:href="#CMMI12-41" transform="scale(0.996264)"/>
    </g>
   </g>
   <g id="text_4">
    <!-- $B$ -->
    <g transform="translate(399.623412 344.023076) scale(0.3 -0.3)">
     <defs>
      <path id="CMMI12-42" d="M 2342 3921 
C 2400 4160 2426 4160 2675 4160 
L 3507 4160 
C 4230 4160 4230 3544 4230 3485 
C 4230 2966 3712 2304 2867 2304 
L 1946 2304 
L 2342 3921 
z
M 3424 2275 
C 4122 2402 4755 2886 4755 3473 
C 4755 3970 4314 4352 3590 4352 
L 1536 4352 
C 1414 4352 1357 4352 1357 4226 
C 1357 4160 1414 4160 1510 4160 
C 1901 4160 1901 4112 1901 4044 
C 1901 4032 1901 3993 1875 3897 
L 1011 472 
C 954 249 941 185 493 185 
C 371 185 307 185 307 70 
C 307 0 346 0 474 0 
L 2669 0 
C 3648 0 4403 739 4403 1383 
C 4403 1906 3942 2224 3424 2275 
z
M 2515 185 
L 1651 185 
C 1562 185 1549 185 1510 192 
C 1440 198 1434 211 1434 261 
C 1434 305 1446 343 1459 399 
L 1907 2176 
L 3110 2176 
C 3866 2176 3866 1483 3866 1433 
C 3866 828 3309 185 2515 185 
z
" transform="scale(0.015625)"/>
     </defs>
     <use xlink:href="#CMMI12-42" transform="scale(0.996264)"/>
    </g>
   </g>
   <g id="text_5">
    <!-- $C$ -->
    <g transform="translate(393.195702 97.446882) scale(0.3 -0.3)">
     <defs>
      <path id="CMMI12-43" d="M 4781 4423 
C 4781 4480 4736 4480 4723 4480 
C 4710 4480 4685 4480 4634 4416 
L 4192 3882 
C 3968 4264 3616 4480 3136 4480 
C 1754 4480 320 3088 320 1595 
C 320 533 1069 -128 2003 -128 
C 2515 -128 2963 88 3334 400 
C 3891 863 4058 1481 4058 1531 
C 4058 1588 4006 1588 3987 1588 
C 3930 1588 3923 1550 3910 1524 
C 3616 534 2752 57 2112 57 
C 1434 57 845 489 845 1391 
C 845 1595 909 2700 1632 3532 
C 1984 3939 2586 4295 3194 4295 
C 3898 4295 4211 3717 4211 3068 
C 4211 2903 4192 2764 4192 2738 
C 4192 2681 4256 2681 4275 2681 
C 4346 2681 4352 2687 4378 2801 
L 4781 4423 
z
" transform="scale(0.015625)"/>
     </defs>
     <use xlink:href="#CMMI12-43" transform="scale(0.996264)"/>
    </g>
   </g>
  </g>
 </g>
 <defs>
  <clipPath id="p0f58d865a9">
   <rect x="36.909979" y="10.8" width="366.175997" height="410.4"/>
  </clipPath>
 </defs>
</svg>
