<?xml version="1.0" encoding="utf-8" standalone="no"?>
<!DOCTYPE svg PUBLIC "-//W3C//DTD SVG 1.1//EN"
  "http://www.w3.org/Graphics/SVG/1.1/DTD/svg11.dtd">
<svg xmlns:xlink="http://www.w3.org/1999/xlink" width="432pt" height="432pt" viewBox="0 0 432 432" xmlns="http://www.w3.org/2000/svg" version="1.1">
 <metadata>
  <rdf:RDF xmlns:dc="http://purl.org/dc/elements/1.1/" xmlns:cc="http://creativecommons.org/ns#" xmlns:rdf="http://www.w3.org/1999/02/22-rdf-syntax-ns#">
   <cc:Work>
    <dc:type rdf:resource="http://purl.org/dc/dcmitype/StillImage"/>
    <dc:date>2026-03-23T20:28:58.745818</dc:date>
    <dc:format>image/svg+xml</dc:format>
    <dc:creator>
     <cc:Agent>
      <dc:title>Matplotlib v3.10.8, https://matplotlib.org/</dc:title>
     </cc:Agent>
    </dc:creator>
   </cc:Work>
  </rdf:RDF>
 </metadata>
 <defs>
  <style type="text/css">*{stroke-linejoin: round; stroke-linecap: butt}</style>
 </defs>
 <g id="figure_1">
  <g id="patch_1">
   <path d="M 0 432 
L 432 432 
L 432 0 
L 0 0 
L 0 432 
z
" style="fill: none"/>
  </g>
  <g id="axes_1">
   <g id="line2d_1">
    <path d="M 115.993999 388.90313 
L 316.006001 388.90313 
" clip-path="url(#p9218c55755)" style="fill: none; stroke: #0072b2; stroke-width: 2.5; stroke-linecap: square"/>
   </g>
   <g id="line2d_2">
    <path d="M 316.006001 388.90313 
L 316.006001 42.472182 
" clip-path="url(#p9218c55755)" style="fill: none; stroke: #0072b2; stroke-width: 2.5; stroke-linecap: square"/>
   </g>
   <g id="line2d_3">
    <path d="M 316.006001 42.472182 
L 115.993999 388.90313 
" clip-path="url(#p9218c55755)" style="fill: none; stroke: #0072b2; stroke-width: 2.5; stroke-linecap: square"/>
   </g>
   <g id="line2d_4">
    <path d="M 167.61 388.90313 
L 167.597782 387.772859 
L 167.561136 386.643122 
L 167.500077 385.514456 
L 167.414636 384.387394 
L 167.304853 383.26247 
L 167.170779 382.140216 
L 167.012478 381.021163 
L 166.830025 379.905842 
L 166.623506 378.79478 
L 166.393019 377.688503 
L 166.138674 376.587536 
L 165.86059 375.492398 
L 165.5589 374.403609 
L 165.233746 373.321685 
L 164.885281 372.247136 
L 164.513672 371.180472 
L 164.119094 370.122198 
L 163.701733 369.072815 
L 163.261787 368.03282 
L 162.799465 367.002704 
L 162.314986 365.982957 
L 161.808578 364.974059 
L 161.280482 363.97649 
L 160.730947 362.99072 
L 160.160234 362.017218 
L 159.568613 361.056443 
L 158.956363 360.108851 
L 158.323775 359.17489 
L 157.671149 358.255002 
L 156.998792 357.349624 
L 156.307024 356.459182 
L 155.596172 355.584099 
L 154.866573 354.72479 
L 154.118571 353.88166 
L 153.352521 353.055109 
L 152.568785 352.245529 
L 151.767736 351.453303 
L 150.949751 350.678805 
L 150.115218 349.922402 
L 149.264532 349.184453 
L 148.398096 348.465307 
L 147.51632 347.765303 
L 146.619621 347.084775 
L 145.708424 346.424043 
L 144.783161 345.78342 
L 143.844268 345.16321 
L 142.892192 344.563707 
L 141.927382 343.985194 
" clip-path="url(#p9218c55755)" style="fill: none; stroke: #dc5e8b; stroke-width: 2; stroke-linecap: square"/>
   </g>
   <g id="line2d_5">
    <path d="M 279.8748 388.90313 
L 279.8748 352.537311 
L 316.006001 352.537311 
" clip-path="url(#p9218c55755)" style="fill: none; stroke: #dc5e8b; stroke-width: 2; stroke-linecap: square"/>
   </g>
   <g id="line2d_6">
    <path d="M 290.072618 87.390118 
L 290.563595 87.673664 
L 291.057632 87.951773 
L 291.55467 88.224413 
L 292.054648 88.49155 
L 292.557508 88.753153 
L 293.063187 89.009189 
L 293.571625 89.259628 
L 294.082762 89.504441 
L 294.596535 89.743596 
L 295.112883 89.977067 
L 295.631744 90.204824 
L 296.153056 90.42684 
L 296.676755 90.643089 
L 297.202779 90.853544 
L 297.731064 91.058181 
L 298.261547 91.256974 
L 298.794165 91.449899 
L 299.328852 91.636935 
L 299.865545 91.818057 
L 300.40418 91.993244 
L 300.94469 92.162476 
L 301.487013 92.325731 
L 302.031081 92.482991 
L 302.57683 92.634236 
L 303.124194 92.779447 
L 303.673108 92.918609 
L 304.223505 93.051703 
L 304.775318 93.178714 
L 305.328483 93.299627 
L 305.882932 93.414426 
L 306.438598 93.523099 
L 306.995415 93.625632 
L 307.553316 93.722013 
L 308.112233 93.81223 
L 308.672099 93.896272 
L 309.232848 93.97413 
L 309.794411 94.045793 
L 310.356721 94.111254 
L 310.919711 94.170504 
L 311.483313 94.223537 
L 312.047458 94.270345 
L 312.61208 94.310924 
L 313.177109 94.345268 
L 313.742479 94.373373 
L 314.308121 94.395237 
L 314.873968 94.410855 
L 315.43995 94.420227 
L 316.006001 94.423351 
" clip-path="url(#p9218c55755)" style="fill: none; stroke: #dc5e8b; stroke-width: 2; stroke-linecap: square"/>
   </g>
   <g id="text_1">
    <!-- $3$ -->
    <g transform="translate(209.831786 416.407521) scale(0.27 -0.27)">
     <defs>
      <path id="CMR17-33" d="M 1414 2157 
C 1984 2157 2234 1662 2234 1090 
C 2234 320 1824 25 1453 25 
C 1114 25 563 194 390 693 
C 422 680 454 680 486 680 
C 640 680 755 782 755 948 
C 755 1133 614 1216 486 1216 
C 378 1216 211 1165 211 926 
C 211 335 787 -128 1466 -128 
C 2176 -128 2720 430 2720 1085 
C 2720 1707 2208 2157 1600 2227 
C 2086 2328 2554 2756 2554 3329 
C 2554 3820 2048 4179 1472 4179 
C 890 4179 378 3829 378 3329 
C 378 3110 544 3072 627 3072 
C 762 3072 877 3155 877 3321 
C 877 3486 762 3569 627 3569 
C 602 3569 570 3569 544 3557 
C 730 3959 1235 4032 1459 4032 
C 1683 4032 2106 3925 2106 3320 
C 2106 3143 2080 2828 1862 2550 
C 1670 2304 1453 2304 1242 2284 
C 1210 2284 1062 2269 1037 2269 
C 992 2263 966 2257 966 2208 
C 966 2163 973 2157 1101 2157 
L 1414 2157 
z
" transform="scale(0.015625)"/>
     </defs>
     <use xlink:href="#CMR17-33" transform="scale(0.996264)"/>
    </g>
   </g>
   <g id="text_2">
    <!-- $3 \sqrt{3}$ -->
    <g transform="translate(313.107971 223.905108) scale(0.27 -0.27)">
     <defs>
      <path id="CMSY10-70" d="M 2490 -5472 
L 1363 -2982 
C 1318 -2880 1286 -2880 1267 -2880 
C 1261 -2880 1229 -2880 1158 -2931 
L 550 -3392 
C 467 -3456 467 -3475 467 -3494 
C 467 -3526 486 -3565 531 -3565 
C 570 -3565 678 -3475 749 -3424 
C 787 -3393 883 -3323 954 -3271 
L 2214 -6042 
C 2259 -6144 2291 -6144 2349 -6144 
C 2445 -6144 2464 -6106 2509 -6016 
L 5414 0 
C 5459 90 5459 115 5459 128 
C 5459 192 5408 256 5331 256 
C 5280 256 5235 224 5184 122 
L 2490 -5472 
z
" transform="scale(0.015625)"/>
     </defs>
     <use xlink:href="#CMR17-33" transform="scale(0.996264)"/>
     <use xlink:href="#CMSY10-70" transform="translate(45.690477 82.421465) scale(0.996264)"/>
     <use xlink:href="#CMR17-33" transform="translate(128.712731 0) scale(0.996264)"/>
     <path d="M 128.712731 82.421465 
L 174.403208 82.421465 
L 174.403208 86.406414 
L 128.712731 86.406414 
L 128.712731 82.421465 
z
"/>
    </g>
   </g>
   <g id="text_3">
    <!-- $A$ -->
    <g transform="translate(88.226962 405.992017) scale(0.27 -0.27)">
     <defs>
      <path id="CMMI12-41" d="M 1088 691 
C 864 314 646 186 339 186 
C 269 180 218 180 218 58 
C 218 24 250 0 294 0 
C 410 0 698 0 813 0 
C 998 0 1203 0 1382 0 
C 1421 0 1498 0 1498 122 
C 1498 180 1446 186 1408 186 
C 1261 186 1139 236 1139 388 
C 1139 476 1178 546 1261 685 
L 1747 1479 
L 3379 1479 
C 3386 1423 3386 1373 3392 1316 
C 3411 1152 3488 495 3488 376 
C 3488 186 3162 186 3059 186 
C 2989 186 2918 186 2918 70 
C 2918 0 2976 0 3014 0 
C 3123 0 3251 0 3360 0 
L 3725 0 
C 4115 0 4397 0 4403 0 
C 4448 0 4518 0 4518 122 
C 4518 186 4461 186 4365 186 
C 4013 186 4006 244 3987 434 
L 3597 4404 
C 3584 4531 3558 4544 3488 4544 
C 3424 4544 3386 4531 3328 4435 
L 1088 691 
z
M 1856 1664 
L 3142 3819 
L 3360 1664 
L 1856 1664 
z
" transform="scale(0.015625)"/>
     </defs>
     <use xlink:href="#CMMI12-41" transform="scale(0.996264)"/>
    </g>
   </g>
   <g id="text_4">
    <!-- $B$ -->
    <g transform="translate(320.600628 410.321063) scale(0.27 -0.27)">
     <defs>
      <path id="CMMI12-42" d="M 2342 3921 
C 2400 4160 2426 4160 2675 4160 
L 3507 4160 
C 4230 4160 4230 3544 4230 3485 
C 4230 2966 3712 2304 2867 2304 
L 1946 2304 
L 2342 3921 
z
M 3424 2275 
C 4122 2402 4755 2886 4755 3473 
C 4755 3970 4314 4352 3590 4352 
L 1536 4352 
C 1414 4352 1357 4352 1357 4226 
C 1357 4160 1414 4160 1510 4160 
C 1901 4160 1901 4112 1901 4044 
C 1901 4032 1901 3993 1875 3897 
L 1011 472 
C 954 249 941 185 493 185 
C 371 185 307 185 307 70 
C 307 0 346 0 474 0 
L 2669 0 
C 3648 0 4403 739 4403 1383 
C 4403 1906 3942 2224 3424 2275 
z
M 2515 185 
L 1651 185 
C 1562 185 1549 185 1510 192 
C 1440 198 1434 211 1434 261 
C 1434 305 1446 343 1459 399 
L 1907 2176 
L 3110 2176 
C 3866 2176 3866 1483 3866 1433 
C 3866 828 3309 185 2515 185 
z
" transform="scale(0.015625)"/>
     </defs>
     <use xlink:href="#CMMI12-42" transform="scale(0.996264)"/>
    </g>
   </g>
   <g id="text_5">
    <!-- $C$ -->
    <g transform="translate(311.955748 29.131283) scale(0.27 -0.27)">
     <defs>
      <path id="CMMI12-43" d="M 4781 4423 
C 4781 4480 4736 4480 4723 4480 
C 4710 4480 4685 4480 4634 4416 
L 4192 3882 
C 3968 4264 3616 4480 3136 4480 
C 1754 4480 320 3088 320 1595 
C 320 533 1069 -128 2003 -128 
C 2515 -128 2963 88 3334 400 
C 3891 863 4058 1481 4058 1531 
C 4058 1588 4006 1588 3987 1588 
C 3930 1588 3923 1550 3910 1524 
C 3616 534 2752 57 2112 57 
C 1434 57 845 489 845 1391 
C 845 1595 909 2700 1632 3532 
C 1984 3939 2586 4295 3194 4295 
C 3898 4295 4211 3717 4211 3068 
C 4211 2903 4192 2764 4192 2738 
C 4192 2681 4256 2681 4275 2681 
C 4346 2681 4352 2687 4378 2801 
L 4781 4423 
z
" transform="scale(0.015625)"/>
     </defs>
     <use xlink:href="#CMMI12-43" transform="scale(0.996264)"/>
    </g>
   </g>
  </g>
 </g>
 <defs>
  <clipPath id="p9218c55755">
   <rect x="10.8" y="25.150634" width="410.4" height="381.074043"/>
  </clipPath>
 </defs>
</svg>
