<?xml version="1.0" encoding="utf-8" standalone="no"?>
<!DOCTYPE svg PUBLIC "-//W3C//DTD SVG 1.1//EN"
  "http://www.w3.org/Graphics/SVG/1.1/DTD/svg11.dtd">
<svg xmlns:xlink="http://www.w3.org/1999/xlink" width="432pt" height="432pt" viewBox="0 0 432 432" xmlns="http://www.w3.org/2000/svg" version="1.1">
 <metadata>
  <rdf:RDF xmlns:dc="http://purl.org/dc/elements/1.1/" xmlns:cc="http://creativecommons.org/ns#" xmlns:rdf="http://www.w3.org/1999/02/22-rdf-syntax-ns#">
   <cc:Work>
    <dc:type rdf:resource="http://purl.org/dc/dcmitype/StillImage"/>
    <dc:date>2026-03-21T18:24:55.638659</dc:date>
    <dc:format>image/svg+xml</dc:format>
    <dc:creator>
     <cc:Agent>
      <dc:title>Matplotlib v3.10.8, https://matplotlib.org/</dc:title>
     </cc:Agent>
    </dc:creator>
   </cc:Work>
  </rdf:RDF>
 </metadata>
 <defs>
  <style type="text/css">*{stroke-linejoin: round; stroke-linecap: butt}</style>
 </defs>
 <g id="figure_1">
  <g id="patch_1">
   <path d="M 0 432 
L 432 432 
L 432 0 
L 0 0 
L 0 432 
z
" style="fill: none"/>
  </g>
  <g id="axes_1">
   <g id="patch_2">
    <path d="M 28.243211 355.37327 
L 242.822398 355.37327 
L 403.756789 76.62673 
L 28.243211 140.794083 
z
" clip-path="url(#p8bf4e8e777)" style="fill: #0072b2; opacity: 0.2; stroke: #0072b2; stroke-linejoin: miter"/>
   </g>
   <g id="line2d_1">
    <path d="M 199.906561 355.37327 
L 200.016691 352.300735 
L 200.346514 349.243969 
L 200.894338 346.21866 
L 201.657352 343.240337 
L 202.63164 340.324283 
L 203.8122 337.485467 
L 205.192974 334.738457 
L 206.766876 332.097351 
L 208.525827 329.575707 
L 210.4608 327.186464 
L 212.561865 324.941885 
L 214.818236 322.853492 
L 217.218335 320.932001 
L 219.749843 319.187274 
L 222.399768 317.628267 
L 225.154508 316.262981 
L 227.999926 315.098422 
L 230.921419 314.140567 
L 233.903991 313.394334 
L 236.932336 312.863551 
L 239.990911 312.550942 
L 243.064017 312.458113 
L 246.135884 312.585539 
L 249.190745 312.932567 
L 252.212921 313.497416 
L 255.186902 314.277186 
L 258.097423 315.267875 
L 260.929548 316.4644 
L 263.668741 317.860618 
L 264.280317 318.207065 
L 264.280317 318.207065 
" clip-path="url(#p8bf4e8e777)" style="fill: none; stroke: #000000; stroke-linecap: square"/>
   </g>
   <g id="line2d_2">
    <path d="M 28.243211 355.37327 
L 242.822398 355.37327 
L 403.756789 76.62673 
L 28.243211 140.794083 
L 28.243211 355.37327 
" clip-path="url(#p8bf4e8e777)" style="fill: none; stroke: #000000; stroke-width: 1.5; stroke-linecap: square"/>
   </g>
  </g>
 </g>
 <defs>
  <clipPath id="p8bf4e8e777">
   <rect x="10.8" y="10.8" width="410.4" height="410.4"/>
  </clipPath>
 </defs>
</svg>
