<?xml version="1.0" encoding="utf-8" standalone="no"?>
<!DOCTYPE svg PUBLIC "-//W3C//DTD SVG 1.1//EN"
  "http://www.w3.org/Graphics/SVG/1.1/DTD/svg11.dtd">
<svg xmlns:xlink="http://www.w3.org/1999/xlink" width="432pt" height="432pt" viewBox="0 0 432 432" xmlns="http://www.w3.org/2000/svg" version="1.1">
 <metadata>
  <rdf:RDF xmlns:dc="http://purl.org/dc/elements/1.1/" xmlns:cc="http://creativecommons.org/ns#" xmlns:rdf="http://www.w3.org/1999/02/22-rdf-syntax-ns#">
   <cc:Work>
    <dc:type rdf:resource="http://purl.org/dc/dcmitype/StillImage"/>
    <dc:date>2026-04-11T16:58:19.488881</dc:date>
    <dc:format>image/svg+xml</dc:format>
    <dc:creator>
     <cc:Agent>
      <dc:title>Matplotlib v3.10.8, https://matplotlib.org/</dc:title>
     </cc:Agent>
    </dc:creator>
   </cc:Work>
  </rdf:RDF>
 </metadata>
 <defs>
  <style type="text/css">*{stroke-linejoin: round; stroke-linecap: butt}</style>
 </defs>
 <g id="figure_1">
  <g id="patch_1">
   <path d="M 0 432 
L 432 432 
L 432 0 
L 0 0 
L 0 432 
z
" style="fill: none"/>
  </g>
  <g id="axes_1">
   <g id="line2d_1">
    <path d="M 42.14134 395.077766 
L 341.126356 395.077766 
" clip-path="url(#pc6b0faa3b9)" style="fill: none; stroke: #0072b2; stroke-width: 2.5; stroke-linecap: square"/>
   </g>
   <g id="line2d_2">
    <path d="M 341.126356 395.077766 
L 394.49856 42.720546 
" clip-path="url(#pc6b0faa3b9)" style="fill: none; stroke: #0072b2; stroke-width: 2.5; stroke-linecap: square"/>
   </g>
   <g id="line2d_3">
    <path d="M 394.49856 42.720546 
L 42.14134 395.077766 
" clip-path="url(#pc6b0faa3b9)" style="fill: none; stroke: #0072b2; stroke-width: 2.5; stroke-linecap: square"/>
   </g>
   <g id="line2d_4">
    <path d="M 62.97967 395.077766 
L 62.97688 394.736815 
L 62.968513 394.395955 
L 62.954569 394.055278 
L 62.935053 393.714874 
L 62.909971 393.374836 
L 62.879328 393.035253 
L 62.843133 392.696217 
L 62.801395 392.357818 
L 62.754126 392.020148 
L 62.701339 391.683297 
L 62.643048 391.347354 
L 62.579267 391.01241 
L 62.510015 390.678554 
L 62.43531 390.345876 
L 62.355171 390.014465 
L 62.269621 389.68441 
L 62.178682 389.355798 
L 62.082378 389.028718 
L 61.980736 388.703258 
L 61.873782 388.379505 
L 61.761546 388.057544 
L 61.644056 387.737463 
L 61.521346 387.419348 
L 61.393447 387.103283 
L 61.260393 386.789352 
L 61.122221 386.477641 
L 60.978967 386.168232 
L 60.83067 385.861209 
L 60.677369 385.556652 
L 60.519106 385.254645 
L 60.355923 384.955268 
L 60.187863 384.658601 
L 60.014972 384.364724 
L 59.837295 384.073714 
L 59.654881 383.785651 
L 59.467778 383.50061 
L 59.276036 383.21867 
L 59.079707 382.939904 
L 58.878844 382.664387 
L 58.673499 382.392195 
L 58.463728 382.123398 
L 58.249587 381.85807 
L 58.031133 381.59628 
L 57.808426 381.3381 
L 57.581524 381.083599 
L 57.350488 380.832844 
L 57.115381 380.585903 
L 56.876264 380.342842 
" clip-path="url(#pc6b0faa3b9)" style="fill: none; stroke: #dc5e8b; stroke-width: 2; stroke-linecap: square"/>
   </g>
   <g id="line2d_5">
    <path d="M 320.288026 395.077766 
L 320.30142 394.330731 
L 320.341587 393.584656 
L 320.408473 392.840501 
L 320.501995 392.099221 
L 320.62203 391.361771 
L 320.768425 390.629098 
L 320.940991 389.902144 
L 321.139507 389.181844 
L 321.363718 388.469123 
L 321.613335 387.764899 
L 321.888038 387.070075 
L 322.187472 386.385546 
L 322.511254 385.712191 
L 322.858967 385.050877 
L 323.230164 384.402452 
L 323.624368 383.767752 
L 324.041072 383.147592 
L 324.47974 382.542768 
L 324.939808 381.954059 
L 325.420686 381.382222 
L 325.921754 380.827991 
L 326.442369 380.292079 
L 326.981861 379.775176 
L 327.539537 379.277945 
L 328.11468 378.801025 
L 328.70655 378.345031 
L 329.314387 377.910548 
L 329.937409 377.498134 
L 330.574815 377.10832 
L 331.225785 376.741608 
L 331.889484 376.398467 
L 332.565057 376.079341 
L 333.251637 375.784638 
L 333.94834 375.514738 
L 334.654271 375.269987 
L 335.368522 375.050701 
L 336.090175 374.857161 
L 336.818303 374.689616 
L 337.551969 374.548281 
L 338.29023 374.433339 
L 339.032137 374.344936 
L 339.776736 374.283187 
L 340.523071 374.248171 
L 341.270181 374.239932 
L 342.017106 374.258483 
L 342.762886 374.303798 
L 343.506562 374.375819 
L 344.247178 374.474454 
" clip-path="url(#pc6b0faa3b9)" style="fill: none; stroke: #dc5e8b; stroke-width: 2; stroke-linecap: square"/>
   </g>
   <g id="line2d_6">
    <path d="M 379.763636 57.45547 
L 379.959872 57.649127 
L 380.158652 57.84017 
L 380.359943 58.028567 
L 380.563709 58.214284 
L 380.769915 58.397289 
L 380.978523 58.57755 
L 381.189498 58.755036 
L 381.402803 58.929714 
L 381.6184 59.101555 
L 381.836251 59.270529 
L 382.056319 59.436605 
L 382.278566 59.599756 
L 382.502951 59.759952 
L 382.729436 59.917165 
L 382.957981 60.071368 
L 383.188546 60.222534 
L 383.421091 60.370636 
L 383.655575 60.515648 
L 383.891957 60.657546 
L 384.130196 60.796304 
L 384.37025 60.931898 
L 384.612076 61.064303 
L 384.855634 61.193498 
L 385.100879 61.319459 
L 385.347769 61.442165 
L 385.596261 61.561593 
L 385.846311 61.677724 
L 386.097876 61.790536 
L 386.350912 61.90001 
L 386.605373 62.006126 
L 386.861217 62.108867 
L 387.118397 62.208213 
L 387.376869 62.304149 
L 387.636588 62.396657 
L 387.897507 62.48572 
L 388.159583 62.571323 
L 388.422768 62.653452 
L 388.687016 62.732091 
L 388.952282 62.807228 
L 389.218519 62.878848 
L 389.48568 62.94694 
L 389.753718 63.011491 
L 390.022587 63.072491 
L 390.292239 63.129928 
L 390.562628 63.183792 
L 390.833706 63.234074 
L 391.105425 63.280766 
L 391.377738 63.323858 
" clip-path="url(#pc6b0faa3b9)" style="fill: none; stroke: #dc5e8b; stroke-width: 2; stroke-linecap: square"/>
   </g>
   <g id="text_1">
    <!-- $A$ -->
    <g transform="translate(20.195119 406.802889) scale(0.27 -0.27)">
     <defs>
      <path id="CMMI12-41" d="M 1088 691 
C 864 314 646 186 339 186 
C 269 180 218 180 218 58 
C 218 24 250 0 294 0 
C 410 0 698 0 813 0 
C 998 0 1203 0 1382 0 
C 1421 0 1498 0 1498 122 
C 1498 180 1446 186 1408 186 
C 1261 186 1139 236 1139 388 
C 1139 476 1178 546 1261 685 
L 1747 1479 
L 3379 1479 
C 3386 1423 3386 1373 3392 1316 
C 3411 1152 3488 495 3488 376 
C 3488 186 3162 186 3059 186 
C 2989 186 2918 186 2918 70 
C 2918 0 2976 0 3014 0 
C 3123 0 3251 0 3360 0 
L 3725 0 
C 4115 0 4397 0 4403 0 
C 4448 0 4518 0 4518 122 
C 4518 186 4461 186 4365 186 
C 4013 186 4006 244 3987 434 
L 3597 4404 
C 3584 4531 3558 4544 3488 4544 
C 3424 4544 3386 4531 3328 4435 
L 1088 691 
z
M 1856 1664 
L 3142 3819 
L 3360 1664 
L 1856 1664 
z
" transform="scale(0.015625)"/>
     </defs>
     <use xlink:href="#CMMI12-41" transform="scale(0.996264)"/>
    </g>
   </g>
   <g id="text_2">
    <!-- $B$ -->
    <g transform="translate(337.643447 409.385604) scale(0.27 -0.27)">
     <defs>
      <path id="CMMI12-42" d="M 2342 3921 
C 2400 4160 2426 4160 2675 4160 
L 3507 4160 
C 4230 4160 4230 3544 4230 3485 
C 4230 2966 3712 2304 2867 2304 
L 1946 2304 
L 2342 3921 
z
M 3424 2275 
C 4122 2402 4755 2886 4755 3473 
C 4755 3970 4314 4352 3590 4352 
L 1536 4352 
C 1414 4352 1357 4352 1357 4226 
C 1357 4160 1414 4160 1510 4160 
C 1901 4160 1901 4112 1901 4044 
C 1901 4032 1901 3993 1875 3897 
L 1011 472 
C 954 249 941 185 493 185 
C 371 185 307 185 307 70 
C 307 0 346 0 474 0 
L 2669 0 
C 3648 0 4403 739 4403 1383 
C 4403 1906 3942 2224 3424 2275 
z
M 2515 185 
L 1651 185 
C 1562 185 1549 185 1510 192 
C 1440 198 1434 211 1434 261 
C 1434 305 1446 343 1459 399 
L 1907 2176 
L 3110 2176 
C 3866 2176 3866 1483 3866 1433 
C 3866 828 3309 185 2515 185 
z
" transform="scale(0.015625)"/>
     </defs>
     <use xlink:href="#CMMI12-42" transform="scale(0.996264)"/>
    </g>
   </g>
   <g id="text_3">
    <!-- $C$ -->
    <g transform="translate(392.300409 35.147936) scale(0.27 -0.27)">
     <defs>
      <path id="CMMI12-43" d="M 4781 4423 
C 4781 4480 4736 4480 4723 4480 
C 4710 4480 4685 4480 4634 4416 
L 4192 3882 
C 3968 4264 3616 4480 3136 4480 
C 1754 4480 320 3088 320 1595 
C 320 533 1069 -128 2003 -128 
C 2515 -128 2963 88 3334 400 
C 3891 863 4058 1481 4058 1531 
C 4058 1588 4006 1588 3987 1588 
C 3930 1588 3923 1550 3910 1524 
C 3616 534 2752 57 2112 57 
C 1434 57 845 489 845 1391 
C 845 1595 909 2700 1632 3532 
C 1984 3939 2586 4295 3194 4295 
C 3898 4295 4211 3717 4211 3068 
C 4211 2903 4192 2764 4192 2738 
C 4192 2681 4256 2681 4275 2681 
C 4346 2681 4352 2687 4378 2801 
L 4781 4423 
z
" transform="scale(0.015625)"/>
     </defs>
     <use xlink:href="#CMMI12-43" transform="scale(0.996264)"/>
    </g>
   </g>
   <g id="text_4">
    <!-- $45^\circ$ -->
    <g transform="translate(58.211196 388.085577) scale(0.27 -0.27)">
     <defs>
      <path id="CMR17-34" d="M 2150 4122 
C 2150 4256 2144 4256 2029 4256 
L 128 1254 
L 128 1088 
L 1779 1088 
L 1779 457 
C 1779 224 1766 160 1318 160 
L 1197 160 
L 1197 0 
C 1402 0 1747 0 1965 0 
C 2182 0 2528 0 2733 0 
L 2733 160 
L 2611 160 
C 2163 160 2150 224 2150 457 
L 2150 1088 
L 2803 1088 
L 2803 1254 
L 2150 1254 
L 2150 4122 
z
M 1798 3703 
L 1798 1254 
L 256 1254 
L 1798 3703 
z
" transform="scale(0.015625)"/>
      <path id="CMR17-35" d="M 730 3692 
C 794 3666 1056 3584 1325 3584 
C 1920 3584 2246 3911 2432 4100 
C 2432 4157 2432 4192 2394 4192 
C 2387 4192 2374 4192 2323 4163 
C 2099 4058 1837 3973 1517 3973 
C 1325 3973 1037 3999 723 4139 
C 653 4171 640 4171 634 4171 
C 602 4171 595 4164 595 4037 
L 595 2203 
C 595 2089 595 2057 659 2057 
C 691 2057 704 2070 736 2114 
C 941 2401 1222 2522 1542 2522 
C 1766 2522 2246 2382 2246 1289 
C 2246 1085 2246 715 2054 421 
C 1894 159 1645 25 1370 25 
C 947 25 518 320 403 814 
C 429 807 480 795 506 795 
C 589 795 749 840 749 1038 
C 749 1210 627 1280 506 1280 
C 358 1280 262 1190 262 1011 
C 262 454 704 -128 1382 -128 
C 2042 -128 2669 440 2669 1264 
C 2669 2030 2170 2624 1549 2624 
C 1222 2624 947 2503 730 2274 
L 730 3692 
z
" transform="scale(0.015625)"/>
      <path id="CMSY10-e" d="M 2842 1600 
C 2842 2277 2272 2828 1600 2828 
C 909 2828 352 2264 352 1600 
C 352 930 909 372 1600 372 
C 2272 372 2842 923 2842 1600 
z
M 1600 628 
C 1043 628 608 1070 608 1600 
C 608 2130 1050 2572 1600 2572 
C 2131 2572 2586 2142 2586 1600 
C 2586 1058 2131 628 1600 628 
z
" transform="scale(0.015625)"/>
     </defs>
     <use xlink:href="#CMR17-34" transform="scale(0.996264)"/>
     <use xlink:href="#CMR17-35" transform="translate(45.690477 0) scale(0.996264)"/>
     <use xlink:href="#CMSY10-e" transform="translate(91.380954 36.153639) scale(0.697382)"/>
    </g>
   </g>
   <g id="text_5">
    <!-- $98.61^\circ$ -->
    <g transform="translate(284.718713 374.625996) scale(0.27 -0.27)">
     <defs>
      <path id="CMR17-39" d="M 2253 1864 
C 2253 464 1670 31 1190 31 
C 1043 31 685 31 538 294 
C 704 268 826 357 826 518 
C 826 692 685 749 595 749 
C 538 749 365 723 365 506 
C 365 71 742 -128 1203 -128 
C 1939 -128 2688 674 2688 2073 
C 2688 3817 1971 4179 1485 4179 
C 851 4179 243 3628 243 2778 
C 243 1991 762 1408 1414 1408 
C 1952 1408 2189 1903 2253 2112 
L 2253 1864 
z
M 1427 1510 
C 1254 1510 1011 1542 813 1922 
C 678 2169 678 2461 678 2771 
C 678 3146 678 3405 858 3684 
C 947 3817 1114 4032 1485 4032 
C 2240 4032 2240 2885 2240 2632 
C 2240 2182 2035 1510 1427 1510 
z
" transform="scale(0.015625)"/>
      <path id="CMR17-38" d="M 1741 2264 
C 2144 2467 2554 2773 2554 3263 
C 2554 3841 1990 4179 1472 4179 
C 890 4179 378 3759 378 3180 
C 378 3021 416 2747 666 2505 
C 730 2442 998 2251 1171 2130 
C 883 1983 211 1634 211 934 
C 211 279 838 -128 1459 -128 
C 2144 -128 2720 362 2720 1010 
C 2720 1590 2330 1857 2074 2029 
L 1741 2264 
z
M 902 2822 
C 851 2854 595 3051 595 3351 
C 595 3739 998 4032 1459 4032 
C 1965 4032 2336 3676 2336 3262 
C 2336 2669 1670 2331 1638 2331 
C 1632 2331 1626 2331 1574 2370 
L 902 2822 
z
M 2080 1519 
C 2176 1449 2483 1240 2483 851 
C 2483 381 2010 25 1472 25 
C 890 25 448 438 448 940 
C 448 1443 838 1862 1280 2060 
L 2080 1519 
z
" transform="scale(0.015625)"/>
      <path id="CMMI12-3a" d="M 1178 307 
C 1178 492 1024 619 870 619 
C 685 619 557 466 557 313 
C 557 128 710 0 864 0 
C 1050 0 1178 153 1178 307 
z
" transform="scale(0.015625)"/>
      <path id="CMR17-36" d="M 678 2176 
C 678 3690 1395 4032 1811 4032 
C 1946 4032 2272 4009 2400 3776 
C 2298 3776 2106 3776 2106 3553 
C 2106 3381 2246 3323 2336 3323 
C 2394 3323 2566 3348 2566 3560 
C 2566 3954 2246 4179 1805 4179 
C 1043 4179 243 3390 243 1984 
C 243 253 966 -128 1478 -128 
C 2099 -128 2688 427 2688 1283 
C 2688 2081 2170 2662 1517 2662 
C 1126 2662 838 2407 678 1960 
L 678 2176 
z
M 1478 25 
C 691 25 691 1200 691 1436 
C 691 1896 909 2560 1504 2560 
C 1613 2560 1926 2560 2138 2120 
C 2253 1870 2253 1609 2253 1289 
C 2253 944 2253 690 2118 434 
C 1978 171 1773 25 1478 25 
z
" transform="scale(0.015625)"/>
      <path id="CMR17-31" d="M 1702 4058 
C 1702 4192 1696 4192 1606 4192 
C 1357 3916 979 3827 621 3827 
C 602 3827 570 3827 563 3808 
C 557 3795 557 3782 557 3648 
C 755 3648 1088 3686 1344 3839 
L 1344 461 
C 1344 236 1331 160 781 160 
L 589 160 
L 589 0 
C 896 0 1216 0 1523 0 
C 1830 0 2150 0 2458 0 
L 2458 160 
L 2266 160 
C 1715 160 1702 230 1702 458 
L 1702 4058 
z
" transform="scale(0.015625)"/>
     </defs>
     <use xlink:href="#CMR17-39" transform="scale(0.996264)"/>
     <use xlink:href="#CMR17-38" transform="translate(45.690477 0) scale(0.996264)"/>
     <use xlink:href="#CMMI12-3a" transform="translate(91.380954 0) scale(0.996264)"/>
     <use xlink:href="#CMR17-36" transform="translate(118.478131 0) scale(0.996264)"/>
     <use xlink:href="#CMR17-31" transform="translate(164.168608 0) scale(0.996264)"/>
     <use xlink:href="#CMSY10-e" transform="translate(209.859086 36.153639) scale(0.697382)"/>
    </g>
   </g>
  </g>
 </g>
 <defs>
  <clipPath id="pc6b0faa3b9">
   <rect x="24.523479" y="29.607088" width="387.592943" height="378.584136"/>
  </clipPath>
 </defs>
</svg>
