<?xml version="1.0" encoding="utf-8" standalone="no"?>
<!DOCTYPE svg PUBLIC "-//W3C//DTD SVG 1.1//EN"
  "http://www.w3.org/Graphics/SVG/1.1/DTD/svg11.dtd">
<svg xmlns:xlink="http://www.w3.org/1999/xlink" width="432pt" height="432pt" viewBox="0 0 432 432" xmlns="http://www.w3.org/2000/svg" version="1.1">
 <metadata>
  <rdf:RDF xmlns:dc="http://purl.org/dc/elements/1.1/" xmlns:cc="http://creativecommons.org/ns#" xmlns:rdf="http://www.w3.org/1999/02/22-rdf-syntax-ns#">
   <cc:Work>
    <dc:type rdf:resource="http://purl.org/dc/dcmitype/StillImage"/>
    <dc:date>2026-03-24T18:33:51.245319</dc:date>
    <dc:format>image/svg+xml</dc:format>
    <dc:creator>
     <cc:Agent>
      <dc:title>Matplotlib v3.10.8, https://matplotlib.org/</dc:title>
     </cc:Agent>
    </dc:creator>
   </cc:Work>
  </rdf:RDF>
 </metadata>
 <defs>
  <style type="text/css">*{stroke-linejoin: round; stroke-linecap: butt}</style>
 </defs>
 <g id="figure_1">
  <g id="patch_1">
   <path d="M 0 432 
L 432 432 
L 432 0 
L 0 0 
L 0 432 
z
" style="fill: none"/>
  </g>
  <g id="axes_1">
   <g id="line2d_1">
    <path d="M 72.482586 299.399482 
L 361.386866 299.399482 
" clip-path="url(#pd083a4432a)" style="fill: none; stroke: #0072b2; stroke-width: 2.5; stroke-linecap: square"/>
   </g>
   <g id="line2d_2">
    <path d="M 361.386866 299.399482 
L 361.386866 132.600518 
" clip-path="url(#pd083a4432a)" style="fill: none; stroke: #0072b2; stroke-width: 2.5; stroke-linecap: square"/>
   </g>
   <g id="line2d_3">
    <path d="M 361.386866 132.600518 
L 72.482586 299.399482 
" clip-path="url(#pd083a4432a)" style="fill: none; stroke: #0072b2; stroke-width: 2.5; stroke-linecap: square"/>
   </g>
   <g id="line2d_4">
    <path d="M 158.572374 299.399482 
L 158.567307 298.45936 
L 158.552105 297.519348 
L 158.526772 296.579558 
L 158.491309 295.640099 
L 158.445721 294.701083 
L 158.390013 293.762621 
L 158.324193 292.824822 
L 158.248266 291.887797 
L 158.162244 290.951656 
L 158.066134 290.016509 
L 157.95995 289.082468 
L 157.843704 288.14964 
L 157.717408 287.218137 
L 157.581079 286.288069 
L 157.434731 285.359543 
L 157.278383 284.432671 
L 157.112053 283.50756 
L 156.93576 282.58432 
L 156.749525 281.66306 
L 156.55337 280.743887 
L 156.347317 279.826911 
L 156.131393 278.912239 
L 155.905621 277.999979 
L 155.670028 277.090238 
L 155.424642 276.183123 
L 155.169492 275.278741 
L 154.904609 274.377199 
L 154.630022 273.478602 
L 154.345765 272.583057 
L 154.05187 271.690669 
L 153.748374 270.801543 
L 153.43531 269.915783 
L 153.112717 269.033494 
L 152.780632 268.15478 
L 152.439093 267.279744 
L 152.088143 266.408489 
L 151.727821 265.541118 
L 151.35817 264.677733 
L 150.979234 263.818436 
L 150.591057 262.963327 
L 150.193685 262.112507 
L 149.787164 261.266077 
L 149.371543 260.424136 
L 148.946871 259.586783 
L 148.513197 258.754117 
L 148.070573 257.926236 
L 147.619051 257.103237 
L 147.158683 256.285217 
" clip-path="url(#pd083a4432a)" style="fill: none; stroke: #dc5e8b; stroke-width: 2; stroke-linecap: square"/>
   </g>
   <g id="line2d_5">
    <path d="M 301.124015 299.399482 
L 301.124015 238.745313 
L 361.386866 238.745313 
" clip-path="url(#pd083a4432a)" style="fill: none; stroke: #dc5e8b; stroke-width: 2; stroke-linecap: square"/>
   </g>
   <g id="line2d_6">
    <path d="M 286.71077 175.714783 
L 287.665597 177.348477 
L 288.655699 178.960759 
L 289.680603 180.550859 
L 290.739817 182.118015 
L 291.832836 183.661477 
L 292.959136 185.180506 
L 294.118178 186.674377 
L 295.309407 188.142374 
L 296.532254 189.583794 
L 297.786134 190.997948 
L 299.070446 192.384159 
L 300.384576 193.741765 
L 301.727895 195.070115 
L 303.099761 196.368573 
L 304.499516 197.636519 
L 305.926492 198.873346 
L 307.380005 200.078461 
L 308.859359 201.251289 
L 310.363848 202.391268 
L 311.892751 203.497853 
L 313.445337 204.570514 
L 315.020862 205.608738 
L 316.618573 206.612028 
L 318.237706 207.579904 
L 319.877485 208.511902 
L 321.537125 209.407578 
L 323.215834 210.266502 
L 324.912807 211.088264 
L 326.627233 211.87247 
L 328.358291 212.618744 
L 330.105153 213.326731 
L 331.866983 213.996091 
L 333.642938 214.626503 
L 335.432168 215.217667 
L 337.233818 215.769299 
L 339.047024 216.281135 
L 340.87092 216.752931 
L 342.704633 217.184461 
L 344.547285 217.575517 
L 346.397995 217.925914 
L 348.255876 218.235483 
L 350.120041 218.504077 
L 351.989597 218.731566 
L 353.863649 218.917842 
L 355.741301 219.062816 
L 357.621655 219.166419 
L 359.50381 219.2286 
L 361.386866 219.24933 
" clip-path="url(#pd083a4432a)" style="fill: none; stroke: #dc5e8b; stroke-width: 2; stroke-linecap: square"/>
   </g>
   <g id="text_1">
    <!-- $\sqrt{3}$ -->
    <g transform="translate(199.558511 359.606222) scale(0.27 -0.27)">
     <defs>
      <path id="CMSY10-70" d="M 2490 -5472 
L 1363 -2982 
C 1318 -2880 1286 -2880 1267 -2880 
C 1261 -2880 1229 -2880 1158 -2931 
L 550 -3392 
C 467 -3456 467 -3475 467 -3494 
C 467 -3526 486 -3565 531 -3565 
C 570 -3565 678 -3475 749 -3424 
C 787 -3393 883 -3323 954 -3271 
L 2214 -6042 
C 2259 -6144 2291 -6144 2349 -6144 
C 2445 -6144 2464 -6106 2509 -6016 
L 5414 0 
C 5459 90 5459 115 5459 128 
C 5459 192 5408 256 5331 256 
C 5280 256 5235 224 5184 122 
L 2490 -5472 
z
" transform="scale(0.015625)"/>
      <path id="CMR17-33" d="M 1414 2157 
C 1984 2157 2234 1662 2234 1090 
C 2234 320 1824 25 1453 25 
C 1114 25 563 194 390 693 
C 422 680 454 680 486 680 
C 640 680 755 782 755 948 
C 755 1133 614 1216 486 1216 
C 378 1216 211 1165 211 926 
C 211 335 787 -128 1466 -128 
C 2176 -128 2720 430 2720 1085 
C 2720 1707 2208 2157 1600 2227 
C 2086 2328 2554 2756 2554 3329 
C 2554 3820 2048 4179 1472 4179 
C 890 4179 378 3829 378 3329 
C 378 3110 544 3072 627 3072 
C 762 3072 877 3155 877 3321 
C 877 3486 762 3569 627 3569 
C 602 3569 570 3569 544 3557 
C 730 3959 1235 4032 1459 4032 
C 1683 4032 2106 3925 2106 3320 
C 2106 3143 2080 2828 1862 2550 
C 1670 2304 1453 2304 1242 2284 
C 1210 2284 1062 2269 1037 2269 
C 992 2263 966 2257 966 2208 
C 966 2163 973 2157 1101 2157 
L 1414 2157 
z
" transform="scale(0.015625)"/>
     </defs>
     <use xlink:href="#CMSY10-70" transform="translate(0 82.421465) scale(0.996264)"/>
     <use xlink:href="#CMR17-33" transform="translate(83.022254 0) scale(0.996264)"/>
     <path d="M 83.022254 82.421465 
L 128.712731 82.421465 
L 128.712731 86.406414 
L 83.022254 86.406414 
L 83.022254 82.421465 
z
"/>
    </g>
   </g>
   <g id="text_2">
    <!-- $1$ -->
    <g transform="translate(406.872524 222.723923) scale(0.27 -0.27)">
     <defs>
      <path id="CMR17-31" d="M 1702 4058 
C 1702 4192 1696 4192 1606 4192 
C 1357 3916 979 3827 621 3827 
C 602 3827 570 3827 563 3808 
C 557 3795 557 3782 557 3648 
C 755 3648 1088 3686 1344 3839 
L 1344 461 
C 1344 236 1331 160 781 160 
L 589 160 
L 589 0 
C 896 0 1216 0 1523 0 
C 1830 0 2150 0 2458 0 
L 2458 160 
L 2266 160 
C 1715 160 1702 230 1702 458 
L 1702 4058 
z
" transform="scale(0.015625)"/>
     </defs>
     <use xlink:href="#CMR17-31" transform="scale(0.996264)"/>
    </g>
   </g>
   <g id="text_3">
    <!-- $2$ -->
    <g transform="translate(185.064847 177.627319) scale(0.27 -0.27)">
     <defs>
      <path id="CMR17-32" d="M 2669 989 
L 2554 989 
C 2490 536 2438 459 2413 420 
C 2381 369 1920 369 1830 369 
L 602 369 
C 832 619 1280 1072 1824 1597 
C 2214 1967 2669 2402 2669 3035 
C 2669 3790 2067 4224 1395 4224 
C 691 4224 262 3604 262 3030 
C 262 2780 448 2748 525 2748 
C 589 2748 781 2787 781 3010 
C 781 3207 614 3264 525 3264 
C 486 3264 448 3258 422 3245 
C 544 3790 915 4058 1306 4058 
C 1862 4058 2227 3617 2227 3035 
C 2227 2479 1901 2000 1536 1584 
L 262 146 
L 262 0 
L 2515 0 
L 2669 989 
z
" transform="scale(0.015625)"/>
     </defs>
     <use xlink:href="#CMR17-32" transform="scale(0.996264)"/>
    </g>
   </g>
   <g id="text_4">
    <!-- $A$ -->
    <g transform="translate(12.697863 319.508952) scale(0.27 -0.27)">
     <defs>
      <path id="CMMI12-41" d="M 1088 691 
C 864 314 646 186 339 186 
C 269 180 218 180 218 58 
C 218 24 250 0 294 0 
C 410 0 698 0 813 0 
C 998 0 1203 0 1382 0 
C 1421 0 1498 0 1498 122 
C 1498 180 1446 186 1408 186 
C 1261 186 1139 236 1139 388 
C 1139 476 1178 546 1261 685 
L 1747 1479 
L 3379 1479 
C 3386 1423 3386 1373 3392 1316 
C 3411 1152 3488 495 3488 376 
C 3488 186 3162 186 3059 186 
C 2989 186 2918 186 2918 70 
C 2918 0 2976 0 3014 0 
C 3123 0 3251 0 3360 0 
L 3725 0 
C 4115 0 4397 0 4403 0 
C 4448 0 4518 0 4518 122 
C 4518 186 4461 186 4365 186 
C 4013 186 4006 244 3987 434 
L 3597 4404 
C 3584 4531 3558 4544 3488 4544 
C 3424 4544 3386 4531 3328 4435 
L 1088 691 
z
M 1856 1664 
L 3142 3819 
L 3360 1664 
L 1856 1664 
z
" transform="scale(0.015625)"/>
     </defs>
     <use xlink:href="#CMMI12-41" transform="scale(0.996264)"/>
    </g>
   </g>
   <g id="text_5">
    <!-- $B$ -->
    <g transform="translate(387.907088 342.885383) scale(0.27 -0.27)">
     <defs>
      <path id="CMMI12-42" d="M 2342 3921 
C 2400 4160 2426 4160 2675 4160 
L 3507 4160 
C 4230 4160 4230 3544 4230 3485 
C 4230 2966 3712 2304 2867 2304 
L 1946 2304 
L 2342 3921 
z
M 3424 2275 
C 4122 2402 4755 2886 4755 3473 
C 4755 3970 4314 4352 3590 4352 
L 1536 4352 
C 1414 4352 1357 4352 1357 4226 
C 1357 4160 1414 4160 1510 4160 
C 1901 4160 1901 4112 1901 4044 
C 1901 4032 1901 3993 1875 3897 
L 1011 472 
C 954 249 941 185 493 185 
C 371 185 307 185 307 70 
C 307 0 346 0 474 0 
L 2669 0 
C 3648 0 4403 739 4403 1383 
C 4403 1906 3942 2224 3424 2275 
z
M 2515 185 
L 1651 185 
C 1562 185 1549 185 1510 192 
C 1440 198 1434 211 1434 261 
C 1434 305 1446 343 1459 399 
L 1907 2176 
L 3110 2176 
C 3866 2176 3866 1483 3866 1433 
C 3866 828 3309 185 2515 185 
z
" transform="scale(0.015625)"/>
     </defs>
     <use xlink:href="#CMMI12-42" transform="scale(0.996264)"/>
    </g>
   </g>
   <g id="text_6">
    <!-- $C$ -->
    <g transform="translate(377.854442 94.33681) scale(0.27 -0.27)">
     <defs>
      <path id="CMMI12-43" d="M 4781 4423 
C 4781 4480 4736 4480 4723 4480 
C 4710 4480 4685 4480 4634 4416 
L 4192 3882 
C 3968 4264 3616 4480 3136 4480 
C 1754 4480 320 3088 320 1595 
C 320 533 1069 -128 2003 -128 
C 2515 -128 2963 88 3334 400 
C 3891 863 4058 1481 4058 1531 
C 4058 1588 4006 1588 3987 1588 
C 3930 1588 3923 1550 3910 1524 
C 3616 534 2752 57 2112 57 
C 1434 57 845 489 845 1391 
C 845 1595 909 2700 1632 3532 
C 1984 3939 2586 4295 3194 4295 
C 3898 4295 4211 3717 4211 3068 
C 4211 2903 4192 2764 4192 2738 
C 4192 2681 4256 2681 4275 2681 
C 4346 2681 4352 2687 4378 2801 
L 4781 4423 
z
" transform="scale(0.015625)"/>
     </defs>
     <use xlink:href="#CMMI12-43" transform="scale(0.996264)"/>
    </g>
   </g>
  </g>
 </g>
 <defs>
  <clipPath id="pd083a4432a">
   <rect x="58.037372" y="10.8" width="317.794708" height="410.4"/>
  </clipPath>
 </defs>
</svg>
