<?xml version="1.0" encoding="utf-8" standalone="no"?>
<!DOCTYPE svg PUBLIC "-//W3C//DTD SVG 1.1//EN"
  "http://www.w3.org/Graphics/SVG/1.1/DTD/svg11.dtd">
<svg xmlns:xlink="http://www.w3.org/1999/xlink" width="460.8pt" height="345.6pt" viewBox="0 0 460.8 345.6" xmlns="http://www.w3.org/2000/svg" version="1.1">
 <metadata>
  <rdf:RDF xmlns:dc="http://purl.org/dc/elements/1.1/" xmlns:cc="http://creativecommons.org/ns#" xmlns:rdf="http://www.w3.org/1999/02/22-rdf-syntax-ns#">
   <cc:Work>
    <dc:type rdf:resource="http://purl.org/dc/dcmitype/StillImage"/>
    <dc:date>2026-01-27T17:21:30.748329</dc:date>
    <dc:format>image/svg+xml</dc:format>
    <dc:creator>
     <cc:Agent>
      <dc:title>Matplotlib v3.9.1, https://matplotlib.org/</dc:title>
     </cc:Agent>
    </dc:creator>
   </cc:Work>
  </rdf:RDF>
 </metadata>
 <defs>
  <style type="text/css">*{stroke-linejoin: round; stroke-linecap: butt}</style>
 </defs>
 <g id="figure_1">
  <g id="patch_1">
   <path d="M 0 345.6 
L 460.8 345.6 
L 460.8 0 
L 0 0 
L 0 345.6 
z
" style="fill: none"/>
  </g>
  <g id="axes_1">
   <g id="patch_2">
    <path d="M 10.8 334.8 
L 447 334.8 
L 447 20.016315 
L 10.8 20.016315 
L 10.8 334.8 
z
" style="fill: none"/>
   </g>
   <g id="matplotlib.axis_1">
    <g id="text_1">
     <!-- $x$ -->
     <g transform="translate(435.913188 217.729703) scale(0.2 -0.2)">
      <defs>
       <path id="CMMI12-78" d="M 3034 2606 
C 2829 2567 2752 2414 2752 2293 
C 2752 2139 2874 2088 2963 2088 
C 3155 2088 3290 2254 3290 2427 
C 3290 2695 2982 2816 2714 2816 
C 2323 2816 2106 2433 2048 2312 
C 1901 2816 1504 2816 1389 2816 
C 736 2816 390 1980 390 1839 
C 390 1814 416 1782 461 1782 
C 512 1782 525 1820 538 1846 
C 755 2555 1184 2689 1370 2689 
C 1658 2689 1715 2420 1715 2267 
C 1715 2127 1677 1980 1600 1673 
L 1382 798 
C 1286 415 1101 64 762 64 
C 730 64 570 64 435 147 
C 666 192 717 383 717 460 
C 717 588 621 664 499 664 
C 346 664 179 530 179 326 
C 179 57 480 -64 755 -64 
C 1062 -64 1280 179 1414 441 
C 1517 64 1837 -64 2074 -64 
C 2726 -64 3072 773 3072 913 
C 3072 945 3046 971 3008 971 
C 2950 971 2944 939 2925 888 
C 2752 326 2381 64 2093 64 
C 1869 64 1747 230 1747 492 
C 1747 632 1773 734 1875 1156 
L 2099 2024 
C 2195 2408 2413 2689 2707 2689 
C 2720 2689 2899 2689 3034 2606 
z
" transform="scale(0.015625)"/>
      </defs>
      <use xlink:href="#CMMI12-78" transform="scale(0.996264)"/>
     </g>
    </g>
   </g>
   <g id="matplotlib.axis_2">
    <g id="text_2">
     <!-- $y$ -->
     <g transform="translate(215.387165 16.140682) scale(0.2 -0.2)">
      <defs>
       <path id="CMMI12-79" d="M 1683 -700 
C 1510 -939 1261 -1152 947 -1152 
C 870 -1152 563 -1152 467 -889 
C 486 -895 518 -895 531 -895 
C 723 -895 851 -729 851 -582 
C 851 -435 730 -384 634 -384 
C 531 -384 307 -458 307 -759 
C 307 -1071 582 -1286 947 -1286 
C 1587 -1286 2234 -700 2413 6 
L 3040 2485 
C 3046 2517 3059 2556 3059 2594 
C 3059 2689 2982 2753 2886 2753 
C 2829 2753 2694 2727 2643 2535 
L 2170 658 
C 2138 543 2138 530 2086 460 
C 1958 281 1747 64 1440 64 
C 1082 64 1050 415 1050 588 
C 1050 952 1222 1443 1395 1903 
C 1466 2088 1504 2178 1504 2305 
C 1504 2574 1312 2816 998 2816 
C 410 2816 173 1890 173 1839 
C 173 1814 198 1782 243 1782 
C 301 1782 307 1807 333 1897 
C 486 2433 730 2689 979 2689 
C 1037 2689 1146 2689 1146 2478 
C 1146 2312 1075 2127 979 1884 
C 666 1047 666 837 666 683 
C 666 77 1101 -64 1421 -64 
C 1606 -64 1837 -6 2061 230 
L 2067 224 
C 1971 -147 1907 -392 1683 -700 
z
" transform="scale(0.015625)"/>
      </defs>
      <use xlink:href="#CMMI12-79" transform="scale(0.996264)"/>
     </g>
    </g>
   </g>
   <g id="line2d_1">
    <defs>
     <path id="mc63edb3432" d="M 3 0 
L -3 -3 
L -3 3 
z
" style="stroke: #000000; stroke-linejoin: miter"/>
    </defs>
    <g>
     <use xlink:href="#mc63edb3432" x="447" y="199.892707" style="stroke: #000000; stroke-linejoin: miter"/>
    </g>
   </g>
   <g id="line2d_2">
    <defs>
     <path id="m1ce4eaceb5" d="M 0 -3 
L -3 3 
L 3 3 
z
" style="stroke: #000000; stroke-linejoin: miter"/>
    </defs>
    <g>
     <use xlink:href="#m1ce4eaceb5" x="228.9" y="20.016315" style="stroke: #000000; stroke-linejoin: miter"/>
    </g>
   </g>
   <g id="line2d_3">
    <path d="M 10.8 232.784389 
L 92.778868 211.969756 
L 112.561362 207.185563 
L 125.421315 204.29206 
L 134.740121 202.412708 
L 141.902289 201.185653 
L 147.626698 200.422634 
L 152.312727 200.015532 
L 156.226625 199.892713 
L 159.55477 200.006125 
L 162.403662 200.320211 
L 164.879802 200.810352 
L 167.089691 201.471869 
L 169.059952 202.292929 
L 170.843838 203.27825 
L 172.467973 204.430756 
L 173.958982 205.761312 
L 175.34349 207.29305 
L 176.648123 209.067539 
L 177.899506 211.154128 
L 179.071013 213.544532 
L 180.189269 216.334819 
L 181.254276 219.592554 
L 182.292657 223.511289 
L 183.277788 228.133857 
L 184.209669 233.60618 
L 185.088299 240.113299 
L 185.913679 247.892035 
L 186.712434 257.616812 
L 187.457938 269.551695 
L 188.150192 284.362898 
L 188.789196 302.9831 
L 189.37495 326.745635 
L 189.739517 346.6 
M 195.432764 -1 
L 196.03124 27.917801 
L 196.696869 50.157642 
L 197.415748 67.223678 
L 198.187878 80.585656 
L 199.013258 91.21584 
L 199.891888 99.779881 
L 200.823769 106.746695 
L 201.808899 112.454614 
L 202.820656 117.045912 
L 203.885662 120.859293 
L 204.977294 123.955065 
L 206.09555 126.474643 
L 207.240432 128.521969 
L 208.411939 130.174831 
L 209.610071 131.492259 
L 210.834829 132.519493 
L 212.112836 133.305108 
L 213.444094 133.861426 
L 214.828603 134.197662 
L 216.292987 134.320197 
L 217.837246 134.220677 
L 219.461381 133.8886 
L 221.165391 133.310199 
L 222.949277 132.467147 
L 224.813038 131.334924 
L 226.703424 129.924284 
L 228.620436 128.215652 
L 230.537447 126.209387 
L 232.454459 123.8779 
L 234.344845 121.222125 
L 236.181981 118.253064 
L 237.965867 114.944109 
L 239.696502 111.260476 
L 241.373888 107.15816 
L 242.998022 102.582381 
L 244.542282 97.558635 
L 246.033291 91.940404 
L 247.471049 85.633686 
L 248.828932 78.670631 
L 250.133565 70.813131 
L 251.384948 61.900886 
L 252.58308 51.734497 
L 253.727962 40.063678 
L 254.819593 26.571024 
L 255.857975 10.849277 
L 256.514169 -1 
M 273.343965 346.6 
L 274.335836 326.585605 
L 275.400842 309.411014 
L 276.519099 294.83142 
L 277.717231 282.071094 
L 278.968614 271.080919 
L 280.273247 261.529821 
L 281.657755 253.011006 
L 283.095514 245.518805 
L 284.613148 238.771239 
L 286.210657 232.67623 
L 287.888042 227.152766 
L 289.645303 222.129925 
L 291.482439 217.545809 
L 293.426076 213.291786 
L 295.476213 209.339926 
L 297.632851 205.662655 
L 299.922615 202.195434 
L 302.37213 198.891471 
L 304.981395 195.746876 
L 307.777037 192.726864 
L 310.78568 189.805075 
L 314.03395 186.961059 
L 317.575096 184.158348 
L 321.435744 181.388723 
L 325.669145 178.627647 
L 330.355173 175.840912 
L 335.547079 173.016601 
L 341.324739 170.130847 
L 347.794653 167.151654 
L 355.089947 164.041152 
L 363.370372 160.756708 
L 372.848929 157.241621 
L 383.765244 153.436575 
L 396.412196 149.269612 
L 411.215785 144.632172 
L 428.73514 139.38377 
L 447 134.109341 
L 447 134.109341 
" clip-path="url(#pbc113119f7)" style="fill: none; stroke: #0072b2; stroke-width: 2.5; stroke-linecap: square"/>
   </g>
   <g id="line2d_4">
    <path d="M 10.8 235.867985 
L 447 127.94215 
" clip-path="url(#pbc113119f7)" style="fill: none; stroke-dasharray: 9.25,4; stroke-dashoffset: 0; stroke: #dc5e8b; stroke-width: 2.5"/>
   </g>
   <g id="LineCollection_1">
    <path d="M 192.55 334.8 
L 192.55 20.016315 
" clip-path="url(#pbc113119f7)" style="fill: none; stroke-dasharray: 9.25,4; stroke-dashoffset: 0; stroke: #dc5e8b; stroke-width: 2.5"/>
   </g>
   <g id="LineCollection_2">
    <path d="M 265.25 334.8 
L 265.25 20.016315 
" clip-path="url(#pbc113119f7)" style="fill: none; stroke-dasharray: 9.25,4; stroke-dashoffset: 0; stroke: #dc5e8b; stroke-width: 2.5"/>
   </g>
   <g id="line2d_5">
    <defs>
     <path id="m417f9436d3" d="M 0 5 
C 1.326016 5 2.597899 4.473168 3.535534 3.535534 
C 4.473168 2.597899 5 1.326016 5 0 
C 5 -1.326016 4.473168 -2.597899 3.535534 -3.535534 
C 2.597899 -4.473168 1.326016 -5 0 -5 
C -1.326016 -5 -2.597899 -4.473168 -3.535534 -3.535534 
C -4.473168 -2.597899 -5 -1.326016 -5 0 
C -5 1.326016 -4.473168 2.597899 -3.535534 3.535534 
C -2.597899 4.473168 -1.326016 5 0 5 
z
" style="stroke: #000000; stroke-opacity: 0.8"/>
    </defs>
    <g clip-path="url(#pbc113119f7)">
     <use xlink:href="#m417f9436d3" x="156.2" y="199.892707" style="fill-opacity: 0.8; stroke: #000000; stroke-opacity: 0.8"/>
    </g>
   </g>
   <g id="line2d_6">
    <g clip-path="url(#pbc113119f7)">
     <use xlink:href="#m417f9436d3" x="301.6" y="199.892707" style="fill-opacity: 0.8; stroke: #000000; stroke-opacity: 0.8"/>
    </g>
   </g>
   <g id="patch_3">
    <path d="M 228.9 334.8 
L 228.9 20.016315 
" style="fill: none; stroke: #000000; stroke-width: 0.8; stroke-linejoin: miter; stroke-linecap: square"/>
   </g>
   <g id="patch_4">
    <path d="M 447 334.8 
L 447 20.016315 
" style="fill: none"/>
   </g>
   <g id="patch_5">
    <path d="M 10.8 199.892707 
L 447 199.892707 
" style="fill: none; stroke: #000000; stroke-width: 0.8; stroke-linejoin: miter; stroke-linecap: square"/>
   </g>
   <g id="patch_6">
    <path d="M 10.8 20.016315 
L 447 20.016315 
" style="fill: none"/>
   </g>
  </g>
 </g>
 <defs>
  <clipPath id="pbc113119f7">
   <rect x="10.8" y="20.016315" width="436.2" height="314.783685"/>
  </clipPath>
 </defs>
</svg>
