<?xml version="1.0" encoding="utf-8" standalone="no"?>
<!DOCTYPE svg PUBLIC "-//W3C//DTD SVG 1.1//EN"
  "http://www.w3.org/Graphics/SVG/1.1/DTD/svg11.dtd">
<svg xmlns:xlink="http://www.w3.org/1999/xlink" width="432pt" height="432pt" viewBox="0 0 432 432" xmlns="http://www.w3.org/2000/svg" version="1.1">
 <metadata>
  <rdf:RDF xmlns:dc="http://purl.org/dc/elements/1.1/" xmlns:cc="http://creativecommons.org/ns#" xmlns:rdf="http://www.w3.org/1999/02/22-rdf-syntax-ns#">
   <cc:Work>
    <dc:type rdf:resource="http://purl.org/dc/dcmitype/StillImage"/>
    <dc:date>2026-02-21T17:24:17.580778</dc:date>
    <dc:format>image/svg+xml</dc:format>
    <dc:creator>
     <cc:Agent>
      <dc:title>Matplotlib v3.9.1, https://matplotlib.org/</dc:title>
     </cc:Agent>
    </dc:creator>
   </cc:Work>
  </rdf:RDF>
 </metadata>
 <defs>
  <style type="text/css">*{stroke-linejoin: round; stroke-linecap: butt}</style>
 </defs>
 <g id="figure_1">
  <g id="patch_1">
   <path d="M 0 432 
L 432 432 
L 432 0 
L 0 0 
L 0 432 
z
" style="fill: none"/>
  </g>
  <g id="axes_1">
   <g id="patch_2">
    <path d="M 316.900715 281.470901 
C 324.867704 281.470901 332.509459 278.305582 338.142971 272.67207 
C 343.776483 267.038558 346.941801 259.396804 346.941801 251.429814 
C 346.941801 243.462825 343.776483 235.821071 338.142971 230.187559 
C 332.509459 224.554046 324.867704 221.388728 316.900715 221.388728 
C 308.933726 221.388728 301.291971 224.554046 295.658459 230.187559 
C 290.024947 235.821071 286.859629 243.462825 286.859629 251.429814 
C 286.859629 259.396804 290.024947 267.038558 295.658459 272.67207 
C 301.291971 278.305582 308.933726 281.470901 316.900715 281.470901 
z
" clip-path="url(#p84e7915e08)" style="fill: #dc5e8b; fill-opacity: 0.2; stroke: #dc5e8b; stroke-width: 2.5; stroke-linejoin: miter"/>
   </g>
   <g id="line2d_1">
    <path d="M 28.243211 150.529099 
L 403.756789 150.529099 
" clip-path="url(#p84e7915e08)" style="fill: none; stroke: #808080; stroke-width: 2.5; stroke-linecap: square"/>
   </g>
   <g id="line2d_2">
    <path d="M 216 150.529099 
L 295.658459 230.187559 
" clip-path="url(#p84e7915e08)" style="fill: none; stroke: #0072b2; stroke-width: 2.5; stroke-linecap: square"/>
   </g>
  </g>
 </g>
 <defs>
  <clipPath id="p84e7915e08">
   <rect x="10.8" y="10.8" width="410.4" height="410.4"/>
  </clipPath>
 </defs>
</svg>
