<?xml version="1.0" encoding="utf-8" standalone="no"?>
<!DOCTYPE svg PUBLIC "-//W3C//DTD SVG 1.1//EN"
  "http://www.w3.org/Graphics/SVG/1.1/DTD/svg11.dtd">
<svg xmlns:xlink="http://www.w3.org/1999/xlink" width="216pt" height="216pt" viewBox="0 0 216 216" xmlns="http://www.w3.org/2000/svg" version="1.1">
 <metadata>
  <rdf:RDF xmlns:dc="http://purl.org/dc/elements/1.1/" xmlns:cc="http://creativecommons.org/ns#" xmlns:rdf="http://www.w3.org/1999/02/22-rdf-syntax-ns#">
   <cc:Work>
    <dc:type rdf:resource="http://purl.org/dc/dcmitype/StillImage"/>
    <dc:date>2026-03-12T07:21:33.191471</dc:date>
    <dc:format>image/svg+xml</dc:format>
    <dc:creator>
     <cc:Agent>
      <dc:title>Matplotlib v3.10.8, https://matplotlib.org/</dc:title>
     </cc:Agent>
    </dc:creator>
   </cc:Work>
  </rdf:RDF>
 </metadata>
 <defs>
  <style type="text/css">*{stroke-linejoin: round; stroke-linecap: butt}</style>
 </defs>
 <g id="figure_1">
  <g id="patch_1">
   <path d="M 0 216 
L 216 216 
L 216 0 
L 0 0 
L 0 216 
z
" style="fill: none"/>
  </g>
  <g id="axes_1">
   <g id="patch_2">
    <path d="M 159.880165 160.340993 
C 163.811245 160.340993 167.581848 158.779159 170.361541 155.999465 
C 173.141235 153.219772 174.70307 149.449169 174.70307 145.518089 
C 174.70307 141.587009 173.141235 137.816406 170.361541 135.036713 
C 167.581848 132.257019 163.811245 130.695185 159.880165 130.695185 
C 155.949085 130.695185 152.178483 132.257019 149.398789 135.036713 
C 146.619096 137.816406 145.057261 141.587009 145.057261 145.518089 
C 145.057261 149.449169 146.619096 153.219772 149.398789 155.999465 
C 152.178483 158.779159 155.949085 160.340993 159.880165 160.340993 
z
" clip-path="url(#p0bec72985a)" style="fill: #dc5e8b; fill-opacity: 0.2; stroke: #dc5e8b; stroke-width: 2.5; stroke-linejoin: miter"/>
   </g>
   <g id="patch_3">
    <path d="M 56.119835 160.340993 
C 60.050915 160.340993 63.821517 158.779159 66.601211 155.999465 
C 69.380904 153.219772 70.942739 149.449169 70.942739 145.518089 
C 70.942739 141.587009 69.380904 137.816406 66.601211 135.036713 
C 63.821517 132.257019 60.050915 130.695185 56.119835 130.695185 
C 52.188755 130.695185 48.418152 132.257019 45.638459 135.036713 
C 42.858765 137.816406 41.29693 141.587009 41.29693 145.518089 
C 41.29693 149.449169 42.858765 153.219772 45.638459 155.999465 
C 48.418152 158.779159 52.188755 160.340993 56.119835 160.340993 
z
" clip-path="url(#p0bec72985a)" style="fill: #dc5e8b; fill-opacity: 0.2; stroke-dasharray: 9.25,4; stroke-dashoffset: 0; stroke: #dc5e8b; stroke-width: 2.5; stroke-linejoin: miter"/>
   </g>
   <g id="line2d_1">
    <path d="M 159.880165 145.518089 
L 155.68729 147.811752 
L 151.393244 149.909909 
L 147.007137 151.808107 
L 142.538274 153.50232 
L 137.996136 154.988952 
L 133.390359 156.264851 
L 128.730716 157.327309 
L 124.027091 158.174072 
L 119.289464 158.803343 
L 114.527886 159.213789 
L 109.752458 159.404537 
L 104.973313 159.375184 
L 100.200588 159.125791 
L 95.444411 158.656887 
L 90.714871 157.969468 
L 86.022002 157.064992 
L 81.375761 155.945377 
L 76.786005 154.613 
L 72.262471 153.070686 
L 67.814756 151.321708 
L 63.452296 149.369776 
L 59.184346 147.219032 
L 56.119835 145.518089 
L 56.119835 145.518089 
" clip-path="url(#p0bec72985a)" style="fill: none; stroke-dasharray: 3.7,1.6; stroke-dashoffset: 0; stroke: #808080"/>
   </g>
   <g id="line2d_2">
    <path d="M 19.062574 55.659007 
L 196.937426 55.659007 
" clip-path="url(#p0bec72985a)" style="fill: none; stroke: #808080; stroke-width: 2.5; stroke-linecap: square"/>
   </g>
   <g id="line2d_3">
    <path d="M 108 55.659007 
L 152.468713 132.681077 
" clip-path="url(#p0bec72985a)" style="fill: none; stroke: #0072b2; stroke-width: 2.5; stroke-linecap: square"/>
   </g>
   <g id="line2d_4">
    <path d="M 108 55.659007 
L 63.531287 132.681077 
" clip-path="url(#p0bec72985a)" style="fill: none; stroke-dasharray: 9.25,4; stroke-dashoffset: 0; stroke: #0072b2; stroke-width: 2.5"/>
   </g>
   <g id="line2d_5">
    <defs>
     <path id="mf91e761eae" d="M 0 5 
C 1.326016 5 2.597899 4.473168 3.535534 3.535534 
C 4.473168 2.597899 5 1.326016 5 0 
C 5 -1.326016 4.473168 -2.597899 3.535534 -3.535534 
C 2.597899 -4.473168 1.326016 -5 0 -5 
C -1.326016 -5 -2.597899 -4.473168 -3.535534 -3.535534 
C -4.473168 -2.597899 -5 -1.326016 -5 0 
C -5 1.326016 -4.473168 2.597899 -3.535534 3.535534 
C -2.597899 4.473168 -1.326016 5 0 5 
z
" style="stroke: #000000; stroke-opacity: 0.8"/>
    </defs>
    <g clip-path="url(#p0bec72985a)">
     <use xlink:href="#mf91e761eae" x="108" y="55.659007" style="fill-opacity: 0.8; stroke: #000000; stroke-opacity: 0.8"/>
    </g>
   </g>
   <g id="text_1">
    <!-- $\ell$ -->
    <g transform="translate(154.180759 94.551086) scale(0.2 -0.2)">
     <defs>
      <path id="CMMI12-60" d="M 589 1088 
C 186 692 83 597 83 572 
C 83 546 109 501 154 501 
C 186 501 550 851 602 909 
C 640 482 800 -73 1299 -73 
C 1555 -73 1786 86 1888 163 
C 1971 227 2278 488 2278 546 
C 2278 578 2246 616 2214 616 
C 2189 616 2093 520 2067 495 
C 1843 278 1562 55 1306 55 
C 960 55 915 552 915 897 
C 915 960 915 1228 960 1279 
C 1338 1667 2522 2886 2522 4014 
C 2522 4269 2426 4492 2150 4492 
C 1555 4492 1037 3178 947 2936 
C 922 2873 550 1891 589 1088 
z
M 973 1471 
C 979 1509 1267 3186 1805 4082 
C 1914 4255 2022 4364 2150 4364 
C 2368 4364 2381 4159 2381 4018 
C 2381 3794 2317 3218 1760 2412 
C 1594 2175 1338 1855 973 1471 
z
" transform="scale(0.015625)"/>
     </defs>
     <use xlink:href="#CMMI12-60" transform="scale(0.996264)"/>
    </g>
   </g>
  </g>
 </g>
 <defs>
  <clipPath id="p0bec72985a">
   <rect x="10.8" y="10.8" width="194.4" height="194.4"/>
  </clipPath>
 </defs>
</svg>
