<?xml version="1.0" encoding="utf-8" standalone="no"?>
<!DOCTYPE svg PUBLIC "-//W3C//DTD SVG 1.1//EN"
  "http://www.w3.org/Graphics/SVG/1.1/DTD/svg11.dtd">
<svg xmlns:xlink="http://www.w3.org/1999/xlink" width="460.8pt" height="345.6pt" viewBox="0 0 460.8 345.6" xmlns="http://www.w3.org/2000/svg" version="1.1">
 <metadata>
  <rdf:RDF xmlns:dc="http://purl.org/dc/elements/1.1/" xmlns:cc="http://creativecommons.org/ns#" xmlns:rdf="http://www.w3.org/1999/02/22-rdf-syntax-ns#">
   <cc:Work>
    <dc:type rdf:resource="http://purl.org/dc/dcmitype/StillImage"/>
    <dc:date>2026-01-12T12:05:24.395761</dc:date>
    <dc:format>image/svg+xml</dc:format>
    <dc:creator>
     <cc:Agent>
      <dc:title>Matplotlib v3.9.1, https://matplotlib.org/</dc:title>
     </cc:Agent>
    </dc:creator>
   </cc:Work>
  </rdf:RDF>
 </metadata>
 <defs>
  <style type="text/css">*{stroke-linejoin: round; stroke-linecap: butt}</style>
 </defs>
 <g id="figure_1">
  <g id="patch_1">
   <path d="M 0 345.6 
L 460.8 345.6 
L 460.8 0 
L 0 0 
L 0 345.6 
z
" style="fill: none"/>
  </g>
  <g id="axes_1">
   <g id="patch_2">
    <path d="M 10.8 334.8 
L 447 334.8 
L 447 20.016315 
L 10.8 20.016315 
L 10.8 334.8 
z
" style="fill: none"/>
   </g>
   <g id="matplotlib.axis_1">
    <g id="text_1">
     <!-- $x$ -->
     <g transform="translate(435.913188 163.766786) scale(0.2 -0.2)">
      <defs>
       <path id="CMMI12-78" d="M 3034 2606 
C 2829 2567 2752 2414 2752 2293 
C 2752 2139 2874 2088 2963 2088 
C 3155 2088 3290 2254 3290 2427 
C 3290 2695 2982 2816 2714 2816 
C 2323 2816 2106 2433 2048 2312 
C 1901 2816 1504 2816 1389 2816 
C 736 2816 390 1980 390 1839 
C 390 1814 416 1782 461 1782 
C 512 1782 525 1820 538 1846 
C 755 2555 1184 2689 1370 2689 
C 1658 2689 1715 2420 1715 2267 
C 1715 2127 1677 1980 1600 1673 
L 1382 798 
C 1286 415 1101 64 762 64 
C 730 64 570 64 435 147 
C 666 192 717 383 717 460 
C 717 588 621 664 499 664 
C 346 664 179 530 179 326 
C 179 57 480 -64 755 -64 
C 1062 -64 1280 179 1414 441 
C 1517 64 1837 -64 2074 -64 
C 2726 -64 3072 773 3072 913 
C 3072 945 3046 971 3008 971 
C 2950 971 2944 939 2925 888 
C 2752 326 2381 64 2093 64 
C 1869 64 1747 230 1747 492 
C 1747 632 1773 734 1875 1156 
L 2099 2024 
C 2195 2408 2413 2689 2707 2689 
C 2720 2689 2899 2689 3034 2606 
z
" transform="scale(0.015625)"/>
      </defs>
      <use xlink:href="#CMMI12-78" transform="scale(0.996264)"/>
     </g>
    </g>
   </g>
   <g id="matplotlib.axis_2">
    <g id="text_2">
     <!-- $y$ -->
     <g transform="translate(215.387165 16.140682) scale(0.2 -0.2)">
      <defs>
       <path id="CMMI12-79" d="M 1683 -700 
C 1510 -939 1261 -1152 947 -1152 
C 870 -1152 563 -1152 467 -889 
C 486 -895 518 -895 531 -895 
C 723 -895 851 -729 851 -582 
C 851 -435 730 -384 634 -384 
C 531 -384 307 -458 307 -759 
C 307 -1071 582 -1286 947 -1286 
C 1587 -1286 2234 -700 2413 6 
L 3040 2485 
C 3046 2517 3059 2556 3059 2594 
C 3059 2689 2982 2753 2886 2753 
C 2829 2753 2694 2727 2643 2535 
L 2170 658 
C 2138 543 2138 530 2086 460 
C 1958 281 1747 64 1440 64 
C 1082 64 1050 415 1050 588 
C 1050 952 1222 1443 1395 1903 
C 1466 2088 1504 2178 1504 2305 
C 1504 2574 1312 2816 998 2816 
C 410 2816 173 1890 173 1839 
C 173 1814 198 1782 243 1782 
C 301 1782 307 1807 333 1897 
C 486 2433 730 2689 979 2689 
C 1037 2689 1146 2689 1146 2478 
C 1146 2312 1075 2127 979 1884 
C 666 1047 666 837 666 683 
C 666 77 1101 -64 1421 -64 
C 1606 -64 1837 -6 2061 230 
L 2067 224 
C 1971 -147 1907 -392 1683 -700 
z
" transform="scale(0.015625)"/>
      </defs>
      <use xlink:href="#CMMI12-79" transform="scale(0.996264)"/>
     </g>
    </g>
   </g>
   <g id="line2d_1">
    <defs>
     <path id="m9b385e3304" d="M 3 0 
L -3 -3 
L -3 3 
z
" style="stroke: #000000; stroke-linejoin: miter"/>
    </defs>
    <g>
     <use xlink:href="#m9b385e3304" x="447" y="145.929789" style="stroke: #000000; stroke-linejoin: miter"/>
    </g>
   </g>
   <g id="line2d_2">
    <defs>
     <path id="m495d4ad3cd" d="M 0 -3 
L -3 3 
L 3 3 
z
" style="stroke: #000000; stroke-linejoin: miter"/>
    </defs>
    <g>
     <use xlink:href="#m495d4ad3cd" x="228.9" y="20.016315" style="stroke: #000000; stroke-linejoin: miter"/>
    </g>
   </g>
   <g id="line2d_3">
    <path d="M 66.094511 346.6 
L 69.72148 317.100196 
L 73.315876 289.660034 
L 76.830397 264.516464 
L 80.265043 241.517592 
L 83.646438 220.358359 
L 86.947958 201.084837 
L 90.169603 183.56606 
L 93.337997 167.548376 
L 96.426515 153.063089 
L 99.435158 139.99797 
L 102.363926 128.247022 
L 105.239443 117.615842 
L 108.035085 108.120026 
L 110.750851 99.669539 
L 113.386742 92.179639 
L 115.942758 85.57064 
L 118.418898 79.767685 
L 120.841787 74.647199 
L 123.184801 70.207887 
L 125.44794 66.38711 
L 127.631203 63.126259 
L 129.761216 60.338066 
L 131.811353 58.01286 
L 133.80824 56.078479 
L 135.751877 54.501874 
L 137.642263 53.251808 
L 139.479399 52.298776 
L 141.28991 51.606507 
L 143.073796 51.158899 
L 144.857682 50.938844 
L 146.641567 50.941174 
L 148.452078 51.165617 
L 150.289214 51.616522 
L 152.179601 52.309233 
L 154.149863 53.271556 
L 156.2 54.525934 
L 158.330013 56.094223 
L 160.566526 58.02212 
L 162.90954 60.339852 
L 165.38568 63.107945 
L 167.994946 66.364264 
L 170.763963 70.18313 
L 173.69273 74.608238 
L 176.807874 79.725189 
L 180.136019 85.628783 
L 183.703791 92.421176 
L 187.537814 100.209173 
L 191.691339 109.159341 
L 196.270866 119.569839 
L 201.382897 131.758676 
L 207.320308 146.511843 
L 214.828603 165.80175 
L 238.764622 227.75093 
L 244.622157 242.028585 
L 249.680938 253.788098 
L 254.207215 263.759387 
L 258.334115 272.32354 
L 262.141513 279.721478 
L 265.656034 286.077021 
L 268.957554 291.597194 
L 272.046072 296.336752 
L 274.948215 300.391861 
L 277.690606 303.848491 
L 280.273247 306.753199 
L 282.722761 309.179434 
L 285.03915 311.167071 
L 287.249039 312.774815 
L 289.352426 314.034272 
L 291.375938 314.988608 
L 293.319575 315.660602 
L 295.183336 316.073534 
L 297.020472 316.252986 
L 298.804358 316.205647 
L 300.588244 315.934759 
L 302.37213 315.435154 
L 304.156015 314.701665 
L 305.966526 313.712772 
L 307.803662 312.452088 
L 309.694049 310.878442 
L 311.61106 308.990061 
L 313.581322 306.735504 
L 315.631459 304.044504 
L 317.734847 300.909765 
L 319.91811 297.246511 
L 322.154624 293.051639 
L 324.471013 288.224311 
L 326.840652 282.766174 
L 329.290167 276.558654 
L 331.819557 269.531483 
L 334.428823 261.609812 
L 337.091339 252.805767 
L 339.83373 242.958505 
L 342.655997 231.979341 
L 345.531514 219.890411 
L 348.486907 206.493697 
L 351.522175 191.68485 
L 354.610694 175.497923 
L 357.779088 157.692286 
L 361.027358 138.14596 
L 364.328877 116.907097 
L 367.710273 93.686479 
L 371.144919 68.543517 
L 374.65944 41.153582 
L 378.227211 11.588567 
L 379.683686 -1 
L 379.683686 -1 
" clip-path="url(#pcb6a90e098)" style="fill: none; stroke: #0072b2; stroke-width: 2.5; stroke-linecap: square"/>
   </g>
   <g id="patch_3">
    <path d="M 228.9 334.8 
L 228.9 20.016315 
" style="fill: none; stroke: #000000; stroke-width: 0.8; stroke-linejoin: miter; stroke-linecap: square"/>
   </g>
   <g id="patch_4">
    <path d="M 447 334.8 
L 447 20.016315 
" style="fill: none"/>
   </g>
   <g id="patch_5">
    <path d="M 10.8 145.929789 
L 447 145.929789 
" style="fill: none; stroke: #000000; stroke-width: 0.8; stroke-linejoin: miter; stroke-linecap: square"/>
   </g>
   <g id="patch_6">
    <path d="M 10.8 20.016315 
L 447 20.016315 
" style="fill: none"/>
   </g>
   <g id="legend_1">
    <g id="patch_7">
     <path d="M 24.8 63.891949 
L 103.621601 63.891949 
Q 107.621601 63.891949 107.621601 59.891949 
L 107.621601 34.016315 
Q 107.621601 30.016315 103.621601 30.016315 
L 24.8 30.016315 
Q 20.8 30.016315 20.8 34.016315 
L 20.8 59.891949 
Q 20.8 63.891949 24.8 63.891949 
z
" style="fill: #ffffff; opacity: 0.8; stroke: #cccccc; stroke-linejoin: miter"/>
    </g>
    <g id="line2d_4">
     <path d="M 28.8 45.016315 
L 48.8 45.016315 
L 68.8 45.016315 
" style="fill: none; stroke: #0072b2; stroke-width: 2.5; stroke-linecap: square"/>
    </g>
    <g id="text_3">
     <!-- $B$ -->
     <g transform="translate(84.8 52.016315) scale(0.2 -0.2)">
      <defs>
       <path id="CMMI12-42" d="M 2342 3921 
C 2400 4160 2426 4160 2675 4160 
L 3507 4160 
C 4230 4160 4230 3544 4230 3485 
C 4230 2966 3712 2304 2867 2304 
L 1946 2304 
L 2342 3921 
z
M 3424 2275 
C 4122 2402 4755 2886 4755 3473 
C 4755 3970 4314 4352 3590 4352 
L 1536 4352 
C 1414 4352 1357 4352 1357 4226 
C 1357 4160 1414 4160 1510 4160 
C 1901 4160 1901 4112 1901 4044 
C 1901 4032 1901 3993 1875 3897 
L 1011 472 
C 954 249 941 185 493 185 
C 371 185 307 185 307 70 
C 307 0 346 0 474 0 
L 2669 0 
C 3648 0 4403 739 4403 1383 
C 4403 1906 3942 2224 3424 2275 
z
M 2515 185 
L 1651 185 
C 1562 185 1549 185 1510 192 
C 1440 198 1434 211 1434 261 
C 1434 305 1446 343 1459 399 
L 1907 2176 
L 3110 2176 
C 3866 2176 3866 1483 3866 1433 
C 3866 828 3309 185 2515 185 
z
" transform="scale(0.015625)"/>
      </defs>
      <use xlink:href="#CMMI12-42" transform="scale(0.996264)"/>
     </g>
    </g>
   </g>
  </g>
 </g>
 <defs>
  <clipPath id="pcb6a90e098">
   <rect x="10.8" y="20.016315" width="436.2" height="314.783685"/>
  </clipPath>
 </defs>
</svg>
