<?xml version="1.0" encoding="utf-8" standalone="no"?>
<!DOCTYPE svg PUBLIC "-//W3C//DTD SVG 1.1//EN"
  "http://www.w3.org/Graphics/SVG/1.1/DTD/svg11.dtd">
<svg xmlns:xlink="http://www.w3.org/1999/xlink" width="432pt" height="432pt" viewBox="0 0 432 432" xmlns="http://www.w3.org/2000/svg" version="1.1">
 <metadata>
  <rdf:RDF xmlns:dc="http://purl.org/dc/elements/1.1/" xmlns:cc="http://creativecommons.org/ns#" xmlns:rdf="http://www.w3.org/1999/02/22-rdf-syntax-ns#">
   <cc:Work>
    <dc:type rdf:resource="http://purl.org/dc/dcmitype/StillImage"/>
    <dc:date>2026-03-23T22:55:13.881751</dc:date>
    <dc:format>image/svg+xml</dc:format>
    <dc:creator>
     <cc:Agent>
      <dc:title>Matplotlib v3.10.8, https://matplotlib.org/</dc:title>
     </cc:Agent>
    </dc:creator>
   </cc:Work>
  </rdf:RDF>
 </metadata>
 <defs>
  <style type="text/css">*{stroke-linejoin: round; stroke-linecap: butt}</style>
 </defs>
 <g id="figure_1">
  <g id="patch_1">
   <path d="M 0 432 
L 432 432 
L 432 0 
L 0 0 
L 0 432 
z
" style="fill: none"/>
  </g>
  <g id="axes_1">
   <g id="line2d_1">
    <path d="M 40.115889 368.192789 
L 215.852984 266.73093 
" clip-path="url(#p8f75256bb0)" style="fill: none; stroke: #0072b2; stroke-width: 2.5; stroke-linecap: square"/>
   </g>
   <g id="line2d_2">
    <path d="M 215.852984 266.73093 
L 215.852984 63.807211 
" clip-path="url(#p8f75256bb0)" style="fill: none; stroke: #0072b2; stroke-width: 2.5; stroke-linecap: square"/>
   </g>
   <g id="line2d_3">
    <path d="M 215.852984 63.807211 
L 40.115889 368.192789 
" clip-path="url(#p8f75256bb0)" style="fill: none; stroke: #0072b2; stroke-width: 2.5; stroke-linecap: square"/>
   </g>
   <g id="line2d_4">
    <path d="M 215.852984 266.73093 
L 391.590078 368.192789 
" clip-path="url(#p8f75256bb0)" style="fill: none; stroke: #0072b2; stroke-width: 2.5; stroke-linecap: square"/>
   </g>
   <g id="line2d_5">
    <path d="M 391.590078 368.192789 
L 215.852984 63.807211 
" clip-path="url(#p8f75256bb0)" style="fill: none; stroke: #0072b2; stroke-width: 2.5; stroke-linecap: square"/>
   </g>
   <g id="line2d_6">
    <path d="M 215.852984 63.807211 
L 215.852984 266.73093 
" clip-path="url(#p8f75256bb0)" style="fill: none; stroke: #0072b2; stroke-width: 2.5; stroke-linecap: square"/>
   </g>
   <g id="line2d_7">
    <path d="M 92.567694 337.909724 
L 92.23638 337.335672 
L 91.898865 336.76529 
L 91.555188 336.198649 
L 91.20539 335.635814 
L 90.849513 335.076853 
L 90.4876 334.521832 
L 90.119693 333.970818 
L 89.745837 333.423875 
L 89.366075 332.88107 
L 88.980453 332.342466 
L 88.589017 331.808128 
L 88.191814 331.278119 
L 87.78889 330.752502 
L 87.380293 330.23134 
L 86.966073 329.714696 
L 86.546278 329.202629 
L 86.120959 328.695202 
L 85.690166 328.192474 
L 85.25395 327.694506 
L 84.812363 327.201357 
L 84.365458 326.713085 
L 83.913288 326.229748 
L 83.455907 325.751405 
L 82.993369 325.278111 
L 82.525729 324.809924 
L 82.053043 324.346899 
L 81.575367 323.88909 
L 81.092757 323.436554 
L 80.605273 322.989342 
L 80.11297 322.547509 
L 79.615909 322.111108 
L 79.114147 321.680189 
L 78.607745 321.254805 
L 78.096764 320.835005 
L 77.581263 320.420841 
L 77.061304 320.012361 
L 76.536949 319.609613 
L 76.008261 319.212647 
L 75.475302 318.821508 
L 74.938135 318.436243 
L 74.396826 318.056899 
L 73.851437 317.683521 
L 73.302034 317.316152 
L 72.748683 316.954837 
L 72.191449 316.599619 
L 71.630398 316.250539 
L 71.065598 315.90764 
L 70.497114 315.570962 
" clip-path="url(#p8f75256bb0)" style="fill: none; stroke: #dc5e8b; stroke-width: 2; stroke-linecap: square"/>
   </g>
   <g id="line2d_8">
    <path d="M 185.471758 116.429038 
L 186.046943 116.761215 
L 186.625712 117.087023 
L 187.207997 117.406424 
L 187.793727 117.719377 
L 188.382832 118.025847 
L 188.97524 118.325797 
L 189.570881 118.619189 
L 190.169683 118.905989 
L 190.771574 119.186162 
L 191.376481 119.459675 
L 191.984332 119.726495 
L 192.595054 119.986589 
L 193.208573 120.239927 
L 193.824815 120.486477 
L 194.443707 120.726211 
L 195.065173 120.959099 
L 195.68914 121.185114 
L 196.315532 121.404228 
L 196.944273 121.616414 
L 197.575289 121.821648 
L 198.208503 122.019905 
L 198.843839 122.21116 
L 199.481221 122.395391 
L 200.120572 122.572576 
L 200.761814 122.742693 
L 201.404872 122.905722 
L 202.049668 123.061643 
L 202.696123 123.210438 
L 203.344161 123.352088 
L 203.993704 123.486577 
L 204.644673 123.613889 
L 205.296989 123.734007 
L 205.950576 123.846918 
L 206.605353 123.952608 
L 207.261242 124.051065 
L 207.918165 124.142276 
L 208.576042 124.22623 
L 209.234795 124.302919 
L 209.894343 124.372331 
L 210.554608 124.434459 
L 211.21551 124.489295 
L 211.87697 124.536834 
L 212.538908 124.577068 
L 213.201245 124.609994 
L 213.8639 124.635607 
L 214.526795 124.653904 
L 215.189849 124.664883 
L 215.852984 124.668543 
" clip-path="url(#p8f75256bb0)" style="fill: none; stroke: #dc5e8b; stroke-width: 2; stroke-linecap: square"/>
   </g>
   <g id="line2d_9">
    <path d="M 339.138273 337.909724 
L 339.469587 337.335672 
L 339.807102 336.76529 
L 340.15078 336.198649 
L 340.500577 335.635814 
L 340.856454 335.076853 
L 341.218367 334.521832 
L 341.586274 333.970818 
L 341.96013 333.423875 
L 342.339892 332.88107 
L 342.725514 332.342466 
L 343.11695 331.808128 
L 343.514153 331.278119 
L 343.917077 330.752502 
L 344.325674 330.23134 
L 344.739894 329.714696 
L 345.159689 329.202629 
L 345.585008 328.695202 
L 346.015801 328.192474 
L 346.452017 327.694506 
L 346.893604 327.201357 
L 347.340509 326.713085 
L 347.792679 326.229748 
L 348.25006 325.751405 
L 348.712598 325.278111 
L 349.180238 324.809924 
L 349.652924 324.346899 
L 350.1306 323.88909 
L 350.61321 323.436554 
L 351.100694 322.989342 
L 351.592997 322.547509 
L 352.090059 322.111108 
L 352.59182 321.680189 
L 353.098222 321.254805 
L 353.609204 320.835005 
L 354.124705 320.420841 
L 354.644663 320.012361 
L 355.169018 319.609613 
L 355.697706 319.212647 
L 356.230665 318.821508 
L 356.767832 318.436243 
L 357.309141 318.056899 
L 357.85453 317.683521 
L 358.403933 317.316152 
L 358.957284 316.954837 
L 359.514518 316.599619 
L 360.075569 316.250539 
L 360.64037 315.90764 
L 361.208853 315.570962 
" clip-path="url(#p8f75256bb0)" style="fill: none; stroke: #dc5e8b; stroke-width: 2; stroke-linecap: square"/>
   </g>
   <g id="line2d_10">
    <path d="M 215.852984 124.668543 
L 216.516118 124.664883 
L 217.179172 124.653904 
L 217.842067 124.635607 
L 218.504722 124.609994 
L 219.167059 124.577068 
L 219.828997 124.536834 
L 220.490457 124.489295 
L 221.151359 124.434459 
L 221.811624 124.372331 
L 222.471172 124.302919 
L 223.129925 124.22623 
L 223.787802 124.142276 
L 224.444725 124.051065 
L 225.100614 123.952608 
L 225.755391 123.846918 
L 226.408978 123.734007 
L 227.061294 123.613889 
L 227.712263 123.486577 
L 228.361806 123.352088 
L 229.009844 123.210438 
L 229.656299 123.061643 
L 230.301095 122.905722 
L 230.944153 122.742693 
L 231.585396 122.572576 
L 232.224746 122.395391 
L 232.862128 122.21116 
L 233.497464 122.019905 
L 234.130678 121.821648 
L 234.761694 121.616414 
L 235.390435 121.404228 
L 236.016827 121.185114 
L 236.640794 120.959099 
L 237.26226 120.726211 
L 237.881152 120.486477 
L 238.497394 120.239927 
L 239.110913 119.986589 
L 239.721635 119.726495 
L 240.329486 119.459675 
L 240.934394 119.186162 
L 241.536284 118.905989 
L 242.135086 118.619189 
L 242.730727 118.325797 
L 243.323136 118.025847 
L 243.91224 117.719377 
L 244.49797 117.406424 
L 245.080255 117.087023 
L 245.659024 116.761215 
L 246.234209 116.429038 
" clip-path="url(#p8f75256bb0)" style="fill: none; stroke: #dc5e8b; stroke-width: 2; stroke-linecap: square"/>
   </g>
   <g id="text_1">
    <!-- $6$ -->
    <g transform="translate(106.131522 213.550371) scale(0.27 -0.27)">
     <defs>
      <path id="CMR17-36" d="M 678 2176 
C 678 3690 1395 4032 1811 4032 
C 1946 4032 2272 4009 2400 3776 
C 2298 3776 2106 3776 2106 3553 
C 2106 3381 2246 3323 2336 3323 
C 2394 3323 2566 3348 2566 3560 
C 2566 3954 2246 4179 1805 4179 
C 1043 4179 243 3390 243 1984 
C 243 253 966 -128 1478 -128 
C 2099 -128 2688 427 2688 1283 
C 2688 2081 2170 2662 1517 2662 
C 1126 2662 838 2407 678 1960 
L 678 2176 
z
M 1478 25 
C 691 25 691 1200 691 1436 
C 691 1896 909 2560 1504 2560 
C 1613 2560 1926 2560 2138 2120 
C 2253 1870 2253 1609 2253 1289 
C 2253 944 2253 690 2118 434 
C 1978 171 1773 25 1478 25 
z
" transform="scale(0.015625)"/>
     </defs>
     <use xlink:href="#CMR17-36" transform="scale(0.996264)"/>
    </g>
   </g>
   <g id="text_2">
    <!-- $30^\circ$ -->
    <g transform="translate(76.668972 321.273365) scale(0.27 -0.27)">
     <defs>
      <path id="CMR17-33" d="M 1414 2157 
C 1984 2157 2234 1662 2234 1090 
C 2234 320 1824 25 1453 25 
C 1114 25 563 194 390 693 
C 422 680 454 680 486 680 
C 640 680 755 782 755 948 
C 755 1133 614 1216 486 1216 
C 378 1216 211 1165 211 926 
C 211 335 787 -128 1466 -128 
C 2176 -128 2720 430 2720 1085 
C 2720 1707 2208 2157 1600 2227 
C 2086 2328 2554 2756 2554 3329 
C 2554 3820 2048 4179 1472 4179 
C 890 4179 378 3829 378 3329 
C 378 3110 544 3072 627 3072 
C 762 3072 877 3155 877 3321 
C 877 3486 762 3569 627 3569 
C 602 3569 570 3569 544 3557 
C 730 3959 1235 4032 1459 4032 
C 1683 4032 2106 3925 2106 3320 
C 2106 3143 2080 2828 1862 2550 
C 1670 2304 1453 2304 1242 2284 
C 1210 2284 1062 2269 1037 2269 
C 992 2263 966 2257 966 2208 
C 966 2163 973 2157 1101 2157 
L 1414 2157 
z
" transform="scale(0.015625)"/>
      <path id="CMR17-30" d="M 2688 2025 
C 2688 2416 2682 3080 2413 3591 
C 2176 4039 1798 4198 1466 4198 
C 1158 4198 768 4058 525 3597 
C 269 3118 243 2524 243 2025 
C 243 1661 250 1106 448 619 
C 723 -39 1216 -128 1466 -128 
C 1760 -128 2208 -7 2470 600 
C 2662 1042 2688 1559 2688 2025 
z
M 1466 -26 
C 1056 -26 813 325 723 812 
C 653 1188 653 1738 653 2096 
C 653 2588 653 2997 736 3387 
C 858 3929 1216 4096 1466 4096 
C 1728 4096 2067 3923 2189 3400 
C 2272 3036 2278 2607 2278 2096 
C 2278 1680 2278 1169 2202 792 
C 2067 95 1690 -26 1466 -26 
z
" transform="scale(0.015625)"/>
      <path id="CMSY10-e" d="M 2842 1600 
C 2842 2277 2272 2828 1600 2828 
C 909 2828 352 2264 352 1600 
C 352 930 909 372 1600 372 
C 2272 372 2842 923 2842 1600 
z
M 1600 628 
C 1043 628 608 1070 608 1600 
C 608 2130 1050 2572 1600 2572 
C 2131 2572 2586 2142 2586 1600 
C 2586 1058 2131 628 1600 628 
z
" transform="scale(0.015625)"/>
     </defs>
     <use xlink:href="#CMR17-33" transform="scale(0.996264)"/>
     <use xlink:href="#CMR17-30" transform="translate(45.690477 0) scale(0.996264)"/>
     <use xlink:href="#CMSY10-e" transform="translate(91.380954 36.153639) scale(0.697382)"/>
    </g>
   </g>
   <g id="text_3">
    <!-- $30^\circ$ -->
    <g transform="translate(179.143701 143.98784) scale(0.27 -0.27)">
     <use xlink:href="#CMR17-33" transform="scale(0.996264)"/>
     <use xlink:href="#CMR17-30" transform="translate(45.690477 0) scale(0.996264)"/>
     <use xlink:href="#CMSY10-e" transform="translate(91.380954 36.153639) scale(0.697382)"/>
    </g>
   </g>
   <g id="text_4">
    <!-- $30^\circ$ -->
    <g transform="translate(320.949461 321.273365) scale(0.27 -0.27)">
     <use xlink:href="#CMR17-33" transform="scale(0.996264)"/>
     <use xlink:href="#CMR17-30" transform="translate(45.690477 0) scale(0.996264)"/>
     <use xlink:href="#CMSY10-e" transform="translate(91.380954 36.153639) scale(0.697382)"/>
    </g>
   </g>
   <g id="text_5">
    <!-- $30^\circ$ -->
    <g transform="translate(218.474731 143.98784) scale(0.27 -0.27)">
     <use xlink:href="#CMR17-33" transform="scale(0.996264)"/>
     <use xlink:href="#CMR17-30" transform="translate(45.690477 0) scale(0.996264)"/>
     <use xlink:href="#CMSY10-e" transform="translate(91.380954 36.153639) scale(0.697382)"/>
    </g>
   </g>
   <g id="text_6">
    <!-- $A$ -->
    <g transform="translate(12.378204 394.710193) scale(0.3 -0.3)">
     <defs>
      <path id="CMMI12-41" d="M 1088 691 
C 864 314 646 186 339 186 
C 269 180 218 180 218 58 
C 218 24 250 0 294 0 
C 410 0 698 0 813 0 
C 998 0 1203 0 1382 0 
C 1421 0 1498 0 1498 122 
C 1498 180 1446 186 1408 186 
C 1261 186 1139 236 1139 388 
C 1139 476 1178 546 1261 685 
L 1747 1479 
L 3379 1479 
C 3386 1423 3386 1373 3392 1316 
C 3411 1152 3488 495 3488 376 
C 3488 186 3162 186 3059 186 
C 2989 186 2918 186 2918 70 
C 2918 0 2976 0 3014 0 
C 3123 0 3251 0 3360 0 
L 3725 0 
C 4115 0 4397 0 4403 0 
C 4448 0 4518 0 4518 122 
C 4518 186 4461 186 4365 186 
C 4013 186 4006 244 3987 434 
L 3597 4404 
C 3584 4531 3558 4544 3488 4544 
C 3424 4544 3386 4531 3328 4435 
L 1088 691 
z
M 1856 1664 
L 3142 3819 
L 3360 1664 
L 1856 1664 
z
" transform="scale(0.015625)"/>
     </defs>
     <use xlink:href="#CMMI12-41" transform="scale(0.996264)"/>
    </g>
   </g>
   <g id="text_7">
    <!-- $B$ -->
    <g transform="translate(397.389403 394.710193) scale(0.3 -0.3)">
     <defs>
      <path id="CMMI12-42" d="M 2342 3921 
C 2400 4160 2426 4160 2675 4160 
L 3507 4160 
C 4230 4160 4230 3544 4230 3485 
C 4230 2966 3712 2304 2867 2304 
L 1946 2304 
L 2342 3921 
z
M 3424 2275 
C 4122 2402 4755 2886 4755 3473 
C 4755 3970 4314 4352 3590 4352 
L 1536 4352 
C 1414 4352 1357 4352 1357 4226 
C 1357 4160 1414 4160 1510 4160 
C 1901 4160 1901 4112 1901 4044 
C 1901 4032 1901 3993 1875 3897 
L 1011 472 
C 954 249 941 185 493 185 
C 371 185 307 185 307 70 
C 307 0 346 0 474 0 
L 2669 0 
C 3648 0 4403 739 4403 1383 
C 4403 1906 3942 2224 3424 2275 
z
M 2515 185 
L 1651 185 
C 1562 185 1549 185 1510 192 
C 1440 198 1434 211 1434 261 
C 1434 305 1446 343 1459 399 
L 1907 2176 
L 3110 2176 
C 3866 2176 3866 1483 3866 1433 
C 3866 828 3309 185 2515 185 
z
" transform="scale(0.015625)"/>
     </defs>
     <use xlink:href="#CMMI12-42" transform="scale(0.996264)"/>
    </g>
   </g>
   <g id="text_8">
    <!-- $C$ -->
    <g transform="translate(205.384177 52.231852) scale(0.3 -0.3)">
     <defs>
      <path id="CMMI12-43" d="M 4781 4423 
C 4781 4480 4736 4480 4723 4480 
C 4710 4480 4685 4480 4634 4416 
L 4192 3882 
C 3968 4264 3616 4480 3136 4480 
C 1754 4480 320 3088 320 1595 
C 320 533 1069 -128 2003 -128 
C 2515 -128 2963 88 3334 400 
C 3891 863 4058 1481 4058 1531 
C 4058 1588 4006 1588 3987 1588 
C 3930 1588 3923 1550 3910 1524 
C 3616 534 2752 57 2112 57 
C 1434 57 845 489 845 1391 
C 845 1595 909 2700 1632 3532 
C 1984 3939 2586 4295 3194 4295 
C 3898 4295 4211 3717 4211 3068 
C 4211 2903 4192 2764 4192 2738 
C 4192 2681 4256 2681 4275 2681 
C 4346 2681 4352 2687 4378 2801 
L 4781 4423 
z
" transform="scale(0.015625)"/>
     </defs>
     <use xlink:href="#CMMI12-43" transform="scale(0.996264)"/>
    </g>
   </g>
   <g id="text_9">
    <!-- $M$ -->
    <g transform="translate(201.69697 304.96414) scale(0.3 -0.3)">
     <defs>
      <path id="CMMI12-4d" d="M 5811 3886 
C 5869 4103 5882 4167 6336 4167 
C 6458 4167 6515 4167 6515 4288 
C 6515 4352 6470 4352 6349 4352 
L 5581 4352 
C 5421 4352 5414 4346 5344 4243 
L 3008 562 
L 2528 4211 
C 2509 4352 2502 4352 2336 4352 
L 1542 4352 
C 1421 4352 1363 4352 1363 4231 
C 1363 4167 1421 4167 1517 4167 
C 1907 4167 1907 4116 1907 4046 
C 1907 4034 1907 3995 1882 3899 
L 1062 634 
C 986 327 838 186 410 186 
C 390 186 314 186 314 73 
C 314 0 371 0 397 0 
C 525 0 851 0 979 0 
L 1286 0 
C 1376 0 1485 0 1574 0 
C 1619 0 1690 0 1690 122 
C 1690 180 1626 186 1600 186 
C 1389 186 1184 224 1184 454 
C 1184 518 1184 524 1210 613 
L 2093 4129 
L 2099 4129 
L 2630 172 
C 2650 19 2656 0 2714 0 
C 2784 0 2816 51 2848 109 
L 5421 4161 
L 5427 4161 
L 4499 473 
C 4442 250 4429 186 3981 186 
C 3859 186 3795 186 3795 70 
C 3795 0 3853 0 3891 0 
C 4000 0 4128 0 4237 0 
L 4992 0 
C 5101 0 5235 0 5344 0 
C 5395 0 5466 0 5466 122 
C 5466 186 5408 186 5312 186 
C 4922 186 4922 234 4922 294 
C 4922 301 4922 345 4934 396 
L 5811 3886 
z
" transform="scale(0.015625)"/>
     </defs>
     <use xlink:href="#CMMI12-4d" transform="scale(0.996264)"/>
    </g>
   </g>
  </g>
 </g>
 <defs>
  <clipPath id="p8f75256bb0">
   <rect x="22.542179" y="10.8" width="386.621609" height="410.4"/>
  </clipPath>
 </defs>
</svg>
