<?xml version="1.0" encoding="utf-8" standalone="no"?>
<!DOCTYPE svg PUBLIC "-//W3C//DTD SVG 1.1//EN"
  "http://www.w3.org/Graphics/SVG/1.1/DTD/svg11.dtd">
<svg xmlns:xlink="http://www.w3.org/1999/xlink" width="460.8pt" height="345.6pt" viewBox="0 0 460.8 345.6" xmlns="http://www.w3.org/2000/svg" version="1.1">
 <metadata>
  <rdf:RDF xmlns:dc="http://purl.org/dc/elements/1.1/" xmlns:cc="http://creativecommons.org/ns#" xmlns:rdf="http://www.w3.org/1999/02/22-rdf-syntax-ns#">
   <cc:Work>
    <dc:type rdf:resource="http://purl.org/dc/dcmitype/StillImage"/>
    <dc:date>2026-02-20T01:52:07.662940</dc:date>
    <dc:format>image/svg+xml</dc:format>
    <dc:creator>
     <cc:Agent>
      <dc:title>Matplotlib v3.9.1, https://matplotlib.org/</dc:title>
     </cc:Agent>
    </dc:creator>
   </cc:Work>
  </rdf:RDF>
 </metadata>
 <defs>
  <style type="text/css">*{stroke-linejoin: round; stroke-linecap: butt}</style>
 </defs>
 <g id="figure_1">
  <g id="patch_1">
   <path d="M 0 345.6 
L 460.8 345.6 
L 460.8 0 
L 0 0 
L 0 345.6 
z
" style="fill: none"/>
  </g>
  <g id="axes_1">
   <g id="patch_2">
    <path d="M 10.8 334.8 
L 447 334.8 
L 447 24.444473 
L 10.8 24.444473 
L 10.8 334.8 
z
" style="fill: none"/>
   </g>
   <g id="matplotlib.axis_1">
    <g id="text_1">
     <!-- $x$ -->
     <g transform="translate(430.369782 204.377732) scale(0.3 -0.3)">
      <defs>
       <path id="CMMI12-78" d="M 3034 2606 
C 2829 2567 2752 2414 2752 2293 
C 2752 2139 2874 2088 2963 2088 
C 3155 2088 3290 2254 3290 2427 
C 3290 2695 2982 2816 2714 2816 
C 2323 2816 2106 2433 2048 2312 
C 1901 2816 1504 2816 1389 2816 
C 736 2816 390 1980 390 1839 
C 390 1814 416 1782 461 1782 
C 512 1782 525 1820 538 1846 
C 755 2555 1184 2689 1370 2689 
C 1658 2689 1715 2420 1715 2267 
C 1715 2127 1677 1980 1600 1673 
L 1382 798 
C 1286 415 1101 64 762 64 
C 730 64 570 64 435 147 
C 666 192 717 383 717 460 
C 717 588 621 664 499 664 
C 346 664 179 530 179 326 
C 179 57 480 -64 755 -64 
C 1062 -64 1280 179 1414 441 
C 1517 64 1837 -64 2074 -64 
C 2726 -64 3072 773 3072 913 
C 3072 945 3046 971 3008 971 
C 2950 971 2944 939 2925 888 
C 2752 326 2381 64 2093 64 
C 1869 64 1747 230 1747 492 
C 1747 632 1773 734 1875 1156 
L 2099 2024 
C 2195 2408 2413 2689 2707 2689 
C 2720 2689 2899 2689 3034 2606 
z
" transform="scale(0.015625)"/>
      </defs>
      <use xlink:href="#CMMI12-78" transform="scale(0.996264)"/>
     </g>
    </g>
   </g>
   <g id="matplotlib.axis_2">
    <g id="text_2">
     <!-- $y$ -->
     <g transform="translate(210.630756 18.631022) scale(0.3 -0.3)">
      <defs>
       <path id="CMMI12-79" d="M 1683 -700 
C 1510 -939 1261 -1152 947 -1152 
C 870 -1152 563 -1152 467 -889 
C 486 -895 518 -895 531 -895 
C 723 -895 851 -729 851 -582 
C 851 -435 730 -384 634 -384 
C 531 -384 307 -458 307 -759 
C 307 -1071 582 -1286 947 -1286 
C 1587 -1286 2234 -700 2413 6 
L 3040 2485 
C 3046 2517 3059 2556 3059 2594 
C 3059 2689 2982 2753 2886 2753 
C 2829 2753 2694 2727 2643 2535 
L 2170 658 
C 2138 543 2138 530 2086 460 
C 1958 281 1747 64 1440 64 
C 1082 64 1050 415 1050 588 
C 1050 952 1222 1443 1395 1903 
C 1466 2088 1504 2178 1504 2305 
C 1504 2574 1312 2816 998 2816 
C 410 2816 173 1890 173 1839 
C 173 1814 198 1782 243 1782 
C 301 1782 307 1807 333 1897 
C 486 2433 730 2689 979 2689 
C 1037 2689 1146 2689 1146 2478 
C 1146 2312 1075 2127 979 1884 
C 666 1047 666 837 666 683 
C 666 77 1101 -64 1421 -64 
C 1606 -64 1837 -6 2061 230 
L 2067 224 
C 1971 -147 1907 -392 1683 -700 
z
" transform="scale(0.015625)"/>
      </defs>
      <use xlink:href="#CMMI12-79" transform="scale(0.996264)"/>
     </g>
    </g>
   </g>
   <g id="line2d_1">
    <defs>
     <path id="m9e03ade8a6" d="M 3 0 
L -3 -3 
L -3 3 
z
" style="stroke: #000000; stroke-linejoin: miter"/>
    </defs>
    <g>
     <use xlink:href="#m9e03ade8a6" x="447" y="179.622236" style="stroke: #000000; stroke-linejoin: miter"/>
    </g>
   </g>
   <g id="line2d_2">
    <defs>
     <path id="mc195f3a8dc" d="M 0 -3 
L -3 3 
L 3 3 
z
" style="stroke: #000000; stroke-linejoin: miter"/>
    </defs>
    <g>
     <use xlink:href="#mc195f3a8dc" x="228.9" y="24.444473" style="stroke: #000000; stroke-linejoin: miter"/>
    </g>
   </g>
   <g id="line2d_3">
    <path d="M 135.725221 346.6 
L 138.387768 311.96746 
L 141.023659 280.507698 
L 143.606299 252.27681 
L 146.162315 226.73852 
L 148.66508 203.930874 
L 151.114594 183.608005 
L 153.510859 165.543009 
L 155.853873 149.526708 
L 158.143637 135.366468 
L 160.38015 122.885098 
L 162.590038 111.793232 
L 164.746676 102.094571 
L 166.823439 93.749968 
L 168.846951 86.507787 
L 170.817213 80.253514 
L 172.734225 74.882585 
L 174.597986 70.299648 
L 176.408497 66.41787 
L 178.165757 63.158287 
L 179.869767 60.449192 
L 181.547153 58.192815 
L 183.171287 56.37444 
L 184.742172 54.939374 
L 186.286431 53.821354 
L 187.804065 52.989192 
L 189.321699 52.405803 
L 190.839333 52.056141 
L 192.383593 51.925091 
L 193.981102 52.012105 
L 195.658487 52.32946 
L 197.415748 52.890566 
L 199.306134 53.732326 
L 201.356272 54.896254 
L 203.592785 56.429221 
L 206.068925 58.402503 
L 208.891192 60.945105 
L 212.219337 64.256054 
L 216.452738 68.800496 
L 232.747336 86.618821 
L 236.528108 90.240007 
L 239.909504 93.177836 
L 243.051273 95.617524 
L 246.006665 97.635235 
L 248.828932 99.297139 
L 251.571324 100.655742 
L 254.23384 101.729205 
L 256.869731 102.553289 
L 259.478997 103.138082 
L 262.114887 103.501619 
L 264.804029 103.646858 
L 267.573045 103.572336 
L 270.475188 103.270259 
L 273.590331 102.720162 
L 277.078227 101.873075 
L 281.338253 100.596749 
L 294.331331 96.531985 
L 297.339974 95.926519 
L 299.922615 95.627052 
L 302.239004 95.576747 
L 304.369017 95.748049 
L 306.365904 96.127502 
L 308.282915 96.717326 
L 310.120051 97.513764 
L 311.930562 98.542918 
L 313.714448 99.816486 
L 315.471708 101.345012 
L 317.255594 103.197783 
L 319.03948 105.377716 
L 320.849991 107.949991 
L 322.687127 110.957623 
L 324.550888 114.447017 
L 326.441274 118.468165 
L 328.358286 123.07486 
L 330.328548 128.401047 
L 332.325435 134.450529 
L 334.375572 141.386866 
L 336.452335 149.209535 
L 338.582348 158.116525 
L 340.738986 168.101792 
L 342.948874 179.403166 
L 345.212012 192.165073 
L 347.501776 206.37203 
L 349.84479 222.335197 
L 352.21443 240.029666 
L 354.637319 259.823492 
L 357.113459 281.928398 
L 359.616224 306.303437 
L 362.17224 333.420011 
L 363.340993 346.6 
L 363.340993 346.6 
" clip-path="url(#pe54af5b448)" style="fill: none; stroke: #0072b2; stroke-width: 2.5; stroke-linecap: square"/>
   </g>
   <g id="patch_3">
    <path d="M 228.9 334.8 
L 228.9 24.444473 
" style="fill: none; stroke: #000000; stroke-width: 0.8; stroke-linejoin: miter; stroke-linecap: square"/>
   </g>
   <g id="patch_4">
    <path d="M 447 334.8 
L 447 24.444473 
" style="fill: none"/>
   </g>
   <g id="patch_5">
    <path d="M 10.8 179.622236 
L 447 179.622236 
" style="fill: none; stroke: #000000; stroke-width: 0.8; stroke-linejoin: miter; stroke-linecap: square"/>
   </g>
   <g id="patch_6">
    <path d="M 10.8 24.444473 
L 447 24.444473 
" style="fill: none"/>
   </g>
   <g id="text_3">
    <g id="patch_7">
     <path d="M 400.518575 88.523386 
L 420.781425 88.523386 
Q 432.781425 88.523386 432.781425 76.523386 
L 432.781425 49.954441 
Q 432.781425 37.954441 420.781425 37.954441 
L 400.518575 37.954441 
Q 388.518575 37.954441 388.518575 49.954441 
L 388.518575 76.523386 
Q 388.518575 88.523386 400.518575 88.523386 
z
" style="fill: #ffffff; opacity: 0.7; stroke: #000000; stroke-width: 1.5; stroke-linejoin: miter"/>
    </g>
    <!-- D -->
    <g transform="translate(400.518575 70.709936) scale(0.3 -0.3)">
     <defs>
      <path id="CMSS17-44" d="M 570 4416 
L 570 0 
L 2144 0 
C 3194 0 4000 980 4000 2170 
C 4000 3398 3194 4416 2144 4416 
L 570 4416 
z
M 1094 357 
L 1094 4059 
L 2003 4059 
C 2861 4059 3475 3277 3475 2170 
C 3475 1107 2867 357 2003 357 
L 1094 357 
z
" transform="scale(0.015625)"/>
     </defs>
     <use xlink:href="#CMSS17-44" transform="scale(0.996264)"/>
    </g>
   </g>
  </g>
 </g>
 <defs>
  <clipPath id="pe54af5b448">
   <rect x="10.8" y="24.444473" width="436.2" height="310.355527"/>
  </clipPath>
 </defs>
</svg>
