<?xml version="1.0" encoding="utf-8" standalone="no"?>
<!DOCTYPE svg PUBLIC "-//W3C//DTD SVG 1.1//EN"
  "http://www.w3.org/Graphics/SVG/1.1/DTD/svg11.dtd">
<svg xmlns:xlink="http://www.w3.org/1999/xlink" width="460.8pt" height="345.6pt" viewBox="0 0 460.8 345.6" xmlns="http://www.w3.org/2000/svg" version="1.1">
 <metadata>
  <rdf:RDF xmlns:dc="http://purl.org/dc/elements/1.1/" xmlns:cc="http://creativecommons.org/ns#" xmlns:rdf="http://www.w3.org/1999/02/22-rdf-syntax-ns#">
   <cc:Work>
    <dc:type rdf:resource="http://purl.org/dc/dcmitype/StillImage"/>
    <dc:date>2026-02-19T16:47:36.605314</dc:date>
    <dc:format>image/svg+xml</dc:format>
    <dc:creator>
     <cc:Agent>
      <dc:title>Matplotlib v3.9.1, https://matplotlib.org/</dc:title>
     </cc:Agent>
    </dc:creator>
   </cc:Work>
  </rdf:RDF>
 </metadata>
 <defs>
  <style type="text/css">*{stroke-linejoin: round; stroke-linecap: butt}</style>
 </defs>
 <g id="figure_1">
  <g id="patch_1">
   <path d="M 0 345.6 
L 460.8 345.6 
L 460.8 0 
L 0 0 
L 0 345.6 
z
" style="fill: none"/>
  </g>
  <g id="axes_1">
   <g id="patch_2">
    <path d="M 10.8 334.8 
L 447 334.8 
L 447 22.673214 
L 10.8 22.673214 
L 10.8 334.8 
z
" style="fill: none"/>
   </g>
   <g id="matplotlib.axis_1">
    <g id="text_1">
     <!-- $x$ -->
     <g transform="translate(432.587145 200.724709) scale(0.26 -0.26)">
      <defs>
       <path id="CMMI12-78" d="M 3034 2606 
C 2829 2567 2752 2414 2752 2293 
C 2752 2139 2874 2088 2963 2088 
C 3155 2088 3290 2254 3290 2427 
C 3290 2695 2982 2816 2714 2816 
C 2323 2816 2106 2433 2048 2312 
C 1901 2816 1504 2816 1389 2816 
C 736 2816 390 1980 390 1839 
C 390 1814 416 1782 461 1782 
C 512 1782 525 1820 538 1846 
C 755 2555 1184 2689 1370 2689 
C 1658 2689 1715 2420 1715 2267 
C 1715 2127 1677 1980 1600 1673 
L 1382 798 
C 1286 415 1101 64 762 64 
C 730 64 570 64 435 147 
C 666 192 717 383 717 460 
C 717 588 621 664 499 664 
C 346 664 179 530 179 326 
C 179 57 480 -64 755 -64 
C 1062 -64 1280 179 1414 441 
C 1517 64 1837 -64 2074 -64 
C 2726 -64 3072 773 3072 913 
C 3072 945 3046 971 3008 971 
C 2950 971 2944 939 2925 888 
C 2752 326 2381 64 2093 64 
C 1869 64 1747 230 1747 492 
C 1747 632 1773 734 1875 1156 
L 2099 2024 
C 2195 2408 2413 2689 2707 2689 
C 2720 2689 2899 2689 3034 2606 
z
" transform="scale(0.015625)"/>
      </defs>
      <use xlink:href="#CMMI12-78" transform="scale(0.996264)"/>
     </g>
    </g>
   </g>
   <g id="matplotlib.axis_2">
    <g id="text_2">
     <!-- $y$ -->
     <g transform="translate(212.53332 17.634888) scale(0.26 -0.26)">
      <defs>
       <path id="CMMI12-79" d="M 1683 -700 
C 1510 -939 1261 -1152 947 -1152 
C 870 -1152 563 -1152 467 -889 
C 486 -895 518 -895 531 -895 
C 723 -895 851 -729 851 -582 
C 851 -435 730 -384 634 -384 
C 531 -384 307 -458 307 -759 
C 307 -1071 582 -1286 947 -1286 
C 1587 -1286 2234 -700 2413 6 
L 3040 2485 
C 3046 2517 3059 2556 3059 2594 
C 3059 2689 2982 2753 2886 2753 
C 2829 2753 2694 2727 2643 2535 
L 2170 658 
C 2138 543 2138 530 2086 460 
C 1958 281 1747 64 1440 64 
C 1082 64 1050 415 1050 588 
C 1050 952 1222 1443 1395 1903 
C 1466 2088 1504 2178 1504 2305 
C 1504 2574 1312 2816 998 2816 
C 410 2816 173 1890 173 1839 
C 173 1814 198 1782 243 1782 
C 301 1782 307 1807 333 1897 
C 486 2433 730 2689 979 2689 
C 1037 2689 1146 2689 1146 2478 
C 1146 2312 1075 2127 979 1884 
C 666 1047 666 837 666 683 
C 666 77 1101 -64 1421 -64 
C 1606 -64 1837 -6 2061 230 
L 2067 224 
C 1971 -147 1907 -392 1683 -700 
z
" transform="scale(0.015625)"/>
      </defs>
      <use xlink:href="#CMMI12-79" transform="scale(0.996264)"/>
     </g>
    </g>
   </g>
   <g id="line2d_1">
    <defs>
     <path id="m98bb68efc7" d="M 3 0 
L -3 -3 
L -3 3 
z
" style="stroke: #000000; stroke-linejoin: miter"/>
    </defs>
    <g>
     <use xlink:href="#m98bb68efc7" x="447" y="178.736607" style="stroke: #000000; stroke-linejoin: miter"/>
    </g>
   </g>
   <g id="line2d_2">
    <defs>
     <path id="m356dee56a8" d="M 0 -3 
L -3 3 
L 3 3 
z
" style="stroke: #000000; stroke-linejoin: miter"/>
    </defs>
    <g>
     <use xlink:href="#m356dee56a8" x="228.9" y="22.673214" style="stroke: #000000; stroke-linejoin: miter"/>
    </g>
   </g>
   <g id="line2d_3">
    <path d="M 145.184138 -1 
L 150.395715 23.100743 
L 155.507746 45.702255 
L 160.513276 66.835966 
L 165.412305 86.564842 
L 170.204834 104.950507 
L 174.890862 122.053246 
L 179.47039 137.932005 
L 183.916792 152.559145 
L 188.256693 166.085303 
L 192.490093 178.56507 
L 196.616993 190.051697 
L 200.637392 200.597097 
L 204.577916 210.315456 
L 208.411939 219.184382 
L 212.139462 227.252104 
L 215.760483 234.56551 
L 219.275005 241.170149 
L 222.683025 247.11023 
L 226.01117 252.469768 
L 229.232815 257.24242 
L 232.374583 261.503187 
L 235.409852 265.250443 
L 238.365244 268.550565 
L 241.240762 271.431433 
L 244.036404 273.920178 
L 246.75217 276.043172 
L 249.388061 277.826038 
L 251.970701 279.307576 
L 254.500092 280.504031 
L 256.976231 281.43131 
L 259.425746 282.111107 
L 261.822011 282.547545 
L 264.218275 282.757915 
L 266.587914 282.743632 
L 268.957554 282.508277 
L 271.353818 282.045464 
L 273.750082 281.356582 
L 276.199597 280.418732 
L 278.675737 279.230594 
L 281.205127 277.767672 
L 283.787768 276.014055 
L 286.423659 273.953502 
L 289.139425 271.544405 
L 291.935067 268.761143 
L 294.783959 265.608315 
L 297.739352 261.999945 
L 300.77462 257.936109 
L 303.889764 253.388172 
L 307.084783 248.326745 
L 310.386303 242.674385 
L 313.767698 236.440436 
L 317.255594 229.538496 
L 320.849991 221.924691 
L 324.524263 213.615954 
L 328.305036 204.51154 
L 332.192309 194.563889 
L 336.186083 183.724104 
L 340.286358 171.941948 
L 344.493133 159.165842 
L 348.806409 145.342872 
L 353.199561 130.510986 
L 357.699213 114.531843 
L 362.305365 97.348842 
L 367.018019 78.904044 
L 371.837173 59.138166 
L 376.762827 37.990591 
L 381.794983 15.399357 
L 385.315862 -1 
L 385.315862 -1 
" clip-path="url(#p5e7f7979b3)" style="fill: none; stroke: #0072b2; stroke-width: 3; stroke-linecap: square"/>
   </g>
   <g id="patch_3">
    <path d="M 228.9 334.8 
L 228.9 22.673214 
" style="fill: none; stroke: #000000; stroke-width: 0.8; stroke-linejoin: miter; stroke-linecap: square"/>
   </g>
   <g id="patch_4">
    <path d="M 447 334.8 
L 447 22.673214 
" style="fill: none"/>
   </g>
   <g id="patch_5">
    <path d="M 10.8 178.736607 
L 447 178.736607 
" style="fill: none; stroke: #000000; stroke-width: 0.8; stroke-linejoin: miter; stroke-linecap: square"/>
   </g>
   <g id="patch_6">
    <path d="M 10.8 22.673214 
L 447 22.673214 
" style="fill: none"/>
   </g>
  </g>
 </g>
 <defs>
  <clipPath id="p5e7f7979b3">
   <rect x="10.8" y="22.673214" width="436.2" height="312.126786"/>
  </clipPath>
 </defs>
</svg>
