<?xml version="1.0" encoding="utf-8" standalone="no"?>
<!DOCTYPE svg PUBLIC "-//W3C//DTD SVG 1.1//EN"
  "http://www.w3.org/Graphics/SVG/1.1/DTD/svg11.dtd">
<svg xmlns:xlink="http://www.w3.org/1999/xlink" width="432pt" height="432pt" viewBox="0 0 432 432" xmlns="http://www.w3.org/2000/svg" version="1.1">
 <metadata>
  <rdf:RDF xmlns:dc="http://purl.org/dc/elements/1.1/" xmlns:cc="http://creativecommons.org/ns#" xmlns:rdf="http://www.w3.org/1999/02/22-rdf-syntax-ns#">
   <cc:Work>
    <dc:type rdf:resource="http://purl.org/dc/dcmitype/StillImage"/>
    <dc:date>2026-02-21T17:26:05.683628</dc:date>
    <dc:format>image/svg+xml</dc:format>
    <dc:creator>
     <cc:Agent>
      <dc:title>Matplotlib v3.9.1, https://matplotlib.org/</dc:title>
     </cc:Agent>
    </dc:creator>
   </cc:Work>
  </rdf:RDF>
 </metadata>
 <defs>
  <style type="text/css">*{stroke-linejoin: round; stroke-linecap: butt}</style>
 </defs>
 <g id="figure_1">
  <g id="patch_1">
   <path d="M 0 432 
L 432 432 
L 432 0 
L 0 0 
L 0 432 
z
" style="fill: none"/>
  </g>
  <g id="axes_1">
   <g id="patch_2">
    <path d="M 281.714876 282.298591 
C 286.694244 282.298591 291.470341 280.320268 294.991286 276.799322 
C 298.512231 273.278377 300.490555 268.502281 300.490555 263.522913 
C 300.490555 258.543544 298.512231 253.767448 294.991286 250.246503 
C 291.470341 246.725558 286.694244 244.747234 281.714876 244.747234 
C 276.735508 244.747234 271.959411 246.725558 268.438466 250.246503 
C 264.917521 253.767448 262.939197 258.543544 262.939197 263.522913 
C 262.939197 268.502281 264.917521 273.278377 268.438466 276.799322 
C 271.959411 280.320268 276.735508 282.298591 281.714876 282.298591 
z
" clip-path="url(#p83a8ba3a09)" style="fill: #dc5e8b; fill-opacity: 0.2; stroke: #dc5e8b; stroke-width: 2.5; stroke-linejoin: miter"/>
   </g>
   <g id="patch_3">
    <path d="M 150.285124 282.298591 
C 155.264492 282.298591 160.040589 280.320268 163.561534 276.799322 
C 167.082479 273.278377 169.060803 268.502281 169.060803 263.522913 
C 169.060803 258.543544 167.082479 253.767448 163.561534 250.246503 
C 160.040589 246.725558 155.264492 244.747234 150.285124 244.747234 
C 145.305756 244.747234 140.529659 246.725558 137.008714 250.246503 
C 133.487769 253.767448 131.509445 258.543544 131.509445 263.522913 
C 131.509445 268.502281 133.487769 273.278377 137.008714 276.799322 
C 140.529659 280.320268 145.305756 282.298591 150.285124 282.298591 
z
" clip-path="url(#p83a8ba3a09)" style="fill: #dc5e8b; fill-opacity: 0.2; stroke-dasharray: 9.25,4; stroke-dashoffset: 0; stroke: #dc5e8b; stroke-width: 2.5; stroke-linejoin: miter"/>
   </g>
   <g id="line2d_1">
    <path d="M 28.243211 149.701409 
L 403.756789 149.701409 
" clip-path="url(#p83a8ba3a09)" style="fill: none; stroke: #808080; stroke-width: 2.5; stroke-linecap: square"/>
   </g>
   <g id="line2d_2">
    <path d="M 216 149.701409 
L 272.327037 247.262698 
" clip-path="url(#p83a8ba3a09)" style="fill: none; stroke: #0072b2; stroke-width: 2.5; stroke-linecap: square"/>
   </g>
   <g id="line2d_3">
    <path d="M 216 149.701409 
L 150.285124 263.522913 
" clip-path="url(#p83a8ba3a09)" style="fill: none; stroke-dasharray: 9.25,4; stroke-dashoffset: 0; stroke: #0072b2; stroke-width: 2.5"/>
   </g>
  </g>
 </g>
 <defs>
  <clipPath id="p83a8ba3a09">
   <rect x="10.8" y="10.8" width="410.4" height="410.4"/>
  </clipPath>
 </defs>
</svg>
