<?xml version="1.0" encoding="utf-8" standalone="no"?>
<!DOCTYPE svg PUBLIC "-//W3C//DTD SVG 1.1//EN"
  "http://www.w3.org/Graphics/SVG/1.1/DTD/svg11.dtd">
<svg xmlns:xlink="http://www.w3.org/1999/xlink" width="432pt" height="432pt" viewBox="0 0 432 432" xmlns="http://www.w3.org/2000/svg" version="1.1">
 <metadata>
  <rdf:RDF xmlns:dc="http://purl.org/dc/elements/1.1/" xmlns:cc="http://creativecommons.org/ns#" xmlns:rdf="http://www.w3.org/1999/02/22-rdf-syntax-ns#">
   <cc:Work>
    <dc:type rdf:resource="http://purl.org/dc/dcmitype/StillImage"/>
    <dc:date>2026-02-21T16:51:21.138104</dc:date>
    <dc:format>image/svg+xml</dc:format>
    <dc:creator>
     <cc:Agent>
      <dc:title>Matplotlib v3.9.1, https://matplotlib.org/</dc:title>
     </cc:Agent>
    </dc:creator>
   </cc:Work>
  </rdf:RDF>
 </metadata>
 <defs>
  <style type="text/css">*{stroke-linejoin: round; stroke-linecap: butt}</style>
 </defs>
 <g id="figure_1">
  <g id="patch_1">
   <path d="M 0 432 
L 432 432 
L 432 0 
L 0 0 
L 0 432 
z
" style="fill: none"/>
  </g>
  <g id="axes_1">
   <g id="patch_2">
    <path d="M 216 278.585596 
C 232.597894 278.585596 248.518216 271.991183 260.254699 260.254699 
C 271.991183 248.518216 278.585596 232.597894 278.585596 216 
C 278.585596 199.402106 271.991183 183.481784 260.254699 171.745301 
C 248.518216 160.008817 232.597894 153.414404 216 153.414404 
C 199.402106 153.414404 183.481784 160.008817 171.745301 171.745301 
C 160.008817 183.481784 153.414404 199.402106 153.414404 216 
C 153.414404 232.597894 160.008817 248.518216 171.745301 260.254699 
C 183.481784 271.991183 199.402106 278.585596 216 278.585596 
L 216 278.585596 
z
" clip-path="url(#p9f22daf858)" style="fill: none; stroke: #000000; stroke-width: 2.5; stroke-linejoin: miter"/>
   </g>
   <g id="patch_3">
    <path d="M 216 403.756789 
C 265.793682 403.756789 313.554648 383.973549 348.764098 348.764098 
C 383.973549 313.554648 403.756789 265.793682 403.756789 216 
C 403.756789 166.206318 383.973549 118.445352 348.764098 83.235902 
C 313.554648 48.026451 265.793682 28.243211 216 28.243211 
C 166.206318 28.243211 118.445352 48.026451 83.235902 83.235902 
C 48.026451 118.445352 28.243211 166.206318 28.243211 216 
C 28.243211 265.793682 48.026451 313.554648 83.235902 348.764098 
C 118.445352 383.973549 166.206318 403.756789 216 403.756789 
L 216 403.756789 
z
" clip-path="url(#p9f22daf858)" style="fill: none; stroke-dasharray: 9.25,4; stroke-dashoffset: 0; stroke: #000000; stroke-width: 2.5; stroke-linejoin: miter"/>
   </g>
   <g id="patch_4">
    <path d="M 348.764098 95.753021 
C 352.083677 95.753021 355.267742 94.434138 357.615038 92.086841 
C 359.962335 89.739545 361.281218 86.55548 361.281218 83.235902 
C 361.281218 79.916323 359.962335 76.732258 357.615038 74.384962 
C 355.267742 72.037665 352.083677 70.718782 348.764098 70.718782 
C 345.44452 70.718782 342.260455 72.037665 339.913159 74.384962 
C 337.565862 76.732258 336.246979 79.916323 336.246979 83.235902 
C 336.246979 86.55548 337.565862 89.739545 339.913159 92.086841 
C 342.260455 94.434138 345.44452 95.753021 348.764098 95.753021 
L 348.764098 95.753021 
z
" clip-path="url(#p9f22daf858)" style="fill: none; stroke: #dc5e8b; stroke-width: 2.5; stroke-linejoin: miter"/>
   </g>
   <g id="text_1">
    <!-- Sola -->
    <g transform="translate(199.400535 220.980682) scale(0.2 -0.2)">
     <defs>
      <path id="CMSS17-53" d="M 2797 4169 
C 2515 4334 2208 4480 1690 4480 
C 864 4480 333 3879 333 3266 
C 333 3025 403 2753 653 2475 
C 902 2196 1184 2121 1542 2033 
C 1690 1994 1939 1924 1984 1906 
C 2342 1767 2515 1444 2515 1140 
C 2515 742 2202 318 1645 318 
C 1453 318 890 318 358 819 
L 269 318 
C 794 -64 1363 -128 1651 -128 
C 2438 -128 3002 488 3002 1186 
C 3002 1440 2925 1763 2656 2061 
C 2394 2347 2163 2410 1638 2549 
C 1338 2626 1146 2677 986 2873 
C 877 3013 819 3146 819 3317 
C 819 3673 1126 4060 1690 4060 
C 1971 4060 2336 4002 2707 3660 
L 2797 4169 
z
" transform="scale(0.015625)"/>
      <path id="CMSS17-6f" d="M 2829 1356 
C 2829 2176 2221 2816 1504 2816 
C 768 2816 173 2157 173 1356 
C 173 544 787 -64 1498 -64 
C 2227 -64 2829 563 2829 1356 
z
M 1504 337 
C 1050 337 659 709 659 1408 
C 659 2151 1114 2427 1498 2427 
C 1914 2427 2342 2126 2342 1408 
C 2342 683 1926 337 1504 337 
z
" transform="scale(0.015625)"/>
      <path id="CMSS17-6c" d="M 947 4416 
L 474 4416 
L 474 0 
L 947 0 
L 947 4416 
z
" transform="scale(0.015625)"/>
      <path id="CMSS17-61" d="M 2406 1791 
C 2406 2392 1978 2808 1402 2808 
C 1120 2808 813 2757 461 2553 
L 499 2135 
C 659 2248 934 2432 1395 2432 
C 1722 2432 1920 2180 1920 1782 
L 1920 1536 
C 896 1536 256 1238 256 726 
C 256 461 416 -64 947 -64 
C 1043 -64 1562 -64 1933 217 
L 1933 -19 
L 2406 -19 
L 2406 1791 
z
M 1920 816 
C 1920 701 1920 548 1728 434 
C 1562 325 1350 325 1261 325 
C 941 325 723 511 723 744 
C 723 1211 1722 1211 1920 1211 
L 1920 816 
z
" transform="scale(0.015625)"/>
     </defs>
     <use xlink:href="#CMSS17-53" transform="scale(0.996264)"/>
     <use xlink:href="#CMSS17-6f" transform="translate(52.048516 0) scale(0.996264)"/>
     <use xlink:href="#CMSS17-6c" transform="translate(98.89214 0) scale(0.996264)"/>
     <use xlink:href="#CMSS17-61" transform="translate(121.072863 0) scale(0.996264)"/>
    </g>
   </g>
  </g>
 </g>
 <defs>
  <clipPath id="p9f22daf858">
   <rect x="10.8" y="10.8" width="410.4" height="410.4"/>
  </clipPath>
 </defs>
</svg>
