<?xml version="1.0" encoding="utf-8" standalone="no"?>
<!DOCTYPE svg PUBLIC "-//W3C//DTD SVG 1.1//EN"
  "http://www.w3.org/Graphics/SVG/1.1/DTD/svg11.dtd">
<svg xmlns:xlink="http://www.w3.org/1999/xlink" width="432pt" height="432pt" viewBox="0 0 432 432" xmlns="http://www.w3.org/2000/svg" version="1.1">
 <metadata>
  <rdf:RDF xmlns:dc="http://purl.org/dc/elements/1.1/" xmlns:cc="http://creativecommons.org/ns#" xmlns:rdf="http://www.w3.org/1999/02/22-rdf-syntax-ns#">
   <cc:Work>
    <dc:type rdf:resource="http://purl.org/dc/dcmitype/StillImage"/>
    <dc:date>2026-05-12T18:52:25.622384</dc:date>
    <dc:format>image/svg+xml</dc:format>
    <dc:creator>
     <cc:Agent>
      <dc:title>Matplotlib v3.10.8, https://matplotlib.org/</dc:title>
     </cc:Agent>
    </dc:creator>
   </cc:Work>
  </rdf:RDF>
 </metadata>
 <defs>
  <style type="text/css">*{stroke-linejoin: round; stroke-linecap: butt}</style>
 </defs>
 <g id="figure_1">
  <g id="patch_1">
   <path d="M 0 432 
L 432 432 
L 432 0 
L 0 0 
L 0 432 
z
" style="fill: none"/>
  </g>
  <g id="axes_1">
   <g id="patch_2">
    <path d="M 216 403.756789 
C 265.793682 403.756789 313.554648 383.973549 348.764098 348.764098 
C 383.973549 313.554648 403.756789 265.793682 403.756789 216 
C 403.756789 166.206318 383.973549 118.445352 348.764098 83.235902 
C 313.554648 48.026451 265.793682 28.243211 216 28.243211 
C 166.206318 28.243211 118.445352 48.026451 83.235902 83.235902 
C 48.026451 118.445352 28.243211 166.206318 28.243211 216 
C 28.243211 265.793682 48.026451 313.554648 83.235902 348.764098 
C 118.445352 383.973549 166.206318 403.756789 216 403.756789 
L 216 403.756789 
z
" clip-path="url(#pbd8221405f)" style="fill: none; stroke-dasharray: 2.5,4.125; stroke-dashoffset: 0; stroke: #808080; stroke-width: 2.5; stroke-linejoin: miter"/>
   </g>
   <g id="line2d_1">
    <path d="M 232.292924 249.832604 
L 234.854093 248.475031 
L 237.302913 246.923945 
L 239.624793 245.188587 
L 241.805896 243.2793 
L 243.833226 241.207459 
L 245.694703 238.985411 
L 247.379233 236.626396 
L 248.876779 234.144472 
L 250.178418 231.554428 
L 251.276392 228.871698 
L 252.164161 226.112267 
L 252.609867 224.355963 
L 252.609867 224.355963 
" clip-path="url(#pbd8221405f)" style="fill: none; stroke: #000000; stroke-linecap: square"/>
   </g>
   <g id="line2d_2">
    <path d="M 313.406735 315.316041 
L 315.435449 315.663367 
L 317.489991 315.786548 
L 319.545671 315.684104 
L 321.577786 315.357266 
L 323.561917 314.809962 
L 325.474219 314.048768 
L 327.291713 313.082833 
L 328.992558 311.923763 
L 330.556314 310.585487 
L 331.964191 309.084088 
L 333.199268 307.437607 
L 334.246706 305.665831 
L 335.093915 303.790051 
L 335.730717 301.832808 
L 336.149457 299.817623 
L 336.345104 297.768711 
L 336.315308 295.710696 
L 336.060425 293.668307 
L 335.583519 291.666089 
L 334.890321 289.728103 
L 334.501019 288.864646 
L 334.501019 288.864646 
" clip-path="url(#pbd8221405f)" style="fill: none; stroke: #000000; stroke-linecap: square"/>
   </g>
   <g id="line2d_3">
    <path d="M 216 28.243211 
L 159.624736 98.935557 
" clip-path="url(#pbd8221405f)" style="fill: none; stroke: #0072b2; stroke-width: 2.5; stroke-linecap: square"/>
   </g>
   <g id="line2d_4">
    <path d="M 69.205832 98.935557 
L 89.325931 187.08747 
" clip-path="url(#pbd8221405f)" style="fill: none; stroke: #0072b2; stroke-width: 2.5; stroke-linecap: square"/>
   </g>
   <g id="line2d_5">
    <path d="M 32.950666 257.779816 
L 114.415284 297.011108 
" clip-path="url(#pbd8221405f)" style="fill: none; stroke: #0072b2; stroke-width: 2.5; stroke-linecap: square"/>
   </g>
   <g id="line2d_6">
    <path d="M 134.535382 385.163021 
L 216 345.931729 
" clip-path="url(#pbd8221405f)" style="fill: none; stroke: #0072b2; stroke-width: 2.5; stroke-linecap: square"/>
   </g>
   <g id="line2d_7">
    <path d="M 297.464618 385.163021 
L 317.584716 297.011108 
" clip-path="url(#pbd8221405f)" style="fill: none; stroke: #0072b2; stroke-width: 2.5; stroke-linecap: square"/>
   </g>
   <g id="line2d_8">
    <path d="M 399.049334 257.779816 
L 342.674069 187.08747 
" clip-path="url(#pbd8221405f)" style="fill: none; stroke: #0072b2; stroke-width: 2.5; stroke-linecap: square"/>
   </g>
   <g id="line2d_9">
    <path d="M 362.794168 98.935557 
L 272.375264 98.935557 
" clip-path="url(#pbd8221405f)" style="fill: none; stroke: #0072b2; stroke-width: 2.5; stroke-linecap: square"/>
   </g>
   <g id="line2d_10">
    <path d="M 69.205832 98.935557 
L 159.624736 98.935557 
" clip-path="url(#pbd8221405f)" style="fill: none; stroke: #0072b2; stroke-width: 2.5; stroke-linecap: square"/>
   </g>
   <g id="line2d_11">
    <path d="M 32.950666 257.779816 
L 89.325931 187.08747 
" clip-path="url(#pbd8221405f)" style="fill: none; stroke: #0072b2; stroke-width: 2.5; stroke-linecap: square"/>
   </g>
   <g id="line2d_12">
    <path d="M 134.535382 385.163021 
L 114.415284 297.011108 
" clip-path="url(#pbd8221405f)" style="fill: none; stroke: #0072b2; stroke-width: 2.5; stroke-linecap: square"/>
   </g>
   <g id="line2d_13">
    <path d="M 297.464618 385.163021 
L 216 345.931729 
" clip-path="url(#pbd8221405f)" style="fill: none; stroke: #0072b2; stroke-width: 2.5; stroke-linecap: square"/>
   </g>
   <g id="line2d_14">
    <path d="M 399.049334 257.779816 
L 317.584716 297.011108 
" clip-path="url(#pbd8221405f)" style="fill: none; stroke: #0072b2; stroke-width: 2.5; stroke-linecap: square"/>
   </g>
   <g id="line2d_15">
    <path d="M 362.794168 98.935557 
L 342.674069 187.08747 
" clip-path="url(#pbd8221405f)" style="fill: none; stroke: #0072b2; stroke-width: 2.5; stroke-linecap: square"/>
   </g>
   <g id="line2d_16">
    <path d="M 216 28.243211 
L 272.375264 98.935557 
" clip-path="url(#pbd8221405f)" style="fill: none; stroke: #0072b2; stroke-width: 2.5; stroke-linecap: square"/>
   </g>
   <g id="line2d_17">
    <path d="M 159.624736 98.935557 
L 89.325931 187.08747 
" clip-path="url(#pbd8221405f)" style="fill: none; stroke-dasharray: 9.25,4; stroke-dashoffset: 0; stroke: #808080; stroke-width: 2.5"/>
   </g>
   <g id="line2d_18">
    <path d="M 89.325931 187.08747 
L 114.415284 297.011108 
" clip-path="url(#pbd8221405f)" style="fill: none; stroke-dasharray: 9.25,4; stroke-dashoffset: 0; stroke: #808080; stroke-width: 2.5"/>
   </g>
   <g id="line2d_19">
    <path d="M 114.415284 297.011108 
L 216 345.931729 
" clip-path="url(#pbd8221405f)" style="fill: none; stroke-dasharray: 9.25,4; stroke-dashoffset: 0; stroke: #808080; stroke-width: 2.5"/>
   </g>
   <g id="line2d_20">
    <path d="M 216 345.931729 
L 317.584716 297.011108 
" clip-path="url(#pbd8221405f)" style="fill: none; stroke-dasharray: 9.25,4; stroke-dashoffset: 0; stroke: #808080; stroke-width: 2.5"/>
   </g>
   <g id="line2d_21">
    <path d="M 317.584716 297.011108 
L 342.674069 187.08747 
" clip-path="url(#pbd8221405f)" style="fill: none; stroke-dasharray: 9.25,4; stroke-dashoffset: 0; stroke: #808080; stroke-width: 2.5"/>
   </g>
   <g id="line2d_22">
    <path d="M 342.674069 187.08747 
L 272.375264 98.935557 
" clip-path="url(#pbd8221405f)" style="fill: none; stroke-dasharray: 9.25,4; stroke-dashoffset: 0; stroke: #808080; stroke-width: 2.5"/>
   </g>
   <g id="line2d_23">
    <path d="M 272.375264 98.935557 
L 159.624736 98.935557 
" clip-path="url(#pbd8221405f)" style="fill: none; stroke-dasharray: 9.25,4; stroke-dashoffset: 0; stroke: #808080; stroke-width: 2.5"/>
   </g>
   <g id="line2d_24">
    <path d="M 216 216 
L 297.464618 385.163021 
" clip-path="url(#pbd8221405f)" style="fill: none; stroke-dasharray: 16,4,2.5,4; stroke-dashoffset: 0; stroke: #000000; stroke-width: 2.5"/>
   </g>
   <g id="line2d_25">
    <path d="M 216 216 
L 399.049334 257.779816 
" clip-path="url(#pbd8221405f)" style="fill: none; stroke-dasharray: 16,4,2.5,4; stroke-dashoffset: 0; stroke: #000000; stroke-width: 2.5"/>
   </g>
   <g id="line2d_26">
    <defs>
     <path id="m0840092d0d" d="M 0 5 
C 1.326016 5 2.597899 4.473168 3.535534 3.535534 
C 4.473168 2.597899 5 1.326016 5 0 
C 5 -1.326016 4.473168 -2.597899 3.535534 -3.535534 
C 2.597899 -4.473168 1.326016 -5 0 -5 
C -1.326016 -5 -2.597899 -4.473168 -3.535534 -3.535534 
C -4.473168 -2.597899 -5 -1.326016 -5 0 
C -5 1.326016 -4.473168 2.597899 -3.535534 3.535534 
C -2.597899 4.473168 -1.326016 5 0 5 
z
" style="stroke: #000000; stroke-opacity: 0.8"/>
    </defs>
    <g clip-path="url(#pbd8221405f)">
     <use xlink:href="#m0840092d0d" x="216" y="28.243211" style="fill-opacity: 0.8; stroke: #000000; stroke-opacity: 0.8"/>
    </g>
   </g>
   <g id="line2d_27">
    <g clip-path="url(#pbd8221405f)">
     <use xlink:href="#m0840092d0d" x="69.205832" y="98.935557" style="fill-opacity: 0.8; stroke: #000000; stroke-opacity: 0.8"/>
    </g>
   </g>
   <g id="line2d_28">
    <g clip-path="url(#pbd8221405f)">
     <use xlink:href="#m0840092d0d" x="32.950666" y="257.779816" style="fill-opacity: 0.8; stroke: #000000; stroke-opacity: 0.8"/>
    </g>
   </g>
   <g id="line2d_29">
    <g clip-path="url(#pbd8221405f)">
     <use xlink:href="#m0840092d0d" x="134.535382" y="385.163021" style="fill-opacity: 0.8; stroke: #000000; stroke-opacity: 0.8"/>
    </g>
   </g>
   <g id="line2d_30">
    <g clip-path="url(#pbd8221405f)">
     <use xlink:href="#m0840092d0d" x="297.464618" y="385.163021" style="fill-opacity: 0.8; stroke: #000000; stroke-opacity: 0.8"/>
    </g>
   </g>
   <g id="line2d_31">
    <g clip-path="url(#pbd8221405f)">
     <use xlink:href="#m0840092d0d" x="399.049334" y="257.779816" style="fill-opacity: 0.8; stroke: #000000; stroke-opacity: 0.8"/>
    </g>
   </g>
   <g id="line2d_32">
    <g clip-path="url(#pbd8221405f)">
     <use xlink:href="#m0840092d0d" x="362.794168" y="98.935557" style="fill-opacity: 0.8; stroke: #000000; stroke-opacity: 0.8"/>
    </g>
   </g>
   <g id="line2d_33">
    <g clip-path="url(#pbd8221405f)">
     <use xlink:href="#m0840092d0d" x="159.624736" y="98.935557" style="fill-opacity: 0.8; stroke: #000000; stroke-opacity: 0.8"/>
    </g>
   </g>
   <g id="line2d_34">
    <g clip-path="url(#pbd8221405f)">
     <use xlink:href="#m0840092d0d" x="89.325931" y="187.08747" style="fill-opacity: 0.8; stroke: #000000; stroke-opacity: 0.8"/>
    </g>
   </g>
   <g id="line2d_35">
    <g clip-path="url(#pbd8221405f)">
     <use xlink:href="#m0840092d0d" x="114.415284" y="297.011108" style="fill-opacity: 0.8; stroke: #000000; stroke-opacity: 0.8"/>
    </g>
   </g>
   <g id="line2d_36">
    <g clip-path="url(#pbd8221405f)">
     <use xlink:href="#m0840092d0d" x="216" y="345.931729" style="fill-opacity: 0.8; stroke: #000000; stroke-opacity: 0.8"/>
    </g>
   </g>
   <g id="line2d_37">
    <g clip-path="url(#pbd8221405f)">
     <use xlink:href="#m0840092d0d" x="317.584716" y="297.011108" style="fill-opacity: 0.8; stroke: #000000; stroke-opacity: 0.8"/>
    </g>
   </g>
   <g id="line2d_38">
    <g clip-path="url(#pbd8221405f)">
     <use xlink:href="#m0840092d0d" x="342.674069" y="187.08747" style="fill-opacity: 0.8; stroke: #000000; stroke-opacity: 0.8"/>
    </g>
   </g>
   <g id="line2d_39">
    <g clip-path="url(#pbd8221405f)">
     <use xlink:href="#m0840092d0d" x="272.375264" y="98.935557" style="fill-opacity: 0.8; stroke: #000000; stroke-opacity: 0.8"/>
    </g>
   </g>
  </g>
 </g>
 <defs>
  <clipPath id="pbd8221405f">
   <rect x="10.8" y="10.8" width="410.4" height="410.4"/>
  </clipPath>
 </defs>
</svg>
