<?xml version="1.0" encoding="utf-8" standalone="no"?>
<!DOCTYPE svg PUBLIC "-//W3C//DTD SVG 1.1//EN"
  "http://www.w3.org/Graphics/SVG/1.1/DTD/svg11.dtd">
<svg xmlns:xlink="http://www.w3.org/1999/xlink" width="460.8pt" height="345.6pt" viewBox="0 0 460.8 345.6" xmlns="http://www.w3.org/2000/svg" version="1.1">
 <metadata>
  <rdf:RDF xmlns:dc="http://purl.org/dc/elements/1.1/" xmlns:cc="http://creativecommons.org/ns#" xmlns:rdf="http://www.w3.org/1999/02/22-rdf-syntax-ns#">
   <cc:Work>
    <dc:type rdf:resource="http://purl.org/dc/dcmitype/StillImage"/>
    <dc:date>2026-02-08T00:16:08.894141</dc:date>
    <dc:format>image/svg+xml</dc:format>
    <dc:creator>
     <cc:Agent>
      <dc:title>Matplotlib v3.9.1, https://matplotlib.org/</dc:title>
     </cc:Agent>
    </dc:creator>
   </cc:Work>
  </rdf:RDF>
 </metadata>
 <defs>
  <style type="text/css">*{stroke-linejoin: round; stroke-linecap: butt}</style>
 </defs>
 <g id="figure_1">
  <g id="patch_1">
   <path d="M 0 345.6 
L 460.8 345.6 
L 460.8 0 
L 0 0 
L 0 345.6 
z
" style="fill: none"/>
  </g>
  <g id="axes_1">
   <g id="patch_2">
    <path d="M 10.8 334.8 
L 447 334.8 
L 447 22.230394 
L 10.8 22.230394 
L 10.8 334.8 
z
" style="fill: none"/>
   </g>
   <g id="matplotlib.axis_1">
    <g id="text_1">
     <!-- $x$ -->
     <g transform="translate(433.141493 199.811451) scale(0.25 -0.25)">
      <defs>
       <path id="CMMI12-78" d="M 3034 2606 
C 2829 2567 2752 2414 2752 2293 
C 2752 2139 2874 2088 2963 2088 
C 3155 2088 3290 2254 3290 2427 
C 3290 2695 2982 2816 2714 2816 
C 2323 2816 2106 2433 2048 2312 
C 1901 2816 1504 2816 1389 2816 
C 736 2816 390 1980 390 1839 
C 390 1814 416 1782 461 1782 
C 512 1782 525 1820 538 1846 
C 755 2555 1184 2689 1370 2689 
C 1658 2689 1715 2420 1715 2267 
C 1715 2127 1677 1980 1600 1673 
L 1382 798 
C 1286 415 1101 64 762 64 
C 730 64 570 64 435 147 
C 666 192 717 383 717 460 
C 717 588 621 664 499 664 
C 346 664 179 530 179 326 
C 179 57 480 -64 755 -64 
C 1062 -64 1280 179 1414 441 
C 1517 64 1837 -64 2074 -64 
C 2726 -64 3072 773 3072 913 
C 3072 945 3046 971 3008 971 
C 2950 971 2944 939 2925 888 
C 2752 326 2381 64 2093 64 
C 1869 64 1747 230 1747 492 
C 1747 632 1773 734 1875 1156 
L 2099 2024 
C 2195 2408 2413 2689 2707 2689 
C 2720 2689 2899 2689 3034 2606 
z
" transform="scale(0.015625)"/>
      </defs>
      <use xlink:href="#CMMI12-78" transform="scale(0.996264)"/>
     </g>
    </g>
   </g>
   <g id="matplotlib.axis_2">
    <g id="text_2">
     <!-- $y$ -->
     <g transform="translate(213.008953 17.38586) scale(0.25 -0.25)">
      <defs>
       <path id="CMMI12-79" d="M 1683 -700 
C 1510 -939 1261 -1152 947 -1152 
C 870 -1152 563 -1152 467 -889 
C 486 -895 518 -895 531 -895 
C 723 -895 851 -729 851 -582 
C 851 -435 730 -384 634 -384 
C 531 -384 307 -458 307 -759 
C 307 -1071 582 -1286 947 -1286 
C 1587 -1286 2234 -700 2413 6 
L 3040 2485 
C 3046 2517 3059 2556 3059 2594 
C 3059 2689 2982 2753 2886 2753 
C 2829 2753 2694 2727 2643 2535 
L 2170 658 
C 2138 543 2138 530 2086 460 
C 1958 281 1747 64 1440 64 
C 1082 64 1050 415 1050 588 
C 1050 952 1222 1443 1395 1903 
C 1466 2088 1504 2178 1504 2305 
C 1504 2574 1312 2816 998 2816 
C 410 2816 173 1890 173 1839 
C 173 1814 198 1782 243 1782 
C 301 1782 307 1807 333 1897 
C 486 2433 730 2689 979 2689 
C 1037 2689 1146 2689 1146 2478 
C 1146 2312 1075 2127 979 1884 
C 666 1047 666 837 666 683 
C 666 77 1101 -64 1421 -64 
C 1606 -64 1837 -6 2061 230 
L 2067 224 
C 1971 -147 1907 -392 1683 -700 
z
" transform="scale(0.015625)"/>
      </defs>
      <use xlink:href="#CMMI12-79" transform="scale(0.996264)"/>
     </g>
    </g>
   </g>
   <g id="line2d_1">
    <defs>
     <path id="m0a99c5cb9c" d="M 3 0 
L -3 -3 
L -3 3 
z
" style="stroke: #000000; stroke-linejoin: miter"/>
    </defs>
    <g>
     <use xlink:href="#m0a99c5cb9c" x="447" y="178.515197" style="stroke: #000000; stroke-linejoin: miter"/>
    </g>
   </g>
   <g id="line2d_2">
    <defs>
     <path id="m1c55790d0f" d="M 0 -3 
L -3 3 
L 3 3 
z
" style="stroke: #000000; stroke-linejoin: miter"/>
    </defs>
    <g>
     <use xlink:href="#m1c55790d0f" x="228.9" y="22.230394" style="stroke: #000000; stroke-linejoin: miter"/>
    </g>
   </g>
   <g id="line2d_3">
    <path d="M 10.8 188.092246 
L 50.178612 187.674127 
L 77.070024 187.178012 
L 96.612891 186.605235 
L 111.469731 185.956271 
L 123.131551 185.232621 
L 132.530233 184.43453 
L 140.278154 183.560415 
L 146.774693 182.609539 
L 152.286101 181.583719 
L 157.02538 180.480859 
L 161.15228 179.296907 
L 164.773302 178.031426 
L 167.994946 176.673338 
L 170.870463 175.223286 
L 173.479729 173.659676 
L 175.849368 171.980913 
L 178.006006 170.183613 
L 180.002893 168.232717 
L 181.866654 166.101227 
L 183.623915 163.748501 
L 185.274675 161.159261 
L 186.818934 158.320888 
L 188.283318 155.163148 
L 189.694452 151.579233 
L 191.02571 147.581355 
L 192.303717 143.024084 
L 193.528475 137.805745 
L 194.699982 131.800905 
L 195.818238 124.853395 
L 196.883245 116.766808 
L 197.895001 107.291393 
L 198.853507 96.105688 
L 199.758762 82.790353 
L 200.610767 66.79018 
L 201.409522 47.357804 
L 202.155027 23.468375 
L 202.738474 -1 
M 213.926558 346.6 
L 214.828603 331.723234 
L 215.787109 319.473617 
L 216.798865 309.359011 
L 217.837246 301.160196 
L 218.902252 294.460597 
L 219.993884 288.966439 
L 221.085515 284.562632 
L 222.177147 281.037335 
L 223.268779 278.239567 
L 224.333785 276.107132 
L 225.345541 274.560349 
L 226.304047 273.483907 
L 227.209302 272.78999 
L 228.061307 272.409518 
L 228.860062 272.286358 
L 229.658817 272.387098 
L 230.457572 272.713367 
L 231.282952 273.293127 
L 232.161582 274.192784 
L 233.093463 275.485779 
L 234.051969 277.21199 
L 235.037099 279.45338 
L 236.048856 282.319274 
L 237.087237 285.958446 
L 238.125618 290.450189 
L 239.137374 295.840274 
L 240.122505 302.302601 
L 241.081011 310.072639 
L 242.012891 319.473617 
L 242.918147 330.958172 
L 243.770152 344.69052 
L 243.873442 346.6 
M 255.061526 -1 
L 255.804724 29.182346 
L 256.603479 53.061671 
L 257.455484 72.231551 
L 258.36074 87.856846 
L 259.319246 100.758678 
L 260.357627 111.782934 
L 261.449258 121.017106 
L 262.59414 128.825993 
L 263.792272 135.484745 
L 265.043655 141.204448 
L 266.348288 146.149482 
L 267.706171 150.449563 
L 269.14393 154.273303 
L 270.634939 157.619441 
L 272.205823 160.608122 
L 273.856583 163.278667 
L 275.613844 165.700466 
L 277.477605 167.890532 
L 279.474492 169.891657 
L 281.604505 171.711344 
L 283.920894 173.395638 
L 286.450284 174.955522 
L 289.2193 176.398066 
L 292.281194 177.738784 
L 295.689214 178.985055 
L 299.523238 180.146771 
L 303.889764 181.232138 
L 308.895294 182.240839 
L 314.672954 183.172428 
L 321.435744 184.031552 
L 329.449918 184.818967 
L 339.088226 185.535479 
L 350.909797 186.182863 
L 365.686761 186.759869 
L 384.643875 187.266913 
L 409.751401 187.704069 
L 444.47061 188.072166 
L 447 188.092246 
L 447 188.092246 
" clip-path="url(#p35c957d32e)" style="fill: none; stroke: #0072b2; stroke-width: 3.5; stroke-linecap: square"/>
   </g>
   <g id="LineCollection_1">
    <path d="M 207.09 334.8 
L 207.09 22.230394 
" clip-path="url(#p35c957d32e)" style="fill: none; stroke-dasharray: 12.95,5.6; stroke-dashoffset: 0; stroke: #dc5e8b; stroke-width: 3.5"/>
   </g>
   <g id="LineCollection_2">
    <path d="M 250.71 334.8 
L 250.71 22.230394 
" clip-path="url(#p35c957d32e)" style="fill: none; stroke-dasharray: 12.95,5.6; stroke-dashoffset: 0; stroke: #dc5e8b; stroke-width: 3.5"/>
   </g>
   <g id="LineCollection_3">
    <path d="M 10.8 188.934184 
L 447 188.934184 
" clip-path="url(#p35c957d32e)" style="fill: none; stroke-dasharray: 12.95,5.6; stroke-dashoffset: 0; stroke: #dc5e8b; stroke-width: 3.5"/>
   </g>
   <g id="patch_3">
    <path d="M 228.9 334.8 
L 228.9 22.230394 
" style="fill: none; stroke: #000000; stroke-width: 0.8; stroke-linejoin: miter; stroke-linecap: square"/>
   </g>
   <g id="patch_4">
    <path d="M 447 334.8 
L 447 22.230394 
" style="fill: none"/>
   </g>
   <g id="patch_5">
    <path d="M 10.8 178.515197 
L 447 178.515197 
" style="fill: none; stroke: #000000; stroke-width: 0.8; stroke-linejoin: miter; stroke-linecap: square"/>
   </g>
   <g id="patch_6">
    <path d="M 10.8 22.230394 
L 447 22.230394 
" style="fill: none"/>
   </g>
   <g id="text_3">
    <g id="patch_7">
     <path d="M 329.50715 116.233696 
L 346.39285 116.233696 
Q 356.39285 116.233696 356.39285 106.233696 
L 356.39285 84.092908 
Q 356.39285 74.092908 346.39285 74.092908 
L 329.50715 74.092908 
Q 319.50715 74.092908 319.50715 84.092908 
L 319.50715 106.233696 
Q 319.50715 116.233696 329.50715 116.233696 
z
" style="fill: #ffffff; opacity: 0.7; stroke: #000000; stroke-width: 1.5; stroke-linejoin: miter"/>
    </g>
    <!-- D -->
    <g transform="translate(329.50715 101.389162) scale(0.25 -0.25)">
     <defs>
      <path id="CMSS17-44" d="M 570 4416 
L 570 0 
L 2144 0 
C 3194 0 4000 980 4000 2170 
C 4000 3398 3194 4416 2144 4416 
L 570 4416 
z
M 1094 357 
L 1094 4059 
L 2003 4059 
C 2861 4059 3475 3277 3475 2170 
C 3475 1107 2867 357 2003 357 
L 1094 357 
z
" transform="scale(0.015625)"/>
     </defs>
     <use xlink:href="#CMSS17-44" transform="scale(0.996264)"/>
    </g>
   </g>
  </g>
 </g>
 <defs>
  <clipPath id="p35c957d32e">
   <rect x="10.8" y="22.230394" width="436.2" height="312.569606"/>
  </clipPath>
 </defs>
</svg>
