<?xml version="1.0" encoding="utf-8" standalone="no"?>
<!DOCTYPE svg PUBLIC "-//W3C//DTD SVG 1.1//EN"
  "http://www.w3.org/Graphics/SVG/1.1/DTD/svg11.dtd">
<svg xmlns:xlink="http://www.w3.org/1999/xlink" width="432pt" height="432pt" viewBox="0 0 432 432" xmlns="http://www.w3.org/2000/svg" version="1.1">
 <metadata>
  <rdf:RDF xmlns:dc="http://purl.org/dc/elements/1.1/" xmlns:cc="http://creativecommons.org/ns#" xmlns:rdf="http://www.w3.org/1999/02/22-rdf-syntax-ns#">
   <cc:Work>
    <dc:type rdf:resource="http://purl.org/dc/dcmitype/StillImage"/>
    <dc:date>2026-03-21T11:43:36.378137</dc:date>
    <dc:format>image/svg+xml</dc:format>
    <dc:creator>
     <cc:Agent>
      <dc:title>Matplotlib v3.10.8, https://matplotlib.org/</dc:title>
     </cc:Agent>
    </dc:creator>
   </cc:Work>
  </rdf:RDF>
 </metadata>
 <defs>
  <style type="text/css">*{stroke-linejoin: round; stroke-linecap: butt}</style>
 </defs>
 <g id="figure_1">
  <g id="patch_1">
   <path d="M 0 432 
L 432 432 
L 432 0 
L 0 0 
L 0 432 
z
" style="fill: none"/>
  </g>
  <g id="axes_1">
   <g id="line2d_1">
    <path d="M 28.243211 324.401432 
L 245.046076 324.401432 
" clip-path="url(#p8762c98198)" style="fill: none; stroke: #0072b2; stroke-width: 2.5; stroke-linecap: square"/>
   </g>
   <g id="line2d_2">
    <path d="M 245.046076 324.401432 
L 403.756789 107.598568 
" clip-path="url(#p8762c98198)" style="fill: none; stroke: #0072b2; stroke-width: 2.5; stroke-linecap: square"/>
   </g>
   <g id="line2d_3">
    <path d="M 403.756789 107.598568 
L 28.243211 324.401432 
" clip-path="url(#p8762c98198)" style="fill: none; stroke: #0072b2; stroke-width: 2.5; stroke-linecap: square"/>
   </g>
   <g id="line2d_4">
    <path d="M 61.812687 324.401432 
L 61.810711 324.034845 
L 61.804784 323.668301 
L 61.794905 323.301844 
L 61.781077 322.935515 
L 61.763301 322.56936 
L 61.741578 322.203419 
L 61.715912 321.837738 
L 61.686306 321.472359 
L 61.652763 321.107324 
L 61.615286 320.742677 
L 61.573881 320.378461 
L 61.528553 320.014718 
L 61.479306 319.651492 
L 61.426146 319.288825 
L 61.36908 318.92676 
L 61.308114 318.565339 
L 61.243256 318.204606 
L 61.174513 317.844602 
L 61.101893 317.48537 
L 61.025405 317.126951 
L 60.945058 316.76939 
L 60.860862 316.412727 
L 60.772825 316.057004 
L 60.680959 315.702263 
L 60.585274 315.348547 
L 60.485782 314.995896 
L 60.382495 314.644353 
L 60.275424 314.293958 
L 60.164582 313.944753 
L 60.049982 313.596779 
L 59.931638 313.250077 
L 59.809563 312.904688 
L 59.683772 312.560652 
L 59.55428 312.21801 
L 59.421103 311.876802 
L 59.284254 311.537069 
L 59.143752 311.19885 
L 58.999612 310.862185 
L 58.851851 310.527115 
L 58.700487 310.193677 
L 58.545538 309.861912 
L 58.387021 309.531859 
L 58.224955 309.203556 
L 58.059361 308.877043 
L 57.890256 308.552356 
L 57.717661 308.229536 
L 57.541596 307.908619 
L 57.362082 307.589644 
" clip-path="url(#p8762c98198)" style="fill: none; stroke: #dc5e8b; stroke-width: 2; stroke-linecap: square"/>
   </g>
  </g>
 </g>
 <defs>
  <clipPath id="p8762c98198">
   <rect x="10.8" y="10.8" width="410.4" height="410.4"/>
  </clipPath>
 </defs>
</svg>
