<?xml version="1.0" encoding="utf-8" standalone="no"?>
<!DOCTYPE svg PUBLIC "-//W3C//DTD SVG 1.1//EN"
  "http://www.w3.org/Graphics/SVG/1.1/DTD/svg11.dtd">
<svg xmlns:xlink="http://www.w3.org/1999/xlink" width="576pt" height="180pt" viewBox="0 0 576 180" xmlns="http://www.w3.org/2000/svg" version="1.1">
 <metadata>
  <rdf:RDF xmlns:dc="http://purl.org/dc/elements/1.1/" xmlns:cc="http://creativecommons.org/ns#" xmlns:rdf="http://www.w3.org/1999/02/22-rdf-syntax-ns#">
   <cc:Work>
    <dc:type rdf:resource="http://purl.org/dc/dcmitype/StillImage"/>
    <dc:date>2026-02-18T15:02:02.084868</dc:date>
    <dc:format>image/svg+xml</dc:format>
    <dc:creator>
     <cc:Agent>
      <dc:title>Matplotlib v3.9.1, https://matplotlib.org/</dc:title>
     </cc:Agent>
    </dc:creator>
   </cc:Work>
  </rdf:RDF>
 </metadata>
 <defs>
  <style type="text/css">*{stroke-linejoin: round; stroke-linecap: butt}</style>
 </defs>
 <g id="figure_1">
  <g id="patch_1">
   <path d="M 0 180 
L 576 180 
L 576 0 
L 0 0 
L 0 180 
z
" style="fill: none"/>
  </g>
  <g id="axes_1">
   <g id="patch_2">
    <path d="M 67.281302 162 
L 147.656817 162 
L 147.656817 121.812243 
L 67.281302 121.812243 
z
" clip-path="url(#p6ac293d35a)" style="fill: #0072b2; opacity: 0.3; stroke: #0072b2; stroke-linejoin: miter"/>
   </g>
   <g id="patch_3">
    <path d="M 187.844574 162 
L 228.032331 162 
L 228.032331 113.774691 
L 187.844574 113.774691 
z
" clip-path="url(#p6ac293d35a)" style="fill: #0072b2; opacity: 0.3; stroke: #0072b2; stroke-linejoin: miter"/>
   </g>
   <g id="patch_4">
    <path d="M 268.220088 162 
L 288.313967 162 
L 288.313967 104.12963 
L 268.220088 104.12963 
z
" clip-path="url(#p6ac293d35a)" style="fill: #0072b2; opacity: 0.3; stroke: #0072b2; stroke-linejoin: miter"/>
   </g>
   <g id="patch_5">
    <path d="M 328.501724 162 
L 338.548663 162 
L 338.548663 92.555556 
L 328.501724 92.555556 
z
" clip-path="url(#p6ac293d35a)" style="fill: #0072b2; opacity: 0.3; stroke: #0072b2; stroke-linejoin: miter"/>
   </g>
   <g id="patch_6">
    <path d="M 378.736421 162 
L 383.75989 162 
L 383.75989 78.666667 
L 378.736421 78.666667 
z
" clip-path="url(#p6ac293d35a)" style="fill: #0072b2; opacity: 0.3; stroke: #0072b2; stroke-linejoin: miter"/>
   </g>
   <g id="patch_7">
    <path d="M 423.947647 162 
L 426.459382 162 
L 426.459382 62 
L 423.947647 62 
z
" clip-path="url(#p6ac293d35a)" style="fill: #0072b2; opacity: 0.3; stroke: #0072b2; stroke-linejoin: miter"/>
   </g>
   <g id="patch_8">
    <path d="M 466.647139 162 
L 467.903007 162 
L 467.903007 42 
L 466.647139 42 
z
" clip-path="url(#p6ac293d35a)" style="fill: #0072b2; opacity: 0.3; stroke: #0072b2; stroke-linejoin: miter"/>
   </g>
   <g id="patch_9">
    <path d="M 508.090764 162 
L 508.718698 162 
L 508.718698 18 
L 508.090764 18 
z
" clip-path="url(#p6ac293d35a)" style="fill: #0072b2; opacity: 0.3; stroke: #0072b2; stroke-linejoin: miter"/>
   </g>
   <g id="line2d_1">
    <path d="M 67.281302 162 
L 147.656817 162 
L 147.656817 121.812243 
L 67.281302 121.812243 
L 67.281302 162 
" clip-path="url(#p6ac293d35a)" style="fill: none; stroke: #000000; stroke-width: 1.5; stroke-linecap: square"/>
   </g>
   <g id="line2d_2">
    <path d="M 187.844574 162 
L 228.032331 162 
L 228.032331 113.774691 
L 187.844574 113.774691 
L 187.844574 162 
" clip-path="url(#p6ac293d35a)" style="fill: none; stroke: #000000; stroke-width: 1.5; stroke-linecap: square"/>
   </g>
   <g id="line2d_3">
    <path d="M 268.220088 162 
L 288.313967 162 
L 288.313967 104.12963 
L 268.220088 104.12963 
L 268.220088 162 
" clip-path="url(#p6ac293d35a)" style="fill: none; stroke: #000000; stroke-width: 1.5; stroke-linecap: square"/>
   </g>
   <g id="line2d_4">
    <path d="M 328.501724 162 
L 338.548663 162 
L 338.548663 92.555556 
L 328.501724 92.555556 
L 328.501724 162 
" clip-path="url(#p6ac293d35a)" style="fill: none; stroke: #000000; stroke-width: 1.5; stroke-linecap: square"/>
   </g>
   <g id="line2d_5">
    <path d="M 378.736421 162 
L 383.75989 162 
L 383.75989 78.666667 
L 378.736421 78.666667 
L 378.736421 162 
" clip-path="url(#p6ac293d35a)" style="fill: none; stroke: #000000; stroke-width: 1.5; stroke-linecap: square"/>
   </g>
   <g id="line2d_6">
    <path d="M 423.947647 162 
L 426.459382 162 
L 426.459382 62 
L 423.947647 62 
L 423.947647 162 
" clip-path="url(#p6ac293d35a)" style="fill: none; stroke: #000000; stroke-width: 1.5; stroke-linecap: square"/>
   </g>
   <g id="line2d_7">
    <path d="M 466.647139 162 
L 467.903007 162 
L 467.903007 42 
L 466.647139 42 
L 466.647139 162 
" clip-path="url(#p6ac293d35a)" style="fill: none; stroke: #000000; stroke-width: 1.5; stroke-linecap: square"/>
   </g>
   <g id="line2d_8">
    <path d="M 508.090764 162 
L 508.718698 162 
L 508.718698 18 
L 508.090764 18 
L 508.090764 162 
" clip-path="url(#p6ac293d35a)" style="fill: none; stroke: #000000; stroke-width: 1.5; stroke-linecap: square"/>
   </g>
  </g>
 </g>
 <defs>
  <clipPath id="p6ac293d35a">
   <rect x="10.8" y="10.8" width="554.4" height="158.4"/>
  </clipPath>
 </defs>
</svg>
