<?xml version="1.0" encoding="utf-8" standalone="no"?>
<!DOCTYPE svg PUBLIC "-//W3C//DTD SVG 1.1//EN"
  "http://www.w3.org/Graphics/SVG/1.1/DTD/svg11.dtd">
<svg xmlns:xlink="http://www.w3.org/1999/xlink" width="432pt" height="432pt" viewBox="0 0 432 432" xmlns="http://www.w3.org/2000/svg" version="1.1">
 <metadata>
  <rdf:RDF xmlns:dc="http://purl.org/dc/elements/1.1/" xmlns:cc="http://creativecommons.org/ns#" xmlns:rdf="http://www.w3.org/1999/02/22-rdf-syntax-ns#">
   <cc:Work>
    <dc:type rdf:resource="http://purl.org/dc/dcmitype/StillImage"/>
    <dc:date>2026-05-12T18:57:05.326270</dc:date>
    <dc:format>image/svg+xml</dc:format>
    <dc:creator>
     <cc:Agent>
      <dc:title>Matplotlib v3.10.8, https://matplotlib.org/</dc:title>
     </cc:Agent>
    </dc:creator>
   </cc:Work>
  </rdf:RDF>
 </metadata>
 <defs>
  <style type="text/css">*{stroke-linejoin: round; stroke-linecap: butt}</style>
 </defs>
 <g id="figure_1">
  <g id="patch_1">
   <path d="M 0 432 
L 432 432 
L 432 0 
L 0 0 
L 0 432 
z
" style="fill: none"/>
  </g>
  <g id="axes_1">
   <g id="patch_2">
    <path d="M 199.991359 387.992144 
C 245.604209 387.992144 289.355015 369.869967 321.608171 337.616812 
C 353.861326 305.363656 371.983503 261.61285 371.983503 216 
C 371.983503 170.38715 353.861326 126.636344 321.608171 94.383188 
C 289.355015 62.130033 245.604209 44.007856 199.991359 44.007856 
C 154.378509 44.007856 110.627703 62.130033 78.374547 94.383188 
C 46.121392 126.636344 27.999214 170.38715 27.999214 216 
C 27.999214 261.61285 46.121392 305.363656 78.374547 337.616812 
C 110.627703 369.869967 154.378509 387.992144 199.991359 387.992144 
L 199.991359 387.992144 
z
" clip-path="url(#pd894ad5c6d)" style="fill: none; stroke-dasharray: 2.5,4.125; stroke-dashoffset: 0; stroke: #808080; stroke-width: 2.5; stroke-linejoin: miter"/>
   </g>
   <g id="line2d_1">
    <path d="M 214.916278 246.991914 
L 217.366703 245.687528 
L 219.703971 244.1898 
L 221.912859 242.508485 
L 223.978981 240.654531 
L 225.888883 238.640013 
L 227.630125 236.47805 
L 229.191368 234.182722 
L 230.562444 231.768979 
L 231.734423 229.252539 
L 232.699674 226.64979 
L 233.45191 223.977685 
L 233.527347 223.654371 
L 233.527347 223.654371 
" clip-path="url(#pd894ad5c6d)" style="fill: none; stroke: #000000; stroke-linecap: square"/>
   </g>
   <g id="line2d_2">
    <path d="M 289.219521 306.977158 
L 291.152875 307.303794 
L 293.110843 307.408258 
L 295.067976 307.289194 
L 296.998841 306.948148 
L 298.878341 306.389553 
L 300.68205 305.620669 
L 302.386526 304.651489 
L 303.969616 303.494608 
L 305.410746 302.165061 
L 306.691186 300.68013 
L 307.794296 299.059112 
L 308.705737 297.323075 
L 309.413665 295.494582 
L 309.908879 293.597397 
L 310.184942 291.656176 
L 310.238268 289.696149 
L 310.068163 287.74279 
L 309.676837 285.821485 
L 309.069377 283.957204 
L 308.542663 282.746704 
L 308.542663 282.746704 
" clip-path="url(#pd894ad5c6d)" style="fill: none; stroke: #000000; stroke-linecap: square"/>
   </g>
   <g id="line2d_3">
    <path d="M 199.991359 44.007856 
L 148.349537 108.764652 
" clip-path="url(#pd894ad5c6d)" style="fill: none; stroke: #0072b2; stroke-width: 2.5; stroke-linecap: square"/>
   </g>
   <g id="line2d_4">
    <path d="M 65.522486 108.764652 
L 83.953238 189.515056 
" clip-path="url(#pd894ad5c6d)" style="fill: none; stroke: #0072b2; stroke-width: 2.5; stroke-linecap: square"/>
   </g>
   <g id="line2d_5">
    <path d="M 32.311417 254.271853 
L 106.936011 290.209163 
" clip-path="url(#pd894ad5c6d)" style="fill: none; stroke: #0072b2; stroke-width: 2.5; stroke-linecap: square"/>
   </g>
   <g id="line2d_6">
    <path d="M 125.366764 370.959568 
L 199.991359 335.022257 
" clip-path="url(#pd894ad5c6d)" style="fill: none; stroke: #0072b2; stroke-width: 2.5; stroke-linecap: square"/>
   </g>
   <g id="line2d_7">
    <path d="M 274.615954 370.959568 
L 293.046706 290.209163 
" clip-path="url(#pd894ad5c6d)" style="fill: none; stroke: #0072b2; stroke-width: 2.5; stroke-linecap: square"/>
   </g>
   <g id="line2d_8">
    <path d="M 367.671301 254.271853 
L 316.029479 189.515056 
" clip-path="url(#pd894ad5c6d)" style="fill: none; stroke: #0072b2; stroke-width: 2.5; stroke-linecap: square"/>
   </g>
   <g id="line2d_9">
    <path d="M 334.460232 108.764652 
L 251.633181 108.764652 
" clip-path="url(#pd894ad5c6d)" style="fill: none; stroke: #0072b2; stroke-width: 2.5; stroke-linecap: square"/>
   </g>
   <g id="line2d_10">
    <path d="M 65.522486 108.764652 
L 148.349537 108.764652 
" clip-path="url(#pd894ad5c6d)" style="fill: none; stroke: #0072b2; stroke-width: 2.5; stroke-linecap: square"/>
   </g>
   <g id="line2d_11">
    <path d="M 32.311417 254.271853 
L 83.953238 189.515056 
" clip-path="url(#pd894ad5c6d)" style="fill: none; stroke: #0072b2; stroke-width: 2.5; stroke-linecap: square"/>
   </g>
   <g id="line2d_12">
    <path d="M 125.366764 370.959568 
L 106.936011 290.209163 
" clip-path="url(#pd894ad5c6d)" style="fill: none; stroke: #0072b2; stroke-width: 2.5; stroke-linecap: square"/>
   </g>
   <g id="line2d_13">
    <path d="M 274.615954 370.959568 
L 199.991359 335.022257 
" clip-path="url(#pd894ad5c6d)" style="fill: none; stroke: #0072b2; stroke-width: 2.5; stroke-linecap: square"/>
   </g>
   <g id="line2d_14">
    <path d="M 367.671301 254.271853 
L 293.046706 290.209163 
" clip-path="url(#pd894ad5c6d)" style="fill: none; stroke: #0072b2; stroke-width: 2.5; stroke-linecap: square"/>
   </g>
   <g id="line2d_15">
    <path d="M 334.460232 108.764652 
L 316.029479 189.515056 
" clip-path="url(#pd894ad5c6d)" style="fill: none; stroke: #0072b2; stroke-width: 2.5; stroke-linecap: square"/>
   </g>
   <g id="line2d_16">
    <path d="M 199.991359 44.007856 
L 251.633181 108.764652 
" clip-path="url(#pd894ad5c6d)" style="fill: none; stroke: #0072b2; stroke-width: 2.5; stroke-linecap: square"/>
   </g>
   <g id="line2d_17">
    <path d="M 148.349537 108.764652 
L 83.953238 189.515056 
" clip-path="url(#pd894ad5c6d)" style="fill: none; stroke-dasharray: 9.25,4; stroke-dashoffset: 0; stroke: #808080; stroke-width: 2.5"/>
   </g>
   <g id="line2d_18">
    <path d="M 83.953238 189.515056 
L 106.936011 290.209163 
" clip-path="url(#pd894ad5c6d)" style="fill: none; stroke-dasharray: 9.25,4; stroke-dashoffset: 0; stroke: #808080; stroke-width: 2.5"/>
   </g>
   <g id="line2d_19">
    <path d="M 106.936011 290.209163 
L 199.991359 335.022257 
" clip-path="url(#pd894ad5c6d)" style="fill: none; stroke-dasharray: 9.25,4; stroke-dashoffset: 0; stroke: #808080; stroke-width: 2.5"/>
   </g>
   <g id="line2d_20">
    <path d="M 199.991359 335.022257 
L 293.046706 290.209163 
" clip-path="url(#pd894ad5c6d)" style="fill: none; stroke-dasharray: 9.25,4; stroke-dashoffset: 0; stroke: #808080; stroke-width: 2.5"/>
   </g>
   <g id="line2d_21">
    <path d="M 293.046706 290.209163 
L 316.029479 189.515056 
" clip-path="url(#pd894ad5c6d)" style="fill: none; stroke-dasharray: 9.25,4; stroke-dashoffset: 0; stroke: #808080; stroke-width: 2.5"/>
   </g>
   <g id="line2d_22">
    <path d="M 316.029479 189.515056 
L 251.633181 108.764652 
" clip-path="url(#pd894ad5c6d)" style="fill: none; stroke-dasharray: 9.25,4; stroke-dashoffset: 0; stroke: #808080; stroke-width: 2.5"/>
   </g>
   <g id="line2d_23">
    <path d="M 251.633181 108.764652 
L 148.349537 108.764652 
" clip-path="url(#pd894ad5c6d)" style="fill: none; stroke-dasharray: 9.25,4; stroke-dashoffset: 0; stroke: #808080; stroke-width: 2.5"/>
   </g>
   <g id="line2d_24">
    <path d="M 199.991359 216 
L 274.615954 370.959568 
" clip-path="url(#pd894ad5c6d)" style="fill: none; stroke-dasharray: 16,4,2.5,4; stroke-dashoffset: 0; stroke: #000000; stroke-width: 2.5"/>
   </g>
   <g id="line2d_25">
    <path d="M 199.991359 216 
L 367.671301 254.271853 
" clip-path="url(#pd894ad5c6d)" style="fill: none; stroke-dasharray: 16,4,2.5,4; stroke-dashoffset: 0; stroke: #000000; stroke-width: 2.5"/>
   </g>
   <g id="line2d_26">
    <path d="M 274.615954 370.959568 
L 367.671301 254.271853 
" clip-path="url(#pd894ad5c6d)" style="fill: none; stroke: #dc5e8b; stroke-width: 2.5; stroke-linecap: square"/>
   </g>
   <g id="line2d_27">
    <defs>
     <path id="m5665caa9ac" d="M 0 5 
C 1.326016 5 2.597899 4.473168 3.535534 3.535534 
C 4.473168 2.597899 5 1.326016 5 0 
C 5 -1.326016 4.473168 -2.597899 3.535534 -3.535534 
C 2.597899 -4.473168 1.326016 -5 0 -5 
C -1.326016 -5 -2.597899 -4.473168 -3.535534 -3.535534 
C -4.473168 -2.597899 -5 -1.326016 -5 0 
C -5 1.326016 -4.473168 2.597899 -3.535534 3.535534 
C -2.597899 4.473168 -1.326016 5 0 5 
z
" style="stroke: #000000; stroke-opacity: 0.8"/>
    </defs>
    <g clip-path="url(#pd894ad5c6d)">
     <use xlink:href="#m5665caa9ac" x="199.991359" y="44.007856" style="fill-opacity: 0.8; stroke: #000000; stroke-opacity: 0.8"/>
    </g>
   </g>
   <g id="line2d_28">
    <g clip-path="url(#pd894ad5c6d)">
     <use xlink:href="#m5665caa9ac" x="65.522486" y="108.764652" style="fill-opacity: 0.8; stroke: #000000; stroke-opacity: 0.8"/>
    </g>
   </g>
   <g id="line2d_29">
    <g clip-path="url(#pd894ad5c6d)">
     <use xlink:href="#m5665caa9ac" x="32.311417" y="254.271853" style="fill-opacity: 0.8; stroke: #000000; stroke-opacity: 0.8"/>
    </g>
   </g>
   <g id="line2d_30">
    <g clip-path="url(#pd894ad5c6d)">
     <use xlink:href="#m5665caa9ac" x="125.366764" y="370.959568" style="fill-opacity: 0.8; stroke: #000000; stroke-opacity: 0.8"/>
    </g>
   </g>
   <g id="line2d_31">
    <g clip-path="url(#pd894ad5c6d)">
     <use xlink:href="#m5665caa9ac" x="274.615954" y="370.959568" style="fill-opacity: 0.8; stroke: #000000; stroke-opacity: 0.8"/>
    </g>
   </g>
   <g id="line2d_32">
    <g clip-path="url(#pd894ad5c6d)">
     <use xlink:href="#m5665caa9ac" x="367.671301" y="254.271853" style="fill-opacity: 0.8; stroke: #000000; stroke-opacity: 0.8"/>
    </g>
   </g>
   <g id="line2d_33">
    <g clip-path="url(#pd894ad5c6d)">
     <use xlink:href="#m5665caa9ac" x="334.460232" y="108.764652" style="fill-opacity: 0.8; stroke: #000000; stroke-opacity: 0.8"/>
    </g>
   </g>
   <g id="line2d_34">
    <g clip-path="url(#pd894ad5c6d)">
     <use xlink:href="#m5665caa9ac" x="148.349537" y="108.764652" style="fill-opacity: 0.8; stroke: #000000; stroke-opacity: 0.8"/>
    </g>
   </g>
   <g id="line2d_35">
    <g clip-path="url(#pd894ad5c6d)">
     <use xlink:href="#m5665caa9ac" x="83.953238" y="189.515056" style="fill-opacity: 0.8; stroke: #000000; stroke-opacity: 0.8"/>
    </g>
   </g>
   <g id="line2d_36">
    <g clip-path="url(#pd894ad5c6d)">
     <use xlink:href="#m5665caa9ac" x="106.936011" y="290.209163" style="fill-opacity: 0.8; stroke: #000000; stroke-opacity: 0.8"/>
    </g>
   </g>
   <g id="line2d_37">
    <g clip-path="url(#pd894ad5c6d)">
     <use xlink:href="#m5665caa9ac" x="199.991359" y="335.022257" style="fill-opacity: 0.8; stroke: #000000; stroke-opacity: 0.8"/>
    </g>
   </g>
   <g id="line2d_38">
    <g clip-path="url(#pd894ad5c6d)">
     <use xlink:href="#m5665caa9ac" x="293.046706" y="290.209163" style="fill-opacity: 0.8; stroke: #000000; stroke-opacity: 0.8"/>
    </g>
   </g>
   <g id="line2d_39">
    <g clip-path="url(#pd894ad5c6d)">
     <use xlink:href="#m5665caa9ac" x="316.029479" y="189.515056" style="fill-opacity: 0.8; stroke: #000000; stroke-opacity: 0.8"/>
    </g>
   </g>
   <g id="line2d_40">
    <g clip-path="url(#pd894ad5c6d)">
     <use xlink:href="#m5665caa9ac" x="251.633181" y="108.764652" style="fill-opacity: 0.8; stroke: #000000; stroke-opacity: 0.8"/>
    </g>
   </g>
   <g id="patch_3">
    <path d="M 410.620035 369.229259 
Q 382.707241 320.36647 325.348561 313.133466 
" style="fill: none; opacity: 0.7; stroke: #000000; stroke-width: 2; stroke-linecap: round"/>
    <path d="M 332.785262 318.102921 
L 325.348561 313.133466 
L 333.786146 310.165779 
" style="fill: none; opacity: 0.7; stroke: #000000; stroke-width: 2; stroke-linecap: round"/>
   </g>
   <g id="text_1">
    <g id="patch_4">
     <path d="M 414.981539 404.84846 
L 424.171549 404.84846 
Q 432.171549 404.84846 432.171549 396.84846 
L 432.171549 379.135829 
Q 432.171549 371.135829 424.171549 371.135829 
L 414.981539 371.135829 
Q 406.981539 371.135829 406.981539 379.135829 
L 406.981539 396.84846 
Q 406.981539 404.84846 414.981539 404.84846 
z
" style="fill: #ffffff; stroke: #000000; stroke-width: 1.5; stroke-linejoin: miter"/>
    </g>
    <!-- $s$ -->
    <g transform="translate(414.981539 392.972826) scale(0.2 -0.2)">
     <defs>
      <path id="CMMI12-73" d="M 1459 1280 
C 1568 1261 1741 1223 1779 1216 
C 1862 1192 2150 1090 2150 783 
C 2150 586 1971 70 1229 70 
C 1094 70 614 70 486 436 
C 742 404 870 603 870 745 
C 870 880 781 950 653 950 
C 512 950 326 841 326 552 
C 326 173 710 -64 1222 -64 
C 2195 -64 2483 651 2483 984 
C 2483 1079 2483 1258 2278 1462 
C 2118 1616 1965 1648 1619 1718 
C 1446 1756 1171 1814 1171 2101 
C 1171 2229 1286 2689 1894 2689 
C 2163 2689 2426 2589 2490 2368 
C 2208 2368 2195 2125 2195 2119 
C 2195 1984 2317 1946 2374 1946 
C 2464 1946 2643 2015 2643 2281 
C 2643 2545 2400 2816 1901 2816 
C 1062 2816 838 2160 838 1899 
C 838 1414 1312 1312 1459 1280 
z
" transform="scale(0.015625)"/>
     </defs>
     <use xlink:href="#CMMI12-73" transform="scale(0.996264)"/>
    </g>
   </g>
   <g id="text_2">
    <!-- $u$ -->
    <g transform="translate(228.458073 252.846857) scale(0.2 -0.2)">
     <defs>
      <path id="CMMI12-75" d="M 2182 370 
C 2266 13 2573 -64 2726 -64 
C 2931 -64 3085 70 3187 287 
C 3296 517 3379 894 3379 913 
C 3379 945 3354 971 3315 971 
C 3258 971 3251 939 3226 843 
C 3110 402 2995 64 2739 64 
C 2547 64 2547 275 2547 358 
C 2547 505 2566 568 2630 837 
C 2675 1009 2720 1181 2758 1360 
L 3021 2401 
C 3066 2561 3066 2574 3066 2593 
C 3066 2689 2989 2753 2893 2753 
C 2707 2753 2662 2593 2624 2433 
C 2560 2184 2214 811 2170 588 
C 2163 588 1914 64 1446 64 
C 1114 64 1050 351 1050 588 
C 1050 952 1229 1462 1395 1890 
C 1472 2095 1504 2178 1504 2305 
C 1504 2580 1306 2816 998 2816 
C 410 2816 173 1890 173 1839 
C 173 1814 198 1782 243 1782 
C 301 1782 307 1807 333 1896 
C 486 2441 736 2682 979 2682 
C 1043 2682 1146 2682 1146 2478 
C 1146 2312 1075 2127 979 1884 
C 698 1124 666 881 666 690 
C 666 38 1158 -64 1421 -64 
C 1830 -64 2054 217 2182 370 
z
" transform="scale(0.015625)"/>
     </defs>
     <use xlink:href="#CMMI12-75" transform="scale(0.996264)"/>
    </g>
   </g>
   <g id="text_3">
    <!-- $v$ -->
    <g transform="translate(306.364262 314.97497) scale(0.2 -0.2)">
     <defs>
      <path id="CMMI12-76" d="M 2925 2389 
C 2925 2791 2720 2816 2669 2816 
C 2515 2816 2374 2663 2374 2535 
C 2374 2459 2419 2414 2445 2389 
C 2509 2331 2675 2159 2675 1827 
C 2675 1558 2291 64 1523 64 
C 1133 64 1056 390 1056 626 
C 1056 945 1203 1392 1376 1852 
C 1478 2114 1504 2178 1504 2305 
C 1504 2574 1312 2816 998 2816 
C 410 2816 173 1890 173 1839 
C 173 1814 198 1782 243 1782 
C 301 1782 307 1807 333 1897 
C 486 2446 736 2689 979 2689 
C 1037 2689 1146 2689 1146 2478 
C 1146 2312 1075 2127 979 1884 
C 672 1067 672 869 672 715 
C 672 575 691 313 890 134 
C 1120 -64 1440 -64 1498 -64 
C 2560 -64 2925 2024 2925 2389 
z
" transform="scale(0.015625)"/>
     </defs>
     <use xlink:href="#CMMI12-76" transform="scale(0.996264)"/>
    </g>
   </g>
  </g>
 </g>
 <defs>
  <clipPath id="pd894ad5c6d">
   <rect x="10.8" y="10.8" width="378.382718" height="410.4"/>
  </clipPath>
 </defs>
</svg>
