<?xml version="1.0" encoding="utf-8" standalone="no"?>
<!DOCTYPE svg PUBLIC "-//W3C//DTD SVG 1.1//EN"
  "http://www.w3.org/Graphics/SVG/1.1/DTD/svg11.dtd">
<svg xmlns:xlink="http://www.w3.org/1999/xlink" width="460.8pt" height="345.6pt" viewBox="0 0 460.8 345.6" xmlns="http://www.w3.org/2000/svg" version="1.1">
 <metadata>
  <rdf:RDF xmlns:dc="http://purl.org/dc/elements/1.1/" xmlns:cc="http://creativecommons.org/ns#" xmlns:rdf="http://www.w3.org/1999/02/22-rdf-syntax-ns#">
   <cc:Work>
    <dc:type rdf:resource="http://purl.org/dc/dcmitype/StillImage"/>
    <dc:date>2025-12-06T15:06:29.362653</dc:date>
    <dc:format>image/svg+xml</dc:format>
    <dc:creator>
     <cc:Agent>
      <dc:title>Matplotlib v3.9.1, https://matplotlib.org/</dc:title>
     </cc:Agent>
    </dc:creator>
   </cc:Work>
  </rdf:RDF>
 </metadata>
 <defs>
  <style type="text/css">*{stroke-linejoin: round; stroke-linecap: butt}</style>
 </defs>
 <g id="figure_1">
  <g id="patch_1">
   <path d="M 0 345.6 
L 460.8 345.6 
L 460.8 0 
L 0 0 
L 0 345.6 
z
" style="fill: none"/>
  </g>
  <g id="axes_1">
   <g id="patch_2">
    <path d="M 10.8 334.8 
L 447 334.8 
L 447 22.673214 
L 10.8 22.673214 
L 10.8 334.8 
z
" style="fill: none"/>
   </g>
   <g id="matplotlib.axis_1">
    <g id="text_1">
     <!-- $x$ -->
     <g transform="translate(432.587145 200.724709) scale(0.26 -0.26)">
      <defs>
       <path id="CMMI12-78" d="M 3034 2606 
C 2829 2567 2752 2414 2752 2293 
C 2752 2139 2874 2088 2963 2088 
C 3155 2088 3290 2254 3290 2427 
C 3290 2695 2982 2816 2714 2816 
C 2323 2816 2106 2433 2048 2312 
C 1901 2816 1504 2816 1389 2816 
C 736 2816 390 1980 390 1839 
C 390 1814 416 1782 461 1782 
C 512 1782 525 1820 538 1846 
C 755 2555 1184 2689 1370 2689 
C 1658 2689 1715 2420 1715 2267 
C 1715 2127 1677 1980 1600 1673 
L 1382 798 
C 1286 415 1101 64 762 64 
C 730 64 570 64 435 147 
C 666 192 717 383 717 460 
C 717 588 621 664 499 664 
C 346 664 179 530 179 326 
C 179 57 480 -64 755 -64 
C 1062 -64 1280 179 1414 441 
C 1517 64 1837 -64 2074 -64 
C 2726 -64 3072 773 3072 913 
C 3072 945 3046 971 3008 971 
C 2950 971 2944 939 2925 888 
C 2752 326 2381 64 2093 64 
C 1869 64 1747 230 1747 492 
C 1747 632 1773 734 1875 1156 
L 2099 2024 
C 2195 2408 2413 2689 2707 2689 
C 2720 2689 2899 2689 3034 2606 
z
" transform="scale(0.015625)"/>
      </defs>
      <use xlink:href="#CMMI12-78" transform="scale(0.996264)"/>
     </g>
    </g>
   </g>
   <g id="matplotlib.axis_2">
    <g id="text_2">
     <!-- $y$ -->
     <g transform="translate(212.53332 17.634888) scale(0.26 -0.26)">
      <defs>
       <path id="CMMI12-79" d="M 1683 -700 
C 1510 -939 1261 -1152 947 -1152 
C 870 -1152 563 -1152 467 -889 
C 486 -895 518 -895 531 -895 
C 723 -895 851 -729 851 -582 
C 851 -435 730 -384 634 -384 
C 531 -384 307 -458 307 -759 
C 307 -1071 582 -1286 947 -1286 
C 1587 -1286 2234 -700 2413 6 
L 3040 2485 
C 3046 2517 3059 2556 3059 2594 
C 3059 2689 2982 2753 2886 2753 
C 2829 2753 2694 2727 2643 2535 
L 2170 658 
C 2138 543 2138 530 2086 460 
C 1958 281 1747 64 1440 64 
C 1082 64 1050 415 1050 588 
C 1050 952 1222 1443 1395 1903 
C 1466 2088 1504 2178 1504 2305 
C 1504 2574 1312 2816 998 2816 
C 410 2816 173 1890 173 1839 
C 173 1814 198 1782 243 1782 
C 301 1782 307 1807 333 1897 
C 486 2433 730 2689 979 2689 
C 1037 2689 1146 2689 1146 2478 
C 1146 2312 1075 2127 979 1884 
C 666 1047 666 837 666 683 
C 666 77 1101 -64 1421 -64 
C 1606 -64 1837 -6 2061 230 
L 2067 224 
C 1971 -147 1907 -392 1683 -700 
z
" transform="scale(0.015625)"/>
      </defs>
      <use xlink:href="#CMMI12-79" transform="scale(0.996264)"/>
     </g>
    </g>
   </g>
   <g id="line2d_1">
    <defs>
     <path id="m0bc4a268c3" d="M 3 0 
L -3 -3 
L -3 3 
z
" style="stroke: #000000; stroke-linejoin: miter"/>
    </defs>
    <g>
     <use xlink:href="#m0bc4a268c3" x="447" y="178.736607" style="stroke: #000000; stroke-linejoin: miter"/>
    </g>
   </g>
   <g id="line2d_2">
    <defs>
     <path id="mae9467e77b" d="M 0 -3 
L -3 3 
L 3 3 
z
" style="stroke: #000000; stroke-linejoin: miter"/>
    </defs>
    <g>
     <use xlink:href="#mae9467e77b" x="228.9" y="22.673214" style="stroke: #000000; stroke-linejoin: miter"/>
    </g>
   </g>
   <g id="line2d_3">
    <path d="M 22.751234 -1 
L 29.014945 19.550502 
L 35.193114 39.063748 
L 41.264762 57.508498 
L 47.22989 74.922947 
L 53.088498 91.344618 
L 58.840586 106.810367 
L 64.486154 121.356376 
L 70.025201 135.018161 
L 75.457729 147.830566 
L 80.783736 159.827765 
L 86.003223 171.043261 
L 91.11619 181.509888 
L 96.122637 191.25981 
L 101.022564 200.324521 
L 105.815971 208.734845 
L 110.502857 216.520935 
L 115.083223 223.712274 
L 119.66359 230.490621 
L 124.137436 236.712636 
L 128.504762 242.406461 
L 132.765568 247.59957 
L 136.919853 252.318765 
L 140.967619 256.590181 
L 145.015385 260.539066 
L 148.95663 264.074121 
L 152.791355 267.22014 
L 156.626081 270.076685 
L 160.354286 272.576357 
L 163.975971 274.74261 
L 167.597656 276.650659 
L 171.112821 278.255664 
L 174.627985 279.617431 
L 178.03663 280.705639 
L 181.445275 281.565126 
L 184.853919 282.195894 
L 188.262564 282.597941 
L 191.671209 282.771268 
L 195.079853 282.715875 
L 198.488498 282.431761 
L 201.897143 281.918928 
L 205.305788 281.177374 
L 208.714432 280.207101 
L 212.123077 279.008107 
L 215.638242 277.532091 
L 219.153407 275.812837 
L 222.775092 273.787078 
L 226.396777 271.503115 
L 230.124982 268.88227 
L 233.853187 265.98781 
L 237.687912 262.725197 
L 241.522637 259.173111 
L 245.463883 255.220708 
L 249.511648 250.843197 
L 253.665934 246.015113 
L 257.82022 240.8473 
L 262.081026 235.19407 
L 266.448352 229.028621 
L 270.922198 222.32348 
L 275.502564 215.050503 
L 280.189451 207.180877 
L 284.982857 198.685118 
L 289.776264 189.737057 
L 294.67619 180.122658 
L 299.682637 169.811098 
L 304.795604 158.770883 
L 310.015092 146.96985 
L 315.341099 134.375165 
L 320.773626 120.953324 
L 326.312674 106.670153 
L 331.958242 91.490807 
L 337.71033 75.379773 
L 343.568938 58.300866 
L 349.534066 40.217232 
L 355.605714 21.091347 
L 361.783883 0.885016 
L 362.348764 -1 
L 362.348764 -1 
" clip-path="url(#p74f5d27bbe)" style="fill: none; stroke: #0072b2; stroke-width: 2.5; stroke-linecap: square"/>
   </g>
   <g id="line2d_4">
    <path d="M 184.304697 346.6 
L 427.191765 -1 
" clip-path="url(#p74f5d27bbe)" style="fill: none; stroke-dasharray: 9.25,4; stroke-dashoffset: 0; stroke: #dc5e8b; stroke-width: 2.5"/>
   </g>
   <g id="line2d_5">
    <defs>
     <path id="ma3638ad36f" d="M 0 5 
C 1.326016 5 2.597899 4.473168 3.535534 3.535534 
C 4.473168 2.597899 5 1.326016 5 0 
C 5 -1.326016 4.473168 -2.597899 3.535534 -3.535534 
C 2.597899 -4.473168 1.326016 -5 0 -5 
C -1.326016 -5 -2.597899 -4.473168 -3.535534 -3.535534 
C -4.473168 -2.597899 -5 -1.326016 -5 0 
C -5 1.326016 -4.473168 2.597899 -3.535534 3.535534 
C -2.597899 4.473168 -1.326016 5 0 5 
z
" style="stroke: #000000; stroke-opacity: 0.8"/>
    </defs>
    <g clip-path="url(#p74f5d27bbe)">
     <use xlink:href="#ma3638ad36f" x="265.25" y="230.757738" style="fill-opacity: 0.8; stroke: #000000; stroke-opacity: 0.8"/>
    </g>
   </g>
   <g id="patch_3">
    <path d="M 228.9 334.8 
L 228.9 22.673214 
" style="fill: none; stroke: #000000; stroke-width: 0.8; stroke-linejoin: miter; stroke-linecap: square"/>
   </g>
   <g id="patch_4">
    <path d="M 447 334.8 
L 447 22.673214 
" style="fill: none"/>
   </g>
   <g id="patch_5">
    <path d="M 10.8 178.736607 
L 447 178.736607 
" style="fill: none; stroke: #000000; stroke-width: 0.8; stroke-linejoin: miter; stroke-linecap: square"/>
   </g>
   <g id="patch_6">
    <path d="M 10.8 22.673214 
L 447 22.673214 
" style="fill: none"/>
   </g>
   <g id="text_3">
    <!-- $(x_0, f(x_0))$ -->
    <g transform="translate(271.793 237.232633) scale(0.26 -0.26)">
     <defs>
      <path id="CMR17-28" d="M 1958 -1561 
C 1958 -1555 1958 -1542 1939 -1523 
C 1645 -1224 858 -407 858 1581 
C 858 3569 1632 4379 1946 4697 
C 1946 4704 1958 4717 1958 4736 
C 1958 4755 1939 4768 1914 4768 
C 1843 4768 1299 4296 986 3594 
C 666 2887 576 2199 576 1588 
C 576 1128 621 351 1005 -471 
C 1312 -1135 1837 -1600 1914 -1600 
C 1946 -1600 1958 -1587 1958 -1561 
z
" transform="scale(0.015625)"/>
      <path id="CMR17-30" d="M 2688 2025 
C 2688 2416 2682 3080 2413 3591 
C 2176 4039 1798 4198 1466 4198 
C 1158 4198 768 4058 525 3597 
C 269 3118 243 2524 243 2025 
C 243 1661 250 1106 448 619 
C 723 -39 1216 -128 1466 -128 
C 1760 -128 2208 -7 2470 600 
C 2662 1042 2688 1559 2688 2025 
z
M 1466 -26 
C 1056 -26 813 325 723 812 
C 653 1188 653 1738 653 2096 
C 653 2588 653 2997 736 3387 
C 858 3929 1216 4096 1466 4096 
C 1728 4096 2067 3923 2189 3400 
C 2272 3036 2278 2607 2278 2096 
C 2278 1680 2278 1169 2202 792 
C 2067 95 1690 -26 1466 -26 
z
" transform="scale(0.015625)"/>
      <path id="CMMI12-3b" d="M 1248 -31 
C 1248 343 1126 619 864 619 
C 659 619 557 453 557 313 
C 557 172 653 0 870 0 
C 954 0 1024 26 1082 83 
C 1094 96 1101 96 1107 96 
C 1120 96 1120 5 1120 -27 
C 1120 -240 1082 -659 710 -1080 
C 640 -1157 640 -1170 640 -1183 
C 640 -1216 672 -1248 704 -1248 
C 755 -1248 1248 -771 1248 -31 
z
" transform="scale(0.015625)"/>
      <path id="CMMI12-66" d="M 2854 2566 
C 2982 2566 3034 2566 3034 2688 
C 3034 2752 2982 2752 2867 2752 
L 2349 2752 
C 2470 3429 2560 3897 2611 4107 
C 2650 4265 2784 4416 2950 4416 
C 3085 4416 3219 4358 3283 4298 
C 3034 4272 2957 4082 2957 3969 
C 2957 3837 3053 3759 3174 3759 
C 3302 3759 3494 3870 3494 4119 
C 3494 4393 3226 4544 2944 4544 
C 2669 4544 2400 4334 2272 4078 
C 2157 3848 2093 3611 1946 2752 
L 1517 2752 
C 1395 2752 1331 2752 1331 2637 
C 1331 2566 1370 2566 1498 2566 
L 1907 2566 
C 1792 1976 1530 542 1382 -137 
C 1274 -689 1178 -1152 858 -1152 
C 838 -1152 653 -1152 538 -1031 
C 864 -1005 864 -726 864 -720 
C 864 -593 768 -517 646 -517 
C 518 -517 326 -625 326 -867 
C 326 -1140 608 -1280 858 -1280 
C 1510 -1280 1779 -118 1850 199 
C 1965 688 2278 2376 2310 2566 
L 2854 2566 
z
" transform="scale(0.015625)"/>
      <path id="CMR17-29" d="M 1683 1581 
C 1683 2040 1638 2817 1254 3639 
C 947 4303 422 4768 346 4768 
C 326 4768 301 4761 301 4729 
C 301 4717 307 4710 314 4697 
C 621 4378 1402 3568 1402 1584 
C 1402 -407 627 -1217 314 -1537 
C 307 -1549 301 -1556 301 -1568 
C 301 -1600 326 -1600 346 -1600 
C 416 -1600 960 -1128 1274 -426 
C 1594 281 1683 969 1683 1581 
z
" transform="scale(0.015625)"/>
     </defs>
     <use xlink:href="#CMR17-28" transform="scale(0.996264)"/>
     <use xlink:href="#CMMI12-78" transform="translate(35.280768 0) scale(0.996264)"/>
     <use xlink:href="#CMR17-30" transform="translate(90.714827 -14.943915) scale(0.697382)"/>
     <use xlink:href="#CMMI12-3b" transform="translate(123.196141 0) scale(0.996264)"/>
     <use xlink:href="#CMMI12-66" transform="translate(166.897724 0) scale(0.996264)"/>
     <use xlink:href="#CMR17-28" transform="translate(225.618028 0) scale(0.996264)"/>
     <use xlink:href="#CMMI12-78" transform="translate(260.898796 0) scale(0.996264)"/>
     <use xlink:href="#CMR17-30" transform="translate(316.332856 -14.943915) scale(0.697382)"/>
     <use xlink:href="#CMR17-29" transform="translate(348.81417 0) scale(0.996264)"/>
     <use xlink:href="#CMR17-29" transform="translate(384.094938 0) scale(0.996264)"/>
    </g>
   </g>
   <g id="legend_1">
    <g id="patch_7">
     <path d="M 29 321.8 
L 124.701642 321.8 
Q 129.901642 321.8 129.901642 316.6 
L 129.901642 282.961673 
Q 129.901642 277.761673 124.701642 277.761673 
L 29 277.761673 
Q 23.8 277.761673 23.8 282.961673 
L 23.8 316.6 
Q 23.8 321.8 29 321.8 
z
" style="fill: #ffffff; opacity: 0.8; stroke: #cccccc; stroke-linejoin: miter"/>
    </g>
    <g id="line2d_6">
     <path d="M 34.2 297.261673 
L 60.2 297.261673 
L 86.2 297.261673 
" style="fill: none; stroke: #0072b2; stroke-width: 2.5; stroke-linecap: square"/>
    </g>
    <g id="text_4">
     <!-- $f$ -->
     <g transform="translate(107 306.361673) scale(0.26 -0.26)">
      <use xlink:href="#CMMI12-66" transform="scale(0.996264)"/>
     </g>
    </g>
   </g>
  </g>
 </g>
 <defs>
  <clipPath id="p74f5d27bbe">
   <rect x="10.8" y="22.673214" width="436.2" height="312.126786"/>
  </clipPath>
 </defs>
</svg>
