<?xml version="1.0" encoding="utf-8" standalone="no"?>
<!DOCTYPE svg PUBLIC "-//W3C//DTD SVG 1.1//EN"
  "http://www.w3.org/Graphics/SVG/1.1/DTD/svg11.dtd">
<svg xmlns:xlink="http://www.w3.org/1999/xlink" width="432pt" height="432pt" viewBox="0 0 432 432" xmlns="http://www.w3.org/2000/svg" version="1.1">
 <metadata>
  <rdf:RDF xmlns:dc="http://purl.org/dc/elements/1.1/" xmlns:cc="http://creativecommons.org/ns#" xmlns:rdf="http://www.w3.org/1999/02/22-rdf-syntax-ns#">
   <cc:Work>
    <dc:type rdf:resource="http://purl.org/dc/dcmitype/StillImage"/>
    <dc:date>2026-05-12T19:19:08.411958</dc:date>
    <dc:format>image/svg+xml</dc:format>
    <dc:creator>
     <cc:Agent>
      <dc:title>Matplotlib v3.10.8, https://matplotlib.org/</dc:title>
     </cc:Agent>
    </dc:creator>
   </cc:Work>
  </rdf:RDF>
 </metadata>
 <defs>
  <style type="text/css">*{stroke-linejoin: round; stroke-linecap: butt}</style>
 </defs>
 <g id="figure_1">
  <g id="patch_1">
   <path d="M 0 432 
L 432 432 
L 432 0 
L 0 0 
L 0 432 
z
" style="fill: none"/>
  </g>
  <g id="axes_1">
   <g id="patch_2">
    <path d="M 376.93439 390.345589 
C 384.047773 390.345589 390.870769 387.519412 395.90069 382.489491 
C 400.930612 377.459569 403.756789 370.636574 403.756789 363.523191 
C 403.756789 356.409808 400.930612 349.586813 395.90069 344.556891 
C 390.870769 339.52697 384.047773 336.700793 376.93439 336.700793 
C 369.821007 336.700793 362.998012 339.52697 357.968091 344.556891 
C 352.938169 349.586813 350.111992 356.409808 350.111992 363.523191 
C 350.111992 370.636574 352.938169 377.459569 357.968091 382.489491 
C 362.998012 387.519412 369.821007 390.345589 376.93439 390.345589 
z
" clip-path="url(#pa69f704f09)" style="fill: #dc5e8b; fill-opacity: 0.2; stroke: #dc5e8b; stroke-width: 2.5; stroke-linejoin: miter"/>
   </g>
   <g id="patch_3">
    <path d="M 323.289594 390.345589 
C 330.402977 390.345589 337.225972 387.519412 342.255893 382.489491 
C 347.285815 377.459569 350.111992 370.636574 350.111992 363.523191 
C 350.111992 356.409808 347.285815 349.586813 342.255893 344.556891 
C 337.225972 339.52697 330.402977 336.700793 323.289594 336.700793 
C 316.17621 336.700793 309.353215 339.52697 304.323294 344.556891 
C 299.293372 349.586813 296.467195 356.409808 296.467195 363.523191 
C 296.467195 370.636574 299.293372 377.459569 304.323294 382.489491 
C 309.353215 387.519412 316.17621 390.345589 323.289594 390.345589 
z
" clip-path="url(#pa69f704f09)" style="fill: #0072b2; fill-opacity: 0.2; stroke: #0072b2; stroke-width: 2.5; stroke-linejoin: miter"/>
   </g>
   <g id="patch_4">
    <path d="M 55.06561 95.299207 
C 62.178993 95.299207 69.001988 92.47303 74.031909 87.443109 
C 79.061831 82.413187 81.888008 75.590192 81.888008 68.476809 
C 81.888008 61.363426 79.061831 54.540431 74.031909 49.510509 
C 69.001988 44.480588 62.178993 41.654411 55.06561 41.654411 
C 47.952227 41.654411 41.129231 44.480588 36.09931 49.510509 
C 31.069388 54.540431 28.243211 61.363426 28.243211 68.476809 
C 28.243211 75.590192 31.069388 82.413187 36.09931 87.443109 
C 41.129231 92.47303 47.952227 95.299207 55.06561 95.299207 
z
" clip-path="url(#pa69f704f09)" style="fill: #0072b2; fill-opacity: 0.2; stroke-dasharray: 9.25,4; stroke-dashoffset: 0; stroke: #0072b2; stroke-width: 2.5; stroke-linejoin: miter"/>
   </g>
   <g id="line2d_1">
    <path d="M 55.433201 109.336966 
L 55.945519 117.007529 
L 56.677452 124.660259 
L 57.628399 132.28887 
L 58.797579 139.887095 
L 60.184032 147.448692 
L 61.786618 154.96745 
L 63.604021 162.437193 
L 65.634749 169.851783 
L 67.877133 177.20513 
L 70.32933 184.491195 
L 72.989327 191.70399 
L 75.854939 198.837592 
L 78.923811 205.88614 
L 82.193422 212.843844 
L 85.661087 219.704989 
L 89.323957 226.463938 
L 93.179023 233.115138 
L 97.223118 239.653127 
L 101.45292 246.072534 
L 105.864955 252.368084 
L 110.455598 258.534607 
L 115.221077 264.567037 
L 120.157479 270.460418 
L 125.260748 276.209909 
L 130.526692 281.810787 
L 135.950986 287.258452 
L 141.529172 292.548427 
L 147.25667 297.676368 
L 153.128773 302.638062 
L 159.140659 307.429433 
L 165.287388 312.046545 
L 171.563911 316.485606 
L 177.965073 320.742968 
L 184.485615 324.815135 
L 191.12018 328.698761 
L 197.863318 332.390656 
L 204.709491 335.887787 
L 211.653073 339.187282 
L 218.688362 342.286429 
L 225.809578 345.182684 
L 233.01087 347.873667 
L 240.286324 350.357167 
L 247.629963 352.631144 
L 255.035754 354.693731 
L 262.497614 356.543233 
L 270.009412 358.17813 
L 277.564979 359.597079 
L 285.158107 360.798916 
L 290.601313 361.52389 
L 290.601313 361.52389 
" clip-path="url(#pa69f704f09)" style="fill: none; stroke-dasharray: 6.4,1.6,1,1.6; stroke-dashoffset: 0; stroke: #808080"/>
   </g>
   <g id="line2d_2">
    <path d="M 376.93439 68.476809 
L 376.93439 336.700793 
" clip-path="url(#pa69f704f09)" style="fill: none; stroke: #808080; stroke-width: 2.5; stroke-linecap: square"/>
   </g>
   <g id="line2d_3">
    <path d="M 323.289594 68.476809 
L 323.289594 336.700793 
" clip-path="url(#pa69f704f09)" style="fill: none; stroke: #808080; stroke-width: 2.5; stroke-linecap: square"/>
   </g>
   <g id="line2d_4">
    <path d="M 323.289594 68.476809 
L 81.888008 68.476809 
" clip-path="url(#pa69f704f09)" style="fill: none; stroke-dasharray: 9.25,4; stroke-dashoffset: 0; stroke: #808080; stroke-width: 2.5"/>
   </g>
  </g>
 </g>
 <defs>
  <clipPath id="pa69f704f09">
   <rect x="10.8" y="10.8" width="410.4" height="410.4"/>
  </clipPath>
 </defs>
</svg>
