<?xml version="1.0" encoding="utf-8" standalone="no"?>
<!DOCTYPE svg PUBLIC "-//W3C//DTD SVG 1.1//EN"
  "http://www.w3.org/Graphics/SVG/1.1/DTD/svg11.dtd">
<svg xmlns:xlink="http://www.w3.org/1999/xlink" width="432pt" height="432pt" viewBox="0 0 432 432" xmlns="http://www.w3.org/2000/svg" version="1.1">
 <metadata>
  <rdf:RDF xmlns:dc="http://purl.org/dc/elements/1.1/" xmlns:cc="http://creativecommons.org/ns#" xmlns:rdf="http://www.w3.org/1999/02/22-rdf-syntax-ns#">
   <cc:Work>
    <dc:type rdf:resource="http://purl.org/dc/dcmitype/StillImage"/>
    <dc:date>2026-03-23T20:06:42.578131</dc:date>
    <dc:format>image/svg+xml</dc:format>
    <dc:creator>
     <cc:Agent>
      <dc:title>Matplotlib v3.10.8, https://matplotlib.org/</dc:title>
     </cc:Agent>
    </dc:creator>
   </cc:Work>
  </rdf:RDF>
 </metadata>
 <defs>
  <style type="text/css">*{stroke-linejoin: round; stroke-linecap: butt}</style>
 </defs>
 <g id="figure_1">
  <g id="patch_1">
   <path d="M 0 432 
L 432 432 
L 432 0 
L 0 0 
L 0 432 
z
" style="fill: none"/>
  </g>
  <g id="axes_1">
   <g id="line2d_1">
    <path d="M 44.593995 395.628144 
L 346.403502 395.628144 
" clip-path="url(#pdc5649b98e)" style="fill: none; stroke: #0072b2; stroke-width: 2.5; stroke-linecap: square"/>
   </g>
   <g id="line2d_2">
    <path d="M 346.403502 395.628144 
L 400.27991 39.942229 
" clip-path="url(#pdc5649b98e)" style="fill: none; stroke: #0072b2; stroke-width: 2.5; stroke-linecap: square"/>
   </g>
   <g id="line2d_3">
    <path d="M 400.27991 39.942229 
L 44.593995 395.628144 
" clip-path="url(#pdc5649b98e)" style="fill: none; stroke: #0072b2; stroke-width: 2.5; stroke-linecap: square"/>
   </g>
   <g id="line2d_4">
    <path d="M 91.325789 395.628144 
L 91.319585 394.861737 
L 91.300974 394.095533 
L 91.269962 393.329736 
L 91.226556 392.564549 
L 91.170767 391.800176 
L 91.102612 391.036819 
L 91.022108 390.274682 
L 90.929276 389.513966 
L 90.824141 388.754873 
L 90.70673 387.997605 
L 90.577076 387.242363 
L 90.435212 386.489348 
L 90.281176 385.73876 
L 90.11501 384.990797 
L 89.936756 384.245659 
L 89.746463 383.503543 
L 89.544181 382.764647 
L 89.329964 382.029166 
L 89.103868 381.297296 
L 88.865954 380.569231 
L 88.616285 379.845164 
L 88.354927 379.125288 
L 88.081949 378.409795 
L 87.797424 377.698873 
L 87.501428 376.992711 
L 87.194039 376.291498 
L 86.875339 375.595419 
L 86.545412 374.904659 
L 86.204346 374.219402 
L 85.852231 373.539829 
L 85.489162 372.866121 
L 85.115234 372.198457 
L 84.730546 371.537014 
L 84.335202 370.881968 
L 83.929305 370.233493 
L 83.512964 369.59176 
L 83.086289 368.956941 
L 82.649393 368.329203 
L 82.202393 367.708714 
L 81.745407 367.095638 
L 81.278556 366.490138 
L 80.801965 365.892375 
L 80.31576 365.302508 
L 79.82007 364.720692 
L 79.315027 364.147084 
L 78.800764 363.581834 
L 78.277419 363.025093 
L 77.74513 362.477009 
" clip-path="url(#pdc5649b98e)" style="fill: none; stroke: #dc5e8b; stroke-width: 2; stroke-linecap: square"/>
   </g>
   <g id="line2d_5">
    <path d="M 299.671707 395.628144 
L 299.701779 393.941031 
L 299.791957 392.25609 
L 299.942124 390.575489 
L 300.152087 388.90139 
L 300.421576 387.235949 
L 300.750244 385.581308 
L 301.137668 383.939598 
L 301.58335 382.312932 
L 302.086715 380.703401 
L 302.647117 379.11308 
L 303.263833 377.544013 
L 303.93607 375.998221 
L 304.662963 374.477692 
L 305.443577 372.984384 
L 306.276906 371.520219 
L 307.161879 370.087081 
L 308.097356 368.686815 
L 309.082133 367.321222 
L 310.114943 365.992061 
L 311.194457 364.701041 
L 312.319285 363.449825 
L 313.487979 362.240022 
L 314.699036 361.07319 
L 315.950897 359.950831 
L 317.241951 358.874389 
L 318.570536 357.845249 
L 319.934942 356.864736 
L 321.333413 355.934111 
L 322.76415 355.054573 
L 324.225311 354.227254 
L 325.715015 353.453218 
L 327.231345 352.733461 
L 328.77235 352.06891 
L 330.336047 351.460421 
L 331.920423 350.908775 
L 333.523438 350.414684 
L 335.14303 349.978782 
L 336.777114 349.601632 
L 338.423588 349.283718 
L 340.080332 349.02545 
L 341.745214 348.827159 
L 343.416091 348.689102 
L 345.090812 348.611456 
L 346.767224 348.594321 
L 348.443167 348.637718 
L 350.116485 348.741593 
L 351.785025 348.905811 
L 353.446638 349.130161 
" clip-path="url(#pdc5649b98e)" style="fill: none; stroke: #dc5e8b; stroke-width: 2; stroke-linecap: square"/>
   </g>
   <g id="line2d_6">
    <path d="M 367.128775 73.093364 
L 367.569025 73.533468 
L 368.015042 73.967649 
L 368.466748 74.395832 
L 368.924063 74.81794 
L 369.386905 75.2339 
L 369.855194 75.643638 
L 370.328847 76.047081 
L 370.807781 76.444159 
L 371.29191 76.834802 
L 371.78115 77.21894 
L 372.275415 77.596507 
L 372.774617 77.967435 
L 373.278668 78.331659 
L 373.787479 78.689115 
L 374.300962 79.039739 
L 374.819024 79.383471 
L 375.341575 79.720249 
L 375.868523 80.050014 
L 376.399774 80.372708 
L 376.935236 80.688274 
L 377.474814 80.996656 
L 378.018412 81.297801 
L 378.565935 81.591654 
L 379.117286 81.878164 
L 379.672368 82.157281 
L 380.231083 82.428955 
L 380.793333 82.693139 
L 381.359018 82.949786 
L 381.92804 83.19885 
L 382.500296 83.440288 
L 383.075688 83.674058 
L 383.654112 83.900117 
L 384.235468 84.118426 
L 384.819652 84.328947 
L 385.406562 84.531643 
L 385.996095 84.726477 
L 386.588145 84.913415 
L 387.182609 85.092425 
L 387.779383 85.263475 
L 388.37836 85.426535 
L 388.979436 85.581576 
L 389.582504 85.72857 
L 390.187458 85.867492 
L 390.794191 85.998318 
L 391.402597 86.121023 
L 392.012567 86.235588 
L 392.623996 86.34199 
L 393.236774 86.440212 
" clip-path="url(#pdc5649b98e)" style="fill: none; stroke: #dc5e8b; stroke-width: 2; stroke-linecap: square"/>
   </g>
   <g id="text_1">
    <!-- $A$ -->
    <g transform="translate(9.210203 412.06361) scale(0.18 -0.18)">
     <defs>
      <path id="CMMI12-41" d="M 1088 691 
C 864 314 646 186 339 186 
C 269 180 218 180 218 58 
C 218 24 250 0 294 0 
C 410 0 698 0 813 0 
C 998 0 1203 0 1382 0 
C 1421 0 1498 0 1498 122 
C 1498 180 1446 186 1408 186 
C 1261 186 1139 236 1139 388 
C 1139 476 1178 546 1261 685 
L 1747 1479 
L 3379 1479 
C 3386 1423 3386 1373 3392 1316 
C 3411 1152 3488 495 3488 376 
C 3488 186 3162 186 3059 186 
C 2989 186 2918 186 2918 70 
C 2918 0 2976 0 3014 0 
C 3123 0 3251 0 3360 0 
L 3725 0 
C 4115 0 4397 0 4403 0 
C 4448 0 4518 0 4518 122 
C 4518 186 4461 186 4365 186 
C 4013 186 4006 244 3987 434 
L 3597 4404 
C 3584 4531 3558 4544 3488 4544 
C 3424 4544 3386 4531 3328 4435 
L 1088 691 
z
M 1856 1664 
L 3142 3819 
L 3360 1664 
L 1856 1664 
z
" transform="scale(0.015625)"/>
     </defs>
     <use xlink:href="#CMMI12-41" transform="scale(0.996264)"/>
    </g>
   </g>
   <g id="text_2">
    <!-- $B$ -->
    <g transform="translate(360.035517 423.895637) scale(0.18 -0.18)">
     <defs>
      <path id="CMMI12-42" d="M 2342 3921 
C 2400 4160 2426 4160 2675 4160 
L 3507 4160 
C 4230 4160 4230 3544 4230 3485 
C 4230 2966 3712 2304 2867 2304 
L 1946 2304 
L 2342 3921 
z
M 3424 2275 
C 4122 2402 4755 2886 4755 3473 
C 4755 3970 4314 4352 3590 4352 
L 1536 4352 
C 1414 4352 1357 4352 1357 4226 
C 1357 4160 1414 4160 1510 4160 
C 1901 4160 1901 4112 1901 4044 
C 1901 4032 1901 3993 1875 3897 
L 1011 472 
C 954 249 941 185 493 185 
C 371 185 307 185 307 70 
C 307 0 346 0 474 0 
L 2669 0 
C 3648 0 4403 739 4403 1383 
C 4403 1906 3942 2224 3424 2275 
z
M 2515 185 
L 1651 185 
C 1562 185 1549 185 1510 192 
C 1440 198 1434 211 1434 261 
C 1434 305 1446 343 1459 399 
L 1907 2176 
L 3110 2176 
C 3866 2176 3866 1483 3866 1433 
C 3866 828 3309 185 2515 185 
z
" transform="scale(0.015625)"/>
     </defs>
     <use xlink:href="#CMMI12-42" transform="scale(0.996264)"/>
    </g>
   </g>
   <g id="text_3">
    <!-- $C$ -->
    <g transform="translate(408.107048 16.467557) scale(0.18 -0.18)">
     <defs>
      <path id="CMMI12-43" d="M 4781 4423 
C 4781 4480 4736 4480 4723 4480 
C 4710 4480 4685 4480 4634 4416 
L 4192 3882 
C 3968 4264 3616 4480 3136 4480 
C 1754 4480 320 3088 320 1595 
C 320 533 1069 -128 2003 -128 
C 2515 -128 2963 88 3334 400 
C 3891 863 4058 1481 4058 1531 
C 4058 1588 4006 1588 3987 1588 
C 3930 1588 3923 1550 3910 1524 
C 3616 534 2752 57 2112 57 
C 1434 57 845 489 845 1391 
C 845 1595 909 2700 1632 3532 
C 1984 3939 2586 4295 3194 4295 
C 3898 4295 4211 3717 4211 3068 
C 4211 2903 4192 2764 4192 2738 
C 4192 2681 4256 2681 4275 2681 
C 4346 2681 4352 2687 4378 2801 
L 4781 4423 
z
" transform="scale(0.015625)"/>
     </defs>
     <use xlink:href="#CMMI12-43" transform="scale(0.996264)"/>
    </g>
   </g>
   <g id="text_4">
    <!-- $45^\circ$ -->
    <g transform="translate(100.436818 372.220784) scale(0.18 -0.18)">
     <defs>
      <path id="CMR17-34" d="M 2150 4122 
C 2150 4256 2144 4256 2029 4256 
L 128 1254 
L 128 1088 
L 1779 1088 
L 1779 457 
C 1779 224 1766 160 1318 160 
L 1197 160 
L 1197 0 
C 1402 0 1747 0 1965 0 
C 2182 0 2528 0 2733 0 
L 2733 160 
L 2611 160 
C 2163 160 2150 224 2150 457 
L 2150 1088 
L 2803 1088 
L 2803 1254 
L 2150 1254 
L 2150 4122 
z
M 1798 3703 
L 1798 1254 
L 256 1254 
L 1798 3703 
z
" transform="scale(0.015625)"/>
      <path id="CMR17-35" d="M 730 3692 
C 794 3666 1056 3584 1325 3584 
C 1920 3584 2246 3911 2432 4100 
C 2432 4157 2432 4192 2394 4192 
C 2387 4192 2374 4192 2323 4163 
C 2099 4058 1837 3973 1517 3973 
C 1325 3973 1037 3999 723 4139 
C 653 4171 640 4171 634 4171 
C 602 4171 595 4164 595 4037 
L 595 2203 
C 595 2089 595 2057 659 2057 
C 691 2057 704 2070 736 2114 
C 941 2401 1222 2522 1542 2522 
C 1766 2522 2246 2382 2246 1289 
C 2246 1085 2246 715 2054 421 
C 1894 159 1645 25 1370 25 
C 947 25 518 320 403 814 
C 429 807 480 795 506 795 
C 589 795 749 840 749 1038 
C 749 1210 627 1280 506 1280 
C 358 1280 262 1190 262 1011 
C 262 454 704 -128 1382 -128 
C 2042 -128 2669 440 2669 1264 
C 2669 2030 2170 2624 1549 2624 
C 1222 2624 947 2503 730 2274 
L 730 3692 
z
" transform="scale(0.015625)"/>
      <path id="CMSY10-e" d="M 2842 1600 
C 2842 2277 2272 2828 1600 2828 
C 909 2828 352 2264 352 1600 
C 352 930 909 372 1600 372 
C 2272 372 2842 923 2842 1600 
z
M 1600 628 
C 1043 628 608 1070 608 1600 
C 608 2130 1050 2572 1600 2572 
C 2131 2572 2586 2142 2586 1600 
C 2586 1058 2131 628 1600 628 
z
" transform="scale(0.015625)"/>
     </defs>
     <use xlink:href="#CMR17-34" transform="scale(0.996264)"/>
     <use xlink:href="#CMR17-35" transform="translate(45.690477 0) scale(0.996264)"/>
     <use xlink:href="#CMSY10-e" transform="translate(91.380954 36.153639) scale(0.697382)"/>
    </g>
   </g>
   <g id="text_5">
    <!-- $98.61^\circ$ -->
    <g transform="translate(277.00724 344.612719) scale(0.18 -0.18)">
     <defs>
      <path id="CMR17-39" d="M 2253 1864 
C 2253 464 1670 31 1190 31 
C 1043 31 685 31 538 294 
C 704 268 826 357 826 518 
C 826 692 685 749 595 749 
C 538 749 365 723 365 506 
C 365 71 742 -128 1203 -128 
C 1939 -128 2688 674 2688 2073 
C 2688 3817 1971 4179 1485 4179 
C 851 4179 243 3628 243 2778 
C 243 1991 762 1408 1414 1408 
C 1952 1408 2189 1903 2253 2112 
L 2253 1864 
z
M 1427 1510 
C 1254 1510 1011 1542 813 1922 
C 678 2169 678 2461 678 2771 
C 678 3146 678 3405 858 3684 
C 947 3817 1114 4032 1485 4032 
C 2240 4032 2240 2885 2240 2632 
C 2240 2182 2035 1510 1427 1510 
z
" transform="scale(0.015625)"/>
      <path id="CMR17-38" d="M 1741 2264 
C 2144 2467 2554 2773 2554 3263 
C 2554 3841 1990 4179 1472 4179 
C 890 4179 378 3759 378 3180 
C 378 3021 416 2747 666 2505 
C 730 2442 998 2251 1171 2130 
C 883 1983 211 1634 211 934 
C 211 279 838 -128 1459 -128 
C 2144 -128 2720 362 2720 1010 
C 2720 1590 2330 1857 2074 2029 
L 1741 2264 
z
M 902 2822 
C 851 2854 595 3051 595 3351 
C 595 3739 998 4032 1459 4032 
C 1965 4032 2336 3676 2336 3262 
C 2336 2669 1670 2331 1638 2331 
C 1632 2331 1626 2331 1574 2370 
L 902 2822 
z
M 2080 1519 
C 2176 1449 2483 1240 2483 851 
C 2483 381 2010 25 1472 25 
C 890 25 448 438 448 940 
C 448 1443 838 1862 1280 2060 
L 2080 1519 
z
" transform="scale(0.015625)"/>
      <path id="CMMI12-3a" d="M 1178 307 
C 1178 492 1024 619 870 619 
C 685 619 557 466 557 313 
C 557 128 710 0 864 0 
C 1050 0 1178 153 1178 307 
z
" transform="scale(0.015625)"/>
      <path id="CMR17-36" d="M 678 2176 
C 678 3690 1395 4032 1811 4032 
C 1946 4032 2272 4009 2400 3776 
C 2298 3776 2106 3776 2106 3553 
C 2106 3381 2246 3323 2336 3323 
C 2394 3323 2566 3348 2566 3560 
C 2566 3954 2246 4179 1805 4179 
C 1043 4179 243 3390 243 1984 
C 243 253 966 -128 1478 -128 
C 2099 -128 2688 427 2688 1283 
C 2688 2081 2170 2662 1517 2662 
C 1126 2662 838 2407 678 1960 
L 678 2176 
z
M 1478 25 
C 691 25 691 1200 691 1436 
C 691 1896 909 2560 1504 2560 
C 1613 2560 1926 2560 2138 2120 
C 2253 1870 2253 1609 2253 1289 
C 2253 944 2253 690 2118 434 
C 1978 171 1773 25 1478 25 
z
" transform="scale(0.015625)"/>
      <path id="CMR17-31" d="M 1702 4058 
C 1702 4192 1696 4192 1606 4192 
C 1357 3916 979 3827 621 3827 
C 602 3827 570 3827 563 3808 
C 557 3795 557 3782 557 3648 
C 755 3648 1088 3686 1344 3839 
L 1344 461 
C 1344 236 1331 160 781 160 
L 589 160 
L 589 0 
C 896 0 1216 0 1523 0 
C 1830 0 2150 0 2458 0 
L 2458 160 
L 2266 160 
C 1715 160 1702 230 1702 458 
L 1702 4058 
z
" transform="scale(0.015625)"/>
     </defs>
     <use xlink:href="#CMR17-39" transform="scale(0.996264)"/>
     <use xlink:href="#CMR17-38" transform="translate(45.690477 0) scale(0.996264)"/>
     <use xlink:href="#CMMI12-3a" transform="translate(91.380954 0) scale(0.996264)"/>
     <use xlink:href="#CMR17-36" transform="translate(118.478131 0) scale(0.996264)"/>
     <use xlink:href="#CMR17-31" transform="translate(164.168608 0) scale(0.996264)"/>
     <use xlink:href="#CMSY10-e" transform="translate(209.859086 36.153639) scale(0.697382)"/>
    </g>
   </g>
  </g>
 </g>
 <defs>
  <clipPath id="pdc5649b98e">
   <rect x="26.809699" y="28.555805" width="391.254507" height="378.458763"/>
  </clipPath>
 </defs>
</svg>
