<?xml version="1.0" encoding="utf-8" standalone="no"?>
<!DOCTYPE svg PUBLIC "-//W3C//DTD SVG 1.1//EN"
  "http://www.w3.org/Graphics/SVG/1.1/DTD/svg11.dtd">
<svg xmlns:xlink="http://www.w3.org/1999/xlink" width="460.8pt" height="345.6pt" viewBox="0 0 460.8 345.6" xmlns="http://www.w3.org/2000/svg" version="1.1">
 <metadata>
  <rdf:RDF xmlns:dc="http://purl.org/dc/elements/1.1/" xmlns:cc="http://creativecommons.org/ns#" xmlns:rdf="http://www.w3.org/1999/02/22-rdf-syntax-ns#">
   <cc:Work>
    <dc:type rdf:resource="http://purl.org/dc/dcmitype/StillImage"/>
    <dc:date>2026-02-19T15:59:36.238462</dc:date>
    <dc:format>image/svg+xml</dc:format>
    <dc:creator>
     <cc:Agent>
      <dc:title>Matplotlib v3.9.1, https://matplotlib.org/</dc:title>
     </cc:Agent>
    </dc:creator>
   </cc:Work>
  </rdf:RDF>
 </metadata>
 <defs>
  <style type="text/css">*{stroke-linejoin: round; stroke-linecap: butt}</style>
 </defs>
 <g id="figure_1">
  <g id="patch_1">
   <path d="M 0 345.6 
L 460.8 345.6 
L 460.8 0 
L 0 0 
L 0 345.6 
z
" style="fill: none"/>
  </g>
  <g id="axes_1">
   <g id="patch_2">
    <path d="M 10.8 334.8 
L 447 334.8 
L 447 22.230394 
L 10.8 22.230394 
L 10.8 334.8 
z
" style="fill: none"/>
   </g>
   <g id="matplotlib.axis_1">
    <g id="text_1">
     <!-- $x$ -->
     <g transform="translate(433.141493 199.811451) scale(0.25 -0.25)">
      <defs>
       <path id="CMMI12-78" d="M 3034 2606 
C 2829 2567 2752 2414 2752 2293 
C 2752 2139 2874 2088 2963 2088 
C 3155 2088 3290 2254 3290 2427 
C 3290 2695 2982 2816 2714 2816 
C 2323 2816 2106 2433 2048 2312 
C 1901 2816 1504 2816 1389 2816 
C 736 2816 390 1980 390 1839 
C 390 1814 416 1782 461 1782 
C 512 1782 525 1820 538 1846 
C 755 2555 1184 2689 1370 2689 
C 1658 2689 1715 2420 1715 2267 
C 1715 2127 1677 1980 1600 1673 
L 1382 798 
C 1286 415 1101 64 762 64 
C 730 64 570 64 435 147 
C 666 192 717 383 717 460 
C 717 588 621 664 499 664 
C 346 664 179 530 179 326 
C 179 57 480 -64 755 -64 
C 1062 -64 1280 179 1414 441 
C 1517 64 1837 -64 2074 -64 
C 2726 -64 3072 773 3072 913 
C 3072 945 3046 971 3008 971 
C 2950 971 2944 939 2925 888 
C 2752 326 2381 64 2093 64 
C 1869 64 1747 230 1747 492 
C 1747 632 1773 734 1875 1156 
L 2099 2024 
C 2195 2408 2413 2689 2707 2689 
C 2720 2689 2899 2689 3034 2606 
z
" transform="scale(0.015625)"/>
      </defs>
      <use xlink:href="#CMMI12-78" transform="scale(0.996264)"/>
     </g>
    </g>
   </g>
   <g id="matplotlib.axis_2">
    <g id="text_2">
     <!-- $y$ -->
     <g transform="translate(213.008953 17.38586) scale(0.25 -0.25)">
      <defs>
       <path id="CMMI12-79" d="M 1683 -700 
C 1510 -939 1261 -1152 947 -1152 
C 870 -1152 563 -1152 467 -889 
C 486 -895 518 -895 531 -895 
C 723 -895 851 -729 851 -582 
C 851 -435 730 -384 634 -384 
C 531 -384 307 -458 307 -759 
C 307 -1071 582 -1286 947 -1286 
C 1587 -1286 2234 -700 2413 6 
L 3040 2485 
C 3046 2517 3059 2556 3059 2594 
C 3059 2689 2982 2753 2886 2753 
C 2829 2753 2694 2727 2643 2535 
L 2170 658 
C 2138 543 2138 530 2086 460 
C 1958 281 1747 64 1440 64 
C 1082 64 1050 415 1050 588 
C 1050 952 1222 1443 1395 1903 
C 1466 2088 1504 2178 1504 2305 
C 1504 2574 1312 2816 998 2816 
C 410 2816 173 1890 173 1839 
C 173 1814 198 1782 243 1782 
C 301 1782 307 1807 333 1897 
C 486 2433 730 2689 979 2689 
C 1037 2689 1146 2689 1146 2478 
C 1146 2312 1075 2127 979 1884 
C 666 1047 666 837 666 683 
C 666 77 1101 -64 1421 -64 
C 1606 -64 1837 -6 2061 230 
L 2067 224 
C 1971 -147 1907 -392 1683 -700 
z
" transform="scale(0.015625)"/>
      </defs>
      <use xlink:href="#CMMI12-79" transform="scale(0.996264)"/>
     </g>
    </g>
   </g>
   <g id="line2d_1">
    <defs>
     <path id="mbbfab99166" d="M 3 0 
L -3 -3 
L -3 3 
z
" style="stroke: #000000; stroke-linejoin: miter"/>
    </defs>
    <g>
     <use xlink:href="#mbbfab99166" x="447" y="178.515197" style="stroke: #000000; stroke-linejoin: miter"/>
    </g>
   </g>
   <g id="line2d_2">
    <defs>
     <path id="mf9570e5abe" d="M 0 -3 
L -3 3 
L 3 3 
z
" style="stroke: #000000; stroke-linejoin: miter"/>
    </defs>
    <g>
     <use xlink:href="#mf9570e5abe" x="228.9" y="22.230394" style="stroke: #000000; stroke-linejoin: miter"/>
    </g>
   </g>
   <g id="line2d_3">
    <path d="M 10.8 195.51761 
L 39.475298 196.025689 
L 60.296173 196.606708 
L 76.005017 197.258121 
L 88.225966 197.978626 
L 97.970775 198.767813 
L 105.905072 199.626721 
L 112.454862 200.553495 
L 117.91302 201.543525 
L 122.545797 202.603371 
L 126.512946 203.732927 
L 129.947592 204.936313 
L 132.956235 206.221519 
L 135.618751 207.598119 
L 137.98839 209.072193 
L 140.118403 210.658901 
L 142.035415 212.362425 
L 143.792675 214.221094 
L 145.41681 216.266012 
L 146.907819 218.501458 
L 148.292327 220.975365 
L 149.59696 223.763248 
L 150.821718 226.90863 
L 151.993225 230.550356 
L 153.084856 234.688185 
L 154.123238 239.526123 
L 155.081743 245.059948 
L 155.986999 251.593019 
L 156.839004 259.376329 
L 157.637759 268.743658 
L 158.383263 280.145966 
L 159.075517 294.203249 
L 159.714521 311.784417 
L 160.300275 334.133128 
L 160.553894 346.6 
M 165.841959 -1 
L 166.424062 36.742556 
L 167.063065 64.085589 
L 167.75532 84.498883 
L 168.500824 100.193503 
L 169.299579 112.548368 
L 170.151584 122.464581 
L 171.083465 130.762396 
L 172.068595 137.571725 
L 173.106977 143.234961 
L 174.198608 147.999366 
L 175.370115 152.132354 
L 176.594873 155.656425 
L 177.899506 158.743953 
L 179.284014 161.454463 
L 180.748398 163.839213 
L 182.319282 165.975181 
L 183.996667 167.883788 
L 185.807178 169.609659 
L 187.77744 171.1814 
L 189.934078 172.616962 
L 192.330342 173.940584 
L 194.966233 175.140273 
L 197.921626 176.237883 
L 201.249771 177.231431 
L 204.977294 178.108051 
L 209.184069 178.864348 
L 213.896722 179.48072 
L 219.088628 179.932139 
L 224.679912 180.193663 
L 230.510822 180.24327 
L 236.315107 180.070953 
L 241.826515 179.687455 
L 246.885296 179.11625 
L 251.411573 178.386441 
L 255.431972 177.51789 
L 258.973118 176.530952 
L 262.114887 175.428936 
L 264.910529 174.215311 
L 267.386669 172.902354 
L 269.623183 171.467584 
L 271.646695 169.906724 
L 273.483831 168.211169 
L 275.187841 166.333445 
L 276.758726 164.267288 
L 278.223109 161.966948 
L 279.580992 159.415504 
L 280.859 156.53476 
L 282.057132 153.280282 
L 283.202014 149.507066 
L 284.267021 145.218178 
L 285.278777 140.201036 
L 286.237283 134.28308 
L 287.142538 127.237035 
L 287.994543 118.758637 
L 288.766673 108.825037 
L 289.485552 96.723339 
L 290.177806 81.102392 
L 290.790185 62.184307 
L 291.375938 36.742556 
L 291.881817 4.966337 
L 291.958041 -1 
M 297.246106 346.6 
L 297.872478 319.05554 
L 298.564732 298.10068 
L 299.310236 282.053964 
L 300.108991 269.460398 
L 300.960996 259.376329 
L 301.866252 251.16514 
L 302.851383 244.216634 
L 303.889764 238.44765 
L 304.981395 233.600322 
L 306.152902 229.398784 
L 307.37766 225.817577 
L 308.682293 222.679698 
L 310.066801 219.923334 
L 311.531185 217.495376 
L 313.102069 215.316621 
L 314.806079 213.336055 
L 316.643216 211.544632 
L 318.640103 209.909739 
L 320.823366 208.409765 
L 323.246255 207.016203 
L 325.962022 205.714362 
L 329.023915 204.498086 
L 332.511811 203.358085 
L 336.505585 202.293 
L 341.111738 201.300112 
L 346.49002 200.373587 
L 352.853433 199.509623 
L 360.441604 198.710738 
L 369.627284 197.974924 
L 380.889727 197.303795 
L 394.974437 196.696196 
L 412.94642 196.153435 
L 436.509687 195.675663 
L 447 195.51761 
L 447 195.51761 
" clip-path="url(#pbd0972f8bd)" style="fill: none; stroke: #0072b2; stroke-width: 3.5; stroke-linecap: square"/>
   </g>
   <g id="LineCollection_1">
    <path d="M 163.47 334.8 
L 163.47 22.230394 
" clip-path="url(#pbd0972f8bd)" style="fill: none; stroke-dasharray: 12.95,5.6; stroke-dashoffset: 0; stroke: #dc5e8b; stroke-width: 3.5"/>
   </g>
   <g id="LineCollection_2">
    <path d="M 294.33 334.8 
L 294.33 22.230394 
" clip-path="url(#pbd0972f8bd)" style="fill: none; stroke-dasharray: 12.95,5.6; stroke-dashoffset: 0; stroke: #dc5e8b; stroke-width: 3.5"/>
   </g>
   <g id="LineCollection_3">
    <path d="M 10.8 162.886717 
L 447 162.886717 
" clip-path="url(#pbd0972f8bd)" style="fill: none; stroke-dasharray: 12.95,5.6; stroke-dashoffset: 0; stroke: #dc5e8b; stroke-width: 3.5"/>
   </g>
   <g id="patch_3">
    <path d="M 228.9 334.8 
L 228.9 22.230394 
" style="fill: none; stroke: #000000; stroke-width: 0.8; stroke-linejoin: miter; stroke-linecap: square"/>
   </g>
   <g id="patch_4">
    <path d="M 447 334.8 
L 447 22.230394 
" style="fill: none"/>
   </g>
   <g id="patch_5">
    <path d="M 10.8 178.515197 
L 447 178.515197 
" style="fill: none; stroke: #000000; stroke-width: 0.8; stroke-linejoin: miter; stroke-linecap: square"/>
   </g>
   <g id="patch_6">
    <path d="M 10.8 22.230394 
L 447 22.230394 
" style="fill: none"/>
   </g>
   <g id="text_3">
    <g id="patch_7">
     <path d="M 330.157749 74.557749 
L 345.742251 74.557749 
Q 355.742251 74.557749 355.742251 64.557749 
L 355.742251 42.416961 
Q 355.742251 32.416961 345.742251 32.416961 
L 330.157749 32.416961 
Q 320.157749 32.416961 320.157749 42.416961 
L 320.157749 64.557749 
Q 320.157749 74.557749 330.157749 74.557749 
z
" style="fill: #ffffff; opacity: 0.7; stroke: #000000; stroke-width: 1.5; stroke-linejoin: miter"/>
    </g>
    <!-- B -->
    <g transform="translate(330.157749 59.713214) scale(0.25 -0.25)">
     <defs>
      <path id="CMSS17-42" d="M 570 4416 
L 570 0 
L 2163 0 
C 3034 0 3667 574 3667 1200 
C 3667 1685 3251 2176 2502 2317 
C 3334 2558 3501 3040 3501 3313 
C 3501 3883 2874 4416 1997 4416 
L 570 4416 
z
M 1088 2496 
L 1088 4059 
L 1824 4059 
C 2483 4059 3002 3724 3002 3306 
C 3002 2926 2592 2496 1766 2496 
L 1088 2496 
z
M 1088 357 
L 1088 2107 
L 1939 2107 
C 2630 2107 3162 1679 3162 1206 
C 3162 772 2694 357 1984 357 
L 1088 357 
z
" transform="scale(0.015625)"/>
     </defs>
     <use xlink:href="#CMSS17-42" transform="scale(0.996264)"/>
    </g>
   </g>
  </g>
 </g>
 <defs>
  <clipPath id="pbd0972f8bd">
   <rect x="10.8" y="22.230394" width="436.2" height="312.569606"/>
  </clipPath>
 </defs>
</svg>
