<?xml version="1.0" encoding="utf-8" standalone="no"?>
<!DOCTYPE svg PUBLIC "-//W3C//DTD SVG 1.1//EN"
  "http://www.w3.org/Graphics/SVG/1.1/DTD/svg11.dtd">
<svg xmlns:xlink="http://www.w3.org/1999/xlink" width="432pt" height="432pt" viewBox="0 0 432 432" xmlns="http://www.w3.org/2000/svg" version="1.1">
 <metadata>
  <rdf:RDF xmlns:dc="http://purl.org/dc/elements/1.1/" xmlns:cc="http://creativecommons.org/ns#" xmlns:rdf="http://www.w3.org/1999/02/22-rdf-syntax-ns#">
   <cc:Work>
    <dc:type rdf:resource="http://purl.org/dc/dcmitype/StillImage"/>
    <dc:date>2026-03-21T19:42:35.276926</dc:date>
    <dc:format>image/svg+xml</dc:format>
    <dc:creator>
     <cc:Agent>
      <dc:title>Matplotlib v3.10.8, https://matplotlib.org/</dc:title>
     </cc:Agent>
    </dc:creator>
   </cc:Work>
  </rdf:RDF>
 </metadata>
 <defs>
  <style type="text/css">*{stroke-linejoin: round; stroke-linecap: butt}</style>
 </defs>
 <g id="figure_1">
  <g id="patch_1">
   <path d="M 0 432 
L 432 432 
L 432 0 
L 0 0 
L 0 432 
z
" style="fill: none"/>
  </g>
  <g id="axes_1">
   <g id="patch_2">
    <path d="M 216 403.756789 
C 265.793682 403.756789 313.554648 383.973549 348.764098 348.764098 
C 383.973549 313.554648 403.756789 265.793682 403.756789 216 
C 403.756789 166.206318 383.973549 118.445352 348.764098 83.235902 
C 313.554648 48.026451 265.793682 28.243211 216 28.243211 
C 166.206318 28.243211 118.445352 48.026451 83.235902 83.235902 
C 48.026451 118.445352 28.243211 166.206318 28.243211 216 
C 28.243211 265.793682 48.026451 313.554648 83.235902 348.764098 
C 118.445352 383.973549 166.206318 403.756789 216 403.756789 
L 216 403.756789 
z
" clip-path="url(#p9866cda662)" style="fill: none; stroke: #000000; stroke-width: 2.5; stroke-linejoin: miter"/>
   </g>
   <g id="line2d_1">
    <path d="M 253.551358 216 
L 253.440744 213.119863 
L 253.109553 210.256694 
L 252.559736 207.42736 
L 251.794533 204.648531 
L 250.818452 201.936578 
L 249.637243 199.307477 
L 248.257866 196.776718 
L 246.688445 194.35921 
L 244.938228 192.069195 
L 243.017526 189.920166 
L 240.937654 187.924782 
L 238.710865 186.094799 
L 236.350279 184.440998 
L 234.775679 183.47957 
L 234.775679 183.47957 
" clip-path="url(#p9866cda662)" style="fill: none; stroke: #000000; stroke-linecap: square"/>
   </g>
   <g id="line2d_2">
    <path d="M 403.756789 216 
L 309.878394 53.397851 
" clip-path="url(#p9866cda662)" style="fill: none; stroke: #0072b2; stroke-width: 2.5; stroke-linecap: square"/>
   </g>
   <g id="line2d_3">
    <path d="M 309.878394 53.397851 
L 122.121606 53.397851 
" clip-path="url(#p9866cda662)" style="fill: none; stroke: #0072b2; stroke-width: 2.5; stroke-linecap: square"/>
   </g>
   <g id="line2d_4">
    <path d="M 122.121606 53.397851 
L 28.243211 216 
" clip-path="url(#p9866cda662)" style="fill: none; stroke: #0072b2; stroke-width: 2.5; stroke-linecap: square"/>
   </g>
   <g id="line2d_5">
    <path d="M 28.243211 216 
L 122.121606 378.602149 
" clip-path="url(#p9866cda662)" style="fill: none; stroke: #0072b2; stroke-width: 2.5; stroke-linecap: square"/>
   </g>
   <g id="line2d_6">
    <path d="M 122.121606 378.602149 
L 309.878394 378.602149 
" clip-path="url(#p9866cda662)" style="fill: none; stroke: #0072b2; stroke-width: 2.5; stroke-linecap: square"/>
   </g>
   <g id="line2d_7">
    <path d="M 309.878394 378.602149 
L 403.756789 216 
" clip-path="url(#p9866cda662)" style="fill: none; stroke: #0072b2; stroke-width: 2.5; stroke-linecap: square"/>
   </g>
   <g id="line2d_8">
    <path d="M 216 216 
L 403.756789 216 
" clip-path="url(#p9866cda662)" style="fill: none; stroke-dasharray: 9.25,4; stroke-dashoffset: 0; stroke: #808080; stroke-width: 2.5"/>
   </g>
   <g id="line2d_9">
    <path d="M 216 216 
L 309.878394 53.397851 
" clip-path="url(#p9866cda662)" style="fill: none; stroke-dasharray: 9.25,4; stroke-dashoffset: 0; stroke: #808080; stroke-width: 2.5"/>
   </g>
   <g id="line2d_10">
    <path d="M 216 216 
L 122.121606 53.397851 
" clip-path="url(#p9866cda662)" style="fill: none; stroke-dasharray: 9.25,4; stroke-dashoffset: 0; stroke: #808080; stroke-width: 2.5"/>
   </g>
   <g id="line2d_11">
    <path d="M 216 216 
L 28.243211 216 
" clip-path="url(#p9866cda662)" style="fill: none; stroke-dasharray: 9.25,4; stroke-dashoffset: 0; stroke: #808080; stroke-width: 2.5"/>
   </g>
   <g id="line2d_12">
    <path d="M 216 216 
L 122.121606 378.602149 
" clip-path="url(#p9866cda662)" style="fill: none; stroke-dasharray: 9.25,4; stroke-dashoffset: 0; stroke: #808080; stroke-width: 2.5"/>
   </g>
   <g id="line2d_13">
    <path d="M 216 216 
L 309.878394 378.602149 
" clip-path="url(#p9866cda662)" style="fill: none; stroke-dasharray: 9.25,4; stroke-dashoffset: 0; stroke: #808080; stroke-width: 2.5"/>
   </g>
   <g id="text_1">
    <!-- $v$ -->
    <g transform="translate(258.649773 194.311369) scale(0.26 -0.26)">
     <defs>
      <path id="CMMI12-76" d="M 2925 2389 
C 2925 2791 2720 2816 2669 2816 
C 2515 2816 2374 2663 2374 2535 
C 2374 2459 2419 2414 2445 2389 
C 2509 2331 2675 2159 2675 1827 
C 2675 1558 2291 64 1523 64 
C 1133 64 1056 390 1056 626 
C 1056 945 1203 1392 1376 1852 
C 1478 2114 1504 2178 1504 2305 
C 1504 2574 1312 2816 998 2816 
C 410 2816 173 1890 173 1839 
C 173 1814 198 1782 243 1782 
C 301 1782 307 1807 333 1897 
C 486 2446 736 2689 979 2689 
C 1037 2689 1146 2689 1146 2478 
C 1146 2312 1075 2127 979 1884 
C 672 1067 672 869 672 715 
C 672 575 691 313 890 134 
C 1120 -64 1440 -64 1498 -64 
C 2560 -64 2925 2024 2925 2389 
z
" transform="scale(0.015625)"/>
     </defs>
     <use xlink:href="#CMMI12-76" transform="scale(0.996264)"/>
    </g>
   </g>
  </g>
 </g>
 <defs>
  <clipPath id="p9866cda662">
   <rect x="10.8" y="10.8" width="410.4" height="410.4"/>
  </clipPath>
 </defs>
</svg>
