<?xml version="1.0" encoding="utf-8" standalone="no"?>
<!DOCTYPE svg PUBLIC "-//W3C//DTD SVG 1.1//EN"
  "http://www.w3.org/Graphics/SVG/1.1/DTD/svg11.dtd">
<svg xmlns:xlink="http://www.w3.org/1999/xlink" width="519.966207pt" height="338.610312pt" viewBox="0 0 519.966207 338.610312" xmlns="http://www.w3.org/2000/svg" version="1.1">
 <metadata>
  <rdf:RDF xmlns:dc="http://purl.org/dc/elements/1.1/" xmlns:cc="http://creativecommons.org/ns#" xmlns:rdf="http://www.w3.org/1999/02/22-rdf-syntax-ns#">
   <cc:Work>
    <dc:type rdf:resource="http://purl.org/dc/dcmitype/StillImage"/>
    <dc:date>2025-08-27T13:42:40.422813</dc:date>
    <dc:format>image/svg+xml</dc:format>
    <dc:creator>
     <cc:Agent>
      <dc:title>Matplotlib v3.9.1, https://matplotlib.org/</dc:title>
     </cc:Agent>
    </dc:creator>
   </cc:Work>
  </rdf:RDF>
 </metadata>
 <defs>
  <style type="text/css">*{stroke-linejoin: round; stroke-linecap: butt}</style>
 </defs>
 <g id="figure_1">
  <g id="patch_1">
   <path d="M 0 338.610312 
L 519.966207 338.610312 
L 519.966207 0 
L 0 0 
L 0 338.610312 
z
" style="fill: none"/>
  </g>
  <g id="axes_1">
   <g id="patch_2">
    <path d="M 7.2 331.410312 
L 443.4 331.410312 
L 443.4 16.410312 
L 7.2 16.410312 
L 7.2 331.410312 
z
" style="fill: none"/>
   </g>
   <g id="matplotlib.axis_1">
    <g id="text_1">
     <!-- $x$ -->
     <g transform="translate(432.6 219.381618) scale(0.18 -0.18)">
      <defs>
       <path id="DejaVuSans-Oblique-78" d="M 3841 3500 
L 2234 1784 
L 3219 0 
L 2559 0 
L 1819 1388 
L 531 0 
L -166 0 
L 1556 1844 
L 641 3500 
L 1300 3500 
L 1972 2234 
L 3144 3500 
L 3841 3500 
z
" transform="scale(0.015625)"/>
      </defs>
      <use xlink:href="#DejaVuSans-Oblique-78" transform="translate(0 0.3125)"/>
     </g>
    </g>
   </g>
   <g id="matplotlib.axis_2">
    <g id="text_2">
     <!-- $y$ -->
     <g transform="translate(187.937931 12.630313) scale(0.18 -0.18)">
      <defs>
       <path id="DejaVuSans-Oblique-79" d="M 1588 -325 
Q 1188 -997 936 -1164 
Q 684 -1331 294 -1331 
L -159 -1331 
L -63 -850 
L 269 -850 
Q 509 -850 678 -719 
Q 847 -588 1056 -206 
L 1234 128 
L 459 3500 
L 1069 3500 
L 1650 819 
L 3256 3500 
L 3859 3500 
L 1588 -325 
z
" transform="scale(0.015625)"/>
      </defs>
      <use xlink:href="#DejaVuSans-Oblique-79" transform="translate(0 0.3125)"/>
     </g>
    </g>
   </g>
   <g id="line2d_1">
    <defs>
     <path id="mf3fd68cead" d="M 3 0 
L -3 -3 
L -3 3 
z
" style="stroke: #000000; stroke-linejoin: miter"/>
    </defs>
    <g>
     <use xlink:href="#mf3fd68cead" x="443.4" y="201.70443" style="stroke: #000000; stroke-linejoin: miter"/>
    </g>
   </g>
   <g id="line2d_2">
    <defs>
     <path id="mcbd0dad653" d="M 0 -3 
L -3 3 
L 3 3 
z
" style="stroke: #000000; stroke-linejoin: miter"/>
    </defs>
    <g>
     <use xlink:href="#mcbd0dad653" x="202.737931" y="16.410312" style="stroke: #000000; stroke-linejoin: miter"/>
    </g>
   </g>
   <g id="line2d_3">
    <path d="M 7.144903 189.713402 
L 38.439788 190.624988 
L 64.225009 191.591873 
L 85.822887 192.618446 
L 104.114968 193.706308 
L 119.542023 194.839575 
L 132.765214 196.024797 
L 144.225313 197.26563 
L 154.363092 198.581707 
L 163.178552 199.943624 
L 171.112467 201.393011 
L 178.164835 202.909203 
L 184.335657 204.459153 
L 189.84532 206.064292 
L 194.91421 207.770785 
L 199.542327 209.567346 
L 203.72967 211.434959 
L 207.476241 213.345174 
L 211.002425 215.394951 
L 214.308223 217.586783 
L 217.173247 219.742701 
L 220.038272 222.186813 
L 222.68291 224.751972 
L 225.107162 227.418716 
L 227.311027 230.158264 
L 229.514892 233.259468 
L 231.498371 236.422696 
L 233.481849 240.012428 
L 235.244941 243.635529 
L 237.008033 247.75199 
L 238.771125 252.469942 
L 240.313831 257.202278 
L 241.856537 262.62836 
L 243.399242 268.912805 
L 244.941948 276.276787 
L 246.264267 283.675603 
L 247.586586 292.351912 
L 248.908905 302.667839 
L 250.010837 312.880901 
L 251.11277 325.002946 
L 252.213722 339.610312 
M 271.984239 -1 
L 272.931034 16.410312 
L 274.032967 32.92167 
L 275.1349 46.458007 
L 276.457219 59.796252 
L 277.779538 70.763254 
L 279.101857 79.939724 
L 280.424176 87.731067 
L 281.966881 95.454855 
L 283.509587 102.02214 
L 285.052293 107.674579 
L 286.815385 113.241432 
L 288.578477 118.043738 
L 290.341569 122.228881 
L 292.325047 126.337609 
L 294.308526 129.92734 
L 296.292005 133.090569 
L 298.49587 136.191773 
L 300.699735 138.931321 
L 303.123986 141.598064 
L 305.768624 144.163223 
L 308.413263 146.430253 
L 311.278287 148.60648 
L 314.363698 150.679112 
L 317.669496 152.640636 
L 321.416067 154.595756 
L 325.383024 156.410312 
L 329.790754 158.174049 
L 334.639257 159.863823 
L 339.928534 161.464592 
L 345.658583 162.967844 
L 352.049792 164.416566 
L 359.322546 165.831489 
L 367.476847 167.183882 
L 376.733081 168.484226 
L 387.091247 169.709545 
L 398.992118 170.887093 
L 412.656082 172.008287 
L 428.303524 173.0647 
L 443.510193 173.915965 
L 443.510193 173.915965 
" clip-path="url(#p32aacb9fa1)" style="fill: none; stroke: #0072b2; stroke-width: 2.5; stroke-linecap: square"/>
   </g>
   <g id="line2d_4">
    <defs>
     <path id="m5c0b8bad15" d="M 0 5 
C 1.326016 5 2.597899 4.473168 3.535534 3.535534 
C 4.473168 2.597899 5 1.326016 5 0 
C 5 -1.326016 4.473168 -2.597899 3.535534 -3.535534 
C 2.597899 -4.473168 1.326016 -5 0 -5 
C -1.326016 -5 -2.597899 -4.473168 -3.535534 -3.535534 
C -4.473168 -2.597899 -5 -1.326016 -5 0 
C -5 1.326016 -4.473168 2.597899 -3.535534 3.535534 
C -2.597899 4.473168 -1.326016 5 0 5 
z
" style="stroke: #000000; stroke-opacity: 0.8"/>
    </defs>
    <g clip-path="url(#p32aacb9fa1)">
     <use xlink:href="#m5c0b8bad15" x="172.655172" y="201.70443" style="fill-opacity: 0.8; stroke: #000000; stroke-opacity: 0.8"/>
    </g>
   </g>
   <g id="LineCollection_1">
    <path d="M 262.903448 331.410312 
L 262.903448 16.410312 
" clip-path="url(#p32aacb9fa1)" style="fill: none; stroke-dasharray: 9.25,4; stroke-dashoffset: 0; stroke: #dc5e8b; stroke-width: 2.5"/>
   </g>
   <g id="LineCollection_2">
    <path d="M 7.2 183.175018 
L 443.4 183.175018 
" clip-path="url(#p32aacb9fa1)" style="fill: none; stroke-dasharray: 9.25,4; stroke-dashoffset: 0; stroke: #dc5e8b; stroke-width: 2.5"/>
   </g>
   <g id="patch_3">
    <path d="M 202.737931 331.410312 
L 202.737931 16.410312 
" style="fill: none; stroke: #000000; stroke-width: 0.8; stroke-linejoin: miter; stroke-linecap: square"/>
   </g>
   <g id="patch_4">
    <path d="M 443.4 331.410312 
L 443.4 16.410312 
" style="fill: none"/>
   </g>
   <g id="patch_5">
    <path d="M 7.2 201.70443 
L 443.4 201.70443 
" style="fill: none; stroke: #000000; stroke-width: 0.8; stroke-linejoin: miter; stroke-linecap: square"/>
   </g>
   <g id="patch_6">
    <path d="M 7.2 16.410312 
L 443.4 16.410312 
" style="fill: none"/>
   </g>
   <g id="patch_7">
    <path d="M 161.663722 127.360958 
Q 177.689847 150.25974 173.312778 178.988407 
" style="fill: none; opacity: 0.7; stroke: #000000; stroke-width: 2; stroke-linecap: round"/>
    <path d="M 177.956178 172.412782 
L 173.312778 178.988407 
L 170.838318 171.328313 
" style="fill: none; opacity: 0.7; stroke: #000000; stroke-width: 2; stroke-linecap: round"/>
   </g>
   <g id="text_3">
    <g id="patch_8">
     <path d="M 22.241379 124.987371 
L 265.601379 124.987371 
Q 272.801379 124.987371 272.801379 117.787371 
L 272.801379 100.327371 
Q 272.801379 93.127371 265.601379 93.127371 
L 22.241379 93.127371 
Q 15.041379 93.127371 15.041379 100.327371 
L 15.041379 117.787371 
Q 15.041379 124.987371 22.241379 124.987371 
z
" style="fill: #ffffff; stroke: #000000; stroke-width: 1.5; stroke-linejoin: miter"/>
    </g>
    <!-- Horisontal asymptote $y = a$ -->
    <g transform="translate(22.241379 114.007371) scale(0.18 -0.18)">
     <defs>
      <path id="DejaVuSans-48" d="M 628 4666 
L 1259 4666 
L 1259 2753 
L 3553 2753 
L 3553 4666 
L 4184 4666 
L 4184 0 
L 3553 0 
L 3553 2222 
L 1259 2222 
L 1259 0 
L 628 0 
L 628 4666 
z
" transform="scale(0.015625)"/>
      <path id="DejaVuSans-6f" d="M 1959 3097 
Q 1497 3097 1228 2736 
Q 959 2375 959 1747 
Q 959 1119 1226 758 
Q 1494 397 1959 397 
Q 2419 397 2687 759 
Q 2956 1122 2956 1747 
Q 2956 2369 2687 2733 
Q 2419 3097 1959 3097 
z
M 1959 3584 
Q 2709 3584 3137 3096 
Q 3566 2609 3566 1747 
Q 3566 888 3137 398 
Q 2709 -91 1959 -91 
Q 1206 -91 779 398 
Q 353 888 353 1747 
Q 353 2609 779 3096 
Q 1206 3584 1959 3584 
z
" transform="scale(0.015625)"/>
      <path id="DejaVuSans-72" d="M 2631 2963 
Q 2534 3019 2420 3045 
Q 2306 3072 2169 3072 
Q 1681 3072 1420 2755 
Q 1159 2438 1159 1844 
L 1159 0 
L 581 0 
L 581 3500 
L 1159 3500 
L 1159 2956 
Q 1341 3275 1631 3429 
Q 1922 3584 2338 3584 
Q 2397 3584 2469 3576 
Q 2541 3569 2628 3553 
L 2631 2963 
z
" transform="scale(0.015625)"/>
      <path id="DejaVuSans-69" d="M 603 3500 
L 1178 3500 
L 1178 0 
L 603 0 
L 603 3500 
z
M 603 4863 
L 1178 4863 
L 1178 4134 
L 603 4134 
L 603 4863 
z
" transform="scale(0.015625)"/>
      <path id="DejaVuSans-73" d="M 2834 3397 
L 2834 2853 
Q 2591 2978 2328 3040 
Q 2066 3103 1784 3103 
Q 1356 3103 1142 2972 
Q 928 2841 928 2578 
Q 928 2378 1081 2264 
Q 1234 2150 1697 2047 
L 1894 2003 
Q 2506 1872 2764 1633 
Q 3022 1394 3022 966 
Q 3022 478 2636 193 
Q 2250 -91 1575 -91 
Q 1294 -91 989 -36 
Q 684 19 347 128 
L 347 722 
Q 666 556 975 473 
Q 1284 391 1588 391 
Q 1994 391 2212 530 
Q 2431 669 2431 922 
Q 2431 1156 2273 1281 
Q 2116 1406 1581 1522 
L 1381 1569 
Q 847 1681 609 1914 
Q 372 2147 372 2553 
Q 372 3047 722 3315 
Q 1072 3584 1716 3584 
Q 2034 3584 2315 3537 
Q 2597 3491 2834 3397 
z
" transform="scale(0.015625)"/>
      <path id="DejaVuSans-6e" d="M 3513 2113 
L 3513 0 
L 2938 0 
L 2938 2094 
Q 2938 2591 2744 2837 
Q 2550 3084 2163 3084 
Q 1697 3084 1428 2787 
Q 1159 2491 1159 1978 
L 1159 0 
L 581 0 
L 581 3500 
L 1159 3500 
L 1159 2956 
Q 1366 3272 1645 3428 
Q 1925 3584 2291 3584 
Q 2894 3584 3203 3211 
Q 3513 2838 3513 2113 
z
" transform="scale(0.015625)"/>
      <path id="DejaVuSans-74" d="M 1172 4494 
L 1172 3500 
L 2356 3500 
L 2356 3053 
L 1172 3053 
L 1172 1153 
Q 1172 725 1289 603 
Q 1406 481 1766 481 
L 2356 481 
L 2356 0 
L 1766 0 
Q 1100 0 847 248 
Q 594 497 594 1153 
L 594 3053 
L 172 3053 
L 172 3500 
L 594 3500 
L 594 4494 
L 1172 4494 
z
" transform="scale(0.015625)"/>
      <path id="DejaVuSans-61" d="M 2194 1759 
Q 1497 1759 1228 1600 
Q 959 1441 959 1056 
Q 959 750 1161 570 
Q 1363 391 1709 391 
Q 2188 391 2477 730 
Q 2766 1069 2766 1631 
L 2766 1759 
L 2194 1759 
z
M 3341 1997 
L 3341 0 
L 2766 0 
L 2766 531 
Q 2569 213 2275 61 
Q 1981 -91 1556 -91 
Q 1019 -91 701 211 
Q 384 513 384 1019 
Q 384 1609 779 1909 
Q 1175 2209 1959 2209 
L 2766 2209 
L 2766 2266 
Q 2766 2663 2505 2880 
Q 2244 3097 1772 3097 
Q 1472 3097 1187 3025 
Q 903 2953 641 2809 
L 641 3341 
Q 956 3463 1253 3523 
Q 1550 3584 1831 3584 
Q 2591 3584 2966 3190 
Q 3341 2797 3341 1997 
z
" transform="scale(0.015625)"/>
      <path id="DejaVuSans-6c" d="M 603 4863 
L 1178 4863 
L 1178 0 
L 603 0 
L 603 4863 
z
" transform="scale(0.015625)"/>
      <path id="DejaVuSans-20" transform="scale(0.015625)"/>
      <path id="DejaVuSans-79" d="M 2059 -325 
Q 1816 -950 1584 -1140 
Q 1353 -1331 966 -1331 
L 506 -1331 
L 506 -850 
L 844 -850 
Q 1081 -850 1212 -737 
Q 1344 -625 1503 -206 
L 1606 56 
L 191 3500 
L 800 3500 
L 1894 763 
L 2988 3500 
L 3597 3500 
L 2059 -325 
z
" transform="scale(0.015625)"/>
      <path id="DejaVuSans-6d" d="M 3328 2828 
Q 3544 3216 3844 3400 
Q 4144 3584 4550 3584 
Q 5097 3584 5394 3201 
Q 5691 2819 5691 2113 
L 5691 0 
L 5113 0 
L 5113 2094 
Q 5113 2597 4934 2840 
Q 4756 3084 4391 3084 
Q 3944 3084 3684 2787 
Q 3425 2491 3425 1978 
L 3425 0 
L 2847 0 
L 2847 2094 
Q 2847 2600 2669 2842 
Q 2491 3084 2119 3084 
Q 1678 3084 1418 2786 
Q 1159 2488 1159 1978 
L 1159 0 
L 581 0 
L 581 3500 
L 1159 3500 
L 1159 2956 
Q 1356 3278 1631 3431 
Q 1906 3584 2284 3584 
Q 2666 3584 2933 3390 
Q 3200 3197 3328 2828 
z
" transform="scale(0.015625)"/>
      <path id="DejaVuSans-70" d="M 1159 525 
L 1159 -1331 
L 581 -1331 
L 581 3500 
L 1159 3500 
L 1159 2969 
Q 1341 3281 1617 3432 
Q 1894 3584 2278 3584 
Q 2916 3584 3314 3078 
Q 3713 2572 3713 1747 
Q 3713 922 3314 415 
Q 2916 -91 2278 -91 
Q 1894 -91 1617 61 
Q 1341 213 1159 525 
z
M 3116 1747 
Q 3116 2381 2855 2742 
Q 2594 3103 2138 3103 
Q 1681 3103 1420 2742 
Q 1159 2381 1159 1747 
Q 1159 1113 1420 752 
Q 1681 391 2138 391 
Q 2594 391 2855 752 
Q 3116 1113 3116 1747 
z
" transform="scale(0.015625)"/>
      <path id="DejaVuSans-65" d="M 3597 1894 
L 3597 1613 
L 953 1613 
Q 991 1019 1311 708 
Q 1631 397 2203 397 
Q 2534 397 2845 478 
Q 3156 559 3463 722 
L 3463 178 
Q 3153 47 2828 -22 
Q 2503 -91 2169 -91 
Q 1331 -91 842 396 
Q 353 884 353 1716 
Q 353 2575 817 3079 
Q 1281 3584 2069 3584 
Q 2775 3584 3186 3129 
Q 3597 2675 3597 1894 
z
M 3022 2063 
Q 3016 2534 2758 2815 
Q 2500 3097 2075 3097 
Q 1594 3097 1305 2825 
Q 1016 2553 972 2059 
L 3022 2063 
z
" transform="scale(0.015625)"/>
      <path id="DejaVuSans-3d" d="M 678 2906 
L 4684 2906 
L 4684 2381 
L 678 2381 
L 678 2906 
z
M 678 1631 
L 4684 1631 
L 4684 1100 
L 678 1100 
L 678 1631 
z
" transform="scale(0.015625)"/>
      <path id="DejaVuSans-Oblique-61" d="M 3438 1997 
L 3047 0 
L 2472 0 
L 2578 531 
Q 2325 219 2001 64 
Q 1678 -91 1281 -91 
Q 834 -91 548 182 
Q 263 456 263 884 
Q 263 1497 752 1853 
Q 1241 2209 2100 2209 
L 2900 2209 
L 2931 2363 
Q 2938 2388 2941 2417 
Q 2944 2447 2944 2509 
Q 2944 2788 2717 2942 
Q 2491 3097 2081 3097 
Q 1800 3097 1504 3025 
Q 1209 2953 897 2809 
L 997 3341 
Q 1322 3463 1633 3523 
Q 1944 3584 2234 3584 
Q 2853 3584 3176 3315 
Q 3500 3047 3500 2534 
Q 3500 2431 3484 2292 
Q 3469 2153 3438 1997 
z
M 2816 1759 
L 2241 1759 
Q 1534 1759 1195 1570 
Q 856 1381 856 984 
Q 856 709 1029 553 
Q 1203 397 1509 397 
Q 1978 397 2328 733 
Q 2678 1069 2791 1631 
L 2816 1759 
z
" transform="scale(0.015625)"/>
     </defs>
     <use xlink:href="#DejaVuSans-48" transform="translate(0 0.015625)"/>
     <use xlink:href="#DejaVuSans-6f" transform="translate(75.195312 0.015625)"/>
     <use xlink:href="#DejaVuSans-72" transform="translate(136.376953 0.015625)"/>
     <use xlink:href="#DejaVuSans-69" transform="translate(177.490234 0.015625)"/>
     <use xlink:href="#DejaVuSans-73" transform="translate(205.273438 0.015625)"/>
     <use xlink:href="#DejaVuSans-6f" transform="translate(257.373047 0.015625)"/>
     <use xlink:href="#DejaVuSans-6e" transform="translate(318.554688 0.015625)"/>
     <use xlink:href="#DejaVuSans-74" transform="translate(381.933594 0.015625)"/>
     <use xlink:href="#DejaVuSans-61" transform="translate(421.142578 0.015625)"/>
     <use xlink:href="#DejaVuSans-6c" transform="translate(482.421875 0.015625)"/>
     <use xlink:href="#DejaVuSans-20" transform="translate(510.205078 0.015625)"/>
     <use xlink:href="#DejaVuSans-61" transform="translate(541.992188 0.015625)"/>
     <use xlink:href="#DejaVuSans-73" transform="translate(603.271484 0.015625)"/>
     <use xlink:href="#DejaVuSans-79" transform="translate(655.371094 0.015625)"/>
     <use xlink:href="#DejaVuSans-6d" transform="translate(714.550781 0.015625)"/>
     <use xlink:href="#DejaVuSans-70" transform="translate(811.962891 0.015625)"/>
     <use xlink:href="#DejaVuSans-74" transform="translate(875.439453 0.015625)"/>
     <use xlink:href="#DejaVuSans-6f" transform="translate(914.648438 0.015625)"/>
     <use xlink:href="#DejaVuSans-74" transform="translate(975.830078 0.015625)"/>
     <use xlink:href="#DejaVuSans-65" transform="translate(1015.039062 0.015625)"/>
     <use xlink:href="#DejaVuSans-20" transform="translate(1076.5625 0.015625)"/>
     <use xlink:href="#DejaVuSans-Oblique-79" transform="translate(1108.349609 0.015625)"/>
     <use xlink:href="#DejaVuSans-3d" transform="translate(1187.011719 0.015625)"/>
     <use xlink:href="#DejaVuSans-Oblique-61" transform="translate(1290.283203 0.015625)"/>
    </g>
   </g>
   <g id="patch_9">
    <path d="M 387.085108 276.247107 
Q 337.940443 227.241379 267.092987 238.1102 
" style="fill: none; opacity: 0.7; stroke: #000000; stroke-width: 2; stroke-linecap: round"/>
    <path d="M 274.755622 240.576779 
L 267.092987 238.1102 
L 273.663832 233.460039 
" style="fill: none; opacity: 0.7; stroke: #000000; stroke-width: 2; stroke-linecap: round"/>
   </g>
   <g id="text_4">
    <g id="patch_10">
     <path d="M 292.986207 310.281489 
L 512.766207 310.281489 
Q 519.966207 310.281489 519.966207 303.081489 
L 519.966207 285.621489 
Q 519.966207 278.421489 512.766207 278.421489 
L 292.986207 278.421489 
Q 285.786207 278.421489 285.786207 285.621489 
L 285.786207 303.081489 
Q 285.786207 310.281489 292.986207 310.281489 
z
" style="fill: #ffffff; stroke: #000000; stroke-width: 1.5; stroke-linejoin: miter"/>
    </g>
    <!-- Vertikal asymptote $x = c$ -->
    <g transform="translate(292.986207 299.301489) scale(0.18 -0.18)">
     <defs>
      <path id="DejaVuSans-56" d="M 1831 0 
L 50 4666 
L 709 4666 
L 2188 738 
L 3669 4666 
L 4325 4666 
L 2547 0 
L 1831 0 
z
" transform="scale(0.015625)"/>
      <path id="DejaVuSans-6b" d="M 581 4863 
L 1159 4863 
L 1159 1991 
L 2875 3500 
L 3609 3500 
L 1753 1863 
L 3688 0 
L 2938 0 
L 1159 1709 
L 1159 0 
L 581 0 
L 581 4863 
z
" transform="scale(0.015625)"/>
      <path id="DejaVuSans-Oblique-63" d="M 3431 3366 
L 3316 2797 
Q 3109 2947 2876 3022 
Q 2644 3097 2394 3097 
Q 2119 3097 1870 3000 
Q 1622 2903 1453 2725 
Q 1184 2453 1037 2087 
Q 891 1722 891 1331 
Q 891 859 1127 628 
Q 1363 397 1844 397 
Q 2081 397 2348 469 
Q 2616 541 2906 684 
L 2797 116 
Q 2547 13 2283 -39 
Q 2019 -91 1741 -91 
Q 1044 -91 669 257 
Q 294 606 294 1253 
Q 294 1797 489 2255 
Q 684 2713 1069 3078 
Q 1331 3328 1684 3456 
Q 2038 3584 2456 3584 
Q 2700 3584 2940 3529 
Q 3181 3475 3431 3366 
z
" transform="scale(0.015625)"/>
     </defs>
     <use xlink:href="#DejaVuSans-56" transform="translate(0 0.015625)"/>
     <use xlink:href="#DejaVuSans-65" transform="translate(68.408203 0.015625)"/>
     <use xlink:href="#DejaVuSans-72" transform="translate(129.931641 0.015625)"/>
     <use xlink:href="#DejaVuSans-74" transform="translate(171.044922 0.015625)"/>
     <use xlink:href="#DejaVuSans-69" transform="translate(210.253906 0.015625)"/>
     <use xlink:href="#DejaVuSans-6b" transform="translate(238.037109 0.015625)"/>
     <use xlink:href="#DejaVuSans-61" transform="translate(295.947266 0.015625)"/>
     <use xlink:href="#DejaVuSans-6c" transform="translate(357.226562 0.015625)"/>
     <use xlink:href="#DejaVuSans-20" transform="translate(385.009766 0.015625)"/>
     <use xlink:href="#DejaVuSans-61" transform="translate(416.796875 0.015625)"/>
     <use xlink:href="#DejaVuSans-73" transform="translate(478.076172 0.015625)"/>
     <use xlink:href="#DejaVuSans-79" transform="translate(530.175781 0.015625)"/>
     <use xlink:href="#DejaVuSans-6d" transform="translate(589.355469 0.015625)"/>
     <use xlink:href="#DejaVuSans-70" transform="translate(686.767578 0.015625)"/>
     <use xlink:href="#DejaVuSans-74" transform="translate(750.244141 0.015625)"/>
     <use xlink:href="#DejaVuSans-6f" transform="translate(789.453125 0.015625)"/>
     <use xlink:href="#DejaVuSans-74" transform="translate(850.634766 0.015625)"/>
     <use xlink:href="#DejaVuSans-65" transform="translate(889.84375 0.015625)"/>
     <use xlink:href="#DejaVuSans-20" transform="translate(951.367188 0.015625)"/>
     <use xlink:href="#DejaVuSans-Oblique-78" transform="translate(983.154297 0.015625)"/>
     <use xlink:href="#DejaVuSans-3d" transform="translate(1061.816406 0.015625)"/>
     <use xlink:href="#DejaVuSans-Oblique-63" transform="translate(1165.087891 0.015625)"/>
    </g>
   </g>
   <g id="patch_11">
    <path d="M 153.095231 239.23465 
Q 167.041059 225.548902 171.700972 205.830529 
" style="fill: none; opacity: 0.7; stroke: #000000; stroke-width: 2; stroke-linecap: round"/>
    <path d="M 166.54156 212.009563 
L 171.700972 205.830529 
L 173.548552 213.66548 
" style="fill: none; opacity: 0.7; stroke: #000000; stroke-width: 2; stroke-linecap: round"/>
   </g>
   <g id="text_5">
    <g id="patch_12">
     <path d="M 52.324138 273.222665 
L 188.944138 273.222665 
Q 196.144138 273.222665 196.144138 266.022665 
L 196.144138 248.562665 
Q 196.144138 241.362665 188.944138 241.362665 
L 52.324138 241.362665 
Q 45.124138 241.362665 45.124138 248.562665 
L 45.124138 266.022665 
Q 45.124138 273.222665 52.324138 273.222665 
z
" style="fill: #ffffff; stroke: #000000; stroke-width: 1.5; stroke-linejoin: miter"/>
    </g>
    <!-- Nullpunkt $x = b$ -->
    <g transform="translate(52.324138 262.242665) scale(0.18 -0.18)">
     <defs>
      <path id="DejaVuSans-4e" d="M 628 4666 
L 1478 4666 
L 3547 763 
L 3547 4666 
L 4159 4666 
L 4159 0 
L 3309 0 
L 1241 3903 
L 1241 0 
L 628 0 
L 628 4666 
z
" transform="scale(0.015625)"/>
      <path id="DejaVuSans-75" d="M 544 1381 
L 544 3500 
L 1119 3500 
L 1119 1403 
Q 1119 906 1312 657 
Q 1506 409 1894 409 
Q 2359 409 2629 706 
Q 2900 1003 2900 1516 
L 2900 3500 
L 3475 3500 
L 3475 0 
L 2900 0 
L 2900 538 
Q 2691 219 2414 64 
Q 2138 -91 1772 -91 
Q 1169 -91 856 284 
Q 544 659 544 1381 
z
M 1991 3584 
L 1991 3584 
z
" transform="scale(0.015625)"/>
      <path id="DejaVuSans-Oblique-62" d="M 3169 2138 
Q 3169 2591 2961 2847 
Q 2753 3103 2388 3103 
Q 2122 3103 1889 2973 
Q 1656 2844 1484 2597 
Q 1303 2338 1198 1995 
Q 1094 1653 1094 1313 
Q 1094 881 1298 636 
Q 1503 391 1863 391 
Q 2134 391 2365 517 
Q 2597 644 2772 891 
Q 2950 1147 3059 1487 
Q 3169 1828 3169 2138 
z
M 1381 2969 
Q 1594 3256 1914 3420 
Q 2234 3584 2584 3584 
Q 3122 3584 3439 3221 
Q 3756 2859 3756 2241 
Q 3756 1734 3570 1259 
Q 3384 784 3041 416 
Q 2816 172 2522 40 
Q 2228 -91 1906 -91 
Q 1566 -91 1316 65 
Q 1066 222 909 531 
L 806 0 
L 231 0 
L 1178 4863 
L 1753 4863 
L 1381 2969 
z
" transform="scale(0.015625)"/>
     </defs>
     <use xlink:href="#DejaVuSans-4e" transform="translate(0 0.015625)"/>
     <use xlink:href="#DejaVuSans-75" transform="translate(74.804688 0.015625)"/>
     <use xlink:href="#DejaVuSans-6c" transform="translate(138.183594 0.015625)"/>
     <use xlink:href="#DejaVuSans-6c" transform="translate(165.966797 0.015625)"/>
     <use xlink:href="#DejaVuSans-70" transform="translate(193.75 0.015625)"/>
     <use xlink:href="#DejaVuSans-75" transform="translate(257.226562 0.015625)"/>
     <use xlink:href="#DejaVuSans-6e" transform="translate(320.605469 0.015625)"/>
     <use xlink:href="#DejaVuSans-6b" transform="translate(383.984375 0.015625)"/>
     <use xlink:href="#DejaVuSans-74" transform="translate(441.894531 0.015625)"/>
     <use xlink:href="#DejaVuSans-20" transform="translate(481.103516 0.015625)"/>
     <use xlink:href="#DejaVuSans-Oblique-78" transform="translate(512.890625 0.015625)"/>
     <use xlink:href="#DejaVuSans-3d" transform="translate(591.552734 0.015625)"/>
     <use xlink:href="#DejaVuSans-Oblique-62" transform="translate(694.824219 0.015625)"/>
    </g>
   </g>
   <g id="legend_1">
    <g id="patch_13">
     <path d="M 366.72 57.230937 
L 430.8 57.230937 
Q 434.4 57.230937 434.4 53.630937 
L 434.4 29.010312 
Q 434.4 25.410312 430.8 25.410312 
L 366.72 25.410312 
Q 363.12 25.410312 363.12 29.010312 
L 363.12 53.630937 
Q 363.12 57.230937 366.72 57.230937 
z
" style="fill: #ffffff; opacity: 0.8; stroke: #cccccc; stroke-linejoin: miter"/>
    </g>
    <g id="line2d_5">
     <path d="M 370.32 39.9875 
L 388.32 39.9875 
L 406.32 39.9875 
" style="fill: none; stroke: #0072b2; stroke-width: 2.5; stroke-linecap: square"/>
    </g>
    <g id="text_6">
     <!-- $f$ -->
     <g transform="translate(420.72 46.2875) scale(0.18 -0.18)">
      <defs>
       <path id="DejaVuSans-Oblique-66" d="M 3059 4863 
L 2969 4384 
L 2419 4384 
Q 2106 4384 1964 4261 
Q 1822 4138 1753 3809 
L 1691 3500 
L 2638 3500 
L 2553 3053 
L 1606 3053 
L 1013 0 
L 434 0 
L 1031 3053 
L 481 3053 
L 563 3500 
L 1113 3500 
L 1159 3744 
Q 1278 4363 1576 4613 
Q 1875 4863 2516 4863 
L 3059 4863 
z
" transform="scale(0.015625)"/>
      </defs>
      <use xlink:href="#DejaVuSans-Oblique-66" transform="translate(0 0.015625)"/>
     </g>
    </g>
   </g>
  </g>
 </g>
 <defs>
  <clipPath id="p32aacb9fa1">
   <rect x="7.2" y="16.410312" width="436.2" height="315"/>
  </clipPath>
 </defs>
</svg>
