<?xml version="1.0" encoding="utf-8" standalone="no"?>
<!DOCTYPE svg PUBLIC "-//W3C//DTD SVG 1.1//EN"
  "http://www.w3.org/Graphics/SVG/1.1/DTD/svg11.dtd">
<svg xmlns:xlink="http://www.w3.org/1999/xlink" width="504pt" height="360pt" viewBox="0 0 504 360" xmlns="http://www.w3.org/2000/svg" version="1.1">
 <metadata>
  <rdf:RDF xmlns:dc="http://purl.org/dc/elements/1.1/" xmlns:cc="http://creativecommons.org/ns#" xmlns:rdf="http://www.w3.org/1999/02/22-rdf-syntax-ns#">
   <cc:Work>
    <dc:type rdf:resource="http://purl.org/dc/dcmitype/StillImage"/>
    <dc:date>2025-11-01T23:21:27.893558</dc:date>
    <dc:format>image/svg+xml</dc:format>
    <dc:creator>
     <cc:Agent>
      <dc:title>Matplotlib v3.9.1, https://matplotlib.org/</dc:title>
     </cc:Agent>
    </dc:creator>
   </cc:Work>
  </rdf:RDF>
 </metadata>
 <defs>
  <style type="text/css">*{stroke-linejoin: round; stroke-linecap: butt}</style>
 </defs>
 <g id="figure_1">
  <g id="patch_1">
   <path d="M 0 360 
L 504 360 
L 504 0 
L 0 0 
L 0 360 
z
" style="fill: none"/>
  </g>
  <g id="axes_1">
   <g id="line2d_1">
    <path d="M 87.134166 64.5588 
L 90.598138 79.397939 
L 93.958709 92.834615 
L 97.215877 104.956057 
L 100.369644 115.846808 
L 103.394157 125.509439 
L 106.315269 134.115107 
L 109.132978 141.739634 
L 111.847285 148.456155 
L 114.45819 154.335123 
L 116.965692 159.444309 
L 119.369793 163.848797 
L 121.670491 167.610988 
L 123.867787 170.7906 
L 125.987532 173.47514 
L 128.003874 175.679816 
L 129.942665 177.478884 
L 131.803904 178.910087 
L 133.587591 180.009657 
L 135.319578 180.822606 
L 136.999863 181.371413 
L 138.654298 181.680959 
L 140.282882 181.76198 
L 141.911466 181.621074 
L 143.54005 181.258241 
L 145.194485 180.66241 
L 146.900621 179.808083 
L 148.658458 178.673118 
L 150.467996 177.234703 
L 152.355086 175.442792 
L 154.319727 173.260649 
L 156.36192 170.650029 
L 158.481664 167.571177 
L 160.67896 163.982826 
L 162.979659 159.79266 
L 165.383759 154.940964 
L 167.891262 149.365334 
L 170.476316 143.066499 
L 173.164773 135.922563 
L 175.956631 127.863744 
L 178.851892 118.817577 
L 181.850555 108.70891 
L 184.95262 97.459912 
L 188.158088 84.990063 
L 191.466957 71.216163 
L 192.992139 64.5588 
L 192.992139 64.5588 
" clip-path="url(#p61f19ec7ee)" style="fill: none; stroke: #0072b2; stroke-linecap: square"/>
   </g>
   <g id="line2d_2">
    <path d="M 161.987056 181.764 
L 165.451029 166.924861 
L 168.8116 153.488185 
L 172.068768 141.366743 
L 175.222534 130.475992 
L 178.247048 120.813361 
L 181.168159 112.207693 
L 183.985869 104.583166 
L 186.700176 97.866645 
L 189.31108 91.987677 
L 191.818583 86.878491 
L 194.222684 82.474003 
L 196.523382 78.711812 
L 198.720678 75.5322 
L 200.840423 72.84766 
L 202.856765 70.642984 
L 204.795556 68.843916 
L 206.656795 67.412713 
L 208.440482 66.313143 
L 210.172469 65.500194 
L 211.852754 64.951387 
L 213.507189 64.641841 
L 215.135773 64.56082 
L 216.764357 64.701726 
L 218.392941 65.064559 
L 220.047376 65.66039 
L 221.753512 66.514717 
L 223.511349 67.649682 
L 225.320887 69.088097 
L 227.207976 70.880008 
L 229.172618 73.062151 
L 231.214811 75.672771 
L 233.334555 78.751623 
L 235.531851 82.339974 
L 237.83255 86.53014 
L 240.23665 91.381836 
L 242.744153 96.957466 
L 245.329207 103.256301 
L 248.017663 110.400237 
L 250.809522 118.459056 
L 253.704783 127.505223 
L 256.703446 137.61389 
L 259.805511 148.862888 
L 263.010978 161.332737 
L 266.319848 175.106637 
L 267.84503 181.764 
L 267.84503 181.764 
" clip-path="url(#p61f19ec7ee)" style="fill: none; stroke: #0072b2; stroke-linecap: square"/>
   </g>
   <g id="line2d_3">
    <path d="M 236.839947 64.5588 
L 240.30392 79.397939 
L 243.664491 92.834615 
L 246.921659 104.956057 
L 250.075425 115.846808 
L 253.099939 125.509439 
L 256.02105 134.115107 
L 258.838759 141.739634 
L 261.553066 148.456155 
L 264.163971 154.335123 
L 266.671474 159.444309 
L 269.075574 163.848797 
L 271.376273 167.610988 
L 273.573569 170.7906 
L 275.693313 173.47514 
L 277.709656 175.679816 
L 279.648446 177.478884 
L 281.509686 178.910087 
L 283.293373 180.009657 
L 285.025359 180.822606 
L 286.705645 181.371413 
L 288.360079 181.680959 
L 289.988664 181.76198 
L 291.617248 181.621074 
L 293.245832 181.258241 
L 294.900267 180.66241 
L 296.606403 179.808083 
L 298.36424 178.673118 
L 300.173778 177.234703 
L 302.060867 175.442792 
L 304.025508 173.260649 
L 306.067701 170.650029 
L 308.187446 167.571177 
L 310.384742 163.982826 
L 312.68544 159.79266 
L 315.089541 154.940964 
L 317.597043 149.365334 
L 320.182098 143.066499 
L 322.870554 135.922563 
L 325.662413 127.863744 
L 328.557674 118.817577 
L 331.556337 108.70891 
L 334.658402 97.459912 
L 337.863869 84.990063 
L 341.172739 71.216163 
L 342.697921 64.5588 
L 342.697921 64.5588 
" clip-path="url(#p61f19ec7ee)" style="fill: none; stroke: #0072b2; stroke-linecap: square"/>
   </g>
   <g id="line2d_4">
    <path d="M 311.692838 181.764 
L 315.156811 166.924861 
L 318.517381 153.488185 
L 321.77455 141.366743 
L 324.928316 130.475992 
L 327.95283 120.813361 
L 330.873941 112.207693 
L 333.69165 104.583166 
L 336.405957 97.866645 
L 339.016862 91.987677 
L 341.524365 86.878491 
L 343.928465 82.474003 
L 346.229164 78.711812 
L 348.42646 75.5322 
L 350.546204 72.84766 
L 352.562547 70.642984 
L 354.501337 68.843916 
L 356.362576 67.412713 
L 358.146264 66.313143 
L 359.87825 65.500194 
L 361.558535 64.951387 
L 363.21297 64.641841 
L 364.841554 64.56082 
L 366.470139 64.701726 
L 368.098723 65.064559 
L 369.753158 65.66039 
L 371.459293 66.514717 
L 373.21713 67.649682 
L 375.026668 69.088097 
L 376.913758 70.880008 
L 378.878399 73.062151 
L 380.920592 75.672771 
L 383.040337 78.751623 
L 385.237633 82.339974 
L 387.538331 86.53014 
L 389.942432 91.381836 
L 392.449934 96.957466 
L 395.034989 103.256301 
L 397.723445 110.400237 
L 400.515304 118.459056 
L 403.410565 127.505223 
L 406.409227 137.61389 
L 409.511293 148.862888 
L 412.71676 161.332737 
L 416.025629 175.106637 
L 417.550811 181.764 
L 417.550811 181.764 
" clip-path="url(#p61f19ec7ee)" style="fill: none; stroke: #0072b2; stroke-linecap: square"/>
   </g>
   <g id="line2d_5">
    <path d="M 87.134166 298.9692 
L 90.598138 284.130061 
L 93.958709 270.693385 
L 97.215877 258.571943 
L 100.369644 247.681192 
L 103.394157 238.018561 
L 106.315269 229.412893 
L 109.132978 221.788366 
L 111.847285 215.071845 
L 114.45819 209.192877 
L 116.965692 204.083691 
L 119.369793 199.679203 
L 121.670491 195.917012 
L 123.867787 192.7374 
L 125.987532 190.05286 
L 128.003874 187.848184 
L 129.942665 186.049116 
L 131.803904 184.617913 
L 133.587591 183.518343 
L 135.319578 182.705394 
L 136.999863 182.156587 
L 138.654298 181.847041 
L 140.282882 181.76602 
L 141.911466 181.906926 
L 143.54005 182.269759 
L 145.194485 182.86559 
L 146.900621 183.719917 
L 148.658458 184.854882 
L 150.467996 186.293297 
L 152.355086 188.085208 
L 154.319727 190.267351 
L 156.36192 192.877971 
L 158.481664 195.956823 
L 160.67896 199.545174 
L 162.979659 203.73534 
L 165.383759 208.587036 
L 167.891262 214.162666 
L 170.476316 220.461501 
L 173.164773 227.605437 
L 175.956631 235.664256 
L 178.851892 244.710423 
L 181.850555 254.81909 
L 184.95262 266.068088 
L 188.158088 278.537937 
L 191.466957 292.311837 
L 192.992139 298.9692 
L 192.992139 298.9692 
" clip-path="url(#p61f19ec7ee)" style="fill: none; stroke: #0072b2; stroke-linecap: square"/>
   </g>
   <g id="line2d_6">
    <path d="M 161.987056 181.764 
L 165.451029 196.603139 
L 168.8116 210.039815 
L 172.068768 222.161257 
L 175.222534 233.052008 
L 178.247048 242.714639 
L 181.168159 251.320307 
L 183.985869 258.944834 
L 186.700176 265.661355 
L 189.31108 271.540323 
L 191.818583 276.649509 
L 194.222684 281.053997 
L 196.523382 284.816188 
L 198.720678 287.9958 
L 200.840423 290.68034 
L 202.856765 292.885016 
L 204.795556 294.684084 
L 206.656795 296.115287 
L 208.440482 297.214857 
L 210.172469 298.027806 
L 211.852754 298.576613 
L 213.507189 298.886159 
L 215.135773 298.96718 
L 216.764357 298.826274 
L 218.392941 298.463441 
L 220.047376 297.86761 
L 221.753512 297.013283 
L 223.511349 295.878318 
L 225.320887 294.439903 
L 227.207976 292.647992 
L 229.172618 290.465849 
L 231.214811 287.855229 
L 233.334555 284.776377 
L 235.531851 281.188026 
L 237.83255 276.99786 
L 240.23665 272.146164 
L 242.744153 266.570534 
L 245.329207 260.271699 
L 248.017663 253.127763 
L 250.809522 245.068944 
L 253.704783 236.022777 
L 256.703446 225.91411 
L 259.805511 214.665112 
L 263.010978 202.195263 
L 266.319848 188.421363 
L 267.84503 181.764 
L 267.84503 181.764 
" clip-path="url(#p61f19ec7ee)" style="fill: none; stroke: #0072b2; stroke-linecap: square"/>
   </g>
   <g id="line2d_7">
    <path d="M 236.839947 298.9692 
L 240.30392 284.130061 
L 243.664491 270.693385 
L 246.921659 258.571943 
L 250.075425 247.681192 
L 253.099939 238.018561 
L 256.02105 229.412893 
L 258.838759 221.788366 
L 261.553066 215.071845 
L 264.163971 209.192877 
L 266.671474 204.083691 
L 269.075574 199.679203 
L 271.376273 195.917012 
L 273.573569 192.7374 
L 275.693313 190.05286 
L 277.709656 187.848184 
L 279.648446 186.049116 
L 281.509686 184.617913 
L 283.293373 183.518343 
L 285.025359 182.705394 
L 286.705645 182.156587 
L 288.360079 181.847041 
L 289.988664 181.76602 
L 291.617248 181.906926 
L 293.245832 182.269759 
L 294.900267 182.86559 
L 296.606403 183.719917 
L 298.36424 184.854882 
L 300.173778 186.293297 
L 302.060867 188.085208 
L 304.025508 190.267351 
L 306.067701 192.877971 
L 308.187446 195.956823 
L 310.384742 199.545174 
L 312.68544 203.73534 
L 315.089541 208.587036 
L 317.597043 214.162666 
L 320.182098 220.461501 
L 322.870554 227.605437 
L 325.662413 235.664256 
L 328.557674 244.710423 
L 331.556337 254.81909 
L 334.658402 266.068088 
L 337.863869 278.537937 
L 341.172739 292.311837 
L 342.697921 298.9692 
L 342.697921 298.9692 
" clip-path="url(#p61f19ec7ee)" style="fill: none; stroke: #0072b2; stroke-linecap: square"/>
   </g>
   <g id="line2d_8">
    <path d="M 311.692838 181.764 
L 315.156811 196.603139 
L 318.517381 210.039815 
L 321.77455 222.161257 
L 324.928316 233.052008 
L 327.95283 242.714639 
L 330.873941 251.320307 
L 333.69165 258.944834 
L 336.405957 265.661355 
L 339.016862 271.540323 
L 341.524365 276.649509 
L 343.928465 281.053997 
L 346.229164 284.816188 
L 348.42646 287.9958 
L 350.546204 290.68034 
L 352.562547 292.885016 
L 354.501337 294.684084 
L 356.362576 296.115287 
L 358.146264 297.214857 
L 359.87825 298.027806 
L 361.558535 298.576613 
L 363.21297 298.886159 
L 364.841554 298.96718 
L 366.470139 298.826274 
L 368.098723 298.463441 
L 369.753158 297.86761 
L 371.459293 297.013283 
L 373.21713 295.878318 
L 375.026668 294.439903 
L 376.913758 292.647992 
L 378.878399 290.465849 
L 380.920592 287.855229 
L 383.040337 284.776377 
L 385.237633 281.188026 
L 387.538331 276.99786 
L 389.942432 272.146164 
L 392.449934 266.570534 
L 395.034989 260.271699 
L 397.723445 253.127763 
L 400.515304 245.068944 
L 403.410565 236.022777 
L 406.409227 225.91411 
L 409.511293 214.665112 
L 412.71676 202.195263 
L 416.025629 188.421363 
L 417.550811 181.764 
L 417.550811 181.764 
" clip-path="url(#p61f19ec7ee)" style="fill: none; stroke: #0072b2; stroke-linecap: square"/>
   </g>
   <g id="LineCollection_1">
    <path d="M 87.134166 298.9692 
L 87.134166 64.5588 
" clip-path="url(#p61f19ec7ee)" style="fill: none; stroke: #0072b2"/>
   </g>
   <g id="LineCollection_2">
    <path d="M 417.550811 298.9692 
L 417.550811 64.5588 
" clip-path="url(#p61f19ec7ee)" style="fill: none; stroke: #0072b2"/>
   </g>
   <g id="LineCollection_3">
    <path d="M 87.134166 298.9692 
L 417.550811 298.9692 
" clip-path="url(#p61f19ec7ee)" style="fill: none; stroke: #0072b2"/>
   </g>
   <g id="LineCollection_4">
    <path d="M 87.134166 64.5588 
L 417.550811 64.5588 
" clip-path="url(#p61f19ec7ee)" style="fill: none; stroke: #0072b2"/>
   </g>
   <g id="LineCollection_5">
    <path d="M 161.987056 181.764 
L 267.84503 181.764 
" clip-path="url(#p61f19ec7ee)" style="fill: none; stroke: #0072b2"/>
   </g>
   <g id="LineCollection_6">
    <path d="M 311.692838 181.764 
L 417.550811 181.764 
" clip-path="url(#p61f19ec7ee)" style="fill: none; stroke: #0072b2"/>
   </g>
   <g id="LineCollection_7">
    <path d="M 87.134166 123.1614 
L 417.550811 123.1614 
" clip-path="url(#p61f19ec7ee)" style="fill: none; stroke-dasharray: 3.7,1.6; stroke-dashoffset: 0; stroke: #808080"/>
   </g>
   <g id="LineCollection_8">
    <path d="M 87.134166 181.764 
L 417.550811 181.764 
" clip-path="url(#p61f19ec7ee)" style="fill: none; stroke-dasharray: 3.7,1.6; stroke-dashoffset: 0; stroke: #808080"/>
   </g>
   <g id="patch_2">
    <path d="M 190.992442 47.8152 
Q 140.063282 47.8152 89.134122 47.8152 
" style="fill: none; stroke: #000000; stroke-linecap: round"/>
    <path d="M 190.992442 52.8152 
L 190.992442 52.8152 
L 190.992442 42.8152 
L 190.992442 42.8152 
" style="fill: none; stroke: #000000; stroke-linecap: round"/>
    <path d="M 89.134122 42.8152 
L 89.134122 42.8152 
L 89.134122 52.8152 
L 89.134122 52.8152 
" style="fill: none; stroke: #000000; stroke-linecap: round"/>
   </g>
   <g id="patch_3">
    <path d="M 78.665528 66.558242 
Q 78.665528 93.859661 78.665528 121.161081 
" style="fill: none; stroke: #000000; stroke-linecap: round"/>
    <path d="M 83.665528 66.558242 
L 83.665528 66.558242 
L 73.665528 66.558242 
L 73.665528 66.558242 
" style="fill: none; stroke: #000000; stroke-linecap: round"/>
    <path d="M 73.665528 121.161081 
L 73.665528 121.161081 
L 83.665528 121.161081 
L 83.665528 121.161081 
" style="fill: none; stroke: #000000; stroke-linecap: round"/>
   </g>
   <g id="patch_4">
    <path d="M 425.87968 66.558242 
Q 425.87968 123.160876 425.87968 179.763509 
" style="fill: none; stroke: #000000; stroke-linecap: round"/>
    <path d="M 430.87968 66.558242 
L 430.87968 66.558242 
L 420.87968 66.558242 
L 420.87968 66.558242 
" style="fill: none; stroke: #000000; stroke-linecap: round"/>
    <path d="M 420.87968 179.763509 
L 420.87968 179.763509 
L 430.87968 179.763509 
L 430.87968 179.763509 
" style="fill: none; stroke: #000000; stroke-linecap: round"/>
   </g>
   <g id="text_1">
    <!-- 150 cm -->
    <g transform="translate(102.558465 30.260945) scale(0.2 -0.2)">
     <defs>
      <path id="DejaVuSans-31" d="M 794 531 
L 1825 531 
L 1825 4091 
L 703 3866 
L 703 4441 
L 1819 4666 
L 2450 4666 
L 2450 531 
L 3481 531 
L 3481 0 
L 794 0 
L 794 531 
z
" transform="scale(0.015625)"/>
      <path id="DejaVuSans-35" d="M 691 4666 
L 3169 4666 
L 3169 4134 
L 1269 4134 
L 1269 2991 
Q 1406 3038 1543 3061 
Q 1681 3084 1819 3084 
Q 2600 3084 3056 2656 
Q 3513 2228 3513 1497 
Q 3513 744 3044 326 
Q 2575 -91 1722 -91 
Q 1428 -91 1123 -41 
Q 819 9 494 109 
L 494 744 
Q 775 591 1075 516 
Q 1375 441 1709 441 
Q 2250 441 2565 725 
Q 2881 1009 2881 1497 
Q 2881 1984 2565 2268 
Q 2250 2553 1709 2553 
Q 1456 2553 1204 2497 
Q 953 2441 691 2322 
L 691 4666 
z
" transform="scale(0.015625)"/>
      <path id="DejaVuSans-30" d="M 2034 4250 
Q 1547 4250 1301 3770 
Q 1056 3291 1056 2328 
Q 1056 1369 1301 889 
Q 1547 409 2034 409 
Q 2525 409 2770 889 
Q 3016 1369 3016 2328 
Q 3016 3291 2770 3770 
Q 2525 4250 2034 4250 
z
M 2034 4750 
Q 2819 4750 3233 4129 
Q 3647 3509 3647 2328 
Q 3647 1150 3233 529 
Q 2819 -91 2034 -91 
Q 1250 -91 836 529 
Q 422 1150 422 2328 
Q 422 3509 836 4129 
Q 1250 4750 2034 4750 
z
" transform="scale(0.015625)"/>
      <path id="DejaVuSans-20" transform="scale(0.015625)"/>
      <path id="DejaVuSans-63" d="M 3122 3366 
L 3122 2828 
Q 2878 2963 2633 3030 
Q 2388 3097 2138 3097 
Q 1578 3097 1268 2742 
Q 959 2388 959 1747 
Q 959 1106 1268 751 
Q 1578 397 2138 397 
Q 2388 397 2633 464 
Q 2878 531 3122 666 
L 3122 134 
Q 2881 22 2623 -34 
Q 2366 -91 2075 -91 
Q 1284 -91 818 406 
Q 353 903 353 1747 
Q 353 2603 823 3093 
Q 1294 3584 2113 3584 
Q 2378 3584 2631 3529 
Q 2884 3475 3122 3366 
z
" transform="scale(0.015625)"/>
      <path id="DejaVuSans-6d" d="M 3328 2828 
Q 3544 3216 3844 3400 
Q 4144 3584 4550 3584 
Q 5097 3584 5394 3201 
Q 5691 2819 5691 2113 
L 5691 0 
L 5113 0 
L 5113 2094 
Q 5113 2597 4934 2840 
Q 4756 3084 4391 3084 
Q 3944 3084 3684 2787 
Q 3425 2491 3425 1978 
L 3425 0 
L 2847 0 
L 2847 2094 
Q 2847 2600 2669 2842 
Q 2491 3084 2119 3084 
Q 1678 3084 1418 2786 
Q 1159 2488 1159 1978 
L 1159 0 
L 581 0 
L 581 3500 
L 1159 3500 
L 1159 2956 
Q 1356 3278 1631 3431 
Q 1906 3584 2284 3584 
Q 2666 3584 2933 3390 
Q 3200 3197 3328 2828 
z
" transform="scale(0.015625)"/>
     </defs>
     <use xlink:href="#DejaVuSans-31"/>
     <use xlink:href="#DejaVuSans-35" x="63.623047"/>
     <use xlink:href="#DejaVuSans-30" x="127.246094"/>
     <use xlink:href="#DejaVuSans-20" x="190.869141"/>
     <use xlink:href="#DejaVuSans-63" x="222.65625"/>
     <use xlink:href="#DejaVuSans-6d" x="277.636719"/>
    </g>
   </g>
   <g id="text_2">
    <!-- 35 cm -->
    <g transform="translate(10.876538 99.37885) scale(0.2 -0.2)">
     <defs>
      <path id="DejaVuSans-33" d="M 2597 2516 
Q 3050 2419 3304 2112 
Q 3559 1806 3559 1356 
Q 3559 666 3084 287 
Q 2609 -91 1734 -91 
Q 1441 -91 1130 -33 
Q 819 25 488 141 
L 488 750 
Q 750 597 1062 519 
Q 1375 441 1716 441 
Q 2309 441 2620 675 
Q 2931 909 2931 1356 
Q 2931 1769 2642 2001 
Q 2353 2234 1838 2234 
L 1294 2234 
L 1294 2753 
L 1863 2753 
Q 2328 2753 2575 2939 
Q 2822 3125 2822 3475 
Q 2822 3834 2567 4026 
Q 2313 4219 1838 4219 
Q 1578 4219 1281 4162 
Q 984 4106 628 3988 
L 628 4550 
Q 988 4650 1302 4700 
Q 1616 4750 1894 4750 
Q 2613 4750 3031 4423 
Q 3450 4097 3450 3541 
Q 3450 3153 3228 2886 
Q 3006 2619 2597 2516 
z
" transform="scale(0.015625)"/>
     </defs>
     <use xlink:href="#DejaVuSans-33"/>
     <use xlink:href="#DejaVuSans-35" x="63.623047"/>
     <use xlink:href="#DejaVuSans-20" x="127.246094"/>
     <use xlink:href="#DejaVuSans-63" x="159.033203"/>
     <use xlink:href="#DejaVuSans-6d" x="214.013672"/>
    </g>
   </g>
   <g id="text_3">
    <!-- 70 cm -->
    <g transform="translate(431.384295 128.68015) scale(0.2 -0.2)">
     <defs>
      <path id="DejaVuSans-37" d="M 525 4666 
L 3525 4666 
L 3525 4397 
L 1831 0 
L 1172 0 
L 2766 4134 
L 525 4134 
L 525 4666 
z
" transform="scale(0.015625)"/>
     </defs>
     <use xlink:href="#DejaVuSans-37"/>
     <use xlink:href="#DejaVuSans-30" x="63.623047"/>
     <use xlink:href="#DejaVuSans-20" x="127.246094"/>
     <use xlink:href="#DejaVuSans-63" x="159.033203"/>
     <use xlink:href="#DejaVuSans-6d" x="214.013672"/>
    </g>
   </g>
  </g>
 </g>
 <defs>
  <clipPath id="p61f19ec7ee">
   <rect x="73.019769" y="14.328" width="366.974308" height="334.872"/>
  </clipPath>
 </defs>
</svg>
