<?xml version="1.0" encoding="utf-8" standalone="no"?>
<!DOCTYPE svg PUBLIC "-//W3C//DTD SVG 1.1//EN"
  "http://www.w3.org/Graphics/SVG/1.1/DTD/svg11.dtd">
<svg xmlns:xlink="http://www.w3.org/1999/xlink" width="432pt" height="432pt" viewBox="0 0 432 432" xmlns="http://www.w3.org/2000/svg" version="1.1">
 <metadata>
  <rdf:RDF xmlns:dc="http://purl.org/dc/elements/1.1/" xmlns:cc="http://creativecommons.org/ns#" xmlns:rdf="http://www.w3.org/1999/02/22-rdf-syntax-ns#">
   <cc:Work>
    <dc:type rdf:resource="http://purl.org/dc/dcmitype/StillImage"/>
    <dc:date>2026-04-20T18:27:50.956616</dc:date>
    <dc:format>image/svg+xml</dc:format>
    <dc:creator>
     <cc:Agent>
      <dc:title>Matplotlib v3.10.8, https://matplotlib.org/</dc:title>
     </cc:Agent>
    </dc:creator>
   </cc:Work>
  </rdf:RDF>
 </metadata>
 <defs>
  <style type="text/css">*{stroke-linejoin: round; stroke-linecap: butt}</style>
 </defs>
 <g id="figure_1">
  <g id="patch_1">
   <path d="M 0 432 
L 432 432 
L 432 0 
L 0 0 
L 0 432 
z
" style="fill: none"/>
  </g>
  <g id="axes_1">
   <g id="line2d_1">
    <path d="M 46.513075 380.791384 
L 393.541911 380.791384 
" clip-path="url(#p9dcfd5d491)" style="fill: none; stroke: #0072b2; stroke-width: 3; stroke-linecap: square"/>
   </g>
   <g id="line2d_2">
    <path d="M 393.541911 380.791384 
L 373.695 53.609459 
" clip-path="url(#p9dcfd5d491)" style="fill: none; stroke: #0072b2; stroke-width: 3; stroke-linecap: square"/>
   </g>
   <g id="line2d_3">
    <path d="M 373.695 53.609459 
L 46.513075 380.791384 
" clip-path="url(#p9dcfd5d491)" style="fill: none; stroke: #0072b2; stroke-width: 3; stroke-linecap: square"/>
   </g>
   <g id="line2d_4">
    <path d="M 112.187349 380.791384 
L 112.178558 379.716839 
L 112.152187 378.642582 
L 112.108242 377.5689 
L 112.046736 376.496081 
L 111.967685 375.424412 
L 111.87111 374.354179 
L 111.757037 373.285671 
L 111.625497 372.219171 
L 111.476525 371.154967 
L 111.31016 370.093342 
L 111.126448 369.034582 
L 110.925437 367.978969 
L 110.707181 366.926786 
L 110.471739 365.878315 
L 110.219174 364.833837 
L 109.949553 363.793631 
L 109.662948 362.757976 
L 109.359437 361.727148 
L 109.039101 360.701425 
L 108.702024 359.68108 
L 108.348298 358.666387 
L 107.978018 357.657618 
L 107.591281 356.655042 
L 107.188193 355.658927 
L 106.76886 354.669542 
L 106.333396 353.687149 
L 105.881916 352.712013 
L 105.414542 351.744395 
L 104.931398 350.784554 
L 104.432614 349.832745 
L 103.918324 348.889226 
L 103.388665 347.954247 
L 102.843779 347.028059 
L 102.283812 346.110911 
L 101.708914 345.203048 
L 101.119238 344.304712 
L 100.514944 343.416145 
L 99.896191 342.537584 
L 99.263147 341.669264 
L 98.61598 340.811419 
L 97.954864 339.964277 
L 97.279976 339.128065 
L 96.591496 338.303008 
L 95.889609 337.489326 
L 95.174503 336.687237 
L 94.446368 335.896956 
L 93.705401 335.118694 
L 92.9518 334.352659 
" clip-path="url(#p9dcfd5d491)" style="fill: none; stroke: #dc5e8b; stroke-width: 2.4; stroke-linecap: square"/>
   </g>
   <g id="line2d_5">
    <path d="M 327.867637 380.791384 
L 327.90014 378.725434 
L 327.997616 376.661529 
L 328.15997 374.601711 
L 328.38704 372.54802 
L 328.678602 370.502489 
L 329.034366 368.467142 
L 329.453982 366.443993 
L 329.937033 364.435046 
L 330.483042 362.442289 
L 331.091467 360.467694 
L 331.761708 358.513216 
L 332.4931 356.58079 
L 333.284919 354.672327 
L 334.136381 352.789718 
L 335.046645 350.934825 
L 336.014808 349.109485 
L 337.039913 347.315504 
L 338.120945 345.554659 
L 339.256834 343.828691 
L 340.446455 342.13931 
L 341.688631 340.488188 
L 342.982132 338.876959 
L 344.325679 337.307217 
L 345.717941 335.780517 
L 347.15754 334.298369 
L 348.643051 332.862242 
L 350.173005 331.473555 
L 351.745885 330.133685 
L 353.360136 328.843956 
L 355.01416 327.605646 
L 356.70632 326.419981 
L 358.43494 325.288133 
L 360.19831 324.211224 
L 361.994684 323.190319 
L 363.822284 322.226428 
L 365.679301 321.320507 
L 367.563897 320.473451 
L 369.474207 319.686099 
L 371.408339 318.95923 
L 373.36438 318.293564 
L 375.340393 317.689759 
L 377.334422 317.148414 
L 379.344494 316.670064 
L 381.368618 316.255183 
L 383.404792 315.904181 
L 385.451 315.617406 
L 387.505216 315.395141 
L 389.565408 315.237607 
" clip-path="url(#p9dcfd5d491)" style="fill: none; stroke: #dc5e8b; stroke-width: 2.4; stroke-linecap: square"/>
   </g>
   <g id="line2d_6">
    <path d="M 327.256275 100.048184 
L 328.081912 100.859396 
L 328.921718 101.655932 
L 329.775431 102.437543 
L 330.642786 103.203988 
L 331.523514 103.955027 
L 332.417342 104.690428 
L 333.323992 105.409961 
L 334.243181 106.113405 
L 335.174625 106.80054 
L 336.118034 107.471153 
L 337.073116 108.125034 
L 338.039573 108.761983 
L 339.017105 109.3818 
L 340.005409 109.984292 
L 341.004178 110.569274 
L 342.013101 111.136562 
L 343.031865 111.685982 
L 344.060154 112.217362 
L 345.097648 112.730537 
L 346.144025 113.225347 
L 347.198959 113.70164 
L 348.262124 114.159267 
L 349.33319 114.598086 
L 350.411822 115.01796 
L 351.497686 115.41876 
L 352.590446 115.80036 
L 353.689761 116.162643 
L 354.79529 116.505495 
L 355.90669 116.82881 
L 357.023615 117.132489 
L 358.145719 117.416435 
L 359.272652 117.680562 
L 360.404066 117.924787 
L 361.539607 118.149034 
L 362.678925 118.353234 
L 363.821664 118.537324 
L 364.967471 118.701245 
L 366.115988 118.844947 
L 367.266859 118.968386 
L 368.419728 119.071523 
L 369.574234 119.154327 
L 370.730021 119.21677 
L 371.886729 119.258835 
L 373.043998 119.280507 
L 374.20147 119.281781 
L 375.358784 119.262655 
L 376.515582 119.223137 
L 377.671503 119.163237 
" clip-path="url(#p9dcfd5d491)" style="fill: none; stroke: #dc5e8b; stroke-width: 2.4; stroke-linecap: square"/>
   </g>
   <g id="text_1">
    <!-- $c$ -->
    <g transform="translate(210.581265 411.7002) scale(0.45 -0.45)">
     <defs>
      <path id="CMMI12-63" d="M 2502 2431 
C 2381 2431 2323 2431 2234 2355 
C 2195 2323 2125 2227 2125 2125 
C 2125 1997 2221 1920 2342 1920 
C 2496 1920 2669 2044 2669 2292 
C 2669 2588 2374 2816 1933 2816 
C 1094 2816 256 1903 256 996 
C 256 441 602 -64 1254 -64 
C 2125 -64 2675 622 2675 706 
C 2675 744 2637 776 2611 776 
C 2592 776 2586 770 2528 713 
C 2118 162 1510 64 1267 64 
C 826 64 685 446 685 764 
C 685 988 794 1605 1024 2039 
C 1190 2338 1536 2682 1939 2682 
C 2022 2682 2374 2682 2502 2431 
z
" transform="scale(0.015625)"/>
     </defs>
     <use xlink:href="#CMMI12-63" transform="scale(0.996264)"/>
    </g>
   </g>
   <g id="text_2">
    <!-- $a$ -->
    <g transform="translate(391.762824 227.214004) scale(0.45 -0.45)">
     <defs>
      <path id="CMMI12-61" d="M 1926 760 
C 1894 651 1894 639 1805 517 
C 1664 338 1382 64 1082 64 
C 819 64 672 300 672 677 
C 672 1028 870 1743 992 2012 
C 1210 2459 1510 2689 1760 2689 
C 2182 2689 2266 2165 2266 2114 
C 2266 2108 2246 2024 2240 2012 
L 1926 760 
z
M 2336 2395 
C 2266 2561 2093 2816 1760 2816 
C 1037 2816 256 1884 256 939 
C 256 307 627 -64 1062 -64 
C 1414 -64 1715 211 1894 422 
C 1958 45 2259 -64 2451 -64 
C 2643 -64 2797 51 2912 281 
C 3014 498 3104 888 3104 913 
C 3104 945 3078 971 3040 971 
C 2982 971 2976 939 2950 843 
C 2854 466 2733 64 2470 64 
C 2285 64 2272 230 2272 358 
C 2272 505 2291 575 2349 824 
C 2394 984 2426 1124 2477 1309 
C 2714 2267 2771 2497 2771 2535 
C 2771 2625 2701 2695 2605 2695 
C 2400 2695 2349 2472 2336 2395 
z
" transform="scale(0.015625)"/>
     </defs>
     <use xlink:href="#CMMI12-61" transform="scale(0.996264)"/>
    </g>
   </g>
   <g id="text_3">
    <!-- $b$ -->
    <g transform="translate(186.84035 214.475338) scale(0.45 -0.45)">
     <defs>
      <path id="CMMI12-62" d="M 1478 4257 
C 1485 4283 1498 4321 1498 4352 
C 1498 4416 1434 4416 1421 4416 
C 1414 4416 1184 4393 1069 4377 
C 960 4377 864 4358 749 4358 
C 595 4345 550 4339 550 4224 
C 550 4160 614 4160 678 4160 
C 1005 4160 1005 4103 1005 4040 
C 1005 3996 954 3811 928 3696 
L 774 3085 
C 710 2831 346 1387 320 1272 
C 288 1114 288 1005 288 922 
C 288 274 653 -64 1069 -64 
C 1811 -64 2579 888 2579 1814 
C 2579 2401 2246 2816 1766 2816 
C 1434 2816 1133 2542 1011 2414 
L 1478 4257 
z
M 1075 64 
C 870 64 646 217 646 715 
C 646 926 666 1047 781 1494 
C 800 1577 902 1986 928 2069 
C 941 2120 1318 2689 1754 2689 
C 2035 2689 2163 2408 2163 2076 
C 2163 1769 1984 1047 1824 715 
C 1664 370 1370 64 1075 64 
z
" transform="scale(0.015625)"/>
     </defs>
     <use xlink:href="#CMMI12-62" transform="scale(0.996264)"/>
    </g>
   </g>
   <g id="text_4">
    <!-- $A$ -->
    <g transform="translate(6.276546 401.849059) scale(0.45 -0.45)">
     <defs>
      <path id="CMMI12-41" d="M 1088 691 
C 864 314 646 186 339 186 
C 269 180 218 180 218 58 
C 218 24 250 0 294 0 
C 410 0 698 0 813 0 
C 998 0 1203 0 1382 0 
C 1421 0 1498 0 1498 122 
C 1498 180 1446 186 1408 186 
C 1261 186 1139 236 1139 388 
C 1139 476 1178 546 1261 685 
L 1747 1479 
L 3379 1479 
C 3386 1423 3386 1373 3392 1316 
C 3411 1152 3488 495 3488 376 
C 3488 186 3162 186 3059 186 
C 2989 186 2918 186 2918 70 
C 2918 0 2976 0 3014 0 
C 3123 0 3251 0 3360 0 
L 3725 0 
C 4115 0 4397 0 4403 0 
C 4448 0 4518 0 4518 122 
C 4518 186 4461 186 4365 186 
C 4013 186 4006 244 3987 434 
L 3597 4404 
C 3584 4531 3558 4544 3488 4544 
C 3424 4544 3386 4531 3328 4435 
L 1088 691 
z
M 1856 1664 
L 3142 3819 
L 3360 1664 
L 1856 1664 
z
" transform="scale(0.015625)"/>
     </defs>
     <use xlink:href="#CMMI12-41" transform="scale(0.996264)"/>
    </g>
   </g>
   <g id="text_5">
    <!-- $B$ -->
    <g transform="translate(391.2148 405.501178) scale(0.45 -0.45)">
     <defs>
      <path id="CMMI12-42" d="M 2342 3921 
C 2400 4160 2426 4160 2675 4160 
L 3507 4160 
C 4230 4160 4230 3544 4230 3485 
C 4230 2966 3712 2304 2867 2304 
L 1946 2304 
L 2342 3921 
z
M 3424 2275 
C 4122 2402 4755 2886 4755 3473 
C 4755 3970 4314 4352 3590 4352 
L 1536 4352 
C 1414 4352 1357 4352 1357 4226 
C 1357 4160 1414 4160 1510 4160 
C 1901 4160 1901 4112 1901 4044 
C 1901 4032 1901 3993 1875 3897 
L 1011 472 
C 954 249 941 185 493 185 
C 371 185 307 185 307 70 
C 307 0 346 0 474 0 
L 2669 0 
C 3648 0 4403 739 4403 1383 
C 4403 1906 3942 2224 3424 2275 
z
M 2515 185 
L 1651 185 
C 1562 185 1549 185 1510 192 
C 1440 198 1434 211 1434 261 
C 1434 305 1446 343 1459 399 
L 1907 2176 
L 3110 2176 
C 3866 2176 3866 1483 3866 1433 
C 3866 828 3309 185 2515 185 
z
" transform="scale(0.015625)"/>
     </defs>
     <use xlink:href="#CMMI12-42" transform="scale(0.996264)"/>
    </g>
   </g>
   <g id="text_6">
    <!-- $C$ -->
    <g transform="translate(366.499849 42.376321) scale(0.45 -0.45)">
     <defs>
      <path id="CMMI12-43" d="M 4781 4423 
C 4781 4480 4736 4480 4723 4480 
C 4710 4480 4685 4480 4634 4416 
L 4192 3882 
C 3968 4264 3616 4480 3136 4480 
C 1754 4480 320 3088 320 1595 
C 320 533 1069 -128 2003 -128 
C 2515 -128 2963 88 3334 400 
C 3891 863 4058 1481 4058 1531 
C 4058 1588 4006 1588 3987 1588 
C 3930 1588 3923 1550 3910 1524 
C 3616 534 2752 57 2112 57 
C 1434 57 845 489 845 1391 
C 845 1595 909 2700 1632 3532 
C 1984 3939 2586 4295 3194 4295 
C 3898 4295 4211 3717 4211 3068 
C 4211 2903 4192 2764 4192 2738 
C 4192 2681 4256 2681 4275 2681 
C 4346 2681 4352 2687 4378 2801 
L 4781 4423 
z
" transform="scale(0.015625)"/>
     </defs>
     <use xlink:href="#CMMI12-43" transform="scale(0.996264)"/>
    </g>
   </g>
  </g>
 </g>
 <defs>
  <clipPath id="p9dcfd5d491">
   <rect x="32.894394" y="27.565954" width="374.266198" height="379.268935"/>
  </clipPath>
 </defs>
</svg>
