<?xml version="1.0" encoding="utf-8" standalone="no"?>
<!DOCTYPE svg PUBLIC "-//W3C//DTD SVG 1.1//EN"
  "http://www.w3.org/Graphics/SVG/1.1/DTD/svg11.dtd">
<svg xmlns:xlink="http://www.w3.org/1999/xlink" width="460.8pt" height="345.6pt" viewBox="0 0 460.8 345.6" xmlns="http://www.w3.org/2000/svg" version="1.1">
 <metadata>
  <rdf:RDF xmlns:dc="http://purl.org/dc/elements/1.1/" xmlns:cc="http://creativecommons.org/ns#" xmlns:rdf="http://www.w3.org/1999/02/22-rdf-syntax-ns#">
   <cc:Work>
    <dc:type rdf:resource="http://purl.org/dc/dcmitype/StillImage"/>
    <dc:date>2025-10-08T15:57:02.965660</dc:date>
    <dc:format>image/svg+xml</dc:format>
    <dc:creator>
     <cc:Agent>
      <dc:title>Matplotlib v3.9.1, https://matplotlib.org/</dc:title>
     </cc:Agent>
    </dc:creator>
   </cc:Work>
  </rdf:RDF>
 </metadata>
 <defs>
  <style type="text/css">*{stroke-linejoin: round; stroke-linecap: butt}</style>
 </defs>
 <g id="figure_1">
  <g id="patch_1">
   <path d="M 0 345.6 
L 460.8 345.6 
L 460.8 0 
L 0 0 
L 0 345.6 
z
" style="fill: none"/>
  </g>
  <g id="axes_1">
   <g id="patch_2">
    <path d="M 19.643284 334.8 
L 447 334.8 
L 447 20.016315 
L 19.643284 20.016315 
L 19.643284 334.8 
z
" style="fill: none"/>
   </g>
   <g id="patch_3">
    <path d="M 233.321642 248.949988 
C 252.294757 248.949988 270.493337 241.41189 283.909356 227.995871 
C 297.325374 214.579853 304.863473 196.381273 304.863473 177.408158 
C 304.863473 158.435042 297.325374 140.236462 283.909356 126.820444 
C 270.493337 113.404425 252.294757 105.866327 233.321642 105.866327 
C 214.348527 105.866327 196.149947 113.404425 182.733928 126.820444 
C 169.31791 140.236462 161.779811 158.435042 161.779811 177.408158 
C 161.779811 196.381273 169.31791 214.579853 182.733928 227.995871 
C 196.149947 241.41189 214.348527 248.949988 233.321642 248.949988 
L 233.321642 248.949988 
z
" clip-path="url(#pfcd2473651)" style="fill: none; stroke: #000000; stroke-width: 2.5; stroke-linejoin: miter"/>
   </g>
   <g id="matplotlib.axis_1">
    <g id="xtick_1">
     <g id="line2d_1">
      <path d="M 90.23798 334.8 
L 90.23798 20.016315 
" clip-path="url(#pfcd2473651)" style="fill: none; stroke-dasharray: 2.96,1.28; stroke-dashoffset: 0; stroke: #b0b0b0; stroke-opacity: 0.6; stroke-width: 0.8"/>
     </g>
     <g id="line2d_2">
      <defs>
       <path id="m3c0b781896" d="M 0 0 
L 0 3.5 
" style="stroke: #000000; stroke-width: 0.8"/>
      </defs>
      <g>
       <use xlink:href="#m3c0b781896" x="90.23798" y="177.408158" style="stroke: #000000; stroke-width: 0.8"/>
      </g>
     </g>
     <g id="text_1">
      <!-- $\mathdefault{−2}$ -->
      <g transform="translate(77.920189 198.245154) scale(0.2 -0.2)">
       <defs>
        <path id="CMSY10-0" d="M 4218 1472 
C 4326 1472 4442 1472 4442 1600 
C 4442 1728 4326 1728 4218 1728 
L 755 1728 
C 646 1728 531 1728 531 1600 
C 531 1472 646 1472 755 1472 
L 4218 1472 
z
" transform="scale(0.015625)"/>
        <path id="CMR17-32" d="M 2669 989 
L 2554 989 
C 2490 536 2438 459 2413 420 
C 2381 369 1920 369 1830 369 
L 602 369 
C 832 619 1280 1072 1824 1597 
C 2214 1967 2669 2402 2669 3035 
C 2669 3790 2067 4224 1395 4224 
C 691 4224 262 3604 262 3030 
C 262 2780 448 2748 525 2748 
C 589 2748 781 2787 781 3010 
C 781 3207 614 3264 525 3264 
C 486 3264 448 3258 422 3245 
C 544 3790 915 4058 1306 4058 
C 1862 4058 2227 3617 2227 3035 
C 2227 2479 1901 2000 1536 1584 
L 262 146 
L 262 0 
L 2515 0 
L 2669 989 
z
" transform="scale(0.015625)"/>
       </defs>
       <use xlink:href="#CMSY10-0" transform="scale(0.996264)"/>
       <use xlink:href="#CMR17-32" transform="translate(77.487468 0) scale(0.996264)"/>
      </g>
     </g>
    </g>
    <g id="xtick_2">
     <g id="line2d_3">
      <path d="M 161.779811 334.8 
L 161.779811 20.016315 
" clip-path="url(#pfcd2473651)" style="fill: none; stroke-dasharray: 2.96,1.28; stroke-dashoffset: 0; stroke: #b0b0b0; stroke-opacity: 0.6; stroke-width: 0.8"/>
     </g>
     <g id="line2d_4">
      <g>
       <use xlink:href="#m3c0b781896" x="161.779811" y="177.408158" style="stroke: #000000; stroke-width: 0.8"/>
      </g>
     </g>
     <g id="text_2">
      <!-- $\mathdefault{−1}$ -->
      <g transform="translate(149.46202 198.245154) scale(0.2 -0.2)">
       <defs>
        <path id="CMR17-31" d="M 1702 4058 
C 1702 4192 1696 4192 1606 4192 
C 1357 3916 979 3827 621 3827 
C 602 3827 570 3827 563 3808 
C 557 3795 557 3782 557 3648 
C 755 3648 1088 3686 1344 3839 
L 1344 461 
C 1344 236 1331 160 781 160 
L 589 160 
L 589 0 
C 896 0 1216 0 1523 0 
C 1830 0 2150 0 2458 0 
L 2458 160 
L 2266 160 
C 1715 160 1702 230 1702 458 
L 1702 4058 
z
" transform="scale(0.015625)"/>
       </defs>
       <use xlink:href="#CMSY10-0" transform="scale(0.996264)"/>
       <use xlink:href="#CMR17-31" transform="translate(77.487468 0) scale(0.996264)"/>
      </g>
     </g>
    </g>
    <g id="xtick_3">
     <g id="line2d_5">
      <path d="M 304.863473 334.8 
L 304.863473 20.016315 
" clip-path="url(#pfcd2473651)" style="fill: none; stroke-dasharray: 2.96,1.28; stroke-dashoffset: 0; stroke: #b0b0b0; stroke-opacity: 0.6; stroke-width: 0.8"/>
     </g>
     <g id="line2d_6">
      <g>
       <use xlink:href="#m3c0b781896" x="304.863473" y="177.408158" style="stroke: #000000; stroke-width: 0.8"/>
      </g>
     </g>
     <g id="text_3">
      <!-- $\mathdefault{1}$ -->
      <g transform="translate(300.294425 198.245154) scale(0.2 -0.2)">
       <use xlink:href="#CMR17-31" transform="scale(0.996264)"/>
      </g>
     </g>
    </g>
    <g id="xtick_4">
     <g id="line2d_7">
      <path d="M 376.405304 334.8 
L 376.405304 20.016315 
" clip-path="url(#pfcd2473651)" style="fill: none; stroke-dasharray: 2.96,1.28; stroke-dashoffset: 0; stroke: #b0b0b0; stroke-opacity: 0.6; stroke-width: 0.8"/>
     </g>
     <g id="line2d_8">
      <g>
       <use xlink:href="#m3c0b781896" x="376.405304" y="177.408158" style="stroke: #000000; stroke-width: 0.8"/>
      </g>
     </g>
     <g id="text_4">
      <!-- $\mathdefault{2}$ -->
      <g transform="translate(371.836256 198.245154) scale(0.2 -0.2)">
       <use xlink:href="#CMR17-32" transform="scale(0.996264)"/>
      </g>
     </g>
    </g>
    <g id="text_5">
     <!-- $x$ -->
     <g transform="translate(435.913188 219.957785) scale(0.2 -0.2)">
      <defs>
       <path id="CMMI12-78" d="M 3034 2606 
C 2829 2567 2752 2414 2752 2293 
C 2752 2139 2874 2088 2963 2088 
C 3155 2088 3290 2254 3290 2427 
C 3290 2695 2982 2816 2714 2816 
C 2323 2816 2106 2433 2048 2312 
C 1901 2816 1504 2816 1389 2816 
C 736 2816 390 1980 390 1839 
C 390 1814 416 1782 461 1782 
C 512 1782 525 1820 538 1846 
C 755 2555 1184 2689 1370 2689 
C 1658 2689 1715 2420 1715 2267 
C 1715 2127 1677 1980 1600 1673 
L 1382 798 
C 1286 415 1101 64 762 64 
C 730 64 570 64 435 147 
C 666 192 717 383 717 460 
C 717 588 621 664 499 664 
C 346 664 179 530 179 326 
C 179 57 480 -64 755 -64 
C 1062 -64 1280 179 1414 441 
C 1517 64 1837 -64 2074 -64 
C 2726 -64 3072 773 3072 913 
C 3072 945 3046 971 3008 971 
C 2950 971 2944 939 2925 888 
C 2752 326 2381 64 2093 64 
C 1869 64 1747 230 1747 492 
C 1747 632 1773 734 1875 1156 
L 2099 2024 
C 2195 2408 2413 2689 2707 2689 
C 2720 2689 2899 2689 3034 2606 
z
" transform="scale(0.015625)"/>
      </defs>
      <use xlink:href="#CMMI12-78" transform="scale(0.996264)"/>
     </g>
    </g>
   </g>
   <g id="matplotlib.axis_2">
    <g id="ytick_1">
     <g id="line2d_9">
      <path d="M 19.643284 320.491819 
L 447 320.491819 
" clip-path="url(#pfcd2473651)" style="fill: none; stroke-dasharray: 2.96,1.28; stroke-dashoffset: 0; stroke: #b0b0b0; stroke-opacity: 0.6; stroke-width: 0.8"/>
     </g>
     <g id="line2d_10">
      <defs>
       <path id="m85da018aa9" d="M 0 0 
L -3.5 0 
" style="stroke: #000000; stroke-width: 0.8"/>
      </defs>
      <g>
       <use xlink:href="#m85da018aa9" x="233.321642" y="320.491819" style="stroke: #000000; stroke-width: 0.8"/>
      </g>
     </g>
     <g id="text_6">
      <!-- $\mathdefault{−2}$ -->
      <g transform="translate(201.686059 327.410318) scale(0.2 -0.2)">
       <use xlink:href="#CMSY10-0" transform="scale(0.996264)"/>
       <use xlink:href="#CMR17-32" transform="translate(77.487468 0) scale(0.996264)"/>
      </g>
     </g>
    </g>
    <g id="ytick_2">
     <g id="line2d_11">
      <path d="M 19.643284 248.949988 
L 447 248.949988 
" clip-path="url(#pfcd2473651)" style="fill: none; stroke-dasharray: 2.96,1.28; stroke-dashoffset: 0; stroke: #b0b0b0; stroke-opacity: 0.6; stroke-width: 0.8"/>
     </g>
     <g id="line2d_12">
      <g>
       <use xlink:href="#m85da018aa9" x="233.321642" y="248.949988" style="stroke: #000000; stroke-width: 0.8"/>
      </g>
     </g>
     <g id="text_7">
      <!-- $\mathdefault{−1}$ -->
      <g transform="translate(201.686059 255.868487) scale(0.2 -0.2)">
       <use xlink:href="#CMSY10-0" transform="scale(0.996264)"/>
       <use xlink:href="#CMR17-31" transform="translate(77.487468 0) scale(0.996264)"/>
      </g>
     </g>
    </g>
    <g id="ytick_3">
     <g id="line2d_13">
      <path d="M 19.643284 105.866327 
L 447 105.866327 
" clip-path="url(#pfcd2473651)" style="fill: none; stroke-dasharray: 2.96,1.28; stroke-dashoffset: 0; stroke: #b0b0b0; stroke-opacity: 0.6; stroke-width: 0.8"/>
     </g>
     <g id="line2d_14">
      <g>
       <use xlink:href="#m85da018aa9" x="233.321642" y="105.866327" style="stroke: #000000; stroke-width: 0.8"/>
      </g>
     </g>
     <g id="text_8">
      <!-- $\mathdefault{1}$ -->
      <g transform="translate(217.183547 112.784825) scale(0.2 -0.2)">
       <use xlink:href="#CMR17-31" transform="scale(0.996264)"/>
      </g>
     </g>
    </g>
    <g id="ytick_4">
     <g id="line2d_15">
      <path d="M 19.643284 34.324496 
L 447 34.324496 
" clip-path="url(#pfcd2473651)" style="fill: none; stroke-dasharray: 2.96,1.28; stroke-dashoffset: 0; stroke: #b0b0b0; stroke-opacity: 0.6; stroke-width: 0.8"/>
     </g>
     <g id="line2d_16">
      <g>
       <use xlink:href="#m85da018aa9" x="233.321642" y="34.324496" style="stroke: #000000; stroke-width: 0.8"/>
      </g>
     </g>
     <g id="text_9">
      <!-- $\mathdefault{2}$ -->
      <g transform="translate(217.183547 41.242994) scale(0.2 -0.2)">
       <use xlink:href="#CMR17-32" transform="scale(0.996264)"/>
      </g>
     </g>
    </g>
    <g id="text_10">
     <!-- $y$ -->
     <g transform="translate(188.173225 16.140682) scale(0.2 -0.2)">
      <defs>
       <path id="CMMI12-79" d="M 1683 -700 
C 1510 -939 1261 -1152 947 -1152 
C 870 -1152 563 -1152 467 -889 
C 486 -895 518 -895 531 -895 
C 723 -895 851 -729 851 -582 
C 851 -435 730 -384 634 -384 
C 531 -384 307 -458 307 -759 
C 307 -1071 582 -1286 947 -1286 
C 1587 -1286 2234 -700 2413 6 
L 3040 2485 
C 3046 2517 3059 2556 3059 2594 
C 3059 2689 2982 2753 2886 2753 
C 2829 2753 2694 2727 2643 2535 
L 2170 658 
C 2138 543 2138 530 2086 460 
C 1958 281 1747 64 1440 64 
C 1082 64 1050 415 1050 588 
C 1050 952 1222 1443 1395 1903 
C 1466 2088 1504 2178 1504 2305 
C 1504 2574 1312 2816 998 2816 
C 410 2816 173 1890 173 1839 
C 173 1814 198 1782 243 1782 
C 301 1782 307 1807 333 1897 
C 486 2433 730 2689 979 2689 
C 1037 2689 1146 2689 1146 2478 
C 1146 2312 1075 2127 979 1884 
C 666 1047 666 837 666 683 
C 666 77 1101 -64 1421 -64 
C 1606 -64 1837 -6 2061 230 
L 2067 224 
C 1971 -147 1907 -392 1683 -700 
z
" transform="scale(0.015625)"/>
      </defs>
      <use xlink:href="#CMMI12-79" transform="scale(0.996264)"/>
     </g>
    </g>
   </g>
   <g id="line2d_17">
    <defs>
     <path id="m4f14ed67f2" d="M 3 0 
L -3 -3 
L -3 3 
z
" style="stroke: #000000; stroke-linejoin: miter"/>
    </defs>
    <g>
     <use xlink:href="#m4f14ed67f2" x="447" y="177.408158" style="stroke: #000000; stroke-linejoin: miter"/>
    </g>
   </g>
   <g id="line2d_18">
    <defs>
     <path id="m0aa9c72c08" d="M 0 -3 
L -3 3 
L 3 3 
z
" style="stroke: #000000; stroke-linejoin: miter"/>
    </defs>
    <g>
     <use xlink:href="#m0aa9c72c08" x="233.321642" y="20.016315" style="stroke: #000000; stroke-linejoin: miter"/>
    </g>
   </g>
   <g id="line2d_19">
    <path d="M 304.863473 177.408158 
L 304.7542 169.502908 
L 304.426715 161.621807 
L 303.882018 153.78893 
L 303.121773 146.028206 
L 302.148302 138.363341 
L 300.96458 130.81775 
L 299.574222 123.414483 
L 297.981476 116.176156 
L 296.191206 109.124881 
L 294.208883 102.282198 
L 292.040561 95.66901 
L 289.96236 89.999631 
L 287.747439 84.541238 
L 285.401145 79.307008 
L 282.929142 74.309574 
L 280.337397 69.560999 
L 277.632164 65.072746 
L 274.819975 60.855648 
L 271.907618 56.919884 
L 268.902121 53.274954 
L 266.201607 50.33115 
L 263.440326 47.622204 
L 260.62338 45.153121 
L 257.755977 42.928467 
L 254.843416 40.952351 
L 251.891079 39.228426 
L 248.904423 37.759878 
L 245.888967 36.549421 
L 242.850286 35.599293 
L 239.793993 34.911249 
L 237.164579 34.531072 
L 234.529946 34.344905 
L 231.893673 34.353001 
L 229.259339 34.555349 
L 226.63052 34.951674 
L 224.010788 35.541438 
L 220.970661 36.472898 
L 217.953362 37.664828 
L 214.964465 39.115025 
L 212.009495 40.820809 
L 209.093913 42.779027 
L 206.223107 44.98606 
L 203.402384 47.437829 
L 200.636956 50.129804 
L 197.931934 53.057007 
L 195.292318 56.214031 
L 192.361954 60.095966 
L 189.530459 64.26107 
L 186.804667 68.699287 
L 184.191158 73.399906 
L 181.69624 78.35158 
L 179.325935 83.542357 
L 177.085964 88.959706 
L 174.981736 94.590553 
L 173.018328 100.421304 
L 170.983707 107.202307 
L 169.139515 114.197775 
L 167.491387 121.386337 
L 166.044357 128.746035 
L 164.802846 136.254387 
L 163.770647 143.888455 
L 162.950912 151.624918 
L 162.346145 159.440145 
L 161.958194 167.31026 
L 161.788245 175.211223 
L 161.836815 183.118896 
L 162.103758 191.009124 
L 162.588257 198.857804 
L 163.288833 206.64096 
L 164.203345 214.334815 
L 165.328999 221.915867 
L 166.662357 229.360957 
L 168.199347 236.647341 
L 169.935272 243.752761 
L 171.864829 250.655511 
L 173.982125 257.334506 
L 176.016557 263.067035 
L 178.189312 268.592801 
L 180.495146 273.898465 
L 182.928492 278.971221 
L 185.483476 283.798824 
L 188.153933 288.369622 
L 190.933415 292.672581 
L 193.815214 296.697315 
L 196.792374 300.434108 
L 199.46997 303.460494 
L 202.210129 306.253915 
L 205.007787 308.80921 
L 207.857773 311.121656 
L 210.75482 313.18698 
L 213.693575 315.001363 
L 216.668604 316.561453 
L 219.674412 317.864367 
L 222.705441 318.907696 
L 225.756091 319.689513 
L 228.382276 320.15039 
L 231.015169 320.417441 
L 233.651194 320.490301 
L 236.286771 320.368874 
L 238.918322 320.053322 
L 241.542274 319.544075 
L 244.589193 318.706082 
L 247.615287 317.606949 
L 250.614965 316.248707 
L 253.582683 314.633867 
L 256.512954 312.765412 
L 259.400365 310.646797 
L 262.239578 308.281937 
L 265.025347 305.675202 
L 267.752522 302.83141 
L 270.416064 299.755817 
L 273.011049 296.454107 
L 275.886655 292.411692 
L 278.659517 288.091682 
L 281.322943 283.504505 
L 283.870503 278.661232 
L 286.296048 273.573554 
L 288.593724 268.253753 
L 290.757984 262.714668 
L 292.783604 256.969671 
L 294.890635 250.277704 
L 296.809584 243.363135 
L 298.534591 236.247086 
L 300.060385 228.951296 
L 301.382305 221.498052 
L 302.496314 213.910123 
L 303.399007 206.210687 
L 304.087629 198.423265 
L 304.560074 190.571646 
L 304.8149 182.679816 
L 304.863473 177.408158 
L 304.863473 177.408158 
" clip-path="url(#pfcd2473651)" style="fill: none; stroke-dasharray: 9.25,4; stroke-dashoffset: 0; stroke: #dc5e8b; stroke-width: 2.5"/>
   </g>
   <g id="patch_4">
    <path d="M 233.321642 334.8 
L 233.321642 20.016315 
" style="fill: none; stroke: #000000; stroke-width: 0.8; stroke-linejoin: miter; stroke-linecap: square"/>
   </g>
   <g id="patch_5">
    <path d="M 447 334.8 
L 447 20.016315 
" style="fill: none"/>
   </g>
   <g id="patch_6">
    <path d="M 19.643284 177.408158 
L 447 177.408158 
" style="fill: none; stroke: #000000; stroke-width: 0.8; stroke-linejoin: miter; stroke-linecap: square"/>
   </g>
   <g id="patch_7">
    <path d="M 19.643284 20.016315 
L 447 20.016315 
" style="fill: none"/>
   </g>
  </g>
 </g>
 <defs>
  <clipPath id="pfcd2473651">
   <rect x="19.643284" y="20.016315" width="427.356716" height="314.783685"/>
  </clipPath>
 </defs>
</svg>
