<?xml version="1.0" encoding="utf-8" standalone="no"?>
<!DOCTYPE svg PUBLIC "-//W3C//DTD SVG 1.1//EN"
  "http://www.w3.org/Graphics/SVG/1.1/DTD/svg11.dtd">
<svg xmlns:xlink="http://www.w3.org/1999/xlink" width="432pt" height="432pt" viewBox="0 0 432 432" xmlns="http://www.w3.org/2000/svg" version="1.1">
 <metadata>
  <rdf:RDF xmlns:dc="http://purl.org/dc/elements/1.1/" xmlns:cc="http://creativecommons.org/ns#" xmlns:rdf="http://www.w3.org/1999/02/22-rdf-syntax-ns#">
   <cc:Work>
    <dc:type rdf:resource="http://purl.org/dc/dcmitype/StillImage"/>
    <dc:date>2026-02-20T13:42:13.550842</dc:date>
    <dc:format>image/svg+xml</dc:format>
    <dc:creator>
     <cc:Agent>
      <dc:title>Matplotlib v3.9.1, https://matplotlib.org/</dc:title>
     </cc:Agent>
    </dc:creator>
   </cc:Work>
  </rdf:RDF>
 </metadata>
 <defs>
  <style type="text/css">*{stroke-linejoin: round; stroke-linecap: butt}</style>
 </defs>
 <g id="figure_1">
  <g id="patch_1">
   <path d="M 0 432 
L 432 432 
L 432 0 
L 0 0 
L 0 432 
z
" style="fill: none"/>
  </g>
  <g id="axes_1">
   <g id="line2d_1">
    <path d="M 216 216 
L 216 216 
" clip-path="url(#p234d1dfba8)" style="fill: none; stroke: #000000; stroke-width: 2.5; stroke-linecap: square"/>
   </g>
   <g id="line2d_2">
    <path d="M 216 216 
L 403.756789 216 
" clip-path="url(#p234d1dfba8)" style="fill: none; stroke: #000000; stroke-width: 2.5; stroke-linecap: square"/>
   </g>
   <g id="line2d_3">
    <path d="M 216 216 
L 403.756789 216 
" clip-path="url(#p234d1dfba8)" style="fill: none; stroke: #0072b2; stroke-width: 2.5; stroke-linecap: square"/>
   </g>
   <g id="line2d_4">
    <path d="M 216 216 
L 28.243211 216 
" clip-path="url(#p234d1dfba8)" style="fill: none; stroke: #0072b2; stroke-width: 2.5; stroke-linecap: square"/>
   </g>
   <g id="line2d_5">
    <path d="M 403.756789 216 
L 403.629313 214.616488 
L 403.247059 213.234855 
L 402.610546 211.856977 
L 401.720637 210.484724 
L 400.578542 209.119961 
L 398.92945 207.539674 
L 396.942277 205.975023 
L 394.620695 204.4289 
L 391.56351 202.688252 
L 388.08255 200.979737 
L 384.186217 199.307477 
L 379.318092 197.474544 
L 373.951062 195.698203 
L 368.101523 193.98388 
L 361.057912 192.158176 
L 353.467268 190.422383 
L 345.358216 188.783047 
L 335.876052 187.098551 
L 325.846921 185.545926 
L 315.316584 184.132256 
L 303.313834 182.75611 
L 290.836998 181.560467 
L 277.953822 180.551821 
L 264.734255 179.735646 
L 251.250077 179.116376 
L 237.574503 178.697371 
L 222.629449 178.472057 
L 207.642154 178.485865 
L 192.708114 178.738707 
L 179.05242 179.182891 
L 165.597341 179.82698 
L 152.415931 180.667478 
L 139.579763 181.69982 
L 127.158533 182.918401 
L 115.219683 184.316604 
L 103.828038 185.886838 
L 93.919286 187.470078 
L 84.56756 189.183494 
L 75.81553 191.019266 
L 68.413195 192.787291 
L 61.56743 194.642853 
L 55.30405 196.578956 
L 50.184517 198.384283 
L 45.571517 200.243422 
L 41.907738 201.936578 
L 38.664183 203.66368 
L 35.848681 205.42056 
L 33.741622 206.978924 
L 31.971404 208.553961 
L 30.541299 210.142759 
L 29.588217 211.513314 
L 28.888261 212.889961 
L 28.442379 214.270831 
L 28.251179 215.654049 
L 28.31492 217.037737 
L 28.633515 218.420015 
L 29.206531 219.799008 
L 30.03319 221.172842 
L 31.11237 222.539652 
L 32.442606 223.897582 
L 34.309426 225.468151 
L 36.512037 227.021221 
L 39.046369 228.553922 
L 42.342901 230.277008 
L 46.058607 231.965631 
L 50.728613 233.819069 
L 55.90349 235.618072 
L 61.56743 237.357147 
L 68.413195 239.212709 
L 75.81553 240.980734 
L 83.74652 242.654552 
L 93.045452 244.379423 
L 102.905396 245.974804 
L 113.281366 247.433418 
L 125.133441 248.860846 
L 137.478892 250.10985 
L 150.250687 251.173649 
L 163.379481 252.046466 
L 176.793987 252.723562 
L 190.421369 253.201261 
L 204.187636 253.476969 
L 219.171115 253.546002 
L 234.134388 253.375797 
L 248.982112 252.967441 
L 262.503306 252.381344 
L 275.772003 251.597707 
L 288.716157 250.620787 
L 301.265485 249.455887 
L 313.351848 248.109332 
L 324.909623 246.588433 
L 334.986245 245.048157 
L 344.51996 243.37534 
L 353.467268 241.577617 
L 361.057912 239.841824 
L 368.101523 238.01612 
L 374.571539 236.10739 
L 379.883917 234.32449 
L 384.695663 232.485612 
L 388.992077 230.596374 
L 392.367841 228.879435 
L 395.317889 227.131409 
L 397.544336 225.579699 
L 399.435263 224.010284 
L 400.987173 222.426065 
L 402.045361 221.058598 
L 402.850921 219.684263 
L 403.402761 218.304925 
L 403.700129 216.922457 
L 403.756789 216 
L 403.756789 216 
" clip-path="url(#p234d1dfba8)" style="fill: none; stroke-dasharray: 9.25,4; stroke-dashoffset: 0; stroke: #0072b2; stroke-width: 2.5"/>
   </g>
   <g id="text_1">
    <!-- $r$ -->
    <g transform="translate(305.482305 220.980682) scale(0.2 -0.2)">
     <defs>
      <path id="CMMI12-72" d="M 2490 2612 
C 2291 2574 2189 2433 2189 2293 
C 2189 2139 2310 2088 2400 2088 
C 2579 2088 2726 2242 2726 2433 
C 2726 2638 2528 2816 2208 2816 
C 1952 2816 1658 2701 1389 2312 
C 1344 2650 1088 2816 832 2816 
C 582 2816 454 2625 378 2484 
C 269 2254 173 1871 173 1839 
C 173 1814 198 1782 243 1782 
C 294 1782 301 1788 339 1935 
C 435 2318 557 2689 813 2689 
C 966 2689 1011 2580 1011 2395 
C 1011 2254 947 2005 902 1807 
L 723 1118 
C 698 996 627 709 595 594 
C 550 428 480 128 480 96 
C 480 6 550 -64 646 -64 
C 717 -64 838 -19 877 109 
C 896 160 1133 1124 1171 1271 
C 1203 1411 1242 1546 1274 1686 
C 1299 1775 1325 1878 1344 1961 
C 1363 2018 1536 2331 1696 2472 
C 1773 2542 1939 2689 2202 2689 
C 2304 2689 2406 2670 2490 2612 
z
" transform="scale(0.015625)"/>
     </defs>
     <use xlink:href="#CMMI12-72" transform="scale(0.996264)"/>
    </g>
   </g>
   <g id="text_2">
    <!-- $h$ -->
    <g transform="translate(196.32002 220.980682) scale(0.2 -0.2)">
     <defs>
      <path id="CMMI12-68" d="M 1798 4257 
C 1805 4283 1818 4321 1818 4352 
C 1818 4416 1754 4416 1741 4416 
C 1734 4416 1421 4388 1389 4380 
C 1280 4373 1184 4358 1069 4358 
C 909 4345 864 4339 864 4224 
C 864 4160 915 4160 1005 4160 
C 1318 4160 1325 4103 1325 4040 
C 1325 4002 1312 3951 1306 3932 
L 378 248 
C 352 152 352 140 352 101 
C 352 -38 461 -64 525 -64 
C 634 -64 717 19 749 89 
L 1037 1245 
C 1069 1386 1107 1520 1139 1660 
C 1210 1929 1210 1935 1331 2120 
C 1453 2305 1741 2689 2234 2689 
C 2490 2689 2579 2497 2579 2242 
C 2579 1884 2330 1188 2189 805 
C 2131 651 2099 568 2099 453 
C 2099 166 2298 -64 2605 -64 
C 3200 -64 3424 875 3424 913 
C 3424 945 3398 971 3360 971 
C 3302 971 3296 952 3264 843 
C 3117 332 2880 64 2624 64 
C 2560 64 2458 64 2458 269 
C 2458 436 2534 640 2560 710 
C 2675 1018 2963 1773 2963 2145 
C 2963 2528 2739 2816 2253 2816 
C 1888 2816 1568 2644 1306 2312 
L 1798 4257 
z
" transform="scale(0.015625)"/>
     </defs>
     <use xlink:href="#CMMI12-68" transform="scale(0.996264)"/>
    </g>
   </g>
  </g>
 </g>
 <defs>
  <clipPath id="p234d1dfba8">
   <rect x="10.8" y="10.8" width="410.4" height="410.4"/>
  </clipPath>
 </defs>
</svg>
