<?xml version="1.0" encoding="utf-8" standalone="no"?>
<!DOCTYPE svg PUBLIC "-//W3C//DTD SVG 1.1//EN"
  "http://www.w3.org/Graphics/SVG/1.1/DTD/svg11.dtd">
<svg xmlns:xlink="http://www.w3.org/1999/xlink" width="460.8pt" height="345.6pt" viewBox="0 0 460.8 345.6" xmlns="http://www.w3.org/2000/svg" version="1.1">
 <metadata>
  <rdf:RDF xmlns:dc="http://purl.org/dc/elements/1.1/" xmlns:cc="http://creativecommons.org/ns#" xmlns:rdf="http://www.w3.org/1999/02/22-rdf-syntax-ns#">
   <cc:Work>
    <dc:type rdf:resource="http://purl.org/dc/dcmitype/StillImage"/>
    <dc:date>2026-02-20T00:55:24.635099</dc:date>
    <dc:format>image/svg+xml</dc:format>
    <dc:creator>
     <cc:Agent>
      <dc:title>Matplotlib v3.9.1, https://matplotlib.org/</dc:title>
     </cc:Agent>
    </dc:creator>
   </cc:Work>
  </rdf:RDF>
 </metadata>
 <defs>
  <style type="text/css">*{stroke-linejoin: round; stroke-linecap: butt}</style>
 </defs>
 <g id="figure_1">
  <g id="patch_1">
   <path d="M 0 345.6 
L 460.8 345.6 
L 460.8 0 
L 0 0 
L 0 345.6 
z
" style="fill: none"/>
  </g>
  <g id="axes_1">
   <g id="patch_2">
    <path d="M 10.8 334.8 
L 447 334.8 
L 447 22.673214 
L 10.8 22.673214 
L 10.8 334.8 
z
" style="fill: none"/>
   </g>
   <g id="matplotlib.axis_1">
    <g id="text_1">
     <!-- $x$ -->
     <g transform="translate(432.587145 312.198561) scale(0.26 -0.26)">
      <defs>
       <path id="CMMI12-78" d="M 3034 2606 
C 2829 2567 2752 2414 2752 2293 
C 2752 2139 2874 2088 2963 2088 
C 3155 2088 3290 2254 3290 2427 
C 3290 2695 2982 2816 2714 2816 
C 2323 2816 2106 2433 2048 2312 
C 1901 2816 1504 2816 1389 2816 
C 736 2816 390 1980 390 1839 
C 390 1814 416 1782 461 1782 
C 512 1782 525 1820 538 1846 
C 755 2555 1184 2689 1370 2689 
C 1658 2689 1715 2420 1715 2267 
C 1715 2127 1677 1980 1600 1673 
L 1382 798 
C 1286 415 1101 64 762 64 
C 730 64 570 64 435 147 
C 666 192 717 383 717 460 
C 717 588 621 664 499 664 
C 346 664 179 530 179 326 
C 179 57 480 -64 755 -64 
C 1062 -64 1280 179 1414 441 
C 1517 64 1837 -64 2074 -64 
C 2726 -64 3072 773 3072 913 
C 3072 945 3046 971 3008 971 
C 2950 971 2944 939 2925 888 
C 2752 326 2381 64 2093 64 
C 1869 64 1747 230 1747 492 
C 1747 632 1773 734 1875 1156 
L 2099 2024 
C 2195 2408 2413 2689 2707 2689 
C 2720 2689 2899 2689 3034 2606 
z
" transform="scale(0.015625)"/>
      </defs>
      <use xlink:href="#CMMI12-78" transform="scale(0.996264)"/>
     </g>
    </g>
   </g>
   <g id="matplotlib.axis_2">
    <g id="text_2">
     <!-- $y$ -->
     <g transform="translate(56.747605 17.634888) scale(0.26 -0.26)">
      <defs>
       <path id="CMMI12-79" d="M 1683 -700 
C 1510 -939 1261 -1152 947 -1152 
C 870 -1152 563 -1152 467 -889 
C 486 -895 518 -895 531 -895 
C 723 -895 851 -729 851 -582 
C 851 -435 730 -384 634 -384 
C 531 -384 307 -458 307 -759 
C 307 -1071 582 -1286 947 -1286 
C 1587 -1286 2234 -700 2413 6 
L 3040 2485 
C 3046 2517 3059 2556 3059 2594 
C 3059 2689 2982 2753 2886 2753 
C 2829 2753 2694 2727 2643 2535 
L 2170 658 
C 2138 543 2138 530 2086 460 
C 1958 281 1747 64 1440 64 
C 1082 64 1050 415 1050 588 
C 1050 952 1222 1443 1395 1903 
C 1466 2088 1504 2178 1504 2305 
C 1504 2574 1312 2816 998 2816 
C 410 2816 173 1890 173 1839 
C 173 1814 198 1782 243 1782 
C 301 1782 307 1807 333 1897 
C 486 2433 730 2689 979 2689 
C 1037 2689 1146 2689 1146 2478 
C 1146 2312 1075 2127 979 1884 
C 666 1047 666 837 666 683 
C 666 77 1101 -64 1421 -64 
C 1606 -64 1837 -6 2061 230 
L 2067 224 
C 1971 -147 1907 -392 1683 -700 
z
" transform="scale(0.015625)"/>
      </defs>
      <use xlink:href="#CMMI12-79" transform="scale(0.996264)"/>
     </g>
    </g>
   </g>
   <g id="line2d_1">
    <defs>
     <path id="m43e951ab2c" d="M 3 0 
L -3 -3 
L -3 3 
z
" style="stroke: #000000; stroke-linejoin: miter"/>
    </defs>
    <g>
     <use xlink:href="#m43e951ab2c" x="447" y="290.210459" style="stroke: #000000; stroke-linejoin: miter"/>
    </g>
   </g>
   <g id="line2d_2">
    <defs>
     <path id="ma998a4132d" d="M 0 -3 
L -3 3 
L 3 3 
z
" style="stroke: #000000; stroke-linejoin: miter"/>
    </defs>
    <g>
     <use xlink:href="#ma998a4132d" x="73.114286" y="22.673214" style="stroke: #000000; stroke-linejoin: miter"/>
    </g>
   </g>
   <g id="line2d_3">
    <path d="M 113.507058 -1 
L 119.324153 18.189958 
L 125.048563 36.315487 
L 130.666471 53.372095 
L 136.17788 69.401004 
L 141.582787 84.442656 
L 146.881194 98.53671 
L 152.0731 111.722045 
L 157.158506 124.036757 
L 162.137411 135.518162 
L 167.009815 146.202793 
L 171.775719 156.126403 
L 176.461747 165.375088 
L 181.041274 173.926327 
L 185.514301 181.813725 
L 189.880828 189.070102 
L 194.167478 195.767798 
L 198.347629 201.892677 
L 202.447903 207.510647 
L 206.441677 212.611496 
L 210.355576 217.25493 
L 214.189599 221.462487 
L 217.943747 225.255268 
L 221.618019 228.653931 
L 225.212415 231.678699 
L 228.726936 234.349352 
L 232.188207 236.702281 
L 235.569603 238.735219 
L 238.897748 240.479721 
L 242.172642 241.947999 
L 245.394287 243.152067 
L 248.589306 244.110766 
L 251.7577 244.829956 
L 254.899469 245.315451 
L 258.014613 245.573012 
L 261.129756 245.607707 
L 264.2449 245.419536 
L 267.360044 245.008499 
L 270.501813 244.368218 
L 273.643582 243.501245 
L 276.838601 242.387089 
L 280.060245 241.026268 
L 283.33514 239.398647 
L 286.63666 237.50847 
L 289.99143 235.331387 
L 293.426076 232.834692 
L 296.913972 230.022029 
L 300.481743 226.85589 
L 304.102765 223.343582 
L 307.803662 219.442633 
L 311.584435 215.132675 
L 315.445083 210.392902 
L 319.412232 205.165781 
L 323.459257 199.460979 
L 327.586156 193.256225 
L 331.819557 186.484933 
L 336.132833 179.162568 
L 340.552609 171.216179 
L 345.052261 162.665315 
L 349.658414 153.430433 
L 354.371068 143.477734 
L 359.163596 132.833247 
L 364.062626 121.40701 
L 369.068156 109.163073 
L 374.180187 96.064708 
L 379.398718 82.074405 
L 384.72375 67.153871 
L 390.128658 51.343576 
L 395.640066 34.530878 
L 401.257975 16.675336 
L 406.607228 -1 
L 406.607228 -1 
" clip-path="url(#p6bb8a84aa4)" style="fill: none; stroke: #0072b2; stroke-width: 3; stroke-linecap: square"/>
   </g>
   <g id="patch_3">
    <path d="M 73.114286 334.8 
L 73.114286 22.673214 
" style="fill: none; stroke: #000000; stroke-width: 0.8; stroke-linejoin: miter; stroke-linecap: square"/>
   </g>
   <g id="patch_4">
    <path d="M 447 334.8 
L 447 22.673214 
" style="fill: none"/>
   </g>
   <g id="patch_5">
    <path d="M 10.8 290.210459 
L 447 290.210459 
" style="fill: none; stroke: #000000; stroke-width: 0.8; stroke-linejoin: miter; stroke-linecap: square"/>
   </g>
   <g id="patch_6">
    <path d="M 10.8 22.673214 
L 447 22.673214 
" style="fill: none"/>
   </g>
   <g id="legend_1">
    <g id="patch_7">
     <path d="M 29 321.8 
L 124.701642 321.8 
Q 129.901642 321.8 129.901642 316.6 
L 129.901642 282.961673 
Q 129.901642 277.761673 124.701642 277.761673 
L 29 277.761673 
Q 23.8 277.761673 23.8 282.961673 
L 23.8 316.6 
Q 23.8 321.8 29 321.8 
z
" style="fill: #ffffff; opacity: 0.8; stroke: #cccccc; stroke-linejoin: miter"/>
    </g>
    <g id="line2d_4">
     <path d="M 34.2 297.261673 
L 60.2 297.261673 
L 86.2 297.261673 
" style="fill: none; stroke: #0072b2; stroke-width: 3; stroke-linecap: square"/>
    </g>
    <g id="text_3">
     <!-- $f$ -->
     <g transform="translate(107 306.361673) scale(0.26 -0.26)">
      <defs>
       <path id="CMMI12-66" d="M 2854 2566 
C 2982 2566 3034 2566 3034 2688 
C 3034 2752 2982 2752 2867 2752 
L 2349 2752 
C 2470 3429 2560 3897 2611 4107 
C 2650 4265 2784 4416 2950 4416 
C 3085 4416 3219 4358 3283 4298 
C 3034 4272 2957 4082 2957 3969 
C 2957 3837 3053 3759 3174 3759 
C 3302 3759 3494 3870 3494 4119 
C 3494 4393 3226 4544 2944 4544 
C 2669 4544 2400 4334 2272 4078 
C 2157 3848 2093 3611 1946 2752 
L 1517 2752 
C 1395 2752 1331 2752 1331 2637 
C 1331 2566 1370 2566 1498 2566 
L 1907 2566 
C 1792 1976 1530 542 1382 -137 
C 1274 -689 1178 -1152 858 -1152 
C 838 -1152 653 -1152 538 -1031 
C 864 -1005 864 -726 864 -720 
C 864 -593 768 -517 646 -517 
C 518 -517 326 -625 326 -867 
C 326 -1140 608 -1280 858 -1280 
C 1510 -1280 1779 -118 1850 199 
C 1965 688 2278 2376 2310 2566 
L 2854 2566 
z
" transform="scale(0.015625)"/>
      </defs>
      <use xlink:href="#CMMI12-66" transform="scale(0.996264)"/>
     </g>
    </g>
   </g>
  </g>
 </g>
 <defs>
  <clipPath id="p6bb8a84aa4">
   <rect x="10.8" y="22.673214" width="436.2" height="312.126786"/>
  </clipPath>
 </defs>
</svg>
