<?xml version="1.0" encoding="utf-8" standalone="no"?>
<!DOCTYPE svg PUBLIC "-//W3C//DTD SVG 1.1//EN"
  "http://www.w3.org/Graphics/SVG/1.1/DTD/svg11.dtd">
<svg xmlns:xlink="http://www.w3.org/1999/xlink" width="460.8pt" height="345.6pt" viewBox="0 0 460.8 345.6" xmlns="http://www.w3.org/2000/svg" version="1.1">
 <metadata>
  <rdf:RDF xmlns:dc="http://purl.org/dc/elements/1.1/" xmlns:cc="http://creativecommons.org/ns#" xmlns:rdf="http://www.w3.org/1999/02/22-rdf-syntax-ns#">
   <cc:Work>
    <dc:type rdf:resource="http://purl.org/dc/dcmitype/StillImage"/>
    <dc:date>2026-01-26T09:52:29.455405</dc:date>
    <dc:format>image/svg+xml</dc:format>
    <dc:creator>
     <cc:Agent>
      <dc:title>Matplotlib v3.9.1, https://matplotlib.org/</dc:title>
     </cc:Agent>
    </dc:creator>
   </cc:Work>
  </rdf:RDF>
 </metadata>
 <defs>
  <style type="text/css">*{stroke-linejoin: round; stroke-linecap: butt}</style>
 </defs>
 <g id="figure_1">
  <g id="patch_1">
   <path d="M 0 345.6 
L 460.8 345.6 
L 460.8 0 
L 0 0 
L 0 345.6 
z
" style="fill: none"/>
  </g>
  <g id="axes_1">
   <g id="patch_2">
    <path d="M 10.8 334.8 
L 447 334.8 
L 447 22.230394 
L 10.8 22.230394 
L 10.8 334.8 
z
" style="fill: none"/>
   </g>
   <g id="matplotlib.axis_1">
    <g id="text_1">
     <!-- $x$ -->
     <g transform="translate(433.141493 199.811451) scale(0.25 -0.25)">
      <defs>
       <path id="CMMI12-78" d="M 3034 2606 
C 2829 2567 2752 2414 2752 2293 
C 2752 2139 2874 2088 2963 2088 
C 3155 2088 3290 2254 3290 2427 
C 3290 2695 2982 2816 2714 2816 
C 2323 2816 2106 2433 2048 2312 
C 1901 2816 1504 2816 1389 2816 
C 736 2816 390 1980 390 1839 
C 390 1814 416 1782 461 1782 
C 512 1782 525 1820 538 1846 
C 755 2555 1184 2689 1370 2689 
C 1658 2689 1715 2420 1715 2267 
C 1715 2127 1677 1980 1600 1673 
L 1382 798 
C 1286 415 1101 64 762 64 
C 730 64 570 64 435 147 
C 666 192 717 383 717 460 
C 717 588 621 664 499 664 
C 346 664 179 530 179 326 
C 179 57 480 -64 755 -64 
C 1062 -64 1280 179 1414 441 
C 1517 64 1837 -64 2074 -64 
C 2726 -64 3072 773 3072 913 
C 3072 945 3046 971 3008 971 
C 2950 971 2944 939 2925 888 
C 2752 326 2381 64 2093 64 
C 1869 64 1747 230 1747 492 
C 1747 632 1773 734 1875 1156 
L 2099 2024 
C 2195 2408 2413 2689 2707 2689 
C 2720 2689 2899 2689 3034 2606 
z
" transform="scale(0.015625)"/>
      </defs>
      <use xlink:href="#CMMI12-78" transform="scale(0.996264)"/>
     </g>
    </g>
   </g>
   <g id="matplotlib.axis_2">
    <g id="text_2">
     <!-- $y$ -->
     <g transform="translate(213.008953 17.38586) scale(0.25 -0.25)">
      <defs>
       <path id="CMMI12-79" d="M 1683 -700 
C 1510 -939 1261 -1152 947 -1152 
C 870 -1152 563 -1152 467 -889 
C 486 -895 518 -895 531 -895 
C 723 -895 851 -729 851 -582 
C 851 -435 730 -384 634 -384 
C 531 -384 307 -458 307 -759 
C 307 -1071 582 -1286 947 -1286 
C 1587 -1286 2234 -700 2413 6 
L 3040 2485 
C 3046 2517 3059 2556 3059 2594 
C 3059 2689 2982 2753 2886 2753 
C 2829 2753 2694 2727 2643 2535 
L 2170 658 
C 2138 543 2138 530 2086 460 
C 1958 281 1747 64 1440 64 
C 1082 64 1050 415 1050 588 
C 1050 952 1222 1443 1395 1903 
C 1466 2088 1504 2178 1504 2305 
C 1504 2574 1312 2816 998 2816 
C 410 2816 173 1890 173 1839 
C 173 1814 198 1782 243 1782 
C 301 1782 307 1807 333 1897 
C 486 2433 730 2689 979 2689 
C 1037 2689 1146 2689 1146 2478 
C 1146 2312 1075 2127 979 1884 
C 666 1047 666 837 666 683 
C 666 77 1101 -64 1421 -64 
C 1606 -64 1837 -6 2061 230 
L 2067 224 
C 1971 -147 1907 -392 1683 -700 
z
" transform="scale(0.015625)"/>
      </defs>
      <use xlink:href="#CMMI12-79" transform="scale(0.996264)"/>
     </g>
    </g>
   </g>
   <g id="line2d_1">
    <defs>
     <path id="m5e93bba871" d="M 3 0 
L -3 -3 
L -3 3 
z
" style="stroke: #000000; stroke-linejoin: miter"/>
    </defs>
    <g>
     <use xlink:href="#m5e93bba871" x="447" y="178.515197" style="stroke: #000000; stroke-linejoin: miter"/>
    </g>
   </g>
   <g id="line2d_2">
    <defs>
     <path id="md3d7db58f4" d="M 0 -3 
L -3 3 
L 3 3 
z
" style="stroke: #000000; stroke-linejoin: miter"/>
    </defs>
    <g>
     <use xlink:href="#md3d7db58f4" x="228.9" y="22.230394" style="stroke: #000000; stroke-linejoin: miter"/>
    </g>
   </g>
   <g id="line2d_3">
    <path d="M 10.8 192.88077 
L 43.761948 192.38415 
L 67.777843 191.81001 
L 86.042703 191.159974 
L 100.420289 190.433901 
L 112.028859 189.63242 
L 121.613917 188.754029 
L 129.62809 187.802782 
L 136.444131 186.776268 
L 142.328292 185.670549 
L 147.440322 184.489014 
L 151.939974 183.225574 
L 155.933748 181.877201 
L 159.50152 180.44177 
L 162.723164 178.908696 
L 165.651932 177.27026 
L 168.314448 175.528966 
L 170.763963 173.664944 
L 173.053726 171.642797 
L 175.183739 169.463733 
L 177.180626 167.100988 
L 179.071013 164.514732 
L 180.854898 161.691997 
L 182.558909 158.570031 
L 184.183043 155.117769 
L 185.727303 151.302219 
L 187.191687 147.088996 
L 188.60282 142.34656 
L 189.960703 136.990908 
L 191.265336 130.921319 
L 192.516719 124.016256 
L 193.714851 116.128062 
L 194.859733 107.07602 
L 195.951364 96.637205 
L 196.989745 84.534306 
L 197.974876 70.419226 
L 198.906757 53.850784 
L 199.785387 34.264046 
L 200.637392 10.07385 
L 200.963621 -1 
M 219.649107 346.6 
L 220.739388 339.525219 
L 221.83102 333.847626 
L 222.896026 329.423282 
L 223.934408 326.006764 
L 224.919539 323.479507 
L 225.851419 321.663015 
L 226.703424 320.452715 
L 227.502179 319.687207 
L 228.221058 319.292797 
L 228.886687 319.171566 
L 229.525691 319.274505 
L 230.19132 319.611353 
L 230.9102 320.24274 
L 231.682329 321.239939 
L 232.507709 322.688803 
L 233.386339 324.69555 
L 234.31822 327.39536 
L 235.303351 330.965448 
L 236.315107 335.51246 
L 237.326863 341.111891 
L 238.150893 346.6 
M 256.836379 -1 
L 257.695111 25.895492 
L 258.626991 48.383518 
L 259.612122 66.945103 
L 260.650504 82.440628 
L 261.742135 95.504064 
L 262.887017 106.611814 
L 264.085149 116.128062 
L 265.336532 124.335445 
L 266.641165 131.456274 
L 267.999048 137.667514 
L 269.410181 143.111565 
L 270.874565 147.904126 
L 272.418824 152.208651 
L 274.016334 156.01541 
L 275.693719 159.444968 
L 277.45098 162.534814 
L 279.288116 165.319388 
L 281.231752 167.862443 
L 283.28189 170.179288 
L 285.465153 172.310323 
L 287.781542 174.262166 
L 290.284307 176.079793 
L 293.000073 177.774173 
L 295.955466 179.352254 
L 299.17711 180.818528 
L 302.744882 182.195096 
L 306.712031 183.483636 
L 311.158433 184.689712 
L 316.190588 185.818789 
L 321.914997 186.869713 
L 328.491412 187.845447 
L 336.132833 188.748444 
L 345.105512 189.578698 
L 355.808826 190.338681 
L 368.748654 191.026978 
L 384.72375 191.645385 
L 404.878997 192.193299 
L 431.024904 192.670806 
L 447 192.88077 
L 447 192.88077 
" clip-path="url(#p58396b3661)" style="fill: none; stroke: #0072b2; stroke-width: 2.5; stroke-linecap: square"/>
   </g>
   <g id="LineCollection_1">
    <path d="M 207.09 334.8 
L 207.09 22.230394 
" clip-path="url(#p58396b3661)" style="fill: none; stroke-dasharray: 9.25,4; stroke-dashoffset: 0; stroke: #dc5e8b; stroke-width: 2.5"/>
   </g>
   <g id="LineCollection_2">
    <path d="M 250.71 334.8 
L 250.71 22.230394 
" clip-path="url(#p58396b3661)" style="fill: none; stroke-dasharray: 9.25,4; stroke-dashoffset: 0; stroke: #dc5e8b; stroke-width: 2.5"/>
   </g>
   <g id="LineCollection_3">
    <path d="M 10.8 194.143677 
L 447 194.143677 
" clip-path="url(#p58396b3661)" style="fill: none; stroke-dasharray: 9.25,4; stroke-dashoffset: 0; stroke: #dc5e8b; stroke-width: 2.5"/>
   </g>
   <g id="patch_3">
    <path d="M 228.9 334.8 
L 228.9 22.230394 
" style="fill: none; stroke: #000000; stroke-width: 0.8; stroke-linejoin: miter; stroke-linecap: square"/>
   </g>
   <g id="patch_4">
    <path d="M 447 334.8 
L 447 22.230394 
" style="fill: none"/>
   </g>
   <g id="patch_5">
    <path d="M 10.8 178.515197 
L 447 178.515197 
" style="fill: none; stroke: #000000; stroke-width: 0.8; stroke-linejoin: miter; stroke-linecap: square"/>
   </g>
   <g id="patch_6">
    <path d="M 10.8 22.230394 
L 447 22.230394 
" style="fill: none"/>
   </g>
   <g id="text_3">
    <g id="patch_7">
     <path d="M 329.50715 74.557749 
L 346.39285 74.557749 
Q 356.39285 74.557749 356.39285 64.557749 
L 356.39285 42.416961 
Q 356.39285 32.416961 346.39285 32.416961 
L 329.50715 32.416961 
Q 319.50715 32.416961 319.50715 42.416961 
L 319.50715 64.557749 
Q 319.50715 74.557749 329.50715 74.557749 
z
" style="fill: #ffffff; opacity: 0.7; stroke: #000000; stroke-width: 1.5; stroke-linejoin: miter"/>
    </g>
    <!-- D -->
    <g transform="translate(329.50715 59.713214) scale(0.25 -0.25)">
     <defs>
      <path id="CMSS17-44" d="M 570 4416 
L 570 0 
L 2144 0 
C 3194 0 4000 980 4000 2170 
C 4000 3398 3194 4416 2144 4416 
L 570 4416 
z
M 1094 357 
L 1094 4059 
L 2003 4059 
C 2861 4059 3475 3277 3475 2170 
C 3475 1107 2867 357 2003 357 
L 1094 357 
z
" transform="scale(0.015625)"/>
     </defs>
     <use xlink:href="#CMSS17-44" transform="scale(0.996264)"/>
    </g>
   </g>
  </g>
 </g>
 <defs>
  <clipPath id="p58396b3661">
   <rect x="10.8" y="22.230394" width="436.2" height="312.569606"/>
  </clipPath>
 </defs>
</svg>
