<?xml version="1.0" encoding="utf-8" standalone="no"?>
<!DOCTYPE svg PUBLIC "-//W3C//DTD SVG 1.1//EN"
  "http://www.w3.org/Graphics/SVG/1.1/DTD/svg11.dtd">
<svg xmlns:xlink="http://www.w3.org/1999/xlink" width="432pt" height="432pt" viewBox="0 0 432 432" xmlns="http://www.w3.org/2000/svg" version="1.1">
 <metadata>
  <rdf:RDF xmlns:dc="http://purl.org/dc/elements/1.1/" xmlns:cc="http://creativecommons.org/ns#" xmlns:rdf="http://www.w3.org/1999/02/22-rdf-syntax-ns#">
   <cc:Work>
    <dc:type rdf:resource="http://purl.org/dc/dcmitype/StillImage"/>
    <dc:date>2026-03-18T19:39:52.217490</dc:date>
    <dc:format>image/svg+xml</dc:format>
    <dc:creator>
     <cc:Agent>
      <dc:title>Matplotlib v3.10.8, https://matplotlib.org/</dc:title>
     </cc:Agent>
    </dc:creator>
   </cc:Work>
  </rdf:RDF>
 </metadata>
 <defs>
  <style type="text/css">*{stroke-linejoin: round; stroke-linecap: butt}</style>
 </defs>
 <g id="figure_1">
  <g id="patch_1">
   <path d="M 0 432 
L 432 432 
L 432 0 
L 0 0 
L 0 432 
z
" style="fill: none"/>
  </g>
  <g id="axes_1">
   <g id="patch_2">
    <path d="M 29.454545 344.047606 
L 76.090909 344.047606 
L 52.772727 303.65933 
L 29.454545 344.047606 
z
" clip-path="url(#p506621e7bf)" style="fill: none; opacity: 0"/>
   </g>
   <g id="patch_3">
    <path d="M 76.090909 344.047606 
L 122.727273 344.047606 
L 99.409091 303.65933 
L 76.090909 344.047606 
z
" clip-path="url(#p506621e7bf)" style="fill: none; opacity: 0"/>
   </g>
   <g id="patch_4">
    <path d="M 52.772727 303.65933 
L 99.409091 303.65933 
L 76.090909 263.271055 
L 52.772727 303.65933 
z
" clip-path="url(#p506621e7bf)" style="fill: none; opacity: 0"/>
   </g>
   <g id="patch_5">
    <path d="M 122.727273 344.047606 
L 169.363636 344.047606 
L 146.045455 303.65933 
L 122.727273 344.047606 
z
" clip-path="url(#p506621e7bf)" style="fill: none; opacity: 0"/>
   </g>
   <g id="patch_6">
    <path d="M 169.363636 344.047606 
L 216 344.047606 
L 192.681818 303.65933 
L 169.363636 344.047606 
z
" clip-path="url(#p506621e7bf)" style="fill: none; opacity: 0"/>
   </g>
   <g id="patch_7">
    <path d="M 146.045455 303.65933 
L 192.681818 303.65933 
L 169.363636 263.271055 
L 146.045455 303.65933 
z
" clip-path="url(#p506621e7bf)" style="fill: none; opacity: 0"/>
   </g>
   <g id="patch_8">
    <path d="M 76.090909 263.271055 
L 122.727273 263.271055 
L 99.409091 222.882779 
L 76.090909 263.271055 
z
" clip-path="url(#p506621e7bf)" style="fill: none; opacity: 0"/>
   </g>
   <g id="patch_9">
    <path d="M 122.727273 263.271055 
L 169.363636 263.271055 
L 146.045455 222.882779 
L 122.727273 263.271055 
z
" clip-path="url(#p506621e7bf)" style="fill: none; opacity: 0"/>
   </g>
   <g id="patch_10">
    <path d="M 99.409091 222.882779 
L 146.045455 222.882779 
L 122.727273 182.494503 
L 99.409091 222.882779 
z
" clip-path="url(#p506621e7bf)" style="fill: none; opacity: 0"/>
   </g>
   <g id="patch_11">
    <path d="M 216 344.047606 
L 262.636364 344.047606 
L 239.318182 303.65933 
L 216 344.047606 
z
" clip-path="url(#p506621e7bf)" style="fill: none; opacity: 0"/>
   </g>
   <g id="patch_12">
    <path d="M 262.636364 344.047606 
L 309.272727 344.047606 
L 285.954545 303.65933 
L 262.636364 344.047606 
z
" clip-path="url(#p506621e7bf)" style="fill: none; opacity: 0"/>
   </g>
   <g id="patch_13">
    <path d="M 239.318182 303.65933 
L 285.954545 303.65933 
L 262.636364 263.271055 
L 239.318182 303.65933 
z
" clip-path="url(#p506621e7bf)" style="fill: none; opacity: 0"/>
   </g>
   <g id="patch_14">
    <path d="M 309.272727 344.047606 
L 355.909091 344.047606 
L 332.590909 303.65933 
L 309.272727 344.047606 
z
" clip-path="url(#p506621e7bf)" style="fill: none; opacity: 0"/>
   </g>
   <g id="patch_15">
    <path d="M 355.909091 344.047606 
L 402.545455 344.047606 
L 379.227273 303.65933 
L 355.909091 344.047606 
z
" clip-path="url(#p506621e7bf)" style="fill: none; opacity: 0"/>
   </g>
   <g id="patch_16">
    <path d="M 332.590909 303.65933 
L 379.227273 303.65933 
L 355.909091 263.271055 
L 332.590909 303.65933 
z
" clip-path="url(#p506621e7bf)" style="fill: none; opacity: 0"/>
   </g>
   <g id="patch_17">
    <path d="M 262.636364 263.271055 
L 309.272727 263.271055 
L 285.954545 222.882779 
L 262.636364 263.271055 
z
" clip-path="url(#p506621e7bf)" style="fill: none; opacity: 0"/>
   </g>
   <g id="patch_18">
    <path d="M 309.272727 263.271055 
L 355.909091 263.271055 
L 332.590909 222.882779 
L 309.272727 263.271055 
z
" clip-path="url(#p506621e7bf)" style="fill: none; opacity: 0"/>
   </g>
   <g id="patch_19">
    <path d="M 285.954545 222.882779 
L 332.590909 222.882779 
L 309.272727 182.494503 
L 285.954545 222.882779 
z
" clip-path="url(#p506621e7bf)" style="fill: none; opacity: 0"/>
   </g>
   <g id="patch_20">
    <path d="M 122.727273 182.494503 
L 169.363636 182.494503 
L 146.045455 142.106228 
L 122.727273 182.494503 
z
" clip-path="url(#p506621e7bf)" style="fill: none; opacity: 0"/>
   </g>
   <g id="patch_21">
    <path d="M 169.363636 182.494503 
L 216 182.494503 
L 192.681818 142.106228 
L 169.363636 182.494503 
z
" clip-path="url(#p506621e7bf)" style="fill: none; opacity: 0"/>
   </g>
   <g id="patch_22">
    <path d="M 146.045455 142.106228 
L 192.681818 142.106228 
L 169.363636 101.717952 
L 146.045455 142.106228 
z
" clip-path="url(#p506621e7bf)" style="fill: none; opacity: 0"/>
   </g>
   <g id="patch_23">
    <path d="M 216 182.494503 
L 262.636364 182.494503 
L 239.318182 142.106228 
L 216 182.494503 
z
" clip-path="url(#p506621e7bf)" style="fill: none; opacity: 0"/>
   </g>
   <g id="patch_24">
    <path d="M 262.636364 182.494503 
L 309.272727 182.494503 
L 285.954545 142.106228 
L 262.636364 182.494503 
z
" clip-path="url(#p506621e7bf)" style="fill: none; opacity: 0"/>
   </g>
   <g id="patch_25">
    <path d="M 239.318182 142.106228 
L 285.954545 142.106228 
L 262.636364 101.717952 
L 239.318182 142.106228 
z
" clip-path="url(#p506621e7bf)" style="fill: none; opacity: 0"/>
   </g>
   <g id="patch_26">
    <path d="M 169.363636 101.717952 
L 216 101.717952 
L 192.681818 61.329676 
L 169.363636 101.717952 
z
" clip-path="url(#p506621e7bf)" style="fill: none; opacity: 0"/>
   </g>
   <g id="patch_27">
    <path d="M 216 101.717952 
L 262.636364 101.717952 
L 239.318182 61.329676 
L 216 101.717952 
z
" clip-path="url(#p506621e7bf)" style="fill: none; opacity: 0"/>
   </g>
   <g id="patch_28">
    <path d="M 192.681818 61.329676 
L 239.318182 61.329676 
L 216 20.941401 
L 192.681818 61.329676 
z
" clip-path="url(#p506621e7bf)" style="fill: none; opacity: 0"/>
   </g>
   <g id="patch_29">
    <path d="M 29.454545 344.047606 
L 76.090909 344.047606 
L 52.772727 303.65933 
z
" clip-path="url(#p506621e7bf)" style="fill: #0072b2; opacity: 0.3; stroke: #0072b2; stroke-linejoin: miter"/>
   </g>
   <g id="patch_30">
    <path d="M 76.090909 344.047606 
L 122.727273 344.047606 
L 99.409091 303.65933 
z
" clip-path="url(#p506621e7bf)" style="fill: #0072b2; opacity: 0.3; stroke: #0072b2; stroke-linejoin: miter"/>
   </g>
   <g id="patch_31">
    <path d="M 52.772727 303.65933 
L 99.409091 303.65933 
L 76.090909 263.271055 
z
" clip-path="url(#p506621e7bf)" style="fill: #0072b2; opacity: 0.3; stroke: #0072b2; stroke-linejoin: miter"/>
   </g>
   <g id="patch_32">
    <path d="M 122.727273 344.047606 
L 169.363636 344.047606 
L 146.045455 303.65933 
z
" clip-path="url(#p506621e7bf)" style="fill: #0072b2; opacity: 0.3; stroke: #0072b2; stroke-linejoin: miter"/>
   </g>
   <g id="patch_33">
    <path d="M 169.363636 344.047606 
L 216 344.047606 
L 192.681818 303.65933 
z
" clip-path="url(#p506621e7bf)" style="fill: #0072b2; opacity: 0.3; stroke: #0072b2; stroke-linejoin: miter"/>
   </g>
   <g id="patch_34">
    <path d="M 146.045455 303.65933 
L 192.681818 303.65933 
L 169.363636 263.271055 
z
" clip-path="url(#p506621e7bf)" style="fill: #0072b2; opacity: 0.3; stroke: #0072b2; stroke-linejoin: miter"/>
   </g>
   <g id="patch_35">
    <path d="M 76.090909 263.271055 
L 122.727273 263.271055 
L 99.409091 222.882779 
z
" clip-path="url(#p506621e7bf)" style="fill: #0072b2; opacity: 0.3; stroke: #0072b2; stroke-linejoin: miter"/>
   </g>
   <g id="patch_36">
    <path d="M 122.727273 263.271055 
L 169.363636 263.271055 
L 146.045455 222.882779 
z
" clip-path="url(#p506621e7bf)" style="fill: #0072b2; opacity: 0.3; stroke: #0072b2; stroke-linejoin: miter"/>
   </g>
   <g id="patch_37">
    <path d="M 99.409091 222.882779 
L 146.045455 222.882779 
L 122.727273 182.494503 
z
" clip-path="url(#p506621e7bf)" style="fill: #0072b2; opacity: 0.3; stroke: #0072b2; stroke-linejoin: miter"/>
   </g>
   <g id="patch_38">
    <path d="M 216 344.047606 
L 262.636364 344.047606 
L 239.318182 303.65933 
z
" clip-path="url(#p506621e7bf)" style="fill: #0072b2; opacity: 0.3; stroke: #0072b2; stroke-linejoin: miter"/>
   </g>
   <g id="patch_39">
    <path d="M 262.636364 344.047606 
L 309.272727 344.047606 
L 285.954545 303.65933 
z
" clip-path="url(#p506621e7bf)" style="fill: #0072b2; opacity: 0.3; stroke: #0072b2; stroke-linejoin: miter"/>
   </g>
   <g id="patch_40">
    <path d="M 239.318182 303.65933 
L 285.954545 303.65933 
L 262.636364 263.271055 
z
" clip-path="url(#p506621e7bf)" style="fill: #0072b2; opacity: 0.3; stroke: #0072b2; stroke-linejoin: miter"/>
   </g>
   <g id="patch_41">
    <path d="M 309.272727 344.047606 
L 355.909091 344.047606 
L 332.590909 303.65933 
z
" clip-path="url(#p506621e7bf)" style="fill: #0072b2; opacity: 0.3; stroke: #0072b2; stroke-linejoin: miter"/>
   </g>
   <g id="patch_42">
    <path d="M 355.909091 344.047606 
L 402.545455 344.047606 
L 379.227273 303.65933 
z
" clip-path="url(#p506621e7bf)" style="fill: #0072b2; opacity: 0.3; stroke: #0072b2; stroke-linejoin: miter"/>
   </g>
   <g id="patch_43">
    <path d="M 332.590909 303.65933 
L 379.227273 303.65933 
L 355.909091 263.271055 
z
" clip-path="url(#p506621e7bf)" style="fill: #0072b2; opacity: 0.3; stroke: #0072b2; stroke-linejoin: miter"/>
   </g>
   <g id="patch_44">
    <path d="M 262.636364 263.271055 
L 309.272727 263.271055 
L 285.954545 222.882779 
z
" clip-path="url(#p506621e7bf)" style="fill: #0072b2; opacity: 0.3; stroke: #0072b2; stroke-linejoin: miter"/>
   </g>
   <g id="patch_45">
    <path d="M 309.272727 263.271055 
L 355.909091 263.271055 
L 332.590909 222.882779 
z
" clip-path="url(#p506621e7bf)" style="fill: #0072b2; opacity: 0.3; stroke: #0072b2; stroke-linejoin: miter"/>
   </g>
   <g id="patch_46">
    <path d="M 285.954545 222.882779 
L 332.590909 222.882779 
L 309.272727 182.494503 
z
" clip-path="url(#p506621e7bf)" style="fill: #0072b2; opacity: 0.3; stroke: #0072b2; stroke-linejoin: miter"/>
   </g>
   <g id="patch_47">
    <path d="M 122.727273 182.494503 
L 169.363636 182.494503 
L 146.045455 142.106228 
z
" clip-path="url(#p506621e7bf)" style="fill: #0072b2; opacity: 0.3; stroke: #0072b2; stroke-linejoin: miter"/>
   </g>
   <g id="patch_48">
    <path d="M 169.363636 182.494503 
L 216 182.494503 
L 192.681818 142.106228 
z
" clip-path="url(#p506621e7bf)" style="fill: #0072b2; opacity: 0.3; stroke: #0072b2; stroke-linejoin: miter"/>
   </g>
   <g id="patch_49">
    <path d="M 146.045455 142.106228 
L 192.681818 142.106228 
L 169.363636 101.717952 
z
" clip-path="url(#p506621e7bf)" style="fill: #0072b2; opacity: 0.3; stroke: #0072b2; stroke-linejoin: miter"/>
   </g>
   <g id="patch_50">
    <path d="M 216 182.494503 
L 262.636364 182.494503 
L 239.318182 142.106228 
z
" clip-path="url(#p506621e7bf)" style="fill: #0072b2; opacity: 0.3; stroke: #0072b2; stroke-linejoin: miter"/>
   </g>
   <g id="patch_51">
    <path d="M 262.636364 182.494503 
L 309.272727 182.494503 
L 285.954545 142.106228 
z
" clip-path="url(#p506621e7bf)" style="fill: #0072b2; opacity: 0.3; stroke: #0072b2; stroke-linejoin: miter"/>
   </g>
   <g id="patch_52">
    <path d="M 239.318182 142.106228 
L 285.954545 142.106228 
L 262.636364 101.717952 
z
" clip-path="url(#p506621e7bf)" style="fill: #0072b2; opacity: 0.3; stroke: #0072b2; stroke-linejoin: miter"/>
   </g>
   <g id="patch_53">
    <path d="M 169.363636 101.717952 
L 216 101.717952 
L 192.681818 61.329676 
z
" clip-path="url(#p506621e7bf)" style="fill: #0072b2; opacity: 0.3; stroke: #0072b2; stroke-linejoin: miter"/>
   </g>
   <g id="patch_54">
    <path d="M 216 101.717952 
L 262.636364 101.717952 
L 239.318182 61.329676 
z
" clip-path="url(#p506621e7bf)" style="fill: #0072b2; opacity: 0.3; stroke: #0072b2; stroke-linejoin: miter"/>
   </g>
   <g id="patch_55">
    <path d="M 192.681818 61.329676 
L 239.318182 61.329676 
L 216 20.941401 
z
" clip-path="url(#p506621e7bf)" style="fill: #0072b2; opacity: 0.3; stroke: #0072b2; stroke-linejoin: miter"/>
   </g>
   <g id="line2d_1">
    <path d="M 29.454545 344.047606 
L 76.090909 344.047606 
L 52.772727 303.65933 
L 29.454545 344.047606 
" clip-path="url(#p506621e7bf)" style="fill: none; stroke: #000000; stroke-width: 1.5; stroke-linecap: square"/>
   </g>
   <g id="line2d_2">
    <path d="M 76.090909 344.047606 
L 122.727273 344.047606 
L 99.409091 303.65933 
L 76.090909 344.047606 
" clip-path="url(#p506621e7bf)" style="fill: none; stroke: #000000; stroke-width: 1.5; stroke-linecap: square"/>
   </g>
   <g id="line2d_3">
    <path d="M 52.772727 303.65933 
L 99.409091 303.65933 
L 76.090909 263.271055 
L 52.772727 303.65933 
" clip-path="url(#p506621e7bf)" style="fill: none; stroke: #000000; stroke-width: 1.5; stroke-linecap: square"/>
   </g>
   <g id="line2d_4">
    <path d="M 122.727273 344.047606 
L 169.363636 344.047606 
L 146.045455 303.65933 
L 122.727273 344.047606 
" clip-path="url(#p506621e7bf)" style="fill: none; stroke: #000000; stroke-width: 1.5; stroke-linecap: square"/>
   </g>
   <g id="line2d_5">
    <path d="M 169.363636 344.047606 
L 216 344.047606 
L 192.681818 303.65933 
L 169.363636 344.047606 
" clip-path="url(#p506621e7bf)" style="fill: none; stroke: #000000; stroke-width: 1.5; stroke-linecap: square"/>
   </g>
   <g id="line2d_6">
    <path d="M 146.045455 303.65933 
L 192.681818 303.65933 
L 169.363636 263.271055 
L 146.045455 303.65933 
" clip-path="url(#p506621e7bf)" style="fill: none; stroke: #000000; stroke-width: 1.5; stroke-linecap: square"/>
   </g>
   <g id="line2d_7">
    <path d="M 76.090909 263.271055 
L 122.727273 263.271055 
L 99.409091 222.882779 
L 76.090909 263.271055 
" clip-path="url(#p506621e7bf)" style="fill: none; stroke: #000000; stroke-width: 1.5; stroke-linecap: square"/>
   </g>
   <g id="line2d_8">
    <path d="M 122.727273 263.271055 
L 169.363636 263.271055 
L 146.045455 222.882779 
L 122.727273 263.271055 
" clip-path="url(#p506621e7bf)" style="fill: none; stroke: #000000; stroke-width: 1.5; stroke-linecap: square"/>
   </g>
   <g id="line2d_9">
    <path d="M 99.409091 222.882779 
L 146.045455 222.882779 
L 122.727273 182.494503 
L 99.409091 222.882779 
" clip-path="url(#p506621e7bf)" style="fill: none; stroke: #000000; stroke-width: 1.5; stroke-linecap: square"/>
   </g>
   <g id="line2d_10">
    <path d="M 216 344.047606 
L 262.636364 344.047606 
L 239.318182 303.65933 
L 216 344.047606 
" clip-path="url(#p506621e7bf)" style="fill: none; stroke: #000000; stroke-width: 1.5; stroke-linecap: square"/>
   </g>
   <g id="line2d_11">
    <path d="M 262.636364 344.047606 
L 309.272727 344.047606 
L 285.954545 303.65933 
L 262.636364 344.047606 
" clip-path="url(#p506621e7bf)" style="fill: none; stroke: #000000; stroke-width: 1.5; stroke-linecap: square"/>
   </g>
   <g id="line2d_12">
    <path d="M 239.318182 303.65933 
L 285.954545 303.65933 
L 262.636364 263.271055 
L 239.318182 303.65933 
" clip-path="url(#p506621e7bf)" style="fill: none; stroke: #000000; stroke-width: 1.5; stroke-linecap: square"/>
   </g>
   <g id="line2d_13">
    <path d="M 309.272727 344.047606 
L 355.909091 344.047606 
L 332.590909 303.65933 
L 309.272727 344.047606 
" clip-path="url(#p506621e7bf)" style="fill: none; stroke: #000000; stroke-width: 1.5; stroke-linecap: square"/>
   </g>
   <g id="line2d_14">
    <path d="M 355.909091 344.047606 
L 402.545455 344.047606 
L 379.227273 303.65933 
L 355.909091 344.047606 
" clip-path="url(#p506621e7bf)" style="fill: none; stroke: #000000; stroke-width: 1.5; stroke-linecap: square"/>
   </g>
   <g id="line2d_15">
    <path d="M 332.590909 303.65933 
L 379.227273 303.65933 
L 355.909091 263.271055 
L 332.590909 303.65933 
" clip-path="url(#p506621e7bf)" style="fill: none; stroke: #000000; stroke-width: 1.5; stroke-linecap: square"/>
   </g>
   <g id="line2d_16">
    <path d="M 262.636364 263.271055 
L 309.272727 263.271055 
L 285.954545 222.882779 
L 262.636364 263.271055 
" clip-path="url(#p506621e7bf)" style="fill: none; stroke: #000000; stroke-width: 1.5; stroke-linecap: square"/>
   </g>
   <g id="line2d_17">
    <path d="M 309.272727 263.271055 
L 355.909091 263.271055 
L 332.590909 222.882779 
L 309.272727 263.271055 
" clip-path="url(#p506621e7bf)" style="fill: none; stroke: #000000; stroke-width: 1.5; stroke-linecap: square"/>
   </g>
   <g id="line2d_18">
    <path d="M 285.954545 222.882779 
L 332.590909 222.882779 
L 309.272727 182.494503 
L 285.954545 222.882779 
" clip-path="url(#p506621e7bf)" style="fill: none; stroke: #000000; stroke-width: 1.5; stroke-linecap: square"/>
   </g>
   <g id="line2d_19">
    <path d="M 122.727273 182.494503 
L 169.363636 182.494503 
L 146.045455 142.106228 
L 122.727273 182.494503 
" clip-path="url(#p506621e7bf)" style="fill: none; stroke: #000000; stroke-width: 1.5; stroke-linecap: square"/>
   </g>
   <g id="line2d_20">
    <path d="M 169.363636 182.494503 
L 216 182.494503 
L 192.681818 142.106228 
L 169.363636 182.494503 
" clip-path="url(#p506621e7bf)" style="fill: none; stroke: #000000; stroke-width: 1.5; stroke-linecap: square"/>
   </g>
   <g id="line2d_21">
    <path d="M 146.045455 142.106228 
L 192.681818 142.106228 
L 169.363636 101.717952 
L 146.045455 142.106228 
" clip-path="url(#p506621e7bf)" style="fill: none; stroke: #000000; stroke-width: 1.5; stroke-linecap: square"/>
   </g>
   <g id="line2d_22">
    <path d="M 216 182.494503 
L 262.636364 182.494503 
L 239.318182 142.106228 
L 216 182.494503 
" clip-path="url(#p506621e7bf)" style="fill: none; stroke: #000000; stroke-width: 1.5; stroke-linecap: square"/>
   </g>
   <g id="line2d_23">
    <path d="M 262.636364 182.494503 
L 309.272727 182.494503 
L 285.954545 142.106228 
L 262.636364 182.494503 
" clip-path="url(#p506621e7bf)" style="fill: none; stroke: #000000; stroke-width: 1.5; stroke-linecap: square"/>
   </g>
   <g id="line2d_24">
    <path d="M 239.318182 142.106228 
L 285.954545 142.106228 
L 262.636364 101.717952 
L 239.318182 142.106228 
" clip-path="url(#p506621e7bf)" style="fill: none; stroke: #000000; stroke-width: 1.5; stroke-linecap: square"/>
   </g>
   <g id="line2d_25">
    <path d="M 169.363636 101.717952 
L 216 101.717952 
L 192.681818 61.329676 
L 169.363636 101.717952 
" clip-path="url(#p506621e7bf)" style="fill: none; stroke: #000000; stroke-width: 1.5; stroke-linecap: square"/>
   </g>
   <g id="line2d_26">
    <path d="M 216 101.717952 
L 262.636364 101.717952 
L 239.318182 61.329676 
L 216 101.717952 
" clip-path="url(#p506621e7bf)" style="fill: none; stroke: #000000; stroke-width: 1.5; stroke-linecap: square"/>
   </g>
   <g id="line2d_27">
    <path d="M 192.681818 61.329676 
L 239.318182 61.329676 
L 216 20.941401 
L 192.681818 61.329676 
" clip-path="url(#p506621e7bf)" style="fill: none; stroke: #000000; stroke-width: 1.5; stroke-linecap: square"/>
   </g>
   <g id="text_1">
    <!-- Figur 4 -->
    <g transform="translate(159.899745 460.761873) scale(0.4 -0.4)">
     <defs>
      <path id="CMSS17-46" d="M 2918 1984 
L 2918 2373 
L 1101 2373 
L 1101 3968 
L 1882 3968 
C 1958 3968 2035 3968 2112 3968 
L 3168 3968 
L 3168 4375 
L 563 4375 
L 563 -32 
L 1101 -32 
L 1101 1984 
L 2918 1984 
z
" transform="scale(0.015625)"/>
      <path id="CMSS17-69" d="M 979 4183 
L 442 4183 
L 442 3648 
L 979 3648 
L 979 4183 
z
M 947 2739 
L 474 2739 
L 474 0 
L 947 0 
L 947 2739 
z
" transform="scale(0.015625)"/>
      <path id="CMSS17-67" d="M 2848 2808 
C 2483 2808 2170 2738 1914 2617 
C 1702 2777 1485 2808 1338 2808 
C 781 2808 358 2349 358 1814 
C 358 1468 550 1207 563 1195 
C 448 1035 384 863 384 672 
C 384 448 474 289 544 200 
C 211 -3 166 -314 166 -435 
C 166 -898 749 -1280 1498 -1280 
C 2253 -1280 2835 -898 2835 -428 
C 2835 448 1856 448 1587 448 
L 1069 448 
C 973 448 717 448 717 791 
C 717 921 774 1004 781 1010 
C 877 940 1075 832 1338 832 
C 1869 832 2310 1278 2310 1827 
C 2310 2132 2170 2355 2112 2432 
L 2131 2432 
C 2150 2432 2419 2432 2515 2432 
C 2720 2432 2739 2429 2918 2419 
L 2848 2808 
z
M 1338 1182 
C 1120 1182 813 1315 813 1823 
C 813 2375 1165 2464 1331 2464 
C 1549 2464 1856 2331 1856 1823 
C 1856 1271 1504 1182 1338 1182 
z
M 1581 -10 
C 1734 -10 2381 -10 2381 -442 
C 2381 -714 1984 -929 1504 -929 
C 1018 -929 621 -720 621 -435 
C 621 -403 621 -10 1062 -10 
L 1581 -10 
z
" transform="scale(0.015625)"/>
      <path id="CMSS17-75" d="M 2618 2739 
L 2131 2739 
L 2131 972 
C 2131 498 1786 306 1421 306 
C 998 306 960 447 960 709 
L 960 2739 
L 474 2739 
L 474 678 
C 474 179 646 -64 1088 -64 
C 1306 -64 1798 -13 2144 306 
L 2144 0 
L 2618 0 
L 2618 2739 
z
" transform="scale(0.015625)"/>
      <path id="CMSS17-72" d="M 954 1363 
C 954 1965 1395 2368 1958 2368 
L 1958 2789 
C 1549 2789 1165 2585 934 2253 
L 934 2758 
L 480 2758 
L 480 0 
L 954 0 
L 954 1363 
z
" transform="scale(0.015625)"/>
      <path id="CMSS17-34" d="M 2253 1088 
L 2835 1088 
L 2835 1477 
L 2253 1477 
L 2253 4192 
L 1690 4192 
L 166 1477 
L 166 1088 
L 1747 1088 
L 1747 0 
L 2253 0 
L 2253 1088 
z
M 659 1477 
C 1030 2127 1766 3439 1766 3885 
L 1766 1477 
L 659 1477 
z
" transform="scale(0.015625)"/>
     </defs>
     <use xlink:href="#CMSS17-46" transform="scale(0.996264)"/>
     <use xlink:href="#CMSS17-69" transform="translate(53.289559 0) scale(0.996264)"/>
     <use xlink:href="#CMSS17-67" transform="translate(75.470282 0) scale(0.996264)"/>
     <use xlink:href="#CMSS17-75" transform="translate(122.313906 0) scale(0.996264)"/>
     <use xlink:href="#CMSS17-72" transform="translate(170.518849 0) scale(0.996264)"/>
     <use xlink:href="#CMSS17-34" transform="translate(233.657734 0) scale(0.996264)"/>
    </g>
   </g>
  </g>
 </g>
 <defs>
  <clipPath id="p506621e7bf">
   <rect x="10.8" y="10.8" width="410.4" height="343.389007"/>
  </clipPath>
 </defs>
</svg>
