<?xml version="1.0" encoding="utf-8" standalone="no"?>
<!DOCTYPE svg PUBLIC "-//W3C//DTD SVG 1.1//EN"
  "http://www.w3.org/Graphics/SVG/1.1/DTD/svg11.dtd">
<svg xmlns:xlink="http://www.w3.org/1999/xlink" width="432pt" height="432pt" viewBox="0 0 432 432" xmlns="http://www.w3.org/2000/svg" version="1.1">
 <metadata>
  <rdf:RDF xmlns:dc="http://purl.org/dc/elements/1.1/" xmlns:cc="http://creativecommons.org/ns#" xmlns:rdf="http://www.w3.org/1999/02/22-rdf-syntax-ns#">
   <cc:Work>
    <dc:type rdf:resource="http://purl.org/dc/dcmitype/StillImage"/>
    <dc:date>2026-03-26T09:19:57.417104</dc:date>
    <dc:format>image/svg+xml</dc:format>
    <dc:creator>
     <cc:Agent>
      <dc:title>Matplotlib v3.10.8, https://matplotlib.org/</dc:title>
     </cc:Agent>
    </dc:creator>
   </cc:Work>
  </rdf:RDF>
 </metadata>
 <defs>
  <style type="text/css">*{stroke-linejoin: round; stroke-linecap: butt}</style>
 </defs>
 <g id="figure_1">
  <g id="patch_1">
   <path d="M 0 432 
L 432 432 
L 432 0 
L 0 0 
L 0 432 
z
" style="fill: none"/>
  </g>
  <g id="axes_1">
   <g id="line2d_1">
    <path d="M 50.024076 316.459377 
L 398.025568 316.459377 
" clip-path="url(#p351314213f)" style="fill: none; stroke: #0072b2; stroke-width: 2.5; stroke-linecap: square"/>
   </g>
   <g id="line2d_2">
    <path d="M 398.025568 316.459377 
L 398.025568 115.540623 
" clip-path="url(#p351314213f)" style="fill: none; stroke: #0072b2; stroke-width: 2.5; stroke-linecap: square"/>
   </g>
   <g id="line2d_3">
    <path d="M 398.025568 115.540623 
L 50.024076 316.459377 
" clip-path="url(#p351314213f)" style="fill: none; stroke: #0072b2; stroke-width: 2.5; stroke-linecap: square"/>
   </g>
   <g id="line2d_4">
    <path d="M 76.64041 316.459377 
L 76.638843 316.16872 
L 76.634144 315.878097 
L 76.626311 315.587543 
L 76.615347 315.297091 
L 76.601253 315.006776 
L 76.58403 314.716632 
L 76.56368 314.426693 
L 76.540206 314.136994 
L 76.51361 313.847567 
L 76.483896 313.558449 
L 76.451067 313.269672 
L 76.415127 312.98127 
L 76.376081 312.693278 
L 76.333932 312.405729 
L 76.288686 312.118657 
L 76.240348 311.832096 
L 76.188923 311.54608 
L 76.134419 311.260643 
L 76.076841 310.975817 
L 76.016195 310.691637 
L 75.95249 310.408136 
L 75.885733 310.125347 
L 75.815931 309.843304 
L 75.743093 309.56204 
L 75.667227 309.281588 
L 75.588343 309.001981 
L 75.506449 308.723252 
L 75.421555 308.445433 
L 75.333671 308.168558 
L 75.242808 307.892658 
L 75.148976 307.617768 
L 75.052187 307.343918 
L 74.952451 307.071141 
L 74.84978 306.79947 
L 74.744187 306.528935 
L 74.635684 306.25957 
L 74.524283 305.991405 
L 74.409998 305.724473 
L 74.292843 305.458804 
L 74.17283 305.194431 
L 74.049975 304.931383 
L 73.924291 304.669693 
L 73.795794 304.40939 
L 73.664498 304.150506 
L 73.53042 303.893072 
L 73.393574 303.637116 
L 73.253977 303.38267 
L 73.111645 303.129763 
" clip-path="url(#p351314213f)" style="fill: none; stroke: #dc5e8b; stroke-width: 2; stroke-linecap: square"/>
   </g>
   <g id="line2d_5">
    <path d="M 379.394134 316.459377 
L 379.394134 297.70696 
L 398.025568 297.70696 
" clip-path="url(#p351314213f)" style="fill: none; stroke: #dc5e8b; stroke-width: 2; stroke-linecap: square"/>
   </g>
   <g id="line2d_6">
    <path d="M 374.937998 128.870237 
L 375.233202 129.375325 
L 375.539311 129.873794 
L 375.85618 130.365404 
L 376.183657 130.849921 
L 376.521585 131.327112 
L 376.869803 131.79675 
L 377.228143 132.258609 
L 377.596435 132.712469 
L 377.974502 133.158112 
L 378.362163 133.595325 
L 378.759233 134.023899 
L 379.165522 134.443629 
L 379.580835 134.854315 
L 380.004974 135.255758 
L 380.437736 135.647768 
L 380.878913 136.030158 
L 381.328295 136.402742 
L 381.785666 136.765345 
L 382.250808 137.117792 
L 382.723498 137.459914 
L 383.20351 137.791548 
L 383.690615 138.112535 
L 384.184578 138.422722 
L 384.685165 138.721959 
L 385.192134 139.010105 
L 385.705244 139.287021 
L 386.22425 139.552574 
L 386.748902 139.806637 
L 387.27895 140.04909 
L 387.814141 140.279815 
L 388.354217 140.498703 
L 388.898921 140.705649 
L 389.447992 140.900553 
L 390.001167 141.083323 
L 390.558182 141.25387 
L 391.118771 141.412115 
L 391.682664 141.557979 
L 392.249592 141.691395 
L 392.819283 141.812298 
L 393.391466 141.92063 
L 393.965866 142.016339 
L 394.542209 142.09938 
L 395.120219 142.169713 
L 395.699619 142.227304 
L 396.280131 142.272125 
L 396.861479 142.304156 
L 397.443384 142.323381 
L 398.025568 142.32979 
" clip-path="url(#p351314213f)" style="fill: none; stroke: #dc5e8b; stroke-width: 2; stroke-linecap: square"/>
   </g>
   <g id="text_1">
    <!-- $3$ -->
    <g transform="translate(217.17125 357.416859) scale(0.3 -0.3)">
     <defs>
      <path id="CMR17-33" d="M 1414 2157 
C 1984 2157 2234 1662 2234 1090 
C 2234 320 1824 25 1453 25 
C 1114 25 563 194 390 693 
C 422 680 454 680 486 680 
C 640 680 755 782 755 948 
C 755 1133 614 1216 486 1216 
C 378 1216 211 1165 211 926 
C 211 335 787 -128 1466 -128 
C 2176 -128 2720 430 2720 1085 
C 2720 1707 2208 2157 1600 2227 
C 2086 2328 2554 2756 2554 3329 
C 2554 3820 2048 4179 1472 4179 
C 890 4179 378 3829 378 3329 
C 378 3110 544 3072 627 3072 
C 762 3072 877 3155 877 3321 
C 877 3486 762 3569 627 3569 
C 602 3569 570 3569 544 3557 
C 730 3959 1235 4032 1459 4032 
C 1683 4032 2106 3925 2106 3320 
C 2106 3143 2080 2828 1862 2550 
C 1670 2304 1453 2304 1242 2284 
C 1210 2284 1062 2269 1037 2269 
C 992 2263 966 2257 966 2208 
C 966 2163 973 2157 1101 2157 
L 1414 2157 
z
" transform="scale(0.015625)"/>
     </defs>
     <use xlink:href="#CMR17-33" transform="scale(0.996264)"/>
    </g>
   </g>
   <g id="text_2">
    <!-- $2 \sqrt{3}$ -->
    <g transform="translate(181.30982 196.083642) scale(0.3 -0.3)">
     <defs>
      <path id="CMR17-32" d="M 2669 989 
L 2554 989 
C 2490 536 2438 459 2413 420 
C 2381 369 1920 369 1830 369 
L 602 369 
C 832 619 1280 1072 1824 1597 
C 2214 1967 2669 2402 2669 3035 
C 2669 3790 2067 4224 1395 4224 
C 691 4224 262 3604 262 3030 
C 262 2780 448 2748 525 2748 
C 589 2748 781 2787 781 3010 
C 781 3207 614 3264 525 3264 
C 486 3264 448 3258 422 3245 
C 544 3790 915 4058 1306 4058 
C 1862 4058 2227 3617 2227 3035 
C 2227 2479 1901 2000 1536 1584 
L 262 146 
L 262 0 
L 2515 0 
L 2669 989 
z
" transform="scale(0.015625)"/>
      <path id="CMSY10-70" d="M 2490 -5472 
L 1363 -2982 
C 1318 -2880 1286 -2880 1267 -2880 
C 1261 -2880 1229 -2880 1158 -2931 
L 550 -3392 
C 467 -3456 467 -3475 467 -3494 
C 467 -3526 486 -3565 531 -3565 
C 570 -3565 678 -3475 749 -3424 
C 787 -3393 883 -3323 954 -3271 
L 2214 -6042 
C 2259 -6144 2291 -6144 2349 -6144 
C 2445 -6144 2464 -6106 2509 -6016 
L 5414 0 
C 5459 90 5459 115 5459 128 
C 5459 192 5408 256 5331 256 
C 5280 256 5235 224 5184 122 
L 2490 -5472 
z
" transform="scale(0.015625)"/>
     </defs>
     <use xlink:href="#CMR17-32" transform="scale(0.996264)"/>
     <use xlink:href="#CMSY10-70" transform="translate(45.690477 82.421465) scale(0.996264)"/>
     <use xlink:href="#CMR17-33" transform="translate(128.712731 0) scale(0.996264)"/>
     <path d="M 128.712731 82.421465 
L 174.403208 82.421465 
L 174.403208 86.406414 
L 128.712731 86.406414 
L 128.712731 82.421465 
z
"/>
    </g>
   </g>
   <g id="text_3">
    <!-- $A$ -->
    <g transform="translate(9.2437 331.925179) scale(0.3 -0.3)">
     <defs>
      <path id="CMMI12-41" d="M 1088 691 
C 864 314 646 186 339 186 
C 269 180 218 180 218 58 
C 218 24 250 0 294 0 
C 410 0 698 0 813 0 
C 998 0 1203 0 1382 0 
C 1421 0 1498 0 1498 122 
C 1498 180 1446 186 1408 186 
C 1261 186 1139 236 1139 388 
C 1139 476 1178 546 1261 685 
L 1747 1479 
L 3379 1479 
C 3386 1423 3386 1373 3392 1316 
C 3411 1152 3488 495 3488 376 
C 3488 186 3162 186 3059 186 
C 2989 186 2918 186 2918 70 
C 2918 0 2976 0 3014 0 
C 3123 0 3251 0 3360 0 
L 3725 0 
C 4115 0 4397 0 4403 0 
C 4448 0 4518 0 4518 122 
C 4518 186 4461 186 4365 186 
C 4013 186 4006 244 3987 434 
L 3597 4404 
C 3584 4531 3558 4544 3488 4544 
C 3424 4544 3386 4531 3328 4435 
L 1088 691 
z
M 1856 1664 
L 3142 3819 
L 3360 1664 
L 1856 1664 
z
" transform="scale(0.015625)"/>
     </defs>
     <use xlink:href="#CMMI12-41" transform="scale(0.996264)"/>
    </g>
   </g>
   <g id="text_4">
    <!-- $B$ -->
    <g transform="translate(398.201725 335.296081) scale(0.3 -0.3)">
     <defs>
      <path id="CMMI12-42" d="M 2342 3921 
C 2400 4160 2426 4160 2675 4160 
L 3507 4160 
C 4230 4160 4230 3544 4230 3485 
C 4230 2966 3712 2304 2867 2304 
L 1946 2304 
L 2342 3921 
z
M 3424 2275 
C 4122 2402 4755 2886 4755 3473 
C 4755 3970 4314 4352 3590 4352 
L 1536 4352 
C 1414 4352 1357 4352 1357 4226 
C 1357 4160 1414 4160 1510 4160 
C 1901 4160 1901 4112 1901 4044 
C 1901 4032 1901 3993 1875 3897 
L 1011 472 
C 954 249 941 185 493 185 
C 371 185 307 185 307 70 
C 307 0 346 0 474 0 
L 2669 0 
C 3648 0 4403 739 4403 1383 
C 4403 1906 3942 2224 3424 2275 
z
M 2515 185 
L 1651 185 
C 1562 185 1549 185 1510 192 
C 1440 198 1434 211 1434 261 
C 1434 305 1446 343 1459 399 
L 1907 2176 
L 3110 2176 
C 3866 2176 3866 1483 3866 1433 
C 3866 828 3309 185 2515 185 
z
" transform="scale(0.015625)"/>
     </defs>
     <use xlink:href="#CMMI12-42" transform="scale(0.996264)"/>
    </g>
   </g>
   <g id="text_5">
    <!-- $C$ -->
    <g transform="translate(395.561003 109.102843) scale(0.3 -0.3)">
     <defs>
      <path id="CMMI12-43" d="M 4781 4423 
C 4781 4480 4736 4480 4723 4480 
C 4710 4480 4685 4480 4634 4416 
L 4192 3882 
C 3968 4264 3616 4480 3136 4480 
C 1754 4480 320 3088 320 1595 
C 320 533 1069 -128 2003 -128 
C 2515 -128 2963 88 3334 400 
C 3891 863 4058 1481 4058 1531 
C 4058 1588 4006 1588 3987 1588 
C 3930 1588 3923 1550 3910 1524 
C 3616 534 2752 57 2112 57 
C 1434 57 845 489 845 1391 
C 845 1595 909 2700 1632 3532 
C 1984 3939 2586 4295 3194 4295 
C 3898 4295 4211 3717 4211 3068 
C 4211 2903 4192 2764 4192 2738 
C 4192 2681 4256 2681 4275 2681 
C 4346 2681 4352 2687 4378 2801 
L 4781 4423 
z
" transform="scale(0.015625)"/>
     </defs>
     <use xlink:href="#CMMI12-43" transform="scale(0.996264)"/>
    </g>
   </g>
  </g>
 </g>
 <defs>
  <clipPath id="p351314213f">
   <rect x="32.624001" y="10.8" width="382.801641" height="410.4"/>
  </clipPath>
 </defs>
</svg>
