<?xml version="1.0" encoding="utf-8" standalone="no"?>
<!DOCTYPE svg PUBLIC "-//W3C//DTD SVG 1.1//EN"
  "http://www.w3.org/Graphics/SVG/1.1/DTD/svg11.dtd">
<svg xmlns:xlink="http://www.w3.org/1999/xlink" width="460.8pt" height="345.6pt" viewBox="0 0 460.8 345.6" xmlns="http://www.w3.org/2000/svg" version="1.1">
 <metadata>
  <rdf:RDF xmlns:dc="http://purl.org/dc/elements/1.1/" xmlns:cc="http://creativecommons.org/ns#" xmlns:rdf="http://www.w3.org/1999/02/22-rdf-syntax-ns#">
   <cc:Work>
    <dc:type rdf:resource="http://purl.org/dc/dcmitype/StillImage"/>
    <dc:date>2026-02-21T14:39:14.520030</dc:date>
    <dc:format>image/svg+xml</dc:format>
    <dc:creator>
     <cc:Agent>
      <dc:title>Matplotlib v3.9.1, https://matplotlib.org/</dc:title>
     </cc:Agent>
    </dc:creator>
   </cc:Work>
  </rdf:RDF>
 </metadata>
 <defs>
  <style type="text/css">*{stroke-linejoin: round; stroke-linecap: butt}</style>
 </defs>
 <g id="figure_1">
  <g id="patch_1">
   <path d="M 0 345.6 
L 460.8 345.6 
L 460.8 0 
L 0 0 
L 0 345.6 
z
" style="fill: none"/>
  </g>
  <g id="axes_1">
   <g id="patch_2">
    <path d="M 10.8 334.8 
L 447 334.8 
L 447 20.016315 
L 10.8 20.016315 
L 10.8 334.8 
z
" style="fill: none"/>
   </g>
   <g id="matplotlib.axis_1">
    <g id="text_1">
     <!-- $x$ -->
     <g transform="translate(435.913188 307.667899) scale(0.2 -0.2)">
      <defs>
       <path id="CMMI12-78" d="M 3034 2606 
C 2829 2567 2752 2414 2752 2293 
C 2752 2139 2874 2088 2963 2088 
C 3155 2088 3290 2254 3290 2427 
C 3290 2695 2982 2816 2714 2816 
C 2323 2816 2106 2433 2048 2312 
C 1901 2816 1504 2816 1389 2816 
C 736 2816 390 1980 390 1839 
C 390 1814 416 1782 461 1782 
C 512 1782 525 1820 538 1846 
C 755 2555 1184 2689 1370 2689 
C 1658 2689 1715 2420 1715 2267 
C 1715 2127 1677 1980 1600 1673 
L 1382 798 
C 1286 415 1101 64 762 64 
C 730 64 570 64 435 147 
C 666 192 717 383 717 460 
C 717 588 621 664 499 664 
C 346 664 179 530 179 326 
C 179 57 480 -64 755 -64 
C 1062 -64 1280 179 1414 441 
C 1517 64 1837 -64 2074 -64 
C 2726 -64 3072 773 3072 913 
C 3072 945 3046 971 3008 971 
C 2950 971 2944 939 2925 888 
C 2752 326 2381 64 2093 64 
C 1869 64 1747 230 1747 492 
C 1747 632 1773 734 1875 1156 
L 2099 2024 
C 2195 2408 2413 2689 2707 2689 
C 2720 2689 2899 2689 3034 2606 
z
" transform="scale(0.015625)"/>
      </defs>
      <use xlink:href="#CMMI12-78" transform="scale(0.996264)"/>
     </g>
    </g>
   </g>
   <g id="matplotlib.axis_2">
    <g id="text_2">
     <!-- $y$ -->
     <g transform="translate(106.337165 16.140682) scale(0.2 -0.2)">
      <defs>
       <path id="CMMI12-79" d="M 1683 -700 
C 1510 -939 1261 -1152 947 -1152 
C 870 -1152 563 -1152 467 -889 
C 486 -895 518 -895 531 -895 
C 723 -895 851 -729 851 -582 
C 851 -435 730 -384 634 -384 
C 531 -384 307 -458 307 -759 
C 307 -1071 582 -1286 947 -1286 
C 1587 -1286 2234 -700 2413 6 
L 3040 2485 
C 3046 2517 3059 2556 3059 2594 
C 3059 2689 2982 2753 2886 2753 
C 2829 2753 2694 2727 2643 2535 
L 2170 658 
C 2138 543 2138 530 2086 460 
C 1958 281 1747 64 1440 64 
C 1082 64 1050 415 1050 588 
C 1050 952 1222 1443 1395 1903 
C 1466 2088 1504 2178 1504 2305 
C 1504 2574 1312 2816 998 2816 
C 410 2816 173 1890 173 1839 
C 173 1814 198 1782 243 1782 
C 301 1782 307 1807 333 1897 
C 486 2433 730 2689 979 2689 
C 1037 2689 1146 2689 1146 2478 
C 1146 2312 1075 2127 979 1884 
C 666 1047 666 837 666 683 
C 666 77 1101 -64 1421 -64 
C 1606 -64 1837 -6 2061 230 
L 2067 224 
C 1971 -147 1907 -392 1683 -700 
z
" transform="scale(0.015625)"/>
      </defs>
      <use xlink:href="#CMMI12-79" transform="scale(0.996264)"/>
     </g>
    </g>
   </g>
   <g id="line2d_1">
    <defs>
     <path id="m8c8a968b37" d="M 3 0 
L -3 -3 
L -3 3 
z
" style="stroke: #000000; stroke-linejoin: miter"/>
    </defs>
    <g>
     <use xlink:href="#m8c8a968b37" x="447" y="289.830902" style="stroke: #000000; stroke-linejoin: miter"/>
    </g>
   </g>
   <g id="line2d_2">
    <defs>
     <path id="m5939455830" d="M 0 -3 
L -3 3 
L 3 3 
z
" style="stroke: #000000; stroke-linejoin: miter"/>
    </defs>
    <g>
     <use xlink:href="#m5939455830" x="119.85" y="20.016315" style="stroke: #000000; stroke-linejoin: miter"/>
    </g>
   </g>
   <g id="line2d_3">
    <path d="M 119.85 289.830902 
L 121.314384 289.690947 
L 123.710648 289.231807 
L 126.639416 288.433716 
L 129.967561 287.289231 
L 133.62852 285.79157 
L 137.622294 283.913639 
L 141.88232 281.663273 
L 146.47516 278.980546 
L 151.334252 275.878604 
L 156.459595 272.336542 
L 161.784627 268.383986 
L 167.375911 263.954652 
L 173.233446 259.026302 
L 179.29067 253.63735 
L 185.614146 247.710798 
L 192.13731 241.291015 
L 198.926726 234.294379 
L 205.91583 226.771215 
L 213.171187 218.63155 
L 220.626231 209.931628 
L 228.347528 200.575311 
L 236.268513 190.62472 
L 244.389187 180.065694 
L 252.776112 168.793074 
L 261.362727 156.877666 
L 270.215592 144.20844 
L 279.268147 130.861954 
L 288.52039 116.823797 
L 298.038885 101.974249 
L 307.757068 86.3984 
L 317.67494 70.081738 
L 327.859064 52.895991 
L 338.242877 34.934697 
L 348.826378 16.183274 
L 358.314236 -1 
L 358.314236 -1 
" clip-path="url(#pa89502e4cc)" style="fill: none; stroke: #0072b2; stroke-width: 2.5; stroke-linecap: square"/>
   </g>
   <g id="line2d_4">
    <path d="M 119.85 289.830902 
L 120.049689 285.982255 
L 120.515629 282.804266 
L 121.181258 279.893738 
L 122.113139 276.874426 
L 123.244708 273.962524 
L 124.642529 270.976459 
L 126.306601 267.946569 
L 128.236925 264.888819 
L 130.500064 261.724358 
L 133.096017 258.485489 
L 136.024785 255.193079 
L 139.286367 251.861052 
L 142.947326 248.439304 
L 147.007663 244.948351 
L 151.533941 241.352206 
L 156.526158 237.672623 
L 162.050879 233.881934 
L 168.108103 230.001253 
L 174.69783 226.047004 
L 181.886623 221.995655 
L 189.674483 217.863604 
L 198.127971 213.631579 
L 207.313651 209.284687 
L 217.231524 204.840552 
L 227.881588 200.313656 
L 239.396969 195.663493 
L 251.711106 190.932405 
L 264.957123 186.083865 
L 279.135021 181.13359 
L 294.311362 176.07316 
L 310.486147 170.916636 
L 327.725938 165.656109 
L 346.097299 160.285192 
L 365.600229 154.817059 
L 386.301291 149.245493 
L 408.267048 143.565436 
L 431.564063 137.772811 
L 447.006656 134.051793 
L 447.006656 134.051793 
" clip-path="url(#pa89502e4cc)" style="fill: none; stroke: #dc5e8b; stroke-width: 2.5; stroke-linecap: square"/>
   </g>
   <g id="line2d_5">
    <path d="M 180.492563 -1 
L 182.629093 18.458648 
L 184.825646 36.496427 
L 187.088762 53.262853 
L 189.351878 68.418253 
L 191.681556 82.547296 
L 194.077797 95.71444 
L 196.474037 107.665689 
L 198.93684 118.834465 
L 201.466205 129.268922 
L 203.99557 138.776635 
L 206.591497 147.682598 
L 209.253987 156.023006 
L 211.983038 163.832591 
L 214.71209 170.977906 
L 217.507704 177.685236 
L 220.36988 183.980725 
L 223.298618 189.889342 
L 226.293919 195.434857 
L 229.355781 200.639824 
L 232.484207 205.525597 
L 235.745756 210.203886 
L 239.073868 214.587383 
L 242.468542 218.695922 
L 245.99634 222.618998 
L 249.657263 226.35666 
L 253.451311 229.910589 
L 257.378482 233.283819 
L 261.438779 236.480483 
L 265.698762 239.55151 
L 270.158431 242.49084 
L 274.817788 245.294755 
L 279.743393 247.996413 
L 284.935248 250.586386 
L 290.393351 253.058168 
L 296.184265 255.433782 
L 302.307991 257.703935 
L 308.83109 259.883524 
L 315.820125 261.981507 
L 323.275095 263.985312 
L 331.329125 265.916447 
L 339.982216 267.759583 
L 349.367491 269.527728 
L 359.551513 271.216291 
L 370.667406 272.829679 
L 382.781733 274.360219 
L 396.09418 275.815381 
L 410.804434 277.196766 
L 427.178744 278.507181 
L 445.483358 279.744466 
L 447.01429 279.838642 
L 447.01429 279.838642 
" clip-path="url(#pa89502e4cc)" style="fill: none; stroke: #009e73; stroke-width: 2.5; stroke-linecap: square"/>
   </g>
   <g id="patch_3">
    <path d="M 119.85 334.8 
L 119.85 20.016315 
" style="fill: none; stroke: #000000; stroke-width: 0.8; stroke-linejoin: miter; stroke-linecap: square"/>
   </g>
   <g id="patch_4">
    <path d="M 447 334.8 
L 447 20.016315 
" style="fill: none"/>
   </g>
   <g id="patch_5">
    <path d="M 10.8 289.830902 
L 447 289.830902 
" style="fill: none; stroke: #000000; stroke-width: 0.8; stroke-linejoin: miter; stroke-linecap: square"/>
   </g>
   <g id="patch_6">
    <path d="M 10.8 20.016315 
L 447 20.016315 
" style="fill: none"/>
   </g>
  </g>
 </g>
 <defs>
  <clipPath id="pa89502e4cc">
   <rect x="10.8" y="20.016315" width="436.2" height="314.783685"/>
  </clipPath>
 </defs>
</svg>
