<?xml version="1.0" encoding="utf-8" standalone="no"?>
<!DOCTYPE svg PUBLIC "-//W3C//DTD SVG 1.1//EN"
  "http://www.w3.org/Graphics/SVG/1.1/DTD/svg11.dtd">
<svg xmlns:xlink="http://www.w3.org/1999/xlink" width="460.8pt" height="345.6pt" viewBox="0 0 460.8 345.6" xmlns="http://www.w3.org/2000/svg" version="1.1">
 <metadata>
  <rdf:RDF xmlns:dc="http://purl.org/dc/elements/1.1/" xmlns:cc="http://creativecommons.org/ns#" xmlns:rdf="http://www.w3.org/1999/02/22-rdf-syntax-ns#">
   <cc:Work>
    <dc:type rdf:resource="http://purl.org/dc/dcmitype/StillImage"/>
    <dc:date>2026-01-26T09:52:29.422633</dc:date>
    <dc:format>image/svg+xml</dc:format>
    <dc:creator>
     <cc:Agent>
      <dc:title>Matplotlib v3.9.1, https://matplotlib.org/</dc:title>
     </cc:Agent>
    </dc:creator>
   </cc:Work>
  </rdf:RDF>
 </metadata>
 <defs>
  <style type="text/css">*{stroke-linejoin: round; stroke-linecap: butt}</style>
 </defs>
 <g id="figure_1">
  <g id="patch_1">
   <path d="M 0 345.6 
L 460.8 345.6 
L 460.8 0 
L 0 0 
L 0 345.6 
z
" style="fill: none"/>
  </g>
  <g id="axes_1">
   <g id="patch_2">
    <path d="M 10.8 334.8 
L 447 334.8 
L 447 22.230394 
L 10.8 22.230394 
L 10.8 334.8 
z
" style="fill: none"/>
   </g>
   <g id="matplotlib.axis_1">
    <g id="text_1">
     <!-- $x$ -->
     <g transform="translate(433.141493 199.811451) scale(0.25 -0.25)">
      <defs>
       <path id="CMMI12-78" d="M 3034 2606 
C 2829 2567 2752 2414 2752 2293 
C 2752 2139 2874 2088 2963 2088 
C 3155 2088 3290 2254 3290 2427 
C 3290 2695 2982 2816 2714 2816 
C 2323 2816 2106 2433 2048 2312 
C 1901 2816 1504 2816 1389 2816 
C 736 2816 390 1980 390 1839 
C 390 1814 416 1782 461 1782 
C 512 1782 525 1820 538 1846 
C 755 2555 1184 2689 1370 2689 
C 1658 2689 1715 2420 1715 2267 
C 1715 2127 1677 1980 1600 1673 
L 1382 798 
C 1286 415 1101 64 762 64 
C 730 64 570 64 435 147 
C 666 192 717 383 717 460 
C 717 588 621 664 499 664 
C 346 664 179 530 179 326 
C 179 57 480 -64 755 -64 
C 1062 -64 1280 179 1414 441 
C 1517 64 1837 -64 2074 -64 
C 2726 -64 3072 773 3072 913 
C 3072 945 3046 971 3008 971 
C 2950 971 2944 939 2925 888 
C 2752 326 2381 64 2093 64 
C 1869 64 1747 230 1747 492 
C 1747 632 1773 734 1875 1156 
L 2099 2024 
C 2195 2408 2413 2689 2707 2689 
C 2720 2689 2899 2689 3034 2606 
z
" transform="scale(0.015625)"/>
      </defs>
      <use xlink:href="#CMMI12-78" transform="scale(0.996264)"/>
     </g>
    </g>
   </g>
   <g id="matplotlib.axis_2">
    <g id="text_2">
     <!-- $y$ -->
     <g transform="translate(213.008953 17.38586) scale(0.25 -0.25)">
      <defs>
       <path id="CMMI12-79" d="M 1683 -700 
C 1510 -939 1261 -1152 947 -1152 
C 870 -1152 563 -1152 467 -889 
C 486 -895 518 -895 531 -895 
C 723 -895 851 -729 851 -582 
C 851 -435 730 -384 634 -384 
C 531 -384 307 -458 307 -759 
C 307 -1071 582 -1286 947 -1286 
C 1587 -1286 2234 -700 2413 6 
L 3040 2485 
C 3046 2517 3059 2556 3059 2594 
C 3059 2689 2982 2753 2886 2753 
C 2829 2753 2694 2727 2643 2535 
L 2170 658 
C 2138 543 2138 530 2086 460 
C 1958 281 1747 64 1440 64 
C 1082 64 1050 415 1050 588 
C 1050 952 1222 1443 1395 1903 
C 1466 2088 1504 2178 1504 2305 
C 1504 2574 1312 2816 998 2816 
C 410 2816 173 1890 173 1839 
C 173 1814 198 1782 243 1782 
C 301 1782 307 1807 333 1897 
C 486 2433 730 2689 979 2689 
C 1037 2689 1146 2689 1146 2478 
C 1146 2312 1075 2127 979 1884 
C 666 1047 666 837 666 683 
C 666 77 1101 -64 1421 -64 
C 1606 -64 1837 -6 2061 230 
L 2067 224 
C 1971 -147 1907 -392 1683 -700 
z
" transform="scale(0.015625)"/>
      </defs>
      <use xlink:href="#CMMI12-79" transform="scale(0.996264)"/>
     </g>
    </g>
   </g>
   <g id="line2d_1">
    <defs>
     <path id="maffcd661c0" d="M 3 0 
L -3 -3 
L -3 3 
z
" style="stroke: #000000; stroke-linejoin: miter"/>
    </defs>
    <g>
     <use xlink:href="#maffcd661c0" x="447" y="178.515197" style="stroke: #000000; stroke-linejoin: miter"/>
    </g>
   </g>
   <g id="line2d_2">
    <defs>
     <path id="m87d1388e8f" d="M 0 -3 
L -3 3 
L 3 3 
z
" style="stroke: #000000; stroke-linejoin: miter"/>
    </defs>
    <g>
     <use xlink:href="#m87d1388e8f" x="228.9" y="22.230394" style="stroke: #000000; stroke-linejoin: miter"/>
    </g>
   </g>
   <g id="line2d_3">
    <path d="M 10.8 164.149624 
L 43.761948 164.646244 
L 67.777843 165.220384 
L 86.042703 165.87042 
L 100.420289 166.596493 
L 112.028859 167.397974 
L 121.613917 168.276365 
L 129.62809 169.227612 
L 136.444131 170.254126 
L 142.328292 171.359845 
L 147.440322 172.54138 
L 151.939974 173.80482 
L 155.933748 175.153193 
L 159.50152 176.588624 
L 162.723164 178.121698 
L 165.651932 179.760134 
L 168.314448 181.501428 
L 170.763963 183.36545 
L 173.053726 185.387597 
L 175.183739 187.566661 
L 177.180626 189.929406 
L 179.071013 192.515662 
L 180.854898 195.338397 
L 182.558909 198.460363 
L 184.183043 201.912625 
L 185.727303 205.728175 
L 187.191687 209.941398 
L 188.60282 214.683834 
L 189.960703 220.039486 
L 191.265336 226.109075 
L 192.516719 233.014138 
L 193.714851 240.902332 
L 194.859733 249.954374 
L 195.951364 260.393189 
L 196.989745 272.496088 
L 197.974876 286.611168 
L 198.906757 303.17961 
L 199.785387 322.766348 
L 200.626274 346.6 
M 218.27991 -1 
L 219.328255 8.033054 
L 220.419886 15.590797 
L 221.511518 21.650259 
L 222.60315 26.489375 
L 223.668156 30.225021 
L 224.679912 32.995805 
L 225.638418 34.998817 
L 226.517048 36.348302 
L 227.315803 37.195725 
L 228.061307 37.673716 
L 228.726936 37.851001 
L 229.36594 37.801785 
L 230.031569 37.52141 
L 230.723823 36.978416 
L 231.469328 36.099315 
L 232.268083 34.80435 
L 233.146713 32.931822 
L 234.078594 30.388864 
L 235.037099 27.107922 
L 236.048856 22.809082 
L 237.060612 17.505175 
L 238.072368 10.993721 
L 239.084124 2.996404 
L 239.52009 -1 
M 257.173726 346.6 
L 258.067863 321.443469 
L 259.026369 300.579997 
L 260.038125 283.299649 
L 261.103131 268.829725 
L 262.221388 256.597906 
L 263.392895 246.172129 
L 264.617652 237.220731 
L 265.89566 229.485342 
L 267.226918 222.762042 
L 268.611426 216.887994 
L 270.049185 211.731794 
L 271.540194 207.18639 
L 273.111079 203.099721 
L 274.735213 199.481042 
L 276.439224 196.217827 
L 278.223109 193.27503 
L 280.113496 190.585232 
L 282.083758 188.163768 
L 284.187145 185.92931 
L 286.423659 183.877384 
L 288.819923 181.980804 
L 291.402564 180.221193 
L 294.198205 178.586278 
L 297.260099 177.055577 
L 300.614869 175.629023 
L 304.342392 174.288968 
L 308.495916 173.035939 
L 313.15532 171.866064 
L 318.453726 170.769965 
L 324.497638 169.751678 
L 331.47343 168.806977 
L 339.620729 167.933879 
L 349.259037 167.13155 
L 360.814356 166.400467 
L 374.899066 165.740489 
L 392.418422 165.151259 
L 414.756931 164.632469 
L 444.177733 164.1833 
L 447 164.149624 
L 447 164.149624 
" clip-path="url(#pdfe427d67d)" style="fill: none; stroke: #0072b2; stroke-width: 2.5; stroke-linecap: square"/>
   </g>
   <g id="LineCollection_1">
    <path d="M 207.09 334.8 
L 207.09 22.230394 
" clip-path="url(#pdfe427d67d)" style="fill: none; stroke-dasharray: 9.25,4; stroke-dashoffset: 0; stroke: #dc5e8b; stroke-width: 2.5"/>
   </g>
   <g id="LineCollection_2">
    <path d="M 250.71 334.8 
L 250.71 22.230394 
" clip-path="url(#pdfe427d67d)" style="fill: none; stroke-dasharray: 9.25,4; stroke-dashoffset: 0; stroke: #dc5e8b; stroke-width: 2.5"/>
   </g>
   <g id="LineCollection_3">
    <path d="M 10.8 162.886717 
L 447 162.886717 
" clip-path="url(#pdfe427d67d)" style="fill: none; stroke-dasharray: 9.25,4; stroke-dashoffset: 0; stroke: #dc5e8b; stroke-width: 2.5"/>
   </g>
   <g id="patch_3">
    <path d="M 228.9 334.8 
L 228.9 22.230394 
" style="fill: none; stroke: #000000; stroke-width: 0.8; stroke-linejoin: miter; stroke-linecap: square"/>
   </g>
   <g id="patch_4">
    <path d="M 447 334.8 
L 447 22.230394 
" style="fill: none"/>
   </g>
   <g id="patch_5">
    <path d="M 10.8 178.515197 
L 447 178.515197 
" style="fill: none; stroke: #000000; stroke-width: 0.8; stroke-linejoin: miter; stroke-linecap: square"/>
   </g>
   <g id="patch_6">
    <path d="M 10.8 22.230394 
L 447 22.230394 
" style="fill: none"/>
   </g>
   <g id="text_3">
    <g id="patch_7">
     <path d="M 330.468032 74.557749 
L 345.431968 74.557749 
Q 355.431968 74.557749 355.431968 64.557749 
L 355.431968 42.416961 
Q 355.431968 32.416961 345.431968 32.416961 
L 330.468032 32.416961 
Q 320.468032 32.416961 320.468032 42.416961 
L 320.468032 64.557749 
Q 320.468032 74.557749 330.468032 74.557749 
z
" style="fill: #ffffff; opacity: 0.7; stroke: #000000; stroke-width: 1.5; stroke-linejoin: miter"/>
    </g>
    <!-- C -->
    <g transform="translate(330.468032 59.713214) scale(0.25 -0.25)">
     <defs>
      <path id="CMSS17-43" d="M 3501 714 
C 3072 427 2874 344 2355 344 
C 1459 344 934 1303 934 2179 
C 934 3112 1472 4032 2381 4032 
C 2790 4032 3059 3918 3386 3715 
L 3475 4217 
C 3168 4370 2778 4440 2387 4440 
C 1158 4440 397 3316 397 2179 
C 397 927 1299 -64 2323 -64 
C 2874 -64 3066 -19 3539 280 
L 3501 714 
z
" transform="scale(0.015625)"/>
     </defs>
     <use xlink:href="#CMSS17-43" transform="scale(0.996264)"/>
    </g>
   </g>
  </g>
 </g>
 <defs>
  <clipPath id="pdfe427d67d">
   <rect x="10.8" y="22.230394" width="436.2" height="312.569606"/>
  </clipPath>
 </defs>
</svg>
