<?xml version="1.0" encoding="utf-8" standalone="no"?>
<!DOCTYPE svg PUBLIC "-//W3C//DTD SVG 1.1//EN"
  "http://www.w3.org/Graphics/SVG/1.1/DTD/svg11.dtd">
<svg xmlns:xlink="http://www.w3.org/1999/xlink" width="432pt" height="432pt" viewBox="0 0 432 432" xmlns="http://www.w3.org/2000/svg" version="1.1">
 <metadata>
  <rdf:RDF xmlns:dc="http://purl.org/dc/elements/1.1/" xmlns:cc="http://creativecommons.org/ns#" xmlns:rdf="http://www.w3.org/1999/02/22-rdf-syntax-ns#">
   <cc:Work>
    <dc:type rdf:resource="http://purl.org/dc/dcmitype/StillImage"/>
    <dc:date>2026-04-14T12:50:50.238221</dc:date>
    <dc:format>image/svg+xml</dc:format>
    <dc:creator>
     <cc:Agent>
      <dc:title>Matplotlib v3.10.8, https://matplotlib.org/</dc:title>
     </cc:Agent>
    </dc:creator>
   </cc:Work>
  </rdf:RDF>
 </metadata>
 <defs>
  <style type="text/css">*{stroke-linejoin: round; stroke-linecap: butt}</style>
 </defs>
 <g id="figure_1">
  <g id="patch_1">
   <path d="M 0 432 
L 432 432 
L 432 0 
L 0 0 
L 0 432 
z
" style="fill: none"/>
  </g>
  <g id="axes_1">
   <g id="line2d_1">
    <path d="M 30.243482 393.018798 
L 405.757059 393.018798 
" clip-path="url(#p7597466eb7)" style="fill: none; stroke: #0072b2; stroke-width: 3; stroke-linecap: square"/>
   </g>
   <g id="line2d_2">
    <path d="M 405.757059 393.018798 
L 384.281078 38.981202 
" clip-path="url(#p7597466eb7)" style="fill: none; stroke: #0072b2; stroke-width: 3; stroke-linecap: square"/>
   </g>
   <g id="line2d_3">
    <path d="M 384.281078 38.981202 
L 30.243482 393.018798 
" clip-path="url(#p7597466eb7)" style="fill: none; stroke: #0072b2; stroke-width: 3; stroke-linecap: square"/>
   </g>
   <g id="line2d_4">
    <path d="M 101.308417 393.018798 
L 101.298904 391.856053 
L 101.270368 390.693618 
L 101.222816 389.531807 
L 101.156261 388.370929 
L 101.070721 387.211295 
L 100.96622 386.053216 
L 100.842783 384.897002 
L 100.700446 383.742963 
L 100.539246 382.591406 
L 100.359226 381.442642 
L 100.160434 380.296976 
L 99.942924 379.154717 
L 99.706753 378.016169 
L 99.451986 376.881638 
L 99.17869 375.751427 
L 98.886938 374.625839 
L 98.576808 373.505176 
L 98.248384 372.389736 
L 97.901754 371.27982 
L 97.53701 370.175723 
L 97.154249 369.077742 
L 96.753575 367.986171 
L 96.335095 366.901302 
L 95.898921 365.823425 
L 95.445168 364.752828 
L 94.97396 363.6898 
L 94.485422 362.634623 
L 93.979685 361.587581 
L 93.456884 360.548954 
L 92.917159 359.519019 
L 92.360655 358.498054 
L 91.787521 357.48633 
L 91.19791 356.48412 
L 90.591979 355.49169 
L 89.969893 354.509308 
L 89.331816 353.537235 
L 88.677919 352.575733 
L 88.008378 351.625058 
L 87.323373 350.685466 
L 86.623085 349.757207 
L 85.907704 348.84053 
L 85.177419 347.93568 
L 84.432428 347.042901 
L 83.672929 346.16243 
L 82.899125 345.294504 
L 82.111224 344.439355 
L 81.309438 343.597212 
L 80.493979 342.7683 
" clip-path="url(#p7597466eb7)" style="fill: none; stroke: #dc5e8b; stroke-width: 2.4; stroke-linecap: square"/>
   </g>
   <g id="line2d_5">
    <path d="M 334.692124 393.018798 
L 334.727295 390.783271 
L 334.832772 388.549957 
L 335.008452 386.321066 
L 335.25416 384.098804 
L 335.569654 381.885372 
L 335.95462 379.68296 
L 336.408679 377.493748 
L 336.93138 375.319903 
L 337.522206 373.163577 
L 338.180572 371.026904 
L 338.905827 368.911999 
L 339.697252 366.820955 
L 340.554065 364.755843 
L 341.475418 362.718705 
L 342.460397 360.71156 
L 343.508029 358.736393 
L 344.617277 356.795159 
L 345.787041 354.88978 
L 347.016166 353.022142 
L 348.303433 351.194094 
L 349.647569 349.407444 
L 351.047244 347.663962 
L 352.501071 345.965373 
L 354.007612 344.313359 
L 355.565376 342.709554 
L 357.172821 341.155547 
L 358.828355 339.652875 
L 360.530341 338.203025 
L 362.277093 336.807433 
L 364.066882 335.467481 
L 365.897937 334.184494 
L 367.768445 332.959742 
L 369.676555 331.794438 
L 371.620379 330.689735 
L 373.597992 329.646727 
L 375.607436 328.666446 
L 377.646723 327.749862 
L 379.713835 326.897883 
L 381.806724 326.111351 
L 383.92332 325.391046 
L 386.061528 324.73768 
L 388.21923 324.151901 
L 390.394292 323.634287 
L 392.58456 323.185351 
L 394.787867 322.805538 
L 397.002031 322.495224 
L 399.224861 322.254715 
L 401.454157 322.08425 
" clip-path="url(#p7597466eb7)" style="fill: none; stroke: #dc5e8b; stroke-width: 2.4; stroke-linecap: square"/>
   </g>
   <g id="line2d_6">
    <path d="M 334.03058 89.2317 
L 334.923987 90.109498 
L 335.832725 90.971414 
L 336.756513 91.817182 
L 337.695062 92.646537 
L 338.648082 93.459223 
L 339.615277 94.254986 
L 340.596346 95.033581 
L 341.590984 95.794765 
L 342.598882 96.538301 
L 343.619728 97.263958 
L 344.653205 97.971512 
L 345.69899 98.660742 
L 346.75676 99.331435 
L 347.826186 99.983381 
L 348.906935 100.616379 
L 349.998672 101.230232 
L 351.101058 101.824748 
L 352.213751 102.399745 
L 353.336404 102.955042 
L 354.46867 103.490467 
L 355.610195 104.005855 
L 356.760627 104.501045 
L 357.919607 104.975883 
L 359.086775 105.430221 
L 360.261769 105.863919 
L 361.444225 106.276842 
L 362.633773 106.668861 
L 363.830046 107.039856 
L 365.032672 107.389709 
L 366.241276 107.718314 
L 367.455484 108.025567 
L 368.674918 108.311374 
L 369.8992 108.575646 
L 371.127949 108.8183 
L 372.360784 109.039261 
L 373.597321 109.23846 
L 374.837177 109.415837 
L 376.079967 109.571334 
L 377.325304 109.704905 
L 378.572802 109.816508 
L 379.822072 109.906108 
L 381.072728 109.973677 
L 382.324381 110.019194 
L 383.576641 110.042646 
L 384.82912 110.044024 
L 386.081428 110.023328 
L 387.333178 109.980566 
L 388.583979 109.91575 
" clip-path="url(#p7597466eb7)" style="fill: none; stroke: #dc5e8b; stroke-width: 2.4; stroke-linecap: square"/>
   </g>
   <g id="text_1">
    <!-- $c$ -->
    <g transform="translate(212.122623 410.651497) scale(0.28 -0.28)">
     <defs>
      <path id="CMMI12-63" d="M 2502 2431 
C 2381 2431 2323 2431 2234 2355 
C 2195 2323 2125 2227 2125 2125 
C 2125 1997 2221 1920 2342 1920 
C 2496 1920 2669 2044 2669 2292 
C 2669 2588 2374 2816 1933 2816 
C 1094 2816 256 1903 256 996 
C 256 441 602 -64 1254 -64 
C 2125 -64 2675 622 2675 706 
C 2675 744 2637 776 2611 776 
C 2592 776 2586 770 2528 713 
C 2118 162 1510 64 1267 64 
C 826 64 685 446 685 764 
C 685 988 794 1605 1024 2039 
C 1190 2338 1536 2682 1939 2682 
C 2022 2682 2374 2682 2502 2431 
z
" transform="scale(0.015625)"/>
     </defs>
     <use xlink:href="#CMMI12-63" transform="scale(0.996264)"/>
    </g>
   </g>
   <g id="text_2">
    <!-- $a$ -->
    <g transform="translate(398.490151 222.327523) scale(0.28 -0.28)">
     <defs>
      <path id="CMMI12-61" d="M 1926 760 
C 1894 651 1894 639 1805 517 
C 1664 338 1382 64 1082 64 
C 819 64 672 300 672 677 
C 672 1028 870 1743 992 2012 
C 1210 2459 1510 2689 1760 2689 
C 2182 2689 2266 2165 2266 2114 
C 2266 2108 2246 2024 2240 2012 
L 1926 760 
z
M 2336 2395 
C 2266 2561 2093 2816 1760 2816 
C 1037 2816 256 1884 256 939 
C 256 307 627 -64 1062 -64 
C 1414 -64 1715 211 1894 422 
C 1958 45 2259 -64 2451 -64 
C 2643 -64 2797 51 2912 281 
C 3014 498 3104 888 3104 913 
C 3104 945 3078 971 3040 971 
C 2982 971 2976 939 2950 843 
C 2854 466 2733 64 2470 64 
C 2285 64 2272 230 2272 358 
C 2272 505 2291 575 2349 824 
C 2394 984 2426 1124 2477 1309 
C 2714 2267 2771 2497 2771 2535 
C 2771 2625 2701 2695 2605 2695 
C 2400 2695 2349 2472 2336 2395 
z
" transform="scale(0.015625)"/>
     </defs>
     <use xlink:href="#CMMI12-61" transform="scale(0.996264)"/>
    </g>
   </g>
   <g id="text_3">
    <!-- $b$ -->
    <g transform="translate(193.918088 215.435384) scale(0.28 -0.28)">
     <defs>
      <path id="CMMI12-62" d="M 1478 4257 
C 1485 4283 1498 4321 1498 4352 
C 1498 4416 1434 4416 1421 4416 
C 1414 4416 1184 4393 1069 4377 
C 960 4377 864 4358 749 4358 
C 595 4345 550 4339 550 4224 
C 550 4160 614 4160 678 4160 
C 1005 4160 1005 4103 1005 4040 
C 1005 3996 954 3811 928 3696 
L 774 3085 
C 710 2831 346 1387 320 1272 
C 288 1114 288 1005 288 922 
C 288 274 653 -64 1069 -64 
C 1811 -64 2579 888 2579 1814 
C 2579 2401 2246 2816 1766 2816 
C 1434 2816 1133 2542 1011 2414 
L 1478 4257 
z
M 1075 64 
C 870 64 646 217 646 715 
C 646 926 666 1047 781 1494 
C 800 1577 902 1986 928 2069 
C 941 2120 1318 2689 1754 2689 
C 2035 2689 2163 2408 2163 2076 
C 2163 1769 1984 1047 1824 715 
C 1664 370 1370 64 1075 64 
z
" transform="scale(0.015625)"/>
     </defs>
     <use xlink:href="#CMMI12-62" transform="scale(0.996264)"/>
    </g>
   </g>
   <g id="text_4">
    <!-- $A$ -->
    <g transform="translate(7.138138 405.321627) scale(0.28 -0.28)">
     <defs>
      <path id="CMMI12-41" d="M 1088 691 
C 864 314 646 186 339 186 
C 269 180 218 180 218 58 
C 218 24 250 0 294 0 
C 410 0 698 0 813 0 
C 998 0 1203 0 1382 0 
C 1421 0 1498 0 1498 122 
C 1498 180 1446 186 1408 186 
C 1261 186 1139 236 1139 388 
C 1139 476 1178 546 1261 685 
L 1747 1479 
L 3379 1479 
C 3386 1423 3386 1373 3392 1316 
C 3411 1152 3488 495 3488 376 
C 3488 186 3162 186 3059 186 
C 2989 186 2918 186 2918 70 
C 2918 0 2976 0 3014 0 
C 3123 0 3251 0 3360 0 
L 3725 0 
C 4115 0 4397 0 4403 0 
C 4448 0 4518 0 4518 122 
C 4518 186 4461 186 4365 186 
C 4013 186 4006 244 3987 434 
L 3597 4404 
C 3584 4531 3558 4544 3488 4544 
C 3424 4544 3386 4531 3328 4435 
L 1088 691 
z
M 1856 1664 
L 3142 3819 
L 3360 1664 
L 1856 1664 
z
" transform="scale(0.015625)"/>
     </defs>
     <use xlink:href="#CMMI12-41" transform="scale(0.996264)"/>
    </g>
   </g>
   <g id="text_5">
    <!-- $B$ -->
    <g transform="translate(403.144358 407.297573) scale(0.28 -0.28)">
     <defs>
      <path id="CMMI12-42" d="M 2342 3921 
C 2400 4160 2426 4160 2675 4160 
L 3507 4160 
C 4230 4160 4230 3544 4230 3485 
C 4230 2966 3712 2304 2867 2304 
L 1946 2304 
L 2342 3921 
z
M 3424 2275 
C 4122 2402 4755 2886 4755 3473 
C 4755 3970 4314 4352 3590 4352 
L 1536 4352 
C 1414 4352 1357 4352 1357 4226 
C 1357 4160 1414 4160 1510 4160 
C 1901 4160 1901 4112 1901 4044 
C 1901 4032 1901 3993 1875 3897 
L 1011 472 
C 954 249 941 185 493 185 
C 371 185 307 185 307 70 
C 307 0 346 0 474 0 
L 2669 0 
C 3648 0 4403 739 4403 1383 
C 4403 1906 3942 2224 3424 2275 
z
M 2515 185 
L 1651 185 
C 1562 185 1549 185 1510 192 
C 1440 198 1434 211 1434 261 
C 1434 305 1446 343 1459 399 
L 1907 2176 
L 3110 2176 
C 3866 2176 3866 1483 3866 1433 
C 3866 828 3309 185 2515 185 
z
" transform="scale(0.015625)"/>
     </defs>
     <use xlink:href="#CMMI12-42" transform="scale(0.996264)"/>
    </g>
   </g>
   <g id="text_6">
    <!-- $C$ -->
    <g transform="translate(379.113398 33.813381) scale(0.28 -0.28)">
     <defs>
      <path id="CMMI12-43" d="M 4781 4423 
C 4781 4480 4736 4480 4723 4480 
C 4710 4480 4685 4480 4634 4416 
L 4192 3882 
C 3968 4264 3616 4480 3136 4480 
C 1754 4480 320 3088 320 1595 
C 320 533 1069 -128 2003 -128 
C 2515 -128 2963 88 3334 400 
C 3891 863 4058 1481 4058 1531 
C 4058 1588 4006 1588 3987 1588 
C 3930 1588 3923 1550 3910 1524 
C 3616 534 2752 57 2112 57 
C 1434 57 845 489 845 1391 
C 845 1595 909 2700 1632 3532 
C 1984 3939 2586 4295 3194 4295 
C 3898 4295 4211 3717 4211 3068 
C 4211 2903 4192 2764 4192 2738 
C 4192 2681 4256 2681 4275 2681 
C 4346 2681 4352 2687 4378 2801 
L 4781 4423 
z
" transform="scale(0.015625)"/>
     </defs>
     <use xlink:href="#CMMI12-43" transform="scale(0.996264)"/>
    </g>
   </g>
  </g>
 </g>
 <defs>
  <clipPath id="p7597466eb7">
   <rect x="16.24912" y="10.8" width="403.502301" height="410.4"/>
  </clipPath>
 </defs>
</svg>
