<?xml version="1.0" encoding="utf-8" standalone="no"?>
<!DOCTYPE svg PUBLIC "-//W3C//DTD SVG 1.1//EN"
  "http://www.w3.org/Graphics/SVG/1.1/DTD/svg11.dtd">
<svg xmlns:xlink="http://www.w3.org/1999/xlink" width="432pt" height="432pt" viewBox="0 0 432 432" xmlns="http://www.w3.org/2000/svg" version="1.1">
 <metadata>
  <rdf:RDF xmlns:dc="http://purl.org/dc/elements/1.1/" xmlns:cc="http://creativecommons.org/ns#" xmlns:rdf="http://www.w3.org/1999/02/22-rdf-syntax-ns#">
   <cc:Work>
    <dc:type rdf:resource="http://purl.org/dc/dcmitype/StillImage"/>
    <dc:date>2026-03-21T17:58:43.705765</dc:date>
    <dc:format>image/svg+xml</dc:format>
    <dc:creator>
     <cc:Agent>
      <dc:title>Matplotlib v3.10.8, https://matplotlib.org/</dc:title>
     </cc:Agent>
    </dc:creator>
   </cc:Work>
  </rdf:RDF>
 </metadata>
 <defs>
  <style type="text/css">*{stroke-linejoin: round; stroke-linecap: butt}</style>
 </defs>
 <g id="figure_1">
  <g id="patch_1">
   <path d="M 0 432 
L 432 432 
L 432 0 
L 0 0 
L 0 432 
z
" style="fill: none"/>
  </g>
  <g id="axes_1">
   <g id="line2d_1">
    <path d="M 146.496774 401.402722 
L 285.503226 30.718851 
" clip-path="url(#p31c3898295)" style="fill: none; stroke: #0072b2; stroke-width: 2.5; stroke-linecap: square"/>
   </g>
   <g id="line2d_2">
    <path d="M 285.503226 30.718851 
L 239.167742 169.725302 
" clip-path="url(#p31c3898295)" style="fill: none; stroke: #0072b2; stroke-width: 2.5; stroke-linecap: square"/>
   </g>
   <g id="line2d_3">
    <path d="M 239.167742 169.725302 
L 146.496774 401.402722 
" clip-path="url(#p31c3898295)" style="fill: none; stroke: #0072b2; stroke-width: 2.5; stroke-linecap: square"/>
   </g>
   <g id="line2d_4">
    <path d="M 157.052893 373.253071 
L 157.065617 373.257908 
L 157.078339 373.262751 
L 157.091059 373.2676 
L 157.103777 373.272454 
L 157.116492 373.277315 
L 157.129205 373.282181 
L 157.141916 373.287053 
L 157.154625 373.291931 
L 157.167332 373.296814 
L 157.180036 373.301704 
L 157.192738 373.306599 
L 157.205438 373.3115 
L 157.218136 373.316407 
L 157.230832 373.32132 
L 157.243525 373.326238 
L 157.256216 373.331163 
L 157.268905 373.336093 
L 157.281592 373.341029 
L 157.294276 373.345971 
L 157.306958 373.350918 
L 157.319638 373.355872 
L 157.332316 373.360831 
L 157.344991 373.365796 
L 157.357664 373.370767 
L 157.370335 373.375743 
L 157.383004 373.380726 
L 157.395671 373.385714 
L 157.408335 373.390708 
L 157.420997 373.395708 
L 157.433656 373.400714 
L 157.446314 373.405725 
L 157.458969 373.410742 
L 157.471622 373.415765 
L 157.484272 373.420794 
L 157.496921 373.425829 
L 157.509567 373.430869 
L 157.522211 373.435915 
L 157.534852 373.440967 
L 157.547491 373.446025 
L 157.560128 373.451089 
L 157.572763 373.456158 
L 157.585395 373.461233 
L 157.598025 373.466314 
L 157.610653 373.471401 
L 157.623278 373.476493 
L 157.635901 373.481591 
L 157.648522 373.486695 
L 157.661141 373.491805 
" clip-path="url(#p31c3898295)" style="fill: none; stroke: #dc5e8b; stroke-width: 2; stroke-linecap: square"/>
   </g>
   <g id="line2d_5">
    <path d="M 274.947107 58.868501 
L 274.968789 58.876728 
L 274.990478 58.884938 
L 275.012172 58.893132 
L 275.033873 58.901308 
L 275.055581 58.909467 
L 275.077295 58.91761 
L 275.099015 58.925735 
L 275.120741 58.933844 
L 275.142473 58.941935 
L 275.164212 58.95001 
L 275.185957 58.958068 
L 275.207708 58.966109 
L 275.229465 58.974132 
L 275.251228 58.982139 
L 275.272998 58.990129 
L 275.294774 58.998102 
L 275.316556 59.006057 
L 275.338344 59.013996 
L 275.360138 59.021918 
L 275.381938 59.029823 
L 275.403744 59.037711 
L 275.425557 59.045581 
L 275.447375 59.053435 
L 275.469199 59.061272 
L 275.49103 59.069092 
L 275.512866 59.076894 
L 275.534709 59.08468 
L 275.556557 59.092449 
L 275.578412 59.1002 
L 275.600272 59.107935 
L 275.622139 59.115652 
L 275.644011 59.123352 
L 275.665889 59.131036 
L 275.687773 59.138702 
L 275.709663 59.146351 
L 275.731559 59.153983 
L 275.753461 59.161598 
L 275.775369 59.169196 
L 275.797282 59.176777 
L 275.819202 59.184341 
L 275.841127 59.191887 
L 275.863058 59.199417 
L 275.884994 59.206929 
L 275.906937 59.214425 
L 275.928885 59.221903 
L 275.950839 59.229364 
L 275.972799 59.236808 
L 275.994765 59.244234 
" clip-path="url(#p31c3898295)" style="fill: none; stroke: #dc5e8b; stroke-width: 2; stroke-linecap: square"/>
   </g>
   <g id="line2d_6">
    <path d="M 228.003375 197.636219 
L 226.246746 196.857551 
L 224.543387 195.967025 
L 222.90032 194.96831 
L 221.32432 193.865524 
L 219.821884 192.663214 
L 218.399207 191.366337 
L 217.062153 189.980239 
L 215.816234 188.510635 
L 214.666589 186.963583 
L 213.617955 185.345462 
L 212.674658 183.662944 
L 211.840584 181.922963 
L 211.119174 180.132695 
L 210.513401 178.29952 
L 210.025763 176.430995 
L 209.658271 174.534824 
L 209.412438 172.618825 
L 209.289279 170.690897 
L 209.289302 168.758987 
L 209.412507 166.831062 
L 209.658385 164.915069 
L 210.025923 163.018907 
L 210.513605 161.150394 
L 211.119422 159.317233 
L 211.840874 157.526982 
L 212.674989 155.787022 
L 213.618327 154.104526 
L 214.666999 152.486431 
L 215.816681 150.939407 
L 217.062635 149.469833 
L 218.399722 148.083767 
L 219.82243 146.786924 
L 221.324895 145.58465 
L 222.900921 144.481903 
L 224.544011 143.483227 
L 226.247392 142.592742 
L 228.004039 141.814117 
L 229.806712 141.150563 
L 231.647979 140.604816 
L 233.520247 140.179125 
L 235.415799 139.875246 
L 237.326819 139.694432 
L 239.245428 139.637427 
L 241.163718 139.704468 
L 243.073778 139.895277 
L 244.967735 140.209068 
L 246.83778 140.644547 
L 248.676203 141.199918 
" clip-path="url(#p31c3898295)" style="fill: none; stroke: #dc5e8b; stroke-width: 2; stroke-linecap: square"/>
   </g>
   <g id="text_1">
    <!-- $\sqrt{73}$ -->
    <g transform="translate(179.030912 219.178399) scale(0.27 -0.27)">
     <defs>
      <path id="CMSY10-70" d="M 2490 -5472 
L 1363 -2982 
C 1318 -2880 1286 -2880 1267 -2880 
C 1261 -2880 1229 -2880 1158 -2931 
L 550 -3392 
C 467 -3456 467 -3475 467 -3494 
C 467 -3526 486 -3565 531 -3565 
C 570 -3565 678 -3475 749 -3424 
C 787 -3393 883 -3323 954 -3271 
L 2214 -6042 
C 2259 -6144 2291 -6144 2349 -6144 
C 2445 -6144 2464 -6106 2509 -6016 
L 5414 0 
C 5459 90 5459 115 5459 128 
C 5459 192 5408 256 5331 256 
C 5280 256 5235 224 5184 122 
L 2490 -5472 
z
" transform="scale(0.015625)"/>
      <path id="CMR17-37" d="M 2886 3941 
L 2886 4081 
L 1382 4081 
C 634 4081 621 4165 595 4288 
L 480 4288 
L 294 3094 
L 410 3094 
C 429 3215 474 3540 550 3661 
C 589 3712 1062 3712 1171 3712 
L 2579 3712 
L 1869 2661 
C 1395 1954 1069 999 1069 165 
C 1069 89 1069 -128 1299 -128 
C 1530 -128 1530 89 1530 171 
L 1530 465 
C 1530 1508 1709 2196 2003 2636 
L 2886 3941 
z
" transform="scale(0.015625)"/>
      <path id="CMR17-33" d="M 1414 2157 
C 1984 2157 2234 1662 2234 1090 
C 2234 320 1824 25 1453 25 
C 1114 25 563 194 390 693 
C 422 680 454 680 486 680 
C 640 680 755 782 755 948 
C 755 1133 614 1216 486 1216 
C 378 1216 211 1165 211 926 
C 211 335 787 -128 1466 -128 
C 2176 -128 2720 430 2720 1085 
C 2720 1707 2208 2157 1600 2227 
C 2086 2328 2554 2756 2554 3329 
C 2554 3820 2048 4179 1472 4179 
C 890 4179 378 3829 378 3329 
C 378 3110 544 3072 627 3072 
C 762 3072 877 3155 877 3321 
C 877 3486 762 3569 627 3569 
C 602 3569 570 3569 544 3557 
C 730 3959 1235 4032 1459 4032 
C 1683 4032 2106 3925 2106 3320 
C 2106 3143 2080 2828 1862 2550 
C 1670 2304 1453 2304 1242 2284 
C 1210 2284 1062 2269 1037 2269 
C 992 2263 966 2257 966 2208 
C 966 2163 973 2157 1101 2157 
L 1414 2157 
z
" transform="scale(0.015625)"/>
     </defs>
     <use xlink:href="#CMSY10-70" transform="translate(0 82.421465) scale(0.996264)"/>
     <use xlink:href="#CMR17-37" transform="translate(83.022254 0) scale(0.996264)"/>
     <use xlink:href="#CMR17-33" transform="translate(128.712731 0) scale(0.996264)"/>
     <path d="M 83.022254 82.421465 
L 174.403208 82.421465 
L 174.403208 86.406414 
L 83.022254 86.406414 
L 83.022254 82.421465 
z
"/>
    </g>
   </g>
   <g id="text_2">
    <!-- $\sqrt{10}$ -->
    <g transform="translate(252.394902 113.033227) scale(0.27 -0.27)">
     <defs>
      <path id="CMR17-31" d="M 1702 4058 
C 1702 4192 1696 4192 1606 4192 
C 1357 3916 979 3827 621 3827 
C 602 3827 570 3827 563 3808 
C 557 3795 557 3782 557 3648 
C 755 3648 1088 3686 1344 3839 
L 1344 461 
C 1344 236 1331 160 781 160 
L 589 160 
L 589 0 
C 896 0 1216 0 1523 0 
C 1830 0 2150 0 2458 0 
L 2458 160 
L 2266 160 
C 1715 160 1702 230 1702 458 
L 1702 4058 
z
" transform="scale(0.015625)"/>
      <path id="CMR17-30" d="M 2688 2025 
C 2688 2416 2682 3080 2413 3591 
C 2176 4039 1798 4198 1466 4198 
C 1158 4198 768 4058 525 3597 
C 269 3118 243 2524 243 2025 
C 243 1661 250 1106 448 619 
C 723 -39 1216 -128 1466 -128 
C 1760 -128 2208 -7 2470 600 
C 2662 1042 2688 1559 2688 2025 
z
M 1466 -26 
C 1056 -26 813 325 723 812 
C 653 1188 653 1738 653 2096 
C 653 2588 653 2997 736 3387 
C 858 3929 1216 4096 1466 4096 
C 1728 4096 2067 3923 2189 3400 
C 2272 3036 2278 2607 2278 2096 
C 2278 1680 2278 1169 2202 792 
C 2067 95 1690 -26 1466 -26 
z
" transform="scale(0.015625)"/>
     </defs>
     <use xlink:href="#CMSY10-70" transform="translate(0 82.421465) scale(0.996264)"/>
     <use xlink:href="#CMR17-31" transform="translate(83.022254 0) scale(0.996264)"/>
     <use xlink:href="#CMR17-30" transform="translate(128.712731 0) scale(0.996264)"/>
     <path d="M 83.022254 82.421465 
L 174.403208 82.421465 
L 174.403208 86.406414 
L 83.022254 86.406414 
L 83.022254 82.421465 
z
"/>
    </g>
   </g>
   <g id="text_3">
    <!-- $\sqrt{29}$ -->
    <g transform="translate(182.598635 299.175159) scale(0.27 -0.27)">
     <defs>
      <path id="CMR17-32" d="M 2669 989 
L 2554 989 
C 2490 536 2438 459 2413 420 
C 2381 369 1920 369 1830 369 
L 602 369 
C 832 619 1280 1072 1824 1597 
C 2214 1967 2669 2402 2669 3035 
C 2669 3790 2067 4224 1395 4224 
C 691 4224 262 3604 262 3030 
C 262 2780 448 2748 525 2748 
C 589 2748 781 2787 781 3010 
C 781 3207 614 3264 525 3264 
C 486 3264 448 3258 422 3245 
C 544 3790 915 4058 1306 4058 
C 1862 4058 2227 3617 2227 3035 
C 2227 2479 1901 2000 1536 1584 
L 262 146 
L 262 0 
L 2515 0 
L 2669 989 
z
" transform="scale(0.015625)"/>
      <path id="CMR17-39" d="M 2253 1864 
C 2253 464 1670 31 1190 31 
C 1043 31 685 31 538 294 
C 704 268 826 357 826 518 
C 826 692 685 749 595 749 
C 538 749 365 723 365 506 
C 365 71 742 -128 1203 -128 
C 1939 -128 2688 674 2688 2073 
C 2688 3817 1971 4179 1485 4179 
C 851 4179 243 3628 243 2778 
C 243 1991 762 1408 1414 1408 
C 1952 1408 2189 1903 2253 2112 
L 2253 1864 
z
M 1427 1510 
C 1254 1510 1011 1542 813 1922 
C 678 2169 678 2461 678 2771 
C 678 3146 678 3405 858 3684 
C 947 3817 1114 4032 1485 4032 
C 2240 4032 2240 2885 2240 2632 
C 2240 2182 2035 1510 1427 1510 
z
" transform="scale(0.015625)"/>
     </defs>
     <use xlink:href="#CMSY10-70" transform="translate(0 82.421465) scale(0.996264)"/>
     <use xlink:href="#CMR17-32" transform="translate(83.022254 0) scale(0.996264)"/>
     <use xlink:href="#CMR17-39" transform="translate(128.712731 0) scale(0.996264)"/>
     <path d="M 83.022254 82.421465 
L 174.403208 82.421465 
L 174.403208 86.406414 
L 83.022254 86.406414 
L 83.022254 82.421465 
z
"/>
    </g>
   </g>
   <g id="text_4">
    <!-- $A$ -->
    <g transform="translate(131.411289 421.581983) scale(0.27 -0.27)">
     <defs>
      <path id="CMMI12-41" d="M 1088 691 
C 864 314 646 186 339 186 
C 269 180 218 180 218 58 
C 218 24 250 0 294 0 
C 410 0 698 0 813 0 
C 998 0 1203 0 1382 0 
C 1421 0 1498 0 1498 122 
C 1498 180 1446 186 1408 186 
C 1261 186 1139 236 1139 388 
C 1139 476 1178 546 1261 685 
L 1747 1479 
L 3379 1479 
C 3386 1423 3386 1373 3392 1316 
C 3411 1152 3488 495 3488 376 
C 3488 186 3162 186 3059 186 
C 2989 186 2918 186 2918 70 
C 2918 0 2976 0 3014 0 
C 3123 0 3251 0 3360 0 
L 3725 0 
C 4115 0 4397 0 4403 0 
C 4448 0 4518 0 4518 122 
C 4518 186 4461 186 4365 186 
C 4013 186 4006 244 3987 434 
L 3597 4404 
C 3584 4531 3558 4544 3488 4544 
C 3424 4544 3386 4531 3328 4435 
L 1088 691 
z
M 1856 1664 
L 3142 3819 
L 3360 1664 
L 1856 1664 
z
" transform="scale(0.015625)"/>
     </defs>
     <use xlink:href="#CMMI12-41" transform="scale(0.996264)"/>
    </g>
   </g>
   <g id="text_5">
    <!-- $B$ -->
    <g transform="translate(280.314977 23.838412) scale(0.27 -0.27)">
     <defs>
      <path id="CMMI12-42" d="M 2342 3921 
C 2400 4160 2426 4160 2675 4160 
L 3507 4160 
C 4230 4160 4230 3544 4230 3485 
C 4230 2966 3712 2304 2867 2304 
L 1946 2304 
L 2342 3921 
z
M 3424 2275 
C 4122 2402 4755 2886 4755 3473 
C 4755 3970 4314 4352 3590 4352 
L 1536 4352 
C 1414 4352 1357 4352 1357 4226 
C 1357 4160 1414 4160 1510 4160 
C 1901 4160 1901 4112 1901 4044 
C 1901 4032 1901 3993 1875 3897 
L 1011 472 
C 954 249 941 185 493 185 
C 371 185 307 185 307 70 
C 307 0 346 0 474 0 
L 2669 0 
C 3648 0 4403 739 4403 1383 
C 4403 1906 3942 2224 3424 2275 
z
M 2515 185 
L 1651 185 
C 1562 185 1549 185 1510 192 
C 1440 198 1434 211 1434 261 
C 1434 305 1446 343 1459 399 
L 1907 2176 
L 3110 2176 
C 3866 2176 3866 1483 3866 1433 
C 3866 828 3309 185 2515 185 
z
" transform="scale(0.015625)"/>
     </defs>
     <use xlink:href="#CMMI12-42" transform="scale(0.996264)"/>
    </g>
   </g>
   <g id="text_6">
    <!-- $C$ -->
    <g transform="translate(243.209015 181.445099) scale(0.27 -0.27)">
     <defs>
      <path id="CMMI12-43" d="M 4781 4423 
C 4781 4480 4736 4480 4723 4480 
C 4710 4480 4685 4480 4634 4416 
L 4192 3882 
C 3968 4264 3616 4480 3136 4480 
C 1754 4480 320 3088 320 1595 
C 320 533 1069 -128 2003 -128 
C 2515 -128 2963 88 3334 400 
C 3891 863 4058 1481 4058 1531 
C 4058 1588 4006 1588 3987 1588 
C 3930 1588 3923 1550 3910 1524 
C 3616 534 2752 57 2112 57 
C 1434 57 845 489 845 1391 
C 845 1595 909 2700 1632 3532 
C 1984 3939 2586 4295 3194 4295 
C 3898 4295 4211 3717 4211 3068 
C 4211 2903 4192 2764 4192 2738 
C 4192 2681 4256 2681 4275 2681 
C 4346 2681 4352 2687 4378 2801 
L 4781 4423 
z
" transform="scale(0.015625)"/>
     </defs>
     <use xlink:href="#CMMI12-43" transform="scale(0.996264)"/>
    </g>
   </g>
   <g id="text_7">
    <!-- $1.24536^\circ$ -->
    <g transform="translate(116.327277 368.881908) scale(0.27 -0.27)">
     <defs>
      <path id="CMMI12-3a" d="M 1178 307 
C 1178 492 1024 619 870 619 
C 685 619 557 466 557 313 
C 557 128 710 0 864 0 
C 1050 0 1178 153 1178 307 
z
" transform="scale(0.015625)"/>
      <path id="CMR17-34" d="M 2150 4122 
C 2150 4256 2144 4256 2029 4256 
L 128 1254 
L 128 1088 
L 1779 1088 
L 1779 457 
C 1779 224 1766 160 1318 160 
L 1197 160 
L 1197 0 
C 1402 0 1747 0 1965 0 
C 2182 0 2528 0 2733 0 
L 2733 160 
L 2611 160 
C 2163 160 2150 224 2150 457 
L 2150 1088 
L 2803 1088 
L 2803 1254 
L 2150 1254 
L 2150 4122 
z
M 1798 3703 
L 1798 1254 
L 256 1254 
L 1798 3703 
z
" transform="scale(0.015625)"/>
      <path id="CMR17-35" d="M 730 3692 
C 794 3666 1056 3584 1325 3584 
C 1920 3584 2246 3911 2432 4100 
C 2432 4157 2432 4192 2394 4192 
C 2387 4192 2374 4192 2323 4163 
C 2099 4058 1837 3973 1517 3973 
C 1325 3973 1037 3999 723 4139 
C 653 4171 640 4171 634 4171 
C 602 4171 595 4164 595 4037 
L 595 2203 
C 595 2089 595 2057 659 2057 
C 691 2057 704 2070 736 2114 
C 941 2401 1222 2522 1542 2522 
C 1766 2522 2246 2382 2246 1289 
C 2246 1085 2246 715 2054 421 
C 1894 159 1645 25 1370 25 
C 947 25 518 320 403 814 
C 429 807 480 795 506 795 
C 589 795 749 840 749 1038 
C 749 1210 627 1280 506 1280 
C 358 1280 262 1190 262 1011 
C 262 454 704 -128 1382 -128 
C 2042 -128 2669 440 2669 1264 
C 2669 2030 2170 2624 1549 2624 
C 1222 2624 947 2503 730 2274 
L 730 3692 
z
" transform="scale(0.015625)"/>
      <path id="CMR17-36" d="M 678 2176 
C 678 3690 1395 4032 1811 4032 
C 1946 4032 2272 4009 2400 3776 
C 2298 3776 2106 3776 2106 3553 
C 2106 3381 2246 3323 2336 3323 
C 2394 3323 2566 3348 2566 3560 
C 2566 3954 2246 4179 1805 4179 
C 1043 4179 243 3390 243 1984 
C 243 253 966 -128 1478 -128 
C 2099 -128 2688 427 2688 1283 
C 2688 2081 2170 2662 1517 2662 
C 1126 2662 838 2407 678 1960 
L 678 2176 
z
M 1478 25 
C 691 25 691 1200 691 1436 
C 691 1896 909 2560 1504 2560 
C 1613 2560 1926 2560 2138 2120 
C 2253 1870 2253 1609 2253 1289 
C 2253 944 2253 690 2118 434 
C 1978 171 1773 25 1478 25 
z
" transform="scale(0.015625)"/>
      <path id="CMSY10-e" d="M 2842 1600 
C 2842 2277 2272 2828 1600 2828 
C 909 2828 352 2264 352 1600 
C 352 930 909 372 1600 372 
C 2272 372 2842 923 2842 1600 
z
M 1600 628 
C 1043 628 608 1070 608 1600 
C 608 2130 1050 2572 1600 2572 
C 2131 2572 2586 2142 2586 1600 
C 2586 1058 2131 628 1600 628 
z
" transform="scale(0.015625)"/>
     </defs>
     <use xlink:href="#CMR17-31" transform="scale(0.996264)"/>
     <use xlink:href="#CMMI12-3a" transform="translate(45.690477 0) scale(0.996264)"/>
     <use xlink:href="#CMR17-32" transform="translate(72.787654 0) scale(0.996264)"/>
     <use xlink:href="#CMR17-34" transform="translate(118.478131 0) scale(0.996264)"/>
     <use xlink:href="#CMR17-35" transform="translate(164.168608 0) scale(0.996264)"/>
     <use xlink:href="#CMR17-33" transform="translate(209.859086 0) scale(0.996264)"/>
     <use xlink:href="#CMR17-36" transform="translate(255.549563 0) scale(0.996264)"/>
     <use xlink:href="#CMSY10-e" transform="translate(301.24004 36.153639) scale(0.697382)"/>
    </g>
   </g>
   <g id="text_8">
    <!-- $2.1211^\circ$ -->
    <g transform="translate(232.24906 77.122164) scale(0.27 -0.27)">
     <use xlink:href="#CMR17-32" transform="scale(0.996264)"/>
     <use xlink:href="#CMMI12-3a" transform="translate(45.690477 0) scale(0.996264)"/>
     <use xlink:href="#CMR17-31" transform="translate(72.787654 0) scale(0.996264)"/>
     <use xlink:href="#CMR17-32" transform="translate(118.478131 0) scale(0.996264)"/>
     <use xlink:href="#CMR17-31" transform="translate(164.168608 0) scale(0.996264)"/>
     <use xlink:href="#CMR17-31" transform="translate(209.859086 0) scale(0.996264)"/>
     <use xlink:href="#CMSY10-e" transform="translate(255.549563 36.153639) scale(0.697382)"/>
    </g>
   </g>
   <g id="text_9">
    <!-- $176.634^\circ$ -->
    <g transform="translate(154.52535 161.877929) scale(0.27 -0.27)">
     <use xlink:href="#CMR17-31" transform="scale(0.996264)"/>
     <use xlink:href="#CMR17-37" transform="translate(45.690477 0) scale(0.996264)"/>
     <use xlink:href="#CMR17-36" transform="translate(91.380954 0) scale(0.996264)"/>
     <use xlink:href="#CMMI12-3a" transform="translate(137.071431 0) scale(0.996264)"/>
     <use xlink:href="#CMR17-36" transform="translate(164.168608 0) scale(0.996264)"/>
     <use xlink:href="#CMR17-33" transform="translate(209.859086 0) scale(0.996264)"/>
     <use xlink:href="#CMR17-34" transform="translate(255.549563 0) scale(0.996264)"/>
     <use xlink:href="#CMSY10-e" transform="translate(301.24004 36.153639) scale(0.697382)"/>
    </g>
   </g>
  </g>
 </g>
 <defs>
  <clipPath id="p31c3898295">
   <rect x="10.8" y="18.734323" width="410.4" height="394.652927"/>
  </clipPath>
 </defs>
</svg>
