<?xml version="1.0" encoding="utf-8" standalone="no"?>
<!DOCTYPE svg PUBLIC "-//W3C//DTD SVG 1.1//EN"
  "http://www.w3.org/Graphics/SVG/1.1/DTD/svg11.dtd">
<svg xmlns:xlink="http://www.w3.org/1999/xlink" width="432pt" height="432pt" viewBox="0 0 432 432" xmlns="http://www.w3.org/2000/svg" version="1.1">
 <metadata>
  <rdf:RDF xmlns:dc="http://purl.org/dc/elements/1.1/" xmlns:cc="http://creativecommons.org/ns#" xmlns:rdf="http://www.w3.org/1999/02/22-rdf-syntax-ns#">
   <cc:Work>
    <dc:type rdf:resource="http://purl.org/dc/dcmitype/StillImage"/>
    <dc:date>2026-04-11T16:58:01.853445</dc:date>
    <dc:format>image/svg+xml</dc:format>
    <dc:creator>
     <cc:Agent>
      <dc:title>Matplotlib v3.10.8, https://matplotlib.org/</dc:title>
     </cc:Agent>
    </dc:creator>
   </cc:Work>
  </rdf:RDF>
 </metadata>
 <defs>
  <style type="text/css">*{stroke-linejoin: round; stroke-linecap: butt}</style>
 </defs>
 <g id="figure_1">
  <g id="patch_1">
   <path d="M 0 432 
L 432 432 
L 432 0 
L 0 0 
L 0 432 
z
" style="fill: none"/>
  </g>
  <g id="axes_1">
   <g id="patch_2">
    <path d="M 216 395.85124 
C 263.697106 395.85124 309.447084 376.900978 343.174031 343.174031 
C 376.900978 309.447084 395.85124 263.697106 395.85124 216 
C 395.85124 168.302894 376.900978 122.552916 343.174031 88.825969 
C 309.447084 55.099022 263.697106 36.14876 216 36.14876 
C 168.302894 36.14876 122.552916 55.099022 88.825969 88.825969 
C 55.099022 122.552916 36.14876 168.302894 36.14876 216 
C 36.14876 263.697106 55.099022 309.447084 88.825969 343.174031 
C 122.552916 376.900978 168.302894 395.85124 216 395.85124 
L 216 395.85124 
z
" clip-path="url(#pa71e747d34)" style="fill: none; stroke: #000000; stroke-width: 2.5; stroke-linejoin: miter"/>
   </g>
   <g id="line2d_1">
    <path d="M 251.970248 216 
L 251.858568 213.167712 
L 251.524221 210.353012 
L 250.969283 207.573377 
L 250.197201 204.846068 
L 249.212768 202.188021 
L 248.022098 199.61574 
L 246.632584 197.145198 
L 245.052854 194.791737 
L 243.292718 192.56997 
L 241.363105 190.493694 
L 239.275999 188.575802 
L 237.044358 186.828203 
L 234.68204 185.261748 
L 233.985124 184.848852 
L 233.985124 184.848852 
" clip-path="url(#pa71e747d34)" style="fill: none; stroke: #000000; stroke-linecap: square"/>
   </g>
   <g id="line2d_2">
    <path d="M 395.85124 216 
L 305.92562 60.244258 
" clip-path="url(#pa71e747d34)" style="fill: none; stroke: #0072b2; stroke-width: 2.5; stroke-linecap: square"/>
   </g>
   <g id="line2d_3">
    <path d="M 305.92562 60.244258 
L 126.07438 60.244258 
" clip-path="url(#pa71e747d34)" style="fill: none; stroke: #0072b2; stroke-width: 2.5; stroke-linecap: square"/>
   </g>
   <g id="line2d_4">
    <path d="M 126.07438 60.244258 
L 36.14876 216 
" clip-path="url(#pa71e747d34)" style="fill: none; stroke: #0072b2; stroke-width: 2.5; stroke-linecap: square"/>
   </g>
   <g id="line2d_5">
    <path d="M 36.14876 216 
L 126.07438 371.755742 
" clip-path="url(#pa71e747d34)" style="fill: none; stroke: #0072b2; stroke-width: 2.5; stroke-linecap: square"/>
   </g>
   <g id="line2d_6">
    <path d="M 126.07438 371.755742 
L 305.92562 371.755742 
" clip-path="url(#pa71e747d34)" style="fill: none; stroke: #0072b2; stroke-width: 2.5; stroke-linecap: square"/>
   </g>
   <g id="line2d_7">
    <path d="M 305.92562 371.755742 
L 395.85124 216 
" clip-path="url(#pa71e747d34)" style="fill: none; stroke: #0072b2; stroke-width: 2.5; stroke-linecap: square"/>
   </g>
   <g id="line2d_8">
    <path d="M 216 216 
L 395.85124 216 
" clip-path="url(#pa71e747d34)" style="fill: none; stroke-dasharray: 9.25,4; stroke-dashoffset: 0; stroke: #808080; stroke-width: 2.5"/>
   </g>
   <g id="line2d_9">
    <path d="M 216 216 
L 305.92562 60.244258 
" clip-path="url(#pa71e747d34)" style="fill: none; stroke-dasharray: 9.25,4; stroke-dashoffset: 0; stroke: #808080; stroke-width: 2.5"/>
   </g>
   <g id="line2d_10">
    <path d="M 216 216 
L 126.07438 60.244258 
" clip-path="url(#pa71e747d34)" style="fill: none; stroke-dasharray: 9.25,4; stroke-dashoffset: 0; stroke: #808080; stroke-width: 2.5"/>
   </g>
   <g id="line2d_11">
    <path d="M 216 216 
L 36.14876 216 
" clip-path="url(#pa71e747d34)" style="fill: none; stroke-dasharray: 9.25,4; stroke-dashoffset: 0; stroke: #808080; stroke-width: 2.5"/>
   </g>
   <g id="line2d_12">
    <path d="M 216 216 
L 126.07438 371.755742 
" clip-path="url(#pa71e747d34)" style="fill: none; stroke-dasharray: 9.25,4; stroke-dashoffset: 0; stroke: #808080; stroke-width: 2.5"/>
   </g>
   <g id="line2d_13">
    <path d="M 216 216 
L 305.92562 371.755742 
" clip-path="url(#pa71e747d34)" style="fill: none; stroke-dasharray: 9.25,4; stroke-dashoffset: 0; stroke: #808080; stroke-width: 2.5"/>
   </g>
   <g id="text_1">
    <!-- $v$ -->
    <g transform="translate(255.652642 196.493336) scale(0.3 -0.3)">
     <defs>
      <path id="CMMI12-76" d="M 2925 2389 
C 2925 2791 2720 2816 2669 2816 
C 2515 2816 2374 2663 2374 2535 
C 2374 2459 2419 2414 2445 2389 
C 2509 2331 2675 2159 2675 1827 
C 2675 1558 2291 64 1523 64 
C 1133 64 1056 390 1056 626 
C 1056 945 1203 1392 1376 1852 
C 1478 2114 1504 2178 1504 2305 
C 1504 2574 1312 2816 998 2816 
C 410 2816 173 1890 173 1839 
C 173 1814 198 1782 243 1782 
C 301 1782 307 1807 333 1897 
C 486 2446 736 2689 979 2689 
C 1037 2689 1146 2689 1146 2478 
C 1146 2312 1075 2127 979 1884 
C 672 1067 672 869 672 715 
C 672 575 691 313 890 134 
C 1120 -64 1440 -64 1498 -64 
C 2560 -64 2925 2024 2925 2389 
z
" transform="scale(0.015625)"/>
     </defs>
     <use xlink:href="#CMMI12-76" transform="scale(0.996264)"/>
    </g>
   </g>
  </g>
 </g>
 <defs>
  <clipPath id="pa71e747d34">
   <rect x="19.44" y="19.44" width="393.12" height="393.12"/>
  </clipPath>
 </defs>
</svg>
