<?xml version="1.0" encoding="utf-8" standalone="no"?>
<!DOCTYPE svg PUBLIC "-//W3C//DTD SVG 1.1//EN"
  "http://www.w3.org/Graphics/SVG/1.1/DTD/svg11.dtd">
<svg xmlns:xlink="http://www.w3.org/1999/xlink" width="432pt" height="432pt" viewBox="0 0 432 432" xmlns="http://www.w3.org/2000/svg" version="1.1">
 <metadata>
  <rdf:RDF xmlns:dc="http://purl.org/dc/elements/1.1/" xmlns:cc="http://creativecommons.org/ns#" xmlns:rdf="http://www.w3.org/1999/02/22-rdf-syntax-ns#">
   <cc:Work>
    <dc:type rdf:resource="http://purl.org/dc/dcmitype/StillImage"/>
    <dc:date>2026-04-11T16:58:19.738254</dc:date>
    <dc:format>image/svg+xml</dc:format>
    <dc:creator>
     <cc:Agent>
      <dc:title>Matplotlib v3.10.8, https://matplotlib.org/</dc:title>
     </cc:Agent>
    </dc:creator>
   </cc:Work>
  </rdf:RDF>
 </metadata>
 <defs>
  <style type="text/css">*{stroke-linejoin: round; stroke-linecap: butt}</style>
 </defs>
 <g id="figure_1">
  <g id="patch_1">
   <path d="M 0 432 
L 432 432 
L 432 0 
L 0 0 
L 0 432 
z
" style="fill: none"/>
  </g>
  <g id="axes_1">
   <g id="line2d_1">
    <path d="M 125.051447 341.933194 
L 393.082059 341.933194 
" clip-path="url(#p4bdd399e20)" style="fill: none; stroke: #0072b2; stroke-width: 2.5; stroke-linecap: square"/>
   </g>
   <g id="line2d_2">
    <path d="M 393.082059 341.933194 
L 33.379579 90.066806 
" clip-path="url(#p4bdd399e20)" style="fill: none; stroke: #0072b2; stroke-width: 2.5; stroke-linecap: square"/>
   </g>
   <g id="line2d_3">
    <path d="M 33.379579 90.066806 
L 125.051447 341.933194 
" clip-path="url(#p4bdd399e20)" style="fill: none; stroke: #0072b2; stroke-width: 2.5; stroke-linecap: square"/>
   </g>
   <g id="line2d_4">
    <path d="M 146.324175 341.933194 
L 146.307161 341.082573 
L 146.256148 340.233312 
L 146.171217 339.386771 
L 146.052503 338.544302 
L 145.900197 337.707255 
L 145.714542 336.876967 
L 145.495836 336.054766 
L 145.244427 335.241969 
L 144.960719 334.439875 
L 144.645165 333.649766 
L 144.298269 332.872908 
L 143.920587 332.110541 
L 143.512723 331.363887 
L 143.075329 330.634139 
L 142.609104 329.922465 
L 142.114795 329.230002 
L 141.593193 328.557859 
L 141.045131 327.90711 
L 140.471486 327.278797 
L 139.873176 326.673924 
L 139.251157 326.09346 
L 138.606426 325.538332 
L 137.940012 325.009429 
L 137.252983 324.507596 
L 136.546436 324.033636 
L 135.821502 323.588308 
L 135.079342 323.172323 
L 134.321141 322.786348 
L 133.548112 322.430999 
L 132.761493 322.106845 
L 131.962541 321.814404 
L 131.152534 321.554144 
L 130.332769 321.326482 
L 129.504555 321.131781 
L 128.669219 320.970354 
L 127.828096 320.842458 
L 126.982531 320.748297 
L 126.133877 320.688023 
L 125.283492 320.661732 
L 124.432736 320.669466 
L 123.58297 320.711212 
L 122.735552 320.786904 
L 121.891839 320.896421 
L 121.05318 321.039588 
L 120.220916 321.216174 
L 119.396379 321.425899 
L 118.580888 321.668427 
L 117.775746 321.943369 
" clip-path="url(#p4bdd399e20)" style="fill: none; stroke: #dc5e8b; stroke-width: 2; stroke-linecap: square"/>
   </g>
   <g id="line2d_5">
    <path d="M 371.809331 341.933194 
L 371.811054 341.662477 
L 371.816222 341.391803 
L 371.824834 341.121218 
L 371.836888 340.850764 
L 371.852384 340.580485 
L 371.871317 340.310426 
L 371.893686 340.040629 
L 371.919487 339.771138 
L 371.948715 339.501998 
L 371.981366 339.233252 
L 372.017434 338.964943 
L 372.056914 338.697114 
L 372.099799 338.42981 
L 372.146082 338.163073 
L 372.195756 337.896947 
L 372.248813 337.631475 
L 372.305244 337.366699 
L 372.365039 337.102662 
L 372.42819 336.839408 
L 372.494687 336.576979 
L 372.564517 336.315418 
L 372.63767 336.054766 
L 372.714135 335.795067 
L 372.793898 335.536361 
L 372.876947 335.278692 
L 372.963269 335.0221 
L 373.052849 334.766628 
L 373.145672 334.512316 
L 373.241725 334.259206 
L 373.340991 334.007339 
L 373.443454 333.756756 
L 373.549098 333.507497 
L 373.657905 333.259602 
L 373.769858 333.013113 
L 373.884939 332.768068 
L 374.003129 332.524507 
L 374.12441 332.28247 
L 374.24876 332.041996 
L 374.376161 331.803125 
L 374.506591 331.565893 
L 374.640029 331.330341 
L 374.776455 331.096506 
L 374.915845 330.864426 
L 375.058178 330.634139 
L 375.203429 330.405682 
L 375.351576 330.179092 
L 375.502595 329.954405 
L 375.656461 329.731659 
" clip-path="url(#p4bdd399e20)" style="fill: none; stroke: #dc5e8b; stroke-width: 2; stroke-linecap: square"/>
   </g>
   <g id="line2d_6">
    <path d="M 40.655281 110.056631 
L 40.909082 109.962422 
L 41.161664 109.86499 
L 41.412986 109.764352 
L 41.663007 109.660523 
L 41.911686 109.553522 
L 42.158983 109.443364 
L 42.404859 109.330068 
L 42.649273 109.213652 
L 42.892185 109.094136 
L 43.133557 108.971537 
L 43.373349 108.845877 
L 43.611522 108.717175 
L 43.848039 108.585453 
L 44.082859 108.450732 
L 44.315947 108.313033 
L 44.547263 108.172379 
L 44.77677 108.028793 
L 45.004432 107.882297 
L 45.230211 107.732917 
L 45.45407 107.580675 
L 45.675974 107.425596 
L 45.895887 107.267707 
L 46.113772 107.107031 
L 46.329595 106.943595 
L 46.543321 106.777427 
L 46.754914 106.608552 
L 46.964342 106.436997 
L 47.171569 106.262792 
L 47.376563 106.085963 
L 47.579289 105.90654 
L 47.779716 105.724552 
L 47.977811 105.540027 
L 48.173541 105.352997 
L 48.366875 105.163491 
L 48.557782 104.97154 
L 48.746231 104.777175 
L 48.932191 104.580427 
L 49.115632 104.381329 
L 49.296525 104.179913 
L 49.474839 103.976211 
L 49.650547 103.770256 
L 49.82362 103.562082 
L 49.994029 103.351722 
L 50.161748 103.13921 
L 50.326749 102.924581 
L 50.489004 102.70787 
L 50.648489 102.489112 
L 50.805177 102.268341 
" clip-path="url(#p4bdd399e20)" style="fill: none; stroke: #dc5e8b; stroke-width: 2; stroke-linecap: square"/>
   </g>
   <g id="text_1">
    <!-- $A$ -->
    <g transform="translate(109.322453 357.021404) scale(0.27 -0.27)">
     <defs>
      <path id="CMMI12-41" d="M 1088 691 
C 864 314 646 186 339 186 
C 269 180 218 180 218 58 
C 218 24 250 0 294 0 
C 410 0 698 0 813 0 
C 998 0 1203 0 1382 0 
C 1421 0 1498 0 1498 122 
C 1498 180 1446 186 1408 186 
C 1261 186 1139 236 1139 388 
C 1139 476 1178 546 1261 685 
L 1747 1479 
L 3379 1479 
C 3386 1423 3386 1373 3392 1316 
C 3411 1152 3488 495 3488 376 
C 3488 186 3162 186 3059 186 
C 2989 186 2918 186 2918 70 
C 2918 0 2976 0 3014 0 
C 3123 0 3251 0 3360 0 
L 3725 0 
C 4115 0 4397 0 4403 0 
C 4448 0 4518 0 4518 122 
C 4518 186 4461 186 4365 186 
C 4013 186 4006 244 3987 434 
L 3597 4404 
C 3584 4531 3558 4544 3488 4544 
C 3424 4544 3386 4531 3328 4435 
L 1088 691 
z
M 1856 1664 
L 3142 3819 
L 3360 1664 
L 1856 1664 
z
" transform="scale(0.015625)"/>
     </defs>
     <use xlink:href="#CMMI12-41" transform="scale(0.996264)"/>
    </g>
   </g>
   <g id="text_2">
    <!-- $B$ -->
    <g transform="translate(399.26991 353.762571) scale(0.27 -0.27)">
     <defs>
      <path id="CMMI12-42" d="M 2342 3921 
C 2400 4160 2426 4160 2675 4160 
L 3507 4160 
C 4230 4160 4230 3544 4230 3485 
C 4230 2966 3712 2304 2867 2304 
L 1946 2304 
L 2342 3921 
z
M 3424 2275 
C 4122 2402 4755 2886 4755 3473 
C 4755 3970 4314 4352 3590 4352 
L 1536 4352 
C 1414 4352 1357 4352 1357 4226 
C 1357 4160 1414 4160 1510 4160 
C 1901 4160 1901 4112 1901 4044 
C 1901 4032 1901 3993 1875 3897 
L 1011 472 
C 954 249 941 185 493 185 
C 371 185 307 185 307 70 
C 307 0 346 0 474 0 
L 2669 0 
C 3648 0 4403 739 4403 1383 
C 4403 1906 3942 2224 3424 2275 
z
M 2515 185 
L 1651 185 
C 1562 185 1549 185 1510 192 
C 1440 198 1434 211 1434 261 
C 1434 305 1446 343 1459 399 
L 1907 2176 
L 3110 2176 
C 3866 2176 3866 1483 3866 1433 
C 3866 828 3309 185 2515 185 
z
" transform="scale(0.015625)"/>
     </defs>
     <use xlink:href="#CMMI12-42" transform="scale(0.996264)"/>
    </g>
   </g>
   <g id="text_3">
    <!-- $C$ -->
    <g transform="translate(13.621963 83.320988) scale(0.27 -0.27)">
     <defs>
      <path id="CMMI12-43" d="M 4781 4423 
C 4781 4480 4736 4480 4723 4480 
C 4710 4480 4685 4480 4634 4416 
L 4192 3882 
C 3968 4264 3616 4480 3136 4480 
C 1754 4480 320 3088 320 1595 
C 320 533 1069 -128 2003 -128 
C 2515 -128 2963 88 3334 400 
C 3891 863 4058 1481 4058 1531 
C 4058 1588 4006 1588 3987 1588 
C 3930 1588 3923 1550 3910 1524 
C 3616 534 2752 57 2112 57 
C 1434 57 845 489 845 1391 
C 845 1595 909 2700 1632 3532 
C 1984 3939 2586 4295 3194 4295 
C 3898 4295 4211 3717 4211 3068 
C 4211 2903 4192 2764 4192 2738 
C 4192 2681 4256 2681 4275 2681 
C 4346 2681 4352 2687 4378 2801 
L 4781 4423 
z
" transform="scale(0.015625)"/>
     </defs>
     <use xlink:href="#CMMI12-43" transform="scale(0.996264)"/>
    </g>
   </g>
   <g id="text_4">
    <!-- $110^\circ$ -->
    <g transform="translate(122.826106 318.685088) scale(0.27 -0.27)">
     <defs>
      <path id="CMR17-31" d="M 1702 4058 
C 1702 4192 1696 4192 1606 4192 
C 1357 3916 979 3827 621 3827 
C 602 3827 570 3827 563 3808 
C 557 3795 557 3782 557 3648 
C 755 3648 1088 3686 1344 3839 
L 1344 461 
C 1344 236 1331 160 781 160 
L 589 160 
L 589 0 
C 896 0 1216 0 1523 0 
C 1830 0 2150 0 2458 0 
L 2458 160 
L 2266 160 
C 1715 160 1702 230 1702 458 
L 1702 4058 
z
" transform="scale(0.015625)"/>
      <path id="CMR17-30" d="M 2688 2025 
C 2688 2416 2682 3080 2413 3591 
C 2176 4039 1798 4198 1466 4198 
C 1158 4198 768 4058 525 3597 
C 269 3118 243 2524 243 2025 
C 243 1661 250 1106 448 619 
C 723 -39 1216 -128 1466 -128 
C 1760 -128 2208 -7 2470 600 
C 2662 1042 2688 1559 2688 2025 
z
M 1466 -26 
C 1056 -26 813 325 723 812 
C 653 1188 653 1738 653 2096 
C 653 2588 653 2997 736 3387 
C 858 3929 1216 4096 1466 4096 
C 1728 4096 2067 3923 2189 3400 
C 2272 3036 2278 2607 2278 2096 
C 2278 1680 2278 1169 2202 792 
C 2067 95 1690 -26 1466 -26 
z
" transform="scale(0.015625)"/>
      <path id="CMSY10-e" d="M 2842 1600 
C 2842 2277 2272 2828 1600 2828 
C 909 2828 352 2264 352 1600 
C 352 930 909 372 1600 372 
C 2272 372 2842 923 2842 1600 
z
M 1600 628 
C 1043 628 608 1070 608 1600 
C 608 2130 1050 2572 1600 2572 
C 2131 2572 2586 2142 2586 1600 
C 2586 1058 2131 628 1600 628 
z
" transform="scale(0.015625)"/>
     </defs>
     <use xlink:href="#CMR17-31" transform="scale(0.996264)"/>
     <use xlink:href="#CMR17-31" transform="translate(45.690477 0) scale(0.996264)"/>
     <use xlink:href="#CMR17-30" transform="translate(91.380954 0) scale(0.996264)"/>
     <use xlink:href="#CMSY10-e" transform="translate(137.071431 36.153639) scale(0.697382)"/>
    </g>
   </g>
   <g id="text_5">
    <!-- $35^\circ$ -->
    <g transform="translate(341.142655 337.654565) scale(0.27 -0.27)">
     <defs>
      <path id="CMR17-33" d="M 1414 2157 
C 1984 2157 2234 1662 2234 1090 
C 2234 320 1824 25 1453 25 
C 1114 25 563 194 390 693 
C 422 680 454 680 486 680 
C 640 680 755 782 755 948 
C 755 1133 614 1216 486 1216 
C 378 1216 211 1165 211 926 
C 211 335 787 -128 1466 -128 
C 2176 -128 2720 430 2720 1085 
C 2720 1707 2208 2157 1600 2227 
C 2086 2328 2554 2756 2554 3329 
C 2554 3820 2048 4179 1472 4179 
C 890 4179 378 3829 378 3329 
C 378 3110 544 3072 627 3072 
C 762 3072 877 3155 877 3321 
C 877 3486 762 3569 627 3569 
C 602 3569 570 3569 544 3557 
C 730 3959 1235 4032 1459 4032 
C 1683 4032 2106 3925 2106 3320 
C 2106 3143 2080 2828 1862 2550 
C 1670 2304 1453 2304 1242 2284 
C 1210 2284 1062 2269 1037 2269 
C 992 2263 966 2257 966 2208 
C 966 2163 973 2157 1101 2157 
L 1414 2157 
z
" transform="scale(0.015625)"/>
      <path id="CMR17-35" d="M 730 3692 
C 794 3666 1056 3584 1325 3584 
C 1920 3584 2246 3911 2432 4100 
C 2432 4157 2432 4192 2394 4192 
C 2387 4192 2374 4192 2323 4163 
C 2099 4058 1837 3973 1517 3973 
C 1325 3973 1037 3999 723 4139 
C 653 4171 640 4171 634 4171 
C 602 4171 595 4164 595 4037 
L 595 2203 
C 595 2089 595 2057 659 2057 
C 691 2057 704 2070 736 2114 
C 941 2401 1222 2522 1542 2522 
C 1766 2522 2246 2382 2246 1289 
C 2246 1085 2246 715 2054 421 
C 1894 159 1645 25 1370 25 
C 947 25 518 320 403 814 
C 429 807 480 795 506 795 
C 589 795 749 840 749 1038 
C 749 1210 627 1280 506 1280 
C 358 1280 262 1190 262 1011 
C 262 454 704 -128 1382 -128 
C 2042 -128 2669 440 2669 1264 
C 2669 2030 2170 2624 1549 2624 
C 1222 2624 947 2503 730 2274 
L 730 3692 
z
" transform="scale(0.015625)"/>
     </defs>
     <use xlink:href="#CMR17-33" transform="scale(0.996264)"/>
     <use xlink:href="#CMR17-35" transform="translate(45.690477 0) scale(0.996264)"/>
     <use xlink:href="#CMSY10-e" transform="translate(91.380954 36.153639) scale(0.697382)"/>
    </g>
   </g>
  </g>
 </g>
 <defs>
  <clipPath id="p4bdd399e20">
   <rect x="22.389328" y="19.44" width="381.682983" height="393.12"/>
  </clipPath>
 </defs>
</svg>
