<?xml version="1.0" encoding="utf-8" standalone="no"?>
<!DOCTYPE svg PUBLIC "-//W3C//DTD SVG 1.1//EN"
  "http://www.w3.org/Graphics/SVG/1.1/DTD/svg11.dtd">
<svg xmlns:xlink="http://www.w3.org/1999/xlink" width="460.8pt" height="345.6pt" viewBox="0 0 460.8 345.6" xmlns="http://www.w3.org/2000/svg" version="1.1">
 <metadata>
  <rdf:RDF xmlns:dc="http://purl.org/dc/elements/1.1/" xmlns:cc="http://creativecommons.org/ns#" xmlns:rdf="http://www.w3.org/1999/02/22-rdf-syntax-ns#">
   <cc:Work>
    <dc:type rdf:resource="http://purl.org/dc/dcmitype/StillImage"/>
    <dc:date>2026-01-27T17:27:05.815294</dc:date>
    <dc:format>image/svg+xml</dc:format>
    <dc:creator>
     <cc:Agent>
      <dc:title>Matplotlib v3.9.1, https://matplotlib.org/</dc:title>
     </cc:Agent>
    </dc:creator>
   </cc:Work>
  </rdf:RDF>
 </metadata>
 <defs>
  <style type="text/css">*{stroke-linejoin: round; stroke-linecap: butt}</style>
 </defs>
 <g id="figure_1">
  <g id="patch_1">
   <path d="M 0 345.6 
L 460.8 345.6 
L 460.8 0 
L 0 0 
L 0 345.6 
z
" style="fill: none"/>
  </g>
  <g id="axes_1">
   <g id="patch_2">
    <path d="M 10.8 334.8 
L 447 334.8 
L 447 22.230394 
L 10.8 22.230394 
L 10.8 334.8 
z
" style="fill: none"/>
   </g>
   <g id="matplotlib.axis_1">
    <g id="text_1">
     <!-- $x$ -->
     <g transform="translate(433.141493 199.811451) scale(0.25 -0.25)">
      <defs>
       <path id="CMMI12-78" d="M 3034 2606 
C 2829 2567 2752 2414 2752 2293 
C 2752 2139 2874 2088 2963 2088 
C 3155 2088 3290 2254 3290 2427 
C 3290 2695 2982 2816 2714 2816 
C 2323 2816 2106 2433 2048 2312 
C 1901 2816 1504 2816 1389 2816 
C 736 2816 390 1980 390 1839 
C 390 1814 416 1782 461 1782 
C 512 1782 525 1820 538 1846 
C 755 2555 1184 2689 1370 2689 
C 1658 2689 1715 2420 1715 2267 
C 1715 2127 1677 1980 1600 1673 
L 1382 798 
C 1286 415 1101 64 762 64 
C 730 64 570 64 435 147 
C 666 192 717 383 717 460 
C 717 588 621 664 499 664 
C 346 664 179 530 179 326 
C 179 57 480 -64 755 -64 
C 1062 -64 1280 179 1414 441 
C 1517 64 1837 -64 2074 -64 
C 2726 -64 3072 773 3072 913 
C 3072 945 3046 971 3008 971 
C 2950 971 2944 939 2925 888 
C 2752 326 2381 64 2093 64 
C 1869 64 1747 230 1747 492 
C 1747 632 1773 734 1875 1156 
L 2099 2024 
C 2195 2408 2413 2689 2707 2689 
C 2720 2689 2899 2689 3034 2606 
z
" transform="scale(0.015625)"/>
      </defs>
      <use xlink:href="#CMMI12-78" transform="scale(0.996264)"/>
     </g>
    </g>
   </g>
   <g id="matplotlib.axis_2">
    <g id="text_2">
     <!-- $y$ -->
     <g transform="translate(213.008953 17.38586) scale(0.25 -0.25)">
      <defs>
       <path id="CMMI12-79" d="M 1683 -700 
C 1510 -939 1261 -1152 947 -1152 
C 870 -1152 563 -1152 467 -889 
C 486 -895 518 -895 531 -895 
C 723 -895 851 -729 851 -582 
C 851 -435 730 -384 634 -384 
C 531 -384 307 -458 307 -759 
C 307 -1071 582 -1286 947 -1286 
C 1587 -1286 2234 -700 2413 6 
L 3040 2485 
C 3046 2517 3059 2556 3059 2594 
C 3059 2689 2982 2753 2886 2753 
C 2829 2753 2694 2727 2643 2535 
L 2170 658 
C 2138 543 2138 530 2086 460 
C 1958 281 1747 64 1440 64 
C 1082 64 1050 415 1050 588 
C 1050 952 1222 1443 1395 1903 
C 1466 2088 1504 2178 1504 2305 
C 1504 2574 1312 2816 998 2816 
C 410 2816 173 1890 173 1839 
C 173 1814 198 1782 243 1782 
C 301 1782 307 1807 333 1897 
C 486 2433 730 2689 979 2689 
C 1037 2689 1146 2689 1146 2478 
C 1146 2312 1075 2127 979 1884 
C 666 1047 666 837 666 683 
C 666 77 1101 -64 1421 -64 
C 1606 -64 1837 -6 2061 230 
L 2067 224 
C 1971 -147 1907 -392 1683 -700 
z
" transform="scale(0.015625)"/>
      </defs>
      <use xlink:href="#CMMI12-79" transform="scale(0.996264)"/>
     </g>
    </g>
   </g>
   <g id="line2d_1">
    <defs>
     <path id="md9ed41a751" d="M 3 0 
L -3 -3 
L -3 3 
z
" style="stroke: #000000; stroke-linejoin: miter"/>
    </defs>
    <g>
     <use xlink:href="#md9ed41a751" x="447" y="178.515197" style="stroke: #000000; stroke-linejoin: miter"/>
    </g>
   </g>
   <g id="line2d_2">
    <defs>
     <path id="ma4289727ae" d="M 0 -3 
L -3 3 
L 3 3 
z
" style="stroke: #000000; stroke-linejoin: miter"/>
    </defs>
    <g>
     <use xlink:href="#ma4289727ae" x="228.9" y="22.230394" style="stroke: #000000; stroke-linejoin: miter"/>
    </g>
   </g>
   <g id="line2d_3">
    <path d="M 129.663708 346.6 
L 134.420619 328.434535 
L 139.080022 311.506335 
L 143.632924 295.79189 
L 148.079326 281.233848 
L 152.419227 267.776198 
L 156.652628 255.364272 
L 160.779528 243.944742 
L 164.799927 233.465623 
L 168.713825 223.876269 
L 172.521223 215.12738 
L 176.22212 207.170994 
L 179.816517 199.96049 
L 183.331038 193.402743 
L 186.739059 187.508792 
L 190.040579 182.235707 
L 193.262223 177.504476 
L 196.377367 173.318787 
L 199.412635 169.608432 
L 202.341403 166.3726 
L 205.190295 163.549496 
L 207.959311 161.112204 
L 210.675078 159.015419 
L 213.310969 157.258385 
L 215.893609 155.802533 
L 218.422999 154.631597 
L 220.899139 153.729645 
L 223.322029 153.081081 
L 225.718293 152.667291 
L 228.114558 152.479891 
L 230.484197 152.517204 
L 232.853836 152.775902 
L 235.250101 153.26264 
L 237.67299 153.984962 
L 240.122505 154.950499 
L 242.598645 156.166965 
L 245.128035 157.659178 
L 247.710676 159.443071 
L 250.373192 161.557437 
L 253.088958 164.002023 
L 255.8846 166.822249 
L 258.760117 170.044525 
L 261.71551 173.696018 
L 264.750778 177.804651 
L 267.865922 182.399099 
L 271.087566 187.553064 
L 274.389086 193.259363 
L 277.797107 199.600503 
L 281.285003 206.56441 
L 284.879399 214.242784 
L 288.580297 222.680905 
L 292.387695 231.925392 
L 296.274968 241.953465 
L 300.268742 252.876755 
L 304.369017 264.74557 
L 308.575792 277.611561 
L 312.889068 291.527719 
L 317.308845 306.548378 
L 321.835122 322.729213 
L 326.4679 340.127241 
L 328.136292 346.6 
L 328.136292 346.6 
" clip-path="url(#p22c568d294)" style="fill: none; stroke: #0072b2; stroke-width: 2.5; stroke-linecap: square"/>
   </g>
   <g id="line2d_4">
    <defs>
     <path id="m9c857e6f40" d="M 0 5 
C 1.326016 5 2.597899 4.473168 3.535534 3.535534 
C 4.473168 2.597899 5 1.326016 5 0 
C 5 -1.326016 4.473168 -2.597899 3.535534 -3.535534 
C 2.597899 -4.473168 1.326016 -5 0 -5 
C -1.326016 -5 -2.597899 -4.473168 -3.535534 -3.535534 
C -4.473168 -2.597899 -5 -1.326016 -5 0 
C -5 1.326016 -4.473168 2.597899 -3.535534 3.535534 
C -2.597899 4.473168 -1.326016 5 0 5 
z
" style="stroke: #000000; stroke-opacity: 0.8"/>
    </defs>
    <g clip-path="url(#p22c568d294)">
     <use xlink:href="#m9c857e6f40" x="192.55" y="178.515197" style="fill-opacity: 0.8; stroke: #000000; stroke-opacity: 0.8"/>
    </g>
   </g>
   <g id="line2d_5">
    <g clip-path="url(#p22c568d294)">
     <use xlink:href="#m9c857e6f40" x="265.25" y="178.515197" style="fill-opacity: 0.8; stroke: #000000; stroke-opacity: 0.8"/>
    </g>
   </g>
   <g id="patch_3">
    <path d="M 228.9 334.8 
L 228.9 22.230394 
" style="fill: none; stroke: #000000; stroke-width: 0.8; stroke-linejoin: miter; stroke-linecap: square"/>
   </g>
   <g id="patch_4">
    <path d="M 447 334.8 
L 447 22.230394 
" style="fill: none"/>
   </g>
   <g id="patch_5">
    <path d="M 10.8 178.515197 
L 447 178.515197 
" style="fill: none; stroke: #000000; stroke-width: 0.8; stroke-linejoin: miter; stroke-linecap: square"/>
   </g>
   <g id="patch_6">
    <path d="M 10.8 22.230394 
L 447 22.230394 
" style="fill: none"/>
   </g>
   <g id="text_3">
    <g id="patch_7">
     <path d="M 347.599801 77.292512 
L 364.4855 77.292512 
Q 374.4855 77.292512 374.4855 67.292512 
L 374.4855 45.151724 
Q 374.4855 35.151724 364.4855 35.151724 
L 347.599801 35.151724 
Q 337.599801 35.151724 337.599801 45.151724 
L 337.599801 67.292512 
Q 337.599801 77.292512 347.599801 77.292512 
z
" style="fill: #ffffff; opacity: 0.7; stroke: #000000; stroke-width: 1.5; stroke-linejoin: miter"/>
    </g>
    <!-- D -->
    <g transform="translate(347.599801 62.447978) scale(0.25 -0.25)">
     <defs>
      <path id="CMSS17-44" d="M 570 4416 
L 570 0 
L 2144 0 
C 3194 0 4000 980 4000 2170 
C 4000 3398 3194 4416 2144 4416 
L 570 4416 
z
M 1094 357 
L 1094 4059 
L 2003 4059 
C 2861 4059 3475 3277 3475 2170 
C 3475 1107 2867 357 2003 357 
L 1094 357 
z
" transform="scale(0.015625)"/>
     </defs>
     <use xlink:href="#CMSS17-44" transform="scale(0.996264)"/>
    </g>
   </g>
  </g>
 </g>
 <defs>
  <clipPath id="p22c568d294">
   <rect x="10.8" y="22.230394" width="436.2" height="312.569606"/>
  </clipPath>
 </defs>
</svg>
