<?xml version="1.0" encoding="utf-8" standalone="no"?>
<!DOCTYPE svg PUBLIC "-//W3C//DTD SVG 1.1//EN"
  "http://www.w3.org/Graphics/SVG/1.1/DTD/svg11.dtd">
<svg xmlns:xlink="http://www.w3.org/1999/xlink" width="460.8pt" height="345.6pt" viewBox="0 0 460.8 345.6" xmlns="http://www.w3.org/2000/svg" version="1.1">
 <metadata>
  <rdf:RDF xmlns:dc="http://purl.org/dc/elements/1.1/" xmlns:cc="http://creativecommons.org/ns#" xmlns:rdf="http://www.w3.org/1999/02/22-rdf-syntax-ns#">
   <cc:Work>
    <dc:type rdf:resource="http://purl.org/dc/dcmitype/StillImage"/>
    <dc:date>2026-03-21T17:47:26.251803</dc:date>
    <dc:format>image/svg+xml</dc:format>
    <dc:creator>
     <cc:Agent>
      <dc:title>Matplotlib v3.10.8, https://matplotlib.org/</dc:title>
     </cc:Agent>
    </dc:creator>
   </cc:Work>
  </rdf:RDF>
 </metadata>
 <defs>
  <style type="text/css">*{stroke-linejoin: round; stroke-linecap: butt}</style>
 </defs>
 <g id="figure_1">
  <g id="patch_1">
   <path d="M 0 345.6 
L 460.8 345.6 
L 460.8 0 
L 0 0 
L 0 345.6 
z
" style="fill: none"/>
  </g>
  <g id="axes_1">
   <g id="patch_2">
    <path d="M 10.8 334.8 
L 447 334.8 
L 447 20.016315 
L 10.8 20.016315 
L 10.8 334.8 
z
" style="fill: none"/>
   </g>
   <g id="matplotlib.axis_1">
    <g id="xtick_1">
     <g id="line2d_1">
      <path d="M 47.15 334.8 
L 47.15 20.016315 
" clip-path="url(#p6229348b21)" style="fill: none; stroke-dasharray: 2.96,1.28; stroke-dashoffset: 0; stroke: #b0b0b0; stroke-opacity: 0.6; stroke-width: 0.8"/>
     </g>
     <g id="line2d_2">
      <defs>
       <path id="m291a402305" d="M 0 0 
L 0 3.5 
" style="stroke: #000000; stroke-width: 0.8"/>
      </defs>
      <g>
       <use xlink:href="#m291a402305" x="47.15" y="177.408158" style="stroke: #000000; stroke-width: 0.8"/>
      </g>
     </g>
     <g id="text_1">
      <!-- $\mathdefault{−5}$ -->
      <g transform="translate(34.832209 198.245154) scale(0.2 -0.2)">
       <defs>
        <path id="CMSY10-0" d="M 4218 1472 
C 4326 1472 4442 1472 4442 1600 
C 4442 1728 4326 1728 4218 1728 
L 755 1728 
C 646 1728 531 1728 531 1600 
C 531 1472 646 1472 755 1472 
L 4218 1472 
z
" transform="scale(0.015625)"/>
        <path id="CMR17-35" d="M 730 3692 
C 794 3666 1056 3584 1325 3584 
C 1920 3584 2246 3911 2432 4100 
C 2432 4157 2432 4192 2394 4192 
C 2387 4192 2374 4192 2323 4163 
C 2099 4058 1837 3973 1517 3973 
C 1325 3973 1037 3999 723 4139 
C 653 4171 640 4171 634 4171 
C 602 4171 595 4164 595 4037 
L 595 2203 
C 595 2089 595 2057 659 2057 
C 691 2057 704 2070 736 2114 
C 941 2401 1222 2522 1542 2522 
C 1766 2522 2246 2382 2246 1289 
C 2246 1085 2246 715 2054 421 
C 1894 159 1645 25 1370 25 
C 947 25 518 320 403 814 
C 429 807 480 795 506 795 
C 589 795 749 840 749 1038 
C 749 1210 627 1280 506 1280 
C 358 1280 262 1190 262 1011 
C 262 454 704 -128 1382 -128 
C 2042 -128 2669 440 2669 1264 
C 2669 2030 2170 2624 1549 2624 
C 1222 2624 947 2503 730 2274 
L 730 3692 
z
" transform="scale(0.015625)"/>
       </defs>
       <use xlink:href="#CMSY10-0" transform="scale(0.996264)"/>
       <use xlink:href="#CMR17-35" transform="translate(77.487468 0) scale(0.996264)"/>
      </g>
     </g>
    </g>
    <g id="xtick_2">
     <g id="line2d_3">
      <path d="M 83.5 334.8 
L 83.5 20.016315 
" clip-path="url(#p6229348b21)" style="fill: none; stroke-dasharray: 2.96,1.28; stroke-dashoffset: 0; stroke: #b0b0b0; stroke-opacity: 0.6; stroke-width: 0.8"/>
     </g>
     <g id="line2d_4">
      <g>
       <use xlink:href="#m291a402305" x="83.5" y="177.408158" style="stroke: #000000; stroke-width: 0.8"/>
      </g>
     </g>
     <g id="text_2">
      <!-- $\mathdefault{−4}$ -->
      <g transform="translate(71.182209 198.245154) scale(0.2 -0.2)">
       <defs>
        <path id="CMR17-34" d="M 2150 4122 
C 2150 4256 2144 4256 2029 4256 
L 128 1254 
L 128 1088 
L 1779 1088 
L 1779 457 
C 1779 224 1766 160 1318 160 
L 1197 160 
L 1197 0 
C 1402 0 1747 0 1965 0 
C 2182 0 2528 0 2733 0 
L 2733 160 
L 2611 160 
C 2163 160 2150 224 2150 457 
L 2150 1088 
L 2803 1088 
L 2803 1254 
L 2150 1254 
L 2150 4122 
z
M 1798 3703 
L 1798 1254 
L 256 1254 
L 1798 3703 
z
" transform="scale(0.015625)"/>
       </defs>
       <use xlink:href="#CMSY10-0" transform="scale(0.996264)"/>
       <use xlink:href="#CMR17-34" transform="translate(77.487468 0) scale(0.996264)"/>
      </g>
     </g>
    </g>
    <g id="xtick_3">
     <g id="line2d_5">
      <path d="M 119.85 334.8 
L 119.85 20.016315 
" clip-path="url(#p6229348b21)" style="fill: none; stroke-dasharray: 2.96,1.28; stroke-dashoffset: 0; stroke: #b0b0b0; stroke-opacity: 0.6; stroke-width: 0.8"/>
     </g>
     <g id="line2d_6">
      <g>
       <use xlink:href="#m291a402305" x="119.85" y="177.408158" style="stroke: #000000; stroke-width: 0.8"/>
      </g>
     </g>
     <g id="text_3">
      <!-- $\mathdefault{−3}$ -->
      <g transform="translate(107.532209 198.245154) scale(0.2 -0.2)">
       <defs>
        <path id="CMR17-33" d="M 1414 2157 
C 1984 2157 2234 1662 2234 1090 
C 2234 320 1824 25 1453 25 
C 1114 25 563 194 390 693 
C 422 680 454 680 486 680 
C 640 680 755 782 755 948 
C 755 1133 614 1216 486 1216 
C 378 1216 211 1165 211 926 
C 211 335 787 -128 1466 -128 
C 2176 -128 2720 430 2720 1085 
C 2720 1707 2208 2157 1600 2227 
C 2086 2328 2554 2756 2554 3329 
C 2554 3820 2048 4179 1472 4179 
C 890 4179 378 3829 378 3329 
C 378 3110 544 3072 627 3072 
C 762 3072 877 3155 877 3321 
C 877 3486 762 3569 627 3569 
C 602 3569 570 3569 544 3557 
C 730 3959 1235 4032 1459 4032 
C 1683 4032 2106 3925 2106 3320 
C 2106 3143 2080 2828 1862 2550 
C 1670 2304 1453 2304 1242 2284 
C 1210 2284 1062 2269 1037 2269 
C 992 2263 966 2257 966 2208 
C 966 2163 973 2157 1101 2157 
L 1414 2157 
z
" transform="scale(0.015625)"/>
       </defs>
       <use xlink:href="#CMSY10-0" transform="scale(0.996264)"/>
       <use xlink:href="#CMR17-33" transform="translate(77.487468 0) scale(0.996264)"/>
      </g>
     </g>
    </g>
    <g id="xtick_4">
     <g id="line2d_7">
      <path d="M 156.2 334.8 
L 156.2 20.016315 
" clip-path="url(#p6229348b21)" style="fill: none; stroke-dasharray: 2.96,1.28; stroke-dashoffset: 0; stroke: #b0b0b0; stroke-opacity: 0.6; stroke-width: 0.8"/>
     </g>
     <g id="line2d_8">
      <g>
       <use xlink:href="#m291a402305" x="156.2" y="177.408158" style="stroke: #000000; stroke-width: 0.8"/>
      </g>
     </g>
     <g id="text_4">
      <!-- $\mathdefault{−2}$ -->
      <g transform="translate(143.882209 198.245154) scale(0.2 -0.2)">
       <defs>
        <path id="CMR17-32" d="M 2669 989 
L 2554 989 
C 2490 536 2438 459 2413 420 
C 2381 369 1920 369 1830 369 
L 602 369 
C 832 619 1280 1072 1824 1597 
C 2214 1967 2669 2402 2669 3035 
C 2669 3790 2067 4224 1395 4224 
C 691 4224 262 3604 262 3030 
C 262 2780 448 2748 525 2748 
C 589 2748 781 2787 781 3010 
C 781 3207 614 3264 525 3264 
C 486 3264 448 3258 422 3245 
C 544 3790 915 4058 1306 4058 
C 1862 4058 2227 3617 2227 3035 
C 2227 2479 1901 2000 1536 1584 
L 262 146 
L 262 0 
L 2515 0 
L 2669 989 
z
" transform="scale(0.015625)"/>
       </defs>
       <use xlink:href="#CMSY10-0" transform="scale(0.996264)"/>
       <use xlink:href="#CMR17-32" transform="translate(77.487468 0) scale(0.996264)"/>
      </g>
     </g>
    </g>
    <g id="xtick_5">
     <g id="line2d_9">
      <path d="M 192.55 334.8 
L 192.55 20.016315 
" clip-path="url(#p6229348b21)" style="fill: none; stroke-dasharray: 2.96,1.28; stroke-dashoffset: 0; stroke: #b0b0b0; stroke-opacity: 0.6; stroke-width: 0.8"/>
     </g>
     <g id="line2d_10">
      <g>
       <use xlink:href="#m291a402305" x="192.55" y="177.408158" style="stroke: #000000; stroke-width: 0.8"/>
      </g>
     </g>
     <g id="text_5">
      <!-- $\mathdefault{−1}$ -->
      <g transform="translate(180.232209 198.245154) scale(0.2 -0.2)">
       <defs>
        <path id="CMR17-31" d="M 1702 4058 
C 1702 4192 1696 4192 1606 4192 
C 1357 3916 979 3827 621 3827 
C 602 3827 570 3827 563 3808 
C 557 3795 557 3782 557 3648 
C 755 3648 1088 3686 1344 3839 
L 1344 461 
C 1344 236 1331 160 781 160 
L 589 160 
L 589 0 
C 896 0 1216 0 1523 0 
C 1830 0 2150 0 2458 0 
L 2458 160 
L 2266 160 
C 1715 160 1702 230 1702 458 
L 1702 4058 
z
" transform="scale(0.015625)"/>
       </defs>
       <use xlink:href="#CMSY10-0" transform="scale(0.996264)"/>
       <use xlink:href="#CMR17-31" transform="translate(77.487468 0) scale(0.996264)"/>
      </g>
     </g>
    </g>
    <g id="xtick_6">
     <g id="line2d_11">
      <path d="M 265.25 334.8 
L 265.25 20.016315 
" clip-path="url(#p6229348b21)" style="fill: none; stroke-dasharray: 2.96,1.28; stroke-dashoffset: 0; stroke: #b0b0b0; stroke-opacity: 0.6; stroke-width: 0.8"/>
     </g>
     <g id="line2d_12">
      <g>
       <use xlink:href="#m291a402305" x="265.25" y="177.408158" style="stroke: #000000; stroke-width: 0.8"/>
      </g>
     </g>
     <g id="text_6">
      <!-- $\mathdefault{1}$ -->
      <g transform="translate(260.680952 198.245154) scale(0.2 -0.2)">
       <use xlink:href="#CMR17-31" transform="scale(0.996264)"/>
      </g>
     </g>
    </g>
    <g id="xtick_7">
     <g id="line2d_13">
      <path d="M 301.6 334.8 
L 301.6 20.016315 
" clip-path="url(#p6229348b21)" style="fill: none; stroke-dasharray: 2.96,1.28; stroke-dashoffset: 0; stroke: #b0b0b0; stroke-opacity: 0.6; stroke-width: 0.8"/>
     </g>
     <g id="line2d_14">
      <g>
       <use xlink:href="#m291a402305" x="301.6" y="177.408158" style="stroke: #000000; stroke-width: 0.8"/>
      </g>
     </g>
     <g id="text_7">
      <!-- $\mathdefault{2}$ -->
      <g transform="translate(297.030952 198.245154) scale(0.2 -0.2)">
       <use xlink:href="#CMR17-32" transform="scale(0.996264)"/>
      </g>
     </g>
    </g>
    <g id="xtick_8">
     <g id="line2d_15">
      <path d="M 337.95 334.8 
L 337.95 20.016315 
" clip-path="url(#p6229348b21)" style="fill: none; stroke-dasharray: 2.96,1.28; stroke-dashoffset: 0; stroke: #b0b0b0; stroke-opacity: 0.6; stroke-width: 0.8"/>
     </g>
     <g id="line2d_16">
      <g>
       <use xlink:href="#m291a402305" x="337.95" y="177.408158" style="stroke: #000000; stroke-width: 0.8"/>
      </g>
     </g>
     <g id="text_8">
      <!-- $\mathdefault{3}$ -->
      <g transform="translate(333.380952 198.245154) scale(0.2 -0.2)">
       <use xlink:href="#CMR17-33" transform="scale(0.996264)"/>
      </g>
     </g>
    </g>
    <g id="xtick_9">
     <g id="line2d_17">
      <path d="M 374.3 334.8 
L 374.3 20.016315 
" clip-path="url(#p6229348b21)" style="fill: none; stroke-dasharray: 2.96,1.28; stroke-dashoffset: 0; stroke: #b0b0b0; stroke-opacity: 0.6; stroke-width: 0.8"/>
     </g>
     <g id="line2d_18">
      <g>
       <use xlink:href="#m291a402305" x="374.3" y="177.408158" style="stroke: #000000; stroke-width: 0.8"/>
      </g>
     </g>
     <g id="text_9">
      <!-- $\mathdefault{4}$ -->
      <g transform="translate(369.730952 198.245154) scale(0.2 -0.2)">
       <use xlink:href="#CMR17-34" transform="scale(0.996264)"/>
      </g>
     </g>
    </g>
    <g id="xtick_10">
     <g id="line2d_19">
      <path d="M 410.65 334.8 
L 410.65 20.016315 
" clip-path="url(#p6229348b21)" style="fill: none; stroke-dasharray: 2.96,1.28; stroke-dashoffset: 0; stroke: #b0b0b0; stroke-opacity: 0.6; stroke-width: 0.8"/>
     </g>
     <g id="line2d_20">
      <g>
       <use xlink:href="#m291a402305" x="410.65" y="177.408158" style="stroke: #000000; stroke-width: 0.8"/>
      </g>
     </g>
     <g id="text_10">
      <!-- $\mathdefault{5}$ -->
      <g transform="translate(406.080952 198.245154) scale(0.2 -0.2)">
       <use xlink:href="#CMR17-35" transform="scale(0.996264)"/>
      </g>
     </g>
    </g>
    <g id="text_11">
     <!-- $x$ -->
     <g transform="translate(435.913188 219.957785) scale(0.2 -0.2)">
      <defs>
       <path id="CMMI12-78" d="M 3034 2606 
C 2829 2567 2752 2414 2752 2293 
C 2752 2139 2874 2088 2963 2088 
C 3155 2088 3290 2254 3290 2427 
C 3290 2695 2982 2816 2714 2816 
C 2323 2816 2106 2433 2048 2312 
C 1901 2816 1504 2816 1389 2816 
C 736 2816 390 1980 390 1839 
C 390 1814 416 1782 461 1782 
C 512 1782 525 1820 538 1846 
C 755 2555 1184 2689 1370 2689 
C 1658 2689 1715 2420 1715 2267 
C 1715 2127 1677 1980 1600 1673 
L 1382 798 
C 1286 415 1101 64 762 64 
C 730 64 570 64 435 147 
C 666 192 717 383 717 460 
C 717 588 621 664 499 664 
C 346 664 179 530 179 326 
C 179 57 480 -64 755 -64 
C 1062 -64 1280 179 1414 441 
C 1517 64 1837 -64 2074 -64 
C 2726 -64 3072 773 3072 913 
C 3072 945 3046 971 3008 971 
C 2950 971 2944 939 2925 888 
C 2752 326 2381 64 2093 64 
C 1869 64 1747 230 1747 492 
C 1747 632 1773 734 1875 1156 
L 2099 2024 
C 2195 2408 2413 2689 2707 2689 
C 2720 2689 2899 2689 3034 2606 
z
" transform="scale(0.015625)"/>
      </defs>
      <use xlink:href="#CMMI12-78" transform="scale(0.996264)"/>
     </g>
    </g>
   </g>
   <g id="matplotlib.axis_2">
    <g id="ytick_1">
     <g id="line2d_21">
      <path d="M 10.8 308.568026 
L 447 308.568026 
" clip-path="url(#p6229348b21)" style="fill: none; stroke-dasharray: 2.96,1.28; stroke-dashoffset: 0; stroke: #b0b0b0; stroke-opacity: 0.6; stroke-width: 0.8"/>
     </g>
     <g id="line2d_22">
      <defs>
       <path id="maefc3e0d07" d="M 0 0 
L -3.5 0 
" style="stroke: #000000; stroke-width: 0.8"/>
      </defs>
      <g>
       <use xlink:href="#maefc3e0d07" x="228.9" y="308.568026" style="stroke: #000000; stroke-width: 0.8"/>
      </g>
     </g>
     <g id="text_12">
      <!-- $\mathdefault{−5}$ -->
      <g transform="translate(197.264417 315.486525) scale(0.2 -0.2)">
       <use xlink:href="#CMSY10-0" transform="scale(0.996264)"/>
       <use xlink:href="#CMR17-35" transform="translate(77.487468 0) scale(0.996264)"/>
      </g>
     </g>
    </g>
    <g id="ytick_2">
     <g id="line2d_23">
      <path d="M 10.8 282.336053 
L 447 282.336053 
" clip-path="url(#p6229348b21)" style="fill: none; stroke-dasharray: 2.96,1.28; stroke-dashoffset: 0; stroke: #b0b0b0; stroke-opacity: 0.6; stroke-width: 0.8"/>
     </g>
     <g id="line2d_24">
      <g>
       <use xlink:href="#maefc3e0d07" x="228.9" y="282.336053" style="stroke: #000000; stroke-width: 0.8"/>
      </g>
     </g>
     <g id="text_13">
      <!-- $\mathdefault{−4}$ -->
      <g transform="translate(197.264417 289.254551) scale(0.2 -0.2)">
       <use xlink:href="#CMSY10-0" transform="scale(0.996264)"/>
       <use xlink:href="#CMR17-34" transform="translate(77.487468 0) scale(0.996264)"/>
      </g>
     </g>
    </g>
    <g id="ytick_3">
     <g id="line2d_25">
      <path d="M 10.8 256.104079 
L 447 256.104079 
" clip-path="url(#p6229348b21)" style="fill: none; stroke-dasharray: 2.96,1.28; stroke-dashoffset: 0; stroke: #b0b0b0; stroke-opacity: 0.6; stroke-width: 0.8"/>
     </g>
     <g id="line2d_26">
      <g>
       <use xlink:href="#maefc3e0d07" x="228.9" y="256.104079" style="stroke: #000000; stroke-width: 0.8"/>
      </g>
     </g>
     <g id="text_14">
      <!-- $\mathdefault{−3}$ -->
      <g transform="translate(197.264417 263.022577) scale(0.2 -0.2)">
       <use xlink:href="#CMSY10-0" transform="scale(0.996264)"/>
       <use xlink:href="#CMR17-33" transform="translate(77.487468 0) scale(0.996264)"/>
      </g>
     </g>
    </g>
    <g id="ytick_4">
     <g id="line2d_27">
      <path d="M 10.8 229.872105 
L 447 229.872105 
" clip-path="url(#p6229348b21)" style="fill: none; stroke-dasharray: 2.96,1.28; stroke-dashoffset: 0; stroke: #b0b0b0; stroke-opacity: 0.6; stroke-width: 0.8"/>
     </g>
     <g id="line2d_28">
      <g>
       <use xlink:href="#maefc3e0d07" x="228.9" y="229.872105" style="stroke: #000000; stroke-width: 0.8"/>
      </g>
     </g>
     <g id="text_15">
      <!-- $\mathdefault{−2}$ -->
      <g transform="translate(197.264417 236.790603) scale(0.2 -0.2)">
       <use xlink:href="#CMSY10-0" transform="scale(0.996264)"/>
       <use xlink:href="#CMR17-32" transform="translate(77.487468 0) scale(0.996264)"/>
      </g>
     </g>
    </g>
    <g id="ytick_5">
     <g id="line2d_29">
      <path d="M 10.8 203.640131 
L 447 203.640131 
" clip-path="url(#p6229348b21)" style="fill: none; stroke-dasharray: 2.96,1.28; stroke-dashoffset: 0; stroke: #b0b0b0; stroke-opacity: 0.6; stroke-width: 0.8"/>
     </g>
     <g id="line2d_30">
      <g>
       <use xlink:href="#maefc3e0d07" x="228.9" y="203.640131" style="stroke: #000000; stroke-width: 0.8"/>
      </g>
     </g>
     <g id="text_16">
      <!-- $\mathdefault{−1}$ -->
      <g transform="translate(197.264417 210.55863) scale(0.2 -0.2)">
       <use xlink:href="#CMSY10-0" transform="scale(0.996264)"/>
       <use xlink:href="#CMR17-31" transform="translate(77.487468 0) scale(0.996264)"/>
      </g>
     </g>
    </g>
    <g id="ytick_6">
     <g id="line2d_31">
      <path d="M 10.8 151.176184 
L 447 151.176184 
" clip-path="url(#p6229348b21)" style="fill: none; stroke-dasharray: 2.96,1.28; stroke-dashoffset: 0; stroke: #b0b0b0; stroke-opacity: 0.6; stroke-width: 0.8"/>
     </g>
     <g id="line2d_32">
      <g>
       <use xlink:href="#maefc3e0d07" x="228.9" y="151.176184" style="stroke: #000000; stroke-width: 0.8"/>
      </g>
     </g>
     <g id="text_17">
      <!-- $\mathdefault{1}$ -->
      <g transform="translate(212.761905 158.094682) scale(0.2 -0.2)">
       <use xlink:href="#CMR17-31" transform="scale(0.996264)"/>
      </g>
     </g>
    </g>
    <g id="ytick_7">
     <g id="line2d_33">
      <path d="M 10.8 124.94421 
L 447 124.94421 
" clip-path="url(#p6229348b21)" style="fill: none; stroke-dasharray: 2.96,1.28; stroke-dashoffset: 0; stroke: #b0b0b0; stroke-opacity: 0.6; stroke-width: 0.8"/>
     </g>
     <g id="line2d_34">
      <g>
       <use xlink:href="#maefc3e0d07" x="228.9" y="124.94421" style="stroke: #000000; stroke-width: 0.8"/>
      </g>
     </g>
     <g id="text_18">
      <!-- $\mathdefault{2}$ -->
      <g transform="translate(212.761905 131.862709) scale(0.2 -0.2)">
       <use xlink:href="#CMR17-32" transform="scale(0.996264)"/>
      </g>
     </g>
    </g>
    <g id="ytick_8">
     <g id="line2d_35">
      <path d="M 10.8 98.712236 
L 447 98.712236 
" clip-path="url(#p6229348b21)" style="fill: none; stroke-dasharray: 2.96,1.28; stroke-dashoffset: 0; stroke: #b0b0b0; stroke-opacity: 0.6; stroke-width: 0.8"/>
     </g>
     <g id="line2d_36">
      <g>
       <use xlink:href="#maefc3e0d07" x="228.9" y="98.712236" style="stroke: #000000; stroke-width: 0.8"/>
      </g>
     </g>
     <g id="text_19">
      <!-- $\mathdefault{3}$ -->
      <g transform="translate(212.761905 105.630735) scale(0.2 -0.2)">
       <use xlink:href="#CMR17-33" transform="scale(0.996264)"/>
      </g>
     </g>
    </g>
    <g id="ytick_9">
     <g id="line2d_37">
      <path d="M 10.8 72.480263 
L 447 72.480263 
" clip-path="url(#p6229348b21)" style="fill: none; stroke-dasharray: 2.96,1.28; stroke-dashoffset: 0; stroke: #b0b0b0; stroke-opacity: 0.6; stroke-width: 0.8"/>
     </g>
     <g id="line2d_38">
      <g>
       <use xlink:href="#maefc3e0d07" x="228.9" y="72.480263" style="stroke: #000000; stroke-width: 0.8"/>
      </g>
     </g>
     <g id="text_20">
      <!-- $\mathdefault{4}$ -->
      <g transform="translate(212.761905 79.398761) scale(0.2 -0.2)">
       <use xlink:href="#CMR17-34" transform="scale(0.996264)"/>
      </g>
     </g>
    </g>
    <g id="ytick_10">
     <g id="line2d_39">
      <path d="M 10.8 46.248289 
L 447 46.248289 
" clip-path="url(#p6229348b21)" style="fill: none; stroke-dasharray: 2.96,1.28; stroke-dashoffset: 0; stroke: #b0b0b0; stroke-opacity: 0.6; stroke-width: 0.8"/>
     </g>
     <g id="line2d_40">
      <g>
       <use xlink:href="#maefc3e0d07" x="228.9" y="46.248289" style="stroke: #000000; stroke-width: 0.8"/>
      </g>
     </g>
     <g id="text_21">
      <!-- $\mathdefault{5}$ -->
      <g transform="translate(212.761905 53.166787) scale(0.2 -0.2)">
       <use xlink:href="#CMR17-35" transform="scale(0.996264)"/>
      </g>
     </g>
    </g>
    <g id="text_22">
     <!-- $y$ -->
     <g transform="translate(183.751583 16.140682) scale(0.2 -0.2)">
      <defs>
       <path id="CMMI12-79" d="M 1683 -700 
C 1510 -939 1261 -1152 947 -1152 
C 870 -1152 563 -1152 467 -889 
C 486 -895 518 -895 531 -895 
C 723 -895 851 -729 851 -582 
C 851 -435 730 -384 634 -384 
C 531 -384 307 -458 307 -759 
C 307 -1071 582 -1286 947 -1286 
C 1587 -1286 2234 -700 2413 6 
L 3040 2485 
C 3046 2517 3059 2556 3059 2594 
C 3059 2689 2982 2753 2886 2753 
C 2829 2753 2694 2727 2643 2535 
L 2170 658 
C 2138 543 2138 530 2086 460 
C 1958 281 1747 64 1440 64 
C 1082 64 1050 415 1050 588 
C 1050 952 1222 1443 1395 1903 
C 1466 2088 1504 2178 1504 2305 
C 1504 2574 1312 2816 998 2816 
C 410 2816 173 1890 173 1839 
C 173 1814 198 1782 243 1782 
C 301 1782 307 1807 333 1897 
C 486 2433 730 2689 979 2689 
C 1037 2689 1146 2689 1146 2478 
C 1146 2312 1075 2127 979 1884 
C 666 1047 666 837 666 683 
C 666 77 1101 -64 1421 -64 
C 1606 -64 1837 -6 2061 230 
L 2067 224 
C 1971 -147 1907 -392 1683 -700 
z
" transform="scale(0.015625)"/>
      </defs>
      <use xlink:href="#CMMI12-79" transform="scale(0.996264)"/>
     </g>
    </g>
   </g>
   <g id="line2d_41">
    <defs>
     <path id="m7cdd976a2c" d="M 3 0 
L -3 -3 
L -3 3 
z
" style="stroke: #000000; stroke-linejoin: miter"/>
    </defs>
    <g>
     <use xlink:href="#m7cdd976a2c" x="447" y="177.408158" style="stroke: #000000; stroke-linejoin: miter"/>
    </g>
   </g>
   <g id="line2d_42">
    <defs>
     <path id="m7e1185215a" d="M 0 -3 
L -3 3 
L 3 3 
z
" style="stroke: #000000; stroke-linejoin: miter"/>
    </defs>
    <g>
     <use xlink:href="#m7e1185215a" x="228.9" y="20.016315" style="stroke: #000000; stroke-linejoin: miter"/>
    </g>
   </g>
   <g id="line2d_43">
    <path d="M 228.9 177.408158 
L 337.95 177.408158 
" clip-path="url(#p6229348b21)" style="fill: none; stroke: #0072b2; stroke-width: 3; stroke-linecap: square"/>
   </g>
   <g id="line2d_44">
    <path d="M 337.95 177.408158 
L 180.549883 111.828223 
" clip-path="url(#p6229348b21)" style="fill: none; stroke: #0072b2; stroke-width: 3; stroke-linecap: square"/>
   </g>
   <g id="line2d_45">
    <path d="M 180.549883 111.828223 
L 228.9 177.408158 
" clip-path="url(#p6229348b21)" style="fill: none; stroke: #0072b2; stroke-width: 3; stroke-linecap: square"/>
   </g>
   <g id="line2d_46">
    <path d="M 189.095163 123.418659 
L 189.225184 123.321663 
L 189.354105 123.223208 
L 189.481908 123.123308 
L 189.608577 123.021974 
L 189.734097 122.91922 
L 189.858452 122.815058 
L 189.981626 122.709502 
L 190.103602 122.602565 
L 190.224366 122.494261 
L 190.343903 122.384604 
L 190.462196 122.273607 
L 190.579232 122.161284 
L 190.694995 122.04765 
L 190.809471 121.93272 
L 190.922645 121.816507 
L 191.034502 121.699026 
L 191.145029 121.580293 
L 191.254212 121.460323 
L 191.362036 121.33913 
L 191.468488 121.21673 
L 191.573554 121.093139 
L 191.677222 120.968372 
L 191.779478 120.842446 
L 191.880308 120.715375 
L 191.979701 120.587177 
L 192.077643 120.457867 
L 192.174122 120.327462 
L 192.269127 120.195978 
L 192.362644 120.063433 
L 192.454662 119.929842 
L 192.54517 119.795224 
L 192.634155 119.659594 
L 192.721607 119.522971 
L 192.807514 119.385371 
L 192.891865 119.246812 
L 192.974651 119.107312 
L 193.05586 118.966888 
L 193.135482 118.825559 
L 193.213506 118.683341 
L 193.289924 118.540253 
L 193.364725 118.396314 
L 193.4379 118.251541 
L 193.509439 118.105953 
L 193.579334 117.959568 
L 193.647576 117.812406 
L 193.714155 117.664484 
L 193.779064 117.515821 
L 193.842294 117.366437 
" clip-path="url(#p6229348b21)" style="fill: none; stroke: #dc5e8b; stroke-width: 2.4; stroke-linecap: square"/>
   </g>
   <g id="patch_3">
    <path d="M 228.9 334.8 
L 228.9 20.016315 
" style="fill: none; stroke: #000000; stroke-width: 0.8; stroke-linejoin: miter; stroke-linecap: square"/>
   </g>
   <g id="patch_4">
    <path d="M 447 334.8 
L 447 20.016315 
" style="fill: none"/>
   </g>
   <g id="patch_5">
    <path d="M 10.8 177.408158 
L 447 177.408158 
" style="fill: none; stroke: #000000; stroke-width: 0.8; stroke-linejoin: miter; stroke-linecap: square"/>
   </g>
   <g id="patch_6">
    <path d="M 10.8 20.016315 
L 447 20.016315 
" style="fill: none"/>
   </g>
   <g id="text_23">
    <!-- $3$ -->
    <g transform="translate(279.312857 190.530776) scale(0.18 -0.18)">
     <use xlink:href="#CMR17-33" transform="scale(0.996264)"/>
    </g>
   </g>
   <g id="text_24">
    <!-- $A$ -->
    <g transform="translate(218.422929 189.602725) scale(0.18 -0.18)">
     <defs>
      <path id="CMMI12-41" d="M 1088 691 
C 864 314 646 186 339 186 
C 269 180 218 180 218 58 
C 218 24 250 0 294 0 
C 410 0 698 0 813 0 
C 998 0 1203 0 1382 0 
C 1421 0 1498 0 1498 122 
C 1498 180 1446 186 1408 186 
C 1261 186 1139 236 1139 388 
C 1139 476 1178 546 1261 685 
L 1747 1479 
L 3379 1479 
C 3386 1423 3386 1373 3392 1316 
C 3411 1152 3488 495 3488 376 
C 3488 186 3162 186 3059 186 
C 2989 186 2918 186 2918 70 
C 2918 0 2976 0 3014 0 
C 3123 0 3251 0 3360 0 
L 3725 0 
C 4115 0 4397 0 4403 0 
C 4448 0 4518 0 4518 122 
C 4518 186 4461 186 4365 186 
C 4013 186 4006 244 3987 434 
L 3597 4404 
C 3584 4531 3558 4544 3488 4544 
C 3424 4544 3386 4531 3328 4435 
L 1088 691 
z
M 1856 1664 
L 3142 3819 
L 3360 1664 
L 1856 1664 
z
" transform="scale(0.015625)"/>
     </defs>
     <use xlink:href="#CMMI12-41" transform="scale(0.996264)"/>
    </g>
   </g>
   <g id="text_25">
    <!-- $B$ -->
    <g transform="translate(339.752512 183.58514) scale(0.18 -0.18)">
     <defs>
      <path id="CMMI12-42" d="M 2342 3921 
C 2400 4160 2426 4160 2675 4160 
L 3507 4160 
C 4230 4160 4230 3544 4230 3485 
C 4230 2966 3712 2304 2867 2304 
L 1946 2304 
L 2342 3921 
z
M 3424 2275 
C 4122 2402 4755 2886 4755 3473 
C 4755 3970 4314 4352 3590 4352 
L 1536 4352 
C 1414 4352 1357 4352 1357 4226 
C 1357 4160 1414 4160 1510 4160 
C 1901 4160 1901 4112 1901 4044 
C 1901 4032 1901 3993 1875 3897 
L 1011 472 
C 954 249 941 185 493 185 
C 371 185 307 185 307 70 
C 307 0 346 0 474 0 
L 2669 0 
C 3648 0 4403 739 4403 1383 
C 4403 1906 3942 2224 3424 2275 
z
M 2515 185 
L 1651 185 
C 1562 185 1549 185 1510 192 
C 1440 198 1434 211 1434 261 
C 1434 305 1446 343 1459 399 
L 1907 2176 
L 3110 2176 
C 3866 2176 3866 1483 3866 1433 
C 3866 828 3309 185 2515 185 
z
" transform="scale(0.015625)"/>
     </defs>
     <use xlink:href="#CMMI12-42" transform="scale(0.996264)"/>
    </g>
   </g>
   <g id="text_26">
    <!-- $C$ -->
    <g transform="translate(167.47035 110.97855) scale(0.18 -0.18)">
     <defs>
      <path id="CMMI12-43" d="M 4781 4423 
C 4781 4480 4736 4480 4723 4480 
C 4710 4480 4685 4480 4634 4416 
L 4192 3882 
C 3968 4264 3616 4480 3136 4480 
C 1754 4480 320 3088 320 1595 
C 320 533 1069 -128 2003 -128 
C 2515 -128 2963 88 3334 400 
C 3891 863 4058 1481 4058 1531 
C 4058 1588 4006 1588 3987 1588 
C 3930 1588 3923 1550 3910 1524 
C 3616 534 2752 57 2112 57 
C 1434 57 845 489 845 1391 
C 845 1595 909 2700 1632 3532 
C 1984 3939 2586 4295 3194 4295 
C 3898 4295 4211 3717 4211 3068 
C 4211 2903 4192 2764 4192 2738 
C 4192 2681 4256 2681 4275 2681 
C 4346 2681 4352 2687 4378 2801 
L 4781 4423 
z
" transform="scale(0.015625)"/>
     </defs>
     <use xlink:href="#CMMI12-43" transform="scale(0.996264)"/>
    </g>
   </g>
   <g id="text_27">
    <!-- $31.9848^\circ$ -->
    <g transform="translate(167.295692 129.641569) scale(0.18 -0.18)">
     <defs>
      <path id="CMMI12-3a" d="M 1178 307 
C 1178 492 1024 619 870 619 
C 685 619 557 466 557 313 
C 557 128 710 0 864 0 
C 1050 0 1178 153 1178 307 
z
" transform="scale(0.015625)"/>
      <path id="CMR17-39" d="M 2253 1864 
C 2253 464 1670 31 1190 31 
C 1043 31 685 31 538 294 
C 704 268 826 357 826 518 
C 826 692 685 749 595 749 
C 538 749 365 723 365 506 
C 365 71 742 -128 1203 -128 
C 1939 -128 2688 674 2688 2073 
C 2688 3817 1971 4179 1485 4179 
C 851 4179 243 3628 243 2778 
C 243 1991 762 1408 1414 1408 
C 1952 1408 2189 1903 2253 2112 
L 2253 1864 
z
M 1427 1510 
C 1254 1510 1011 1542 813 1922 
C 678 2169 678 2461 678 2771 
C 678 3146 678 3405 858 3684 
C 947 3817 1114 4032 1485 4032 
C 2240 4032 2240 2885 2240 2632 
C 2240 2182 2035 1510 1427 1510 
z
" transform="scale(0.015625)"/>
      <path id="CMR17-38" d="M 1741 2264 
C 2144 2467 2554 2773 2554 3263 
C 2554 3841 1990 4179 1472 4179 
C 890 4179 378 3759 378 3180 
C 378 3021 416 2747 666 2505 
C 730 2442 998 2251 1171 2130 
C 883 1983 211 1634 211 934 
C 211 279 838 -128 1459 -128 
C 2144 -128 2720 362 2720 1010 
C 2720 1590 2330 1857 2074 2029 
L 1741 2264 
z
M 902 2822 
C 851 2854 595 3051 595 3351 
C 595 3739 998 4032 1459 4032 
C 1965 4032 2336 3676 2336 3262 
C 2336 2669 1670 2331 1638 2331 
C 1632 2331 1626 2331 1574 2370 
L 902 2822 
z
M 2080 1519 
C 2176 1449 2483 1240 2483 851 
C 2483 381 2010 25 1472 25 
C 890 25 448 438 448 940 
C 448 1443 838 1862 1280 2060 
L 2080 1519 
z
" transform="scale(0.015625)"/>
      <path id="CMSY10-e" d="M 2842 1600 
C 2842 2277 2272 2828 1600 2828 
C 909 2828 352 2264 352 1600 
C 352 930 909 372 1600 372 
C 2272 372 2842 923 2842 1600 
z
M 1600 628 
C 1043 628 608 1070 608 1600 
C 608 2130 1050 2572 1600 2572 
C 2131 2572 2586 2142 2586 1600 
C 2586 1058 2131 628 1600 628 
z
" transform="scale(0.015625)"/>
     </defs>
     <use xlink:href="#CMR17-33" transform="scale(0.996264)"/>
     <use xlink:href="#CMR17-31" transform="translate(45.690477 0) scale(0.996264)"/>
     <use xlink:href="#CMMI12-3a" transform="translate(91.380954 0) scale(0.996264)"/>
     <use xlink:href="#CMR17-39" transform="translate(118.478131 0) scale(0.996264)"/>
     <use xlink:href="#CMR17-38" transform="translate(164.168608 0) scale(0.996264)"/>
     <use xlink:href="#CMR17-34" transform="translate(209.859086 0) scale(0.996264)"/>
     <use xlink:href="#CMR17-38" transform="translate(255.549563 0) scale(0.996264)"/>
     <use xlink:href="#CMSY10-e" transform="translate(301.24004 36.153639) scale(0.697382)"/>
    </g>
   </g>
  </g>
 </g>
 <defs>
  <clipPath id="p6229348b21">
   <rect x="10.8" y="20.016315" width="436.2" height="314.783685"/>
  </clipPath>
 </defs>
</svg>
