<?xml version="1.0" encoding="utf-8" standalone="no"?>
<!DOCTYPE svg PUBLIC "-//W3C//DTD SVG 1.1//EN"
  "http://www.w3.org/Graphics/SVG/1.1/DTD/svg11.dtd">
<svg xmlns:xlink="http://www.w3.org/1999/xlink" width="460.8pt" height="345.6pt" viewBox="0 0 460.8 345.6" xmlns="http://www.w3.org/2000/svg" version="1.1">
 <metadata>
  <rdf:RDF xmlns:dc="http://purl.org/dc/elements/1.1/" xmlns:cc="http://creativecommons.org/ns#" xmlns:rdf="http://www.w3.org/1999/02/22-rdf-syntax-ns#">
   <cc:Work>
    <dc:type rdf:resource="http://purl.org/dc/dcmitype/StillImage"/>
    <dc:date>2026-01-26T09:50:51.919126</dc:date>
    <dc:format>image/svg+xml</dc:format>
    <dc:creator>
     <cc:Agent>
      <dc:title>Matplotlib v3.9.1, https://matplotlib.org/</dc:title>
     </cc:Agent>
    </dc:creator>
   </cc:Work>
  </rdf:RDF>
 </metadata>
 <defs>
  <style type="text/css">*{stroke-linejoin: round; stroke-linecap: butt}</style>
 </defs>
 <g id="figure_1">
  <g id="patch_1">
   <path d="M 0 345.6 
L 460.8 345.6 
L 460.8 0 
L 0 0 
L 0 345.6 
z
" style="fill: none"/>
  </g>
  <g id="axes_1">
   <g id="patch_2">
    <path d="M 10.8 334.8 
L 447 334.8 
L 447 72.120263 
L 10.8 72.120263 
L 10.8 334.8 
z
" style="fill: none"/>
   </g>
   <g id="matplotlib.axis_1">
    <g id="text_1">
     <!-- $x$ -->
     <g transform="translate(435.913188 221.297128) scale(0.2 -0.2)">
      <defs>
       <path id="CMMI12-78" d="M 3034 2606 
C 2829 2567 2752 2414 2752 2293 
C 2752 2139 2874 2088 2963 2088 
C 3155 2088 3290 2254 3290 2427 
C 3290 2695 2982 2816 2714 2816 
C 2323 2816 2106 2433 2048 2312 
C 1901 2816 1504 2816 1389 2816 
C 736 2816 390 1980 390 1839 
C 390 1814 416 1782 461 1782 
C 512 1782 525 1820 538 1846 
C 755 2555 1184 2689 1370 2689 
C 1658 2689 1715 2420 1715 2267 
C 1715 2127 1677 1980 1600 1673 
L 1382 798 
C 1286 415 1101 64 762 64 
C 730 64 570 64 435 147 
C 666 192 717 383 717 460 
C 717 588 621 664 499 664 
C 346 664 179 530 179 326 
C 179 57 480 -64 755 -64 
C 1062 -64 1280 179 1414 441 
C 1517 64 1837 -64 2074 -64 
C 2726 -64 3072 773 3072 913 
C 3072 945 3046 971 3008 971 
C 2950 971 2944 939 2925 888 
C 2752 326 2381 64 2093 64 
C 1869 64 1747 230 1747 492 
C 1747 632 1773 734 1875 1156 
L 2099 2024 
C 2195 2408 2413 2689 2707 2689 
C 2720 2689 2899 2689 3034 2606 
z
" transform="scale(0.015625)"/>
      </defs>
      <use xlink:href="#CMMI12-78" transform="scale(0.996264)"/>
     </g>
    </g>
   </g>
   <g id="matplotlib.axis_2">
    <g id="text_2">
     <!-- $y$ -->
     <g transform="translate(215.387165 68.244629) scale(0.2 -0.2)">
      <defs>
       <path id="CMMI12-79" d="M 1683 -700 
C 1510 -939 1261 -1152 947 -1152 
C 870 -1152 563 -1152 467 -889 
C 486 -895 518 -895 531 -895 
C 723 -895 851 -729 851 -582 
C 851 -435 730 -384 634 -384 
C 531 -384 307 -458 307 -759 
C 307 -1071 582 -1286 947 -1286 
C 1587 -1286 2234 -700 2413 6 
L 3040 2485 
C 3046 2517 3059 2556 3059 2594 
C 3059 2689 2982 2753 2886 2753 
C 2829 2753 2694 2727 2643 2535 
L 2170 658 
C 2138 543 2138 530 2086 460 
C 1958 281 1747 64 1440 64 
C 1082 64 1050 415 1050 588 
C 1050 952 1222 1443 1395 1903 
C 1466 2088 1504 2178 1504 2305 
C 1504 2574 1312 2816 998 2816 
C 410 2816 173 1890 173 1839 
C 173 1814 198 1782 243 1782 
C 301 1782 307 1807 333 1897 
C 486 2433 730 2689 979 2689 
C 1037 2689 1146 2689 1146 2478 
C 1146 2312 1075 2127 979 1884 
C 666 1047 666 837 666 683 
C 666 77 1101 -64 1421 -64 
C 1606 -64 1837 -6 2061 230 
L 2067 224 
C 1971 -147 1907 -392 1683 -700 
z
" transform="scale(0.015625)"/>
      </defs>
      <use xlink:href="#CMMI12-79" transform="scale(0.996264)"/>
     </g>
    </g>
   </g>
   <g id="line2d_1">
    <defs>
     <path id="mfa34d36ed2" d="M 3 0 
L -3 -3 
L -3 3 
z
" style="stroke: #000000; stroke-linejoin: miter"/>
    </defs>
    <g>
     <use xlink:href="#mfa34d36ed2" x="447" y="203.460131" style="stroke: #000000; stroke-linejoin: miter"/>
    </g>
   </g>
   <g id="line2d_2">
    <defs>
     <path id="m050b8a813b" d="M 0 -3 
L -3 3 
L 3 3 
z
" style="stroke: #000000; stroke-linejoin: miter"/>
    </defs>
    <g>
     <use xlink:href="#m050b8a813b" x="228.9" y="72.120263" style="stroke: #000000; stroke-linejoin: miter"/>
    </g>
   </g>
   <g id="line2d_3">
    <path d="M 10.8 197.784952 
L 21.52994 199.066632 
L 30.795495 200.391614 
L 38.862919 201.764681 
L 45.918586 203.186295 
L 52.122249 204.658436 
L 57.607032 206.18403 
L 62.479436 207.765517 
L 66.845962 209.413025 
L 70.759861 211.123534 
L 74.301007 212.910391 
L 77.522652 214.782777 
L 80.451419 216.738701 
L 83.14056 218.798286 
L 85.643325 220.995449 
L 87.959714 223.326216 
L 90.116352 225.813086 
L 92.139864 228.489164 
L 94.030251 231.359227 
L 95.814137 234.472922 
L 97.518147 237.90306 
L 99.115656 241.622392 
L 100.633291 245.720183 
L 102.097674 250.329866 
L 103.482183 255.438186 
L 104.813441 261.228535 
L 106.064823 267.682631 
L 107.262956 275.055991 
L 108.407837 283.535551 
L 109.499469 293.358709 
L 110.511225 304.504853 
L 111.469731 317.538111 
L 112.374986 332.907386 
L 113.031453 346.6 
M 125.359909 -1 
L 126.193444 24.341547 
L 127.0987 45.271486 
L 128.057206 62.410815 
L 129.068962 76.646664 
L 130.133968 88.616574 
L 131.27885 99.00755 
L 132.476982 107.875698 
L 133.728365 115.514988 
L 135.032998 122.150513 
L 136.417506 128.061766 
L 137.855265 133.250914 
L 139.372899 137.912446 
L 140.970408 142.109516 
L 142.647793 145.897984 
L 144.405054 149.326985 
L 146.268815 152.48165 
L 148.239077 155.383686 
L 150.342465 158.086973 
L 152.578978 160.60101 
L 154.975243 162.962337 
L 157.584508 165.218667 
L 160.406775 167.362195 
L 163.495294 169.424913 
L 166.876689 171.413165 
L 170.630837 173.359302 
L 174.837612 175.284723 
L 179.576891 177.20497 
L 185.035049 179.170558 
L 191.425087 181.22876 
L 199.252884 183.507323 
L 209.982824 186.380716 
L 236.634609 193.428815 
L 245.10141 195.952712 
L 252.130452 198.274582 
L 258.227614 200.518921 
L 263.605896 202.731225 
L 268.451676 204.961922 
L 272.844827 207.227105 
L 276.838601 209.533441 
L 280.512873 211.909128 
L 283.920894 214.376531 
L 287.089288 216.945549 
L 290.04468 219.629465 
L 292.813697 222.446541 
L 295.396338 225.389898 
L 297.845852 228.518665 
L 300.162241 231.838554 
L 302.37213 235.397642 
L 304.475517 239.211384 
L 306.472404 243.294079 
L 308.389416 247.723363 
L 310.226552 252.534297 
L 311.983812 257.764902 
L 313.661198 263.456042 
L 315.285332 269.761688 
L 316.856217 276.776998 
L 318.347226 284.4686 
L 319.784984 293.074477 
L 321.169493 302.748665 
L 322.500751 313.679313 
L 323.752133 325.816813 
L 324.950266 339.621385 
L 325.482297 346.6 
M 349.873436 -1 
L 351.069548 15.248364 
L 352.347555 29.629945 
L 353.678813 42.129645 
L 355.063322 53.070348 
L 356.50108 62.707254 
L 358.018715 71.385437 
L 359.589599 79.0899 
L 361.213734 85.965284 
L 362.917744 92.220993 
L 364.675005 97.840337 
L 366.512141 102.97944 
L 368.429152 107.685113 
L 370.426039 111.999739 
L 372.502802 115.961525 
L 374.686065 119.647129 
L 376.949203 123.0356 
L 379.345468 126.223228 
L 381.848233 129.184677 
L 384.510749 131.989451 
L 387.306391 134.612641 
L 390.288409 137.10581 
L 393.456803 139.465386 
L 396.864823 141.724402 
L 400.51247 143.874049 
L 404.452994 145.936023 
L 408.71302 147.911803 
L 413.345797 149.812273 
L 418.377953 151.63404 
L 423.889361 153.39039 
L 429.959897 155.08769 
L 436.642813 156.721441 
L 444.044607 158.297853 
L 447 158.869435 
L 447 158.869435 
" clip-path="url(#p16b82680e8)" style="fill: none; stroke: #0072b2; stroke-width: 2.5; stroke-linecap: square"/>
   </g>
   <g id="LineCollection_1">
    <path d="M 119.85 334.8 
L 119.85 72.120263 
" clip-path="url(#p16b82680e8)" style="fill: none; stroke-dasharray: 9.25,4; stroke-dashoffset: 0; stroke: #dc5e8b; stroke-width: 2.5"/>
   </g>
   <g id="LineCollection_2">
    <path d="M 337.95 334.8 
L 337.95 72.120263 
" clip-path="url(#p16b82680e8)" style="fill: none; stroke-dasharray: 9.25,4; stroke-dashoffset: 0; stroke: #dc5e8b; stroke-width: 2.5"/>
   </g>
   <g id="LineCollection_3">
    <path d="M 10.8 181.570153 
L 447 181.570153 
" clip-path="url(#p16b82680e8)" style="fill: none; stroke-dasharray: 9.25,4; stroke-dashoffset: 0; stroke: #dc5e8b; stroke-width: 2.5"/>
   </g>
   <g id="patch_3">
    <path d="M 228.9 334.8 
L 228.9 72.120263 
" style="fill: none; stroke: #000000; stroke-width: 0.8; stroke-linejoin: miter; stroke-linecap: square"/>
   </g>
   <g id="patch_4">
    <path d="M 447 334.8 
L 447 72.120263 
" style="fill: none"/>
   </g>
   <g id="patch_5">
    <path d="M 10.8 203.460131 
L 447 203.460131 
" style="fill: none; stroke: #000000; stroke-width: 0.8; stroke-linejoin: miter; stroke-linecap: square"/>
   </g>
   <g id="patch_6">
    <path d="M 10.8 72.120263 
L 447 72.120263 
" style="fill: none"/>
   </g>
   <g id="text_3">
    <g id="patch_7">
     <path d="M 405.060799 45.196622 
L 416.239201 45.196622 
Q 424.239201 45.196622 424.239201 37.196622 
L 424.239201 19.483991 
Q 424.239201 11.483991 416.239201 11.483991 
L 405.060799 11.483991 
Q 397.060799 11.483991 397.060799 19.483991 
L 397.060799 37.196622 
Q 397.060799 45.196622 405.060799 45.196622 
z
" style="fill: #ffffff; opacity: 0.7; stroke: #000000; stroke-width: 1.5; stroke-linejoin: miter"/>
    </g>
    <!-- E -->
    <g transform="translate(405.060799 33.320988) scale(0.2 -0.2)">
     <defs>
      <path id="CMSS17-45" d="M 1958 433 
C 1446 433 1216 433 1101 433 
L 1101 2107 
L 3085 2107 
L 3085 2496 
L 1101 2496 
L 1101 4009 
L 1926 4009 
C 2003 4009 2080 4009 2157 4009 
L 3251 4009 
L 3251 4416 
L 563 4416 
L 563 0 
L 3334 0 
L 3334 433 
L 1958 433 
z
" transform="scale(0.015625)"/>
     </defs>
     <use xlink:href="#CMSS17-45" transform="scale(0.996264)"/>
    </g>
   </g>
  </g>
 </g>
 <defs>
  <clipPath id="p16b82680e8">
   <rect x="10.8" y="72.120263" width="436.2" height="262.679737"/>
  </clipPath>
 </defs>
</svg>
