<?xml version="1.0" encoding="utf-8" standalone="no"?>
<!DOCTYPE svg PUBLIC "-//W3C//DTD SVG 1.1//EN"
  "http://www.w3.org/Graphics/SVG/1.1/DTD/svg11.dtd">
<svg xmlns:xlink="http://www.w3.org/1999/xlink" width="432pt" height="432pt" viewBox="0 0 432 432" xmlns="http://www.w3.org/2000/svg" version="1.1">
 <metadata>
  <rdf:RDF xmlns:dc="http://purl.org/dc/elements/1.1/" xmlns:cc="http://creativecommons.org/ns#" xmlns:rdf="http://www.w3.org/1999/02/22-rdf-syntax-ns#">
   <cc:Work>
    <dc:type rdf:resource="http://purl.org/dc/dcmitype/StillImage"/>
    <dc:date>2026-03-19T18:22:14.901329</dc:date>
    <dc:format>image/svg+xml</dc:format>
    <dc:creator>
     <cc:Agent>
      <dc:title>Matplotlib v3.10.8, https://matplotlib.org/</dc:title>
     </cc:Agent>
    </dc:creator>
   </cc:Work>
  </rdf:RDF>
 </metadata>
 <defs>
  <style type="text/css">*{stroke-linejoin: round; stroke-linecap: butt}</style>
 </defs>
 <g id="figure_1">
  <g id="patch_1">
   <path d="M 0 432 
L 432 432 
L 432 0 
L 0 0 
L 0 432 
z
" style="fill: none"/>
  </g>
  <g id="axes_1">
   <g id="line2d_1">
    <path d="M 140.897285 378.602149 
L 140.788168 373.645044 
L 140.461031 368.697542 
L 139.916506 363.769228 
L 139.155648 358.869647 
L 138.179931 354.008292 
L 136.991246 349.194581 
L 135.591896 344.437837 
L 133.98459 339.747276 
L 132.172442 335.131985 
L 130.158964 330.600903 
L 127.948055 326.16281 
L 125.543999 321.826301 
L 122.951453 317.599778 
L 120.175438 313.491429 
L 117.221333 309.509211 
L 114.09486 305.66084 
L 110.802077 301.95377 
L 107.34936 298.395183 
L 103.7434 294.991972 
L 99.991182 291.75073 
L 96.099973 288.677736 
L 92.077314 285.778943 
L 87.930995 283.059966 
L 84.570248 281.040859 
L 84.570248 281.040859 
" clip-path="url(#pcfd0041b1f)" style="fill: none; stroke: #000000; stroke-linecap: square"/>
   </g>
   <g id="line2d_2">
    <path d="M 28.243211 378.602149 
L 403.756789 378.602149 
" clip-path="url(#pcfd0041b1f)" style="fill: none; stroke: #dc5e8b; stroke-width: 2.5; stroke-linecap: square"/>
   </g>
   <g id="line2d_3">
    <path d="M 28.243211 378.602149 
L 216 53.397851 
" clip-path="url(#pcfd0041b1f)" style="fill: none; stroke: #dc5e8b; stroke-width: 2.5; stroke-linecap: square"/>
   </g>
  </g>
 </g>
 <defs>
  <clipPath id="pcfd0041b1f">
   <rect x="10.8" y="10.8" width="410.4" height="410.4"/>
  </clipPath>
 </defs>
</svg>
