<?xml version="1.0" encoding="utf-8" standalone="no"?>
<!DOCTYPE svg PUBLIC "-//W3C//DTD SVG 1.1//EN"
  "http://www.w3.org/Graphics/SVG/1.1/DTD/svg11.dtd">
<svg xmlns:xlink="http://www.w3.org/1999/xlink" width="432pt" height="432pt" viewBox="0 0 432 432" xmlns="http://www.w3.org/2000/svg" version="1.1">
 <metadata>
  <rdf:RDF xmlns:dc="http://purl.org/dc/elements/1.1/" xmlns:cc="http://creativecommons.org/ns#" xmlns:rdf="http://www.w3.org/1999/02/22-rdf-syntax-ns#">
   <cc:Work>
    <dc:type rdf:resource="http://purl.org/dc/dcmitype/StillImage"/>
    <dc:date>2026-05-12T19:15:40.426526</dc:date>
    <dc:format>image/svg+xml</dc:format>
    <dc:creator>
     <cc:Agent>
      <dc:title>Matplotlib v3.10.8, https://matplotlib.org/</dc:title>
     </cc:Agent>
    </dc:creator>
   </cc:Work>
  </rdf:RDF>
 </metadata>
 <defs>
  <style type="text/css">*{stroke-linejoin: round; stroke-linecap: butt}</style>
 </defs>
 <g id="figure_1">
  <g id="patch_1">
   <path d="M 0 432 
L 432 432 
L 432 0 
L 0 0 
L 0 432 
z
" style="fill: none"/>
  </g>
  <g id="axes_1">
   <g id="patch_2">
    <path d="M 376.93439 390.345589 
C 384.047773 390.345589 390.870769 387.519412 395.90069 382.489491 
C 400.930612 377.459569 403.756789 370.636574 403.756789 363.523191 
C 403.756789 356.409808 400.930612 349.586813 395.90069 344.556891 
C 390.870769 339.52697 384.047773 336.700793 376.93439 336.700793 
C 369.821007 336.700793 362.998012 339.52697 357.968091 344.556891 
C 352.938169 349.586813 350.111992 356.409808 350.111992 363.523191 
C 350.111992 370.636574 352.938169 377.459569 357.968091 382.489491 
C 362.998012 387.519412 369.821007 390.345589 376.93439 390.345589 
z
" clip-path="url(#pccec5fb2fe)" style="fill: #dc5e8b; fill-opacity: 0.2; stroke: #dc5e8b; stroke-width: 2.5; stroke-linejoin: miter"/>
   </g>
   <g id="patch_3">
    <path d="M 323.289594 390.345589 
C 330.402977 390.345589 337.225972 387.519412 342.255893 382.489491 
C 347.285815 377.459569 350.111992 370.636574 350.111992 363.523191 
C 350.111992 356.409808 347.285815 349.586813 342.255893 344.556891 
C 337.225972 339.52697 330.402977 336.700793 323.289594 336.700793 
C 316.17621 336.700793 309.353215 339.52697 304.323294 344.556891 
C 299.293372 349.586813 296.467195 356.409808 296.467195 363.523191 
C 296.467195 370.636574 299.293372 377.459569 304.323294 382.489491 
C 309.353215 387.519412 316.17621 390.345589 323.289594 390.345589 
z
" clip-path="url(#pccec5fb2fe)" style="fill: #0072b2; fill-opacity: 0.2; stroke: #0072b2; stroke-width: 2.5; stroke-linejoin: miter"/>
   </g>
   <g id="patch_4">
    <path d="M 55.06561 95.299207 
C 62.178993 95.299207 69.001988 92.47303 74.031909 87.443109 
C 79.061831 82.413187 81.888008 75.590192 81.888008 68.476809 
C 81.888008 61.363426 79.061831 54.540431 74.031909 49.510509 
C 69.001988 44.480588 62.178993 41.654411 55.06561 41.654411 
C 47.952227 41.654411 41.129231 44.480588 36.09931 49.510509 
C 31.069388 54.540431 28.243211 61.363426 28.243211 68.476809 
C 28.243211 75.590192 31.069388 82.413187 36.09931 87.443109 
C 41.129231 92.47303 47.952227 95.299207 55.06561 95.299207 
z
" clip-path="url(#pccec5fb2fe)" style="fill: #0072b2; fill-opacity: 0.2; stroke-dasharray: 9.25,4; stroke-dashoffset: 0; stroke: #0072b2; stroke-width: 2.5; stroke-linejoin: miter"/>
   </g>
   <g id="line2d_1">
    <path d="M 376.93439 68.476809 
L 376.93439 336.700793 
" clip-path="url(#pccec5fb2fe)" style="fill: none; stroke: #808080; stroke-width: 2.5; stroke-linecap: square"/>
   </g>
   <g id="line2d_2">
    <path d="M 323.289594 68.476809 
L 323.289594 336.700793 
" clip-path="url(#pccec5fb2fe)" style="fill: none; stroke: #808080; stroke-width: 2.5; stroke-linecap: square"/>
   </g>
   <g id="line2d_3">
    <path d="M 323.289594 68.476809 
L 55.06561 68.476809 
" clip-path="url(#pccec5fb2fe)" style="fill: none; stroke-dasharray: 9.25,4; stroke-dashoffset: 0; stroke: #808080; stroke-width: 2.5"/>
   </g>
  </g>
 </g>
 <defs>
  <clipPath id="pccec5fb2fe">
   <rect x="10.8" y="10.8" width="410.4" height="410.4"/>
  </clipPath>
 </defs>
</svg>
