<?xml version="1.0" encoding="utf-8" standalone="no"?>
<!DOCTYPE svg PUBLIC "-//W3C//DTD SVG 1.1//EN"
  "http://www.w3.org/Graphics/SVG/1.1/DTD/svg11.dtd">
<svg xmlns:xlink="http://www.w3.org/1999/xlink" width="460.8pt" height="345.6pt" viewBox="0 0 460.8 345.6" xmlns="http://www.w3.org/2000/svg" version="1.1">
 <metadata>
  <rdf:RDF xmlns:dc="http://purl.org/dc/elements/1.1/" xmlns:cc="http://creativecommons.org/ns#" xmlns:rdf="http://www.w3.org/1999/02/22-rdf-syntax-ns#">
   <cc:Work>
    <dc:type rdf:resource="http://purl.org/dc/dcmitype/StillImage"/>
    <dc:date>2026-02-20T14:00:05.108925</dc:date>
    <dc:format>image/svg+xml</dc:format>
    <dc:creator>
     <cc:Agent>
      <dc:title>Matplotlib v3.9.1, https://matplotlib.org/</dc:title>
     </cc:Agent>
    </dc:creator>
   </cc:Work>
  </rdf:RDF>
 </metadata>
 <defs>
  <style type="text/css">*{stroke-linejoin: round; stroke-linecap: butt}</style>
 </defs>
 <g id="figure_1">
  <g id="patch_1">
   <path d="M 0 345.6 
L 460.8 345.6 
L 460.8 0 
L 0 0 
L 0 345.6 
z
" style="fill: none"/>
  </g>
  <g id="axes_1">
   <g id="patch_2">
    <path d="M 10.8 320.055439 
L 447 320.055439 
L 447 23.55884 
L 10.8 23.55884 
L 10.8 320.055439 
z
" style="fill: none"/>
   </g>
   <g id="patch_3">
    <path d="M 54.42 305.936553 
L 141.66 305.936553 
L 141.66 108.272154 
L 54.42 108.272154 
z
" clip-path="url(#p81183e35b6)" style="fill: #0072b2; opacity: 0.2; stroke: #0072b2; stroke-linejoin: miter"/>
   </g>
   <g id="matplotlib.axis_1">
    <g id="text_1">
     <!-- $x$ -->
     <g transform="translate(431.478463 329.308351) scale(0.28 -0.28)">
      <defs>
       <path id="CMMI12-78" d="M 3034 2606 
C 2829 2567 2752 2414 2752 2293 
C 2752 2139 2874 2088 2963 2088 
C 3155 2088 3290 2254 3290 2427 
C 3290 2695 2982 2816 2714 2816 
C 2323 2816 2106 2433 2048 2312 
C 1901 2816 1504 2816 1389 2816 
C 736 2816 390 1980 390 1839 
C 390 1814 416 1782 461 1782 
C 512 1782 525 1820 538 1846 
C 755 2555 1184 2689 1370 2689 
C 1658 2689 1715 2420 1715 2267 
C 1715 2127 1677 1980 1600 1673 
L 1382 798 
C 1286 415 1101 64 762 64 
C 730 64 570 64 435 147 
C 666 192 717 383 717 460 
C 717 588 621 664 499 664 
C 346 664 179 530 179 326 
C 179 57 480 -64 755 -64 
C 1062 -64 1280 179 1414 441 
C 1517 64 1837 -64 2074 -64 
C 2726 -64 3072 773 3072 913 
C 3072 945 3046 971 3008 971 
C 2950 971 2944 939 2925 888 
C 2752 326 2381 64 2093 64 
C 1869 64 1747 230 1747 492 
C 1747 632 1773 734 1875 1156 
L 2099 2024 
C 2195 2408 2413 2689 2707 2689 
C 2720 2689 2899 2689 3034 2606 
z
" transform="scale(0.015625)"/>
      </defs>
      <use xlink:href="#CMMI12-78" transform="scale(0.996264)"/>
     </g>
    </g>
   </g>
   <g id="matplotlib.axis_2">
    <g id="text_2">
     <!-- $y$ -->
     <g transform="translate(37.102038 18.132959) scale(0.28 -0.28)">
      <defs>
       <path id="CMMI12-79" d="M 1683 -700 
C 1510 -939 1261 -1152 947 -1152 
C 870 -1152 563 -1152 467 -889 
C 486 -895 518 -895 531 -895 
C 723 -895 851 -729 851 -582 
C 851 -435 730 -384 634 -384 
C 531 -384 307 -458 307 -759 
C 307 -1071 582 -1286 947 -1286 
C 1587 -1286 2234 -700 2413 6 
L 3040 2485 
C 3046 2517 3059 2556 3059 2594 
C 3059 2689 2982 2753 2886 2753 
C 2829 2753 2694 2727 2643 2535 
L 2170 658 
C 2138 543 2138 530 2086 460 
C 1958 281 1747 64 1440 64 
C 1082 64 1050 415 1050 588 
C 1050 952 1222 1443 1395 1903 
C 1466 2088 1504 2178 1504 2305 
C 1504 2574 1312 2816 998 2816 
C 410 2816 173 1890 173 1839 
C 173 1814 198 1782 243 1782 
C 301 1782 307 1807 333 1897 
C 486 2433 730 2689 979 2689 
C 1037 2689 1146 2689 1146 2478 
C 1146 2312 1075 2127 979 1884 
C 666 1047 666 837 666 683 
C 666 77 1101 -64 1421 -64 
C 1606 -64 1837 -6 2061 230 
L 2067 224 
C 1971 -147 1907 -392 1683 -700 
z
" transform="scale(0.015625)"/>
      </defs>
      <use xlink:href="#CMMI12-79" transform="scale(0.996264)"/>
     </g>
    </g>
   </g>
   <g id="line2d_1">
    <defs>
     <path id="m701226aa78" d="M 3 0 
L -3 -3 
L -3 3 
z
" style="stroke: #000000; stroke-linejoin: miter"/>
    </defs>
    <g>
     <use xlink:href="#m701226aa78" x="447" y="305.936553" style="stroke: #000000; stroke-linejoin: miter"/>
    </g>
   </g>
   <g id="line2d_2">
    <defs>
     <path id="m86610ce7fe" d="M 0 -3 
L -3 3 
L 3 3 
z
" style="stroke: #000000; stroke-linejoin: miter"/>
    </defs>
    <g>
     <use xlink:href="#m86610ce7fe" x="54.42" y="23.55884" style="stroke: #000000; stroke-linejoin: miter"/>
    </g>
   </g>
   <g id="line2d_3">
    <path d="M 54.42 305.936553 
L 61.201428 286.522738 
L 67.887006 268.051419 
L 74.476733 250.494067 
L 80.946647 233.882926 
L 87.32071 218.125374 
L 93.598923 203.19421 
L 99.757323 189.116321 
L 105.819872 175.807322 
L 111.78657 163.241343 
L 117.633455 151.440242 
L 123.38449 140.327545 
L 129.039674 129.878709 
L 134.599008 120.0696 
L 140.06249 110.876494 
L 145.430123 102.276075 
L 150.701904 94.245438 
L 155.877836 86.762084 
L 160.957916 79.803925 
L 165.942146 73.349282 
L 170.854488 67.348482 
L 175.67098 61.812483 
L 180.415583 56.695729 
L 185.064336 52.006374 
L 189.641201 47.702858 
L 194.146178 43.770533 
L 198.579268 40.194979 
L 202.940469 36.962007 
L 207.229782 34.05766 
L 211.447207 31.468208 
L 215.616708 29.167669 
L 219.71432 27.158165 
L 223.764007 25.416993 
L 227.789731 23.927358 
L 231.76753 22.691696 
L 235.721366 21.696186 
L 239.627277 20.940546 
L 243.533188 20.41132 
L 247.415136 20.109675 
L 251.297085 20.031676 
L 255.15507 20.175736 
L 259.037019 20.543645 
L 262.918967 21.135199 
L 266.824878 21.956125 
L 270.754752 23.010588 
L 274.708588 24.302783 
L 278.686387 25.836928 
L 282.712111 27.628642 
L 286.785761 29.686516 
L 290.907336 32.019241 
L 295.076836 34.635613 
L 299.318224 37.56181 
L 303.607537 40.792592 
L 307.968738 44.357468 
L 312.401828 48.270398 
L 316.906805 52.54557 
L 321.48367 57.197404 
L 326.132423 62.240547 
L 330.877026 67.718385 
L 335.693518 73.620938 
L 340.60586 79.995588 
L 345.614052 86.863297 
L 350.694133 94.209877 
L 355.870064 102.08898 
L 361.141846 110.522697 
L 366.509478 119.533522 
L 371.972961 129.144364 
L 377.532294 139.378538 
L 383.187478 150.259768 
L 388.938513 161.812187 
L 394.785398 174.060339 
L 400.728134 187.029175 
L 406.76672 200.744055 
L 412.901157 215.23075 
L 419.155407 230.575338 
L 425.505508 246.749015 
L 431.951459 263.77888 
L 438.517224 281.759227 
L 445.178839 300.655917 
L 447 305.936553 
L 447 305.936553 
" clip-path="url(#p81183e35b6)" style="fill: none; stroke: #0072b2; stroke-width: 2.5; stroke-linecap: square"/>
   </g>
   <g id="line2d_4">
    <path d="M 54.42 305.936553 
L 141.66 305.936553 
L 141.66 108.272154 
L 54.42 108.272154 
L 54.42 305.936553 
" clip-path="url(#p81183e35b6)" style="fill: none; stroke: #000000; stroke-width: 1.5; stroke-linecap: square"/>
   </g>
   <g id="patch_4">
    <path d="M 54.42 320.055439 
L 54.42 23.55884 
" style="fill: none; stroke: #000000; stroke-width: 0.8; stroke-linejoin: miter; stroke-linecap: square"/>
   </g>
   <g id="patch_5">
    <path d="M 447 320.055439 
L 447 23.55884 
" style="fill: none"/>
   </g>
   <g id="patch_6">
    <path d="M 10.8 305.936553 
L 447 305.936553 
" style="fill: none; stroke: #000000; stroke-width: 0.8; stroke-linejoin: miter; stroke-linecap: square"/>
   </g>
   <g id="patch_7">
    <path d="M 10.8 23.55884 
L 447 23.55884 
" style="fill: none"/>
   </g>
   <g id="legend_1">
    <g id="patch_8">
     <path d="M 30.4 84.984721 
L 133.463307 84.984721 
Q 139.063307 84.984721 139.063307 79.384721 
L 139.063307 43.15884 
Q 139.063307 37.55884 133.463307 37.55884 
L 30.4 37.55884 
Q 24.8 37.55884 24.8 43.15884 
L 24.8 79.384721 
Q 24.8 84.984721 30.4 84.984721 
z
" style="fill: #ffffff; opacity: 0.8; stroke: #cccccc; stroke-linejoin: miter"/>
    </g>
    <g id="line2d_5">
     <path d="M 36 58.55884 
L 64 58.55884 
L 92 58.55884 
" style="fill: none; stroke: #0072b2; stroke-width: 2.5; stroke-linecap: square"/>
    </g>
    <g id="text_3">
     <!-- $f$ -->
     <g transform="translate(114.4 68.35884) scale(0.28 -0.28)">
      <defs>
       <path id="CMMI12-66" d="M 2854 2566 
C 2982 2566 3034 2566 3034 2688 
C 3034 2752 2982 2752 2867 2752 
L 2349 2752 
C 2470 3429 2560 3897 2611 4107 
C 2650 4265 2784 4416 2950 4416 
C 3085 4416 3219 4358 3283 4298 
C 3034 4272 2957 4082 2957 3969 
C 2957 3837 3053 3759 3174 3759 
C 3302 3759 3494 3870 3494 4119 
C 3494 4393 3226 4544 2944 4544 
C 2669 4544 2400 4334 2272 4078 
C 2157 3848 2093 3611 1946 2752 
L 1517 2752 
C 1395 2752 1331 2752 1331 2637 
C 1331 2566 1370 2566 1498 2566 
L 1907 2566 
C 1792 1976 1530 542 1382 -137 
C 1274 -689 1178 -1152 858 -1152 
C 838 -1152 653 -1152 538 -1031 
C 864 -1005 864 -726 864 -720 
C 864 -593 768 -517 646 -517 
C 518 -517 326 -625 326 -867 
C 326 -1140 608 -1280 858 -1280 
C 1510 -1280 1779 -118 1850 199 
C 1965 688 2278 2376 2310 2566 
L 2854 2566 
z
" transform="scale(0.015625)"/>
      </defs>
      <use xlink:href="#CMMI12-66" transform="scale(0.996264)"/>
     </g>
    </g>
   </g>
  </g>
 </g>
 <defs>
  <clipPath id="p81183e35b6">
   <rect x="10.8" y="23.55884" width="436.2" height="296.496599"/>
  </clipPath>
 </defs>
</svg>
