<?xml version="1.0" encoding="utf-8" standalone="no"?>
<!DOCTYPE svg PUBLIC "-//W3C//DTD SVG 1.1//EN"
  "http://www.w3.org/Graphics/SVG/1.1/DTD/svg11.dtd">
<svg xmlns:xlink="http://www.w3.org/1999/xlink" width="432pt" height="432pt" viewBox="0 0 432 432" xmlns="http://www.w3.org/2000/svg" version="1.1">
 <metadata>
  <rdf:RDF xmlns:dc="http://purl.org/dc/elements/1.1/" xmlns:cc="http://creativecommons.org/ns#" xmlns:rdf="http://www.w3.org/1999/02/22-rdf-syntax-ns#">
   <cc:Work>
    <dc:type rdf:resource="http://purl.org/dc/dcmitype/StillImage"/>
    <dc:date>2026-02-21T17:42:37.297874</dc:date>
    <dc:format>image/svg+xml</dc:format>
    <dc:creator>
     <cc:Agent>
      <dc:title>Matplotlib v3.9.1, https://matplotlib.org/</dc:title>
     </cc:Agent>
    </dc:creator>
   </cc:Work>
  </rdf:RDF>
 </metadata>
 <defs>
  <style type="text/css">*{stroke-linejoin: round; stroke-linecap: butt}</style>
 </defs>
 <g id="figure_1">
  <g id="patch_1">
   <path d="M 0 432 
L 432 432 
L 432 0 
L 0 0 
L 0 432 
z
" style="fill: none"/>
  </g>
  <g id="axes_1">
   <g id="patch_2">
    <path d="M 216 145.591204 
C 228.448421 145.591204 240.388662 140.645394 249.191025 131.843032 
C 257.993387 123.040669 262.939197 111.100428 262.939197 98.652007 
C 262.939197 86.203586 257.993387 74.263345 249.191025 65.460982 
C 240.388662 56.65862 228.448421 51.71281 216 51.71281 
C 203.551579 51.71281 191.611338 56.65862 182.808975 65.460982 
C 174.006613 74.263345 169.060803 86.203586 169.060803 98.652007 
C 169.060803 111.100428 174.006613 123.040669 182.808975 131.843032 
C 191.611338 140.645394 203.551579 145.591204 216 145.591204 
z
" clip-path="url(#pe0b587f623)" style="fill: #0072b2; fill-opacity: 0.2; stroke: #0072b2; stroke-width: 2.5; stroke-linejoin: miter"/>
   </g>
   <g id="patch_3">
    <path d="M 216 380.28719 
C 228.448421 380.28719 240.388662 375.34138 249.191025 366.539018 
C 257.993387 357.736655 262.939197 345.796414 262.939197 333.347993 
C 262.939197 320.899572 257.993387 308.959331 249.191025 300.156968 
C 240.388662 291.354606 228.448421 286.408796 216 286.408796 
C 203.551579 286.408796 191.611338 291.354606 182.808975 300.156968 
C 174.006613 308.959331 169.060803 320.899572 169.060803 333.347993 
C 169.060803 345.796414 174.006613 357.736655 182.808975 366.539018 
C 191.611338 375.34138 203.551579 380.28719 216 380.28719 
z
" clip-path="url(#pe0b587f623)" style="fill: #0072b2; fill-opacity: 0.2; stroke-dasharray: 9.25,4; stroke-dashoffset: 0; stroke: #0072b2; stroke-width: 2.5; stroke-linejoin: miter"/>
   </g>
   <g id="line2d_1">
    <path d="M 28.243211 380.28719 
L 403.756789 380.28719 
" clip-path="url(#pe0b587f623)" style="fill: none; stroke: #808080; stroke-width: 2.5; stroke-linecap: square"/>
   </g>
   <g id="line2d_2">
    <path d="M 216 98.652007 
L 216 333.347993 
" clip-path="url(#pe0b587f623)" style="fill: none; stroke-dasharray: 9.25,4; stroke-dashoffset: 0; stroke: #808080; stroke-width: 2.5"/>
   </g>
   <g id="text_1">
    <!-- Bakken -->
    <g transform="translate(187.42939 410.913278) scale(0.2 -0.2)">
     <defs>
      <path id="CMSS17-42" d="M 570 4416 
L 570 0 
L 2163 0 
C 3034 0 3667 574 3667 1200 
C 3667 1685 3251 2176 2502 2317 
C 3334 2558 3501 3040 3501 3313 
C 3501 3883 2874 4416 1997 4416 
L 570 4416 
z
M 1088 2496 
L 1088 4059 
L 1824 4059 
C 2483 4059 3002 3724 3002 3306 
C 3002 2926 2592 2496 1766 2496 
L 1088 2496 
z
M 1088 357 
L 1088 2107 
L 1939 2107 
C 2630 2107 3162 1679 3162 1206 
C 3162 772 2694 357 1984 357 
L 1088 357 
z
" transform="scale(0.015625)"/>
      <path id="CMSS17-61" d="M 2406 1791 
C 2406 2392 1978 2808 1402 2808 
C 1120 2808 813 2757 461 2553 
L 499 2135 
C 659 2248 934 2432 1395 2432 
C 1722 2432 1920 2180 1920 1782 
L 1920 1536 
C 896 1536 256 1238 256 726 
C 256 461 416 -64 947 -64 
C 1043 -64 1562 -64 1933 217 
L 1933 -19 
L 2406 -19 
L 2406 1791 
z
M 1920 816 
C 1920 701 1920 548 1728 434 
C 1562 325 1350 325 1261 325 
C 941 325 723 511 723 744 
C 723 1211 1722 1211 1920 1211 
L 1920 816 
z
" transform="scale(0.015625)"/>
      <path id="CMSS17-6b" d="M 1696 1688 
L 2688 2739 
L 2074 2739 
L 954 1554 
L 954 4416 
L 480 4416 
L 480 0 
L 947 0 
L 947 892 
L 1376 1344 
L 2278 0 
L 2822 0 
L 1696 1688 
z
" transform="scale(0.015625)"/>
      <path id="CMSS17-65" d="M 2502 1377 
C 2502 1590 2490 2003 2285 2345 
C 2061 2713 1696 2816 1421 2816 
C 755 2816 192 2188 192 1375 
C 192 582 774 -64 1510 -64 
C 1798 -64 2150 19 2470 248 
C 2470 274 2458 414 2451 420 
C 2451 433 2432 630 2432 656 
C 2125 407 1773 325 1517 325 
C 1107 325 666 667 646 1377 
L 2502 1377 
z
M 698 1728 
C 781 2084 1062 2421 1421 2421 
C 1517 2421 1965 2421 2080 1728 
L 698 1728 
z
" transform="scale(0.015625)"/>
      <path id="CMSS17-6e" d="M 2618 1877 
C 2618 2283 2522 2816 1798 2816 
C 1389 2816 1120 2606 941 2389 
L 941 2758 
L 474 2758 
L 474 0 
L 960 0 
L 960 1559 
C 960 1964 1114 2428 1549 2428 
C 2112 2428 2131 2048 2131 1829 
L 2131 0 
L 2618 0 
L 2618 1877 
z
" transform="scale(0.015625)"/>
     </defs>
     <use xlink:href="#CMSS17-42" transform="scale(0.996264)"/>
     <use xlink:href="#CMSS17-61" transform="translate(62.33804 0) scale(0.996264)"/>
     <use xlink:href="#CMSS17-6b" transform="translate(107.259961 0) scale(0.996264)"/>
     <use xlink:href="#CMSS17-6b" transform="translate(152.86245 0) scale(0.996264)"/>
     <use xlink:href="#CMSS17-65" transform="translate(195.862485 0) scale(0.996264)"/>
     <use xlink:href="#CMSS17-6e" transform="translate(237.501307 0) scale(0.996264)"/>
    </g>
   </g>
   <g id="text_2">
    <!-- Kule -->
    <g transform="translate(69.854557 103.632689) scale(0.2 -0.2)">
     <defs>
      <path id="CMSS17-4b" d="M 2234 2666 
L 3827 4416 
L 3213 4416 
L 1101 2106 
L 1101 4416 
L 563 4416 
L 563 0 
L 1101 0 
L 1101 1432 
L 1875 2278 
L 3315 0 
L 3910 0 
L 2234 2666 
z
" transform="scale(0.015625)"/>
      <path id="CMSS17-75" d="M 2618 2739 
L 2131 2739 
L 2131 972 
C 2131 498 1786 306 1421 306 
C 998 306 960 447 960 709 
L 960 2739 
L 474 2739 
L 474 678 
C 474 179 646 -64 1088 -64 
C 1306 -64 1798 -13 2144 306 
L 2144 0 
L 2618 0 
L 2618 2739 
z
" transform="scale(0.015625)"/>
      <path id="CMSS17-6c" d="M 947 4416 
L 474 4416 
L 474 0 
L 947 0 
L 947 4416 
z
" transform="scale(0.015625)"/>
     </defs>
     <use xlink:href="#CMSS17-4b" transform="scale(0.996264)"/>
     <use xlink:href="#CMSS17-75" transform="translate(64.820294 0) scale(0.996264)"/>
     <use xlink:href="#CMSS17-6c" transform="translate(113.025237 0) scale(0.996264)"/>
     <use xlink:href="#CMSS17-65" transform="translate(135.20596 0) scale(0.996264)"/>
    </g>
   </g>
   <g id="Quiver_1">
    <path d="M 311.109594 98.652007 
L 311.109594 181.449601 
L 316.034394 180.218401 
L 309.878394 192.530401 
L 303.722394 180.218401 
L 308.647194 181.449601 
L 308.647194 98.652007 
L 311.109594 98.652007 
" clip-path="url(#pe0b587f623)"/>
   </g>
  </g>
 </g>
 <defs>
  <clipPath id="pe0b587f623">
   <rect x="10.8" y="10.8" width="410.4" height="410.4"/>
  </clipPath>
 </defs>
</svg>
