<?xml version="1.0" encoding="utf-8" standalone="no"?>
<!DOCTYPE svg PUBLIC "-//W3C//DTD SVG 1.1//EN"
  "http://www.w3.org/Graphics/SVG/1.1/DTD/svg11.dtd">
<svg xmlns:xlink="http://www.w3.org/1999/xlink" width="460.8pt" height="345.6pt" viewBox="0 0 460.8 345.6" xmlns="http://www.w3.org/2000/svg" version="1.1">
 <metadata>
  <rdf:RDF xmlns:dc="http://purl.org/dc/elements/1.1/" xmlns:cc="http://creativecommons.org/ns#" xmlns:rdf="http://www.w3.org/1999/02/22-rdf-syntax-ns#">
   <cc:Work>
    <dc:type rdf:resource="http://purl.org/dc/dcmitype/StillImage"/>
    <dc:date>2026-01-27T16:35:07.169106</dc:date>
    <dc:format>image/svg+xml</dc:format>
    <dc:creator>
     <cc:Agent>
      <dc:title>Matplotlib v3.9.1, https://matplotlib.org/</dc:title>
     </cc:Agent>
    </dc:creator>
   </cc:Work>
  </rdf:RDF>
 </metadata>
 <defs>
  <style type="text/css">*{stroke-linejoin: round; stroke-linecap: butt}</style>
 </defs>
 <g id="figure_1">
  <g id="patch_1">
   <path d="M 0 345.6 
L 460.8 345.6 
L 460.8 0 
L 0 0 
L 0 345.6 
z
" style="fill: none"/>
  </g>
  <g id="axes_1">
   <g id="patch_2">
    <path d="M 10.8 334.8 
L 447 334.8 
L 447 22.230394 
L 10.8 22.230394 
L 10.8 334.8 
z
" style="fill: none"/>
   </g>
   <g id="matplotlib.axis_1">
    <g id="text_1">
     <!-- $x$ -->
     <g transform="translate(433.141493 199.811451) scale(0.25 -0.25)">
      <defs>
       <path id="CMMI12-78" d="M 3034 2606 
C 2829 2567 2752 2414 2752 2293 
C 2752 2139 2874 2088 2963 2088 
C 3155 2088 3290 2254 3290 2427 
C 3290 2695 2982 2816 2714 2816 
C 2323 2816 2106 2433 2048 2312 
C 1901 2816 1504 2816 1389 2816 
C 736 2816 390 1980 390 1839 
C 390 1814 416 1782 461 1782 
C 512 1782 525 1820 538 1846 
C 755 2555 1184 2689 1370 2689 
C 1658 2689 1715 2420 1715 2267 
C 1715 2127 1677 1980 1600 1673 
L 1382 798 
C 1286 415 1101 64 762 64 
C 730 64 570 64 435 147 
C 666 192 717 383 717 460 
C 717 588 621 664 499 664 
C 346 664 179 530 179 326 
C 179 57 480 -64 755 -64 
C 1062 -64 1280 179 1414 441 
C 1517 64 1837 -64 2074 -64 
C 2726 -64 3072 773 3072 913 
C 3072 945 3046 971 3008 971 
C 2950 971 2944 939 2925 888 
C 2752 326 2381 64 2093 64 
C 1869 64 1747 230 1747 492 
C 1747 632 1773 734 1875 1156 
L 2099 2024 
C 2195 2408 2413 2689 2707 2689 
C 2720 2689 2899 2689 3034 2606 
z
" transform="scale(0.015625)"/>
      </defs>
      <use xlink:href="#CMMI12-78" transform="scale(0.996264)"/>
     </g>
    </g>
   </g>
   <g id="matplotlib.axis_2">
    <g id="text_2">
     <!-- $y$ -->
     <g transform="translate(213.008953 17.38586) scale(0.25 -0.25)">
      <defs>
       <path id="CMMI12-79" d="M 1683 -700 
C 1510 -939 1261 -1152 947 -1152 
C 870 -1152 563 -1152 467 -889 
C 486 -895 518 -895 531 -895 
C 723 -895 851 -729 851 -582 
C 851 -435 730 -384 634 -384 
C 531 -384 307 -458 307 -759 
C 307 -1071 582 -1286 947 -1286 
C 1587 -1286 2234 -700 2413 6 
L 3040 2485 
C 3046 2517 3059 2556 3059 2594 
C 3059 2689 2982 2753 2886 2753 
C 2829 2753 2694 2727 2643 2535 
L 2170 658 
C 2138 543 2138 530 2086 460 
C 1958 281 1747 64 1440 64 
C 1082 64 1050 415 1050 588 
C 1050 952 1222 1443 1395 1903 
C 1466 2088 1504 2178 1504 2305 
C 1504 2574 1312 2816 998 2816 
C 410 2816 173 1890 173 1839 
C 173 1814 198 1782 243 1782 
C 301 1782 307 1807 333 1897 
C 486 2433 730 2689 979 2689 
C 1037 2689 1146 2689 1146 2478 
C 1146 2312 1075 2127 979 1884 
C 666 1047 666 837 666 683 
C 666 77 1101 -64 1421 -64 
C 1606 -64 1837 -6 2061 230 
L 2067 224 
C 1971 -147 1907 -392 1683 -700 
z
" transform="scale(0.015625)"/>
      </defs>
      <use xlink:href="#CMMI12-79" transform="scale(0.996264)"/>
     </g>
    </g>
   </g>
   <g id="line2d_1">
    <defs>
     <path id="mf1c461bc81" d="M 3 0 
L -3 -3 
L -3 3 
z
" style="stroke: #000000; stroke-linejoin: miter"/>
    </defs>
    <g>
     <use xlink:href="#mf1c461bc81" x="447" y="178.515197" style="stroke: #000000; stroke-linejoin: miter"/>
    </g>
   </g>
   <g id="line2d_2">
    <defs>
     <path id="m060c9672fd" d="M 0 -3 
L -3 3 
L 3 3 
z
" style="stroke: #000000; stroke-linejoin: miter"/>
    </defs>
    <g>
     <use xlink:href="#m060c9672fd" x="228.9" y="22.230394" style="stroke: #000000; stroke-linejoin: miter"/>
    </g>
   </g>
   <g id="line2d_3">
    <path d="M 10.8 159.909863 
L 48.2616 160.345644 
L 74.221132 160.858579 
L 93.284746 161.447781 
L 107.875334 162.112508 
L 119.377403 162.850848 
L 128.696209 163.664607 
L 136.390881 164.553603 
L 142.83417 165.516002 
L 148.318953 166.55502 
L 153.031606 167.669234 
L 157.131881 168.862738 
L 160.726277 170.135986 
L 163.921296 171.500234 
L 166.770189 172.954884 
L 169.352829 174.521883 
L 171.695843 176.202971 
L 173.825856 178.001744 
L 175.796118 179.953981 
L 177.633254 182.087465 
L 179.337264 184.404893 
L 180.961399 186.994332 
L 182.479033 189.836232 
L 183.916792 193.003665 
L 185.274675 196.533012 
L 186.579308 200.551718 
L 187.83069 205.149941 
L 189.002197 210.310757 
L 190.120454 216.248354 
L 191.185461 223.11804 
L 192.197217 231.115258 
L 193.155722 240.488533 
L 194.060978 251.557477 
L 194.912983 264.738176 
L 195.711738 280.57954 
L 196.457242 299.816163 
L 197.149496 323.44648 
L 197.668396 346.6 
M 207.198315 -1 
L 208.012562 17.074092 
L 208.891192 31.944817 
L 209.823073 44.143177 
L 210.808204 54.252688 
L 211.846585 62.700316 
L 212.938216 69.804088 
L 214.083098 75.804361 
L 215.254605 80.783073 
L 216.452738 84.938394 
L 217.677495 88.41553 
L 218.928877 91.322323 
L 220.206885 93.73942 
L 221.484893 95.690808 
L 222.762901 97.244353 
L 224.014283 98.428107 
L 225.265666 99.312434 
L 226.490423 99.911367 
L 227.688555 100.256842 
L 228.886687 100.372782 
L 230.08482 100.261893 
L 231.282952 99.921586 
L 232.481084 99.343821 
L 233.679216 98.514624 
L 234.877348 97.41322 
L 236.102106 95.975818 
L 237.326863 94.181796 
L 238.524995 92.027672 
L 239.723128 89.407831 
L 240.894635 86.305029 
L 242.039517 82.639996 
L 243.157773 78.308504 
L 244.249405 73.17238 
L 245.314411 67.046005 
L 246.326167 59.885276 
L 247.284673 51.491885 
L 248.216554 41.288641 
L 249.095184 29.10676 
L 249.920564 14.447188 
L 250.601685 -1 
M 260.131604 346.6 
L 260.83688 316.39174 
L 261.609009 292.336697 
L 262.434389 273.214714 
L 263.31302 257.750484 
L 264.2449 245.061796 
L 265.256656 234.268168 
L 266.321663 225.265854 
L 267.439919 217.678202 
L 268.611426 211.224233 
L 269.836184 205.690455 
L 271.114192 200.912016 
L 272.472075 196.683946 
L 273.883208 193.003665 
L 275.374217 189.728483 
L 276.945102 186.811355 
L 278.595862 184.210291 
L 280.353122 181.855139 
L 282.216883 179.72752 
L 284.21377 177.78452 
L 286.370408 175.997522 
L 288.713422 174.347619 
L 291.269438 172.822387 
L 294.091705 171.401237 
L 297.206849 170.084311 
L 300.694745 168.854175 
L 304.635268 167.704362 
L 309.108295 166.634812 
L 314.246951 165.639143 
L 320.210987 164.71525 
L 327.213404 163.86166 
L 335.520454 163.079406 
L 345.55814 162.36523 
L 357.858964 161.721378 
L 373.274931 161.146624 
L 393.057425 160.641879 
L 419.336459 160.205827 
L 447 159.909863 
L 447 159.909863 
" clip-path="url(#p2e777cd85a)" style="fill: none; stroke: #0072b2; stroke-width: 2.5; stroke-linecap: square"/>
   </g>
   <g id="LineCollection_1">
    <path d="M 201.6375 334.8 
L 201.6375 22.230394 
" clip-path="url(#p2e777cd85a)" style="fill: none; stroke-dasharray: 9.25,4; stroke-dashoffset: 0; stroke: #dc5e8b; stroke-width: 2.5"/>
   </g>
   <g id="LineCollection_2">
    <path d="M 256.1625 334.8 
L 256.1625 22.230394 
" clip-path="url(#p2e777cd85a)" style="fill: none; stroke-dasharray: 9.25,4; stroke-dashoffset: 0; stroke: #dc5e8b; stroke-width: 2.5"/>
   </g>
   <g id="LineCollection_3">
    <path d="M 10.8 158.979597 
L 447 158.979597 
" clip-path="url(#p2e777cd85a)" style="fill: none; stroke-dasharray: 9.25,4; stroke-dashoffset: 0; stroke: #dc5e8b; stroke-width: 2.5"/>
   </g>
   <g id="line2d_4">
    <defs>
     <path id="m1749a24407" d="M 0 5 
C 1.326016 5 2.597899 4.473168 3.535534 3.535534 
C 4.473168 2.597899 5 1.326016 5 0 
C 5 -1.326016 4.473168 -2.597899 3.535534 -3.535534 
C 2.597899 -4.473168 1.326016 -5 0 -5 
C -1.326016 -5 -2.597899 -4.473168 -3.535534 -3.535534 
C -4.473168 -2.597899 -5 -1.326016 -5 0 
C -5 1.326016 -4.473168 2.597899 -3.535534 3.535534 
C -2.597899 4.473168 -1.326016 5 0 5 
z
" style="stroke: #000000; stroke-opacity: 0.8"/>
    </defs>
    <g clip-path="url(#p2e777cd85a)">
     <use xlink:href="#m1749a24407" x="174.375" y="178.515197" style="fill-opacity: 0.8; stroke: #000000; stroke-opacity: 0.8"/>
    </g>
   </g>
   <g id="line2d_5">
    <g clip-path="url(#p2e777cd85a)">
     <use xlink:href="#m1749a24407" x="283.425" y="178.515197" style="fill-opacity: 0.8; stroke: #000000; stroke-opacity: 0.8"/>
    </g>
   </g>
   <g id="patch_3">
    <path d="M 228.9 334.8 
L 228.9 22.230394 
" style="fill: none; stroke: #000000; stroke-width: 0.8; stroke-linejoin: miter; stroke-linecap: square"/>
   </g>
   <g id="patch_4">
    <path d="M 447 334.8 
L 447 22.230394 
" style="fill: none"/>
   </g>
   <g id="patch_5">
    <path d="M 10.8 178.515197 
L 447 178.515197 
" style="fill: none; stroke: #000000; stroke-width: 0.8; stroke-linejoin: miter; stroke-linecap: square"/>
   </g>
   <g id="patch_6">
    <path d="M 10.8 22.230394 
L 447 22.230394 
" style="fill: none"/>
   </g>
  </g>
 </g>
 <defs>
  <clipPath id="p2e777cd85a">
   <rect x="10.8" y="22.230394" width="436.2" height="312.569606"/>
  </clipPath>
 </defs>
</svg>
