<?xml version="1.0" encoding="utf-8" standalone="no"?>
<!DOCTYPE svg PUBLIC "-//W3C//DTD SVG 1.1//EN"
  "http://www.w3.org/Graphics/SVG/1.1/DTD/svg11.dtd">
<svg xmlns:xlink="http://www.w3.org/1999/xlink" width="223.167875pt" height="190.660764pt" viewBox="0 0 223.167875 190.660764" xmlns="http://www.w3.org/2000/svg" version="1.1">
 <metadata>
  <rdf:RDF xmlns:dc="http://purl.org/dc/elements/1.1/" xmlns:cc="http://creativecommons.org/ns#" xmlns:rdf="http://www.w3.org/1999/02/22-rdf-syntax-ns#">
   <cc:Work>
    <dc:type rdf:resource="http://purl.org/dc/dcmitype/StillImage"/>
    <dc:date>2025-09-30T16:38:45.545434</dc:date>
    <dc:format>image/svg+xml</dc:format>
    <dc:creator>
     <cc:Agent>
      <dc:title>Matplotlib v3.9.1, https://matplotlib.org/</dc:title>
     </cc:Agent>
    </dc:creator>
   </cc:Work>
  </rdf:RDF>
 </metadata>
 <defs>
  <style type="text/css">*{stroke-linejoin: round; stroke-linecap: butt}</style>
 </defs>
 <g id="figure_1">
  <g id="patch_1">
   <path d="M 0 190.660764 
L 223.167875 190.660764 
L 223.167875 0 
L 0 0 
L 0 190.660764 
z
" style="fill: none"/>
  </g>
  <g id="axes_1">
   <g id="line2d_1">
    <path d="M 67.167875 37.674097 
L 71.153589 53.63143 
L 75.037106 68.276729 
L 78.818425 81.680346 
L 82.497545 93.910783 
L 86.040403 104.932317 
L 89.481062 114.926041 
L 92.819523 123.954288 
L 96.055787 132.077536 
L 99.189853 139.354415 
L 102.221721 145.841699 
L 105.151392 151.594315 
L 107.978864 156.665337 
L 110.704139 161.105987 
L 113.327216 164.965635 
L 115.882161 168.334179 
L 118.334908 171.205105 
L 120.685458 173.622845 
L 122.967875 175.658097 
L 125.182161 177.338426 
L 127.328315 178.690575 
L 129.406337 179.740464 
L 131.450293 180.524229 
L 133.426117 181.047219 
L 135.401941 181.339537 
L 137.343699 181.402073 
L 139.285458 181.241823 
L 141.227216 180.858786 
L 143.20304 180.240346 
L 145.21293 179.37457 
L 147.256886 178.249322 
L 149.368974 176.82723 
L 151.515128 175.112204 
L 153.729414 173.057478 
L 156.045897 170.597841 
L 158.430512 167.734664 
L 160.88326 164.439148 
L 163.438205 160.628322 
L 166.095348 156.2559 
L 168.820622 151.337997 
L 171.648095 145.771825 
L 174.577765 139.506162 
L 177.609633 132.487933 
L 180.743699 124.662214 
L 183.979963 115.972227 
L 187.318425 106.359345 
L 190.759084 95.763088 
L 194.301941 84.121126 
L 197.946996 71.369275 
L 201.694249 57.441502 
L 205.543699 42.269923 
L 206.667875 37.674097 
L 206.667875 37.674097 
" clip-path="url(#p7dd9d57e23)" style="fill: none; stroke: #0072b2; stroke-width: 1.5; stroke-linecap: square"/>
   </g>
   <g id="LineCollection_1">
    <path d="M 67.167875 37.674097 
L 206.667875 37.674097 
" clip-path="url(#p7dd9d57e23)" style="fill: none; stroke: #0072b2; stroke-width: 1.5"/>
   </g>
   <g id="LineCollection_2">
    <path d="M 67.167875 181.40743 
L 136.917875 181.40743 
" clip-path="url(#p7dd9d57e23)" style="fill: none; stroke-dasharray: 5.55,2.4; stroke-dashoffset: 0; stroke: #808080; stroke-width: 1.5"/>
   </g>
   <g id="patch_2">
    <path d="M 57.867875 39.669906 
Q 57.867875 109.537318 57.867875 179.40473 
" style="fill: none; stroke: #000000; stroke-linecap: round"/>
    <path d="M 62.867875 39.669906 
L 62.867875 39.669906 
L 52.867875 39.669906 
L 52.867875 39.669906 
" style="fill: none; stroke: #000000; stroke-linecap: round"/>
    <path d="M 52.867875 179.40473 
L 52.867875 179.40473 
L 62.867875 179.40473 
L 62.867875 179.40473 
" style="fill: none; stroke: #000000; stroke-linecap: round"/>
   </g>
   <g id="patch_3">
    <path d="M 204.671247 27.40743 
Q 136.920372 27.40743 69.169496 27.40743 
" style="fill: none; stroke: #000000; stroke-linecap: round"/>
    <path d="M 204.671247 32.40743 
L 204.671247 32.40743 
L 204.671247 22.40743 
L 204.671247 22.40743 
" style="fill: none; stroke: #000000; stroke-linecap: round"/>
    <path d="M 69.169496 22.40743 
L 69.169496 22.40743 
L 69.169496 32.40743 
L 69.169496 32.40743 
" style="fill: none; stroke: #000000; stroke-linecap: round"/>
   </g>
   <g id="text_1">
    <!-- 70 cm -->
    <g transform="translate(7.2 114.521445) scale(0.2 -0.2)">
     <defs>
      <path id="CMSS17-37" d="M 1389 3776 
C 1466 3776 1542 3776 1619 3776 
L 2355 3776 
C 1440 2711 915 1365 915 -32 
L 1427 -32 
C 1427 1323 1875 2696 2752 3795 
L 2752 4209 
L 250 4209 
L 250 3776 
L 1389 3776 
z
" transform="scale(0.015625)"/>
      <path id="CMSS17-30" d="M 2758 2044 
C 2758 2405 2752 3077 2490 3596 
C 2227 4096 1805 4229 1504 4229 
C 1069 4229 698 3975 506 3570 
C 301 3146 243 2709 243 2044 
C 243 1589 262 1031 493 543 
C 755 5 1197 -128 1498 -128 
C 1894 -128 2278 81 2496 518 
C 2720 974 2758 1474 2758 2044 
z
M 1498 261 
C 1011 261 864 811 819 995 
C 742 1310 730 1614 730 2114 
C 730 2506 730 2948 851 3297 
C 998 3701 1254 3840 1498 3840 
C 1971 3840 2125 3372 2176 3208 
C 2272 2873 2272 2481 2272 2114 
C 2272 1526 2272 261 1498 261 
z
" transform="scale(0.015625)"/>
      <path id="CMSS17-63" d="M 2464 2541 
C 2464 2585 2170 2714 2093 2739 
C 1882 2816 1613 2816 1542 2816 
C 710 2816 211 2093 211 1363 
C 211 595 768 -64 1517 -64 
C 1946 -64 2253 76 2502 242 
L 2464 664 
C 2189 453 1869 337 1523 337 
C 1024 337 698 774 698 1369 
C 698 1831 909 2414 1549 2414 
C 1901 2414 2099 2343 2394 2145 
L 2464 2541 
z
" transform="scale(0.015625)"/>
      <path id="CMSS17-6d" d="M 4288 1877 
C 4288 2308 4179 2816 3462 2816 
C 2982 2816 2694 2516 2566 2331 
C 2451 2670 2182 2816 1798 2816 
C 1363 2816 1088 2568 941 2389 
L 941 2758 
L 474 2758 
L 474 0 
L 960 0 
L 960 1559 
C 960 1939 1101 2428 1555 2428 
C 2138 2428 2138 2016 2138 1829 
L 2138 0 
L 2624 0 
L 2624 1559 
C 2624 1939 2765 2428 3219 2428 
C 3802 2428 3802 2016 3802 1829 
L 3802 0 
L 4288 0 
L 4288 1877 
z
" transform="scale(0.015625)"/>
     </defs>
     <use xlink:href="#CMSS17-37" transform="scale(0.996264)"/>
     <use xlink:href="#CMSS17-30" transform="translate(46.843624 0) scale(0.996264)"/>
     <use xlink:href="#CMSS17-63" transform="translate(124.91636 0) scale(0.996264)"/>
     <use xlink:href="#CMSS17-6d" transform="translate(166.555182 0) scale(0.996264)"/>
    </g>
   </g>
   <g id="text_2">
    <!-- 150 cm -->
    <g transform="translate(108.155077 21.036997) scale(0.2 -0.2)">
     <defs>
      <path id="CMSS17-31" d="M 1818 4288 
L 1696 4288 
C 1350 3940 947 3890 538 3890 
L 538 3520 
C 723 3520 1024 3520 1325 3667 
L 1325 369 
L 570 369 
L 570 0 
L 2573 0 
L 2573 369 
L 1818 369 
L 1818 4288 
z
" transform="scale(0.015625)"/>
      <path id="CMSS17-35" d="M 934 3752 
L 2502 3752 
L 2502 4160 
L 467 4160 
L 467 1781 
L 896 1781 
C 1011 2046 1248 2240 1555 2240 
C 1843 2240 2163 1989 2163 1266 
C 2163 493 1709 267 1376 267 
C 966 267 589 512 422 851 
L 218 499 
C 512 49 992 -128 1376 -128 
C 2118 -128 2701 497 2701 1253 
C 2701 2030 2182 2629 1562 2629 
C 1338 2629 1120 2553 934 2399 
L 934 3752 
z
" transform="scale(0.015625)"/>
     </defs>
     <use xlink:href="#CMSS17-31" transform="scale(0.996264)"/>
     <use xlink:href="#CMSS17-35" transform="translate(46.843624 0) scale(0.996264)"/>
     <use xlink:href="#CMSS17-30" transform="translate(93.687247 0) scale(0.996264)"/>
     <use xlink:href="#CMSS17-63" transform="translate(171.759983 0) scale(0.996264)"/>
     <use xlink:href="#CMSS17-6d" transform="translate(213.398805 0) scale(0.996264)"/>
    </g>
   </g>
  </g>
 </g>
 <defs>
  <clipPath id="p7dd9d57e23">
   <rect x="48.567875" y="17.140764" width="167.4" height="166.32"/>
  </clipPath>
 </defs>
</svg>
