<?xml version="1.0" encoding="utf-8" standalone="no"?>
<!DOCTYPE svg PUBLIC "-//W3C//DTD SVG 1.1//EN"
  "http://www.w3.org/Graphics/SVG/1.1/DTD/svg11.dtd">
<svg xmlns:xlink="http://www.w3.org/1999/xlink" width="460.8pt" height="345.6pt" viewBox="0 0 460.8 345.6" xmlns="http://www.w3.org/2000/svg" version="1.1">
 <metadata>
  <rdf:RDF xmlns:dc="http://purl.org/dc/elements/1.1/" xmlns:cc="http://creativecommons.org/ns#" xmlns:rdf="http://www.w3.org/1999/02/22-rdf-syntax-ns#">
   <cc:Work>
    <dc:type rdf:resource="http://purl.org/dc/dcmitype/StillImage"/>
    <dc:date>2026-02-19T00:49:06.174456</dc:date>
    <dc:format>image/svg+xml</dc:format>
    <dc:creator>
     <cc:Agent>
      <dc:title>Matplotlib v3.9.1, https://matplotlib.org/</dc:title>
     </cc:Agent>
    </dc:creator>
   </cc:Work>
  </rdf:RDF>
 </metadata>
 <defs>
  <style type="text/css">*{stroke-linejoin: round; stroke-linecap: butt}</style>
 </defs>
 <g id="figure_1">
  <g id="patch_1">
   <path d="M 0 345.6 
L 460.8 345.6 
L 460.8 0 
L 0 0 
L 0 345.6 
z
" style="fill: none"/>
  </g>
  <g id="axes_1">
   <g id="patch_2">
    <path d="M 10.8 334.8 
L 447 334.8 
L 447 20.016315 
L 10.8 20.016315 
L 10.8 334.8 
z
" style="fill: none"/>
   </g>
   <g id="matplotlib.axis_1">
    <g id="text_1">
     <!-- $x$ -->
     <g transform="translate(435.913188 304.208738) scale(0.2 -0.2)">
      <defs>
       <path id="CMMI12-78" d="M 3034 2606 
C 2829 2567 2752 2414 2752 2293 
C 2752 2139 2874 2088 2963 2088 
C 3155 2088 3290 2254 3290 2427 
C 3290 2695 2982 2816 2714 2816 
C 2323 2816 2106 2433 2048 2312 
C 1901 2816 1504 2816 1389 2816 
C 736 2816 390 1980 390 1839 
C 390 1814 416 1782 461 1782 
C 512 1782 525 1820 538 1846 
C 755 2555 1184 2689 1370 2689 
C 1658 2689 1715 2420 1715 2267 
C 1715 2127 1677 1980 1600 1673 
L 1382 798 
C 1286 415 1101 64 762 64 
C 730 64 570 64 435 147 
C 666 192 717 383 717 460 
C 717 588 621 664 499 664 
C 346 664 179 530 179 326 
C 179 57 480 -64 755 -64 
C 1062 -64 1280 179 1414 441 
C 1517 64 1837 -64 2074 -64 
C 2726 -64 3072 773 3072 913 
C 3072 945 3046 971 3008 971 
C 2950 971 2944 939 2925 888 
C 2752 326 2381 64 2093 64 
C 1869 64 1747 230 1747 492 
C 1747 632 1773 734 1875 1156 
L 2099 2024 
C 2195 2408 2413 2689 2707 2689 
C 2720 2689 2899 2689 3034 2606 
z
" transform="scale(0.015625)"/>
      </defs>
      <use xlink:href="#CMMI12-78" transform="scale(0.996264)"/>
     </g>
    </g>
   </g>
   <g id="matplotlib.axis_2">
    <g id="text_2">
     <!-- $y$ -->
     <g transform="translate(69.987165 16.140682) scale(0.2 -0.2)">
      <defs>
       <path id="CMMI12-79" d="M 1683 -700 
C 1510 -939 1261 -1152 947 -1152 
C 870 -1152 563 -1152 467 -889 
C 486 -895 518 -895 531 -895 
C 723 -895 851 -729 851 -582 
C 851 -435 730 -384 634 -384 
C 531 -384 307 -458 307 -759 
C 307 -1071 582 -1286 947 -1286 
C 1587 -1286 2234 -700 2413 6 
L 3040 2485 
C 3046 2517 3059 2556 3059 2594 
C 3059 2689 2982 2753 2886 2753 
C 2829 2753 2694 2727 2643 2535 
L 2170 658 
C 2138 543 2138 530 2086 460 
C 1958 281 1747 64 1440 64 
C 1082 64 1050 415 1050 588 
C 1050 952 1222 1443 1395 1903 
C 1466 2088 1504 2178 1504 2305 
C 1504 2574 1312 2816 998 2816 
C 410 2816 173 1890 173 1839 
C 173 1814 198 1782 243 1782 
C 301 1782 307 1807 333 1897 
C 486 2433 730 2689 979 2689 
C 1037 2689 1146 2689 1146 2478 
C 1146 2312 1075 2127 979 1884 
C 666 1047 666 837 666 683 
C 666 77 1101 -64 1421 -64 
C 1606 -64 1837 -6 2061 230 
L 2067 224 
C 1971 -147 1907 -392 1683 -700 
z
" transform="scale(0.015625)"/>
      </defs>
      <use xlink:href="#CMMI12-79" transform="scale(0.996264)"/>
     </g>
    </g>
   </g>
   <g id="line2d_1">
    <defs>
     <path id="md18a25befd" d="M 3 0 
L -3 -3 
L -3 3 
z
" style="stroke: #000000; stroke-linejoin: miter"/>
    </defs>
    <g>
     <use xlink:href="#md18a25befd" x="447" y="286.371741" style="stroke: #000000; stroke-linejoin: miter"/>
    </g>
   </g>
   <g id="line2d_2">
    <defs>
     <path id="mbddf57eb08" d="M 0 -3 
L -3 3 
L 3 3 
z
" style="stroke: #000000; stroke-linejoin: miter"/>
    </defs>
    <g>
     <use xlink:href="#mbddf57eb08" x="83.5" y="20.016315" style="stroke: #000000; stroke-linejoin: miter"/>
    </g>
   </g>
   <g id="line2d_3">
    <path d="M 59.429954 -1 
L 65.70108 18.1156 
L 71.878118 36.23984 
L 77.948654 53.370341 
L 83.91269 69.542648 
L 89.770225 84.791681 
L 95.52126 99.151736 
L 101.192419 112.718803 
L 106.757077 125.458198 
L 112.215235 137.4025 
L 117.566893 148.583669 
L 122.812049 159.033039 
L 127.950705 168.781321 
L 133.009485 177.905395 
L 137.961765 186.383112 
L 142.807544 194.243468 
L 147.573448 201.554523 
L 152.232851 208.299805 
L 156.812379 214.541774 
L 161.285406 220.267556 
L 165.678557 225.534196 
L 169.991833 230.360984 
L 174.225233 234.766862 
L 178.378758 238.77042 
L 182.452408 242.389897 
L 186.446182 245.643183 
L 190.360081 248.547814 
L 194.220729 251.137906 
L 198.001502 253.409692 
L 201.729024 255.393036 
L 205.403296 257.098853 
L 209.024318 258.537898 
L 212.618715 259.728724 
L 216.186486 260.67659 
L 219.727632 261.38672 
L 223.242153 261.864297 
L 226.730049 262.114466 
L 230.217945 262.141696 
L 233.705841 261.945985 
L 237.193737 261.527335 
L 240.708259 260.879991 
L 244.22278 260.006291 
L 247.763926 258.897036 
L 251.358323 257.536093 
L 254.979344 255.92567 
L 258.653617 254.045955 
L 262.381139 251.886191 
L 266.161912 249.435467 
L 269.995935 246.682714 
L 273.883208 243.616708 
L 277.850357 240.20219 
L 281.897381 236.421741 
L 285.997656 232.285453 
L 290.177806 227.751431 
L 294.437832 222.801319 
L 298.804358 217.382307 
L 303.25076 211.505114 
L 307.777037 205.150214 
L 312.38319 198.29773 
L 317.095843 190.884409 
L 321.888372 182.928036 
L 326.787402 174.359811 
L 331.766307 165.201245 
L 336.851712 155.37781 
L 342.043618 144.859731 
L 347.3154 133.674392 
L 352.693682 121.738248 
L 358.178465 109.019808 
L 363.769749 95.486959 
L 369.467533 81.106963 
L 375.245193 65.917871 
L 381.129354 49.820041 
L 387.120015 32.779022 
L 393.217176 14.759737 
L 398.370046 -1 
L 398.370046 -1 
" clip-path="url(#p40f9fba2fe)" style="fill: none; stroke: #0072b2; stroke-width: 2.5; stroke-linecap: square"/>
   </g>
   <g id="line2d_4">
    <path d="M 10.8 310.58587 
L 447 20.016315 
" clip-path="url(#p40f9fba2fe)" style="fill: none; stroke: #dc5e8b; stroke-width: 2.5; stroke-linecap: square"/>
   </g>
   <g id="LineCollection_1">
    <path d="M 228.9 165.301093 
L 228.9 68.444574 
" clip-path="url(#p40f9fba2fe)" style="fill: none; stroke-dasharray: 9.25,4; stroke-dashoffset: 0; stroke: #808080; stroke-width: 2.5"/>
   </g>
   <g id="LineCollection_2">
    <path d="M 228.9 68.444574 
L 374.3 68.444574 
" clip-path="url(#p40f9fba2fe)" style="fill: none; stroke-dasharray: 9.25,4; stroke-dashoffset: 0; stroke: #808080; stroke-width: 2.5"/>
   </g>
   <g id="line2d_5">
    <defs>
     <path id="mda865dda91" d="M 0 5 
C 1.326016 5 2.597899 4.473168 3.535534 3.535534 
C 4.473168 2.597899 5 1.326016 5 0 
C 5 -1.326016 4.473168 -2.597899 3.535534 -3.535534 
C 2.597899 -4.473168 1.326016 -5 0 -5 
C -1.326016 -5 -2.597899 -4.473168 -3.535534 -3.535534 
C -4.473168 -2.597899 -5 -1.326016 -5 0 
C -5 1.326016 -4.473168 2.597899 -3.535534 3.535534 
C -2.597899 4.473168 -1.326016 5 0 5 
z
" style="stroke: #000000; stroke-opacity: 0.8"/>
    </defs>
    <g clip-path="url(#p40f9fba2fe)">
     <use xlink:href="#mda865dda91" x="156.2" y="213.729352" style="fill-opacity: 0.8; stroke: #000000; stroke-opacity: 0.8"/>
    </g>
   </g>
   <g id="line2d_6">
    <g clip-path="url(#p40f9fba2fe)">
     <use xlink:href="#mda865dda91" x="374.3" y="68.444574" style="fill-opacity: 0.8; stroke: #000000; stroke-opacity: 0.8"/>
    </g>
   </g>
   <g id="patch_3">
    <path d="M 83.5 334.8 
L 83.5 20.016315 
" style="fill: none; stroke: #000000; stroke-width: 0.8; stroke-linejoin: miter; stroke-linecap: square"/>
   </g>
   <g id="patch_4">
    <path d="M 447 334.8 
L 447 20.016315 
" style="fill: none"/>
   </g>
   <g id="patch_5">
    <path d="M 10.8 286.371741 
L 447 286.371741 
" style="fill: none; stroke: #000000; stroke-width: 0.8; stroke-linejoin: miter; stroke-linecap: square"/>
   </g>
   <g id="patch_6">
    <path d="M 10.8 20.016315 
L 447 20.016315 
" style="fill: none"/>
   </g>
   <g id="patch_7">
    <path d="M 177.014746 99.495177 
Q 197.258972 115.554564 224.66947 116.711354 
" style="fill: none; opacity: 0.7; stroke: #000000; stroke-width: 2; stroke-linecap: round"/>
    <path d="M 216.845244 112.377592 
L 224.66947 116.711354 
L 216.507925 120.370477 
" style="fill: none; opacity: 0.7; stroke: #000000; stroke-width: 2; stroke-linecap: round"/>
   </g>
   <g id="text_3">
    <g id="patch_8">
     <path d="M 105.31 97.481264 
L 199.912531 97.481264 
Q 207.912531 97.481264 207.912531 89.481264 
L 207.912531 47.407884 
Q 207.912531 39.407884 199.912531 39.407884 
L 105.31 39.407884 
Q 97.31 39.407884 97.31 47.407884 
L 97.31 89.481264 
Q 97.31 97.481264 105.31 97.481264 
z
" style="fill: #ffffff; stroke: #000000; stroke-width: 1.5; stroke-linejoin: miter"/>
    </g>
    <!-- $\displaystyle \frac{f(b) - f(a)}{b - a}$ -->
    <g transform="translate(105.31 75.813509) scale(0.2 -0.2)">
     <defs>
      <path id="CMMI12-66" d="M 2854 2566 
C 2982 2566 3034 2566 3034 2688 
C 3034 2752 2982 2752 2867 2752 
L 2349 2752 
C 2470 3429 2560 3897 2611 4107 
C 2650 4265 2784 4416 2950 4416 
C 3085 4416 3219 4358 3283 4298 
C 3034 4272 2957 4082 2957 3969 
C 2957 3837 3053 3759 3174 3759 
C 3302 3759 3494 3870 3494 4119 
C 3494 4393 3226 4544 2944 4544 
C 2669 4544 2400 4334 2272 4078 
C 2157 3848 2093 3611 1946 2752 
L 1517 2752 
C 1395 2752 1331 2752 1331 2637 
C 1331 2566 1370 2566 1498 2566 
L 1907 2566 
C 1792 1976 1530 542 1382 -137 
C 1274 -689 1178 -1152 858 -1152 
C 838 -1152 653 -1152 538 -1031 
C 864 -1005 864 -726 864 -720 
C 864 -593 768 -517 646 -517 
C 518 -517 326 -625 326 -867 
C 326 -1140 608 -1280 858 -1280 
C 1510 -1280 1779 -118 1850 199 
C 1965 688 2278 2376 2310 2566 
L 2854 2566 
z
" transform="scale(0.015625)"/>
      <path id="CMR17-28" d="M 1958 -1561 
C 1958 -1555 1958 -1542 1939 -1523 
C 1645 -1224 858 -407 858 1581 
C 858 3569 1632 4379 1946 4697 
C 1946 4704 1958 4717 1958 4736 
C 1958 4755 1939 4768 1914 4768 
C 1843 4768 1299 4296 986 3594 
C 666 2887 576 2199 576 1588 
C 576 1128 621 351 1005 -471 
C 1312 -1135 1837 -1600 1914 -1600 
C 1946 -1600 1958 -1587 1958 -1561 
z
" transform="scale(0.015625)"/>
      <path id="CMMI12-62" d="M 1478 4257 
C 1485 4283 1498 4321 1498 4352 
C 1498 4416 1434 4416 1421 4416 
C 1414 4416 1184 4393 1069 4377 
C 960 4377 864 4358 749 4358 
C 595 4345 550 4339 550 4224 
C 550 4160 614 4160 678 4160 
C 1005 4160 1005 4103 1005 4040 
C 1005 3996 954 3811 928 3696 
L 774 3085 
C 710 2831 346 1387 320 1272 
C 288 1114 288 1005 288 922 
C 288 274 653 -64 1069 -64 
C 1811 -64 2579 888 2579 1814 
C 2579 2401 2246 2816 1766 2816 
C 1434 2816 1133 2542 1011 2414 
L 1478 4257 
z
M 1075 64 
C 870 64 646 217 646 715 
C 646 926 666 1047 781 1494 
C 800 1577 902 1986 928 2069 
C 941 2120 1318 2689 1754 2689 
C 2035 2689 2163 2408 2163 2076 
C 2163 1769 1984 1047 1824 715 
C 1664 370 1370 64 1075 64 
z
" transform="scale(0.015625)"/>
      <path id="CMR17-29" d="M 1683 1581 
C 1683 2040 1638 2817 1254 3639 
C 947 4303 422 4768 346 4768 
C 326 4768 301 4761 301 4729 
C 301 4717 307 4710 314 4697 
C 621 4378 1402 3568 1402 1584 
C 1402 -407 627 -1217 314 -1537 
C 307 -1549 301 -1556 301 -1568 
C 301 -1600 326 -1600 346 -1600 
C 416 -1600 960 -1128 1274 -426 
C 1594 281 1683 969 1683 1581 
z
" transform="scale(0.015625)"/>
      <path id="CMSY10-0" d="M 4218 1472 
C 4326 1472 4442 1472 4442 1600 
C 4442 1728 4326 1728 4218 1728 
L 755 1728 
C 646 1728 531 1728 531 1600 
C 531 1472 646 1472 755 1472 
L 4218 1472 
z
" transform="scale(0.015625)"/>
      <path id="CMMI12-61" d="M 1926 760 
C 1894 651 1894 639 1805 517 
C 1664 338 1382 64 1082 64 
C 819 64 672 300 672 677 
C 672 1028 870 1743 992 2012 
C 1210 2459 1510 2689 1760 2689 
C 2182 2689 2266 2165 2266 2114 
C 2266 2108 2246 2024 2240 2012 
L 1926 760 
z
M 2336 2395 
C 2266 2561 2093 2816 1760 2816 
C 1037 2816 256 1884 256 939 
C 256 307 627 -64 1062 -64 
C 1414 -64 1715 211 1894 422 
C 1958 45 2259 -64 2451 -64 
C 2643 -64 2797 51 2912 281 
C 3014 498 3104 888 3104 913 
C 3104 945 3078 971 3040 971 
C 2982 971 2976 939 2950 843 
C 2854 466 2733 64 2470 64 
C 2285 64 2272 230 2272 358 
C 2272 505 2291 575 2349 824 
C 2394 984 2426 1124 2477 1309 
C 2714 2267 2771 2497 2771 2535 
C 2771 2625 2701 2695 2605 2695 
C 2400 2695 2349 2472 2336 2395 
z
" transform="scale(0.015625)"/>
     </defs>
     <use xlink:href="#CMMI12-66" transform="translate(0 67.398045) scale(0.996264)"/>
     <use xlink:href="#CMR17-28" transform="translate(58.720305 67.398045) scale(0.996264)"/>
     <use xlink:href="#CMMI12-62" transform="translate(94.001073 67.398045) scale(0.996264)"/>
     <use xlink:href="#CMR17-29" transform="translate(135.476947 67.398045) scale(0.996264)"/>
     <use xlink:href="#CMSY10-0" transform="translate(192.896922 67.398045) scale(0.996264)"/>
     <use xlink:href="#CMMI12-66" transform="translate(292.523596 67.398045) scale(0.996264)"/>
     <use xlink:href="#CMR17-28" transform="translate(351.243901 67.398045) scale(0.996264)"/>
     <use xlink:href="#CMMI12-61" transform="translate(386.524669 67.398045) scale(0.996264)"/>
     <use xlink:href="#CMR17-29" transform="translate(437.732526 67.398045) scale(0.996264)"/>
     <use xlink:href="#CMMI12-62" transform="translate(129.28184 -68.338837) scale(0.996264)"/>
     <use xlink:href="#CMSY10-0" transform="translate(192.896922 -68.338837) scale(0.996264)"/>
     <use xlink:href="#CMMI12-61" transform="translate(292.523596 -68.338837) scale(0.996264)"/>
     <path d="M 0 22.914133 
L 473.013294 22.914133 
L 473.013294 26.899083 
L 0 26.899083 
L 0 22.914133 
z
"/>
    </g>
   </g>
   <g id="text_4">
    <!-- $(a, f(a))$ -->
    <g transform="translate(162.743 218.710041) scale(0.2 -0.2)">
     <defs>
      <path id="CMMI12-3b" d="M 1248 -31 
C 1248 343 1126 619 864 619 
C 659 619 557 453 557 313 
C 557 172 653 0 870 0 
C 954 0 1024 26 1082 83 
C 1094 96 1101 96 1107 96 
C 1120 96 1120 5 1120 -27 
C 1120 -240 1082 -659 710 -1080 
C 640 -1157 640 -1170 640 -1183 
C 640 -1216 672 -1248 704 -1248 
C 755 -1248 1248 -771 1248 -31 
z
" transform="scale(0.015625)"/>
     </defs>
     <use xlink:href="#CMR17-28" transform="scale(0.996264)"/>
     <use xlink:href="#CMMI12-61" transform="translate(35.280768 0) scale(0.996264)"/>
     <use xlink:href="#CMMI12-3b" transform="translate(86.488625 0) scale(0.996264)"/>
     <use xlink:href="#CMMI12-66" transform="translate(130.190208 0) scale(0.996264)"/>
     <use xlink:href="#CMR17-28" transform="translate(188.910513 0) scale(0.996264)"/>
     <use xlink:href="#CMMI12-61" transform="translate(224.19128 0) scale(0.996264)"/>
     <use xlink:href="#CMR17-29" transform="translate(275.399138 0) scale(0.996264)"/>
     <use xlink:href="#CMR17-29" transform="translate(310.679906 0) scale(0.996264)"/>
    </g>
   </g>
   <g id="text_5">
    <!-- $(b, f(b))$ -->
    <g transform="translate(380.843 73.425264) scale(0.2 -0.2)">
     <use xlink:href="#CMR17-28" transform="scale(0.996264)"/>
     <use xlink:href="#CMMI12-62" transform="translate(35.280768 0) scale(0.996264)"/>
     <use xlink:href="#CMMI12-3b" transform="translate(76.756642 0) scale(0.996264)"/>
     <use xlink:href="#CMMI12-66" transform="translate(120.458224 0) scale(0.996264)"/>
     <use xlink:href="#CMR17-28" transform="translate(179.178529 0) scale(0.996264)"/>
     <use xlink:href="#CMMI12-62" transform="translate(214.459297 0) scale(0.996264)"/>
     <use xlink:href="#CMR17-29" transform="translate(255.935171 0) scale(0.996264)"/>
     <use xlink:href="#CMR17-29" transform="translate(291.215939 0) scale(0.996264)"/>
    </g>
   </g>
   <g id="text_6">
    <!-- $1$ -->
    <g transform="translate(297.030952 59.847186) scale(0.2 -0.2)">
     <defs>
      <path id="CMR17-31" d="M 1702 4058 
C 1702 4192 1696 4192 1606 4192 
C 1357 3916 979 3827 621 3827 
C 602 3827 570 3827 563 3808 
C 557 3795 557 3782 557 3648 
C 755 3648 1088 3686 1344 3839 
L 1344 461 
C 1344 236 1331 160 781 160 
L 589 160 
L 589 0 
C 896 0 1216 0 1523 0 
C 1830 0 2150 0 2458 0 
L 2458 160 
L 2266 160 
C 1715 160 1702 230 1702 458 
L 1702 4058 
z
" transform="scale(0.015625)"/>
     </defs>
     <use xlink:href="#CMR17-31" transform="scale(0.996264)"/>
    </g>
   </g>
   <g id="legend_1">
    <g id="patch_9">
     <path d="M 359.383352 324.8 
L 433 324.8 
Q 437 324.8 437 320.8 
L 437 294.924366 
Q 437 290.924366 433 290.924366 
L 359.383352 290.924366 
Q 355.383352 290.924366 355.383352 294.924366 
L 355.383352 320.8 
Q 355.383352 324.8 359.383352 324.8 
z
" style="fill: #ffffff; opacity: 0.8; stroke: #cccccc; stroke-linejoin: miter"/>
    </g>
    <g id="line2d_7">
     <path d="M 363.383352 305.924366 
L 383.383352 305.924366 
L 403.383352 305.924366 
" style="fill: none; stroke: #0072b2; stroke-width: 2.5; stroke-linecap: square"/>
    </g>
    <g id="text_7">
     <!-- $f$ -->
     <g transform="translate(419.383352 312.924366) scale(0.2 -0.2)">
      <use xlink:href="#CMMI12-66" transform="scale(0.996264)"/>
     </g>
    </g>
   </g>
  </g>
 </g>
 <defs>
  <clipPath id="p40f9fba2fe">
   <rect x="10.8" y="20.016315" width="436.2" height="314.783685"/>
  </clipPath>
 </defs>
</svg>
