<?xml version="1.0" encoding="utf-8" standalone="no"?>
<!DOCTYPE svg PUBLIC "-//W3C//DTD SVG 1.1//EN"
  "http://www.w3.org/Graphics/SVG/1.1/DTD/svg11.dtd">
<svg xmlns:xlink="http://www.w3.org/1999/xlink" width="432pt" height="432pt" viewBox="0 0 432 432" xmlns="http://www.w3.org/2000/svg" version="1.1">
 <metadata>
  <rdf:RDF xmlns:dc="http://purl.org/dc/elements/1.1/" xmlns:cc="http://creativecommons.org/ns#" xmlns:rdf="http://www.w3.org/1999/02/22-rdf-syntax-ns#">
   <cc:Work>
    <dc:type rdf:resource="http://purl.org/dc/dcmitype/StillImage"/>
    <dc:date>2026-04-20T16:33:14.907531</dc:date>
    <dc:format>image/svg+xml</dc:format>
    <dc:creator>
     <cc:Agent>
      <dc:title>Matplotlib v3.10.8, https://matplotlib.org/</dc:title>
     </cc:Agent>
    </dc:creator>
   </cc:Work>
  </rdf:RDF>
 </metadata>
 <defs>
  <style type="text/css">*{stroke-linejoin: round; stroke-linecap: butt}</style>
 </defs>
 <g id="figure_1">
  <g id="patch_1">
   <path d="M 0 432 
L 432 432 
L 432 0 
L 0 0 
L 0 432 
z
" style="fill: none"/>
  </g>
  <g id="axes_1">
   <g id="line2d_1">
    <path d="M 30.0234 324.401432 
L 246.826265 324.401432 
" clip-path="url(#p0784709216)" style="fill: none; stroke: #0072b2; stroke-width: 2.5; stroke-linecap: square"/>
   </g>
   <g id="line2d_2">
    <path d="M 246.826265 324.401432 
L 405.536977 107.598568 
" clip-path="url(#p0784709216)" style="fill: none; stroke: #0072b2; stroke-width: 2.5; stroke-linecap: square"/>
   </g>
   <g id="line2d_3">
    <path d="M 405.536977 107.598568 
L 30.0234 324.401432 
" clip-path="url(#p0784709216)" style="fill: none; stroke: #0072b2; stroke-width: 2.5; stroke-linecap: square"/>
   </g>
   <g id="line2d_4">
    <path d="M 52.231192 324.401432 
L 52.229871 324.159188 
L 52.225907 323.916972 
L 52.219302 323.674814 
L 52.210055 323.432742 
L 52.198169 323.190786 
L 52.183643 322.948973 
L 52.166481 322.707334 
L 52.146685 322.465896 
L 52.124255 322.224688 
L 52.099196 321.98374 
L 52.071511 321.743079 
L 52.041201 321.502734 
L 52.008272 321.262734 
L 51.972727 321.023108 
L 51.93457 320.783884 
L 51.893806 320.54509 
L 51.850439 320.306755 
L 51.804476 320.068907 
L 51.75592 319.831575 
L 51.704779 319.594787 
L 51.651057 319.35857 
L 51.594763 319.122954 
L 51.535901 318.887965 
L 51.47448 318.653633 
L 51.410506 318.419985 
L 51.343988 318.187048 
L 51.274932 317.954851 
L 51.203348 317.723421 
L 51.129243 317.492785 
L 51.052627 317.262972 
L 50.973509 317.034008 
L 50.891898 316.80592 
L 50.807804 316.578737 
L 50.721237 316.352484 
L 50.632207 316.127189 
L 50.540725 315.902878 
L 50.446801 315.679579 
L 50.350447 315.457318 
L 50.251674 315.236121 
L 50.150495 315.016014 
L 50.04692 314.797024 
L 49.940963 314.579177 
L 49.832636 314.362499 
L 49.721952 314.147015 
L 49.608924 313.932752 
L 49.493565 313.719734 
L 49.37589 313.507987 
L 49.255912 313.297536 
" clip-path="url(#p0784709216)" style="fill: none; stroke: #dc5e8b; stroke-width: 2; stroke-linecap: square"/>
   </g>
   <g id="line2d_5">
    <path d="M 224.618473 324.401432 
L 224.641852 323.382679 
L 224.711941 322.36607 
L 224.828591 321.353747 
L 224.991558 320.347841 
L 225.200498 319.350469 
L 225.454971 318.363733 
L 225.754441 317.389709 
L 226.098278 316.430448 
L 226.485758 315.48797 
L 226.916065 314.564259 
L 227.388293 313.661261 
L 227.901448 312.780876 
L 228.454449 311.924958 
L 229.046132 311.095309 
L 229.675251 310.293677 
L 230.340482 309.521749 
L 231.040423 308.781149 
L 231.773602 308.073439 
L 232.538474 307.400107 
L 233.33343 306.762571 
L 234.156794 306.162174 
L 235.006834 305.60018 
L 235.88176 305.077772 
L 236.77973 304.59605 
L 237.698852 304.156029 
L 238.637193 303.758634 
L 239.592776 303.404703 
L 240.563588 303.09498 
L 241.547587 302.830118 
L 242.5427 302.610675 
L 243.546833 302.437112 
L 244.55787 302.309796 
L 245.573683 302.228993 
L 246.592133 302.194875 
L 247.611077 302.207512 
L 248.628368 302.266879 
L 249.641865 302.37285 
L 250.649433 302.525203 
L 251.648952 302.723616 
L 252.638316 302.967672 
L 253.615444 303.256857 
L 254.578276 303.590561 
L 255.524787 303.968084 
L 256.452983 304.388628 
L 257.36091 304.85131 
L 258.246656 305.355154 
L 259.108356 305.899101 
L 259.944197 306.482004 
" clip-path="url(#p0784709216)" style="fill: none; stroke: #dc5e8b; stroke-width: 2; stroke-linecap: square"/>
   </g>
   <g id="line2d_6">
    <path d="M 386.304465 118.702464 
L 386.401252 118.868441 
L 386.49947 119.033574 
L 386.599114 119.197851 
L 386.700176 119.361261 
L 386.802647 119.523789 
L 386.906521 119.685425 
L 387.011789 119.846157 
L 387.118444 120.005971 
L 387.226478 120.164857 
L 387.335882 120.322803 
L 387.446648 120.479795 
L 387.558769 120.635824 
L 387.672235 120.790877 
L 387.787039 120.944942 
L 387.903171 121.098009 
L 388.020623 121.250064 
L 388.139386 121.401098 
L 388.259452 121.551099 
L 388.38081 121.700056 
L 388.503453 121.847957 
L 388.627371 121.994791 
L 388.752555 122.140548 
L 388.878995 122.285216 
L 389.006681 122.428785 
L 389.135606 122.571244 
L 389.265758 122.712582 
L 389.397127 122.852789 
L 389.529705 122.991854 
L 389.663481 123.129767 
L 389.798445 123.266517 
L 389.934588 123.402095 
L 390.071898 123.536489 
L 390.210366 123.669691 
L 390.349981 123.80169 
L 390.490732 123.932475 
L 390.63261 124.062039 
L 390.775604 124.19037 
L 390.919702 124.317458 
L 391.064895 124.443296 
L 391.211171 124.567873 
L 391.358519 124.691179 
L 391.506929 124.813206 
L 391.656388 124.933944 
L 391.806887 125.053385 
L 391.958414 125.17152 
L 392.110956 125.288339 
L 392.264504 125.403833 
L 392.419045 125.517996 
" clip-path="url(#p0784709216)" style="fill: none; stroke: #dc5e8b; stroke-width: 2; stroke-linecap: square"/>
   </g>
   <g id="text_1">
    <!-- $3$ -->
    <g transform="translate(134.312689 339.543791) scale(0.18 -0.18)">
     <defs>
      <path id="CMR17-33" d="M 1414 2157 
C 1984 2157 2234 1662 2234 1090 
C 2234 320 1824 25 1453 25 
C 1114 25 563 194 390 693 
C 422 680 454 680 486 680 
C 640 680 755 782 755 948 
C 755 1133 614 1216 486 1216 
C 378 1216 211 1165 211 926 
C 211 335 787 -128 1466 -128 
C 2176 -128 2720 430 2720 1085 
C 2720 1707 2208 2157 1600 2227 
C 2086 2328 2554 2756 2554 3329 
C 2554 3820 2048 4179 1472 4179 
C 890 4179 378 3829 378 3329 
C 378 3110 544 3072 627 3072 
C 762 3072 877 3155 877 3321 
C 877 3486 762 3569 627 3569 
C 602 3569 570 3569 544 3557 
C 730 3959 1235 4032 1459 4032 
C 1683 4032 2106 3925 2106 3320 
C 2106 3143 2080 2828 1862 2550 
C 1670 2304 1453 2304 1242 2284 
C 1210 2284 1062 2269 1037 2269 
C 992 2263 966 2257 966 2208 
C 966 2163 973 2157 1101 2157 
L 1414 2157 
z
" transform="scale(0.015625)"/>
     </defs>
     <use xlink:href="#CMR17-33" transform="scale(0.996264)"/>
    </g>
   </g>
   <g id="text_2">
    <!-- $3 \sqrt{5 - 2 \sqrt{3}}$ -->
    <g transform="translate(290.937046 229.568296) scale(0.18 -0.18)">
     <defs>
      <path id="CMEX10-70" d="M 2714 -7424 
C 2912 -7424 2918 -7418 2982 -7296 
L 6483 13 
C 6528 96 6528 109 6528 128 
C 6528 198 6477 256 6400 256 
C 6317 256 6291 198 6259 128 
L 2957 -6758 
L 1594 -3584 
L 704 -4269 
L 800 -4371 
L 1254 -4026 
L 2714 -7424 
z
" transform="scale(0.015625)"/>
      <path id="CMR17-35" d="M 730 3692 
C 794 3666 1056 3584 1325 3584 
C 1920 3584 2246 3911 2432 4100 
C 2432 4157 2432 4192 2394 4192 
C 2387 4192 2374 4192 2323 4163 
C 2099 4058 1837 3973 1517 3973 
C 1325 3973 1037 3999 723 4139 
C 653 4171 640 4171 634 4171 
C 602 4171 595 4164 595 4037 
L 595 2203 
C 595 2089 595 2057 659 2057 
C 691 2057 704 2070 736 2114 
C 941 2401 1222 2522 1542 2522 
C 1766 2522 2246 2382 2246 1289 
C 2246 1085 2246 715 2054 421 
C 1894 159 1645 25 1370 25 
C 947 25 518 320 403 814 
C 429 807 480 795 506 795 
C 589 795 749 840 749 1038 
C 749 1210 627 1280 506 1280 
C 358 1280 262 1190 262 1011 
C 262 454 704 -128 1382 -128 
C 2042 -128 2669 440 2669 1264 
C 2669 2030 2170 2624 1549 2624 
C 1222 2624 947 2503 730 2274 
L 730 3692 
z
" transform="scale(0.015625)"/>
      <path id="CMSY10-0" d="M 4218 1472 
C 4326 1472 4442 1472 4442 1600 
C 4442 1728 4326 1728 4218 1728 
L 755 1728 
C 646 1728 531 1728 531 1600 
C 531 1472 646 1472 755 1472 
L 4218 1472 
z
" transform="scale(0.015625)"/>
      <path id="CMR17-32" d="M 2669 989 
L 2554 989 
C 2490 536 2438 459 2413 420 
C 2381 369 1920 369 1830 369 
L 602 369 
C 832 619 1280 1072 1824 1597 
C 2214 1967 2669 2402 2669 3035 
C 2669 3790 2067 4224 1395 4224 
C 691 4224 262 3604 262 3030 
C 262 2780 448 2748 525 2748 
C 589 2748 781 2787 781 3010 
C 781 3207 614 3264 525 3264 
C 486 3264 448 3258 422 3245 
C 544 3790 915 4058 1306 4058 
C 1862 4058 2227 3617 2227 3035 
C 2227 2479 1901 2000 1536 1584 
L 262 146 
L 262 0 
L 2515 0 
L 2669 989 
z
" transform="scale(0.015625)"/>
      <path id="CMSY10-70" d="M 2490 -5472 
L 1363 -2982 
C 1318 -2880 1286 -2880 1267 -2880 
C 1261 -2880 1229 -2880 1158 -2931 
L 550 -3392 
C 467 -3456 467 -3475 467 -3494 
C 467 -3526 486 -3565 531 -3565 
C 570 -3565 678 -3475 749 -3424 
C 787 -3393 883 -3323 954 -3271 
L 2214 -6042 
C 2259 -6144 2291 -6144 2349 -6144 
C 2445 -6144 2464 -6106 2509 -6016 
L 5414 0 
C 5459 90 5459 115 5459 128 
C 5459 192 5408 256 5331 256 
C 5280 256 5235 224 5184 122 
L 2490 -5472 
z
" transform="scale(0.015625)"/>
     </defs>
     <use xlink:href="#CMR17-33" transform="scale(0.996264)"/>
     <use xlink:href="#CMEX10-70" transform="translate(45.690477 98.860262) scale(0.996264)"/>
     <use xlink:href="#CMR17-35" transform="translate(145.317152 0) scale(0.996264)"/>
     <use xlink:href="#CMSY10-0" transform="translate(213.146836 0) scale(0.996264)"/>
     <use xlink:href="#CMR17-32" transform="translate(312.77351 0) scale(0.996264)"/>
     <use xlink:href="#CMSY10-70" transform="translate(358.463988 82.421465) scale(0.996264)"/>
     <use xlink:href="#CMR17-33" transform="translate(441.486242 0) scale(0.996264)"/>
     <path d="M 145.317152 98.860262 
L 487.176719 98.860262 
L 487.176719 102.845211 
L 145.317152 102.845211 
L 145.317152 98.860262 
z
"/>
     <path d="M 441.486242 82.421465 
L 487.176719 82.421465 
L 487.176719 86.406414 
L 441.486242 86.406414 
L 441.486242 82.421465 
z
"/>
    </g>
   </g>
   <g id="text_3">
    <!-- $6$ -->
    <g transform="translate(208.338175 211.251012) scale(0.18 -0.18)">
     <defs>
      <path id="CMR17-36" d="M 678 2176 
C 678 3690 1395 4032 1811 4032 
C 1946 4032 2272 4009 2400 3776 
C 2298 3776 2106 3776 2106 3553 
C 2106 3381 2246 3323 2336 3323 
C 2394 3323 2566 3348 2566 3560 
C 2566 3954 2246 4179 1805 4179 
C 1043 4179 243 3390 243 1984 
C 243 253 966 -128 1478 -128 
C 2099 -128 2688 427 2688 1283 
C 2688 2081 2170 2662 1517 2662 
C 1126 2662 838 2407 678 1960 
L 678 2176 
z
M 1478 25 
C 691 25 691 1200 691 1436 
C 691 1896 909 2560 1504 2560 
C 1613 2560 1926 2560 2138 2120 
C 2253 1870 2253 1609 2253 1289 
C 2253 944 2253 690 2118 434 
C 1978 171 1773 25 1478 25 
z
" transform="scale(0.015625)"/>
     </defs>
     <use xlink:href="#CMR17-36" transform="scale(0.996264)"/>
    </g>
   </g>
   <g id="text_4">
    <!-- $A$ -->
    <g transform="translate(3.550548 334.213921) scale(0.18 -0.18)">
     <defs>
      <path id="CMMI12-41" d="M 1088 691 
C 864 314 646 186 339 186 
C 269 180 218 180 218 58 
C 218 24 250 0 294 0 
C 410 0 698 0 813 0 
C 998 0 1203 0 1382 0 
C 1421 0 1498 0 1498 122 
C 1498 180 1446 186 1408 186 
C 1261 186 1139 236 1139 388 
C 1139 476 1178 546 1261 685 
L 1747 1479 
L 3379 1479 
C 3386 1423 3386 1373 3392 1316 
C 3411 1152 3488 495 3488 376 
C 3488 186 3162 186 3059 186 
C 2989 186 2918 186 2918 70 
C 2918 0 2976 0 3014 0 
C 3123 0 3251 0 3360 0 
L 3725 0 
C 4115 0 4397 0 4403 0 
C 4448 0 4518 0 4518 122 
C 4518 186 4461 186 4365 186 
C 4013 186 4006 244 3987 434 
L 3597 4404 
C 3584 4531 3558 4544 3488 4544 
C 3424 4544 3386 4531 3328 4435 
L 1088 691 
z
M 1856 1664 
L 3142 3819 
L 3360 1664 
L 1856 1664 
z
" transform="scale(0.015625)"/>
     </defs>
     <use xlink:href="#CMMI12-41" transform="scale(0.996264)"/>
    </g>
   </g>
   <g id="text_5">
    <!-- $B$ -->
    <g transform="translate(244.97888 338.390634) scale(0.18 -0.18)">
     <defs>
      <path id="CMMI12-42" d="M 2342 3921 
C 2400 4160 2426 4160 2675 4160 
L 3507 4160 
C 4230 4160 4230 3544 4230 3485 
C 4230 2966 3712 2304 2867 2304 
L 1946 2304 
L 2342 3921 
z
M 3424 2275 
C 4122 2402 4755 2886 4755 3473 
C 4755 3970 4314 4352 3590 4352 
L 1536 4352 
C 1414 4352 1357 4352 1357 4226 
C 1357 4160 1414 4160 1510 4160 
C 1901 4160 1901 4112 1901 4044 
C 1901 4032 1901 3993 1875 3897 
L 1011 472 
C 954 249 941 185 493 185 
C 371 185 307 185 307 70 
C 307 0 346 0 474 0 
L 2669 0 
C 3648 0 4403 739 4403 1383 
C 4403 1906 3942 2224 3424 2275 
z
M 2515 185 
L 1651 185 
C 1562 185 1549 185 1510 192 
C 1440 198 1434 211 1434 261 
C 1434 305 1446 343 1459 399 
L 1907 2176 
L 3110 2176 
C 3866 2176 3866 1483 3866 1433 
C 3866 828 3309 185 2515 185 
z
" transform="scale(0.015625)"/>
     </defs>
     <use xlink:href="#CMMI12-42" transform="scale(0.996264)"/>
    </g>
   </g>
   <g id="text_6">
    <!-- $C$ -->
    <g transform="translate(415.124783 97.844176) scale(0.18 -0.18)">
     <defs>
      <path id="CMMI12-43" d="M 4781 4423 
C 4781 4480 4736 4480 4723 4480 
C 4710 4480 4685 4480 4634 4416 
L 4192 3882 
C 3968 4264 3616 4480 3136 4480 
C 1754 4480 320 3088 320 1595 
C 320 533 1069 -128 2003 -128 
C 2515 -128 2963 88 3334 400 
C 3891 863 4058 1481 4058 1531 
C 4058 1588 4006 1588 3987 1588 
C 3930 1588 3923 1550 3910 1524 
C 3616 534 2752 57 2112 57 
C 1434 57 845 489 845 1391 
C 845 1595 909 2700 1632 3532 
C 1984 3939 2586 4295 3194 4295 
C 3898 4295 4211 3717 4211 3068 
C 4211 2903 4192 2764 4192 2738 
C 4192 2681 4256 2681 4275 2681 
C 4346 2681 4352 2687 4378 2801 
L 4781 4423 
z
" transform="scale(0.015625)"/>
     </defs>
     <use xlink:href="#CMMI12-43" transform="scale(0.996264)"/>
    </g>
   </g>
  </g>
 </g>
 <defs>
  <clipPath id="p0784709216">
   <rect x="18.285783" y="10.8" width="398.988811" height="410.4"/>
  </clipPath>
 </defs>
</svg>
