<?xml version="1.0" encoding="utf-8" standalone="no"?>
<!DOCTYPE svg PUBLIC "-//W3C//DTD SVG 1.1//EN"
  "http://www.w3.org/Graphics/SVG/1.1/DTD/svg11.dtd">
<svg xmlns:xlink="http://www.w3.org/1999/xlink" width="432pt" height="432pt" viewBox="0 0 432 432" xmlns="http://www.w3.org/2000/svg" version="1.1">
 <metadata>
  <rdf:RDF xmlns:dc="http://purl.org/dc/elements/1.1/" xmlns:cc="http://creativecommons.org/ns#" xmlns:rdf="http://www.w3.org/1999/02/22-rdf-syntax-ns#">
   <cc:Work>
    <dc:type rdf:resource="http://purl.org/dc/dcmitype/StillImage"/>
    <dc:date>2026-04-09T14:20:11.295684</dc:date>
    <dc:format>image/svg+xml</dc:format>
    <dc:creator>
     <cc:Agent>
      <dc:title>Matplotlib v3.10.8, https://matplotlib.org/</dc:title>
     </cc:Agent>
    </dc:creator>
   </cc:Work>
  </rdf:RDF>
 </metadata>
 <defs>
  <style type="text/css">*{stroke-linejoin: round; stroke-linecap: butt}</style>
 </defs>
 <g id="figure_1">
  <g id="patch_1">
   <path d="M 0 432 
L 432 432 
L 432 0 
L 0 0 
L 0 432 
z
" style="fill: none"/>
  </g>
  <g id="axes_1">
   <g id="line2d_1">
    <path d="M 30.245929 393.018798 
L 405.759506 393.018798 
" clip-path="url(#p3cf7121a99)" style="fill: none; stroke: #0072b2; stroke-width: 3; stroke-linecap: square"/>
   </g>
   <g id="line2d_2">
    <path d="M 405.759506 393.018798 
L 384.283525 38.981202 
" clip-path="url(#p3cf7121a99)" style="fill: none; stroke: #0072b2; stroke-width: 3; stroke-linecap: square"/>
   </g>
   <g id="line2d_3">
    <path d="M 384.283525 38.981202 
L 30.245929 393.018798 
" clip-path="url(#p3cf7121a99)" style="fill: none; stroke: #0072b2; stroke-width: 3; stroke-linecap: square"/>
   </g>
   <g id="line2d_4">
    <path d="M 119.077098 393.018798 
L 119.065207 391.565366 
L 119.029537 390.112324 
L 118.970097 388.660059 
L 118.886904 387.208962 
L 118.779979 385.759419 
L 118.649352 384.311821 
L 118.495056 382.866553 
L 118.317135 381.424004 
L 118.115635 379.984558 
L 117.890609 378.548603 
L 117.64212 377.116521 
L 117.370232 375.688697 
L 117.075019 374.265512 
L 116.756559 372.847348 
L 116.414939 371.434585 
L 116.050249 370.0276 
L 115.662587 368.62677 
L 115.252058 367.232471 
L 114.81877 365.845075 
L 114.362839 364.464955 
L 113.884389 363.092479 
L 113.383546 361.728014 
L 112.860446 360.371928 
L 112.315228 359.024581 
L 111.748038 357.686336 
L 111.159027 356.35755 
L 110.548355 355.038579 
L 109.916183 353.729777 
L 109.262682 352.431493 
L 108.588026 351.144075 
L 107.892396 349.867868 
L 107.175978 348.603214 
L 106.438964 347.35045 
L 105.681551 346.109914 
L 104.903943 344.881935 
L 104.106347 343.666845 
L 103.288976 342.464967 
L 102.45205 341.276623 
L 101.595793 340.102132 
L 100.720434 338.941809 
L 99.826207 337.795963 
L 98.913351 336.664901 
L 97.982112 335.548927 
L 97.032738 334.448339 
L 96.065484 333.363431 
L 95.080608 332.294495 
L 94.078374 331.241816 
L 93.059051 330.205676 
" clip-path="url(#p3cf7121a99)" style="fill: none; stroke: #dc5e8b; stroke-width: 2.4; stroke-linecap: square"/>
   </g>
   <g id="line2d_5">
    <path d="M 316.928338 393.018798 
L 316.972301 390.224389 
L 317.104148 387.432746 
L 317.323748 384.646633 
L 317.630883 381.868806 
L 318.02525 379.102016 
L 318.506458 376.349001 
L 319.074031 373.612486 
L 319.727407 370.89518 
L 320.46594 368.199772 
L 321.288898 365.52893 
L 322.195466 362.885299 
L 323.184748 360.271494 
L 324.255765 357.690104 
L 325.407455 355.143682 
L 326.638679 352.63475 
L 327.948219 350.165791 
L 329.334779 347.739249 
L 330.796985 345.357526 
L 332.33339 343.022978 
L 333.942474 340.737918 
L 335.622644 338.504606 
L 337.372237 336.325253 
L 339.189522 334.202017 
L 341.072698 332.136999 
L 343.019903 330.132243 
L 345.029209 328.189734 
L 347.098627 326.311394 
L 349.226109 324.499082 
L 351.409549 322.754592 
L 353.646785 321.079651 
L 355.935604 319.475917 
L 358.273739 317.944978 
L 360.658877 316.488348 
L 363.088656 315.107469 
L 365.560672 313.803709 
L 368.072478 312.578358 
L 370.621587 311.432628 
L 373.205476 310.367654 
L 375.821588 309.384489 
L 378.467333 308.484108 
L 381.140092 307.667401 
L 383.83722 306.935176 
L 386.556048 306.288159 
L 389.293883 305.72699 
L 392.048016 305.252223 
L 394.815722 304.864331 
L 397.594259 304.563695 
L 400.380879 304.350614 
" clip-path="url(#p3cf7121a99)" style="fill: none; stroke: #dc5e8b; stroke-width: 2.4; stroke-linecap: square"/>
   </g>
   <g id="line2d_6">
    <path d="M 321.470403 101.794324 
L 322.587162 102.891572 
L 323.723085 103.968967 
L 324.877819 105.026176 
L 326.051006 106.062871 
L 327.242281 107.078728 
L 328.451274 108.073433 
L 329.67761 109.046676 
L 330.920908 109.998155 
L 332.180781 110.927575 
L 333.456838 111.834647 
L 334.748684 112.71909 
L 336.055916 113.580627 
L 337.378128 114.418993 
L 338.71491 115.233926 
L 340.065847 116.025173 
L 341.430518 116.792489 
L 342.808501 117.535635 
L 344.199367 118.25438 
L 345.602683 118.948502 
L 347.018015 119.617784 
L 348.444922 120.262018 
L 349.882962 120.881005 
L 351.331687 121.474553 
L 352.790647 122.042476 
L 354.25939 122.584598 
L 355.737459 123.100752 
L 357.224395 123.590776 
L 358.719736 124.054519 
L 360.223018 124.491836 
L 361.733773 124.902592 
L 363.251533 125.286659 
L 364.775826 125.643917 
L 366.306178 125.974257 
L 367.842114 126.277574 
L 369.383158 126.553775 
L 370.92883 126.802775 
L 372.47865 127.024495 
L 374.032137 127.218867 
L 375.588808 127.385831 
L 377.14818 127.525335 
L 378.709769 127.637334 
L 380.273088 127.721796 
L 381.837654 127.778692 
L 383.402979 127.808007 
L 384.968578 127.809729 
L 386.533964 127.78386 
L 388.09865 127.730407 
L 389.662152 127.649386 
" clip-path="url(#p3cf7121a99)" style="fill: none; stroke: #dc5e8b; stroke-width: 2.4; stroke-linecap: square"/>
   </g>
   <g id="text_1">
    <!-- $c$ -->
    <g transform="translate(212.334984 410.402461) scale(0.27 -0.27)">
     <defs>
      <path id="CMMI12-63" d="M 2502 2431 
C 2381 2431 2323 2431 2234 2355 
C 2195 2323 2125 2227 2125 2125 
C 2125 1997 2221 1920 2342 1920 
C 2496 1920 2669 2044 2669 2292 
C 2669 2588 2374 2816 1933 2816 
C 1094 2816 256 1903 256 996 
C 256 441 602 -64 1254 -64 
C 2125 -64 2675 622 2675 706 
C 2675 744 2637 776 2611 776 
C 2592 776 2586 770 2528 713 
C 2118 162 1510 64 1267 64 
C 826 64 685 446 685 764 
C 685 988 794 1605 1024 2039 
C 1190 2338 1536 2682 1939 2682 
C 2022 2682 2374 2682 2502 2431 
z
" transform="scale(0.015625)"/>
     </defs>
     <use xlink:href="#CMMI12-63" transform="scale(0.996264)"/>
    </g>
   </g>
   <g id="text_2">
    <!-- $a$ -->
    <g transform="translate(398.748642 222.078488) scale(0.27 -0.27)">
     <defs>
      <path id="CMMI12-61" d="M 1926 760 
C 1894 651 1894 639 1805 517 
C 1664 338 1382 64 1082 64 
C 819 64 672 300 672 677 
C 672 1028 870 1743 992 2012 
C 1210 2459 1510 2689 1760 2689 
C 2182 2689 2266 2165 2266 2114 
C 2266 2108 2246 2024 2240 2012 
L 1926 760 
z
M 2336 2395 
C 2266 2561 2093 2816 1760 2816 
C 1037 2816 256 1884 256 939 
C 256 307 627 -64 1062 -64 
C 1414 -64 1715 211 1894 422 
C 1958 45 2259 -64 2451 -64 
C 2643 -64 2797 51 2912 281 
C 3014 498 3104 888 3104 913 
C 3104 945 3078 971 3040 971 
C 2982 971 2976 939 2950 843 
C 2854 466 2733 64 2470 64 
C 2285 64 2272 230 2272 358 
C 2272 505 2291 575 2349 824 
C 2394 984 2426 1124 2477 1309 
C 2714 2267 2771 2497 2771 2535 
C 2771 2625 2701 2695 2605 2695 
C 2400 2695 2349 2472 2336 2395 
z
" transform="scale(0.015625)"/>
     </defs>
     <use xlink:href="#CMMI12-61" transform="scale(0.996264)"/>
    </g>
   </g>
   <g id="text_3">
    <!-- $b$ -->
    <g transform="translate(194.12791 215.186349) scale(0.27 -0.27)">
     <defs>
      <path id="CMMI12-62" d="M 1478 4257 
C 1485 4283 1498 4321 1498 4352 
C 1498 4416 1434 4416 1421 4416 
C 1414 4416 1184 4393 1069 4377 
C 960 4377 864 4358 749 4358 
C 595 4345 550 4339 550 4224 
C 550 4160 614 4160 678 4160 
C 1005 4160 1005 4103 1005 4040 
C 1005 3996 954 3811 928 3696 
L 774 3085 
C 710 2831 346 1387 320 1272 
C 288 1114 288 1005 288 922 
C 288 274 653 -64 1069 -64 
C 1811 -64 2579 888 2579 1814 
C 2579 2401 2246 2816 1766 2816 
C 1434 2816 1133 2542 1011 2414 
L 1478 4257 
z
M 1075 64 
C 870 64 646 217 646 715 
C 646 926 666 1047 781 1494 
C 800 1577 902 1986 928 2069 
C 941 2120 1318 2689 1754 2689 
C 2035 2689 2163 2408 2163 2076 
C 2163 1769 1984 1047 1824 715 
C 1664 370 1370 64 1075 64 
z
" transform="scale(0.015625)"/>
     </defs>
     <use xlink:href="#CMMI12-62" transform="scale(0.996264)"/>
    </g>
   </g>
   <g id="text_4">
    <!-- $A$ -->
    <g transform="translate(7.506226 405.072591) scale(0.27 -0.27)">
     <defs>
      <path id="CMMI12-41" d="M 1088 691 
C 864 314 646 186 339 186 
C 269 180 218 180 218 58 
C 218 24 250 0 294 0 
C 410 0 698 0 813 0 
C 998 0 1203 0 1382 0 
C 1421 0 1498 0 1498 122 
C 1498 180 1446 186 1408 186 
C 1261 186 1139 236 1139 388 
C 1139 476 1178 546 1261 685 
L 1747 1479 
L 3379 1479 
C 3386 1423 3386 1373 3392 1316 
C 3411 1152 3488 495 3488 376 
C 3488 186 3162 186 3059 186 
C 2989 186 2918 186 2918 70 
C 2918 0 2976 0 3014 0 
C 3123 0 3251 0 3360 0 
L 3725 0 
C 4115 0 4397 0 4403 0 
C 4448 0 4518 0 4518 122 
C 4518 186 4461 186 4365 186 
C 4013 186 4006 244 3987 434 
L 3597 4404 
C 3584 4531 3558 4544 3488 4544 
C 3424 4544 3386 4531 3328 4435 
L 1088 691 
z
M 1856 1664 
L 3142 3819 
L 3360 1664 
L 1856 1664 
z
" transform="scale(0.015625)"/>
     </defs>
     <use xlink:href="#CMMI12-41" transform="scale(0.996264)"/>
    </g>
   </g>
   <g id="text_5">
    <!-- $B$ -->
    <g transform="translate(403.517342 407.048537) scale(0.27 -0.27)">
     <defs>
      <path id="CMMI12-42" d="M 2342 3921 
C 2400 4160 2426 4160 2675 4160 
L 3507 4160 
C 4230 4160 4230 3544 4230 3485 
C 4230 2966 3712 2304 2867 2304 
L 1946 2304 
L 2342 3921 
z
M 3424 2275 
C 4122 2402 4755 2886 4755 3473 
C 4755 3970 4314 4352 3590 4352 
L 1536 4352 
C 1414 4352 1357 4352 1357 4226 
C 1357 4160 1414 4160 1510 4160 
C 1901 4160 1901 4112 1901 4044 
C 1901 4032 1901 3993 1875 3897 
L 1011 472 
C 954 249 941 185 493 185 
C 371 185 307 185 307 70 
C 307 0 346 0 474 0 
L 2669 0 
C 3648 0 4403 739 4403 1383 
C 4403 1906 3942 2224 3424 2275 
z
M 2515 185 
L 1651 185 
C 1562 185 1549 185 1510 192 
C 1440 198 1434 211 1434 261 
C 1434 305 1446 343 1459 399 
L 1907 2176 
L 3110 2176 
C 3866 2176 3866 1483 3866 1433 
C 3866 828 3309 185 2515 185 
z
" transform="scale(0.015625)"/>
     </defs>
     <use xlink:href="#CMMI12-42" transform="scale(0.996264)"/>
    </g>
   </g>
   <g id="text_6">
    <!-- $C$ -->
    <g transform="translate(379.46481 33.564345) scale(0.27 -0.27)">
     <defs>
      <path id="CMMI12-43" d="M 4781 4423 
C 4781 4480 4736 4480 4723 4480 
C 4710 4480 4685 4480 4634 4416 
L 4192 3882 
C 3968 4264 3616 4480 3136 4480 
C 1754 4480 320 3088 320 1595 
C 320 533 1069 -128 2003 -128 
C 2515 -128 2963 88 3334 400 
C 3891 863 4058 1481 4058 1531 
C 4058 1588 4006 1588 3987 1588 
C 3930 1588 3923 1550 3910 1524 
C 3616 534 2752 57 2112 57 
C 1434 57 845 489 845 1391 
C 845 1595 909 2700 1632 3532 
C 1984 3939 2586 4295 3194 4295 
C 3898 4295 4211 3717 4211 3068 
C 4211 2903 4192 2764 4192 2738 
C 4192 2681 4256 2681 4275 2681 
C 4346 2681 4352 2687 4378 2801 
L 4781 4423 
z
" transform="scale(0.015625)"/>
     </defs>
     <use xlink:href="#CMMI12-43" transform="scale(0.996264)"/>
    </g>
   </g>
  </g>
 </g>
 <defs>
  <clipPath id="p3cf7121a99">
   <rect x="15.883479" y="10.8" width="404.238478" height="410.4"/>
  </clipPath>
 </defs>
</svg>
