<?xml version="1.0" encoding="utf-8" standalone="no"?>
<!DOCTYPE svg PUBLIC "-//W3C//DTD SVG 1.1//EN"
  "http://www.w3.org/Graphics/SVG/1.1/DTD/svg11.dtd">
<svg xmlns:xlink="http://www.w3.org/1999/xlink" width="460.8pt" height="345.6pt" viewBox="0 0 460.8 345.6" xmlns="http://www.w3.org/2000/svg" version="1.1">
 <metadata>
  <rdf:RDF xmlns:dc="http://purl.org/dc/elements/1.1/" xmlns:cc="http://creativecommons.org/ns#" xmlns:rdf="http://www.w3.org/1999/02/22-rdf-syntax-ns#">
   <cc:Work>
    <dc:type rdf:resource="http://purl.org/dc/dcmitype/StillImage"/>
    <dc:date>2026-03-12T09:16:21.469702</dc:date>
    <dc:format>image/svg+xml</dc:format>
    <dc:creator>
     <cc:Agent>
      <dc:title>Matplotlib v3.10.8, https://matplotlib.org/</dc:title>
     </cc:Agent>
    </dc:creator>
   </cc:Work>
  </rdf:RDF>
 </metadata>
 <defs>
  <style type="text/css">*{stroke-linejoin: round; stroke-linecap: butt}</style>
 </defs>
 <g id="figure_1">
  <g id="patch_1">
   <path d="M 0 345.6 
L 460.8 345.6 
L 460.8 0 
L 0 0 
L 0 345.6 
z
" style="fill: none"/>
  </g>
  <g id="axes_1">
   <g id="patch_2">
    <path d="M 10.8 334.8 
L 447 334.8 
L 447 23.55884 
L 10.8 23.55884 
L 10.8 334.8 
z
" style="fill: none"/>
   </g>
   <g id="matplotlib.axis_1">
    <g id="xtick_1">
     <g id="line2d_1">
      <path d="M 41.957143 334.8 
L 41.957143 23.55884 
" clip-path="url(#pf1ba1c49fa)" style="fill: none; stroke-dasharray: 2.96,1.28; stroke-dashoffset: 0; stroke: #b0b0b0; stroke-opacity: 0.6; stroke-width: 0.8"/>
     </g>
     <g id="line2d_2">
      <defs>
       <path id="meeaa13430b" d="M 0 0 
L 0 3.5 
" style="stroke: #000000; stroke-width: 0.8"/>
      </defs>
      <g>
       <use xlink:href="#meeaa13430b" x="41.957143" y="179.17942" style="stroke: #000000; stroke-width: 0.8"/>
      </g>
     </g>
     <g id="text_1">
      <!-- $\mathdefault{−6}$ -->
      <g transform="translate(24.712233 205.551218) scale(0.28 -0.28)">
       <defs>
        <path id="CMSY10-0" d="M 4218 1472 
C 4326 1472 4442 1472 4442 1600 
C 4442 1728 4326 1728 4218 1728 
L 755 1728 
C 646 1728 531 1728 531 1600 
C 531 1472 646 1472 755 1472 
L 4218 1472 
z
" transform="scale(0.015625)"/>
        <path id="CMR17-36" d="M 678 2176 
C 678 3690 1395 4032 1811 4032 
C 1946 4032 2272 4009 2400 3776 
C 2298 3776 2106 3776 2106 3553 
C 2106 3381 2246 3323 2336 3323 
C 2394 3323 2566 3348 2566 3560 
C 2566 3954 2246 4179 1805 4179 
C 1043 4179 243 3390 243 1984 
C 243 253 966 -128 1478 -128 
C 2099 -128 2688 427 2688 1283 
C 2688 2081 2170 2662 1517 2662 
C 1126 2662 838 2407 678 1960 
L 678 2176 
z
M 1478 25 
C 691 25 691 1200 691 1436 
C 691 1896 909 2560 1504 2560 
C 1613 2560 1926 2560 2138 2120 
C 2253 1870 2253 1609 2253 1289 
C 2253 944 2253 690 2118 434 
C 1978 171 1773 25 1478 25 
z
" transform="scale(0.015625)"/>
       </defs>
       <use xlink:href="#CMSY10-0" transform="scale(0.996264)"/>
       <use xlink:href="#CMR17-36" transform="translate(77.487468 0) scale(0.996264)"/>
      </g>
     </g>
    </g>
    <g id="xtick_2">
     <g id="line2d_3">
      <path d="M 73.114286 334.8 
L 73.114286 23.55884 
" clip-path="url(#pf1ba1c49fa)" style="fill: none; stroke-dasharray: 2.96,1.28; stroke-dashoffset: 0; stroke: #b0b0b0; stroke-opacity: 0.6; stroke-width: 0.8"/>
     </g>
     <g id="line2d_4">
      <g>
       <use xlink:href="#meeaa13430b" x="73.114286" y="179.17942" style="stroke: #000000; stroke-width: 0.8"/>
      </g>
     </g>
     <g id="text_2">
      <!-- $\mathdefault{−5}$ -->
      <g transform="translate(55.869376 205.551218) scale(0.28 -0.28)">
       <defs>
        <path id="CMR17-35" d="M 730 3692 
C 794 3666 1056 3584 1325 3584 
C 1920 3584 2246 3911 2432 4100 
C 2432 4157 2432 4192 2394 4192 
C 2387 4192 2374 4192 2323 4163 
C 2099 4058 1837 3973 1517 3973 
C 1325 3973 1037 3999 723 4139 
C 653 4171 640 4171 634 4171 
C 602 4171 595 4164 595 4037 
L 595 2203 
C 595 2089 595 2057 659 2057 
C 691 2057 704 2070 736 2114 
C 941 2401 1222 2522 1542 2522 
C 1766 2522 2246 2382 2246 1289 
C 2246 1085 2246 715 2054 421 
C 1894 159 1645 25 1370 25 
C 947 25 518 320 403 814 
C 429 807 480 795 506 795 
C 589 795 749 840 749 1038 
C 749 1210 627 1280 506 1280 
C 358 1280 262 1190 262 1011 
C 262 454 704 -128 1382 -128 
C 2042 -128 2669 440 2669 1264 
C 2669 2030 2170 2624 1549 2624 
C 1222 2624 947 2503 730 2274 
L 730 3692 
z
" transform="scale(0.015625)"/>
       </defs>
       <use xlink:href="#CMSY10-0" transform="scale(0.996264)"/>
       <use xlink:href="#CMR17-35" transform="translate(77.487468 0) scale(0.996264)"/>
      </g>
     </g>
    </g>
    <g id="xtick_3">
     <g id="line2d_5">
      <path d="M 104.271429 334.8 
L 104.271429 23.55884 
" clip-path="url(#pf1ba1c49fa)" style="fill: none; stroke-dasharray: 2.96,1.28; stroke-dashoffset: 0; stroke: #b0b0b0; stroke-opacity: 0.6; stroke-width: 0.8"/>
     </g>
     <g id="line2d_6">
      <g>
       <use xlink:href="#meeaa13430b" x="104.271429" y="179.17942" style="stroke: #000000; stroke-width: 0.8"/>
      </g>
     </g>
     <g id="text_3">
      <!-- $\mathdefault{−4}$ -->
      <g transform="translate(87.026519 205.551218) scale(0.28 -0.28)">
       <defs>
        <path id="CMR17-34" d="M 2150 4122 
C 2150 4256 2144 4256 2029 4256 
L 128 1254 
L 128 1088 
L 1779 1088 
L 1779 457 
C 1779 224 1766 160 1318 160 
L 1197 160 
L 1197 0 
C 1402 0 1747 0 1965 0 
C 2182 0 2528 0 2733 0 
L 2733 160 
L 2611 160 
C 2163 160 2150 224 2150 457 
L 2150 1088 
L 2803 1088 
L 2803 1254 
L 2150 1254 
L 2150 4122 
z
M 1798 3703 
L 1798 1254 
L 256 1254 
L 1798 3703 
z
" transform="scale(0.015625)"/>
       </defs>
       <use xlink:href="#CMSY10-0" transform="scale(0.996264)"/>
       <use xlink:href="#CMR17-34" transform="translate(77.487468 0) scale(0.996264)"/>
      </g>
     </g>
    </g>
    <g id="xtick_4">
     <g id="line2d_7">
      <path d="M 135.428571 334.8 
L 135.428571 23.55884 
" clip-path="url(#pf1ba1c49fa)" style="fill: none; stroke-dasharray: 2.96,1.28; stroke-dashoffset: 0; stroke: #b0b0b0; stroke-opacity: 0.6; stroke-width: 0.8"/>
     </g>
     <g id="line2d_8">
      <g>
       <use xlink:href="#meeaa13430b" x="135.428571" y="179.17942" style="stroke: #000000; stroke-width: 0.8"/>
      </g>
     </g>
     <g id="text_4">
      <!-- $\mathdefault{−3}$ -->
      <g transform="translate(118.183662 205.551218) scale(0.28 -0.28)">
       <defs>
        <path id="CMR17-33" d="M 1414 2157 
C 1984 2157 2234 1662 2234 1090 
C 2234 320 1824 25 1453 25 
C 1114 25 563 194 390 693 
C 422 680 454 680 486 680 
C 640 680 755 782 755 948 
C 755 1133 614 1216 486 1216 
C 378 1216 211 1165 211 926 
C 211 335 787 -128 1466 -128 
C 2176 -128 2720 430 2720 1085 
C 2720 1707 2208 2157 1600 2227 
C 2086 2328 2554 2756 2554 3329 
C 2554 3820 2048 4179 1472 4179 
C 890 4179 378 3829 378 3329 
C 378 3110 544 3072 627 3072 
C 762 3072 877 3155 877 3321 
C 877 3486 762 3569 627 3569 
C 602 3569 570 3569 544 3557 
C 730 3959 1235 4032 1459 4032 
C 1683 4032 2106 3925 2106 3320 
C 2106 3143 2080 2828 1862 2550 
C 1670 2304 1453 2304 1242 2284 
C 1210 2284 1062 2269 1037 2269 
C 992 2263 966 2257 966 2208 
C 966 2163 973 2157 1101 2157 
L 1414 2157 
z
" transform="scale(0.015625)"/>
       </defs>
       <use xlink:href="#CMSY10-0" transform="scale(0.996264)"/>
       <use xlink:href="#CMR17-33" transform="translate(77.487468 0) scale(0.996264)"/>
      </g>
     </g>
    </g>
    <g id="xtick_5">
     <g id="line2d_9">
      <path d="M 166.585714 334.8 
L 166.585714 23.55884 
" clip-path="url(#pf1ba1c49fa)" style="fill: none; stroke-dasharray: 2.96,1.28; stroke-dashoffset: 0; stroke: #b0b0b0; stroke-opacity: 0.6; stroke-width: 0.8"/>
     </g>
     <g id="line2d_10">
      <g>
       <use xlink:href="#meeaa13430b" x="166.585714" y="179.17942" style="stroke: #000000; stroke-width: 0.8"/>
      </g>
     </g>
     <g id="text_5">
      <!-- $\mathdefault{−2}$ -->
      <g transform="translate(149.340805 205.551218) scale(0.28 -0.28)">
       <defs>
        <path id="CMR17-32" d="M 2669 989 
L 2554 989 
C 2490 536 2438 459 2413 420 
C 2381 369 1920 369 1830 369 
L 602 369 
C 832 619 1280 1072 1824 1597 
C 2214 1967 2669 2402 2669 3035 
C 2669 3790 2067 4224 1395 4224 
C 691 4224 262 3604 262 3030 
C 262 2780 448 2748 525 2748 
C 589 2748 781 2787 781 3010 
C 781 3207 614 3264 525 3264 
C 486 3264 448 3258 422 3245 
C 544 3790 915 4058 1306 4058 
C 1862 4058 2227 3617 2227 3035 
C 2227 2479 1901 2000 1536 1584 
L 262 146 
L 262 0 
L 2515 0 
L 2669 989 
z
" transform="scale(0.015625)"/>
       </defs>
       <use xlink:href="#CMSY10-0" transform="scale(0.996264)"/>
       <use xlink:href="#CMR17-32" transform="translate(77.487468 0) scale(0.996264)"/>
      </g>
     </g>
    </g>
    <g id="xtick_6">
     <g id="line2d_11">
      <path d="M 197.742857 334.8 
L 197.742857 23.55884 
" clip-path="url(#pf1ba1c49fa)" style="fill: none; stroke-dasharray: 2.96,1.28; stroke-dashoffset: 0; stroke: #b0b0b0; stroke-opacity: 0.6; stroke-width: 0.8"/>
     </g>
     <g id="line2d_12">
      <g>
       <use xlink:href="#meeaa13430b" x="197.742857" y="179.17942" style="stroke: #000000; stroke-width: 0.8"/>
      </g>
     </g>
     <g id="text_6">
      <!-- $\mathdefault{−1}$ -->
      <g transform="translate(180.497948 205.551218) scale(0.28 -0.28)">
       <defs>
        <path id="CMR17-31" d="M 1702 4058 
C 1702 4192 1696 4192 1606 4192 
C 1357 3916 979 3827 621 3827 
C 602 3827 570 3827 563 3808 
C 557 3795 557 3782 557 3648 
C 755 3648 1088 3686 1344 3839 
L 1344 461 
C 1344 236 1331 160 781 160 
L 589 160 
L 589 0 
C 896 0 1216 0 1523 0 
C 1830 0 2150 0 2458 0 
L 2458 160 
L 2266 160 
C 1715 160 1702 230 1702 458 
L 1702 4058 
z
" transform="scale(0.015625)"/>
       </defs>
       <use xlink:href="#CMSY10-0" transform="scale(0.996264)"/>
       <use xlink:href="#CMR17-31" transform="translate(77.487468 0) scale(0.996264)"/>
      </g>
     </g>
    </g>
    <g id="xtick_7">
     <g id="line2d_13">
      <path d="M 260.057143 334.8 
L 260.057143 23.55884 
" clip-path="url(#pf1ba1c49fa)" style="fill: none; stroke-dasharray: 2.96,1.28; stroke-dashoffset: 0; stroke: #b0b0b0; stroke-opacity: 0.6; stroke-width: 0.8"/>
     </g>
     <g id="line2d_14">
      <g>
       <use xlink:href="#meeaa13430b" x="260.057143" y="179.17942" style="stroke: #000000; stroke-width: 0.8"/>
      </g>
     </g>
     <g id="text_7">
      <!-- $\mathdefault{1}$ -->
      <g transform="translate(253.660476 205.551218) scale(0.28 -0.28)">
       <use xlink:href="#CMR17-31" transform="scale(0.996264)"/>
      </g>
     </g>
    </g>
    <g id="xtick_8">
     <g id="line2d_15">
      <path d="M 291.214286 334.8 
L 291.214286 23.55884 
" clip-path="url(#pf1ba1c49fa)" style="fill: none; stroke-dasharray: 2.96,1.28; stroke-dashoffset: 0; stroke: #b0b0b0; stroke-opacity: 0.6; stroke-width: 0.8"/>
     </g>
     <g id="line2d_16">
      <g>
       <use xlink:href="#meeaa13430b" x="291.214286" y="179.17942" style="stroke: #000000; stroke-width: 0.8"/>
      </g>
     </g>
     <g id="text_8">
      <!-- $\mathdefault{2}$ -->
      <g transform="translate(284.817619 205.551218) scale(0.28 -0.28)">
       <use xlink:href="#CMR17-32" transform="scale(0.996264)"/>
      </g>
     </g>
    </g>
    <g id="xtick_9">
     <g id="line2d_17">
      <path d="M 322.371429 334.8 
L 322.371429 23.55884 
" clip-path="url(#pf1ba1c49fa)" style="fill: none; stroke-dasharray: 2.96,1.28; stroke-dashoffset: 0; stroke: #b0b0b0; stroke-opacity: 0.6; stroke-width: 0.8"/>
     </g>
     <g id="line2d_18">
      <g>
       <use xlink:href="#meeaa13430b" x="322.371429" y="179.17942" style="stroke: #000000; stroke-width: 0.8"/>
      </g>
     </g>
     <g id="text_9">
      <!-- $\mathdefault{3}$ -->
      <g transform="translate(315.974762 205.551218) scale(0.28 -0.28)">
       <use xlink:href="#CMR17-33" transform="scale(0.996264)"/>
      </g>
     </g>
    </g>
    <g id="xtick_10">
     <g id="line2d_19">
      <path d="M 353.528571 334.8 
L 353.528571 23.55884 
" clip-path="url(#pf1ba1c49fa)" style="fill: none; stroke-dasharray: 2.96,1.28; stroke-dashoffset: 0; stroke: #b0b0b0; stroke-opacity: 0.6; stroke-width: 0.8"/>
     </g>
     <g id="line2d_20">
      <g>
       <use xlink:href="#meeaa13430b" x="353.528571" y="179.17942" style="stroke: #000000; stroke-width: 0.8"/>
      </g>
     </g>
     <g id="text_10">
      <!-- $\mathdefault{4}$ -->
      <g transform="translate(347.131905 205.551218) scale(0.28 -0.28)">
       <use xlink:href="#CMR17-34" transform="scale(0.996264)"/>
      </g>
     </g>
    </g>
    <g id="xtick_11">
     <g id="line2d_21">
      <path d="M 384.685714 334.8 
L 384.685714 23.55884 
" clip-path="url(#pf1ba1c49fa)" style="fill: none; stroke-dasharray: 2.96,1.28; stroke-dashoffset: 0; stroke: #b0b0b0; stroke-opacity: 0.6; stroke-width: 0.8"/>
     </g>
     <g id="line2d_22">
      <g>
       <use xlink:href="#meeaa13430b" x="384.685714" y="179.17942" style="stroke: #000000; stroke-width: 0.8"/>
      </g>
     </g>
     <g id="text_11">
      <!-- $\mathdefault{5}$ -->
      <g transform="translate(378.289047 205.551218) scale(0.28 -0.28)">
       <use xlink:href="#CMR17-35" transform="scale(0.996264)"/>
      </g>
     </g>
    </g>
    <g id="xtick_12">
     <g id="line2d_23">
      <path d="M 415.842857 334.8 
L 415.842857 23.55884 
" clip-path="url(#pf1ba1c49fa)" style="fill: none; stroke-dasharray: 2.96,1.28; stroke-dashoffset: 0; stroke: #b0b0b0; stroke-opacity: 0.6; stroke-width: 0.8"/>
     </g>
     <g id="line2d_24">
      <g>
       <use xlink:href="#meeaa13430b" x="415.842857" y="179.17942" style="stroke: #000000; stroke-width: 0.8"/>
      </g>
     </g>
     <g id="text_12">
      <!-- $\mathdefault{6}$ -->
      <g transform="translate(409.44619 205.551218) scale(0.28 -0.28)">
       <use xlink:href="#CMR17-36" transform="scale(0.996264)"/>
      </g>
     </g>
    </g>
    <g id="text_13">
     <!-- $x$ -->
     <g transform="translate(431.478463 234.348898) scale(0.28 -0.28)">
      <defs>
       <path id="CMMI12-78" d="M 3034 2606 
C 2829 2567 2752 2414 2752 2293 
C 2752 2139 2874 2088 2963 2088 
C 3155 2088 3290 2254 3290 2427 
C 3290 2695 2982 2816 2714 2816 
C 2323 2816 2106 2433 2048 2312 
C 1901 2816 1504 2816 1389 2816 
C 736 2816 390 1980 390 1839 
C 390 1814 416 1782 461 1782 
C 512 1782 525 1820 538 1846 
C 755 2555 1184 2689 1370 2689 
C 1658 2689 1715 2420 1715 2267 
C 1715 2127 1677 1980 1600 1673 
L 1382 798 
C 1286 415 1101 64 762 64 
C 730 64 570 64 435 147 
C 666 192 717 383 717 460 
C 717 588 621 664 499 664 
C 346 664 179 530 179 326 
C 179 57 480 -64 755 -64 
C 1062 -64 1280 179 1414 441 
C 1517 64 1837 -64 2074 -64 
C 2726 -64 3072 773 3072 913 
C 3072 945 3046 971 3008 971 
C 2950 971 2944 939 2925 888 
C 2752 326 2381 64 2093 64 
C 1869 64 1747 230 1747 492 
C 1747 632 1773 734 1875 1156 
L 2099 2024 
C 2195 2408 2413 2689 2707 2689 
C 2720 2689 2899 2689 3034 2606 
z
" transform="scale(0.015625)"/>
      </defs>
      <use xlink:href="#CMMI12-78" transform="scale(0.996264)"/>
     </g>
    </g>
   </g>
   <g id="matplotlib.axis_2">
    <g id="ytick_1">
     <g id="line2d_25">
      <path d="M 10.8 312.568489 
L 447 312.568489 
" clip-path="url(#pf1ba1c49fa)" style="fill: none; stroke-dasharray: 2.96,1.28; stroke-dashoffset: 0; stroke: #b0b0b0; stroke-opacity: 0.6; stroke-width: 0.8"/>
     </g>
     <g id="line2d_26">
      <defs>
       <path id="mf2eb63b272" d="M 0 0 
L -3.5 0 
" style="stroke: #000000; stroke-width: 0.8"/>
      </defs>
      <g>
       <use xlink:href="#mf2eb63b272" x="228.9" y="312.568489" style="stroke: #000000; stroke-width: 0.8"/>
      </g>
     </g>
     <g id="text_14">
      <!-- $\mathdefault{−6}$ -->
      <g transform="translate(187.410181 322.254388) scale(0.28 -0.28)">
       <use xlink:href="#CMSY10-0" transform="scale(0.996264)"/>
       <use xlink:href="#CMR17-36" transform="translate(77.487468 0) scale(0.996264)"/>
      </g>
     </g>
    </g>
    <g id="ytick_2">
     <g id="line2d_27">
      <path d="M 10.8 290.336977 
L 447 290.336977 
" clip-path="url(#pf1ba1c49fa)" style="fill: none; stroke-dasharray: 2.96,1.28; stroke-dashoffset: 0; stroke: #b0b0b0; stroke-opacity: 0.6; stroke-width: 0.8"/>
     </g>
     <g id="line2d_28">
      <g>
       <use xlink:href="#mf2eb63b272" x="228.9" y="290.336977" style="stroke: #000000; stroke-width: 0.8"/>
      </g>
     </g>
     <g id="text_15">
      <!-- $\mathdefault{−5}$ -->
      <g transform="translate(187.410181 300.022876) scale(0.28 -0.28)">
       <use xlink:href="#CMSY10-0" transform="scale(0.996264)"/>
       <use xlink:href="#CMR17-35" transform="translate(77.487468 0) scale(0.996264)"/>
      </g>
     </g>
    </g>
    <g id="ytick_3">
     <g id="line2d_29">
      <path d="M 10.8 268.105466 
L 447 268.105466 
" clip-path="url(#pf1ba1c49fa)" style="fill: none; stroke-dasharray: 2.96,1.28; stroke-dashoffset: 0; stroke: #b0b0b0; stroke-opacity: 0.6; stroke-width: 0.8"/>
     </g>
     <g id="line2d_30">
      <g>
       <use xlink:href="#mf2eb63b272" x="228.9" y="268.105466" style="stroke: #000000; stroke-width: 0.8"/>
      </g>
     </g>
     <g id="text_16">
      <!-- $\mathdefault{−4}$ -->
      <g transform="translate(187.410181 277.791365) scale(0.28 -0.28)">
       <use xlink:href="#CMSY10-0" transform="scale(0.996264)"/>
       <use xlink:href="#CMR17-34" transform="translate(77.487468 0) scale(0.996264)"/>
      </g>
     </g>
    </g>
    <g id="ytick_4">
     <g id="line2d_31">
      <path d="M 10.8 245.873954 
L 447 245.873954 
" clip-path="url(#pf1ba1c49fa)" style="fill: none; stroke-dasharray: 2.96,1.28; stroke-dashoffset: 0; stroke: #b0b0b0; stroke-opacity: 0.6; stroke-width: 0.8"/>
     </g>
     <g id="line2d_32">
      <g>
       <use xlink:href="#mf2eb63b272" x="228.9" y="245.873954" style="stroke: #000000; stroke-width: 0.8"/>
      </g>
     </g>
     <g id="text_17">
      <!-- $\mathdefault{−3}$ -->
      <g transform="translate(187.410181 255.559853) scale(0.28 -0.28)">
       <use xlink:href="#CMSY10-0" transform="scale(0.996264)"/>
       <use xlink:href="#CMR17-33" transform="translate(77.487468 0) scale(0.996264)"/>
      </g>
     </g>
    </g>
    <g id="ytick_5">
     <g id="line2d_33">
      <path d="M 10.8 223.642443 
L 447 223.642443 
" clip-path="url(#pf1ba1c49fa)" style="fill: none; stroke-dasharray: 2.96,1.28; stroke-dashoffset: 0; stroke: #b0b0b0; stroke-opacity: 0.6; stroke-width: 0.8"/>
     </g>
     <g id="line2d_34">
      <g>
       <use xlink:href="#mf2eb63b272" x="228.9" y="223.642443" style="stroke: #000000; stroke-width: 0.8"/>
      </g>
     </g>
     <g id="text_18">
      <!-- $\mathdefault{−2}$ -->
      <g transform="translate(187.410181 233.328342) scale(0.28 -0.28)">
       <use xlink:href="#CMSY10-0" transform="scale(0.996264)"/>
       <use xlink:href="#CMR17-32" transform="translate(77.487468 0) scale(0.996264)"/>
      </g>
     </g>
    </g>
    <g id="ytick_6">
     <g id="line2d_35">
      <path d="M 10.8 201.410931 
L 447 201.410931 
" clip-path="url(#pf1ba1c49fa)" style="fill: none; stroke-dasharray: 2.96,1.28; stroke-dashoffset: 0; stroke: #b0b0b0; stroke-opacity: 0.6; stroke-width: 0.8"/>
     </g>
     <g id="line2d_36">
      <g>
       <use xlink:href="#mf2eb63b272" x="228.9" y="201.410931" style="stroke: #000000; stroke-width: 0.8"/>
      </g>
     </g>
     <g id="text_19">
      <!-- $\mathdefault{−1}$ -->
      <g transform="translate(187.410181 211.096831) scale(0.28 -0.28)">
       <use xlink:href="#CMSY10-0" transform="scale(0.996264)"/>
       <use xlink:href="#CMR17-31" transform="translate(77.487468 0) scale(0.996264)"/>
      </g>
     </g>
    </g>
    <g id="ytick_7">
     <g id="line2d_37">
      <path d="M 10.8 156.947908 
L 447 156.947908 
" clip-path="url(#pf1ba1c49fa)" style="fill: none; stroke-dasharray: 2.96,1.28; stroke-dashoffset: 0; stroke: #b0b0b0; stroke-opacity: 0.6; stroke-width: 0.8"/>
     </g>
     <g id="line2d_38">
      <g>
       <use xlink:href="#mf2eb63b272" x="228.9" y="156.947908" style="stroke: #000000; stroke-width: 0.8"/>
      </g>
     </g>
     <g id="text_20">
      <!-- $\mathdefault{1}$ -->
      <g transform="translate(209.106666 166.633808) scale(0.28 -0.28)">
       <use xlink:href="#CMR17-31" transform="scale(0.996264)"/>
      </g>
     </g>
    </g>
    <g id="ytick_8">
     <g id="line2d_39">
      <path d="M 10.8 134.716397 
L 447 134.716397 
" clip-path="url(#pf1ba1c49fa)" style="fill: none; stroke-dasharray: 2.96,1.28; stroke-dashoffset: 0; stroke: #b0b0b0; stroke-opacity: 0.6; stroke-width: 0.8"/>
     </g>
     <g id="line2d_40">
      <g>
       <use xlink:href="#mf2eb63b272" x="228.9" y="134.716397" style="stroke: #000000; stroke-width: 0.8"/>
      </g>
     </g>
     <g id="text_21">
      <!-- $\mathdefault{2}$ -->
      <g transform="translate(209.106666 144.402296) scale(0.28 -0.28)">
       <use xlink:href="#CMR17-32" transform="scale(0.996264)"/>
      </g>
     </g>
    </g>
    <g id="ytick_9">
     <g id="line2d_41">
      <path d="M 10.8 112.484886 
L 447 112.484886 
" clip-path="url(#pf1ba1c49fa)" style="fill: none; stroke-dasharray: 2.96,1.28; stroke-dashoffset: 0; stroke: #b0b0b0; stroke-opacity: 0.6; stroke-width: 0.8"/>
     </g>
     <g id="line2d_42">
      <g>
       <use xlink:href="#mf2eb63b272" x="228.9" y="112.484886" style="stroke: #000000; stroke-width: 0.8"/>
      </g>
     </g>
     <g id="text_22">
      <!-- $\mathdefault{3}$ -->
      <g transform="translate(209.106666 122.170785) scale(0.28 -0.28)">
       <use xlink:href="#CMR17-33" transform="scale(0.996264)"/>
      </g>
     </g>
    </g>
    <g id="ytick_10">
     <g id="line2d_43">
      <path d="M 10.8 90.253374 
L 447 90.253374 
" clip-path="url(#pf1ba1c49fa)" style="fill: none; stroke-dasharray: 2.96,1.28; stroke-dashoffset: 0; stroke: #b0b0b0; stroke-opacity: 0.6; stroke-width: 0.8"/>
     </g>
     <g id="line2d_44">
      <g>
       <use xlink:href="#mf2eb63b272" x="228.9" y="90.253374" style="stroke: #000000; stroke-width: 0.8"/>
      </g>
     </g>
     <g id="text_23">
      <!-- $\mathdefault{4}$ -->
      <g transform="translate(209.106666 99.939273) scale(0.28 -0.28)">
       <use xlink:href="#CMR17-34" transform="scale(0.996264)"/>
      </g>
     </g>
    </g>
    <g id="ytick_11">
     <g id="line2d_45">
      <path d="M 10.8 68.021863 
L 447 68.021863 
" clip-path="url(#pf1ba1c49fa)" style="fill: none; stroke-dasharray: 2.96,1.28; stroke-dashoffset: 0; stroke: #b0b0b0; stroke-opacity: 0.6; stroke-width: 0.8"/>
     </g>
     <g id="line2d_46">
      <g>
       <use xlink:href="#mf2eb63b272" x="228.9" y="68.021863" style="stroke: #000000; stroke-width: 0.8"/>
      </g>
     </g>
     <g id="text_24">
      <!-- $\mathdefault{5}$ -->
      <g transform="translate(209.106666 77.707762) scale(0.28 -0.28)">
       <use xlink:href="#CMR17-35" transform="scale(0.996264)"/>
      </g>
     </g>
    </g>
    <g id="ytick_12">
     <g id="line2d_47">
      <path d="M 10.8 45.790351 
L 447 45.790351 
" clip-path="url(#pf1ba1c49fa)" style="fill: none; stroke-dasharray: 2.96,1.28; stroke-dashoffset: 0; stroke: #b0b0b0; stroke-opacity: 0.6; stroke-width: 0.8"/>
     </g>
     <g id="line2d_48">
      <g>
       <use xlink:href="#mf2eb63b272" x="228.9" y="45.790351" style="stroke: #000000; stroke-width: 0.8"/>
      </g>
     </g>
     <g id="text_25">
      <!-- $\mathdefault{6}$ -->
      <g transform="translate(209.106666 55.47625) scale(0.28 -0.28)">
       <use xlink:href="#CMR17-36" transform="scale(0.996264)"/>
      </g>
     </g>
    </g>
    <g id="text_26">
     <!-- $y$ -->
     <g transform="translate(170.092219 18.132959) scale(0.28 -0.28)">
      <defs>
       <path id="CMMI12-79" d="M 1683 -700 
C 1510 -939 1261 -1152 947 -1152 
C 870 -1152 563 -1152 467 -889 
C 486 -895 518 -895 531 -895 
C 723 -895 851 -729 851 -582 
C 851 -435 730 -384 634 -384 
C 531 -384 307 -458 307 -759 
C 307 -1071 582 -1286 947 -1286 
C 1587 -1286 2234 -700 2413 6 
L 3040 2485 
C 3046 2517 3059 2556 3059 2594 
C 3059 2689 2982 2753 2886 2753 
C 2829 2753 2694 2727 2643 2535 
L 2170 658 
C 2138 543 2138 530 2086 460 
C 1958 281 1747 64 1440 64 
C 1082 64 1050 415 1050 588 
C 1050 952 1222 1443 1395 1903 
C 1466 2088 1504 2178 1504 2305 
C 1504 2574 1312 2816 998 2816 
C 410 2816 173 1890 173 1839 
C 173 1814 198 1782 243 1782 
C 301 1782 307 1807 333 1897 
C 486 2433 730 2689 979 2689 
C 1037 2689 1146 2689 1146 2478 
C 1146 2312 1075 2127 979 1884 
C 666 1047 666 837 666 683 
C 666 77 1101 -64 1421 -64 
C 1606 -64 1837 -6 2061 230 
L 2067 224 
C 1971 -147 1907 -392 1683 -700 
z
" transform="scale(0.015625)"/>
      </defs>
      <use xlink:href="#CMMI12-79" transform="scale(0.996264)"/>
     </g>
    </g>
   </g>
   <g id="line2d_49">
    <defs>
     <path id="m059f29d01f" d="M 3 0 
L -3 -3 
L -3 3 
z
" style="stroke: #000000; stroke-linejoin: miter"/>
    </defs>
    <g>
     <use xlink:href="#m059f29d01f" x="447" y="179.17942" style="stroke: #000000; stroke-linejoin: miter"/>
    </g>
   </g>
   <g id="line2d_50">
    <defs>
     <path id="mf3e781575d" d="M 0 -3 
L -3 3 
L 3 3 
z
" style="stroke: #000000; stroke-linejoin: miter"/>
    </defs>
    <g>
     <use xlink:href="#mf3e781575d" x="228.9" y="23.55884" style="stroke: #000000; stroke-linejoin: miter"/>
    </g>
   </g>
   <g id="line2d_51">
    <path d="M 10.8 158.337378 
L 41.978063 158.853905 
L 64.955576 159.447035 
L 82.581432 160.115721 
L 96.533016 160.859927 
L 107.822084 161.677578 
L 117.14089 162.568451 
L 124.968687 163.533731 
L 131.624977 164.572433 
L 137.376012 165.69028 
L 142.354917 166.879197 
L 146.748068 168.152989 
L 150.635342 169.508539 
L 154.096612 170.947472 
L 157.211756 172.480084 
L 160.034023 174.113627 
L 162.616664 175.864156 
L 164.986303 177.73817 
L 167.169566 179.746377 
L 169.219703 181.936574 
L 171.136715 184.314584 
L 172.920601 186.881851 
L 174.624611 189.729296 
L 176.22212 192.833729 
L 177.739755 196.268184 
L 179.204138 200.142525 
L 180.588647 204.44202 
L 181.919905 209.315177 
L 183.197912 214.863753 
L 184.42267 221.213037 
L 185.567552 228.336702 
L 186.659183 236.534109 
L 187.697565 246.021072 
L 188.682695 257.06928 
L 189.614576 270.024214 
L 190.493206 285.329945 
L 191.345211 304.23109 
L 192.143966 327.222345 
L 192.676316 346.6 
M 205.217633 -1 
L 206.175426 14.451412 
L 207.187182 27.282063 
L 208.252188 38.026752 
L 209.370445 47.092392 
L 210.541952 54.786286 
L 211.740084 61.214615 
L 212.991467 66.73453 
L 214.269474 71.387471 
L 215.574107 75.321763 
L 216.905365 78.649226 
L 218.263248 81.454851 
L 219.621132 83.762564 
L 220.979015 85.64497 
L 222.336898 87.156638 
L 223.694781 88.338472 
L 225.026039 89.206121 
L 226.330672 89.79673 
L 227.635305 90.143306 
L 228.913313 90.253362 
L 230.19132 90.138614 
L 231.469328 89.79673 
L 232.747336 89.220688 
L 234.025343 88.398412 
L 235.329976 87.286524 
L 236.634609 85.873359 
L 237.939242 84.123898 
L 239.243875 81.991897 
L 240.521882 79.474011 
L 241.79989 76.455519 
L 243.051273 72.919186 
L 244.27603 68.781083 
L 245.474162 63.932288 
L 246.645669 58.230178 
L 247.763926 51.657942 
L 248.855558 43.864945 
L 249.893939 34.792829 
L 250.87907 24.189087 
L 251.81095 11.733077 
L 252.582367 -1 
M 265.123684 346.6 
L 265.922285 318.857873 
L 266.77429 296.576294 
L 267.679546 278.400986 
L 268.664677 263.006751 
L 269.703058 250.22386 
L 270.79469 239.48883 
L 271.939572 230.385023 
L 273.137704 222.598322 
L 274.389086 215.887839 
L 275.693719 210.066054 
L 277.078227 204.893802 
L 278.515986 200.372337 
L 280.006995 196.398658 
L 281.57788 192.833729 
L 283.228639 189.633588 
L 284.959275 186.758509 
L 286.796411 184.137628 
L 288.740048 181.753774 
L 290.790185 179.588931 
L 293.000073 177.580101 
L 295.369713 175.728396 
L 297.925728 174.013956 
L 300.72137 172.409221 
L 303.783263 170.911372 
L 307.164658 169.508539 
L 310.918806 168.195533 
L 315.125581 166.964006 
L 319.86486 165.812411 
L 325.269767 164.733148 
L 331.47343 163.727094 
L 338.662223 162.792904 
L 347.075774 161.930298 
L 357.060209 161.137358 
L 369.068156 160.414587 
L 383.738619 159.762386 
L 402.05673 159.17953 
L 425.513496 158.665913 
L 447 158.337378 
L 447 158.337378 
" clip-path="url(#pf1ba1c49fa)" style="fill: none; stroke: #0072b2; stroke-width: 2.5; stroke-linecap: square"/>
   </g>
   <g id="LineCollection_1">
    <path d="M 197.742857 334.8 
L 197.742857 23.55884 
" clip-path="url(#pf1ba1c49fa)" style="fill: none; stroke-dasharray: 9.25,4; stroke-dashoffset: 0; stroke: #dc5e8b; stroke-width: 2.5"/>
   </g>
   <g id="LineCollection_2">
    <path d="M 260.057143 334.8 
L 260.057143 23.55884 
" clip-path="url(#pf1ba1c49fa)" style="fill: none; stroke-dasharray: 9.25,4; stroke-dashoffset: 0; stroke: #dc5e8b; stroke-width: 2.5"/>
   </g>
   <g id="LineCollection_3">
    <path d="M 10.8 156.947908 
L 447 156.947908 
" clip-path="url(#pf1ba1c49fa)" style="fill: none; stroke-dasharray: 9.25,4; stroke-dashoffset: 0; stroke: #dc5e8b; stroke-width: 2.5"/>
   </g>
   <g id="patch_3">
    <path d="M 228.9 334.8 
L 228.9 23.55884 
" style="fill: none; stroke: #000000; stroke-width: 0.8; stroke-linejoin: miter; stroke-linecap: square"/>
   </g>
   <g id="patch_4">
    <path d="M 447 334.8 
L 447 23.55884 
" style="fill: none"/>
   </g>
   <g id="patch_5">
    <path d="M 10.8 179.17942 
L 447 179.17942 
" style="fill: none; stroke: #000000; stroke-width: 0.8; stroke-linejoin: miter; stroke-linecap: square"/>
   </g>
   <g id="patch_6">
    <path d="M 10.8 23.55884 
L 447 23.55884 
" style="fill: none"/>
   </g>
   <g id="text_27">
    <g id="patch_7">
     <path d="M 95.560929 91.620702 
L 112.981928 91.620702 
Q 124.181928 91.620702 124.181928 80.420702 
L 124.181928 55.623023 
Q 124.181928 44.423023 112.981928 44.423023 
L 95.560929 44.423023 
Q 84.360929 44.423023 84.360929 55.623023 
L 84.360929 80.420702 
Q 84.360929 91.620702 95.560929 91.620702 
z
" style="fill: #ffffff; opacity: 0.7; stroke: #000000; stroke-width: 1.5; stroke-linejoin: miter"/>
    </g>
    <!-- A -->
    <g transform="translate(95.560929 74.994821) scale(0.28 -0.28)">
     <defs>
      <path id="CMSS17-41" d="M 2272 4416 
L 1722 4416 
L 166 0 
L 653 0 
L 1101 1280 
L 2816 1280 
L 3270 0 
L 3827 0 
L 2272 4416 
z
M 2694 1637 
L 1222 1637 
C 1530 2528 1914 3638 1958 3925 
L 1965 3925 
C 2010 3663 2138 3281 2246 2956 
L 2694 1637 
z
" transform="scale(0.015625)"/>
     </defs>
     <use xlink:href="#CMSS17-41" transform="scale(0.996264)"/>
    </g>
   </g>
  </g>
 </g>
 <defs>
  <clipPath id="pf1ba1c49fa">
   <rect x="10.8" y="23.55884" width="436.2" height="311.24116"/>
  </clipPath>
 </defs>
</svg>
