<?xml version="1.0" encoding="utf-8" standalone="no"?>
<!DOCTYPE svg PUBLIC "-//W3C//DTD SVG 1.1//EN"
  "http://www.w3.org/Graphics/SVG/1.1/DTD/svg11.dtd">
<svg xmlns:xlink="http://www.w3.org/1999/xlink" width="432pt" height="432pt" viewBox="0 0 432 432" xmlns="http://www.w3.org/2000/svg" version="1.1">
 <metadata>
  <rdf:RDF xmlns:dc="http://purl.org/dc/elements/1.1/" xmlns:cc="http://creativecommons.org/ns#" xmlns:rdf="http://www.w3.org/1999/02/22-rdf-syntax-ns#">
   <cc:Work>
    <dc:type rdf:resource="http://purl.org/dc/dcmitype/StillImage"/>
    <dc:date>2026-02-21T17:40:00.029734</dc:date>
    <dc:format>image/svg+xml</dc:format>
    <dc:creator>
     <cc:Agent>
      <dc:title>Matplotlib v3.9.1, https://matplotlib.org/</dc:title>
     </cc:Agent>
    </dc:creator>
   </cc:Work>
  </rdf:RDF>
 </metadata>
 <defs>
  <style type="text/css">*{stroke-linejoin: round; stroke-linecap: butt}</style>
 </defs>
 <g id="figure_1">
  <g id="patch_1">
   <path d="M 0 432 
L 432 432 
L 432 0 
L 0 0 
L 0 432 
z
" style="fill: none"/>
  </g>
  <g id="axes_1">
   <g id="patch_2">
    <path d="M 216 153.818182 
C 232.490811 153.818182 248.308421 147.266313 259.969185 135.605549 
C 271.62995 123.944785 278.181818 108.127175 278.181818 91.636364 
C 278.181818 75.145553 271.62995 59.327943 259.969185 47.667178 
C 248.308421 36.006414 232.490811 29.454545 216 29.454545 
C 199.509189 29.454545 183.691579 36.006414 172.030815 47.667178 
C 160.37005 59.327943 153.818182 75.145553 153.818182 91.636364 
C 153.818182 108.127175 160.37005 123.944785 172.030815 135.605549 
C 183.691579 147.266313 199.509189 153.818182 216 153.818182 
z
" clip-path="url(#pe8f4681f69)" style="fill: #0072b2; fill-opacity: 0.2; stroke: #0072b2; stroke-width: 2.5; stroke-linejoin: miter"/>
   </g>
   <g id="patch_3">
    <path d="M 216 402.545455 
C 232.490811 402.545455 248.308421 395.993586 259.969185 384.332822 
C 271.62995 372.672057 278.181818 356.854447 278.181818 340.363636 
C 278.181818 323.872825 271.62995 308.055215 259.969185 296.394451 
C 248.308421 284.733687 232.490811 278.181818 216 278.181818 
C 199.509189 278.181818 183.691579 284.733687 172.030815 296.394451 
C 160.37005 308.055215 153.818182 323.872825 153.818182 340.363636 
C 153.818182 356.854447 160.37005 372.672057 172.030815 384.332822 
C 183.691579 395.993586 199.509189 402.545455 216 402.545455 
z
" clip-path="url(#pe8f4681f69)" style="fill: #0072b2; fill-opacity: 0.2; stroke-dasharray: 9.25,4; stroke-dashoffset: 0; stroke: #0072b2; stroke-width: 2.5; stroke-linejoin: miter"/>
   </g>
   <g id="line2d_1">
    <path d="M 91.636364 402.545455 
L 340.363636 402.545455 
" clip-path="url(#pe8f4681f69)" style="fill: none; stroke: #808080; stroke-width: 2.5; stroke-linecap: square"/>
   </g>
   <g id="line2d_2">
    <path d="M 216 153.818182 
L 216 340.363636 
" clip-path="url(#pe8f4681f69)" style="fill: none; stroke-dasharray: 9.25,4; stroke-dashoffset: 0; stroke: #808080; stroke-width: 2.5"/>
   </g>
  </g>
 </g>
 <defs>
  <clipPath id="pe8f4681f69">
   <rect x="10.8" y="10.8" width="410.4" height="410.4"/>
  </clipPath>
 </defs>
</svg>
