<?xml version="1.0" encoding="utf-8" standalone="no"?>
<!DOCTYPE svg PUBLIC "-//W3C//DTD SVG 1.1//EN"
  "http://www.w3.org/Graphics/SVG/1.1/DTD/svg11.dtd">
<svg xmlns:xlink="http://www.w3.org/1999/xlink" width="576pt" height="144pt" viewBox="0 0 576 144" xmlns="http://www.w3.org/2000/svg" version="1.1">
 <metadata>
  <rdf:RDF xmlns:dc="http://purl.org/dc/elements/1.1/" xmlns:cc="http://creativecommons.org/ns#" xmlns:rdf="http://www.w3.org/1999/02/22-rdf-syntax-ns#">
   <cc:Work>
    <dc:type rdf:resource="http://purl.org/dc/dcmitype/StillImage"/>
    <dc:date>2026-02-18T11:43:41.593849</dc:date>
    <dc:format>image/svg+xml</dc:format>
    <dc:creator>
     <cc:Agent>
      <dc:title>Matplotlib v3.9.1, https://matplotlib.org/</dc:title>
     </cc:Agent>
    </dc:creator>
   </cc:Work>
  </rdf:RDF>
 </metadata>
 <defs>
  <style type="text/css">*{stroke-linejoin: round; stroke-linecap: butt}</style>
 </defs>
 <g id="figure_1">
  <g id="patch_1">
   <path d="M 0 144 
L 576 144 
L 576 0 
L 0 0 
L 0 144 
z
" style="fill: none"/>
  </g>
  <g id="axes_1">
   <g id="patch_2">
    <path d="M 56.660105 127.636364 
L 167.932833 127.636364 
L 167.932833 16.363636 
L 56.660105 16.363636 
L 56.660105 127.636364 
z
" clip-path="url(#pee64e1e0c3)" style="fill: none; opacity: 0"/>
   </g>
   <g id="patch_3">
    <path d="M 223.569196 127.636364 
L 301.460105 127.636364 
L 301.460105 49.745455 
L 223.569196 49.745455 
L 223.569196 127.636364 
z
" clip-path="url(#pee64e1e0c3)" style="fill: none; opacity: 0"/>
   </g>
   <g id="patch_4">
    <path d="M 279.20556 127.636364 
L 333.729196 127.636364 
L 333.729196 73.112727 
L 279.20556 73.112727 
L 279.20556 127.636364 
z
" clip-path="url(#pee64e1e0c3)" style="fill: none; opacity: 0"/>
   </g>
   <g id="patch_5">
    <path d="M 389.36556 127.636364 
L 427.532105 127.636364 
L 427.532105 89.469818 
L 389.36556 89.469818 
L 389.36556 127.636364 
z
" clip-path="url(#pee64e1e0c3)" style="fill: none; opacity: 0"/>
   </g>
   <g id="patch_6">
    <path d="M 445.001924 127.636364 
L 471.718505 127.636364 
L 471.718505 100.919782 
L 445.001924 100.919782 
L 445.001924 127.636364 
z
" clip-path="url(#pee64e1e0c3)" style="fill: none; opacity: 0"/>
   </g>
   <g id="patch_7">
    <path d="M 500.638287 127.636364 
L 519.339895 127.636364 
L 519.339895 108.934756 
L 500.638287 108.934756 
L 500.638287 127.636364 
z
" clip-path="url(#pee64e1e0c3)" style="fill: none; opacity: 0"/>
   </g>
   <g id="line2d_1">
    <path d="M 56.660105 127.636364 
L 167.932833 127.636364 
L 167.932833 16.363636 
L 56.660105 16.363636 
L 56.660105 127.636364 
" clip-path="url(#pee64e1e0c3)" style="fill: none; stroke: #000000; stroke-width: 1.5; stroke-linecap: square"/>
   </g>
   <g id="line2d_2">
    <path d="M 223.569196 127.636364 
L 301.460105 127.636364 
L 301.460105 49.745455 
L 223.569196 49.745455 
L 223.569196 127.636364 
" clip-path="url(#pee64e1e0c3)" style="fill: none; stroke: #000000; stroke-width: 1.5; stroke-linecap: square"/>
   </g>
   <g id="line2d_3">
    <path d="M 279.20556 127.636364 
L 333.729196 127.636364 
L 333.729196 73.112727 
L 279.20556 73.112727 
L 279.20556 127.636364 
" clip-path="url(#pee64e1e0c3)" style="fill: none; stroke: #000000; stroke-width: 1.5; stroke-linecap: square"/>
   </g>
   <g id="line2d_4">
    <path d="M 389.36556 127.636364 
L 427.532105 127.636364 
L 427.532105 89.469818 
L 389.36556 89.469818 
L 389.36556 127.636364 
" clip-path="url(#pee64e1e0c3)" style="fill: none; stroke: #000000; stroke-width: 1.5; stroke-linecap: square"/>
   </g>
   <g id="line2d_5">
    <path d="M 445.001924 127.636364 
L 471.718505 127.636364 
L 471.718505 100.919782 
L 445.001924 100.919782 
L 445.001924 127.636364 
" clip-path="url(#pee64e1e0c3)" style="fill: none; stroke: #000000; stroke-width: 1.5; stroke-linecap: square"/>
   </g>
   <g id="line2d_6">
    <path d="M 500.638287 127.636364 
L 519.339895 127.636364 
L 519.339895 108.934756 
L 500.638287 108.934756 
L 500.638287 127.636364 
" clip-path="url(#pee64e1e0c3)" style="fill: none; stroke: #000000; stroke-width: 1.5; stroke-linecap: square"/>
   </g>
  </g>
 </g>
 <defs>
  <clipPath id="pee64e1e0c3">
   <rect x="10.8" y="10.8" width="554.4" height="122.4"/>
  </clipPath>
 </defs>
</svg>
