<?xml version="1.0" encoding="utf-8" standalone="no"?>
<!DOCTYPE svg PUBLIC "-//W3C//DTD SVG 1.1//EN"
  "http://www.w3.org/Graphics/SVG/1.1/DTD/svg11.dtd">
<svg xmlns:xlink="http://www.w3.org/1999/xlink" width="432pt" height="432pt" viewBox="0 0 432 432" xmlns="http://www.w3.org/2000/svg" version="1.1">
 <metadata>
  <rdf:RDF xmlns:dc="http://purl.org/dc/elements/1.1/" xmlns:cc="http://creativecommons.org/ns#" xmlns:rdf="http://www.w3.org/1999/02/22-rdf-syntax-ns#">
   <cc:Work>
    <dc:type rdf:resource="http://purl.org/dc/dcmitype/StillImage"/>
    <dc:date>2026-02-21T17:40:42.191925</dc:date>
    <dc:format>image/svg+xml</dc:format>
    <dc:creator>
     <cc:Agent>
      <dc:title>Matplotlib v3.9.1, https://matplotlib.org/</dc:title>
     </cc:Agent>
    </dc:creator>
   </cc:Work>
  </rdf:RDF>
 </metadata>
 <defs>
  <style type="text/css">*{stroke-linejoin: round; stroke-linecap: butt}</style>
 </defs>
 <g id="figure_1">
  <g id="patch_1">
   <path d="M 0 432 
L 432 432 
L 432 0 
L 0 0 
L 0 432 
z
" style="fill: none"/>
  </g>
  <g id="axes_1">
   <g id="patch_2">
    <path d="M 216 97.289256 
C 224.994988 97.289256 233.622775 93.71551 239.983192 87.355093 
C 246.343609 80.994676 249.917355 72.366889 249.917355 63.371901 
C 249.917355 54.376913 246.343609 45.749126 239.983192 39.388709 
C 233.622775 33.028292 224.994988 29.454545 216 29.454545 
C 207.005012 29.454545 198.377225 33.028292 192.016808 39.388709 
C 185.656391 45.749126 182.082645 54.376913 182.082645 63.371901 
C 182.082645 72.366889 185.656391 80.994676 192.016808 87.355093 
C 198.377225 93.71551 207.005012 97.289256 216 97.289256 
z
" clip-path="url(#p563b383286)" style="fill: #0072b2; fill-opacity: 0.2; stroke: #0072b2; stroke-width: 2.5; stroke-linejoin: miter"/>
   </g>
   <g id="patch_3">
    <path d="M 216 402.545455 
C 224.994988 402.545455 233.622775 398.971708 239.983192 392.611291 
C 246.343609 386.250874 249.917355 377.623087 249.917355 368.628099 
C 249.917355 359.633111 246.343609 351.005324 239.983192 344.644907 
C 233.622775 338.28449 224.994988 334.710744 216 334.710744 
C 207.005012 334.710744 198.377225 338.28449 192.016808 344.644907 
C 185.656391 351.005324 182.082645 359.633111 182.082645 368.628099 
C 182.082645 377.623087 185.656391 386.250874 192.016808 392.611291 
C 198.377225 398.971708 207.005012 402.545455 216 402.545455 
z
" clip-path="url(#p563b383286)" style="fill: #0072b2; fill-opacity: 0.2; stroke-dasharray: 9.25,4; stroke-dashoffset: 0; stroke: #0072b2; stroke-width: 2.5; stroke-linejoin: miter"/>
   </g>
   <g id="line2d_1">
    <path d="M 80.330579 402.545455 
L 351.669421 402.545455 
" clip-path="url(#p563b383286)" style="fill: none; stroke: #808080; stroke-width: 2.5; stroke-linecap: square"/>
   </g>
   <g id="line2d_2">
    <path d="M 216 63.371901 
L 216 368.628099 
" clip-path="url(#p563b383286)" style="fill: none; stroke-dasharray: 9.25,4; stroke-dashoffset: 0; stroke: #808080; stroke-width: 2.5"/>
   </g>
  </g>
 </g>
 <defs>
  <clipPath id="p563b383286">
   <rect x="10.8" y="10.8" width="410.4" height="410.4"/>
  </clipPath>
 </defs>
</svg>
