<?xml version="1.0" encoding="utf-8" standalone="no"?>
<!DOCTYPE svg PUBLIC "-//W3C//DTD SVG 1.1//EN"
  "http://www.w3.org/Graphics/SVG/1.1/DTD/svg11.dtd">
<svg xmlns:xlink="http://www.w3.org/1999/xlink" width="460.8pt" height="345.6pt" viewBox="0 0 460.8 345.6" xmlns="http://www.w3.org/2000/svg" version="1.1">
 <metadata>
  <rdf:RDF xmlns:dc="http://purl.org/dc/elements/1.1/" xmlns:cc="http://creativecommons.org/ns#" xmlns:rdf="http://www.w3.org/1999/02/22-rdf-syntax-ns#">
   <cc:Work>
    <dc:type rdf:resource="http://purl.org/dc/dcmitype/StillImage"/>
    <dc:date>2026-02-08T00:16:03.839617</dc:date>
    <dc:format>image/svg+xml</dc:format>
    <dc:creator>
     <cc:Agent>
      <dc:title>Matplotlib v3.9.1, https://matplotlib.org/</dc:title>
     </cc:Agent>
    </dc:creator>
   </cc:Work>
  </rdf:RDF>
 </metadata>
 <defs>
  <style type="text/css">*{stroke-linejoin: round; stroke-linecap: butt}</style>
 </defs>
 <g id="figure_1">
  <g id="patch_1">
   <path d="M 0 345.6 
L 460.8 345.6 
L 460.8 0 
L 0 0 
L 0 345.6 
z
" style="fill: none"/>
  </g>
  <g id="axes_1">
   <g id="patch_2">
    <path d="M 10.8 334.8 
L 447 334.8 
L 447 20.016315 
L 10.8 20.016315 
L 10.8 334.8 
z
" style="fill: none"/>
   </g>
   <g id="matplotlib.axis_1">
    <g id="text_1">
     <!-- $x$ -->
     <g transform="translate(435.913188 195.245154) scale(0.2 -0.2)">
      <defs>
       <path id="CMMI12-78" d="M 3034 2606 
C 2829 2567 2752 2414 2752 2293 
C 2752 2139 2874 2088 2963 2088 
C 3155 2088 3290 2254 3290 2427 
C 3290 2695 2982 2816 2714 2816 
C 2323 2816 2106 2433 2048 2312 
C 1901 2816 1504 2816 1389 2816 
C 736 2816 390 1980 390 1839 
C 390 1814 416 1782 461 1782 
C 512 1782 525 1820 538 1846 
C 755 2555 1184 2689 1370 2689 
C 1658 2689 1715 2420 1715 2267 
C 1715 2127 1677 1980 1600 1673 
L 1382 798 
C 1286 415 1101 64 762 64 
C 730 64 570 64 435 147 
C 666 192 717 383 717 460 
C 717 588 621 664 499 664 
C 346 664 179 530 179 326 
C 179 57 480 -64 755 -64 
C 1062 -64 1280 179 1414 441 
C 1517 64 1837 -64 2074 -64 
C 2726 -64 3072 773 3072 913 
C 3072 945 3046 971 3008 971 
C 2950 971 2944 939 2925 888 
C 2752 326 2381 64 2093 64 
C 1869 64 1747 230 1747 492 
C 1747 632 1773 734 1875 1156 
L 2099 2024 
C 2195 2408 2413 2689 2707 2689 
C 2720 2689 2899 2689 3034 2606 
z
" transform="scale(0.015625)"/>
      </defs>
      <use xlink:href="#CMMI12-78" transform="scale(0.996264)"/>
     </g>
    </g>
   </g>
   <g id="matplotlib.axis_2">
    <g id="text_2">
     <!-- $y$ -->
     <g transform="translate(191.153832 16.140682) scale(0.2 -0.2)">
      <defs>
       <path id="CMMI12-79" d="M 1683 -700 
C 1510 -939 1261 -1152 947 -1152 
C 870 -1152 563 -1152 467 -889 
C 486 -895 518 -895 531 -895 
C 723 -895 851 -729 851 -582 
C 851 -435 730 -384 634 -384 
C 531 -384 307 -458 307 -759 
C 307 -1071 582 -1286 947 -1286 
C 1587 -1286 2234 -700 2413 6 
L 3040 2485 
C 3046 2517 3059 2556 3059 2594 
C 3059 2689 2982 2753 2886 2753 
C 2829 2753 2694 2727 2643 2535 
L 2170 658 
C 2138 543 2138 530 2086 460 
C 1958 281 1747 64 1440 64 
C 1082 64 1050 415 1050 588 
C 1050 952 1222 1443 1395 1903 
C 1466 2088 1504 2178 1504 2305 
C 1504 2574 1312 2816 998 2816 
C 410 2816 173 1890 173 1839 
C 173 1814 198 1782 243 1782 
C 301 1782 307 1807 333 1897 
C 486 2433 730 2689 979 2689 
C 1037 2689 1146 2689 1146 2478 
C 1146 2312 1075 2127 979 1884 
C 666 1047 666 837 666 683 
C 666 77 1101 -64 1421 -64 
C 1606 -64 1837 -6 2061 230 
L 2067 224 
C 1971 -147 1907 -392 1683 -700 
z
" transform="scale(0.015625)"/>
      </defs>
      <use xlink:href="#CMMI12-79" transform="scale(0.996264)"/>
     </g>
    </g>
   </g>
   <g id="line2d_1">
    <defs>
     <path id="mdd6694e82f" d="M 3 0 
L -3 -3 
L -3 3 
z
" style="stroke: #000000; stroke-linejoin: miter"/>
    </defs>
    <g>
     <use xlink:href="#mdd6694e82f" x="447" y="177.408158" style="stroke: #000000; stroke-linejoin: miter"/>
    </g>
   </g>
   <g id="line2d_2">
    <defs>
     <path id="mfbbc66e648" d="M 0 -3 
L -3 3 
L 3 3 
z
" style="stroke: #000000; stroke-linejoin: miter"/>
    </defs>
    <g>
     <use xlink:href="#mfbbc66e648" x="204.666667" y="20.016315" style="stroke: #000000; stroke-linejoin: miter"/>
    </g>
   </g>
   <g id="line2d_3">
    <path d="M 86.400506 -1 
L 89.317598 30.382652 
L 92.193115 58.977893 
L 95.042007 85.113858 
L 97.837649 108.728318 
L 100.58004 130.02041 
L 103.269181 149.175952 
L 105.905072 166.368197 
L 108.461088 181.607022 
L 110.963853 195.221253 
L 113.413368 207.348038 
L 115.809632 218.114831 
L 118.152646 227.639982 
L 120.44241 236.033284 
L 122.678923 243.396504 
L 124.835561 249.749888 
L 126.938949 255.271209 
L 128.989086 260.039346 
L 130.959348 264.076136 
L 132.87636 267.513 
L 134.740121 270.410463 
L 136.550632 272.824243 
L 138.307892 274.80558 
L 140.011903 276.401547 
L 141.689288 277.673272 
L 143.340048 278.647536 
L 144.964182 279.34949 
L 146.588317 279.808361 
L 148.212452 280.035323 
L 149.863212 280.039676 
L 151.540597 279.821984 
L 153.297858 279.366434 
L 155.134994 278.655353 
L 157.07863 277.657844 
L 159.128768 276.350953 
L 161.338656 274.67143 
L 163.708295 272.584845 
L 166.290936 270.006808 
L 169.113203 266.868214 
L 172.254972 263.033043 
L 175.822743 258.314914 
L 180.002893 252.403311 
L 185.327925 244.462278 
L 205.376671 214.171811 
L 209.982824 207.837367 
L 214.083098 202.569851 
L 217.837246 198.102593 
L 221.325142 194.289743 
L 224.626662 191.003446 
L 227.768431 188.184328 
L 230.777074 185.778245 
L 233.679216 183.737853 
L 236.501483 182.023505 
L 239.243875 180.616125 
L 241.933016 179.485187 
L 244.568907 178.616273 
L 247.178172 177.988689 
L 249.787438 177.590111 
L 252.396704 177.416905 
L 255.032595 177.46577 
L 257.695111 177.737052 
L 260.437502 178.241285 
L 263.259769 178.987736 
L 266.215162 180.002916 
L 269.303681 181.301139 
L 272.605201 182.932964 
L 276.199597 184.962348 
L 280.246621 187.510839 
L 285.092401 190.837433 
L 293.213075 196.735574 
L 299.789489 201.390226 
L 303.969639 204.081034 
L 307.404285 206.034408 
L 310.386303 207.482369 
L 313.075444 208.547567 
L 315.551584 209.293082 
L 317.841348 209.754531 
L 319.997986 209.965942 
L 322.048123 209.946256 
L 324.018385 209.706818 
L 325.935396 209.24984 
L 327.799158 208.578213 
L 329.662919 207.667081 
L 331.500055 206.519425 
L 333.337191 205.108744 
L 335.200952 203.392913 
L 337.091339 201.342752 
L 339.00835 198.927104 
L 340.951987 196.112733 
L 342.922249 192.864216 
L 344.945761 189.091222 
L 347.022523 184.73453 
L 349.125911 179.79567 
L 351.282549 174.153378 
L 353.492437 167.733156 
L 355.728951 160.544069 
L 358.018715 152.426917 
L 360.361729 143.288839 
L 362.757993 133.029383 
L 365.207508 121.539997 
L 367.683648 108.846074 
L 370.213038 94.70437 
L 372.795678 78.981392 
L 375.431569 61.533437 
L 378.094085 42.405098 
L 380.809852 21.264308 
L 383.457173 -1 
L 383.457173 -1 
" clip-path="url(#p7e3d7d7f9f)" style="fill: none; stroke: #0072b2; stroke-width: 2.5; stroke-linecap: square"/>
   </g>
   <g id="line2d_4">
    <defs>
     <path id="me9847929c2" d="M 0 5 
C 1.326016 5 2.597899 4.473168 3.535534 3.535534 
C 4.473168 2.597899 5 1.326016 5 0 
C 5 -1.326016 4.473168 -2.597899 3.535534 -3.535534 
C 2.597899 -4.473168 1.326016 -5 0 -5 
C -1.326016 -5 -2.597899 -4.473168 -3.535534 -3.535534 
C -4.473168 -2.597899 -5 -1.326016 -5 0 
C -5 1.326016 -4.473168 2.597899 -3.535534 3.535534 
C -2.597899 4.473168 -1.326016 5 0 5 
z
" style="stroke: #000000; stroke-opacity: 0.8"/>
    </defs>
    <g clip-path="url(#p7e3d7d7f9f)">
     <use xlink:href="#me9847929c2" x="107.733333" y="177.408158" style="fill-opacity: 0.8; stroke: #000000; stroke-opacity: 0.8"/>
    </g>
   </g>
   <g id="line2d_5">
    <g clip-path="url(#p7e3d7d7f9f)">
     <use xlink:href="#me9847929c2" x="253.133333" y="177.408158" style="fill-opacity: 0.8; stroke: #000000; stroke-opacity: 0.8"/>
    </g>
   </g>
   <g id="line2d_6">
    <g clip-path="url(#p7e3d7d7f9f)">
     <use xlink:href="#me9847929c2" x="350.066667" y="177.408158" style="fill-opacity: 0.8; stroke: #000000; stroke-opacity: 0.8"/>
    </g>
   </g>
   <g id="patch_3">
    <path d="M 204.666667 334.8 
L 204.666667 20.016315 
" style="fill: none; stroke: #000000; stroke-width: 0.8; stroke-linejoin: miter; stroke-linecap: square"/>
   </g>
   <g id="patch_4">
    <path d="M 447 334.8 
L 447 20.016315 
" style="fill: none"/>
   </g>
   <g id="patch_5">
    <path d="M 10.8 177.408158 
L 447 177.408158 
" style="fill: none; stroke: #000000; stroke-width: 0.8; stroke-linejoin: miter; stroke-linecap: square"/>
   </g>
   <g id="patch_6">
    <path d="M 10.8 20.016315 
L 447 20.016315 
" style="fill: none"/>
   </g>
   <g id="legend_1">
    <g id="patch_7">
     <path d="M 24.8 324.8 
L 104.379653 324.8 
Q 108.379653 324.8 108.379653 320.8 
L 108.379653 293.946233 
Q 108.379653 289.946233 104.379653 289.946233 
L 24.8 289.946233 
Q 20.8 289.946233 20.8 293.946233 
L 20.8 320.8 
Q 20.8 324.8 24.8 324.8 
z
" style="fill: #ffffff; opacity: 0.8; stroke: #cccccc; stroke-linejoin: miter"/>
    </g>
    <g id="line2d_7">
     <path d="M 28.8 305.924366 
L 48.8 305.924366 
L 68.8 305.924366 
" style="fill: none; stroke: #0072b2; stroke-width: 2.5; stroke-linecap: square"/>
    </g>
    <g id="text_3">
     <!-- $f'$ -->
     <g transform="translate(84.8 312.924366) scale(0.2 -0.2)">
      <defs>
       <path id="CMMI12-66" d="M 2854 2566 
C 2982 2566 3034 2566 3034 2688 
C 3034 2752 2982 2752 2867 2752 
L 2349 2752 
C 2470 3429 2560 3897 2611 4107 
C 2650 4265 2784 4416 2950 4416 
C 3085 4416 3219 4358 3283 4298 
C 3034 4272 2957 4082 2957 3969 
C 2957 3837 3053 3759 3174 3759 
C 3302 3759 3494 3870 3494 4119 
C 3494 4393 3226 4544 2944 4544 
C 2669 4544 2400 4334 2272 4078 
C 2157 3848 2093 3611 1946 2752 
L 1517 2752 
C 1395 2752 1331 2752 1331 2637 
C 1331 2566 1370 2566 1498 2566 
L 1907 2566 
C 1792 1976 1530 542 1382 -137 
C 1274 -689 1178 -1152 858 -1152 
C 838 -1152 653 -1152 538 -1031 
C 864 -1005 864 -726 864 -720 
C 864 -593 768 -517 646 -517 
C 518 -517 326 -625 326 -867 
C 326 -1140 608 -1280 858 -1280 
C 1510 -1280 1779 -118 1850 199 
C 1965 688 2278 2376 2310 2566 
L 2854 2566 
z
" transform="scale(0.015625)"/>
       <path id="CMSY10-30" d="M 1619 3040 
C 1651 3117 1677 3174 1677 3238 
C 1677 3424 1510 3578 1312 3578 
C 1133 3578 1018 3456 973 3290 
L 211 493 
C 211 480 186 410 186 403 
C 186 333 352 288 403 288 
C 442 288 448 307 486 390 
L 1619 3040 
z
" transform="scale(0.015625)"/>
      </defs>
      <use xlink:href="#CMMI12-66" transform="scale(0.996264)"/>
      <use xlink:href="#CMSY10-30" transform="translate(58.720305 36.153639) scale(0.697382)"/>
     </g>
    </g>
   </g>
  </g>
 </g>
 <defs>
  <clipPath id="p7e3d7d7f9f">
   <rect x="10.8" y="20.016315" width="436.2" height="314.783685"/>
  </clipPath>
 </defs>
</svg>
