<?xml version="1.0" encoding="utf-8" standalone="no"?>
<!DOCTYPE svg PUBLIC "-//W3C//DTD SVG 1.1//EN"
  "http://www.w3.org/Graphics/SVG/1.1/DTD/svg11.dtd">
<svg xmlns:xlink="http://www.w3.org/1999/xlink" width="432pt" height="432pt" viewBox="0 0 432 432" xmlns="http://www.w3.org/2000/svg" version="1.1">
 <metadata>
  <rdf:RDF xmlns:dc="http://purl.org/dc/elements/1.1/" xmlns:cc="http://creativecommons.org/ns#" xmlns:rdf="http://www.w3.org/1999/02/22-rdf-syntax-ns#">
   <cc:Work>
    <dc:type rdf:resource="http://purl.org/dc/dcmitype/StillImage"/>
    <dc:date>2026-04-11T16:58:20.338815</dc:date>
    <dc:format>image/svg+xml</dc:format>
    <dc:creator>
     <cc:Agent>
      <dc:title>Matplotlib v3.10.8, https://matplotlib.org/</dc:title>
     </cc:Agent>
    </dc:creator>
   </cc:Work>
  </rdf:RDF>
 </metadata>
 <defs>
  <style type="text/css">*{stroke-linejoin: round; stroke-linecap: butt}</style>
 </defs>
 <g id="figure_1">
  <g id="patch_1">
   <path d="M 0 432 
L 432 432 
L 432 0 
L 0 0 
L 0 432 
z
" style="fill: none"/>
  </g>
  <g id="axes_1">
   <g id="line2d_1">
    <path d="M 47.970434 361.390553 
L 215.852984 264.463518 
" clip-path="url(#p818530abad)" style="fill: none; stroke: #0072b2; stroke-width: 2.5; stroke-linecap: square"/>
   </g>
   <g id="line2d_2">
    <path d="M 215.852984 264.463518 
L 215.852984 70.609447 
" clip-path="url(#p818530abad)" style="fill: none; stroke: #0072b2; stroke-width: 2.5; stroke-linecap: square"/>
   </g>
   <g id="line2d_3">
    <path d="M 215.852984 70.609447 
L 47.970434 361.390553 
" clip-path="url(#p818530abad)" style="fill: none; stroke: #0072b2; stroke-width: 2.5; stroke-linecap: square"/>
   </g>
   <g id="line2d_4">
    <path d="M 215.852984 264.463518 
L 383.735533 361.390553 
" clip-path="url(#p818530abad)" style="fill: none; stroke: #0072b2; stroke-width: 2.5; stroke-linecap: square"/>
   </g>
   <g id="line2d_5">
    <path d="M 383.735533 361.390553 
L 215.852984 70.609447 
" clip-path="url(#p818530abad)" style="fill: none; stroke: #0072b2; stroke-width: 2.5; stroke-linecap: square"/>
   </g>
   <g id="line2d_6">
    <path d="M 215.852984 70.609447 
L 215.852984 264.463518 
" clip-path="url(#p818530abad)" style="fill: none; stroke: #0072b2; stroke-width: 2.5; stroke-linecap: square"/>
   </g>
   <g id="line2d_7">
    <path d="M 75.485205 345.504892 
L 75.310286 345.205704 
L 75.132114 344.908441 
L 74.950709 344.613139 
L 74.766095 344.319834 
L 74.578291 344.02856 
L 74.387322 343.739352 
L 74.19321 343.452245 
L 73.995977 343.167271 
L 73.795647 342.884467 
L 73.592245 342.603864 
L 73.385793 342.325497 
L 73.176318 342.049398 
L 72.963843 341.7756 
L 72.748395 341.504137 
L 72.529998 341.23504 
L 72.308678 340.968341 
L 72.084463 340.704072 
L 71.857378 340.442265 
L 71.627451 340.18295 
L 71.394709 339.926159 
L 71.15918 339.671922 
L 70.920892 339.420269 
L 70.679872 339.171231 
L 70.436151 338.924836 
L 70.189756 338.681114 
L 69.940718 338.440095 
L 69.689065 338.201807 
L 69.434828 337.966278 
L 69.178036 337.733536 
L 68.918722 337.503609 
L 68.656915 337.276524 
L 68.392646 337.052309 
L 68.125947 336.830989 
L 67.85685 336.612592 
L 67.585386 336.397144 
L 67.311589 336.184669 
L 67.03549 335.975193 
L 66.757123 335.768742 
L 66.47652 335.56534 
L 66.193715 335.36501 
L 65.908742 335.167777 
L 65.621634 334.973665 
L 65.332426 334.782695 
L 65.041153 334.594892 
L 64.747847 334.410277 
L 64.452546 334.228873 
L 64.155283 334.050701 
L 63.856095 333.875781 
" clip-path="url(#p818530abad)" style="fill: none; stroke: #dc5e8b; stroke-width: 2; stroke-linecap: square"/>
   </g>
   <g id="line2d_8">
    <path d="M 199.967323 98.124219 
L 200.268402 98.295864 
L 200.571335 98.464215 
L 200.876086 98.629251 
L 201.18262 98.790953 
L 201.490899 98.949302 
L 201.800888 99.104279 
L 202.112548 99.255866 
L 202.425843 99.404043 
L 202.740736 99.548794 
L 203.057189 99.690102 
L 203.375165 99.82795 
L 203.694625 99.962321 
L 204.015533 100.093199 
L 204.337848 100.220569 
L 204.661534 100.344415 
L 204.986552 100.464723 
L 205.312862 100.581479 
L 205.640427 100.694669 
L 205.969207 100.804278 
L 206.299163 100.910295 
L 206.630256 101.012706 
L 206.962446 101.1115 
L 207.295694 101.206664 
L 207.629961 101.298187 
L 207.965205 101.386059 
L 208.301389 101.470268 
L 208.638471 101.550806 
L 208.976411 101.627661 
L 209.31517 101.700826 
L 209.654706 101.770292 
L 209.99498 101.836049 
L 210.335952 101.898091 
L 210.677579 101.95641 
L 211.019823 102.010998 
L 211.362641 102.061851 
L 211.705994 102.10896 
L 212.04984 102.152322 
L 212.394139 102.191931 
L 212.73885 102.227781 
L 213.08393 102.259869 
L 213.429341 102.288191 
L 213.77504 102.312744 
L 214.120986 102.333524 
L 214.467138 102.350529 
L 214.813455 102.363758 
L 215.159896 102.373208 
L 215.506419 102.378878 
L 215.852984 102.380769 
" clip-path="url(#p818530abad)" style="fill: none; stroke: #dc5e8b; stroke-width: 2; stroke-linecap: square"/>
   </g>
   <g id="line2d_9">
    <path d="M 356.220762 345.504892 
L 356.395681 345.205704 
L 356.573853 344.908441 
L 356.755258 344.613139 
L 356.939872 344.319834 
L 357.127676 344.02856 
L 357.318645 343.739352 
L 357.512757 343.452245 
L 357.70999 343.167271 
L 357.91032 342.884467 
L 358.113722 342.603864 
L 358.320174 342.325497 
L 358.529649 342.049398 
L 358.742124 341.7756 
L 358.957573 341.504137 
L 359.17597 341.23504 
L 359.397289 340.968341 
L 359.621504 340.704072 
L 359.848589 340.442265 
L 360.078516 340.18295 
L 360.311258 339.926159 
L 360.546787 339.671922 
L 360.785076 339.420269 
L 361.026095 339.171231 
L 361.269816 338.924836 
L 361.516211 338.681114 
L 361.76525 338.440095 
L 362.016902 338.201807 
L 362.27114 337.966278 
L 362.527931 337.733536 
L 362.787245 337.503609 
L 363.049053 337.276524 
L 363.313321 337.052309 
L 363.58002 336.830989 
L 363.849117 336.612592 
L 364.120581 336.397144 
L 364.394378 336.184669 
L 364.670477 335.975193 
L 364.948844 335.768742 
L 365.229447 335.56534 
L 365.512252 335.36501 
L 365.797225 335.167777 
L 366.084333 334.973665 
L 366.373541 334.782695 
L 366.664815 334.594892 
L 366.95812 334.410277 
L 367.253421 334.228873 
L 367.550684 334.050701 
L 367.849872 333.875781 
" clip-path="url(#p818530abad)" style="fill: none; stroke: #dc5e8b; stroke-width: 2; stroke-linecap: square"/>
   </g>
   <g id="line2d_10">
    <path d="M 215.852984 102.380769 
L 216.199548 102.378878 
L 216.546071 102.373208 
L 216.892512 102.363758 
L 217.238829 102.350529 
L 217.584981 102.333524 
L 217.930927 102.312744 
L 218.276626 102.288191 
L 218.622037 102.259869 
L 218.967118 102.227781 
L 219.311828 102.191931 
L 219.656127 102.152322 
L 219.999973 102.10896 
L 220.343326 102.061851 
L 220.686145 102.010998 
L 221.028388 101.95641 
L 221.370016 101.898091 
L 221.710987 101.836049 
L 222.051261 101.770292 
L 222.390797 101.700826 
L 222.729556 101.627661 
L 223.067496 101.550806 
L 223.404578 101.470268 
L 223.740762 101.386059 
L 224.076007 101.298187 
L 224.410273 101.206664 
L 224.743521 101.1115 
L 225.075711 101.012706 
L 225.406804 100.910295 
L 225.73676 100.804278 
L 226.06554 100.694669 
L 226.393105 100.581479 
L 226.719415 100.464723 
L 227.044433 100.344415 
L 227.368119 100.220569 
L 227.690435 100.093199 
L 228.011342 99.962321 
L 228.330802 99.82795 
L 228.648778 99.690102 
L 228.965231 99.548794 
L 229.280124 99.404043 
L 229.593419 99.255866 
L 229.90508 99.104279 
L 230.215068 98.949302 
L 230.523347 98.790953 
L 230.829881 98.629251 
L 231.134632 98.464215 
L 231.437565 98.295864 
L 231.738644 98.124219 
" clip-path="url(#p818530abad)" style="fill: none; stroke: #dc5e8b; stroke-width: 2; stroke-linecap: square"/>
   </g>
   <g id="text_1">
    <!-- $30^\circ$ -->
    <g transform="translate(64.625242 334.415901) scale(0.27 -0.27)">
     <defs>
      <path id="CMR17-33" d="M 1414 2157 
C 1984 2157 2234 1662 2234 1090 
C 2234 320 1824 25 1453 25 
C 1114 25 563 194 390 693 
C 422 680 454 680 486 680 
C 640 680 755 782 755 948 
C 755 1133 614 1216 486 1216 
C 378 1216 211 1165 211 926 
C 211 335 787 -128 1466 -128 
C 2176 -128 2720 430 2720 1085 
C 2720 1707 2208 2157 1600 2227 
C 2086 2328 2554 2756 2554 3329 
C 2554 3820 2048 4179 1472 4179 
C 890 4179 378 3829 378 3329 
C 378 3110 544 3072 627 3072 
C 762 3072 877 3155 877 3321 
C 877 3486 762 3569 627 3569 
C 602 3569 570 3569 544 3557 
C 730 3959 1235 4032 1459 4032 
C 1683 4032 2106 3925 2106 3320 
C 2106 3143 2080 2828 1862 2550 
C 1670 2304 1453 2304 1242 2284 
C 1210 2284 1062 2269 1037 2269 
C 992 2263 966 2257 966 2208 
C 966 2163 973 2157 1101 2157 
L 1414 2157 
z
" transform="scale(0.015625)"/>
      <path id="CMR17-30" d="M 2688 2025 
C 2688 2416 2682 3080 2413 3591 
C 2176 4039 1798 4198 1466 4198 
C 1158 4198 768 4058 525 3597 
C 269 3118 243 2524 243 2025 
C 243 1661 250 1106 448 619 
C 723 -39 1216 -128 1466 -128 
C 1760 -128 2208 -7 2470 600 
C 2662 1042 2688 1559 2688 2025 
z
M 1466 -26 
C 1056 -26 813 325 723 812 
C 653 1188 653 1738 653 2096 
C 653 2588 653 2997 736 3387 
C 858 3929 1216 4096 1466 4096 
C 1728 4096 2067 3923 2189 3400 
C 2272 3036 2278 2607 2278 2096 
C 2278 1680 2278 1169 2202 792 
C 2067 95 1690 -26 1466 -26 
z
" transform="scale(0.015625)"/>
      <path id="CMSY10-e" d="M 2842 1600 
C 2842 2277 2272 2828 1600 2828 
C 909 2828 352 2264 352 1600 
C 352 930 909 372 1600 372 
C 2272 372 2842 923 2842 1600 
z
M 1600 628 
C 1043 628 608 1070 608 1600 
C 608 2130 1050 2572 1600 2572 
C 2131 2572 2586 2142 2586 1600 
C 2586 1058 2131 628 1600 628 
z
" transform="scale(0.015625)"/>
     </defs>
     <use xlink:href="#CMR17-33" transform="scale(0.996264)"/>
     <use xlink:href="#CMR17-30" transform="translate(45.690477 0) scale(0.996264)"/>
     <use xlink:href="#CMSY10-e" transform="translate(91.380954 36.153639) scale(0.697382)"/>
    </g>
   </g>
   <g id="text_2">
    <!-- $30^\circ$ -->
    <g transform="translate(186.474682 123.36648) scale(0.27 -0.27)">
     <use xlink:href="#CMR17-33" transform="scale(0.996264)"/>
     <use xlink:href="#CMR17-30" transform="translate(45.690477 0) scale(0.996264)"/>
     <use xlink:href="#CMSY10-e" transform="translate(91.380954 36.153639) scale(0.697382)"/>
    </g>
   </g>
   <g id="text_3">
    <!-- $30^\circ$ -->
    <g transform="translate(332.993191 334.415901) scale(0.27 -0.27)">
     <use xlink:href="#CMR17-33" transform="scale(0.996264)"/>
     <use xlink:href="#CMR17-30" transform="translate(45.690477 0) scale(0.996264)"/>
     <use xlink:href="#CMSY10-e" transform="translate(91.380954 36.153639) scale(0.697382)"/>
    </g>
   </g>
   <g id="text_4">
    <!-- $30^\circ$ -->
    <g transform="translate(211.143751 123.36648) scale(0.27 -0.27)">
     <use xlink:href="#CMR17-33" transform="scale(0.996264)"/>
     <use xlink:href="#CMR17-30" transform="translate(45.690477 0) scale(0.996264)"/>
     <use xlink:href="#CMSY10-e" transform="translate(91.380954 36.153639) scale(0.697382)"/>
    </g>
   </g>
   <g id="text_5">
    <!-- $A$ -->
    <g transform="translate(20.491949 387.650429) scale(0.3 -0.3)">
     <defs>
      <path id="CMMI12-41" d="M 1088 691 
C 864 314 646 186 339 186 
C 269 180 218 180 218 58 
C 218 24 250 0 294 0 
C 410 0 698 0 813 0 
C 998 0 1203 0 1382 0 
C 1421 0 1498 0 1498 122 
C 1498 180 1446 186 1408 186 
C 1261 186 1139 236 1139 388 
C 1139 476 1178 546 1261 685 
L 1747 1479 
L 3379 1479 
C 3386 1423 3386 1373 3392 1316 
C 3411 1152 3488 495 3488 376 
C 3488 186 3162 186 3059 186 
C 2989 186 2918 186 2918 70 
C 2918 0 2976 0 3014 0 
C 3123 0 3251 0 3360 0 
L 3725 0 
C 4115 0 4397 0 4403 0 
C 4448 0 4518 0 4518 122 
C 4518 186 4461 186 4365 186 
C 4013 186 4006 244 3987 434 
L 3597 4404 
C 3584 4531 3558 4544 3488 4544 
C 3424 4544 3386 4531 3328 4435 
L 1088 691 
z
M 1856 1664 
L 3142 3819 
L 3360 1664 
L 1856 1664 
z
" transform="scale(0.015625)"/>
     </defs>
     <use xlink:href="#CMMI12-41" transform="scale(0.996264)"/>
    </g>
   </g>
   <g id="text_6">
    <!-- $B$ -->
    <g transform="translate(389.275657 387.650429) scale(0.3 -0.3)">
     <defs>
      <path id="CMMI12-42" d="M 2342 3921 
C 2400 4160 2426 4160 2675 4160 
L 3507 4160 
C 4230 4160 4230 3544 4230 3485 
C 4230 2966 3712 2304 2867 2304 
L 1946 2304 
L 2342 3921 
z
M 3424 2275 
C 4122 2402 4755 2886 4755 3473 
C 4755 3970 4314 4352 3590 4352 
L 1536 4352 
C 1414 4352 1357 4352 1357 4226 
C 1357 4160 1414 4160 1510 4160 
C 1901 4160 1901 4112 1901 4044 
C 1901 4032 1901 3993 1875 3897 
L 1011 472 
C 954 249 941 185 493 185 
C 371 185 307 185 307 70 
C 307 0 346 0 474 0 
L 2669 0 
C 3648 0 4403 739 4403 1383 
C 4403 1906 3942 2224 3424 2275 
z
M 2515 185 
L 1651 185 
C 1562 185 1549 185 1510 192 
C 1440 198 1434 211 1434 261 
C 1434 305 1446 343 1459 399 
L 1907 2176 
L 3110 2176 
C 3866 2176 3866 1483 3866 1433 
C 3866 828 3309 185 2515 185 
z
" transform="scale(0.015625)"/>
     </defs>
     <use xlink:href="#CMMI12-42" transform="scale(0.996264)"/>
    </g>
   </g>
   <g id="text_7">
    <!-- $C$ -->
    <g transform="translate(205.384177 59.291616) scale(0.3 -0.3)">
     <defs>
      <path id="CMMI12-43" d="M 4781 4423 
C 4781 4480 4736 4480 4723 4480 
C 4710 4480 4685 4480 4634 4416 
L 4192 3882 
C 3968 4264 3616 4480 3136 4480 
C 1754 4480 320 3088 320 1595 
C 320 533 1069 -128 2003 -128 
C 2515 -128 2963 88 3334 400 
C 3891 863 4058 1481 4058 1531 
C 4058 1588 4006 1588 3987 1588 
C 3930 1588 3923 1550 3910 1524 
C 3616 534 2752 57 2112 57 
C 1434 57 845 489 845 1391 
C 845 1595 909 2700 1632 3532 
C 1984 3939 2586 4295 3194 4295 
C 3898 4295 4211 3717 4211 3068 
C 4211 2903 4192 2764 4192 2738 
C 4192 2681 4256 2681 4275 2681 
C 4346 2681 4352 2687 4378 2801 
L 4781 4423 
z
" transform="scale(0.015625)"/>
     </defs>
     <use xlink:href="#CMMI12-43" transform="scale(0.996264)"/>
    </g>
   </g>
   <g id="text_8">
    <!-- $M$ -->
    <g transform="translate(201.69697 301.915564) scale(0.3 -0.3)">
     <defs>
      <path id="CMMI12-4d" d="M 5811 3886 
C 5869 4103 5882 4167 6336 4167 
C 6458 4167 6515 4167 6515 4288 
C 6515 4352 6470 4352 6349 4352 
L 5581 4352 
C 5421 4352 5414 4346 5344 4243 
L 3008 562 
L 2528 4211 
C 2509 4352 2502 4352 2336 4352 
L 1542 4352 
C 1421 4352 1363 4352 1363 4231 
C 1363 4167 1421 4167 1517 4167 
C 1907 4167 1907 4116 1907 4046 
C 1907 4034 1907 3995 1882 3899 
L 1062 634 
C 986 327 838 186 410 186 
C 390 186 314 186 314 73 
C 314 0 371 0 397 0 
C 525 0 851 0 979 0 
L 1286 0 
C 1376 0 1485 0 1574 0 
C 1619 0 1690 0 1690 122 
C 1690 180 1626 186 1600 186 
C 1389 186 1184 224 1184 454 
C 1184 518 1184 524 1210 613 
L 2093 4129 
L 2099 4129 
L 2630 172 
C 2650 19 2656 0 2714 0 
C 2784 0 2816 51 2848 109 
L 5421 4161 
L 5427 4161 
L 4499 473 
C 4442 250 4429 186 3981 186 
C 3859 186 3795 186 3795 70 
C 3795 0 3853 0 3891 0 
C 4000 0 4128 0 4237 0 
L 4992 0 
C 5101 0 5235 0 5344 0 
C 5395 0 5466 0 5466 122 
C 5466 186 5408 186 5312 186 
C 4922 186 4922 234 4922 294 
C 4922 301 4922 345 4934 396 
L 5811 3886 
z
" transform="scale(0.015625)"/>
     </defs>
     <use xlink:href="#CMMI12-4d" transform="scale(0.996264)"/>
    </g>
   </g>
  </g>
 </g>
 <defs>
  <clipPath id="p818530abad">
   <rect x="31.182179" y="19.44" width="369.341609" height="393.12"/>
  </clipPath>
 </defs>
</svg>
