<?xml version="1.0" encoding="utf-8" standalone="no"?>
<!DOCTYPE svg PUBLIC "-//W3C//DTD SVG 1.1//EN"
  "http://www.w3.org/Graphics/SVG/1.1/DTD/svg11.dtd">
<svg xmlns:xlink="http://www.w3.org/1999/xlink" width="216pt" height="288pt" viewBox="0 0 216 288" xmlns="http://www.w3.org/2000/svg" version="1.1">
 <metadata>
  <rdf:RDF xmlns:dc="http://purl.org/dc/elements/1.1/" xmlns:cc="http://creativecommons.org/ns#" xmlns:rdf="http://www.w3.org/1999/02/22-rdf-syntax-ns#">
   <cc:Work>
    <dc:type rdf:resource="http://purl.org/dc/dcmitype/StillImage"/>
    <dc:date>2025-11-03T08:52:26.679243</dc:date>
    <dc:format>image/svg+xml</dc:format>
    <dc:creator>
     <cc:Agent>
      <dc:title>Matplotlib v3.9.1, https://matplotlib.org/</dc:title>
     </cc:Agent>
    </dc:creator>
   </cc:Work>
  </rdf:RDF>
 </metadata>
 <defs>
  <style type="text/css">*{stroke-linejoin: round; stroke-linecap: butt}</style>
 </defs>
 <g id="figure_1">
  <g id="patch_1">
   <path d="M 0 288 
L 216 288 
L 216 0 
L 0 0 
L 0 288 
z
" style="fill: none"/>
  </g>
  <g id="axes_1">
   <g id="line2d_1">
    <path d="M 59.4 242.498057 
L 59.4 68.988343 
" clip-path="url(#p375049e303)" style="fill: none; stroke: #000000; stroke-width: 2.5; stroke-linecap: square"/>
   </g>
   <g id="line2d_2">
    <path d="M 156.6 242.498057 
L 156.6 68.988343 
" clip-path="url(#p375049e303)" style="fill: none; stroke: #000000; stroke-width: 2.5; stroke-linecap: square"/>
   </g>
   <g id="line2d_3">
    <path d="M 156.6 68.988343 
L 156.489125 67.816983 
L 156.157005 66.650968 
L 155.605155 65.495618 
L 154.755522 64.253592 
L 153.652022 63.037274 
L 152.177063 61.756263 
L 150.420615 60.521333 
L 148.227129 59.251963 
L 145.547588 57.971995 
L 142.549578 56.785466 
L 139.029377 55.634146 
L 134.961921 54.552293 
L 130.600793 53.627679 
L 125.715872 52.831223 
L 120.614643 52.232044 
L 115.35939 51.837457 
L 110.01428 51.65228 
L 104.644576 51.678775 
L 99.315841 51.916617 
L 94.093139 52.362902 
L 89.040238 53.012182 
L 84.218833 53.856529 
L 79.930941 54.823818 
L 75.948781 55.945388 
L 72.519043 57.130999 
L 69.431673 58.431026 
L 66.874747 59.742572 
L 64.802597 61.037668 
L 63.049641 62.391512 
L 61.719065 63.692519 
L 60.75242 64.923592 
L 60.042314 66.176735 
L 59.620065 67.339028 
L 59.418561 68.508847 
L 59.438724 69.680853 
L 59.680461 70.849699 
L 60.142669 72.010053 
L 60.895837 73.259987 
L 61.904766 74.486728 
L 63.280004 75.781802 
L 64.940191 77.033589 
L 67.034581 78.324117 
L 69.614022 79.630032 
L 72.519043 80.845687 
L 75.948781 82.031298 
L 79.687793 83.091052 
L 83.958963 84.067725 
L 88.491991 84.880152 
L 93.522171 85.551542 
L 98.729125 86.020697 
L 104.049274 86.28189 
L 109.417661 86.331931 
L 114.768739 86.170209 
L 120.037172 85.798698 
L 125.158632 85.221935 
L 130.070587 84.446962 
L 134.713063 83.483241 
L 138.799054 82.410327 
L 142.549578 81.19122 
L 145.736398 79.92215 
L 148.393869 78.636332 
L 150.708731 77.268682 
L 152.542794 75.928602 
L 153.951393 74.638106 
L 155.067197 73.311611 
L 155.831113 72.062508 
L 156.335322 70.796714 
L 156.567003 69.627608 
L 156.6 68.988343 
L 156.6 68.988343 
" clip-path="url(#p375049e303)" style="fill: none; stroke: #000000; stroke-width: 2.5; stroke-linecap: square"/>
   </g>
   <g id="line2d_4">
    <path d="M 156.6 242.498057 
L 156.489125 241.326697 
L 156.157005 240.160682 
L 155.605155 239.005332 
L 154.755522 237.763306 
L 153.652022 236.546988 
L 152.177063 235.265977 
L 150.420615 234.031048 
L 148.227129 232.761677 
L 145.547588 231.48171 
L 142.549578 230.29518 
L 139.029377 229.143861 
L 134.961921 228.062007 
L 130.600793 227.137393 
L 125.715872 226.340938 
L 120.614643 225.741758 
L 115.35939 225.347171 
L 110.01428 225.161995 
L 104.644576 225.188489 
L 99.315841 225.426331 
L 94.093139 225.872616 
L 89.040238 226.521896 
L 84.218833 227.366243 
L 79.930941 228.333532 
L 75.948781 229.455102 
L 72.519043 230.640713 
L 69.431673 231.94074 
L 66.874747 233.252286 
L 64.802597 234.547382 
L 63.049641 235.901226 
L 61.719065 237.202234 
L 60.75242 238.433306 
L 60.042314 239.686449 
L 59.620065 240.848742 
L 59.418561 242.018561 
L 59.438724 243.190567 
L 59.680461 244.359414 
L 60.142669 245.519767 
L 60.895837 246.769701 
L 61.904766 247.996442 
L 63.280004 249.291516 
L 64.940191 250.543304 
L 67.034581 251.833831 
L 69.614022 253.139746 
L 72.519043 254.355401 
L 75.948781 255.541012 
L 79.687793 256.600767 
L 83.958963 257.57744 
L 88.491991 258.389866 
L 93.522171 259.061256 
L 98.729125 259.530412 
L 104.049274 259.791604 
L 109.417661 259.841645 
L 114.768739 259.679923 
L 120.037172 259.308412 
L 125.158632 258.731649 
L 130.070587 257.956676 
L 134.713063 256.992955 
L 138.799054 255.920042 
L 142.549578 254.700934 
L 145.736398 253.431864 
L 148.393869 252.146046 
L 150.708731 250.778396 
L 152.542794 249.438316 
L 153.951393 248.147821 
L 155.067197 246.821325 
L 155.831113 245.572223 
L 156.335322 244.306428 
L 156.567003 243.137322 
L 156.6 242.498057 
L 156.6 242.498057 
" clip-path="url(#p375049e303)" style="fill: none; stroke: #000000; stroke-width: 2.5; stroke-linecap: square"/>
   </g>
   <g id="LineCollection_1">
    <path d="M 108 68.988343 
L 156.6 68.988343 
" clip-path="url(#p375049e303)" style="fill: none; stroke-dasharray: 9.25,4; stroke-dashoffset: 0; stroke: #808080; stroke-width: 2.5"/>
   </g>
   <g id="patch_2">
    <path d="M 169.56 70.987242 
Q 169.56 155.741629 169.56 240.496016 
" style="fill: none; stroke: #000000; stroke-linecap: round"/>
    <path d="M 174.56 70.987242 
L 174.56 70.987242 
L 164.56 70.987242 
L 164.56 70.987242 
" style="fill: none; stroke: #000000; stroke-linecap: round"/>
    <path d="M 164.56 240.496016 
L 164.56 240.496016 
L 174.56 240.496016 
L 174.56 240.496016 
" style="fill: none; stroke: #000000; stroke-linecap: round"/>
   </g>
   <g id="patch_3">
    <path d="M 154.597742 34.2864 
Q 132.298572 34.2864 109.999403 34.2864 
" style="fill: none; stroke: #000000; stroke-linecap: round"/>
    <path d="M 154.597742 39.2864 
L 154.597742 39.2864 
L 154.597742 29.2864 
L 154.597742 29.2864 
" style="fill: none; stroke: #000000; stroke-linecap: round"/>
    <path d="M 109.999403 29.2864 
L 109.999403 29.2864 
L 109.999403 39.2864 
L 109.999403 39.2864 
" style="fill: none; stroke: #000000; stroke-linecap: round"/>
   </g>
   <g id="text_1">
    <!-- $h$ -->
    <g transform="translate(172.476 161.26195) scale(0.2 -0.2)">
     <defs>
      <path id="DejaVuSans-Oblique-68" d="M 3566 2113 
L 3156 0 
L 2578 0 
L 2988 2091 
Q 3016 2238 3031 2350 
Q 3047 2463 3047 2528 
Q 3047 2791 2881 2937 
Q 2716 3084 2419 3084 
Q 1956 3084 1617 2771 
Q 1278 2459 1178 1941 
L 800 0 
L 225 0 
L 1172 4863 
L 1747 4863 
L 1375 2950 
Q 1594 3244 1934 3414 
Q 2275 3584 2650 3584 
Q 3113 3584 3367 3334 
Q 3622 3084 3622 2631 
Q 3622 2519 3608 2391 
Q 3594 2263 3566 2113 
z
" transform="scale(0.015625)"/>
     </defs>
     <use xlink:href="#DejaVuSans-Oblique-68" transform="translate(0 0.015625)"/>
    </g>
   </g>
   <g id="text_2">
    <!-- $r$ -->
    <g transform="translate(128.1 26.483321) scale(0.2 -0.2)">
     <defs>
      <path id="DejaVuSans-Oblique-72" d="M 2853 2969 
Q 2766 3016 2653 3041 
Q 2541 3066 2413 3066 
Q 1953 3066 1609 2717 
Q 1266 2369 1153 1784 
L 800 0 
L 225 0 
L 909 3500 
L 1484 3500 
L 1375 2956 
Q 1603 3259 1920 3421 
Q 2238 3584 2597 3584 
Q 2691 3584 2781 3573 
Q 2872 3563 2963 3538 
L 2853 2969 
z
" transform="scale(0.015625)"/>
     </defs>
     <use xlink:href="#DejaVuSans-Oblique-72"/>
    </g>
   </g>
  </g>
 </g>
 <defs>
  <clipPath id="p375049e303">
   <rect x="10.8" y="34.2864" width="194.4" height="242.9136"/>
  </clipPath>
 </defs>
</svg>
