<?xml version="1.0" encoding="utf-8" standalone="no"?>
<!DOCTYPE svg PUBLIC "-//W3C//DTD SVG 1.1//EN"
  "http://www.w3.org/Graphics/SVG/1.1/DTD/svg11.dtd">
<svg xmlns:xlink="http://www.w3.org/1999/xlink" width="432pt" height="432pt" viewBox="0 0 432 432" xmlns="http://www.w3.org/2000/svg" version="1.1">
 <metadata>
  <rdf:RDF xmlns:dc="http://purl.org/dc/elements/1.1/" xmlns:cc="http://creativecommons.org/ns#" xmlns:rdf="http://www.w3.org/1999/02/22-rdf-syntax-ns#">
   <cc:Work>
    <dc:type rdf:resource="http://purl.org/dc/dcmitype/StillImage"/>
    <dc:date>2026-02-21T17:31:57.659412</dc:date>
    <dc:format>image/svg+xml</dc:format>
    <dc:creator>
     <cc:Agent>
      <dc:title>Matplotlib v3.9.1, https://matplotlib.org/</dc:title>
     </cc:Agent>
    </dc:creator>
   </cc:Work>
  </rdf:RDF>
 </metadata>
 <defs>
  <style type="text/css">*{stroke-linejoin: round; stroke-linecap: butt}</style>
 </defs>
 <g id="figure_1">
  <g id="patch_1">
   <path d="M 0 432 
L 432 432 
L 432 0 
L 0 0 
L 0 432 
z
" style="fill: none"/>
  </g>
  <g id="axes_1">
   <g id="patch_2">
    <path d="M 298.143595 298.873239 
C 304.367805 298.873239 310.337926 296.400334 314.739107 291.999153 
C 319.140289 287.597972 321.613194 281.627851 321.613194 275.403641 
C 321.613194 269.17943 319.140289 263.20931 314.739107 258.808128 
C 310.337926 254.406947 304.367805 251.934042 298.143595 251.934042 
C 291.919385 251.934042 285.949264 254.406947 281.548083 258.808128 
C 277.146901 263.20931 274.673996 269.17943 274.673996 275.403641 
C 274.673996 281.627851 277.146901 287.597972 281.548083 291.999153 
C 285.949264 296.400334 291.919385 298.873239 298.143595 298.873239 
z
" clip-path="url(#p5acf594d28)" style="fill: #dc5e8b; fill-opacity: 0.2; stroke: #dc5e8b; stroke-width: 2.5; stroke-linejoin: miter"/>
   </g>
   <g id="patch_3">
    <path d="M 133.856405 298.873239 
C 140.080615 298.873239 146.050736 296.400334 150.451917 291.999153 
C 154.853099 287.597972 157.326004 281.627851 157.326004 275.403641 
C 157.326004 269.17943 154.853099 263.20931 150.451917 258.808128 
C 146.050736 254.406947 140.080615 251.934042 133.856405 251.934042 
C 127.632195 251.934042 121.662074 254.406947 117.260893 258.808128 
C 112.859711 263.20931 110.386806 269.17943 110.386806 275.403641 
C 110.386806 281.627851 112.859711 287.597972 117.260893 291.999153 
C 121.662074 296.400334 127.632195 298.873239 133.856405 298.873239 
z
" clip-path="url(#p5acf594d28)" style="fill: #dc5e8b; fill-opacity: 0.2; stroke-dasharray: 9.25,4; stroke-dashoffset: 0; stroke: #dc5e8b; stroke-width: 2.5; stroke-linejoin: miter"/>
   </g>
   <g id="line2d_1">
    <path d="M 298.143595 275.403641 
L 292.845891 278.333475 
L 287.443839 281.066136 
L 281.944775 283.597912 
L 276.356166 285.925367 
L 270.6856 288.045339 
L 264.940777 289.95495 
L 259.129499 291.651608 
L 253.259657 293.133007 
L 247.339219 294.397137 
L 241.376228 295.44228 
L 235.378778 296.267019 
L 229.355014 296.870232 
L 223.313115 297.251101 
L 217.261286 297.409109 
L 211.207745 297.344041 
L 205.160711 297.055985 
L 199.128395 296.545333 
L 193.118989 295.812778 
L 187.140652 294.859314 
L 181.201504 293.686237 
L 175.309607 292.295139 
L 169.472963 290.68791 
L 163.699497 288.866731 
L 157.99705 286.834075 
L 152.373363 284.592704 
L 146.836074 282.145659 
L 141.392701 279.496265 
L 136.050636 276.648118 
L 133.856405 275.403641 
L 133.856405 275.403641 
" clip-path="url(#p5acf594d28)" style="fill: none; stroke-dasharray: 3.7,1.6; stroke-dashoffset: 0; stroke: #808080"/>
   </g>
   <g id="line2d_2">
    <path d="M 28.243211 133.126761 
L 403.756789 133.126761 
" clip-path="url(#p5acf594d28)" style="fill: none; stroke: #808080; stroke-width: 2.5; stroke-linecap: square"/>
   </g>
   <g id="line2d_3">
    <path d="M 216 133.126761 
L 286.408796 255.078372 
" clip-path="url(#p5acf594d28)" style="fill: none; stroke: #0072b2; stroke-width: 2.5; stroke-linecap: square"/>
   </g>
   <g id="line2d_4">
    <path d="M 216 133.126761 
L 145.591204 255.078372 
" clip-path="url(#p5acf594d28)" style="fill: none; stroke-dasharray: 9.25,4; stroke-dashoffset: 0; stroke: #0072b2; stroke-width: 2.5"/>
   </g>
  </g>
 </g>
 <defs>
  <clipPath id="p5acf594d28">
   <rect x="10.8" y="10.8" width="410.4" height="410.4"/>
  </clipPath>
 </defs>
</svg>
