<?xml version="1.0" encoding="utf-8" standalone="no"?>
<!DOCTYPE svg PUBLIC "-//W3C//DTD SVG 1.1//EN"
  "http://www.w3.org/Graphics/SVG/1.1/DTD/svg11.dtd">
<svg xmlns:xlink="http://www.w3.org/1999/xlink" width="432pt" height="432pt" viewBox="0 0 432 432" xmlns="http://www.w3.org/2000/svg" version="1.1">
 <metadata>
  <rdf:RDF xmlns:dc="http://purl.org/dc/elements/1.1/" xmlns:cc="http://creativecommons.org/ns#" xmlns:rdf="http://www.w3.org/1999/02/22-rdf-syntax-ns#">
   <cc:Work>
    <dc:type rdf:resource="http://purl.org/dc/dcmitype/StillImage"/>
    <dc:date>2026-03-21T17:28:30.733820</dc:date>
    <dc:format>image/svg+xml</dc:format>
    <dc:creator>
     <cc:Agent>
      <dc:title>Matplotlib v3.10.8, https://matplotlib.org/</dc:title>
     </cc:Agent>
    </dc:creator>
   </cc:Work>
  </rdf:RDF>
 </metadata>
 <defs>
  <style type="text/css">*{stroke-linejoin: round; stroke-linecap: butt}</style>
 </defs>
 <g id="figure_1">
  <g id="patch_1">
   <path d="M 0 432 
L 432 432 
L 432 0 
L 0 0 
L 0 432 
z
" style="fill: none"/>
  </g>
  <g id="axes_1">
   <g id="line2d_1">
    <path d="M 44.731584 384.258357 
L 393.299197 384.258357 
" clip-path="url(#p840fcbba02)" style="fill: none; stroke: #0072b2; stroke-width: 3; stroke-linecap: square"/>
   </g>
   <g id="line2d_2">
    <path d="M 393.299197 384.258357 
L 373.364281 55.62566 
" clip-path="url(#p840fcbba02)" style="fill: none; stroke: #0072b2; stroke-width: 3; stroke-linecap: square"/>
   </g>
   <g id="line2d_3">
    <path d="M 373.364281 55.62566 
L 44.731584 384.258357 
" clip-path="url(#p840fcbba02)" style="fill: none; stroke: #0072b2; stroke-width: 3; stroke-linecap: square"/>
   </g>
   <g id="line2d_4">
    <path d="M 134.684516 384.258357 
L 134.672574 382.783117 
L 134.63675 381.30827 
L 134.577055 379.834205 
L 134.493504 378.361316 
L 134.386118 376.889992 
L 134.254928 375.420624 
L 134.099967 373.953603 
L 133.921276 372.489319 
L 133.718904 371.028159 
L 133.492904 369.570512 
L 133.243336 368.116765 
L 132.970265 366.667304 
L 132.673766 365.222514 
L 132.353915 363.782778 
L 132.010799 362.34848 
L 131.644509 360.919998 
L 131.255141 359.497714 
L 130.842799 358.082004 
L 130.407593 356.673244 
L 129.949638 355.271809 
L 129.469055 353.87807 
L 128.965973 352.492398 
L 128.440524 351.115161 
L 127.89285 349.746724 
L 127.323093 348.387451 
L 126.731407 347.037702 
L 126.117949 345.697836 
L 125.48288 344.368208 
L 124.82637 343.049173 
L 124.148593 341.741079 
L 123.449729 340.444275 
L 122.729963 339.159104 
L 121.989488 337.885908 
L 121.228498 336.625025 
L 120.447197 335.37679 
L 119.645792 334.141534 
L 118.824495 332.919585 
L 117.983525 331.711268 
L 117.123105 330.516903 
L 116.243463 329.336808 
L 115.344834 328.171295 
L 114.427455 327.020675 
L 113.49157 325.885253 
L 112.537428 324.76533 
L 111.565282 323.661204 
L 110.57539 322.573168 
L 109.568015 321.501511 
L 108.543424 320.446517 
" clip-path="url(#p840fcbba02)" style="fill: none; stroke: #dc5e8b; stroke-width: 2.4; stroke-linecap: square"/>
   </g>
   <g id="line2d_5">
    <path d="M 303.346264 384.258357 
L 303.39076 381.411025 
L 303.524202 378.566511 
L 303.74646 375.727627 
L 304.057313 372.897183 
L 304.456453 370.077979 
L 304.943486 367.272803 
L 305.517929 364.484431 
L 306.179216 361.715622 
L 306.926691 358.969114 
L 307.759614 356.247625 
L 308.677163 353.553848 
L 309.678428 350.890446 
L 310.762421 348.260056 
L 311.928067 345.665279 
L 313.174214 343.108682 
L 314.49963 340.592795 
L 315.903002 338.120107 
L 317.382943 335.693063 
L 318.937989 333.314066 
L 320.5666 330.985468 
L 322.267167 328.709573 
L 324.038005 326.488633 
L 325.877365 324.324845 
L 327.783425 322.22035 
L 329.7543 320.177229 
L 331.788041 318.197504 
L 333.882635 316.283134 
L 336.036011 314.436011 
L 338.246037 312.657965 
L 340.510528 310.950753 
L 342.827242 309.316065 
L 345.193889 307.755518 
L 347.608127 306.270656 
L 350.067568 304.862947 
L 352.569778 303.533785 
L 355.112281 302.284484 
L 357.692563 301.11628 
L 360.308072 300.03033 
L 362.956218 299.027707 
L 365.634383 298.109403 
L 368.339917 297.276326 
L 371.070143 296.529302 
L 373.822361 295.869068 
L 376.593847 295.296279 
L 379.38186 294.811501 
L 382.183641 294.415212 
L 384.996419 294.107807 
L 387.817412 293.889587 
" clip-path="url(#p840fcbba02)" style="fill: none; stroke: #dc5e8b; stroke-width: 2.4; stroke-linecap: square"/>
   </g>
   <g id="line2d_6">
    <path d="M 309.552441 119.4375 
L 310.684578 120.564266 
L 311.836351 121.670687 
L 313.007401 122.756416 
L 314.197361 123.821115 
L 315.405856 124.864448 
L 316.63251 125.886089 
L 317.876937 126.885718 
L 319.138748 127.863022 
L 320.417547 128.817695 
L 321.712934 129.749437 
L 323.024503 130.657957 
L 324.351843 131.54297 
L 325.694538 132.404199 
L 327.052168 133.241374 
L 328.424306 134.054232 
L 329.810524 134.84252 
L 331.210387 135.605989 
L 332.623457 136.344402 
L 334.04929 137.057526 
L 335.487441 137.745138 
L 336.937457 138.407022 
L 338.398886 139.042972 
L 339.87127 139.652789 
L 341.354146 140.23628 
L 342.847051 140.793263 
L 344.349517 141.323564 
L 345.861072 141.827017 
L 347.381245 142.303464 
L 348.909557 142.752755 
L 350.445531 143.17475 
L 351.988685 143.569316 
L 353.538536 143.936331 
L 355.094599 144.275679 
L 356.656385 144.587253 
L 358.223405 144.870957 
L 359.795169 145.126701 
L 361.371184 145.354405 
L 362.950956 145.553997 
L 364.533991 145.725416 
L 366.119792 145.868608 
L 367.707863 145.983527 
L 369.297706 146.070138 
L 370.888823 146.128413 
L 372.480715 146.158335 
L 374.072885 146.159893 
L 375.664832 146.133088 
L 377.256059 146.077928 
L 378.846066 145.99443 
" clip-path="url(#p840fcbba02)" style="fill: none; stroke: #dc5e8b; stroke-width: 2.4; stroke-linecap: square"/>
   </g>
   <g id="text_1">
    <!-- $A$ -->
    <g transform="translate(1.59482 404.786933) scale(0.27 -0.27)">
     <defs>
      <path id="CMMI12-41" d="M 1088 691 
C 864 314 646 186 339 186 
C 269 180 218 180 218 58 
C 218 24 250 0 294 0 
C 410 0 698 0 813 0 
C 998 0 1203 0 1382 0 
C 1421 0 1498 0 1498 122 
C 1498 180 1446 186 1408 186 
C 1261 186 1139 236 1139 388 
C 1139 476 1178 546 1261 685 
L 1747 1479 
L 3379 1479 
C 3386 1423 3386 1373 3392 1316 
C 3411 1152 3488 495 3488 376 
C 3488 186 3162 186 3059 186 
C 2989 186 2918 186 2918 70 
C 2918 0 2976 0 3014 0 
C 3123 0 3251 0 3360 0 
L 3725 0 
C 4115 0 4397 0 4403 0 
C 4448 0 4518 0 4518 122 
C 4518 186 4461 186 4365 186 
C 4013 186 4006 244 3987 434 
L 3597 4404 
C 3584 4531 3558 4544 3488 4544 
C 3424 4544 3386 4531 3328 4435 
L 1088 691 
z
M 1856 1664 
L 3142 3819 
L 3360 1664 
L 1856 1664 
z
" transform="scale(0.015625)"/>
     </defs>
     <use xlink:href="#CMMI12-41" transform="scale(0.996264)"/>
    </g>
   </g>
   <g id="text_2">
    <!-- $B$ -->
    <g transform="translate(409.500923 415.797483) scale(0.27 -0.27)">
     <defs>
      <path id="CMMI12-42" d="M 2342 3921 
C 2400 4160 2426 4160 2675 4160 
L 3507 4160 
C 4230 4160 4230 3544 4230 3485 
C 4230 2966 3712 2304 2867 2304 
L 1946 2304 
L 2342 3921 
z
M 3424 2275 
C 4122 2402 4755 2886 4755 3473 
C 4755 3970 4314 4352 3590 4352 
L 1536 4352 
C 1414 4352 1357 4352 1357 4226 
C 1357 4160 1414 4160 1510 4160 
C 1901 4160 1901 4112 1901 4044 
C 1901 4032 1901 3993 1875 3897 
L 1011 472 
C 954 249 941 185 493 185 
C 371 185 307 185 307 70 
C 307 0 346 0 474 0 
L 2669 0 
C 3648 0 4403 739 4403 1383 
C 4403 1906 3942 2224 3424 2275 
z
M 2515 185 
L 1651 185 
C 1562 185 1549 185 1510 192 
C 1440 198 1434 211 1434 261 
C 1434 305 1446 343 1459 399 
L 1907 2176 
L 3110 2176 
C 3866 2176 3866 1483 3866 1433 
C 3866 828 3309 185 2515 185 
z
" transform="scale(0.015625)"/>
     </defs>
     <use xlink:href="#CMMI12-42" transform="scale(0.996264)"/>
    </g>
   </g>
   <g id="text_3">
    <!-- $C$ -->
    <g transform="translate(376.746414 28.505335) scale(0.27 -0.27)">
     <defs>
      <path id="CMMI12-43" d="M 4781 4423 
C 4781 4480 4736 4480 4723 4480 
C 4710 4480 4685 4480 4634 4416 
L 4192 3882 
C 3968 4264 3616 4480 3136 4480 
C 1754 4480 320 3088 320 1595 
C 320 533 1069 -128 2003 -128 
C 2515 -128 2963 88 3334 400 
C 3891 863 4058 1481 4058 1531 
C 4058 1588 4006 1588 3987 1588 
C 3930 1588 3923 1550 3910 1524 
C 3616 534 2752 57 2112 57 
C 1434 57 845 489 845 1391 
C 845 1595 909 2700 1632 3532 
C 1984 3939 2586 4295 3194 4295 
C 3898 4295 4211 3717 4211 3068 
C 4211 2903 4192 2764 4192 2738 
C 4192 2681 4256 2681 4275 2681 
C 4346 2681 4352 2687 4378 2801 
L 4781 4423 
z
" transform="scale(0.015625)"/>
     </defs>
     <use xlink:href="#CMMI12-43" transform="scale(0.996264)"/>
    </g>
   </g>
  </g>
 </g>
 <defs>
  <clipPath id="p840fcbba02">
   <rect x="34.500108" y="29.466674" width="369.030564" height="380.950668"/>
  </clipPath>
 </defs>
</svg>
