<?xml version="1.0" encoding="utf-8" standalone="no"?>
<!DOCTYPE svg PUBLIC "-//W3C//DTD SVG 1.1//EN"
  "http://www.w3.org/Graphics/SVG/1.1/DTD/svg11.dtd">
<svg xmlns:xlink="http://www.w3.org/1999/xlink" width="432pt" height="432pt" viewBox="0 0 432 432" xmlns="http://www.w3.org/2000/svg" version="1.1">
 <metadata>
  <rdf:RDF xmlns:dc="http://purl.org/dc/elements/1.1/" xmlns:cc="http://creativecommons.org/ns#" xmlns:rdf="http://www.w3.org/1999/02/22-rdf-syntax-ns#">
   <cc:Work>
    <dc:type rdf:resource="http://purl.org/dc/dcmitype/StillImage"/>
    <dc:date>2026-04-14T20:20:35.195318</dc:date>
    <dc:format>image/svg+xml</dc:format>
    <dc:creator>
     <cc:Agent>
      <dc:title>Matplotlib v3.10.8, https://matplotlib.org/</dc:title>
     </cc:Agent>
    </dc:creator>
   </cc:Work>
  </rdf:RDF>
 </metadata>
 <defs>
  <style type="text/css">*{stroke-linejoin: round; stroke-linecap: butt}</style>
 </defs>
 <g id="figure_1">
  <g id="patch_1">
   <path d="M 0 432 
L 432 432 
L 432 0 
L 0 0 
L 0 432 
z
" style="fill: none"/>
  </g>
  <g id="axes_1">
   <g id="line2d_1">
    <path d="M 178.880185 339.764465 
L 393.246526 339.764465 
" clip-path="url(#pf15a481962)" style="fill: none; stroke: #0072b2; stroke-width: 2.5; stroke-linecap: square"/>
   </g>
   <g id="line2d_2">
    <path d="M 393.246526 339.764465 
L 35.969291 92.235535 
" clip-path="url(#pf15a481962)" style="fill: none; stroke: #0072b2; stroke-width: 2.5; stroke-linecap: square"/>
   </g>
   <g id="line2d_3">
    <path d="M 35.969291 92.235535 
L 178.880185 339.764465 
" clip-path="url(#pf15a481962)" style="fill: none; stroke: #0072b2; stroke-width: 2.5; stroke-linecap: square"/>
   </g>
   <g id="line2d_4">
    <path d="M 221.138783 339.764465 
L 221.098562 337.92117 
L 220.977976 336.081385 
L 220.777255 334.248611 
L 220.49678 332.426336 
L 220.137085 330.61803 
L 219.698856 328.827135 
L 219.182926 327.057059 
L 218.590278 325.311173 
L 217.922039 323.592799 
L 217.179481 321.90521 
L 216.364019 320.251616 
L 215.477204 318.635166 
L 214.520725 317.058937 
L 213.496402 315.525929 
L 212.406185 314.03906 
L 211.252149 312.601162 
L 210.036492 311.21497 
L 208.761526 309.883124 
L 207.42968 308.608158 
L 206.043488 307.392501 
L 204.605589 306.238465 
L 203.118721 305.148248 
L 201.585713 304.123925 
L 200.009484 303.167446 
L 198.393034 302.280631 
L 196.73944 301.465168 
L 195.05185 300.722611 
L 193.333477 300.054372 
L 191.587591 299.461724 
L 189.817515 298.945794 
L 188.02662 298.507564 
L 186.218314 298.14787 
L 184.396039 297.867395 
L 182.563265 297.666674 
L 180.723479 297.546088 
L 178.880185 297.505867 
L 177.036891 297.546088 
L 175.197106 297.666674 
L 173.364331 297.867395 
L 171.542057 298.14787 
L 169.733751 298.507564 
L 167.942855 298.945794 
L 166.17278 299.461724 
L 164.426894 300.054372 
L 162.70852 300.722611 
L 161.02093 301.465168 
L 159.367336 302.280631 
L 157.750886 303.167446 
" clip-path="url(#pf15a481962)" style="fill: none; stroke: #dc5e8b; stroke-width: 2; stroke-linecap: square"/>
   </g>
   <g id="line2d_5">
    <path d="M 350.987928 339.764465 
L 350.991295 339.23106 
L 351.001394 338.69774 
L 351.018224 338.16459 
L 351.041783 337.631695 
L 351.072066 337.09914 
L 351.109068 336.56701 
L 351.152785 336.035389 
L 351.203208 335.504362 
L 351.26033 334.974014 
L 351.324142 334.444429 
L 351.394633 333.915692 
L 351.471793 333.387887 
L 351.555609 332.861098 
L 351.646067 332.335408 
L 351.743154 331.810903 
L 351.846853 331.287664 
L 351.957149 330.765776 
L 352.074023 330.245322 
L 352.197457 329.726385 
L 352.327432 329.209047 
L 352.463927 328.693391 
L 352.606919 328.179499 
L 352.756387 327.667453 
L 352.912306 327.157334 
L 353.074651 326.649224 
L 353.243397 326.143203 
L 353.418517 325.639353 
L 353.599983 325.137753 
L 353.787765 324.638484 
L 353.981835 324.141625 
L 354.182161 323.647255 
L 354.388711 323.155453 
L 354.601452 322.666298 
L 354.82035 322.179866 
L 355.045371 321.696237 
L 355.276479 321.215486 
L 355.513637 320.737691 
L 355.756806 320.262927 
L 356.005949 319.791271 
L 356.261025 319.322796 
L 356.521994 318.857579 
L 356.788815 318.395693 
L 357.061445 317.937212 
L 357.33984 317.482208 
L 357.623956 317.030755 
L 357.913747 316.582924 
L 358.209169 316.138786 
L 358.510173 315.698413 
" clip-path="url(#pf15a481962)" style="fill: none; stroke: #dc5e8b; stroke-width: 2; stroke-linecap: square"/>
   </g>
   <g id="line2d_6">
    <path d="M 57.09859 128.832554 
L 57.434161 128.63675 
L 57.767918 128.437869 
L 58.099832 128.235928 
L 58.429875 128.030943 
L 58.75802 127.822934 
L 59.084239 127.611916 
L 59.408504 127.397907 
L 59.730787 127.180927 
L 60.051062 126.960993 
L 60.369302 126.738123 
L 60.685479 126.512337 
L 60.999567 126.283654 
L 61.311539 126.052093 
L 61.621369 125.817673 
L 61.929031 125.580415 
L 62.234498 125.340338 
L 62.537746 125.097463 
L 62.838747 124.85181 
L 63.137478 124.603401 
L 63.433912 124.352255 
L 63.728024 124.098395 
L 64.019791 123.841841 
L 64.309186 123.582616 
L 64.596185 123.320741 
L 64.880765 123.056239 
L 65.162901 122.789131 
L 65.44257 122.519441 
L 65.719747 122.247191 
L 65.994409 121.972404 
L 66.266534 121.695104 
L 66.536097 121.415313 
L 66.803077 121.133056 
L 67.067451 120.848357 
L 67.329196 120.561239 
L 67.58829 120.271726 
L 67.844711 119.979844 
L 68.098439 119.685617 
L 68.34945 119.389069 
L 68.597724 119.090226 
L 68.843241 118.789114 
L 69.085979 118.485756 
L 69.325917 118.18018 
L 69.563036 117.872411 
L 69.797315 117.562475 
L 70.028735 117.250398 
L 70.257276 116.936207 
L 70.482919 116.619927 
L 70.705645 116.301587 
" clip-path="url(#pf15a481962)" style="fill: none; stroke: #dc5e8b; stroke-width: 2; stroke-linecap: square"/>
   </g>
   <g id="text_1">
    <!-- $c$ -->
    <g transform="translate(279.555959 367.768649) scale(0.31 -0.31)">
     <defs>
      <path id="CMMI12-63" d="M 2502 2431 
C 2381 2431 2323 2431 2234 2355 
C 2195 2323 2125 2227 2125 2125 
C 2125 1997 2221 1920 2342 1920 
C 2496 1920 2669 2044 2669 2292 
C 2669 2588 2374 2816 1933 2816 
C 1094 2816 256 1903 256 996 
C 256 441 602 -64 1254 -64 
C 2125 -64 2675 622 2675 706 
C 2675 744 2637 776 2611 776 
C 2592 776 2586 770 2528 713 
C 2118 162 1510 64 1267 64 
C 826 64 685 446 685 764 
C 685 988 794 1605 1024 2039 
C 1190 2338 1536 2682 1939 2682 
C 2022 2682 2374 2682 2502 2431 
z
" transform="scale(0.015625)"/>
     </defs>
     <use xlink:href="#CMMI12-63" transform="scale(0.996264)"/>
    </g>
   </g>
   <g id="text_2">
    <!-- $a$ -->
    <g transform="translate(218.222398 207.046608) scale(0.31 -0.31)">
     <defs>
      <path id="CMMI12-61" d="M 1926 760 
C 1894 651 1894 639 1805 517 
C 1664 338 1382 64 1082 64 
C 819 64 672 300 672 677 
C 672 1028 870 1743 992 2012 
C 1210 2459 1510 2689 1760 2689 
C 2182 2689 2266 2165 2266 2114 
C 2266 2108 2246 2024 2240 2012 
L 1926 760 
z
M 2336 2395 
C 2266 2561 2093 2816 1760 2816 
C 1037 2816 256 1884 256 939 
C 256 307 627 -64 1062 -64 
C 1414 -64 1715 211 1894 422 
C 1958 45 2259 -64 2451 -64 
C 2643 -64 2797 51 2912 281 
C 3014 498 3104 888 3104 913 
C 3104 945 3078 971 3040 971 
C 2982 971 2976 939 2950 843 
C 2854 466 2733 64 2470 64 
C 2285 64 2272 230 2272 358 
C 2272 505 2291 575 2349 824 
C 2394 984 2426 1124 2477 1309 
C 2714 2267 2771 2497 2771 2535 
C 2771 2625 2701 2695 2605 2695 
C 2400 2695 2349 2472 2336 2395 
z
" transform="scale(0.015625)"/>
     </defs>
     <use xlink:href="#CMMI12-61" transform="scale(0.996264)"/>
    </g>
   </g>
   <g id="text_3">
    <!-- $b$ -->
    <g transform="translate(83.429411 233.862121) scale(0.31 -0.31)">
     <defs>
      <path id="CMMI12-62" d="M 1478 4257 
C 1485 4283 1498 4321 1498 4352 
C 1498 4416 1434 4416 1421 4416 
C 1414 4416 1184 4393 1069 4377 
C 960 4377 864 4358 749 4358 
C 595 4345 550 4339 550 4224 
C 550 4160 614 4160 678 4160 
C 1005 4160 1005 4103 1005 4040 
C 1005 3996 954 3811 928 3696 
L 774 3085 
C 710 2831 346 1387 320 1272 
C 288 1114 288 1005 288 922 
C 288 274 653 -64 1069 -64 
C 1811 -64 2579 888 2579 1814 
C 2579 2401 2246 2816 1766 2816 
C 1434 2816 1133 2542 1011 2414 
L 1478 4257 
z
M 1075 64 
C 870 64 646 217 646 715 
C 646 926 666 1047 781 1494 
C 800 1577 902 1986 928 2069 
C 941 2120 1318 2689 1754 2689 
C 2035 2689 2163 2408 2163 2076 
C 2163 1769 1984 1047 1824 715 
C 1664 370 1370 64 1075 64 
z
" transform="scale(0.015625)"/>
     </defs>
     <use xlink:href="#CMMI12-62" transform="scale(0.996264)"/>
    </g>
   </g>
   <g id="text_4">
    <!-- $A$ -->
    <g transform="translate(162.474332 356.267807) scale(0.31 -0.31)">
     <defs>
      <path id="CMMI12-41" d="M 1088 691 
C 864 314 646 186 339 186 
C 269 180 218 180 218 58 
C 218 24 250 0 294 0 
C 410 0 698 0 813 0 
C 998 0 1203 0 1382 0 
C 1421 0 1498 0 1498 122 
C 1498 180 1446 186 1408 186 
C 1261 186 1139 236 1139 388 
C 1139 476 1178 546 1261 685 
L 1747 1479 
L 3379 1479 
C 3386 1423 3386 1373 3392 1316 
C 3411 1152 3488 495 3488 376 
C 3488 186 3162 186 3059 186 
C 2989 186 2918 186 2918 70 
C 2918 0 2976 0 3014 0 
C 3123 0 3251 0 3360 0 
L 3725 0 
C 4115 0 4397 0 4403 0 
C 4448 0 4518 0 4518 122 
C 4518 186 4461 186 4365 186 
C 4013 186 4006 244 3987 434 
L 3597 4404 
C 3584 4531 3558 4544 3488 4544 
C 3424 4544 3386 4531 3328 4435 
L 1088 691 
z
M 1856 1664 
L 3142 3819 
L 3360 1664 
L 1856 1664 
z
" transform="scale(0.015625)"/>
     </defs>
     <use xlink:href="#CMMI12-41" transform="scale(0.996264)"/>
    </g>
   </g>
   <g id="text_5">
    <!-- $B$ -->
    <g transform="translate(397.983629 352.555554) scale(0.31 -0.31)">
     <defs>
      <path id="CMMI12-42" d="M 2342 3921 
C 2400 4160 2426 4160 2675 4160 
L 3507 4160 
C 4230 4160 4230 3544 4230 3485 
C 4230 2966 3712 2304 2867 2304 
L 1946 2304 
L 2342 3921 
z
M 3424 2275 
C 4122 2402 4755 2886 4755 3473 
C 4755 3970 4314 4352 3590 4352 
L 1536 4352 
C 1414 4352 1357 4352 1357 4226 
C 1357 4160 1414 4160 1510 4160 
C 1901 4160 1901 4112 1901 4044 
C 1901 4032 1901 3993 1875 3897 
L 1011 472 
C 954 249 941 185 493 185 
C 371 185 307 185 307 70 
C 307 0 346 0 474 0 
L 2669 0 
C 3648 0 4403 739 4403 1383 
C 4403 1906 3942 2224 3424 2275 
z
M 2515 185 
L 1651 185 
C 1562 185 1549 185 1510 192 
C 1440 198 1434 211 1434 261 
C 1434 305 1446 343 1459 399 
L 1907 2176 
L 3110 2176 
C 3866 2176 3866 1483 3866 1433 
C 3866 828 3309 185 2515 185 
z
" transform="scale(0.015625)"/>
     </defs>
     <use xlink:href="#CMMI12-42" transform="scale(0.996264)"/>
    </g>
   </g>
   <g id="text_6">
    <!-- $C$ -->
    <g transform="translate(11.410619 85.034695) scale(0.31 -0.31)">
     <defs>
      <path id="CMMI12-43" d="M 4781 4423 
C 4781 4480 4736 4480 4723 4480 
C 4710 4480 4685 4480 4634 4416 
L 4192 3882 
C 3968 4264 3616 4480 3136 4480 
C 1754 4480 320 3088 320 1595 
C 320 533 1069 -128 2003 -128 
C 2515 -128 2963 88 3334 400 
C 3891 863 4058 1481 4058 1531 
C 4058 1588 4006 1588 3987 1588 
C 3930 1588 3923 1550 3910 1524 
C 3616 534 2752 57 2112 57 
C 1434 57 845 489 845 1391 
C 845 1595 909 2700 1632 3532 
C 1984 3939 2586 4295 3194 4295 
C 3898 4295 4211 3717 4211 3068 
C 4211 2903 4192 2764 4192 2738 
C 4192 2681 4256 2681 4275 2681 
C 4346 2681 4352 2687 4378 2801 
L 4781 4423 
z
" transform="scale(0.015625)"/>
     </defs>
     <use xlink:href="#CMMI12-43" transform="scale(0.996264)"/>
    </g>
   </g>
  </g>
 </g>
 <defs>
  <clipPath id="pf15a481962">
   <rect x="18.10543" y="10.8" width="393.004958" height="410.4"/>
  </clipPath>
 </defs>
</svg>
