<?xml version="1.0" encoding="utf-8" standalone="no"?>
<!DOCTYPE svg PUBLIC "-//W3C//DTD SVG 1.1//EN"
  "http://www.w3.org/Graphics/SVG/1.1/DTD/svg11.dtd">
<svg xmlns:xlink="http://www.w3.org/1999/xlink" width="432pt" height="432pt" viewBox="0 0 432 432" xmlns="http://www.w3.org/2000/svg" version="1.1">
 <metadata>
  <rdf:RDF xmlns:dc="http://purl.org/dc/elements/1.1/" xmlns:cc="http://creativecommons.org/ns#" xmlns:rdf="http://www.w3.org/1999/02/22-rdf-syntax-ns#">
   <cc:Work>
    <dc:type rdf:resource="http://purl.org/dc/dcmitype/StillImage"/>
    <dc:date>2026-04-11T16:58:19.517816</dc:date>
    <dc:format>image/svg+xml</dc:format>
    <dc:creator>
     <cc:Agent>
      <dc:title>Matplotlib v3.10.8, https://matplotlib.org/</dc:title>
     </cc:Agent>
    </dc:creator>
   </cc:Work>
  </rdf:RDF>
 </metadata>
 <defs>
  <style type="text/css">*{stroke-linejoin: round; stroke-linecap: butt}</style>
 </defs>
 <g id="figure_1">
  <g id="patch_1">
   <path d="M 0 432 
L 432 432 
L 432 0 
L 0 0 
L 0 432 
z
" style="fill: none"/>
  </g>
  <g id="axes_1">
   <g id="line2d_1">
    <path d="M 37.800784 394.133054 
L 389.746892 394.133054 
" clip-path="url(#p00b6ba0950)" style="fill: none; stroke: #0072b2; stroke-width: 2.5; stroke-linecap: square"/>
   </g>
   <g id="line2d_2">
    <path d="M 389.746892 394.133054 
L 37.800784 42.186946 
" clip-path="url(#p00b6ba0950)" style="fill: none; stroke: #0072b2; stroke-width: 2.5; stroke-linecap: square"/>
   </g>
   <g id="line2d_3">
    <path d="M 37.800784 42.186946 
L 37.800784 394.133054 
" clip-path="url(#p00b6ba0950)" style="fill: none; stroke: #0072b2; stroke-width: 2.5; stroke-linecap: square"/>
   </g>
   <g id="line2d_4">
    <path d="M 52.370596 394.133054 
L 52.370596 379.563242 
L 37.800784 379.563242 
" clip-path="url(#p00b6ba0950)" style="fill: none; stroke: #dc5e8b; stroke-width: 2; stroke-linecap: square"/>
   </g>
   <g id="line2d_5">
    <path d="M 368.932875 394.133054 
L 368.935661 393.792501 
L 368.944019 393.452038 
L 368.957946 393.111759 
L 368.977439 392.771752 
L 369.002493 392.43211 
L 369.0331 392.092924 
L 369.069253 391.754283 
L 369.110942 391.41628 
L 369.158155 391.079003 
L 369.210881 390.742545 
L 369.269104 390.406994 
L 369.33281 390.072441 
L 369.401982 389.738975 
L 369.4766 389.406685 
L 369.556645 389.07566 
L 369.642095 388.74599 
L 369.732928 388.417762 
L 369.829119 388.091064 
L 369.930643 387.765983 
L 370.037472 387.442607 
L 370.149578 387.121023 
L 370.26693 386.801315 
L 370.389498 386.483571 
L 370.517248 386.167874 
L 370.650146 385.85431 
L 370.788157 385.542963 
L 370.931243 385.233915 
L 371.079367 384.92725 
L 371.232489 384.623049 
L 371.390568 384.321394 
L 371.553561 384.022366 
L 371.721424 383.726045 
L 371.894114 383.432511 
L 372.071583 383.141841 
L 372.253785 382.854113 
L 372.440669 382.569406 
L 372.632187 382.287794 
L 372.828287 382.009353 
L 373.028917 381.734158 
L 373.234022 381.462283 
L 373.443548 381.1938 
L 373.657439 380.928781 
L 373.875638 380.667298 
L 374.098085 380.409419 
L 374.324723 380.155214 
L 374.555489 379.904752 
L 374.790322 379.658099 
L 375.029159 379.415321 
" clip-path="url(#p00b6ba0950)" style="fill: none; stroke: #dc5e8b; stroke-width: 2; stroke-linecap: square"/>
   </g>
   <g id="line2d_6">
    <path d="M 37.800784 63.000963 
L 38.141337 62.998177 
L 38.4818 62.989819 
L 38.822079 62.975892 
L 39.162086 62.956399 
L 39.501728 62.931345 
L 39.840915 62.900738 
L 40.179555 62.864585 
L 40.517558 62.822896 
L 40.854835 62.775683 
L 41.191293 62.722957 
L 41.526844 62.664734 
L 41.861397 62.601028 
L 42.194864 62.531856 
L 42.527153 62.457238 
L 42.858178 62.377193 
L 43.187848 62.291743 
L 43.516076 62.20091 
L 43.842774 62.104719 
L 44.167855 62.003195 
L 44.491231 61.896366 
L 44.812815 61.78426 
L 45.132523 61.666908 
L 45.450267 61.54434 
L 45.765964 61.41659 
L 46.079528 61.283692 
L 46.390875 61.145681 
L 46.699923 61.002595 
L 47.006588 60.854471 
L 47.310789 60.701349 
L 47.612444 60.54327 
L 47.911472 60.380277 
L 48.207793 60.212414 
L 48.501327 60.039724 
L 48.791997 59.862255 
L 49.079725 59.680053 
L 49.364432 59.493169 
L 49.646044 59.301651 
L 49.924485 59.105551 
L 50.19968 58.904921 
L 50.471555 58.699816 
L 50.740038 58.49029 
L 51.005057 58.276399 
L 51.266541 58.0582 
L 51.524419 57.835753 
L 51.778624 57.609115 
L 52.029086 57.378349 
L 52.275739 57.143516 
L 52.518517 56.904679 
" clip-path="url(#p00b6ba0950)" style="fill: none; stroke: #dc5e8b; stroke-width: 2; stroke-linecap: square"/>
   </g>
   <g id="text_1">
    <!-- $A$ -->
    <g transform="translate(20.864014 407.921489) scale(0.27 -0.27)">
     <defs>
      <path id="CMMI12-41" d="M 1088 691 
C 864 314 646 186 339 186 
C 269 180 218 180 218 58 
C 218 24 250 0 294 0 
C 410 0 698 0 813 0 
C 998 0 1203 0 1382 0 
C 1421 0 1498 0 1498 122 
C 1498 180 1446 186 1408 186 
C 1261 186 1139 236 1139 388 
C 1139 476 1178 546 1261 685 
L 1747 1479 
L 3379 1479 
C 3386 1423 3386 1373 3392 1316 
C 3411 1152 3488 495 3488 376 
C 3488 186 3162 186 3059 186 
C 2989 186 2918 186 2918 70 
C 2918 0 2976 0 3014 0 
C 3123 0 3251 0 3360 0 
L 3725 0 
C 4115 0 4397 0 4403 0 
C 4448 0 4518 0 4518 122 
C 4518 186 4461 186 4365 186 
C 4013 186 4006 244 3987 434 
L 3597 4404 
C 3584 4531 3558 4544 3488 4544 
C 3424 4544 3386 4531 3328 4435 
L 1088 691 
z
M 1856 1664 
L 3142 3819 
L 3360 1664 
L 1856 1664 
z
" transform="scale(0.015625)"/>
     </defs>
     <use xlink:href="#CMMI12-41" transform="scale(0.996264)"/>
    </g>
   </g>
   <g id="text_2">
    <!-- $B$ -->
    <g transform="translate(391.802186 405.852341) scale(0.27 -0.27)">
     <defs>
      <path id="CMMI12-42" d="M 2342 3921 
C 2400 4160 2426 4160 2675 4160 
L 3507 4160 
C 4230 4160 4230 3544 4230 3485 
C 4230 2966 3712 2304 2867 2304 
L 1946 2304 
L 2342 3921 
z
M 3424 2275 
C 4122 2402 4755 2886 4755 3473 
C 4755 3970 4314 4352 3590 4352 
L 1536 4352 
C 1414 4352 1357 4352 1357 4226 
C 1357 4160 1414 4160 1510 4160 
C 1901 4160 1901 4112 1901 4044 
C 1901 4032 1901 3993 1875 3897 
L 1011 472 
C 954 249 941 185 493 185 
C 371 185 307 185 307 70 
C 307 0 346 0 474 0 
L 2669 0 
C 3648 0 4403 739 4403 1383 
C 4403 1906 3942 2224 3424 2275 
z
M 2515 185 
L 1651 185 
C 1562 185 1549 185 1510 192 
C 1440 198 1434 211 1434 261 
C 1434 305 1446 343 1459 399 
L 1907 2176 
L 3110 2176 
C 3866 2176 3866 1483 3866 1433 
C 3866 828 3309 185 2515 185 
z
" transform="scale(0.015625)"/>
     </defs>
     <use xlink:href="#CMMI12-42" transform="scale(0.996264)"/>
    </g>
   </g>
   <g id="text_3">
    <!-- $C$ -->
    <g transform="translate(23.3835 36.850993) scale(0.27 -0.27)">
     <defs>
      <path id="CMMI12-43" d="M 4781 4423 
C 4781 4480 4736 4480 4723 4480 
C 4710 4480 4685 4480 4634 4416 
L 4192 3882 
C 3968 4264 3616 4480 3136 4480 
C 1754 4480 320 3088 320 1595 
C 320 533 1069 -128 2003 -128 
C 2515 -128 2963 88 3334 400 
C 3891 863 4058 1481 4058 1531 
C 4058 1588 4006 1588 3987 1588 
C 3930 1588 3923 1550 3910 1524 
C 3616 534 2752 57 2112 57 
C 1434 57 845 489 845 1391 
C 845 1595 909 2700 1632 3532 
C 1984 3939 2586 4295 3194 4295 
C 3898 4295 4211 3717 4211 3068 
C 4211 2903 4192 2764 4192 2738 
C 4192 2681 4256 2681 4275 2681 
C 4346 2681 4352 2687 4378 2801 
L 4781 4423 
z
" transform="scale(0.015625)"/>
     </defs>
     <use xlink:href="#CMMI12-43" transform="scale(0.996264)"/>
    </g>
   </g>
   <g id="text_4">
    <!-- $45^\circ$ -->
    <g transform="translate(34.457126 81.985858) scale(0.27 -0.27)">
     <defs>
      <path id="CMR17-34" d="M 2150 4122 
C 2150 4256 2144 4256 2029 4256 
L 128 1254 
L 128 1088 
L 1779 1088 
L 1779 457 
C 1779 224 1766 160 1318 160 
L 1197 160 
L 1197 0 
C 1402 0 1747 0 1965 0 
C 2182 0 2528 0 2733 0 
L 2733 160 
L 2611 160 
C 2163 160 2150 224 2150 457 
L 2150 1088 
L 2803 1088 
L 2803 1254 
L 2150 1254 
L 2150 4122 
z
M 1798 3703 
L 1798 1254 
L 256 1254 
L 1798 3703 
z
" transform="scale(0.015625)"/>
      <path id="CMR17-35" d="M 730 3692 
C 794 3666 1056 3584 1325 3584 
C 1920 3584 2246 3911 2432 4100 
C 2432 4157 2432 4192 2394 4192 
C 2387 4192 2374 4192 2323 4163 
C 2099 4058 1837 3973 1517 3973 
C 1325 3973 1037 3999 723 4139 
C 653 4171 640 4171 634 4171 
C 602 4171 595 4164 595 4037 
L 595 2203 
C 595 2089 595 2057 659 2057 
C 691 2057 704 2070 736 2114 
C 941 2401 1222 2522 1542 2522 
C 1766 2522 2246 2382 2246 1289 
C 2246 1085 2246 715 2054 421 
C 1894 159 1645 25 1370 25 
C 947 25 518 320 403 814 
C 429 807 480 795 506 795 
C 589 795 749 840 749 1038 
C 749 1210 627 1280 506 1280 
C 358 1280 262 1190 262 1011 
C 262 454 704 -128 1382 -128 
C 2042 -128 2669 440 2669 1264 
C 2669 2030 2170 2624 1549 2624 
C 1222 2624 947 2503 730 2274 
L 730 3692 
z
" transform="scale(0.015625)"/>
      <path id="CMSY10-e" d="M 2842 1600 
C 2842 2277 2272 2828 1600 2828 
C 909 2828 352 2264 352 1600 
C 352 930 909 372 1600 372 
C 2272 372 2842 923 2842 1600 
z
M 1600 628 
C 1043 628 608 1070 608 1600 
C 608 2130 1050 2572 1600 2572 
C 2131 2572 2586 2142 2586 1600 
C 2586 1058 2131 628 1600 628 
z
" transform="scale(0.015625)"/>
     </defs>
     <use xlink:href="#CMR17-34" transform="scale(0.996264)"/>
     <use xlink:href="#CMR17-35" transform="translate(45.690477 0) scale(0.996264)"/>
     <use xlink:href="#CMSY10-e" transform="translate(91.380954 36.153639) scale(0.697382)"/>
    </g>
   </g>
  </g>
 </g>
 <defs>
  <clipPath id="p00b6ba0950">
   <rect x="20.203479" y="27.687248" width="387.140719" height="380.945504"/>
  </clipPath>
 </defs>
</svg>
