<?xml version="1.0" encoding="utf-8" standalone="no"?>
<!DOCTYPE svg PUBLIC "-//W3C//DTD SVG 1.1//EN"
  "http://www.w3.org/Graphics/SVG/1.1/DTD/svg11.dtd">
<svg xmlns:xlink="http://www.w3.org/1999/xlink" width="432pt" height="432pt" viewBox="0 0 432 432" xmlns="http://www.w3.org/2000/svg" version="1.1">
 <metadata>
  <rdf:RDF xmlns:dc="http://purl.org/dc/elements/1.1/" xmlns:cc="http://creativecommons.org/ns#" xmlns:rdf="http://www.w3.org/1999/02/22-rdf-syntax-ns#">
   <cc:Work>
    <dc:type rdf:resource="http://purl.org/dc/dcmitype/StillImage"/>
    <dc:date>2026-03-21T11:39:10.635484</dc:date>
    <dc:format>image/svg+xml</dc:format>
    <dc:creator>
     <cc:Agent>
      <dc:title>Matplotlib v3.10.8, https://matplotlib.org/</dc:title>
     </cc:Agent>
    </dc:creator>
   </cc:Work>
  </rdf:RDF>
 </metadata>
 <defs>
  <style type="text/css">*{stroke-linejoin: round; stroke-linecap: butt}</style>
 </defs>
 <g id="figure_1">
  <g id="patch_1">
   <path d="M 0 432 
L 432 432 
L 432 0 
L 0 0 
L 0 432 
z
" style="fill: none"/>
  </g>
  <g id="axes_1">
   <g id="line2d_1">
    <path d="M 216 363.924264 
L 216 29.454545 
" clip-path="url(#p1f878ecc93)" style="fill: none; stroke: #000000; stroke-width: 2.5; stroke-linecap: square"/>
   </g>
   <g id="line2d_2">
    <path d="M 216 363.924264 
L 409.106182 363.924264 
" clip-path="url(#p1f878ecc93)" style="fill: none; stroke: #000000; stroke-width: 2.5; stroke-linecap: square"/>
   </g>
   <g id="line2d_3">
    <path d="M 216 29.454545 
L 409.106182 363.924264 
" clip-path="url(#p1f878ecc93)" style="fill: none; stroke: #0072b2; stroke-width: 2.5; stroke-linecap: square"/>
   </g>
   <g id="line2d_4">
    <path d="M 216 29.454545 
L 22.893818 363.924264 
" clip-path="url(#p1f878ecc93)" style="fill: none; stroke: #0072b2; stroke-width: 2.5; stroke-linecap: square"/>
   </g>
   <g id="line2d_5">
    <path d="M 409.106182 363.924264 
L 408.975074 362.501334 
L 408.581929 361.080337 
L 407.927281 359.663202 
L 407.012018 358.251852 
L 405.837384 356.848205 
L 404.404973 355.454166 
L 402.41064 353.842457 
L 400.071791 352.249379 
L 397.392751 350.677879 
L 393.920807 348.912024 
L 390.019399 347.182404 
L 385.697943 345.493197 
L 380.347242 343.646215 
L 374.494494 341.861179 
L 367.424415 339.957083 
L 359.783294 338.14337 
L 351.599947 336.426881 
L 342.008885 334.658749 
L 331.842872 333.02415 
L 321.148296 331.53054 
L 309.973952 330.184736 
L 297.29655 328.892353 
L 284.177734 327.790183 
L 270.688734 326.88421 
L 256.902792 326.179352 
L 242.894761 325.679437 
L 228.7407 325.387179 
L 214.517461 325.304166 
L 200.302272 325.430847 
L 186.172316 325.766535 
L 172.204315 326.309407 
L 158.474111 327.056517 
L 145.056254 328.003806 
L 132.023599 329.146132 
L 119.446909 330.477292 
L 107.394472 331.990058 
L 96.862892 333.529299 
L 86.874908 335.207225 
L 77.476092 337.01618 
L 69.479116 338.767453 
L 62.03469 340.613596 
L 55.170888 342.547647 
L 49.511339 344.357431 
L 44.36038 346.226989 
L 39.733746 348.150608 
L 36.072819 349.90113 
L 32.8462 351.685501 
L 30.385325 353.271208 
L 28.267495 354.876603 
L 26.496622 356.49872 
L 25.257381 357.900144 
L 24.277145 359.309747 
L 23.557245 360.725616 
L 23.098661 362.145828 
L 22.902013 363.568456 
L 22.96757 364.991566 
L 23.295242 366.413228 
L 23.884584 367.831509 
L 24.734795 369.244485 
L 25.844723 370.650237 
L 27.212858 372.046856 
L 29.132865 373.662172 
L 31.398231 375.259491 
L 34.004769 376.835861 
L 37.395223 378.608039 
L 41.216793 380.344773 
L 45.460255 382.041872 
L 50.725649 383.898634 
L 56.495923 385.694378 
L 62.753451 387.423619 
L 70.25443 389.260583 
L 78.305036 391.002 
L 86.874908 392.641303 
L 96.862892 394.319228 
L 107.394472 395.858469 
L 118.421593 397.252001 
L 130.957167 398.598585 
L 143.954496 399.756898 
L 157.343009 400.720652 
L 171.050011 401.484613 
L 185.001077 402.044633 
L 199.120457 402.397672 
L 213.331488 402.541812 
L 227.557008 402.476272 
L 241.719778 402.201406 
L 255.742897 401.718708 
L 269.550224 401.030797 
L 283.066791 400.14141 
L 296.219207 399.055376 
L 308.936058 397.778591 
L 321.148296 396.317987 
L 331.842872 394.824378 
L 342.008885 393.189778 
L 351.599947 391.421647 
L 360.572298 389.528051 
L 368.157577 387.704986 
L 375.169049 385.792241 
L 380.96687 384.00005 
L 386.260749 382.14653 
L 391.034516 380.237345 
L 394.829401 378.498272 
L 398.192627 376.72402 
L 401.116078 374.918872 
L 403.307769 373.317447 
L 405.153287 371.698661 
L 406.649221 370.065508 
L 407.651096 368.656513 
L 408.392733 367.241093 
L 408.873122 365.821169 
L 409.091613 364.398669 
L 409.106182 363.924264 
L 409.106182 363.924264 
" clip-path="url(#p1f878ecc93)" style="fill: none; stroke-dasharray: 9.25,4; stroke-dashoffset: 0; stroke: #0072b2; stroke-width: 2.5"/>
   </g>
   <g id="text_1">
    <!-- $r$ -->
    <g transform="translate(306.398566 380.552532) scale(0.28 -0.28)">
     <defs>
      <path id="CMMI12-72" d="M 2490 2612 
C 2291 2574 2189 2433 2189 2293 
C 2189 2139 2310 2088 2400 2088 
C 2579 2088 2726 2242 2726 2433 
C 2726 2638 2528 2816 2208 2816 
C 1952 2816 1658 2701 1389 2312 
C 1344 2650 1088 2816 832 2816 
C 582 2816 454 2625 378 2484 
C 269 2254 173 1871 173 1839 
C 173 1814 198 1782 243 1782 
C 294 1782 301 1788 339 1935 
C 435 2318 557 2689 813 2689 
C 966 2689 1011 2580 1011 2395 
C 1011 2254 947 2005 902 1807 
L 723 1118 
C 698 996 627 709 595 594 
C 550 428 480 128 480 96 
C 480 6 550 -64 646 -64 
C 717 -64 838 -19 877 109 
C 896 160 1133 1124 1171 1271 
C 1203 1411 1242 1546 1274 1686 
C 1299 1775 1325 1878 1344 1961 
C 1363 2018 1536 2331 1696 2472 
C 1773 2542 1939 2689 2202 2689 
C 2304 2689 2406 2670 2490 2612 
z
" transform="scale(0.015625)"/>
     </defs>
     <use xlink:href="#CMMI12-72" transform="scale(0.996264)"/>
    </g>
   </g>
   <g id="text_2">
    <!-- $h$ -->
    <g transform="translate(182.897149 203.662363) scale(0.28 -0.28)">
     <defs>
      <path id="CMMI12-68" d="M 1798 4257 
C 1805 4283 1818 4321 1818 4352 
C 1818 4416 1754 4416 1741 4416 
C 1734 4416 1421 4388 1389 4380 
C 1280 4373 1184 4358 1069 4358 
C 909 4345 864 4339 864 4224 
C 864 4160 915 4160 1005 4160 
C 1318 4160 1325 4103 1325 4040 
C 1325 4002 1312 3951 1306 3932 
L 378 248 
C 352 152 352 140 352 101 
C 352 -38 461 -64 525 -64 
C 634 -64 717 19 749 89 
L 1037 1245 
C 1069 1386 1107 1520 1139 1660 
C 1210 1929 1210 1935 1331 2120 
C 1453 2305 1741 2689 2234 2689 
C 2490 2689 2579 2497 2579 2242 
C 2579 1884 2330 1188 2189 805 
C 2131 651 2099 568 2099 453 
C 2099 166 2298 -64 2605 -64 
C 3200 -64 3424 875 3424 913 
C 3424 945 3398 971 3360 971 
C 3302 971 3296 952 3264 843 
C 3117 332 2880 64 2624 64 
C 2560 64 2458 64 2458 269 
C 2458 436 2534 640 2560 710 
C 2675 1018 2963 1773 2963 2145 
C 2963 2528 2739 2816 2253 2816 
C 1888 2816 1568 2644 1306 2312 
L 1798 4257 
z
" transform="scale(0.015625)"/>
     </defs>
     <use xlink:href="#CMMI12-68" transform="scale(0.996264)"/>
    </g>
   </g>
   <g id="text_3">
    <!-- $9$ -->
    <g transform="translate(329.932647 173.996093) scale(0.28 -0.28)">
     <defs>
      <path id="CMR17-39" d="M 2253 1864 
C 2253 464 1670 31 1190 31 
C 1043 31 685 31 538 294 
C 704 268 826 357 826 518 
C 826 692 685 749 595 749 
C 538 749 365 723 365 506 
C 365 71 742 -128 1203 -128 
C 1939 -128 2688 674 2688 2073 
C 2688 3817 1971 4179 1485 4179 
C 851 4179 243 3628 243 2778 
C 243 1991 762 1408 1414 1408 
C 1952 1408 2189 1903 2253 2112 
L 2253 1864 
z
M 1427 1510 
C 1254 1510 1011 1542 813 1922 
C 678 2169 678 2461 678 2771 
C 678 3146 678 3405 858 3684 
C 947 3817 1114 4032 1485 4032 
C 2240 4032 2240 2885 2240 2632 
C 2240 2182 2035 1510 1427 1510 
z
" transform="scale(0.015625)"/>
     </defs>
     <use xlink:href="#CMR17-39" transform="scale(0.996264)"/>
    </g>
   </g>
  </g>
 </g>
 <defs>
  <clipPath id="p1f878ecc93">
   <rect x="10.8" y="10.8" width="410.4" height="410.4"/>
  </clipPath>
 </defs>
</svg>
