<?xml version="1.0" encoding="utf-8" standalone="no"?>
<!DOCTYPE svg PUBLIC "-//W3C//DTD SVG 1.1//EN"
  "http://www.w3.org/Graphics/SVG/1.1/DTD/svg11.dtd">
<svg xmlns:xlink="http://www.w3.org/1999/xlink" width="460.8pt" height="345.6pt" viewBox="0 0 460.8 345.6" xmlns="http://www.w3.org/2000/svg" version="1.1">
 <metadata>
  <rdf:RDF xmlns:dc="http://purl.org/dc/elements/1.1/" xmlns:cc="http://creativecommons.org/ns#" xmlns:rdf="http://www.w3.org/1999/02/22-rdf-syntax-ns#">
   <cc:Work>
    <dc:type rdf:resource="http://purl.org/dc/dcmitype/StillImage"/>
    <dc:date>2026-03-28T12:12:50.261097</dc:date>
    <dc:format>image/svg+xml</dc:format>
    <dc:creator>
     <cc:Agent>
      <dc:title>Matplotlib v3.10.8, https://matplotlib.org/</dc:title>
     </cc:Agent>
    </dc:creator>
   </cc:Work>
  </rdf:RDF>
 </metadata>
 <defs>
  <style type="text/css">*{stroke-linejoin: round; stroke-linecap: butt}</style>
 </defs>
 <g id="figure_1">
  <g id="patch_1">
   <path d="M 0 345.6 
L 460.8 345.6 
L 460.8 0 
L 0 0 
L 0 345.6 
z
" style="fill: none"/>
  </g>
  <g id="axes_1">
   <g id="patch_2">
    <path d="M 10.8 333.835545 
L 447 333.835545 
L 447 23.55884 
L 10.8 23.55884 
L 10.8 333.835545 
z
" style="fill: none"/>
   </g>
   <g id="patch_3">
    <path d="M 228.9 319.732059 
C 266.419146 319.732059 302.406655 304.871735 328.936698 278.423903 
C 355.46674 251.97607 370.373255 216.100076 370.373255 178.697192 
C 370.373255 141.294309 355.46674 105.418315 328.936698 78.970482 
C 302.406655 52.52265 266.419146 37.662326 228.9 37.662326 
C 191.380854 37.662326 155.393345 52.52265 128.863302 78.970482 
C 102.33326 105.418315 87.426745 141.294309 87.426745 178.697192 
C 87.426745 216.100076 102.33326 251.97607 128.863302 278.423903 
C 155.393345 304.871735 191.380854 319.732059 228.9 319.732059 
L 228.9 319.732059 
z
" clip-path="url(#p1b78a31c13)" style="fill: none; stroke: #0072b2; stroke-width: 2.5; stroke-linejoin: miter"/>
   </g>
   <g id="matplotlib.axis_1">
    <g id="xtick_1">
     <g id="line2d_1">
      <defs>
       <path id="mdd5a745ee9" d="M 0 0 
L 0 3.5 
" style="stroke: #000000; stroke-width: 0.8"/>
      </defs>
      <g>
       <use xlink:href="#mdd5a745ee9" x="87.426745" y="178.697192" style="stroke: #000000; stroke-width: 0.8"/>
      </g>
     </g>
     <g id="text_1">
      <!-- $\mathdefault{−1}$ -->
      <g transform="translate(70.181836 205.068991) scale(0.28 -0.28)">
       <defs>
        <path id="CMSY10-0" d="M 4218 1472 
C 4326 1472 4442 1472 4442 1600 
C 4442 1728 4326 1728 4218 1728 
L 755 1728 
C 646 1728 531 1728 531 1600 
C 531 1472 646 1472 755 1472 
L 4218 1472 
z
" transform="scale(0.015625)"/>
        <path id="CMR17-31" d="M 1702 4058 
C 1702 4192 1696 4192 1606 4192 
C 1357 3916 979 3827 621 3827 
C 602 3827 570 3827 563 3808 
C 557 3795 557 3782 557 3648 
C 755 3648 1088 3686 1344 3839 
L 1344 461 
C 1344 236 1331 160 781 160 
L 589 160 
L 589 0 
C 896 0 1216 0 1523 0 
C 1830 0 2150 0 2458 0 
L 2458 160 
L 2266 160 
C 1715 160 1702 230 1702 458 
L 1702 4058 
z
" transform="scale(0.015625)"/>
       </defs>
       <use xlink:href="#CMSY10-0" transform="scale(0.996264)"/>
       <use xlink:href="#CMR17-31" transform="translate(77.487468 0) scale(0.996264)"/>
      </g>
     </g>
    </g>
    <g id="xtick_2">
     <g id="line2d_2">
      <g>
       <use xlink:href="#mdd5a745ee9" x="370.373255" y="178.697192" style="stroke: #000000; stroke-width: 0.8"/>
      </g>
     </g>
     <g id="text_2">
      <!-- $\mathdefault{1}$ -->
      <g transform="translate(363.976588 205.068991) scale(0.28 -0.28)">
       <use xlink:href="#CMR17-31" transform="scale(0.996264)"/>
      </g>
     </g>
    </g>
    <g id="text_3">
     <!-- $x$ -->
     <g transform="translate(431.478463 233.86667) scale(0.28 -0.28)">
      <defs>
       <path id="CMMI12-78" d="M 3034 2606 
C 2829 2567 2752 2414 2752 2293 
C 2752 2139 2874 2088 2963 2088 
C 3155 2088 3290 2254 3290 2427 
C 3290 2695 2982 2816 2714 2816 
C 2323 2816 2106 2433 2048 2312 
C 1901 2816 1504 2816 1389 2816 
C 736 2816 390 1980 390 1839 
C 390 1814 416 1782 461 1782 
C 512 1782 525 1820 538 1846 
C 755 2555 1184 2689 1370 2689 
C 1658 2689 1715 2420 1715 2267 
C 1715 2127 1677 1980 1600 1673 
L 1382 798 
C 1286 415 1101 64 762 64 
C 730 64 570 64 435 147 
C 666 192 717 383 717 460 
C 717 588 621 664 499 664 
C 346 664 179 530 179 326 
C 179 57 480 -64 755 -64 
C 1062 -64 1280 179 1414 441 
C 1517 64 1837 -64 2074 -64 
C 2726 -64 3072 773 3072 913 
C 3072 945 3046 971 3008 971 
C 2950 971 2944 939 2925 888 
C 2752 326 2381 64 2093 64 
C 1869 64 1747 230 1747 492 
C 1747 632 1773 734 1875 1156 
L 2099 2024 
C 2195 2408 2413 2689 2707 2689 
C 2720 2689 2899 2689 3034 2606 
z
" transform="scale(0.015625)"/>
      </defs>
      <use xlink:href="#CMMI12-78" transform="scale(0.996264)"/>
     </g>
    </g>
   </g>
   <g id="matplotlib.axis_2">
    <g id="ytick_1">
     <g id="line2d_3">
      <defs>
       <path id="m59611ef1d9" d="M 0 0 
L -3.5 0 
" style="stroke: #000000; stroke-width: 0.8"/>
      </defs>
      <g>
       <use xlink:href="#m59611ef1d9" x="228.9" y="319.732059" style="stroke: #000000; stroke-width: 0.8"/>
      </g>
     </g>
     <g id="text_4">
      <!-- $\mathdefault{−1}$ -->
      <g transform="translate(187.410181 329.417958) scale(0.28 -0.28)">
       <use xlink:href="#CMSY10-0" transform="scale(0.996264)"/>
       <use xlink:href="#CMR17-31" transform="translate(77.487468 0) scale(0.996264)"/>
      </g>
     </g>
    </g>
    <g id="ytick_2">
     <g id="line2d_4">
      <g>
       <use xlink:href="#m59611ef1d9" x="228.9" y="37.662326" style="stroke: #000000; stroke-width: 0.8"/>
      </g>
     </g>
     <g id="text_5">
      <!-- $\mathdefault{1}$ -->
      <g transform="translate(209.106666 47.348226) scale(0.28 -0.28)">
       <use xlink:href="#CMR17-31" transform="scale(0.996264)"/>
      </g>
     </g>
    </g>
    <g id="text_6">
     <!-- $y$ -->
     <g transform="translate(170.092219 18.132959) scale(0.28 -0.28)">
      <defs>
       <path id="CMMI12-79" d="M 1683 -700 
C 1510 -939 1261 -1152 947 -1152 
C 870 -1152 563 -1152 467 -889 
C 486 -895 518 -895 531 -895 
C 723 -895 851 -729 851 -582 
C 851 -435 730 -384 634 -384 
C 531 -384 307 -458 307 -759 
C 307 -1071 582 -1286 947 -1286 
C 1587 -1286 2234 -700 2413 6 
L 3040 2485 
C 3046 2517 3059 2556 3059 2594 
C 3059 2689 2982 2753 2886 2753 
C 2829 2753 2694 2727 2643 2535 
L 2170 658 
C 2138 543 2138 530 2086 460 
C 1958 281 1747 64 1440 64 
C 1082 64 1050 415 1050 588 
C 1050 952 1222 1443 1395 1903 
C 1466 2088 1504 2178 1504 2305 
C 1504 2574 1312 2816 998 2816 
C 410 2816 173 1890 173 1839 
C 173 1814 198 1782 243 1782 
C 301 1782 307 1807 333 1897 
C 486 2433 730 2689 979 2689 
C 1037 2689 1146 2689 1146 2478 
C 1146 2312 1075 2127 979 1884 
C 666 1047 666 837 666 683 
C 666 77 1101 -64 1421 -64 
C 1606 -64 1837 -6 2061 230 
L 2067 224 
C 1971 -147 1907 -392 1683 -700 
z
" transform="scale(0.015625)"/>
      </defs>
      <use xlink:href="#CMMI12-79" transform="scale(0.996264)"/>
     </g>
    </g>
   </g>
   <g id="line2d_5">
    <defs>
     <path id="m3fe47f0e31" d="M 3 0 
L -3 -3 
L -3 3 
z
" style="stroke: #000000; stroke-linejoin: miter"/>
    </defs>
    <g>
     <use xlink:href="#m3fe47f0e31" x="447" y="178.697192" style="stroke: #000000; stroke-linejoin: miter"/>
    </g>
   </g>
   <g id="line2d_6">
    <defs>
     <path id="m0c9550e01e" d="M 0 -3 
L -3 3 
L 3 3 
z
" style="stroke: #000000; stroke-linejoin: miter"/>
    </defs>
    <g>
     <use xlink:href="#m0c9550e01e" x="228.9" y="23.55884" style="stroke: #000000; stroke-linejoin: miter"/>
    </g>
   </g>
   <g id="line2d_7">
    <path d="M 271.341976 178.697192 
L 271.233063 175.667999 
L 270.906881 172.654352 
L 270.365106 169.671719 
L 269.610517 166.735408 
L 268.646987 163.860489 
L 267.479462 161.061717 
L 266.113934 158.353457 
L 264.557411 155.749607 
L 262.817881 153.263533 
L 260.904273 150.907993 
L 258.826408 148.695077 
L 256.59495 146.636143 
L 254.221352 144.741757 
L 251.717796 143.021642 
L 249.097131 141.484626 
L 246.372808 140.138599 
L 243.558808 138.990467 
L 240.669573 138.046125 
L 237.719933 137.310417 
L 234.725027 136.787122 
L 231.700224 136.478923 
L 228.661049 136.387403 
L 225.623101 136.513032 
L 222.601971 136.855165 
L 219.613164 137.412045 
L 216.672021 138.180816 
L 213.793636 139.15753 
L 210.992782 140.337176 
L 208.283835 141.713699 
L 207.679012 142.055259 
L 207.679012 142.055259 
" clip-path="url(#p1b78a31c13)" style="fill: none; stroke: #dc5e8b; stroke-linecap: square"/>
   </g>
   <g id="line2d_8">
    <path d="M 228.9 178.697192 
L 228.9 56.557416 
" clip-path="url(#p1b78a31c13)" style="fill: none; stroke: #0072b2; stroke-width: 2.5; stroke-linecap: square"/>
   </g>
   <g id="line2d_9">
    <path d="M 228.9 56.557416 
L 158.163373 56.557416 
" clip-path="url(#p1b78a31c13)" style="fill: none; stroke: #0072b2; stroke-width: 2.5; stroke-linecap: square"/>
   </g>
   <g id="line2d_10">
    <path d="M 158.163373 56.557416 
L 228.9 178.697192 
" clip-path="url(#p1b78a31c13)" style="fill: none; stroke: #0072b2; stroke-width: 2.5; stroke-linecap: square"/>
   </g>
   <g id="line2d_11">
    <path d="M 228.9 177.799981 
L 228.890899 177.800071 
L 228.8818 177.800342 
L 228.872704 177.800792 
L 228.863614 177.801423 
L 228.854531 177.802233 
L 228.845457 177.803223 
L 228.836394 177.804393 
L 228.827345 177.805742 
L 228.818309 177.80727 
L 228.80929 177.808977 
L 228.800289 177.810863 
L 228.791309 177.812926 
L 228.78235 177.815167 
L 228.773414 177.817585 
L 228.764505 177.82018 
L 228.755622 177.822951 
L 228.746768 177.825898 
L 228.737946 177.829019 
L 228.729155 177.832315 
L 228.720399 177.835785 
L 228.711679 177.839428 
L 228.702997 177.843243 
L 228.694355 177.847229 
L 228.685754 177.851387 
L 228.677195 177.855714 
L 228.668682 177.86021 
L 228.660215 177.864874 
L 228.651796 177.869706 
L 228.643427 177.874703 
L 228.63511 177.879866 
L 228.626846 177.885194 
L 228.618637 177.890684 
L 228.610484 177.896336 
L 228.602389 177.902149 
L 228.594354 177.908122 
L 228.586381 177.914253 
L 228.57847 177.920542 
L 228.570624 177.926986 
L 228.562845 177.933585 
L 228.555133 177.940338 
L 228.54749 177.947243 
L 228.539918 177.954298 
L 228.532418 177.961502 
L 228.524993 177.968855 
L 228.517642 177.976353 
L 228.510369 177.983997 
L 228.503173 177.991783 
L 228.496058 177.999712 
" clip-path="url(#p1b78a31c13)" style="fill: none; stroke: #dc5e8b; stroke-width: 2; stroke-linecap: square"/>
   </g>
   <g id="line2d_12">
    <path d="M 228.9 57.185463 
L 228.450477 57.185463 
L 228.450477 56.557416 
" clip-path="url(#p1b78a31c13)" style="fill: none; stroke: #dc5e8b; stroke-width: 2; stroke-linecap: square"/>
   </g>
   <g id="line2d_13">
    <path d="M 158.567315 57.254896 
L 158.576507 57.244307 
L 158.585556 57.233481 
L 158.59446 57.222422 
L 158.603216 57.211135 
L 158.61182 57.199622 
L 158.62027 57.187888 
L 158.628563 57.175938 
L 158.636695 57.163774 
L 158.644665 57.151402 
L 158.652469 57.138826 
L 158.660105 57.126049 
L 158.66757 57.113077 
L 158.674861 57.099913 
L 158.681976 57.086563 
L 158.688913 57.07303 
L 158.695668 57.05932 
L 158.702241 57.045438 
L 158.708628 57.031387 
L 158.714828 57.017173 
L 158.720837 57.002801 
L 158.726655 56.988276 
L 158.732279 56.973602 
L 158.737707 56.958785 
L 158.742938 56.943831 
L 158.747969 56.928743 
L 158.752799 56.913527 
L 158.757426 56.898188 
L 158.761848 56.882733 
L 158.766065 56.867165 
L 158.770074 56.851491 
L 158.773874 56.835716 
L 158.777464 56.819845 
L 158.780843 56.803883 
L 158.784009 56.787837 
L 158.786962 56.771711 
L 158.7897 56.755512 
L 158.792223 56.739244 
L 158.794529 56.722914 
L 158.796618 56.706527 
L 158.798489 56.690089 
L 158.800141 56.673605 
L 158.801574 56.657081 
L 158.802788 56.640522 
L 158.803781 56.623935 
L 158.804554 56.607325 
L 158.805106 56.590698 
L 158.805438 56.57406 
L 158.805548 56.557416 
" clip-path="url(#p1b78a31c13)" style="fill: none; stroke: #dc5e8b; stroke-width: 2; stroke-linecap: square"/>
   </g>
   <g id="line2d_14">
    <path d="M 228.9 178.697192 
L 158.163373 56.557416 
" clip-path="url(#p1b78a31c13)" style="fill: none; stroke: #dc5e8b; stroke-width: 2.5; stroke-linecap: square"/>
   </g>
   <g id="line2d_15">
    <defs>
     <path id="mbacc4eb54a" d="M 0 5 
C 1.326016 5 2.597899 4.473168 3.535534 3.535534 
C 4.473168 2.597899 5 1.326016 5 0 
C 5 -1.326016 4.473168 -2.597899 3.535534 -3.535534 
C 2.597899 -4.473168 1.326016 -5 0 -5 
C -1.326016 -5 -2.597899 -4.473168 -3.535534 -3.535534 
C -4.473168 -2.597899 -5 -1.326016 -5 0 
C -5 1.326016 -4.473168 2.597899 -3.535534 3.535534 
C -2.597899 4.473168 -1.326016 5 0 5 
z
" style="stroke: #000000; stroke-opacity: 0.8"/>
    </defs>
    <g clip-path="url(#p1b78a31c13)">
     <use xlink:href="#mbacc4eb54a" x="158.163373" y="56.557416" style="fill-opacity: 0.8; stroke: #000000; stroke-opacity: 0.8"/>
    </g>
   </g>
   <g id="patch_4">
    <path d="M 228.9 333.835545 
L 228.9 23.55884 
" style="fill: none; stroke: #000000; stroke-width: 0.8; stroke-linejoin: miter; stroke-linecap: square"/>
   </g>
   <g id="patch_5">
    <path d="M 447 333.835545 
L 447 23.55884 
" style="fill: none"/>
   </g>
   <g id="patch_6">
    <path d="M 10.8 178.697192 
L 447 178.697192 
" style="fill: none; stroke: #000000; stroke-width: 0.8; stroke-linejoin: miter; stroke-linecap: square"/>
   </g>
   <g id="patch_7">
    <path d="M 10.8 23.55884 
L 447 23.55884 
" style="fill: none"/>
   </g>
   <g id="text_7">
    <!-- $P(x, y)$ -->
    <g transform="translate(72.0969 47.591596) scale(0.28 -0.28)">
     <defs>
      <path id="CMMI12-50" d="M 1894 2023 
L 2970 2023 
C 3853 2023 4736 2673 4736 3401 
C 4736 3898 4314 4352 3507 4352 
L 1530 4352 
C 1408 4352 1350 4352 1350 4231 
C 1350 4167 1408 4167 1504 4167 
C 1894 4167 1894 4116 1894 4046 
C 1894 4034 1894 3995 1869 3899 
L 1005 472 
C 947 249 934 185 486 185 
C 365 185 301 185 301 70 
C 301 0 358 0 397 0 
C 518 0 646 0 768 0 
L 1517 0 
C 1638 0 1773 0 1894 0 
C 1946 0 2016 0 2016 121 
C 2016 185 1958 185 1862 185 
C 1478 185 1472 230 1472 293 
C 1472 325 1478 369 1485 401 
L 1894 2023 
z
M 2355 3930 
C 2413 4167 2438 4167 2688 4167 
L 3322 4167 
C 3802 4167 4198 4013 4198 3535 
C 4198 3369 4115 2827 3821 2534 
C 3712 2419 3405 2176 2822 2176 
L 1920 2176 
L 2355 3930 
z
" transform="scale(0.015625)"/>
      <path id="CMR17-28" d="M 1958 -1561 
C 1958 -1555 1958 -1542 1939 -1523 
C 1645 -1224 858 -407 858 1581 
C 858 3569 1632 4379 1946 4697 
C 1946 4704 1958 4717 1958 4736 
C 1958 4755 1939 4768 1914 4768 
C 1843 4768 1299 4296 986 3594 
C 666 2887 576 2199 576 1588 
C 576 1128 621 351 1005 -471 
C 1312 -1135 1837 -1600 1914 -1600 
C 1946 -1600 1958 -1587 1958 -1561 
z
" transform="scale(0.015625)"/>
      <path id="CMMI12-3b" d="M 1248 -31 
C 1248 343 1126 619 864 619 
C 659 619 557 453 557 313 
C 557 172 653 0 870 0 
C 954 0 1024 26 1082 83 
C 1094 96 1101 96 1107 96 
C 1120 96 1120 5 1120 -27 
C 1120 -240 1082 -659 710 -1080 
C 640 -1157 640 -1170 640 -1183 
C 640 -1216 672 -1248 704 -1248 
C 755 -1248 1248 -771 1248 -31 
z
" transform="scale(0.015625)"/>
      <path id="CMR17-29" d="M 1683 1581 
C 1683 2040 1638 2817 1254 3639 
C 947 4303 422 4768 346 4768 
C 326 4768 301 4761 301 4729 
C 301 4717 307 4710 314 4697 
C 621 4378 1402 3568 1402 1584 
C 1402 -407 627 -1217 314 -1537 
C 307 -1549 301 -1556 301 -1568 
C 301 -1600 326 -1600 346 -1600 
C 416 -1600 960 -1128 1274 -426 
C 1594 281 1683 969 1683 1581 
z
" transform="scale(0.015625)"/>
     </defs>
     <use xlink:href="#CMMI12-50" transform="scale(0.996264)"/>
     <use xlink:href="#CMR17-28" transform="translate(76.425821 0) scale(0.996264)"/>
     <use xlink:href="#CMMI12-78" transform="translate(111.706589 0) scale(0.996264)"/>
     <use xlink:href="#CMMI12-3b" transform="translate(167.140648 0) scale(0.996264)"/>
     <use xlink:href="#CMMI12-79" transform="translate(210.84223 0) scale(0.996264)"/>
     <use xlink:href="#CMR17-29" transform="translate(261.981011 0) scale(0.996264)"/>
    </g>
   </g>
   <g id="text_8">
    <!-- $120^\circ$ -->
    <g transform="translate(256.491022 146.82805) scale(0.28 -0.28)">
     <defs>
      <path id="CMR17-32" d="M 2669 989 
L 2554 989 
C 2490 536 2438 459 2413 420 
C 2381 369 1920 369 1830 369 
L 602 369 
C 832 619 1280 1072 1824 1597 
C 2214 1967 2669 2402 2669 3035 
C 2669 3790 2067 4224 1395 4224 
C 691 4224 262 3604 262 3030 
C 262 2780 448 2748 525 2748 
C 589 2748 781 2787 781 3010 
C 781 3207 614 3264 525 3264 
C 486 3264 448 3258 422 3245 
C 544 3790 915 4058 1306 4058 
C 1862 4058 2227 3617 2227 3035 
C 2227 2479 1901 2000 1536 1584 
L 262 146 
L 262 0 
L 2515 0 
L 2669 989 
z
" transform="scale(0.015625)"/>
      <path id="CMR17-30" d="M 2688 2025 
C 2688 2416 2682 3080 2413 3591 
C 2176 4039 1798 4198 1466 4198 
C 1158 4198 768 4058 525 3597 
C 269 3118 243 2524 243 2025 
C 243 1661 250 1106 448 619 
C 723 -39 1216 -128 1466 -128 
C 1760 -128 2208 -7 2470 600 
C 2662 1042 2688 1559 2688 2025 
z
M 1466 -26 
C 1056 -26 813 325 723 812 
C 653 1188 653 1738 653 2096 
C 653 2588 653 2997 736 3387 
C 858 3929 1216 4096 1466 4096 
C 1728 4096 2067 3923 2189 3400 
C 2272 3036 2278 2607 2278 2096 
C 2278 1680 2278 1169 2202 792 
C 2067 95 1690 -26 1466 -26 
z
" transform="scale(0.015625)"/>
      <path id="CMSY10-e" d="M 2842 1600 
C 2842 2277 2272 2828 1600 2828 
C 909 2828 352 2264 352 1600 
C 352 930 909 372 1600 372 
C 2272 372 2842 923 2842 1600 
z
M 1600 628 
C 1043 628 608 1070 608 1600 
C 608 2130 1050 2572 1600 2572 
C 2131 2572 2586 2142 2586 1600 
C 2586 1058 2131 628 1600 628 
z
" transform="scale(0.015625)"/>
     </defs>
     <use xlink:href="#CMR17-31" transform="scale(0.996264)"/>
     <use xlink:href="#CMR17-32" transform="translate(45.690477 0) scale(0.996264)"/>
     <use xlink:href="#CMR17-30" transform="translate(91.380954 0) scale(0.996264)"/>
     <use xlink:href="#CMSY10-e" transform="translate(137.071431 36.153639) scale(0.697382)"/>
    </g>
   </g>
  </g>
 </g>
 <defs>
  <clipPath id="p1b78a31c13">
   <rect x="10.8" y="23.55884" width="436.2" height="310.276706"/>
  </clipPath>
 </defs>
</svg>
