<?xml version="1.0" encoding="utf-8" standalone="no"?>
<!DOCTYPE svg PUBLIC "-//W3C//DTD SVG 1.1//EN"
  "http://www.w3.org/Graphics/SVG/1.1/DTD/svg11.dtd">
<svg xmlns:xlink="http://www.w3.org/1999/xlink" width="460.8pt" height="345.6pt" viewBox="0 0 460.8 345.6" xmlns="http://www.w3.org/2000/svg" version="1.1">
 <metadata>
  <rdf:RDF xmlns:dc="http://purl.org/dc/elements/1.1/" xmlns:cc="http://creativecommons.org/ns#" xmlns:rdf="http://www.w3.org/1999/02/22-rdf-syntax-ns#">
   <cc:Work>
    <dc:type rdf:resource="http://purl.org/dc/dcmitype/StillImage"/>
    <dc:date>2025-08-14T09:19:31.688941</dc:date>
    <dc:format>image/svg+xml</dc:format>
    <dc:creator>
     <cc:Agent>
      <dc:title>Matplotlib v3.9.1, https://matplotlib.org/</dc:title>
     </cc:Agent>
    </dc:creator>
   </cc:Work>
  </rdf:RDF>
 </metadata>
 <defs>
  <style type="text/css">*{stroke-linejoin: round; stroke-linecap: butt}</style>
 </defs>
 <g id="figure_1">
  <g id="patch_1">
   <path d="M 0 345.6 
L 460.8 345.6 
L 460.8 0 
L 0 0 
L 0 345.6 
z
" style="fill: none"/>
  </g>
  <g id="axes_1">
   <g id="patch_2">
    <path d="M 10.8 334.8 
L 447 334.8 
L 447 18.064532 
L 10.8 18.064532 
L 10.8 334.8 
z
" style="fill: none"/>
   </g>
   <g id="matplotlib.axis_1">
    <g id="xtick_1">
     <g id="line2d_1">
      <defs>
       <path id="m0028f6bc89" d="M 0 0 
L 0 3.5 
" style="stroke: #000000; stroke-width: 0.8"/>
      </defs>
      <g>
       <use xlink:href="#m0028f6bc89" x="107.733333" y="299.60717" style="stroke: #000000; stroke-width: 0.8"/>
      </g>
     </g>
     <g id="text_1">
      <!-- $x_1$ -->
      <g transform="translate(98.775698 320.444167) scale(0.2 -0.2)">
       <defs>
        <path id="CMMI12-78" d="M 3034 2606 
C 2829 2567 2752 2414 2752 2293 
C 2752 2139 2874 2088 2963 2088 
C 3155 2088 3290 2254 3290 2427 
C 3290 2695 2982 2816 2714 2816 
C 2323 2816 2106 2433 2048 2312 
C 1901 2816 1504 2816 1389 2816 
C 736 2816 390 1980 390 1839 
C 390 1814 416 1782 461 1782 
C 512 1782 525 1820 538 1846 
C 755 2555 1184 2689 1370 2689 
C 1658 2689 1715 2420 1715 2267 
C 1715 2127 1677 1980 1600 1673 
L 1382 798 
C 1286 415 1101 64 762 64 
C 730 64 570 64 435 147 
C 666 192 717 383 717 460 
C 717 588 621 664 499 664 
C 346 664 179 530 179 326 
C 179 57 480 -64 755 -64 
C 1062 -64 1280 179 1414 441 
C 1517 64 1837 -64 2074 -64 
C 2726 -64 3072 773 3072 913 
C 3072 945 3046 971 3008 971 
C 2950 971 2944 939 2925 888 
C 2752 326 2381 64 2093 64 
C 1869 64 1747 230 1747 492 
C 1747 632 1773 734 1875 1156 
L 2099 2024 
C 2195 2408 2413 2689 2707 2689 
C 2720 2689 2899 2689 3034 2606 
z
" transform="scale(0.015625)"/>
        <path id="CMR17-31" d="M 1702 4058 
C 1702 4192 1696 4192 1606 4192 
C 1357 3916 979 3827 621 3827 
C 602 3827 570 3827 563 3808 
C 557 3795 557 3782 557 3648 
C 755 3648 1088 3686 1344 3839 
L 1344 461 
C 1344 236 1331 160 781 160 
L 589 160 
L 589 0 
C 896 0 1216 0 1523 0 
C 1830 0 2150 0 2458 0 
L 2458 160 
L 2266 160 
C 1715 160 1702 230 1702 458 
L 1702 4058 
z
" transform="scale(0.015625)"/>
       </defs>
       <use xlink:href="#CMMI12-78" transform="scale(0.996264)"/>
       <use xlink:href="#CMR17-31" transform="translate(55.43406 -14.943915) scale(0.697382)"/>
      </g>
     </g>
    </g>
    <g id="xtick_2">
     <g id="line2d_2">
      <g>
       <use xlink:href="#m0028f6bc89" x="156.2" y="299.60717" style="stroke: #000000; stroke-width: 0.8"/>
      </g>
     </g>
     <g id="text_2">
      <!-- $x_2$ -->
      <g transform="translate(147.242365 320.444167) scale(0.2 -0.2)">
       <defs>
        <path id="CMR17-32" d="M 2669 989 
L 2554 989 
C 2490 536 2438 459 2413 420 
C 2381 369 1920 369 1830 369 
L 602 369 
C 832 619 1280 1072 1824 1597 
C 2214 1967 2669 2402 2669 3035 
C 2669 3790 2067 4224 1395 4224 
C 691 4224 262 3604 262 3030 
C 262 2780 448 2748 525 2748 
C 589 2748 781 2787 781 3010 
C 781 3207 614 3264 525 3264 
C 486 3264 448 3258 422 3245 
C 544 3790 915 4058 1306 4058 
C 1862 4058 2227 3617 2227 3035 
C 2227 2479 1901 2000 1536 1584 
L 262 146 
L 262 0 
L 2515 0 
L 2669 989 
z
" transform="scale(0.015625)"/>
       </defs>
       <use xlink:href="#CMMI12-78" transform="scale(0.996264)"/>
       <use xlink:href="#CMR17-32" transform="translate(55.43406 -14.943915) scale(0.697382)"/>
      </g>
     </g>
    </g>
    <g id="xtick_3">
     <g id="line2d_3">
      <g>
       <use xlink:href="#m0028f6bc89" x="204.666667" y="299.60717" style="stroke: #000000; stroke-width: 0.8"/>
      </g>
     </g>
     <g id="text_3">
      <!-- $x_3$ -->
      <g transform="translate(195.709032 320.444167) scale(0.2 -0.2)">
       <defs>
        <path id="CMR17-33" d="M 1414 2157 
C 1984 2157 2234 1662 2234 1090 
C 2234 320 1824 25 1453 25 
C 1114 25 563 194 390 693 
C 422 680 454 680 486 680 
C 640 680 755 782 755 948 
C 755 1133 614 1216 486 1216 
C 378 1216 211 1165 211 926 
C 211 335 787 -128 1466 -128 
C 2176 -128 2720 430 2720 1085 
C 2720 1707 2208 2157 1600 2227 
C 2086 2328 2554 2756 2554 3329 
C 2554 3820 2048 4179 1472 4179 
C 890 4179 378 3829 378 3329 
C 378 3110 544 3072 627 3072 
C 762 3072 877 3155 877 3321 
C 877 3486 762 3569 627 3569 
C 602 3569 570 3569 544 3557 
C 730 3959 1235 4032 1459 4032 
C 1683 4032 2106 3925 2106 3320 
C 2106 3143 2080 2828 1862 2550 
C 1670 2304 1453 2304 1242 2284 
C 1210 2284 1062 2269 1037 2269 
C 992 2263 966 2257 966 2208 
C 966 2163 973 2157 1101 2157 
L 1414 2157 
z
" transform="scale(0.015625)"/>
       </defs>
       <use xlink:href="#CMMI12-78" transform="scale(0.996264)"/>
       <use xlink:href="#CMR17-33" transform="translate(55.43406 -14.943915) scale(0.697382)"/>
      </g>
     </g>
    </g>
    <g id="xtick_4">
     <g id="line2d_4">
      <g>
       <use xlink:href="#m0028f6bc89" x="253.133333" y="299.60717" style="stroke: #000000; stroke-width: 0.8"/>
      </g>
     </g>
     <g id="text_4">
      <!-- $x_4$ -->
      <g transform="translate(244.175698 320.444167) scale(0.2 -0.2)">
       <defs>
        <path id="CMR17-34" d="M 2150 4122 
C 2150 4256 2144 4256 2029 4256 
L 128 1254 
L 128 1088 
L 1779 1088 
L 1779 457 
C 1779 224 1766 160 1318 160 
L 1197 160 
L 1197 0 
C 1402 0 1747 0 1965 0 
C 2182 0 2528 0 2733 0 
L 2733 160 
L 2611 160 
C 2163 160 2150 224 2150 457 
L 2150 1088 
L 2803 1088 
L 2803 1254 
L 2150 1254 
L 2150 4122 
z
M 1798 3703 
L 1798 1254 
L 256 1254 
L 1798 3703 
z
" transform="scale(0.015625)"/>
       </defs>
       <use xlink:href="#CMMI12-78" transform="scale(0.996264)"/>
       <use xlink:href="#CMR17-34" transform="translate(55.43406 -14.943915) scale(0.697382)"/>
      </g>
     </g>
    </g>
    <g id="xtick_5">
     <g id="line2d_5">
      <g>
       <use xlink:href="#m0028f6bc89" x="301.6" y="299.60717" style="stroke: #000000; stroke-width: 0.8"/>
      </g>
     </g>
     <g id="text_5">
      <!-- $x_5$ -->
      <g transform="translate(292.642365 320.444167) scale(0.2 -0.2)">
       <defs>
        <path id="CMR17-35" d="M 730 3692 
C 794 3666 1056 3584 1325 3584 
C 1920 3584 2246 3911 2432 4100 
C 2432 4157 2432 4192 2394 4192 
C 2387 4192 2374 4192 2323 4163 
C 2099 4058 1837 3973 1517 3973 
C 1325 3973 1037 3999 723 4139 
C 653 4171 640 4171 634 4171 
C 602 4171 595 4164 595 4037 
L 595 2203 
C 595 2089 595 2057 659 2057 
C 691 2057 704 2070 736 2114 
C 941 2401 1222 2522 1542 2522 
C 1766 2522 2246 2382 2246 1289 
C 2246 1085 2246 715 2054 421 
C 1894 159 1645 25 1370 25 
C 947 25 518 320 403 814 
C 429 807 480 795 506 795 
C 589 795 749 840 749 1038 
C 749 1210 627 1280 506 1280 
C 358 1280 262 1190 262 1011 
C 262 454 704 -128 1382 -128 
C 2042 -128 2669 440 2669 1264 
C 2669 2030 2170 2624 1549 2624 
C 1222 2624 947 2503 730 2274 
L 730 3692 
z
" transform="scale(0.015625)"/>
       </defs>
       <use xlink:href="#CMMI12-78" transform="scale(0.996264)"/>
       <use xlink:href="#CMR17-35" transform="translate(55.43406 -14.943915) scale(0.697382)"/>
      </g>
     </g>
    </g>
    <g id="xtick_6">
     <g id="line2d_6">
      <g>
       <use xlink:href="#m0028f6bc89" x="350.066667" y="299.60717" style="stroke: #000000; stroke-width: 0.8"/>
      </g>
     </g>
     <g id="text_6">
      <!-- $x_6$ -->
      <g transform="translate(341.109032 320.444167) scale(0.2 -0.2)">
       <defs>
        <path id="CMR17-36" d="M 678 2176 
C 678 3690 1395 4032 1811 4032 
C 1946 4032 2272 4009 2400 3776 
C 2298 3776 2106 3776 2106 3553 
C 2106 3381 2246 3323 2336 3323 
C 2394 3323 2566 3348 2566 3560 
C 2566 3954 2246 4179 1805 4179 
C 1043 4179 243 3390 243 1984 
C 243 253 966 -128 1478 -128 
C 2099 -128 2688 427 2688 1283 
C 2688 2081 2170 2662 1517 2662 
C 1126 2662 838 2407 678 1960 
L 678 2176 
z
M 1478 25 
C 691 25 691 1200 691 1436 
C 691 1896 909 2560 1504 2560 
C 1613 2560 1926 2560 2138 2120 
C 2253 1870 2253 1609 2253 1289 
C 2253 944 2253 690 2118 434 
C 1978 171 1773 25 1478 25 
z
" transform="scale(0.015625)"/>
       </defs>
       <use xlink:href="#CMMI12-78" transform="scale(0.996264)"/>
       <use xlink:href="#CMR17-36" transform="translate(55.43406 -14.943915) scale(0.697382)"/>
      </g>
     </g>
    </g>
    <g id="text_7">
     <!-- $x$ -->
     <g transform="translate(435.913188 342.156797) scale(0.2 -0.2)">
      <use xlink:href="#CMMI12-78" transform="scale(0.996264)"/>
     </g>
    </g>
   </g>
   <g id="matplotlib.axis_2">
    <g id="text_8">
     <!-- $y$ -->
     <g transform="translate(45.753832 14.188899) scale(0.2 -0.2)">
      <defs>
       <path id="CMMI12-79" d="M 1683 -700 
C 1510 -939 1261 -1152 947 -1152 
C 870 -1152 563 -1152 467 -889 
C 486 -895 518 -895 531 -895 
C 723 -895 851 -729 851 -582 
C 851 -435 730 -384 634 -384 
C 531 -384 307 -458 307 -759 
C 307 -1071 582 -1286 947 -1286 
C 1587 -1286 2234 -700 2413 6 
L 3040 2485 
C 3046 2517 3059 2556 3059 2594 
C 3059 2689 2982 2753 2886 2753 
C 2829 2753 2694 2727 2643 2535 
L 2170 658 
C 2138 543 2138 530 2086 460 
C 1958 281 1747 64 1440 64 
C 1082 64 1050 415 1050 588 
C 1050 952 1222 1443 1395 1903 
C 1466 2088 1504 2178 1504 2305 
C 1504 2574 1312 2816 998 2816 
C 410 2816 173 1890 173 1839 
C 173 1814 198 1782 243 1782 
C 301 1782 307 1807 333 1897 
C 486 2433 730 2689 979 2689 
C 1037 2689 1146 2689 1146 2478 
C 1146 2312 1075 2127 979 1884 
C 666 1047 666 837 666 683 
C 666 77 1101 -64 1421 -64 
C 1606 -64 1837 -6 2061 230 
L 2067 224 
C 1971 -147 1907 -392 1683 -700 
z
" transform="scale(0.015625)"/>
      </defs>
      <use xlink:href="#CMMI12-79" transform="scale(0.996264)"/>
     </g>
    </g>
   </g>
   <g id="line2d_7">
    <defs>
     <path id="mdac537faa0" d="M 3 0 
L -3 -3 
L -3 3 
z
" style="stroke: #000000; stroke-linejoin: miter"/>
    </defs>
    <g>
     <use xlink:href="#mdac537faa0" x="447" y="299.60717" style="stroke: #000000; stroke-linejoin: miter"/>
    </g>
   </g>
   <g id="line2d_8">
    <defs>
     <path id="m20f0ef5640" d="M 0 -3 
L -3 3 
L 3 3 
z
" style="stroke: #000000; stroke-linejoin: miter"/>
    </defs>
    <g>
     <use xlink:href="#m20f0ef5640" x="59.266667" y="18.064532" style="stroke: #000000; stroke-linejoin: miter"/>
    </g>
   </g>
   <g id="line2d_9">
    <path d="M 64.901427 -1 
L 71.516484 17.327187 
L 78.120733 34.970435 
L 84.618462 51.691385 
L 91.00967 67.521146 
L 97.294359 82.490317 
L 103.472527 96.628987 
L 109.544176 109.966733 
L 115.509304 122.532626 
L 121.367912 134.355224 
L 127.12 145.462576 
L 132.765568 155.88222 
L 138.304615 165.641187 
L 143.737143 174.765993 
L 149.06315 183.28265 
L 154.282637 191.216654 
L 159.395604 198.592997 
L 164.402051 205.436156 
L 169.408498 211.9038 
L 174.308425 217.870219 
L 179.101832 223.358872 
L 183.788718 228.392709 
L 188.369084 232.994168 
L 192.949451 237.28131 
L 197.423297 241.165314 
L 201.790623 244.667597 
L 206.157949 247.884123 
L 210.418755 250.746807 
L 214.57304 253.27605 
L 218.727326 255.546733 
L 222.775092 257.510494 
L 226.822857 259.228785 
L 230.764103 260.665992 
L 234.705348 261.870478 
L 238.646593 262.842244 
L 242.587839 263.581289 
L 246.422564 264.076989 
L 250.257289 264.352378 
L 254.092015 264.407456 
L 257.92674 264.242222 
L 261.761465 263.856678 
L 265.59619 263.250822 
L 269.430916 262.424656 
L 273.372161 261.345964 
L 277.313407 260.034552 
L 281.254652 258.49042 
L 285.302418 256.662313 
L 289.350183 254.588737 
L 293.504469 252.205348 
L 297.658755 249.5634 
L 301.91956 246.58512 
L 306.180366 243.334851 
L 310.547692 239.721052 
L 315.021538 235.722813 
L 319.495385 231.424707 
L 324.075751 226.713602 
L 328.762637 221.56757 
L 333.449524 216.092431 
L 338.24293 210.152445 
L 343.142857 203.724665 
L 348.149304 196.78563 
L 353.262271 189.311371 
L 358.481758 181.277411 
L 363.701245 172.835296 
L 369.027253 163.800161 
L 374.45978 154.146505 
L 379.998828 143.848321 
L 385.644396 132.879089 
L 391.396484 121.21178 
L 397.255092 108.818855 
L 403.22022 95.672265 
L 409.291868 81.743452 
L 415.470037 67.003347 
L 421.754725 51.422371 
L 428.145934 34.970435 
L 434.643663 17.61694 
L 441.247912 -0.669222 
L 441.36524 -1 
L 441.36524 -1 
" clip-path="url(#pea952254f6)" style="fill: none; stroke: #0072b2; stroke-width: 2.5; stroke-linecap: square"/>
   </g>
   <g id="LineCollection_1">
    <path d="M 107.733333 299.60717 
L 107.733333 106.046607 
" clip-path="url(#pea952254f6)" style="fill: none; stroke-dasharray: 5.55,2.4; stroke-dashoffset: 0; stroke: #000000; stroke-opacity: 0.5; stroke-width: 1.5"/>
   </g>
   <g id="LineCollection_2">
    <path d="M 156.2 299.60717 
L 156.2 194.028681 
" clip-path="url(#pea952254f6)" style="fill: none; stroke-dasharray: 5.55,2.4; stroke-dashoffset: 0; stroke: #000000; stroke-opacity: 0.5; stroke-width: 1.5"/>
   </g>
   <g id="LineCollection_3">
    <path d="M 204.666667 299.60717 
L 204.666667 246.817926 
" clip-path="url(#pea952254f6)" style="fill: none; stroke-dasharray: 5.55,2.4; stroke-dashoffset: 0; stroke: #000000; stroke-opacity: 0.5; stroke-width: 1.5"/>
   </g>
   <g id="LineCollection_4">
    <path d="M 253.133333 299.60717 
L 253.133333 264.41434 
" clip-path="url(#pea952254f6)" style="fill: none; stroke-dasharray: 5.55,2.4; stroke-dashoffset: 0; stroke: #000000; stroke-opacity: 0.5; stroke-width: 1.5"/>
   </g>
   <g id="LineCollection_5">
    <path d="M 301.6 299.60717 
L 301.6 246.817926 
" clip-path="url(#pea952254f6)" style="fill: none; stroke-dasharray: 5.55,2.4; stroke-dashoffset: 0; stroke: #000000; stroke-opacity: 0.5; stroke-width: 1.5"/>
   </g>
   <g id="LineCollection_6">
    <path d="M 350.066667 299.60717 
L 350.066667 194.028681 
" clip-path="url(#pea952254f6)" style="fill: none; stroke-dasharray: 5.55,2.4; stroke-dashoffset: 0; stroke: #000000; stroke-opacity: 0.5; stroke-width: 1.5"/>
   </g>
   <g id="line2d_10">
    <defs>
     <path id="m45defb3e6f" d="M 0 4 
C 1.060812 4 2.078319 3.578535 2.828427 2.828427 
C 3.578535 2.078319 4 1.060812 4 0 
C 4 -1.060812 3.578535 -2.078319 2.828427 -2.828427 
C 2.078319 -3.578535 1.060812 -4 0 -4 
C -1.060812 -4 -2.078319 -3.578535 -2.828427 -2.828427 
C -3.578535 -2.078319 -4 -1.060812 -4 0 
C -4 1.060812 -3.578535 2.078319 -2.828427 2.828427 
C -2.078319 3.578535 -1.060812 4 0 4 
z
" style="stroke: #0000ff"/>
    </defs>
    <g clip-path="url(#pea952254f6)">
     <use xlink:href="#m45defb3e6f" x="107.733333" y="106.046607" style="fill: #0000ff; stroke: #0000ff"/>
    </g>
   </g>
   <g id="line2d_11">
    <g clip-path="url(#pea952254f6)">
     <use xlink:href="#m45defb3e6f" x="156.2" y="194.028681" style="fill: #0000ff; stroke: #0000ff"/>
    </g>
   </g>
   <g id="line2d_12">
    <g clip-path="url(#pea952254f6)">
     <use xlink:href="#m45defb3e6f" x="204.666667" y="246.817926" style="fill: #0000ff; stroke: #0000ff"/>
    </g>
   </g>
   <g id="line2d_13">
    <defs>
     <path id="m13fe814ef9" d="M 0 4 
C 1.060812 4 2.078319 3.578535 2.828427 2.828427 
C 3.578535 2.078319 4 1.060812 4 0 
C 4 -1.060812 3.578535 -2.078319 2.828427 -2.828427 
C 2.078319 -3.578535 1.060812 -4 0 -4 
C -1.060812 -4 -2.078319 -3.578535 -2.828427 -2.828427 
C -3.578535 -2.078319 -4 -1.060812 -4 0 
C -4 1.060812 -3.578535 2.078319 -2.828427 2.828427 
C -2.078319 3.578535 -1.060812 4 0 4 
z
" style="stroke: #ff0000"/>
    </defs>
    <g clip-path="url(#pea952254f6)">
     <use xlink:href="#m13fe814ef9" x="253.133333" y="264.41434" style="fill: #ff0000; stroke: #ff0000"/>
    </g>
   </g>
   <g id="line2d_14">
    <g clip-path="url(#pea952254f6)">
     <use xlink:href="#m13fe814ef9" x="301.6" y="246.817926" style="fill: #ff0000; stroke: #ff0000"/>
    </g>
   </g>
   <g id="line2d_15">
    <g clip-path="url(#pea952254f6)">
     <use xlink:href="#m13fe814ef9" x="350.066667" y="194.028681" style="fill: #ff0000; stroke: #ff0000"/>
    </g>
   </g>
   <g id="line2d_16">
    <path d="M 277.366667 317.203585 
L 277.317877 316.645568 
L 277.171705 316.089798 
L 276.928739 315.538513 
L 276.589957 314.993933 
L 276.156723 314.45825 
L 275.630783 313.933622 
L 275.014253 313.42216 
L 274.309617 312.925925 
L 273.519711 312.446915 
L 272.647716 311.987058 
L 271.697144 311.548206 
L 270.671822 311.132127 
L 269.575878 310.740495 
L 268.413726 310.374888 
L 267.190046 310.036777 
L 265.909764 309.727525 
L 264.578036 309.448376 
L 263.200224 309.200454 
L 261.781876 308.984758 
L 260.328704 308.802157 
L 258.846558 308.653385 
L 257.341408 308.539042 
L 255.819312 308.459588 
L 254.286402 308.415343 
L 252.748848 308.406485 
L 251.212843 308.43305 
L 249.68457 308.494931 
L 248.170185 308.591878 
L 246.675785 308.723502 
L 245.207386 308.889272 
L 243.770903 309.088521 
L 242.372119 309.320446 
L 241.016667 309.584114 
L 239.710004 309.878463 
L 238.457392 310.202307 
L 237.263875 310.554344 
L 236.134259 310.933154 
L 235.073092 311.337213 
L 234.084647 311.764894 
L 233.172904 312.214475 
L 232.341535 312.684145 
L 231.593888 313.172013 
L 230.932972 313.676115 
L 230.361449 314.194421 
L 229.88162 314.724844 
L 229.495418 315.265247 
L 229.204398 315.813456 
L 229.00973 316.367262 
L 228.9122 316.924436 
L 228.9122 317.482734 
L 229.00973 318.039908 
L 229.204398 318.593714 
L 229.495418 319.141923 
L 229.88162 319.682327 
L 230.361449 320.212749 
L 230.932972 320.731055 
L 231.593888 321.235157 
L 232.341535 321.723025 
L 233.172904 322.192695 
L 234.084647 322.642276 
L 235.073092 323.069957 
L 236.134259 323.474016 
L 237.263875 323.852827 
L 238.457392 324.204863 
L 239.710004 324.528707 
L 241.016667 324.823056 
L 242.372119 325.086724 
L 243.770903 325.31865 
L 245.207386 325.517898 
L 246.675785 325.683668 
L 248.170185 325.815292 
L 249.68457 325.912239 
L 251.212843 325.97412 
L 252.748848 326.000685 
L 254.286402 325.991827 
L 255.819312 325.947582 
L 257.341408 325.868128 
L 258.846558 325.753785 
L 260.328704 325.605013 
L 261.781876 325.422412 
L 263.200224 325.206716 
L 264.578036 324.958795 
L 265.909764 324.679646 
L 267.190046 324.370393 
L 268.413726 324.032283 
L 269.575878 323.666675 
L 270.671822 323.275043 
L 271.697144 322.858964 
L 272.647716 322.420112 
L 273.519711 321.960255 
L 274.309617 321.481245 
L 275.014253 320.98501 
L 275.630783 320.473549 
L 276.156723 319.94892 
L 276.589957 319.413237 
L 276.928739 318.868657 
L 277.171705 318.317372 
L 277.317877 317.761602 
L 277.366667 317.203585 
" clip-path="url(#pea952254f6)" style="fill: none; stroke-dasharray: 5.55,2.4; stroke-dashoffset: 0; stroke: #ff0000; stroke-width: 1.5"/>
   </g>
   <g id="patch_3">
    <path d="M 59.266667 334.8 
L 59.266667 18.064532 
" style="fill: none; stroke: #000000; stroke-width: 0.8; stroke-linejoin: miter; stroke-linecap: square"/>
   </g>
   <g id="patch_4">
    <path d="M 447 334.8 
L 447 18.064532 
" style="fill: none"/>
   </g>
   <g id="patch_5">
    <path d="M 10.8 299.60717 
L 447 299.60717 
" style="fill: none; stroke: #000000; stroke-width: 0.8; stroke-linejoin: miter; stroke-linecap: square"/>
   </g>
   <g id="patch_6">
    <path d="M 10.8 18.064532 
L 447 18.064532 
" style="fill: none"/>
   </g>
   <g id="patch_7">
    <path d="M 128.779549 73.298232 
Q 115.888577 85.316885 109.271093 102.097335 
" style="fill: none; opacity: 0.7; stroke: #000000; stroke-width: 2; stroke-linecap: round"/>
    <path d="M 115.927082 96.12257 
L 109.271093 102.097335 
L 108.484874 93.187685 
" style="fill: none; opacity: 0.7; stroke: #000000; stroke-width: 2; stroke-linecap: round"/>
   </g>
   <g id="text_9">
    <g id="patch_8">
     <path d="M 107.733333 71.202695 
L 240.200221 71.202695 
Q 248.200221 71.202695 248.200221 63.202695 
L 248.200221 43.312029 
Q 248.200221 35.312029 240.200221 35.312029 
L 107.733333 35.312029 
Q 99.733333 35.312029 99.733333 43.312029 
L 99.733333 63.202695 
Q 99.733333 71.202695 107.733333 71.202695 
z
" style="fill: #ffffff; stroke: #000000; stroke-width: 1.5; stroke-linejoin: miter"/>
    </g>
    <!-- $f(x) &gt; f(x + 1)$ -->
    <g transform="translate(107.733333 58.238051) scale(0.2 -0.2)">
     <defs>
      <path id="CMMI12-66" d="M 2854 2566 
C 2982 2566 3034 2566 3034 2688 
C 3034 2752 2982 2752 2867 2752 
L 2349 2752 
C 2470 3429 2560 3897 2611 4107 
C 2650 4265 2784 4416 2950 4416 
C 3085 4416 3219 4358 3283 4298 
C 3034 4272 2957 4082 2957 3969 
C 2957 3837 3053 3759 3174 3759 
C 3302 3759 3494 3870 3494 4119 
C 3494 4393 3226 4544 2944 4544 
C 2669 4544 2400 4334 2272 4078 
C 2157 3848 2093 3611 1946 2752 
L 1517 2752 
C 1395 2752 1331 2752 1331 2637 
C 1331 2566 1370 2566 1498 2566 
L 1907 2566 
C 1792 1976 1530 542 1382 -137 
C 1274 -689 1178 -1152 858 -1152 
C 838 -1152 653 -1152 538 -1031 
C 864 -1005 864 -726 864 -720 
C 864 -593 768 -517 646 -517 
C 518 -517 326 -625 326 -867 
C 326 -1140 608 -1280 858 -1280 
C 1510 -1280 1779 -118 1850 199 
C 1965 688 2278 2376 2310 2566 
L 2854 2566 
z
" transform="scale(0.015625)"/>
      <path id="CMR17-28" d="M 1958 -1561 
C 1958 -1555 1958 -1542 1939 -1523 
C 1645 -1224 858 -407 858 1581 
C 858 3569 1632 4379 1946 4697 
C 1946 4704 1958 4717 1958 4736 
C 1958 4755 1939 4768 1914 4768 
C 1843 4768 1299 4296 986 3594 
C 666 2887 576 2199 576 1588 
C 576 1128 621 351 1005 -471 
C 1312 -1135 1837 -1600 1914 -1600 
C 1946 -1600 1958 -1587 1958 -1561 
z
" transform="scale(0.015625)"/>
      <path id="CMR17-29" d="M 1683 1581 
C 1683 2040 1638 2817 1254 3639 
C 947 4303 422 4768 346 4768 
C 326 4768 301 4761 301 4729 
C 301 4717 307 4710 314 4697 
C 621 4378 1402 3568 1402 1584 
C 1402 -407 627 -1217 314 -1537 
C 307 -1549 301 -1556 301 -1568 
C 301 -1600 326 -1600 346 -1600 
C 416 -1600 960 -1128 1274 -426 
C 1594 281 1683 969 1683 1581 
z
" transform="scale(0.015625)"/>
      <path id="CMMI12-3e" d="M 4218 1449 
C 4339 1507 4346 1545 4346 1590 
C 4346 1628 4333 1673 4218 1725 
L 755 3322 
C 672 3360 659 3360 646 3360 
C 570 3360 525 3296 525 3245 
C 525 3168 576 3142 659 3104 
L 3949 1590 
L 653 65 
C 525 6 525 -39 525 -77 
C 525 -128 570 -192 646 -192 
C 659 -192 666 -185 755 -147 
L 4218 1449 
z
" transform="scale(0.015625)"/>
      <path id="CMR17-2b" d="M 2413 1472 
L 4109 1472 
C 4198 1472 4307 1472 4307 1580 
C 4307 1695 4205 1695 4109 1695 
L 2413 1695 
L 2413 3386 
C 2413 3475 2413 3584 2304 3584 
C 2189 3584 2189 3482 2189 3386 
L 2189 1695 
L 493 1695 
C 403 1695 294 1695 294 1587 
C 294 1472 397 1472 493 1472 
L 2189 1472 
L 2189 -218 
C 2189 -307 2189 -416 2298 -416 
C 2413 -416 2413 -314 2413 -218 
L 2413 1472 
z
" transform="scale(0.015625)"/>
     </defs>
     <use xlink:href="#CMMI12-66" transform="scale(0.996264)"/>
     <use xlink:href="#CMR17-28" transform="translate(58.720305 0) scale(0.996264)"/>
     <use xlink:href="#CMMI12-78" transform="translate(94.001073 0) scale(0.996264)"/>
     <use xlink:href="#CMR17-29" transform="translate(149.435132 0) scale(0.996264)"/>
     <use xlink:href="#CMMI12-3e" transform="translate(212.389909 0) scale(0.996264)"/>
     <use xlink:href="#CMMI12-66" transform="translate(315.936013 0) scale(0.996264)"/>
     <use xlink:href="#CMR17-28" transform="translate(374.656318 0) scale(0.996264)"/>
     <use xlink:href="#CMMI12-78" transform="translate(409.937086 0) scale(0.996264)"/>
     <use xlink:href="#CMR17-2b" transform="translate(487.510352 0) scale(0.996264)"/>
     <use xlink:href="#CMR17-31" transform="translate(581.364348 0) scale(0.996264)"/>
     <use xlink:href="#CMR17-29" transform="translate(627.054825 0) scale(0.996264)"/>
    </g>
   </g>
   <g id="patch_9">
    <path d="M 181.538277 73.869687 
Q 200.025437 137.013697 158.790568 190.675171 
" style="fill: none; opacity: 0.7; stroke: #000000; stroke-width: 2; stroke-linecap: round"/>
    <path d="M 166.836776 186.768951 
L 158.790568 190.675171 
L 160.493317 181.894473 
" style="fill: none; opacity: 0.7; stroke: #000000; stroke-width: 2; stroke-linecap: round"/>
   </g>
   <g id="text_10">
    <g id="patch_10">
     <path d="M 107.733333 71.202695 
L 240.200221 71.202695 
Q 248.200221 71.202695 248.200221 63.202695 
L 248.200221 43.312029 
Q 248.200221 35.312029 240.200221 35.312029 
L 107.733333 35.312029 
Q 99.733333 35.312029 99.733333 43.312029 
L 99.733333 63.202695 
Q 99.733333 71.202695 107.733333 71.202695 
z
" style="fill: #ffffff; stroke: #000000; stroke-width: 1.5; stroke-linejoin: miter"/>
    </g>
    <!-- $f(x) &gt; f(x + 1)$ -->
    <g transform="translate(107.733333 58.238051) scale(0.2 -0.2)">
     <use xlink:href="#CMMI12-66" transform="scale(0.996264)"/>
     <use xlink:href="#CMR17-28" transform="translate(58.720305 0) scale(0.996264)"/>
     <use xlink:href="#CMMI12-78" transform="translate(94.001073 0) scale(0.996264)"/>
     <use xlink:href="#CMR17-29" transform="translate(149.435132 0) scale(0.996264)"/>
     <use xlink:href="#CMMI12-3e" transform="translate(212.389909 0) scale(0.996264)"/>
     <use xlink:href="#CMMI12-66" transform="translate(315.936013 0) scale(0.996264)"/>
     <use xlink:href="#CMR17-28" transform="translate(374.656318 0) scale(0.996264)"/>
     <use xlink:href="#CMMI12-78" transform="translate(409.937086 0) scale(0.996264)"/>
     <use xlink:href="#CMR17-2b" transform="translate(487.510352 0) scale(0.996264)"/>
     <use xlink:href="#CMR17-31" transform="translate(581.364348 0) scale(0.996264)"/>
     <use xlink:href="#CMR17-29" transform="translate(627.054825 0) scale(0.996264)"/>
    </g>
   </g>
   <g id="patch_11">
    <path d="M 294.469943 143.718399 
Q 246.435063 190.206959 252.743056 260.194039 
" style="fill: none; opacity: 0.7; stroke: #000000; stroke-width: 2; stroke-linecap: round"/>
    <path d="M 256.008771 251.867269 
L 252.743056 260.194039 
L 248.041069 252.585404 
" style="fill: none; opacity: 0.7; stroke: #000000; stroke-width: 2; stroke-linecap: round"/>
   </g>
   <g id="text_11">
    <g id="patch_12">
     <path d="M 253.133333 141.588354 
L 385.923289 141.588354 
Q 393.923289 141.588354 393.923289 133.588354 
L 393.923289 113.697689 
Q 393.923289 105.697689 385.923289 105.697689 
L 253.133333 105.697689 
Q 245.133333 105.697689 245.133333 113.697689 
L 245.133333 133.588354 
Q 245.133333 141.588354 253.133333 141.588354 
z
" style="fill: #ffffff; stroke: #000000; stroke-width: 1.5; stroke-linejoin: miter"/>
    </g>
    <!-- $f(x) \leq f(x + 1)$ -->
    <g transform="translate(253.133333 128.623711) scale(0.2 -0.2)">
     <defs>
      <path id="CMSY10-14" d="M 4320 3812 
C 4390 3844 4442 3876 4442 3952 
C 4442 4023 4390 4080 4314 4080 
C 4282 4080 4224 4055 4198 4042 
L 659 2372 
C 550 2320 531 2276 531 2224 
C 531 2167 570 2122 659 2084 
L 4198 420 
C 4282 375 4294 375 4314 375 
C 4384 375 4442 432 4442 503 
C 4442 560 4416 599 4307 650 
L 960 2224 
L 4320 3812 
z
M 4218 -891 
C 4326 -891 4442 -891 4442 -763 
C 4442 -635 4307 -635 4211 -635 
L 762 -635 
C 666 -635 531 -635 531 -763 
C 531 -891 646 -891 755 -891 
L 4218 -891 
z
" transform="scale(0.015625)"/>
     </defs>
     <use xlink:href="#CMMI12-66" transform="scale(0.996264)"/>
     <use xlink:href="#CMR17-28" transform="translate(58.720305 0) scale(0.996264)"/>
     <use xlink:href="#CMMI12-78" transform="translate(94.001073 0) scale(0.996264)"/>
     <use xlink:href="#CMR17-29" transform="translate(149.435132 0) scale(0.996264)"/>
     <use xlink:href="#CMSY10-14" transform="translate(212.389909 0) scale(0.996264)"/>
     <use xlink:href="#CMMI12-66" transform="translate(317.551385 0) scale(0.996264)"/>
     <use xlink:href="#CMR17-28" transform="translate(376.27169 0) scale(0.996264)"/>
     <use xlink:href="#CMMI12-78" transform="translate(411.552458 0) scale(0.996264)"/>
     <use xlink:href="#CMR17-2b" transform="translate(489.125724 0) scale(0.996264)"/>
     <use xlink:href="#CMR17-31" transform="translate(582.97972 0) scale(0.996264)"/>
     <use xlink:href="#CMR17-29" transform="translate(628.670197 0) scale(0.996264)"/>
    </g>
   </g>
   <g id="patch_13">
    <path d="M 305.480605 144.070569 
Q 279.063783 191.013043 300.004112 242.896687 
" style="fill: none; opacity: 0.7; stroke: #000000; stroke-width: 2; stroke-linecap: round"/>
    <path d="M 300.719249 233.98105 
L 300.004112 242.896687 
L 293.300685 236.975195 
" style="fill: none; opacity: 0.7; stroke: #000000; stroke-width: 2; stroke-linecap: round"/>
   </g>
   <g id="text_12">
    <g id="patch_14">
     <path d="M 253.133333 141.588354 
L 385.923289 141.588354 
Q 393.923289 141.588354 393.923289 133.588354 
L 393.923289 113.697689 
Q 393.923289 105.697689 385.923289 105.697689 
L 253.133333 105.697689 
Q 245.133333 105.697689 245.133333 113.697689 
L 245.133333 133.588354 
Q 245.133333 141.588354 253.133333 141.588354 
z
" style="fill: #ffffff; stroke: #000000; stroke-width: 1.5; stroke-linejoin: miter"/>
    </g>
    <!-- $f(x) \leq f(x + 1)$ -->
    <g transform="translate(253.133333 128.623711) scale(0.2 -0.2)">
     <use xlink:href="#CMMI12-66" transform="scale(0.996264)"/>
     <use xlink:href="#CMR17-28" transform="translate(58.720305 0) scale(0.996264)"/>
     <use xlink:href="#CMMI12-78" transform="translate(94.001073 0) scale(0.996264)"/>
     <use xlink:href="#CMR17-29" transform="translate(149.435132 0) scale(0.996264)"/>
     <use xlink:href="#CMSY10-14" transform="translate(212.389909 0) scale(0.996264)"/>
     <use xlink:href="#CMMI12-66" transform="translate(317.551385 0) scale(0.996264)"/>
     <use xlink:href="#CMR17-28" transform="translate(376.27169 0) scale(0.996264)"/>
     <use xlink:href="#CMMI12-78" transform="translate(411.552458 0) scale(0.996264)"/>
     <use xlink:href="#CMR17-2b" transform="translate(489.125724 0) scale(0.996264)"/>
     <use xlink:href="#CMR17-31" transform="translate(582.97972 0) scale(0.996264)"/>
     <use xlink:href="#CMR17-29" transform="translate(628.670197 0) scale(0.996264)"/>
    </g>
   </g>
  </g>
 </g>
 <defs>
  <clipPath id="pea952254f6">
   <rect x="10.8" y="18.064532" width="436.2" height="316.735468"/>
  </clipPath>
 </defs>
</svg>
