<svg xmlns:xlink="http://www.w3.org/1999/xlink" xmlns="http://www.w3.org/2000/svg" width="311.514949pt" height="286.076053pt" viewBox="0 0 311.514949 286.076053" version="1.1">
 
 <defs>
  <style type="text/css">*{stroke-linejoin: round; stroke-linecap: butt}</style>
 </defs>
 <g id="figure_1">
  <g id="patch_1">
   <path id="path_0" d="M 0 286.076053  L 311.514949 286.076053  L 311.514949 0  L 0 0  L 0 286.076053  z " style="fill: none; opacity: 0"/>
  </g>
  <g id="axes_1">
   <g id="patch_2">
    <path id="path_1" d="M 7.2 278.876053  L 279.825 278.876053  L 279.825 16.556315  L 7.2 16.556315  L 7.2 278.876053  z " style="fill: none; opacity: 0"/>
   </g>
   <g id="matplotlib.axis_1">
    <g id="xtick_1">
     <g id="line2d_1">
      <path id="path_2" d="M 75.35625 278.876053  L 75.35625 16.556315  " clip-path="url(#p77ee18b4b8)" style="fill: none; stroke-dasharray: 2.96,1.28; stroke-dashoffset: 0; stroke: #b0b0b0; stroke-opacity: 0.6; stroke-width: 0.8"/>
     </g>
     <g id="line2d_2">
      <defs>
       <path id="mfe469b25af" d="M 0 0  L 0 3.5  " style="stroke: #000000; stroke-width: 0.8"/>
      </defs>
      <g id="g_0">
       <use id="use_0" xlink:href="#mfe469b25af" x="75.35625" y="147.716184" style="stroke: #000000; stroke-width: 0.8"/>
      </g>
     </g>
     <g id="text_1">
      <!-- $\mathdefault{−1}$ -->
      <g id="g_1" transform="translate(63.038459 168.553181) scale(0.2 -0.2)">
       <defs>
        <path id="CMSY10-0" d="M 4218 1472  C 4326 1472 4442 1472 4442 1600  C 4442 1728 4326 1728 4218 1728  L 755 1728  C 646 1728 531 1728 531 1600  C 531 1472 646 1472 755 1472  L 4218 1472  z " transform="scale(0.015625)"/>
        <path id="CMR17-31" d="M 1702 4058  C 1702 4192 1696 4192 1606 4192  C 1357 3916 979 3827 621 3827  C 602 3827 570 3827 563 3808  C 557 3795 557 3782 557 3648  C 755 3648 1088 3686 1344 3839  L 1344 461  C 1344 236 1331 160 781 160  L 589 160  L 589 0  C 896 0 1216 0 1523 0  C 1830 0 2150 0 2458 0  L 2458 160  L 2266 160  C 1715 160 1702 230 1702 458  L 1702 4058  z " transform="scale(0.015625)"/>
       </defs>
       <use id="use_1" xlink:href="#CMSY10-0" transform="scale(0.996264)"/>
       <use id="use_2" xlink:href="#CMR17-31" transform="translate(77.487468 0) scale(0.996264)"/>
      </g>
     </g>
    </g>
    <g id="xtick_2">
     <g id="line2d_3">
      <path id="path_3" d="M 211.66875 278.876053  L 211.66875 16.556315  " clip-path="url(#p77ee18b4b8)" style="fill: none; stroke-dasharray: 2.96,1.28; stroke-dashoffset: 0; stroke: #b0b0b0; stroke-opacity: 0.6; stroke-width: 0.8"/>
     </g>
     <g id="line2d_4">
      <g id="g_2">
       <use id="use_3" xlink:href="#mfe469b25af" x="211.66875" y="147.716184" style="stroke: #000000; stroke-width: 0.8"/>
      </g>
     </g>
     <g id="text_2">
      <!-- $\mathdefault{1}$ -->
      <g id="g_3" transform="translate(207.099702 168.553181) scale(0.2 -0.2)">
       <use id="use_4" xlink:href="#CMR17-31" transform="scale(0.996264)"/>
      </g>
     </g>
    </g>
    <g id="text_3">
     <!-- $x$ -->
     <g id="g_4" transform="translate(268.738188 190.265811) scale(0.2 -0.2)">
      <defs>
       <path id="CMMI12-78" d="M 3034 2606  C 2829 2567 2752 2414 2752 2293  C 2752 2139 2874 2088 2963 2088  C 3155 2088 3290 2254 3290 2427  C 3290 2695 2982 2816 2714 2816  C 2323 2816 2106 2433 2048 2312  C 1901 2816 1504 2816 1389 2816  C 736 2816 390 1980 390 1839  C 390 1814 416 1782 461 1782  C 512 1782 525 1820 538 1846  C 755 2555 1184 2689 1370 2689  C 1658 2689 1715 2420 1715 2267  C 1715 2127 1677 1980 1600 1673  L 1382 798  C 1286 415 1101 64 762 64  C 730 64 570 64 435 147  C 666 192 717 383 717 460  C 717 588 621 664 499 664  C 346 664 179 530 179 326  C 179 57 480 -64 755 -64  C 1062 -64 1280 179 1414 441  C 1517 64 1837 -64 2074 -64  C 2726 -64 3072 773 3072 913  C 3072 945 3046 971 3008 971  C 2950 971 2944 939 2925 888  C 2752 326 2381 64 2093 64  C 1869 64 1747 230 1747 492  C 1747 632 1773 734 1875 1156  L 2099 2024  C 2195 2408 2413 2689 2707 2689  C 2720 2689 2899 2689 3034 2606  z " transform="scale(0.015625)"/>
      </defs>
      <use id="use_5" xlink:href="#CMMI12-78" transform="scale(0.996264)"/>
     </g>
    </g>
   </g>
   <g id="matplotlib.axis_2">
    <g id="ytick_1">
     <g id="line2d_5">
      <path id="path_4" d="M 7.2 213.296118  L 279.825 213.296118  " clip-path="url(#p77ee18b4b8)" style="fill: none; stroke-dasharray: 2.96,1.28; stroke-dashoffset: 0; stroke: #b0b0b0; stroke-opacity: 0.6; stroke-width: 0.8"/>
     </g>
     <g id="line2d_6">
      <defs>
       <path id="m28287224ee" d="M 0 0  L -3.5 0  " style="stroke: #000000; stroke-width: 0.8"/>
      </defs>
      <g id="g_5">
       <use id="use_6" xlink:href="#m28287224ee" x="143.5125" y="213.296118" style="stroke: #000000; stroke-width: 0.8"/>
      </g>
     </g>
     <g id="text_4">
      <!-- $\mathdefault{−1}$ -->
      <g id="g_6" transform="translate(111.876917 220.214617) scale(0.2 -0.2)">
       <use id="use_7" xlink:href="#CMSY10-0" transform="scale(0.996264)"/>
       <use id="use_8" xlink:href="#CMR17-31" transform="translate(77.487468 0) scale(0.996264)"/>
      </g>
     </g>
    </g>
    <g id="ytick_2">
     <g id="line2d_7">
      <path id="path_5" d="M 7.2 82.13625  L 279.825 82.13625  " clip-path="url(#p77ee18b4b8)" style="fill: none; stroke-dasharray: 2.96,1.28; stroke-dashoffset: 0; stroke: #b0b0b0; stroke-opacity: 0.6; stroke-width: 0.8"/>
     </g>
     <g id="line2d_8">
      <g id="g_7">
       <use id="use_9" xlink:href="#m28287224ee" x="143.5125" y="82.13625" style="stroke: #000000; stroke-width: 0.8"/>
      </g>
     </g>
     <g id="text_5">
      <!-- $\mathdefault{1}$ -->
      <g id="g_8" transform="translate(127.374405 89.054748) scale(0.2 -0.2)">
       <use id="use_10" xlink:href="#CMR17-31" transform="scale(0.996264)"/>
      </g>
     </g>
    </g>
    <g id="text_6">
     <!-- $y$ -->
     <g id="g_9" transform="translate(98.364083 12.680682) scale(0.2 -0.2)">
      <defs>
       <path id="CMMI12-79" d="M 1683 -700  C 1510 -939 1261 -1152 947 -1152  C 870 -1152 563 -1152 467 -889  C 486 -895 518 -895 531 -895  C 723 -895 851 -729 851 -582  C 851 -435 730 -384 634 -384  C 531 -384 307 -458 307 -759  C 307 -1071 582 -1286 947 -1286  C 1587 -1286 2234 -700 2413 6  L 3040 2485  C 3046 2517 3059 2556 3059 2594  C 3059 2689 2982 2753 2886 2753  C 2829 2753 2694 2727 2643 2535  L 2170 658  C 2138 543 2138 530 2086 460  C 1958 281 1747 64 1440 64  C 1082 64 1050 415 1050 588  C 1050 952 1222 1443 1395 1903  C 1466 2088 1504 2178 1504 2305  C 1504 2574 1312 2816 998 2816  C 410 2816 173 1890 173 1839  C 173 1814 198 1782 243 1782  C 301 1782 307 1807 333 1897  C 486 2433 730 2689 979 2689  C 1037 2689 1146 2689 1146 2478  C 1146 2312 1075 2127 979 1884  C 666 1047 666 837 666 683  C 666 77 1101 -64 1421 -64  C 1606 -64 1837 -6 2061 230  L 2067 224  C 1971 -147 1907 -392 1683 -700  z " transform="scale(0.015625)"/>
      </defs>
      <use id="use_11" xlink:href="#CMMI12-79" transform="scale(0.996264)"/>
     </g>
    </g>
   </g>
   <g id="line2d_9">
    <defs>
     <path id="mf43b4ea87f" d="M 3 0  L -3 -3  L -3 3  z " style="stroke: #000000; stroke-linejoin: miter"/>
    </defs>
    <g id="g_10">
     <use id="use_12" xlink:href="#mf43b4ea87f" x="279.825" y="147.716184" style="stroke: #000000; stroke-linejoin: miter"/>
    </g>
   </g>
   <g id="line2d_10">
    <defs>
     <path id="md0a77f038f" d="M 0 -3  L -3 3  L 3 3  z " style="stroke: #000000; stroke-linejoin: miter"/>
    </defs>
    <g id="g_11">
     <use id="use_13" xlink:href="#md0a77f038f" x="143.5125" y="16.556315" style="stroke: #000000; stroke-linejoin: miter"/>
    </g>
   </g>
   <g id="line2d_11">
    <defs>
     <path id="m0e2ff8c108" d="M 0 5  C 1.326016 5 2.597899 4.473168 3.535534 3.535534  C 4.473168 2.597899 5 1.326016 5 0  C 5 -1.326016 4.473168 -2.597899 3.535534 -3.535534  C 2.597899 -4.473168 1.326016 -5 0 -5  C -1.326016 -5 -2.597899 -4.473168 -3.535534 -3.535534  C -4.473168 -2.597899 -5 -1.326016 -5 0  C -5 1.326016 -4.473168 2.597899 -3.535534 3.535534  C -2.597899 4.473168 -1.326016 5 0 5  z " style="stroke: #000000; stroke-opacity: 0.8"/>
    </defs>
    <g id="g_12" clip-path="url(#p77ee18b4b8)">
     <use id="use_14" xlink:href="#m0e2ff8c108" x="211.66875" y="147.716184" style="fill-opacity: 0.8; stroke: #000000; stroke-opacity: 0.8"/>
    </g>
   </g>
   <g id="line2d_12">
    <path id="path_6" d="M 211.66875 147.716184  L 211.564648 144.092949  L 211.25266 140.480782  L 210.73374 136.890717  L 210.009472 133.333723  L 209.082069 129.820664  L 207.954365 126.362272  L 206.629803 122.969112  L 205.11243 119.65155  L 203.406882 116.419719  L 201.518368 113.283493  L 199.452658 110.252452  L 197.216062 107.335855  L 194.815413 104.542612  L 192.258043 101.881256  L 189.551765 99.359916  L 186.704846 96.986295  L 183.725984 94.767643  L 180.624277 92.710739  L 177.409201 90.821866  L 174.090577 89.106793  L 170.678544 87.570761  L 167.183524 86.218461  L 163.616193 85.054024  L 159.98745 84.081007  L 156.308379 83.302383  L 152.590219 82.720531  L 148.844328 82.337227  L 145.08215 82.153643  L 141.315177 82.17034  L 137.554916 82.387266  L 133.812854 82.803759  L 130.100423 83.418546  L 126.428963 84.22975  L 122.80969 85.234892  L 119.25366 86.430902  L 115.771736 87.814127  L 112.374554 89.38034  L 109.072493 91.124758  L 105.875639 93.042051  L 102.793758 95.126363  L 99.836265 97.371327  L 97.012193 99.770083  L 94.330171 102.315306  L 91.798392 104.999219  L 89.424588 107.813624  L 87.216013 110.749924  L 85.179412 113.799148  L 83.321006 116.951981  L 81.646474 120.198794  L 80.160931 123.529666  L 78.868913 126.934424  L 77.774369 130.402665  L 76.880642 133.923796  L 76.190462 137.48706  L 75.705938 141.081572  L 75.428549 144.696351  L 75.359142 148.320355  L 75.497931 151.942514  L 75.844491 155.551762  L 76.397763 159.137074  L 77.156057 162.687497  L 78.117057 166.192186  L 79.277827 169.640435  L 80.634821 173.021709  L 82.183894 176.32568  L 83.920313 179.542255  L 85.838775 182.661607  L 87.933419 185.674208  L 90.197845 188.570855  L 92.625138 191.342699  L 95.207881 193.981272  L 97.938185 196.478515  L 100.807709 198.826799  L 103.807688 201.01895  L 106.928957 203.048272  L 110.161982 204.908565  L 113.496886 206.594147  L 116.923482 208.099868  L 120.431302 209.421129  L 124.00963 210.553894  L 127.647536 211.494702  L 131.333906 212.24068  L 135.057479 212.789548  L 138.80688 213.13963  L 142.570657 213.289856  L 146.33731 213.239768  L 150.095334 212.989518  L 153.833249 212.539872  L 157.539637 211.892201  L 161.203174 211.048486  L 164.812669 210.011304  L 168.357097 208.783822  L 171.825629 207.36979  L 175.207671 205.773529  L 178.49289 203.999914  L 181.671251 202.054364  L 184.733045 199.942821  L 187.668918 197.671736  L 190.469902 195.248047  L 193.12744 192.679158  L 195.633415 189.972916  L 197.98017 187.137587  L 200.160538 184.181835  L 202.167857 181.114687  L 203.995996 177.945513  L 205.63937 174.683994  L 207.092959 171.340095  L 208.352322 167.924029  L 209.413612 164.446232  L 210.273588 160.917328  L 210.929621 157.348097  L 211.379709 153.749442  L 211.622476 150.132358  L 211.66875 147.716184  L 211.66875 147.716184  " clip-path="url(#p77ee18b4b8)" style="fill: none; stroke: #0072b2; stroke-width: 2.5; stroke-linecap: square"/>
   </g>
   <g id="line2d_13">
    <path id="path_7" d="M 163.959375 147.716184  L 163.959375 147.716184  " clip-path="url(#p77ee18b4b8)" style="fill: none; stroke: #dc5e8b; stroke-linecap: square"/>
   </g>
   <g id="line2d_14">
    <path id="path_8" d="M 143.5125 147.716184  L 211.66875 147.716184  " clip-path="url(#p77ee18b4b8)" style="fill: none; stroke: #dc5e8b; stroke-width: 2.5; stroke-linecap: square"/>
   </g>
   <g id="patch_3">
    <path id="path_9" d="M 143.5125 278.876053  L 143.5125 16.556315  " style="fill: none; stroke: #000000; stroke-width: 0.8; stroke-linejoin: miter; stroke-linecap: square"/>
   </g>
   <g id="patch_4">
    <path id="path_10" d="M 279.825 278.876053  L 279.825 16.556315  " style="fill: none"/>
   </g>
   <g id="patch_5">
    <path id="path_11" d="M 7.2 147.716184  L 279.825 147.716184  " style="fill: none; stroke: #000000; stroke-width: 0.8; stroke-linejoin: miter; stroke-linecap: square"/>
   </g>
   <g id="patch_6">
    <path id="path_12" d="M 7.2 16.556315  L 279.825 16.556315  " style="fill: none"/>
   </g>
   <g id="text_7">
    <!-- v = 0$^\circ$ -->
    <g id="g_13" transform="translate(199.296097 74.000944) scale(0.2 -0.2)">
     <defs>
      <path id="CMSS17-76" d="M 2675 2752  L 2176 2752  L 1747 1556  C 1613 1165 1421 627 1389 352  L 1382 352  C 1370 468 1318 634 1286 749  C 1248 890 1197 1056 1158 1172  L 595 2752  L 83 2752  L 1094 0  L 1664 0  L 2675 2752  z " transform="scale(0.015625)"/>
      <path id="CMSS17-3d" d="M 4147 2017  C 4243 2017 4339 2017 4339 2125  C 4339 2240 4230 2240 4122 2240  L 550 2240  C 442 2240 333 2240 333 2125  C 333 2017 429 2017 525 2017  L 4147 2017  z M 4122 896  C 4230 896 4339 896 4339 1011  C 4339 1119 4243 1119 4147 1119  L 525 1119  C 429 1119 333 1119 333 1011  C 333 896 442 896 550 896  L 4122 896  z " transform="scale(0.015625)"/>
      <path id="CMSS17-30" d="M 2758 2044  C 2758 2405 2752 3077 2490 3596  C 2227 4096 1805 4229 1504 4229  C 1069 4229 698 3975 506 3570  C 301 3146 243 2709 243 2044  C 243 1589 262 1031 493 543  C 755 5 1197 -128 1498 -128  C 1894 -128 2278 81 2496 518  C 2720 974 2758 1474 2758 2044  z M 1498 261  C 1011 261 864 811 819 995  C 742 1310 730 1614 730 2114  C 730 2506 730 2948 851 3297  C 998 3701 1254 3840 1498 3840  C 1971 3840 2125 3372 2176 3208  C 2272 2873 2272 2481 2272 2114  C 2272 1526 2272 261 1498 261  z " transform="scale(0.015625)"/>
      <path id="CMSY10-e" d="M 2842 1600  C 2842 2277 2272 2828 1600 2828  C 909 2828 352 2264 352 1600  C 352 930 909 372 1600 372  C 2272 372 2842 923 2842 1600  z M 1600 628  C 1043 628 608 1070 608 1600  C 608 2130 1050 2572 1600 2572  C 2131 2572 2586 2142 2586 1600  C 2586 1058 2131 628 1600 628  z " transform="scale(0.015625)"/>
     </defs>
     <use id="use_15" xlink:href="#CMSS17-76" transform="scale(0.996264)"/>
     <use id="use_16" xlink:href="#CMSS17-3d" transform="translate(74.229254 0) scale(0.996264)"/>
     <use id="use_17" xlink:href="#CMSS17-30" transform="translate(178.326302 0) scale(0.996264)"/>
     <use id="use_18" xlink:href="#CMSY10-e" transform="translate(225.169926 36.153639) scale(0.697382)"/>
    </g>
   </g>
   <g id="text_8">
    <!-- (1.00, 0.00) -->
    <g id="g_14" transform="translate(211.66875 136.193547) scale(0.2 -0.2)">
     <defs>
      <path id="CMSS17-28" d="M 1613 4768  C 1267 4417 474 3601 474 1588  C 474 -433 1267 -1243 1613 -1600  L 2003 -1600  C 1216 -784 960 357 960 1581  C 960 2798 1203 3946 2003 4768  L 1613 4768  z " transform="scale(0.015625)"/>
      <path id="CMSS17-31" d="M 1818 4288  L 1696 4288  C 1350 3940 947 3890 538 3890  L 538 3520  C 723 3520 1024 3520 1325 3667  L 1325 369  L 570 369  L 570 0  L 2573 0  L 2573 369  L 1818 369  L 1818 4288  z " transform="scale(0.015625)"/>
      <path id="CMSS17-2e" d="M 1088 510  L 576 510  L 576 0  L 1088 0  L 1088 510  z " transform="scale(0.015625)"/>
      <path id="CMSS17-2c" d="M 1088 6  L 1088 510  L 576 510  L 576 0  L 736 0  L 570 -800  L 826 -800  L 1088 6  z " transform="scale(0.015625)"/>
      <path id="CMSS17-29" d="M 723 -1600  C 1069 -1249 1862 -433 1862 1581  C 1862 3601 1069 4411 723 4768  L 333 4768  C 1120 3952 1376 2811 1376 1588  C 1376 370 1133 -778 333 -1600  L 723 -1600  z " transform="scale(0.015625)"/>
     </defs>
     <use id="use_19" xlink:href="#CMSS17-28" transform="scale(0.996264)"/>
     <use id="use_20" xlink:href="#CMSS17-31" transform="translate(36.433914 0) scale(0.996264)"/>
     <use id="use_21" xlink:href="#CMSS17-2e" transform="translate(83.277538 0) scale(0.996264)"/>
     <use id="use_22" xlink:href="#CMSS17-30" transform="translate(109.301743 0) scale(0.996264)"/>
     <use id="use_23" xlink:href="#CMSS17-30" transform="translate(156.145366 0) scale(0.996264)"/>
     <use id="use_24" xlink:href="#CMSS17-2c" transform="translate(202.98899 0) scale(0.996264)"/>
     <use id="use_25" xlink:href="#CMSS17-30" transform="translate(260.242307 0) scale(0.996264)"/>
     <use id="use_26" xlink:href="#CMSS17-2e" transform="translate(307.085931 0) scale(0.996264)"/>
     <use id="use_27" xlink:href="#CMSS17-30" transform="translate(333.110136 0) scale(0.996264)"/>
     <use id="use_28" xlink:href="#CMSS17-30" transform="translate(379.953759 0) scale(0.996264)"/>
     <use id="use_29" xlink:href="#CMSS17-29" transform="translate(426.797383 0) scale(0.996264)"/>
    </g>
   </g>
  </g>
 </g>
 <defs>
  <clipPath id="p77ee18b4b8">
   <rect id="rect_0" x="7.2" y="16.556315" width="272.625" height="262.319737"/>
  </clipPath>
 </defs>
</svg>