<?xml version='1.0' encoding='ASCII' standalone='yes'?>
<svg xmlns="http://www.w3.org/2000/svg" xmlns:xlink="http://www.w3.org/1999/xlink" version="1.1" width="1152.0px" viewBox="0 0 1152.0 432.00000000000006" height="432.00000000000006px">
  <g>
    <g transform="translate(0, 0) scale(1 1) translate(0, 0) scale(1.25 1.25) "><metadata>
  <rdf:RDF xmlns:dc="http://purl.org/dc/elements/1.1/" xmlns:cc="http://creativecommons.org/ns#" xmlns:rdf="http://www.w3.org/1999/02/22-rdf-syntax-ns#">
   <cc:Work>
    <dc:type rdf:resource="http://purl.org/dc/dcmitype/StillImage"/>
    <dc:date>2025-04-17T18:37:34.907861</dc:date>
    <dc:format>image/svg+xml</dc:format>
    <dc:creator>
     <cc:Agent>
      <dc:title>Matplotlib v3.9.1, https://matplotlib.org/</dc:title>
     </cc:Agent>
    </dc:creator>
   </cc:Work>
  </rdf:RDF>
 </metadata>
 <defs>
  <style type="text/css">*{stroke-linejoin: round; stroke-linecap: butt}</style>
 </defs>
 <g id="figure_1">
  <g id="patch_1">
   <path d="M 0 345.6  L 460.8 345.6  L 460.8 0  L 0 0  z " style="fill: #ffffff"/>
  </g>
  <g id="axes_1">
   <g id="patch_2">
    <path d="M 10.8 334.8  L 447 334.8  L 447 18.064532  L 10.8 18.064532  z " style="fill: #ffffff"/>
   </g>
   <g id="matplotlib.axis_1">
    <g id="text_1">
     <!-- $x$ -->
     <g transform="translate(438.13055 191.501854) scale(0.16 -0.16)">
      <defs>
       <path id="CMMI12-78" d="M 3034 2606  C 2829 2567 2752 2414 2752 2293  C 2752 2139 2874 2088 2963 2088  C 3155 2088 3290 2254 3290 2427  C 3290 2695 2982 2816 2714 2816  C 2323 2816 2106 2433 2048 2312  C 1901 2816 1504 2816 1389 2816  C 736 2816 390 1980 390 1839  C 390 1814 416 1782 461 1782  C 512 1782 525 1820 538 1846  C 755 2555 1184 2689 1370 2689  C 1658 2689 1715 2420 1715 2267  C 1715 2127 1677 1980 1600 1673  L 1382 798  C 1286 415 1101 64 762 64  C 730 64 570 64 435 147  C 666 192 717 383 717 460  C 717 588 621 664 499 664  C 346 664 179 530 179 326  C 179 57 480 -64 755 -64  C 1062 -64 1280 179 1414 441  C 1517 64 1837 -64 2074 -64  C 2726 -64 3072 773 3072 913  C 3072 945 3046 971 3008 971  C 2950 971 2944 939 2925 888  C 2752 326 2381 64 2093 64  C 1869 64 1747 230 1747 492  C 1747 632 1773 734 1875 1156  L 2099 2024  C 2195 2408 2413 2689 2707 2689  C 2720 2689 2899 2689 3034 2606  z " transform="scale(0.015625)"/>
      </defs>
      <use xlink:href="#CMMI12-78" transform="scale(0.996264)"/>
     </g>
    </g>
   </g>
   <g id="matplotlib.axis_2">
    <g id="text_2">
     <!-- $y$ -->
     <g transform="translate(86.429729 14.965056) scale(0.16 -0.16)">
      <defs>
       <path id="CMMI12-79" d="M 1683 -700  C 1510 -939 1261 -1152 947 -1152  C 870 -1152 563 -1152 467 -889  C 486 -895 518 -895 531 -895  C 723 -895 851 -729 851 -582  C 851 -435 730 -384 634 -384  C 531 -384 307 -458 307 -759  C 307 -1071 582 -1286 947 -1286  C 1587 -1286 2234 -700 2413 6  L 3040 2485  C 3046 2517 3059 2556 3059 2594  C 3059 2689 2982 2753 2886 2753  C 2829 2753 2694 2727 2643 2535  L 2170 658  C 2138 543 2138 530 2086 460  C 1958 281 1747 64 1440 64  C 1082 64 1050 415 1050 588  C 1050 952 1222 1443 1395 1903  C 1466 2088 1504 2178 1504 2305  C 1504 2574 1312 2816 998 2816  C 410 2816 173 1890 173 1839  C 173 1814 198 1782 243 1782  C 301 1782 307 1807 333 1897  C 486 2433 730 2689 979 2689  C 1037 2689 1146 2689 1146 2478  C 1146 2312 1075 2127 979 1884  C 666 1047 666 837 666 683  C 666 77 1101 -64 1421 -64  C 1606 -64 1837 -6 2061 230  L 2067 224  C 1971 -147 1907 -392 1683 -700  z " transform="scale(0.015625)"/>
      </defs>
      <use xlink:href="#CMMI12-79" transform="scale(0.996264)"/>
     </g>
    </g>
   </g>
   <g id="line2d_1">
    <defs>
     <path id="md9c5433385" d="M 3 0  L -3 -3  L -3 3  z " style="stroke: #000000; stroke-linejoin: miter"/>
    </defs>
    <g>
     <use xlink:href="#md9c5433385" x="447" y="176.432266" style="stroke: #000000; stroke-linejoin: miter"/>
    </g>
   </g>
   <g id="line2d_2">
    <defs>
     <path id="m0948c030b5" d="M 0 -3  L -3 3  L 3 3  z " style="stroke: #000000; stroke-linejoin: miter"/>
    </defs>
    <g>
     <use xlink:href="#m0948c030b5" x="98.04" y="18.064532" style="stroke: #000000; stroke-linejoin: miter"/>
    </g>
   </g>
   <g id="line2d_3">
    <path d="M 61.024538 -1  L 66.829597 16.293121  L 72.581685 32.73677  L 78.227253 48.206441  L 83.7663 62.739674  L 89.198828 76.373301  L 94.524835 89.143445  L 99.744322 101.085522  L 104.857289 112.234239  L 109.863736 122.623594  L 114.763663 132.286878  L 119.55707 141.256672  L 124.243956 149.56485  L 128.824322 157.242579  L 133.298168 164.320314  L 137.772015 170.981566  L 142.139341 177.08249  L 146.400147 182.652126  L 150.554432 187.718807  L 154.602198 192.310157  L 158.543443 196.45309  L 162.484689 200.272801  L 166.319414 203.679038  L 170.047619 206.697302  L 173.669304 209.352382  L 177.290989 211.734529  L 180.806154 213.785602  L 184.321319 215.579561  L 187.729963 217.073612  L 191.138608 218.325895  L 194.440733 219.308491  L 197.742857 220.064193  L 201.044982 220.593001  L 204.347106 220.894916  L 207.649231 220.969938  L 210.951355 220.818065  L 214.25348 220.439299  L 217.555604 219.83364  L 220.857729 219.001086  L 224.159853 217.94164  L 227.568498 216.610027  L 230.977143 215.036646  L 234.385788 213.221497  L 237.900952 211.096405  L 241.416117 208.714199  L 245.037802 205.990886  L 248.766007 202.902382  L 252.494212 199.524654  L 256.328938 195.748681  L 260.270183 191.548965  L 264.211429 187.026026  L 268.259194 182.044401  L 272.41348 176.577173  L 276.674286 170.59672  L 281.041612 164.074709  L 285.515458 156.9821  L 289.989304 149.473007  L 294.56967 141.353651  L 299.256557 132.593573  L 304.049963 123.16161  L 308.94989 113.025887  L 313.956337 102.153823  L 319.069304 90.512126  L 324.288791 78.066798  L 329.614799 64.783133  L 335.047326 50.625715  L 340.586374 35.55842  L 346.231941 19.544417  L 351.984029 2.546165  L 353.155472 -1  L 353.155472 -1  " clip-path="url(#pe6f3db4a8a)" style="fill: none; stroke: #0072b2; stroke-opacity: 0.9; stroke-width: 2.5; stroke-linecap: square"/>
   </g>
   <g id="line2d_4">
    <defs>
     <path id="m65c171495b" d="M 0 5  C 1.326016 5 2.597899 4.473168 3.535534 3.535534  C 4.473168 2.597899 5 1.326016 5 0  C 5 -1.326016 4.473168 -2.597899 3.535534 -3.535534  C 2.597899 -4.473168 1.326016 -5 0 -5  C -1.326016 -5 -2.597899 -4.473168 -3.535534 -3.535534  C -4.473168 -2.597899 -5 -1.326016 -5 0  C -5 1.326016 -4.473168 2.597899 -3.535534 3.535534  C -2.597899 4.473168 -1.326016 5 0 5  z " style="stroke: #000000; stroke-opacity: 0.7"/>
    </defs>
    <g clip-path="url(#pe6f3db4a8a)">
     <use xlink:href="#m65c171495b" x="207.09" y="220.973191" style="fill-opacity: 0.7; stroke: #000000; stroke-opacity: 0.7"/>
    </g>
   </g>
   <g id="patch_3">
    <path d="M 98.04 334.8  L 98.04 18.064532  " style="fill: none; stroke: #000000; stroke-width: 0.8; stroke-linejoin: miter; stroke-linecap: square"/>
   </g>
   <g id="patch_4">
    <path d="M 447 334.8  L 447 18.064532  " style="fill: none"/>
   </g>
   <g id="patch_5">
    <path d="M 10.8 176.432266  L 447 176.432266  " style="fill: none; stroke: #000000; stroke-width: 0.8; stroke-linejoin: miter; stroke-linecap: square"/>
   </g>
   <g id="patch_6">
    <path d="M 10.8 18.064532  L 447 18.064532  " style="fill: none"/>
   </g>
   <g id="patch_7">
    <path d="M 255.307504 287.23882  Q 222.426934 263.009826 208.531186 224.955755  " style="fill: none; opacity: 0.7; stroke: #000000; stroke-width: 2; stroke-linecap: round"/>
    <path d="M 207.416564 234.731112  L 208.531186 224.955755  L 215.682699 231.712667  " style="fill: none; opacity: 0.7; stroke: #000000; stroke-width: 2; stroke-linecap: round"/>
   </g>
   <g id="text_3">
    <!-- Bunnpunkt -->
    <g transform="translate(228.9 305.635811) scale(0.22 -0.22)">
     <defs>
      <path id="CMSS17-42" d="M 570 4416  L 570 0  L 2163 0  C 3034 0 3667 574 3667 1200  C 3667 1685 3251 2176 2502 2317  C 3334 2558 3501 3040 3501 3313  C 3501 3883 2874 4416 1997 4416  L 570 4416  z M 1088 2496  L 1088 4059  L 1824 4059  C 2483 4059 3002 3724 3002 3306  C 3002 2926 2592 2496 1766 2496  L 1088 2496  z M 1088 357  L 1088 2107  L 1939 2107  C 2630 2107 3162 1679 3162 1206  C 3162 772 2694 357 1984 357  L 1088 357  z " transform="scale(0.015625)"/>
      <path id="CMSS17-75" d="M 2618 2739  L 2131 2739  L 2131 972  C 2131 498 1786 306 1421 306  C 998 306 960 447 960 709  L 960 2739  L 474 2739  L 474 678  C 474 179 646 -64 1088 -64  C 1306 -64 1798 -13 2144 306  L 2144 0  L 2618 0  L 2618 2739  z " transform="scale(0.015625)"/>
      <path id="CMSS17-6e" d="M 2618 1877  C 2618 2283 2522 2816 1798 2816  C 1389 2816 1120 2606 941 2389  L 941 2758  L 474 2758  L 474 0  L 960 0  L 960 1559  C 960 1964 1114 2428 1549 2428  C 2112 2428 2131 2048 2131 1829  L 2131 0  L 2618 0  L 2618 1877  z " transform="scale(0.015625)"/>
      <path id="CMSS17-70" d="M 966 333  C 1178 129 1466 -5 1773 -5  C 2368 -5 2880 603 2880 1412  C 2880 2159 2496 2816 1946 2816  C 1626 2816 1242 2702 954 2472  L 954 2765  L 480 2765  L 480 -1216  L 966 -1216  L 966 333  z M 966 2100  C 1018 2176 1235 2415 1587 2415  C 2035 2415 2394 1960 2394 1412  C 2394 787 1958 384 1530 384  C 1402 384 1267 415 1139 523  C 966 674 966 768 966 857  L 966 2100  z " transform="scale(0.015625)"/>
      <path id="CMSS17-6b" d="M 1696 1688  L 2688 2739  L 2074 2739  L 954 1554  L 954 4416  L 480 4416  L 480 0  L 947 0  L 947 892  L 1376 1344  L 2278 0  L 2822 0  L 1696 1688  z " transform="scale(0.015625)"/>
      <path id="CMSS17-74" d="M 1069 2368  L 1901 2368  L 1901 2737  L 1069 2737  L 1069 3520  L 614 3520  L 614 2737  L 109 2737  L 109 2368  L 602 2368  L 602 749  C 602 384 685 -64 1107 -64  C 1427 -64 1722 25 2003 172  L 1901 548  C 1747 414 1562 337 1363 337  C 1082 337 1069 696 1069 856  L 1069 2368  z " transform="scale(0.015625)"/>
     </defs>
     <use xlink:href="#CMSS17-42" transform="scale(0.996264)"/>
     <use xlink:href="#CMSS17-75" transform="translate(62.33804 0) scale(0.996264)"/>
     <use xlink:href="#CMSS17-6e" transform="translate(110.542983 0) scale(0.996264)"/>
     <use xlink:href="#CMSS17-6e" transform="translate(158.747926 0) scale(0.996264)"/>
     <use xlink:href="#CMSS17-70" transform="translate(206.95287 0) scale(0.996264)"/>
     <use xlink:href="#CMSS17-75" transform="translate(255.157813 0) scale(0.996264)"/>
     <use xlink:href="#CMSS17-6e" transform="translate(303.362756 0) scale(0.996264)"/>
     <use xlink:href="#CMSS17-6b" transform="translate(351.567699 0) scale(0.996264)"/>
     <use xlink:href="#CMSS17-74" transform="translate(397.170188 0) scale(0.996264)"/>
    </g>
   </g>
  </g>
 </g>
 <defs>
  <clipPath id="pe6f3db4a8a">
   <rect x="10.8" y="18.064532" width="436.2" height="316.735468"/>
  </clipPath>
 </defs>
</g>
    <g transform="translate(576.0, 0) scale(1 1) translate(0, 0) scale(1.25 1.25) "><metadata>
  <rdf:RDF xmlns:dc="http://purl.org/dc/elements/1.1/" xmlns:cc="http://creativecommons.org/ns#" xmlns:rdf="http://www.w3.org/1999/02/22-rdf-syntax-ns#">
   <cc:Work>
    <dc:type rdf:resource="http://purl.org/dc/dcmitype/StillImage"/>
    <dc:date>2025-04-17T18:37:41.077093</dc:date>
    <dc:format>image/svg+xml</dc:format>
    <dc:creator>
     <cc:Agent>
      <dc:title>Matplotlib v3.9.1, https://matplotlib.org/</dc:title>
     </cc:Agent>
    </dc:creator>
   </cc:Work>
  </rdf:RDF>
 </metadata>
 <defs>
  <style type="text/css">*{stroke-linejoin: round; stroke-linecap: butt}</style>
 </defs>
 <g id="figure_1">
  <g id="patch_1">
   <path d="M 0 345.6  L 460.8 345.6  L 460.8 0  L 0 0  z " style="fill: #ffffff"/>
  </g>
  <g id="axes_1">
   <g id="patch_2">
    <path d="M 10.8 334.8  L 447 334.8  L 447 18.064532  L 10.8 18.064532  z " style="fill: #ffffff"/>
   </g>
   <g id="matplotlib.axis_1">
    <g id="text_1">
     <!-- $x$ -->
     <g transform="translate(438.13055 191.501854) scale(0.16 -0.16)">
      <defs>
       <path id="CMMI12-78" d="M 3034 2606  C 2829 2567 2752 2414 2752 2293  C 2752 2139 2874 2088 2963 2088  C 3155 2088 3290 2254 3290 2427  C 3290 2695 2982 2816 2714 2816  C 2323 2816 2106 2433 2048 2312  C 1901 2816 1504 2816 1389 2816  C 736 2816 390 1980 390 1839  C 390 1814 416 1782 461 1782  C 512 1782 525 1820 538 1846  C 755 2555 1184 2689 1370 2689  C 1658 2689 1715 2420 1715 2267  C 1715 2127 1677 1980 1600 1673  L 1382 798  C 1286 415 1101 64 762 64  C 730 64 570 64 435 147  C 666 192 717 383 717 460  C 717 588 621 664 499 664  C 346 664 179 530 179 326  C 179 57 480 -64 755 -64  C 1062 -64 1280 179 1414 441  C 1517 64 1837 -64 2074 -64  C 2726 -64 3072 773 3072 913  C 3072 945 3046 971 3008 971  C 2950 971 2944 939 2925 888  C 2752 326 2381 64 2093 64  C 1869 64 1747 230 1747 492  C 1747 632 1773 734 1875 1156  L 2099 2024  C 2195 2408 2413 2689 2707 2689  C 2720 2689 2899 2689 3034 2606  z " transform="scale(0.015625)"/>
      </defs>
      <use xlink:href="#CMMI12-78" transform="scale(0.996264)"/>
     </g>
    </g>
   </g>
   <g id="matplotlib.axis_2">
    <g id="text_2">
     <!-- $y$ -->
     <g transform="translate(217.289729 14.965056) scale(0.16 -0.16)">
      <defs>
       <path id="CMMI12-79" d="M 1683 -700  C 1510 -939 1261 -1152 947 -1152  C 870 -1152 563 -1152 467 -889  C 486 -895 518 -895 531 -895  C 723 -895 851 -729 851 -582  C 851 -435 730 -384 634 -384  C 531 -384 307 -458 307 -759  C 307 -1071 582 -1286 947 -1286  C 1587 -1286 2234 -700 2413 6  L 3040 2485  C 3046 2517 3059 2556 3059 2594  C 3059 2689 2982 2753 2886 2753  C 2829 2753 2694 2727 2643 2535  L 2170 658  C 2138 543 2138 530 2086 460  C 1958 281 1747 64 1440 64  C 1082 64 1050 415 1050 588  C 1050 952 1222 1443 1395 1903  C 1466 2088 1504 2178 1504 2305  C 1504 2574 1312 2816 998 2816  C 410 2816 173 1890 173 1839  C 173 1814 198 1782 243 1782  C 301 1782 307 1807 333 1897  C 486 2433 730 2689 979 2689  C 1037 2689 1146 2689 1146 2478  C 1146 2312 1075 2127 979 1884  C 666 1047 666 837 666 683  C 666 77 1101 -64 1421 -64  C 1606 -64 1837 -6 2061 230  L 2067 224  C 1971 -147 1907 -392 1683 -700  z " transform="scale(0.015625)"/>
      </defs>
      <use xlink:href="#CMMI12-79" transform="scale(0.996264)"/>
     </g>
    </g>
   </g>
   <g id="line2d_1">
    <defs>
     <path id="mb3f355c1fa" d="M 3 0  L -3 -3  L -3 3  z " style="stroke: #000000; stroke-linejoin: miter"/>
    </defs>
    <g>
     <use xlink:href="#mb3f355c1fa" x="447" y="176.432266" style="stroke: #000000; stroke-linejoin: miter"/>
    </g>
   </g>
   <g id="line2d_2">
    <defs>
     <path id="meb9c4414a9" d="M 0 -3  L -3 3  L 3 3  z " style="stroke: #000000; stroke-linejoin: miter"/>
    </defs>
    <g>
     <use xlink:href="#meb9c4414a9" x="228.9" y="18.064532" style="stroke: #000000; stroke-linejoin: miter"/>
    </g>
   </g>
   <g id="line2d_3">
    <path d="M 127.362141 346.6  L 132.552527 328.385351  L 137.665495 311.231684  L 142.671941 295.194403  L 147.571868 280.225572  L 152.365275 266.278273  L 157.052161 253.306606  L 161.632527 241.265695  L 166.106374 230.11168  L 170.4737 219.801723  L 174.734505 210.294007  L 178.888791 201.547733  L 183.043077 193.318577  L 187.090842 185.797826  L 191.032088 178.94672  L 194.866813 172.727521  L 198.595018 167.10351  L 202.216703 162.038989  L 205.731868 157.49928  L 209.140513 153.450724  L 212.442637 149.860681  L 215.744762 146.597365  L 218.940366 143.750405  L 222.029451 141.289202  L 225.118535 139.113927  L 228.101099 137.284971  L 230.977143 135.773774  L 233.853187 134.510428  L 236.729231 133.494931  L 239.498755 132.751296  L 242.268278 132.237492  L 245.037802 131.953519  L 247.807326 131.899376  L 250.57685 132.075064  L 253.346374 132.480582  L 256.115897 133.115932  L 258.885421 133.981112  L 261.654945 135.076123  L 264.530989 136.456509  L 267.407033 138.084746  L 270.389597 140.035077  L 273.372161 142.251958  L 276.461245 144.829012  L 279.65685 147.795817  L 282.852454 151.06861  L 286.154579 154.771953  L 289.563223 158.937465  L 293.078388 163.597784  L 296.593553 168.628349  L 300.215238 174.198599  L 303.943443 180.343213  L 307.778168 187.097891  L 311.719414 194.49935  L 315.767179 202.585328  L 319.921465 211.394585  L 324.182271 220.966899  L 328.549597 231.343068  L 333.023443 242.56491  L 337.60381 254.675264  L 342.184176 267.414252  L 346.871062 281.10023  L 351.664469 295.778075  L 356.564396 311.493686  L 361.570842 328.29398  L 366.68381 346.226896  L 366.787867 346.6  L 366.787867 346.6  " clip-path="url(#p85066082cc)" style="fill: none; stroke: #0072b2; stroke-opacity: 0.9; stroke-width: 2.5; stroke-linecap: square"/>
   </g>
   <g id="line2d_4">
    <defs>
     <path id="m77e6949554" d="M 0 5  C 1.326016 5 2.597899 4.473168 3.535534 3.535534  C 4.473168 2.597899 5 1.326016 5 0  C 5 -1.326016 4.473168 -2.597899 3.535534 -3.535534  C 2.597899 -4.473168 1.326016 -5 0 -5  C -1.326016 -5 -2.597899 -4.473168 -3.535534 -3.535534  C -4.473168 -2.597899 -5 -1.326016 -5 0  C -5 1.326016 -4.473168 2.597899 -3.535534 3.535534  C -2.597899 4.473168 -1.326016 5 0 5  z " style="stroke: #000000; stroke-opacity: 0.7"/>
    </defs>
    <g clip-path="url(#p85066082cc)">
     <use xlink:href="#m77e6949554" x="247.075" y="131.891341" style="fill-opacity: 0.7; stroke: #000000; stroke-opacity: 0.7"/>
    </g>
   </g>
   <g id="patch_3">
    <path d="M 228.9 334.8  L 228.9 18.064532  " style="fill: none; stroke: #000000; stroke-width: 0.8; stroke-linejoin: miter; stroke-linecap: square"/>
   </g>
   <g id="patch_4">
    <path d="M 447 334.8  L 447 18.064532  " style="fill: none"/>
   </g>
   <g id="patch_5">
    <path d="M 10.8 176.432266  L 447 176.432266  " style="fill: none; stroke: #000000; stroke-width: 0.8; stroke-linejoin: miter; stroke-linecap: square"/>
   </g>
   <g id="patch_6">
    <path d="M 10.8 18.064532  L 447 18.064532  " style="fill: none"/>
   </g>
   <g id="patch_7">
    <path d="M 283.582712 85.406522  Q 260.299962 102.295844 248.792413 128.015037  " style="fill: none; opacity: 0.7; stroke: #000000; stroke-width: 2; stroke-linecap: round"/>
    <path d="M 256.402757 121.77944  L 248.792413 128.015037  L 248.370142 118.185404  " style="fill: none; opacity: 0.7; stroke: #000000; stroke-width: 2; stroke-linecap: round"/>
   </g>
   <g id="text_3">
    <!-- Toppunkt -->
    <g transform="translate(265.25 77.982194) scale(0.22 -0.22)">
     <defs>
      <path id="CMSS17-54" d="M 2317 3968  L 2848 3968  C 2925 3968 3002 3968 3078 3968  L 3878 3968  L 3878 4376  L 218 4376  L 218 3968  L 1018 3968  C 1094 3968 1171 3968 1248 3968  L 1779 3968  L 1779 -32  L 2317 -32  L 2317 3968  z " transform="scale(0.015625)"/>
      <path id="CMSS17-6f" d="M 2829 1356  C 2829 2176 2221 2816 1504 2816  C 768 2816 173 2157 173 1356  C 173 544 787 -64 1498 -64  C 2227 -64 2829 563 2829 1356  z M 1504 337  C 1050 337 659 709 659 1408  C 659 2151 1114 2427 1498 2427  C 1914 2427 2342 2126 2342 1408  C 2342 683 1926 337 1504 337  z " transform="scale(0.015625)"/>
      <path id="CMSS17-70" d="M 966 333  C 1178 129 1466 -5 1773 -5  C 2368 -5 2880 603 2880 1412  C 2880 2159 2496 2816 1946 2816  C 1626 2816 1242 2702 954 2472  L 954 2765  L 480 2765  L 480 -1216  L 966 -1216  L 966 333  z M 966 2100  C 1018 2176 1235 2415 1587 2415  C 2035 2415 2394 1960 2394 1412  C 2394 787 1958 384 1530 384  C 1402 384 1267 415 1139 523  C 966 674 966 768 966 857  L 966 2100  z " transform="scale(0.015625)"/>
      <path id="CMSS17-75" d="M 2618 2739  L 2131 2739  L 2131 972  C 2131 498 1786 306 1421 306  C 998 306 960 447 960 709  L 960 2739  L 474 2739  L 474 678  C 474 179 646 -64 1088 -64  C 1306 -64 1798 -13 2144 306  L 2144 0  L 2618 0  L 2618 2739  z " transform="scale(0.015625)"/>
      <path id="CMSS17-6e" d="M 2618 1877  C 2618 2283 2522 2816 1798 2816  C 1389 2816 1120 2606 941 2389  L 941 2758  L 474 2758  L 474 0  L 960 0  L 960 1559  C 960 1964 1114 2428 1549 2428  C 2112 2428 2131 2048 2131 1829  L 2131 0  L 2618 0  L 2618 1877  z " transform="scale(0.015625)"/>
      <path id="CMSS17-6b" d="M 1696 1688  L 2688 2739  L 2074 2739  L 954 1554  L 954 4416  L 480 4416  L 480 0  L 947 0  L 947 892  L 1376 1344  L 2278 0  L 2822 0  L 1696 1688  z " transform="scale(0.015625)"/>
      <path id="CMSS17-74" d="M 1069 2368  L 1901 2368  L 1901 2737  L 1069 2737  L 1069 3520  L 614 3520  L 614 2737  L 109 2737  L 109 2368  L 602 2368  L 602 749  C 602 384 685 -64 1107 -64  C 1427 -64 1722 25 2003 172  L 1901 548  C 1747 414 1562 337 1363 337  C 1082 337 1069 696 1069 856  L 1069 2368  z " transform="scale(0.015625)"/>
     </defs>
     <use xlink:href="#CMSS17-54" transform="scale(0.996264)"/>
     <use xlink:href="#CMSS17-6f" transform="translate(56.012199 0) scale(0.996264)"/>
     <use xlink:href="#CMSS17-70" transform="translate(102.855822 0) scale(0.996264)"/>
     <use xlink:href="#CMSS17-70" transform="translate(151.060765 0) scale(0.996264)"/>
     <use xlink:href="#CMSS17-75" transform="translate(199.265708 0) scale(0.996264)"/>
     <use xlink:href="#CMSS17-6e" transform="translate(247.470651 0) scale(0.996264)"/>
     <use xlink:href="#CMSS17-6b" transform="translate(295.675595 0) scale(0.996264)"/>
     <use xlink:href="#CMSS17-74" transform="translate(341.278084 0) scale(0.996264)"/>
    </g>
   </g>
  </g>
 </g>
 <defs>
  <clipPath id="p85066082cc">
   <rect x="10.8" y="18.064532" width="436.2" height="316.735468"/>
  </clipPath>
 </defs>
</g>
  </g>
</svg>
