<svg xmlns:xlink="http://www.w3.org/1999/xlink" xmlns="http://www.w3.org/2000/svg" viewBox="0 0 460.8 345.6" version="1.1" class="graph-inline-svg" role="img" aria-label="Tilpasset figur">
 
 <defs>
  <style type="text/css">*{stroke-linejoin: round; stroke-linecap: butt}</style>
 </defs>
 <g id="figure_1">
  <g id="patch_1">
   <path d="M 0 345.6  L 460.8 345.6  L 460.8 0  L 0 0  L 0 345.6  z " style="fill: none" id="mb_auto_path_0"/>
  </g>
  <g id="axes_1">
   <g id="patch_2">
    <path d="M 10.8 334.8  L 447 334.8  L 447 20.016315  L 10.8 20.016315  L 10.8 334.8  z " style="fill: none" id="mb_auto_path_1"/>
   </g>
   <g id="matplotlib.axis_1">
    <g id="xtick_1">
     <g id="line2d_1">
      <path d="M 47.15 334.8  L 47.15 20.016315  " clip-path="url(#pcac5e8b19f)" style="fill: none; stroke-dasharray: 2.96,1.28; stroke-dashoffset: 0; stroke: #b0b0b0; stroke-opacity: 0.6; stroke-width: 0.8" id="mb_auto_path_2"/>
     </g>
     <g id="line2d_2">
      <defs>
       <path id="m6c8d9eb547" d="M 0 0  L 0 3.5  " style="stroke: #000000; stroke-width: 0.8"/>
      </defs>
      <g id="mb_auto_g_0">
       <use xlink:href="#m6c8d9eb547" x="47.15" y="177.408158" style="stroke: #000000; stroke-width: 0.8" id="mb_auto_use_0"/>
      </g>
     </g>
     <g id="text_1">
      <!-- $\mathdefault{−5}$ -->
      <g transform="translate(34.832209 198.245154) scale(0.2 -0.2)" id="mb_auto_g_1">
       <defs>
        <path id="CMSY10-0" d="M 4218 1472  C 4326 1472 4442 1472 4442 1600  C 4442 1728 4326 1728 4218 1728  L 755 1728  C 646 1728 531 1728 531 1600  C 531 1472 646 1472 755 1472  L 4218 1472  z " transform="scale(0.015625)"/>
        <path id="CMR17-35" d="M 730 3692  C 794 3666 1056 3584 1325 3584  C 1920 3584 2246 3911 2432 4100  C 2432 4157 2432 4192 2394 4192  C 2387 4192 2374 4192 2323 4163  C 2099 4058 1837 3973 1517 3973  C 1325 3973 1037 3999 723 4139  C 653 4171 640 4171 634 4171  C 602 4171 595 4164 595 4037  L 595 2203  C 595 2089 595 2057 659 2057  C 691 2057 704 2070 736 2114  C 941 2401 1222 2522 1542 2522  C 1766 2522 2246 2382 2246 1289  C 2246 1085 2246 715 2054 421  C 1894 159 1645 25 1370 25  C 947 25 518 320 403 814  C 429 807 480 795 506 795  C 589 795 749 840 749 1038  C 749 1210 627 1280 506 1280  C 358 1280 262 1190 262 1011  C 262 454 704 -128 1382 -128  C 2042 -128 2669 440 2669 1264  C 2669 2030 2170 2624 1549 2624  C 1222 2624 947 2503 730 2274  L 730 3692  z " transform="scale(0.015625)"/>
       </defs>
       <use xlink:href="#CMSY10-0" transform="scale(0.996264)" id="mb_auto_use_1"/>
       <use xlink:href="#CMR17-35" transform="translate(77.487468 0) scale(0.996264)" id="mb_auto_use_2"/>
      </g>
     </g>
    </g>
    <g id="xtick_2">
     <g id="line2d_3">
      <path d="M 83.5 334.8  L 83.5 20.016315  " clip-path="url(#pcac5e8b19f)" style="fill: none; stroke-dasharray: 2.96,1.28; stroke-dashoffset: 0; stroke: #b0b0b0; stroke-opacity: 0.6; stroke-width: 0.8" id="mb_auto_path_3"/>
     </g>
     <g id="line2d_4">
      <g id="mb_auto_g_2">
       <use xlink:href="#m6c8d9eb547" x="83.5" y="177.408158" style="stroke: #000000; stroke-width: 0.8" id="mb_auto_use_3"/>
      </g>
     </g>
     <g id="text_2">
      <!-- $\mathdefault{−4}$ -->
      <g transform="translate(71.182209 198.245154) scale(0.2 -0.2)" id="mb_auto_g_3">
       <defs>
        <path id="CMR17-34" d="M 2150 4122  C 2150 4256 2144 4256 2029 4256  L 128 1254  L 128 1088  L 1779 1088  L 1779 457  C 1779 224 1766 160 1318 160  L 1197 160  L 1197 0  C 1402 0 1747 0 1965 0  C 2182 0 2528 0 2733 0  L 2733 160  L 2611 160  C 2163 160 2150 224 2150 457  L 2150 1088  L 2803 1088  L 2803 1254  L 2150 1254  L 2150 4122  z M 1798 3703  L 1798 1254  L 256 1254  L 1798 3703  z " transform="scale(0.015625)"/>
       </defs>
       <use xlink:href="#CMSY10-0" transform="scale(0.996264)" id="mb_auto_use_4"/>
       <use xlink:href="#CMR17-34" transform="translate(77.487468 0) scale(0.996264)" id="mb_auto_use_5"/>
      </g>
     </g>
    </g>
    <g id="xtick_3">
     <g id="line2d_5">
      <path d="M 119.85 334.8  L 119.85 20.016315  " clip-path="url(#pcac5e8b19f)" style="fill: none; stroke-dasharray: 2.96,1.28; stroke-dashoffset: 0; stroke: #b0b0b0; stroke-opacity: 0.6; stroke-width: 0.8" id="mb_auto_path_4"/>
     </g>
     <g id="line2d_6">
      <g id="mb_auto_g_4">
       <use xlink:href="#m6c8d9eb547" x="119.85" y="177.408158" style="stroke: #000000; stroke-width: 0.8" id="mb_auto_use_6"/>
      </g>
     </g>
     <g id="text_3">
      <!-- $\mathdefault{−3}$ -->
      <g transform="translate(107.532209 198.245154) scale(0.2 -0.2)" id="mb_auto_g_5">
       <defs>
        <path id="CMR17-33" d="M 1414 2157  C 1984 2157 2234 1662 2234 1090  C 2234 320 1824 25 1453 25  C 1114 25 563 194 390 693  C 422 680 454 680 486 680  C 640 680 755 782 755 948  C 755 1133 614 1216 486 1216  C 378 1216 211 1165 211 926  C 211 335 787 -128 1466 -128  C 2176 -128 2720 430 2720 1085  C 2720 1707 2208 2157 1600 2227  C 2086 2328 2554 2756 2554 3329  C 2554 3820 2048 4179 1472 4179  C 890 4179 378 3829 378 3329  C 378 3110 544 3072 627 3072  C 762 3072 877 3155 877 3321  C 877 3486 762 3569 627 3569  C 602 3569 570 3569 544 3557  C 730 3959 1235 4032 1459 4032  C 1683 4032 2106 3925 2106 3320  C 2106 3143 2080 2828 1862 2550  C 1670 2304 1453 2304 1242 2284  C 1210 2284 1062 2269 1037 2269  C 992 2263 966 2257 966 2208  C 966 2163 973 2157 1101 2157  L 1414 2157  z " transform="scale(0.015625)"/>
       </defs>
       <use xlink:href="#CMSY10-0" transform="scale(0.996264)" id="mb_auto_use_7"/>
       <use xlink:href="#CMR17-33" transform="translate(77.487468 0) scale(0.996264)" id="mb_auto_use_8"/>
      </g>
     </g>
    </g>
    <g id="xtick_4">
     <g id="line2d_7">
      <path d="M 156.2 334.8  L 156.2 20.016315  " clip-path="url(#pcac5e8b19f)" style="fill: none; stroke-dasharray: 2.96,1.28; stroke-dashoffset: 0; stroke: #b0b0b0; stroke-opacity: 0.6; stroke-width: 0.8" id="mb_auto_path_5"/>
     </g>
     <g id="line2d_8">
      <g id="mb_auto_g_6">
       <use xlink:href="#m6c8d9eb547" x="156.2" y="177.408158" style="stroke: #000000; stroke-width: 0.8" id="mb_auto_use_9"/>
      </g>
     </g>
     <g id="text_4">
      <!-- $\mathdefault{−2}$ -->
      <g transform="translate(143.882209 198.245154) scale(0.2 -0.2)" id="mb_auto_g_7">
       <defs>
        <path id="CMR17-32" d="M 2669 989  L 2554 989  C 2490 536 2438 459 2413 420  C 2381 369 1920 369 1830 369  L 602 369  C 832 619 1280 1072 1824 1597  C 2214 1967 2669 2402 2669 3035  C 2669 3790 2067 4224 1395 4224  C 691 4224 262 3604 262 3030  C 262 2780 448 2748 525 2748  C 589 2748 781 2787 781 3010  C 781 3207 614 3264 525 3264  C 486 3264 448 3258 422 3245  C 544 3790 915 4058 1306 4058  C 1862 4058 2227 3617 2227 3035  C 2227 2479 1901 2000 1536 1584  L 262 146  L 262 0  L 2515 0  L 2669 989  z " transform="scale(0.015625)"/>
       </defs>
       <use xlink:href="#CMSY10-0" transform="scale(0.996264)" id="mb_auto_use_10"/>
       <use xlink:href="#CMR17-32" transform="translate(77.487468 0) scale(0.996264)" id="mb_auto_use_11"/>
      </g>
     </g>
    </g>
    <g id="xtick_5">
     <g id="line2d_9">
      <path d="M 192.55 334.8  L 192.55 20.016315  " clip-path="url(#pcac5e8b19f)" style="fill: none; stroke-dasharray: 2.96,1.28; stroke-dashoffset: 0; stroke: #b0b0b0; stroke-opacity: 0.6; stroke-width: 0.8" id="mb_auto_path_6"/>
     </g>
     <g id="line2d_10">
      <g id="mb_auto_g_8">
       <use xlink:href="#m6c8d9eb547" x="192.55" y="177.408158" style="stroke: #000000; stroke-width: 0.8" id="mb_auto_use_12"/>
      </g>
     </g>
     <g id="text_5">
      <!-- $\mathdefault{−1}$ -->
      <g transform="translate(180.232209 198.245154) scale(0.2 -0.2)" id="mb_auto_g_9">
       <defs>
        <path id="CMR17-31" d="M 1702 4058  C 1702 4192 1696 4192 1606 4192  C 1357 3916 979 3827 621 3827  C 602 3827 570 3827 563 3808  C 557 3795 557 3782 557 3648  C 755 3648 1088 3686 1344 3839  L 1344 461  C 1344 236 1331 160 781 160  L 589 160  L 589 0  C 896 0 1216 0 1523 0  C 1830 0 2150 0 2458 0  L 2458 160  L 2266 160  C 1715 160 1702 230 1702 458  L 1702 4058  z " transform="scale(0.015625)"/>
       </defs>
       <use xlink:href="#CMSY10-0" transform="scale(0.996264)" id="mb_auto_use_13"/>
       <use xlink:href="#CMR17-31" transform="translate(77.487468 0) scale(0.996264)" id="mb_auto_use_14"/>
      </g>
     </g>
    </g>
    <g id="xtick_6">
     <g id="line2d_11">
      <path d="M 265.25 334.8  L 265.25 20.016315  " clip-path="url(#pcac5e8b19f)" style="fill: none; stroke-dasharray: 2.96,1.28; stroke-dashoffset: 0; stroke: #b0b0b0; stroke-opacity: 0.6; stroke-width: 0.8" id="mb_auto_path_7"/>
     </g>
     <g id="line2d_12">
      <g id="mb_auto_g_10">
       <use xlink:href="#m6c8d9eb547" x="265.25" y="177.408158" style="stroke: #000000; stroke-width: 0.8" id="mb_auto_use_15"/>
      </g>
     </g>
     <g id="text_6">
      <!-- $\mathdefault{1}$ -->
      <g transform="translate(260.680952 198.245154) scale(0.2 -0.2)" id="mb_auto_g_11">
       <use xlink:href="#CMR17-31" transform="scale(0.996264)" id="mb_auto_use_16"/>
      </g>
     </g>
    </g>
    <g id="xtick_7">
     <g id="line2d_13">
      <path d="M 301.6 334.8  L 301.6 20.016315  " clip-path="url(#pcac5e8b19f)" style="fill: none; stroke-dasharray: 2.96,1.28; stroke-dashoffset: 0; stroke: #b0b0b0; stroke-opacity: 0.6; stroke-width: 0.8" id="mb_auto_path_8"/>
     </g>
     <g id="line2d_14">
      <g id="mb_auto_g_12">
       <use xlink:href="#m6c8d9eb547" x="301.6" y="177.408158" style="stroke: #000000; stroke-width: 0.8" id="mb_auto_use_17"/>
      </g>
     </g>
     <g id="text_7">
      <!-- $\mathdefault{2}$ -->
      <g transform="translate(297.030952 198.245154) scale(0.2 -0.2)" id="mb_auto_g_13">
       <use xlink:href="#CMR17-32" transform="scale(0.996264)" id="mb_auto_use_18"/>
      </g>
     </g>
    </g>
    <g id="xtick_8">
     <g id="line2d_15">
      <path d="M 337.95 334.8  L 337.95 20.016315  " clip-path="url(#pcac5e8b19f)" style="fill: none; stroke-dasharray: 2.96,1.28; stroke-dashoffset: 0; stroke: #b0b0b0; stroke-opacity: 0.6; stroke-width: 0.8" id="mb_auto_path_9"/>
     </g>
     <g id="line2d_16">
      <g id="mb_auto_g_14">
       <use xlink:href="#m6c8d9eb547" x="337.95" y="177.408158" style="stroke: #000000; stroke-width: 0.8" id="mb_auto_use_19"/>
      </g>
     </g>
     <g id="text_8">
      <!-- $\mathdefault{3}$ -->
      <g transform="translate(333.380952 198.245154) scale(0.2 -0.2)" id="mb_auto_g_15">
       <use xlink:href="#CMR17-33" transform="scale(0.996264)" id="mb_auto_use_20"/>
      </g>
     </g>
    </g>
    <g id="xtick_9">
     <g id="line2d_17">
      <path d="M 374.3 334.8  L 374.3 20.016315  " clip-path="url(#pcac5e8b19f)" style="fill: none; stroke-dasharray: 2.96,1.28; stroke-dashoffset: 0; stroke: #b0b0b0; stroke-opacity: 0.6; stroke-width: 0.8" id="mb_auto_path_10"/>
     </g>
     <g id="line2d_18">
      <g id="mb_auto_g_16">
       <use xlink:href="#m6c8d9eb547" x="374.3" y="177.408158" style="stroke: #000000; stroke-width: 0.8" id="mb_auto_use_21"/>
      </g>
     </g>
     <g id="text_9">
      <!-- $\mathdefault{4}$ -->
      <g transform="translate(369.730952 198.245154) scale(0.2 -0.2)" id="mb_auto_g_17">
       <use xlink:href="#CMR17-34" transform="scale(0.996264)" id="mb_auto_use_22"/>
      </g>
     </g>
    </g>
    <g id="xtick_10">
     <g id="line2d_19">
      <path d="M 410.65 334.8  L 410.65 20.016315  " clip-path="url(#pcac5e8b19f)" style="fill: none; stroke-dasharray: 2.96,1.28; stroke-dashoffset: 0; stroke: #b0b0b0; stroke-opacity: 0.6; stroke-width: 0.8" id="mb_auto_path_11"/>
     </g>
     <g id="line2d_20">
      <g id="mb_auto_g_18">
       <use xlink:href="#m6c8d9eb547" x="410.65" y="177.408158" style="stroke: #000000; stroke-width: 0.8" id="mb_auto_use_23"/>
      </g>
     </g>
     <g id="text_10">
      <!-- $\mathdefault{5}$ -->
      <g transform="translate(406.080952 198.245154) scale(0.2 -0.2)" id="mb_auto_g_19">
       <use xlink:href="#CMR17-35" transform="scale(0.996264)" id="mb_auto_use_24"/>
      </g>
     </g>
    </g>
    <g id="text_11">
     <!-- $x$ -->
     <g transform="translate(435.913188 219.957785) scale(0.2 -0.2)" id="mb_auto_g_20">
      <defs>
       <path id="CMMI12-78" d="M 3034 2606  C 2829 2567 2752 2414 2752 2293  C 2752 2139 2874 2088 2963 2088  C 3155 2088 3290 2254 3290 2427  C 3290 2695 2982 2816 2714 2816  C 2323 2816 2106 2433 2048 2312  C 1901 2816 1504 2816 1389 2816  C 736 2816 390 1980 390 1839  C 390 1814 416 1782 461 1782  C 512 1782 525 1820 538 1846  C 755 2555 1184 2689 1370 2689  C 1658 2689 1715 2420 1715 2267  C 1715 2127 1677 1980 1600 1673  L 1382 798  C 1286 415 1101 64 762 64  C 730 64 570 64 435 147  C 666 192 717 383 717 460  C 717 588 621 664 499 664  C 346 664 179 530 179 326  C 179 57 480 -64 755 -64  C 1062 -64 1280 179 1414 441  C 1517 64 1837 -64 2074 -64  C 2726 -64 3072 773 3072 913  C 3072 945 3046 971 3008 971  C 2950 971 2944 939 2925 888  C 2752 326 2381 64 2093 64  C 1869 64 1747 230 1747 492  C 1747 632 1773 734 1875 1156  L 2099 2024  C 2195 2408 2413 2689 2707 2689  C 2720 2689 2899 2689 3034 2606  z " transform="scale(0.015625)"/>
      </defs>
      <use xlink:href="#CMMI12-78" transform="scale(0.996264)" id="mb_auto_use_25"/>
     </g>
    </g>
   </g>
   <g id="matplotlib.axis_2">
    <g id="ytick_1">
     <g id="line2d_21">
      <path d="M 10.8 308.568026  L 447 308.568026  " clip-path="url(#pcac5e8b19f)" style="fill: none; stroke-dasharray: 2.96,1.28; stroke-dashoffset: 0; stroke: #b0b0b0; stroke-opacity: 0.6; stroke-width: 0.8" id="mb_auto_path_12"/>
     </g>
     <g id="line2d_22">
      <defs>
       <path id="m25be124b57" d="M 0 0  L -3.5 0  " style="stroke: #000000; stroke-width: 0.8"/>
      </defs>
      <g id="mb_auto_g_21">
       <use xlink:href="#m25be124b57" x="228.9" y="308.568026" style="stroke: #000000; stroke-width: 0.8" id="mb_auto_use_26"/>
      </g>
     </g>
     <g id="text_12">
      <!-- $\mathdefault{−5}$ -->
      <g transform="translate(197.264417 315.486525) scale(0.2 -0.2)" id="mb_auto_g_22">
       <use xlink:href="#CMSY10-0" transform="scale(0.996264)" id="mb_auto_use_27"/>
       <use xlink:href="#CMR17-35" transform="translate(77.487468 0) scale(0.996264)" id="mb_auto_use_28"/>
      </g>
     </g>
    </g>
    <g id="ytick_2">
     <g id="line2d_23">
      <path d="M 10.8 282.336053  L 447 282.336053  " clip-path="url(#pcac5e8b19f)" style="fill: none; stroke-dasharray: 2.96,1.28; stroke-dashoffset: 0; stroke: #b0b0b0; stroke-opacity: 0.6; stroke-width: 0.8" id="mb_auto_path_13"/>
     </g>
     <g id="line2d_24">
      <g id="mb_auto_g_23">
       <use xlink:href="#m25be124b57" x="228.9" y="282.336053" style="stroke: #000000; stroke-width: 0.8" id="mb_auto_use_29"/>
      </g>
     </g>
     <g id="text_13">
      <!-- $\mathdefault{−4}$ -->
      <g transform="translate(197.264417 289.254551) scale(0.2 -0.2)" id="mb_auto_g_24">
       <use xlink:href="#CMSY10-0" transform="scale(0.996264)" id="mb_auto_use_30"/>
       <use xlink:href="#CMR17-34" transform="translate(77.487468 0) scale(0.996264)" id="mb_auto_use_31"/>
      </g>
     </g>
    </g>
    <g id="ytick_3">
     <g id="line2d_25">
      <path d="M 10.8 256.104079  L 447 256.104079  " clip-path="url(#pcac5e8b19f)" style="fill: none; stroke-dasharray: 2.96,1.28; stroke-dashoffset: 0; stroke: #b0b0b0; stroke-opacity: 0.6; stroke-width: 0.8" id="mb_auto_path_14"/>
     </g>
     <g id="line2d_26">
      <g id="mb_auto_g_25">
       <use xlink:href="#m25be124b57" x="228.9" y="256.104079" style="stroke: #000000; stroke-width: 0.8" id="mb_auto_use_32"/>
      </g>
     </g>
     <g id="text_14">
      <!-- $\mathdefault{−3}$ -->
      <g transform="translate(197.264417 263.022577) scale(0.2 -0.2)" id="mb_auto_g_26">
       <use xlink:href="#CMSY10-0" transform="scale(0.996264)" id="mb_auto_use_33"/>
       <use xlink:href="#CMR17-33" transform="translate(77.487468 0) scale(0.996264)" id="mb_auto_use_34"/>
      </g>
     </g>
    </g>
    <g id="ytick_4">
     <g id="line2d_27">
      <path d="M 10.8 229.872105  L 447 229.872105  " clip-path="url(#pcac5e8b19f)" style="fill: none; stroke-dasharray: 2.96,1.28; stroke-dashoffset: 0; stroke: #b0b0b0; stroke-opacity: 0.6; stroke-width: 0.8" id="mb_auto_path_15"/>
     </g>
     <g id="line2d_28">
      <g id="mb_auto_g_27">
       <use xlink:href="#m25be124b57" x="228.9" y="229.872105" style="stroke: #000000; stroke-width: 0.8" id="mb_auto_use_35"/>
      </g>
     </g>
     <g id="text_15">
      <!-- $\mathdefault{−2}$ -->
      <g transform="translate(197.264417 236.790603) scale(0.2 -0.2)" id="mb_auto_g_28">
       <use xlink:href="#CMSY10-0" transform="scale(0.996264)" id="mb_auto_use_36"/>
       <use xlink:href="#CMR17-32" transform="translate(77.487468 0) scale(0.996264)" id="mb_auto_use_37"/>
      </g>
     </g>
    </g>
    <g id="ytick_5">
     <g id="line2d_29">
      <path d="M 10.8 203.640131  L 447 203.640131  " clip-path="url(#pcac5e8b19f)" style="fill: none; stroke-dasharray: 2.96,1.28; stroke-dashoffset: 0; stroke: #b0b0b0; stroke-opacity: 0.6; stroke-width: 0.8" id="mb_auto_path_16"/>
     </g>
     <g id="line2d_30">
      <g id="mb_auto_g_29">
       <use xlink:href="#m25be124b57" x="228.9" y="203.640131" style="stroke: #000000; stroke-width: 0.8" id="mb_auto_use_38"/>
      </g>
     </g>
     <g id="text_16">
      <!-- $\mathdefault{−1}$ -->
      <g transform="translate(197.264417 210.55863) scale(0.2 -0.2)" id="mb_auto_g_30">
       <use xlink:href="#CMSY10-0" transform="scale(0.996264)" id="mb_auto_use_39"/>
       <use xlink:href="#CMR17-31" transform="translate(77.487468 0) scale(0.996264)" id="mb_auto_use_40"/>
      </g>
     </g>
    </g>
    <g id="ytick_6">
     <g id="line2d_31">
      <path d="M 10.8 151.176184  L 447 151.176184  " clip-path="url(#pcac5e8b19f)" style="fill: none; stroke-dasharray: 2.96,1.28; stroke-dashoffset: 0; stroke: #b0b0b0; stroke-opacity: 0.6; stroke-width: 0.8" id="mb_auto_path_17"/>
     </g>
     <g id="line2d_32">
      <g id="mb_auto_g_31">
       <use xlink:href="#m25be124b57" x="228.9" y="151.176184" style="stroke: #000000; stroke-width: 0.8" id="mb_auto_use_41"/>
      </g>
     </g>
     <g id="text_17">
      <!-- $\mathdefault{1}$ -->
      <g transform="translate(212.761905 158.094682) scale(0.2 -0.2)" id="mb_auto_g_32">
       <use xlink:href="#CMR17-31" transform="scale(0.996264)" id="mb_auto_use_42"/>
      </g>
     </g>
    </g>
    <g id="ytick_7">
     <g id="line2d_33">
      <path d="M 10.8 124.94421  L 447 124.94421  " clip-path="url(#pcac5e8b19f)" style="fill: none; stroke-dasharray: 2.96,1.28; stroke-dashoffset: 0; stroke: #b0b0b0; stroke-opacity: 0.6; stroke-width: 0.8" id="mb_auto_path_18"/>
     </g>
     <g id="line2d_34">
      <g id="mb_auto_g_33">
       <use xlink:href="#m25be124b57" x="228.9" y="124.94421" style="stroke: #000000; stroke-width: 0.8" id="mb_auto_use_43"/>
      </g>
     </g>
     <g id="text_18">
      <!-- $\mathdefault{2}$ -->
      <g transform="translate(212.761905 131.862709) scale(0.2 -0.2)" id="mb_auto_g_34">
       <use xlink:href="#CMR17-32" transform="scale(0.996264)" id="mb_auto_use_44"/>
      </g>
     </g>
    </g>
    <g id="ytick_8">
     <g id="line2d_35">
      <path d="M 10.8 98.712236  L 447 98.712236  " clip-path="url(#pcac5e8b19f)" style="fill: none; stroke-dasharray: 2.96,1.28; stroke-dashoffset: 0; stroke: #b0b0b0; stroke-opacity: 0.6; stroke-width: 0.8" id="mb_auto_path_19"/>
     </g>
     <g id="line2d_36">
      <g id="mb_auto_g_35">
       <use xlink:href="#m25be124b57" x="228.9" y="98.712236" style="stroke: #000000; stroke-width: 0.8" id="mb_auto_use_45"/>
      </g>
     </g>
     <g id="text_19">
      <!-- $\mathdefault{3}$ -->
      <g transform="translate(212.761905 105.630735) scale(0.2 -0.2)" id="mb_auto_g_36">
       <use xlink:href="#CMR17-33" transform="scale(0.996264)" id="mb_auto_use_46"/>
      </g>
     </g>
    </g>
    <g id="ytick_9">
     <g id="line2d_37">
      <path d="M 10.8 72.480263  L 447 72.480263  " clip-path="url(#pcac5e8b19f)" style="fill: none; stroke-dasharray: 2.96,1.28; stroke-dashoffset: 0; stroke: #b0b0b0; stroke-opacity: 0.6; stroke-width: 0.8" id="mb_auto_path_20"/>
     </g>
     <g id="line2d_38">
      <g id="mb_auto_g_37">
       <use xlink:href="#m25be124b57" x="228.9" y="72.480263" style="stroke: #000000; stroke-width: 0.8" id="mb_auto_use_47"/>
      </g>
     </g>
     <g id="text_20">
      <!-- $\mathdefault{4}$ -->
      <g transform="translate(212.761905 79.398761) scale(0.2 -0.2)" id="mb_auto_g_38">
       <use xlink:href="#CMR17-34" transform="scale(0.996264)" id="mb_auto_use_48"/>
      </g>
     </g>
    </g>
    <g id="ytick_10">
     <g id="line2d_39">
      <path d="M 10.8 46.248289  L 447 46.248289  " clip-path="url(#pcac5e8b19f)" style="fill: none; stroke-dasharray: 2.96,1.28; stroke-dashoffset: 0; stroke: #b0b0b0; stroke-opacity: 0.6; stroke-width: 0.8" id="mb_auto_path_21"/>
     </g>
     <g id="line2d_40">
      <g id="mb_auto_g_39">
       <use xlink:href="#m25be124b57" x="228.9" y="46.248289" style="stroke: #000000; stroke-width: 0.8" id="mb_auto_use_49"/>
      </g>
     </g>
     <g id="text_21">
      <!-- $\mathdefault{5}$ -->
      <g transform="translate(212.761905 53.166787) scale(0.2 -0.2)" id="mb_auto_g_40">
       <use xlink:href="#CMR17-35" transform="scale(0.996264)" id="mb_auto_use_50"/>
      </g>
     </g>
    </g>
    <g id="text_22">
     <!-- $y$ -->
     <g transform="translate(183.751583 16.140682) scale(0.2 -0.2)" id="mb_auto_g_41">
      <defs>
       <path id="CMMI12-79" d="M 1683 -700  C 1510 -939 1261 -1152 947 -1152  C 870 -1152 563 -1152 467 -889  C 486 -895 518 -895 531 -895  C 723 -895 851 -729 851 -582  C 851 -435 730 -384 634 -384  C 531 -384 307 -458 307 -759  C 307 -1071 582 -1286 947 -1286  C 1587 -1286 2234 -700 2413 6  L 3040 2485  C 3046 2517 3059 2556 3059 2594  C 3059 2689 2982 2753 2886 2753  C 2829 2753 2694 2727 2643 2535  L 2170 658  C 2138 543 2138 530 2086 460  C 1958 281 1747 64 1440 64  C 1082 64 1050 415 1050 588  C 1050 952 1222 1443 1395 1903  C 1466 2088 1504 2178 1504 2305  C 1504 2574 1312 2816 998 2816  C 410 2816 173 1890 173 1839  C 173 1814 198 1782 243 1782  C 301 1782 307 1807 333 1897  C 486 2433 730 2689 979 2689  C 1037 2689 1146 2689 1146 2478  C 1146 2312 1075 2127 979 1884  C 666 1047 666 837 666 683  C 666 77 1101 -64 1421 -64  C 1606 -64 1837 -6 2061 230  L 2067 224  C 1971 -147 1907 -392 1683 -700  z " transform="scale(0.015625)"/>
      </defs>
      <use xlink:href="#CMMI12-79" transform="scale(0.996264)" id="mb_auto_use_51"/>
     </g>
    </g>
   </g>
   <g id="line2d_41">
    <defs>
     <path id="m01e4946303" d="M 3 0  L -3 -3  L -3 3  z " style="stroke: #000000; stroke-linejoin: miter"/>
    </defs>
    <g id="mb_auto_g_42">
     <use xlink:href="#m01e4946303" x="447" y="177.408158" style="stroke: #000000; stroke-linejoin: miter" id="mb_auto_use_52"/>
    </g>
   </g>
   <g id="line2d_42">
    <defs>
     <path id="m4bab4e3161" d="M 0 -3  L -3 3  L 3 3  z " style="stroke: #000000; stroke-linejoin: miter"/>
    </defs>
    <g id="mb_auto_g_43">
     <use xlink:href="#m4bab4e3161" x="228.9" y="20.016315" style="stroke: #000000; stroke-linejoin: miter" id="mb_auto_use_53"/>
    </g>
   </g>
   <g id="line2d_43">
    <path d="M 228.9 177.408158  L 233.892218 156.287135  L 238.764622 136.62723  L 243.530526 118.308995  L 248.189929 101.271968  L 252.742831 85.45704  L 257.189233 70.806452  L 261.529134 57.263799  L 265.762534 44.774023  L 269.889434 33.283419  L 273.909833 22.739634  L 277.823732 13.091665  L 281.63113 4.289859  L 284.048597 -1  M 391.851403 -1  L 395.480315 7.028  L 399.22115 15.850923  L 403.055173 25.470203  L 406.995697 35.964892  L 411.042721 47.384979  L 415.182934 59.740978  L 419.429647 73.121912  L 423.78286 87.581653  L 428.242575 103.175428  L 432.80879 119.959812  L 437.481505 137.992733  L 442.260721 157.333468  L 447 177.408158  L 447 177.408158  " clip-path="url(#pcac5e8b19f)" style="fill: none; stroke: #0072b2; stroke-width: 2.5; stroke-linecap: square" id="mb_auto_path_22"/>
   </g>
   <g id="line2d_44">
    <defs>
     <path id="m7949e48acb" d="M 0 5  C 1.326016 5 2.597899 4.473168 3.535534 3.535534  C 4.473168 2.597899 5 1.326016 5 0  C 5 -1.326016 4.473168 -2.597899 3.535534 -3.535534  C 2.597899 -4.473168 1.326016 -5 0 -5  C -1.326016 -5 -2.597899 -4.473168 -3.535534 -3.535534  C -4.473168 -2.597899 -5 -1.326016 -5 0  C -5 1.326016 -4.473168 2.597899 -3.535534 3.535534  C -2.597899 4.473168 -1.326016 5 0 5  z " style="stroke: #000000; stroke-opacity: 0.8"/>
    </defs>
    <g clip-path="url(#pcac5e8b19f)" id="mb_auto_g_44">
     <use xlink:href="#m7949e48acb" x="228.9" y="177.408158" style="fill-opacity: 0.8; stroke: #000000; stroke-opacity: 0.8" id="mb_auto_use_54"/>
    </g>
   </g>
   <g id="line2d_45">
    <g clip-path="url(#pcac5e8b19f)" id="mb_auto_g_45">
     <use xlink:href="#m7949e48acb" x="265.25" y="46.248289" style="fill-opacity: 0.8; stroke: #000000; stroke-opacity: 0.8" id="mb_auto_use_55"/>
    </g>
   </g>
   <g id="patch_3">
    <path d="M 228.9 334.8  L 228.9 20.016315  " style="fill: none; stroke: #000000; stroke-width: 0.8; stroke-linejoin: miter; stroke-linecap: square" id="mb_auto_path_23"/>
   </g>
   <g id="patch_4">
    <path d="M 447 334.8  L 447 20.016315  " style="fill: none" id="mb_auto_path_24"/>
   </g>
   <g id="patch_5">
    <path d="M 10.8 177.408158  L 447 177.408158  " style="fill: none; stroke: #000000; stroke-width: 0.8; stroke-linejoin: miter; stroke-linecap: square" id="mb_auto_path_25"/>
   </g>
   <g id="patch_6">
    <path d="M 10.8 20.016315  L 447 20.016315  " style="fill: none" id="mb_auto_path_26"/>
   </g>
   <g id="text_23">
    <g id="patch_7">
     <path d="M 229.92817 47.165656  L 364.4855 47.165656  Q 372.4855 47.165656 372.4855 39.165656  L 372.4855 19.27499  Q 372.4855 11.27499 364.4855 11.27499  L 229.92817 11.27499  Q 221.92817 11.27499 221.92817 19.27499  L 221.92817 39.165656  Q 221.92817 47.165656 229.92817 47.165656  z " style="fill: #ffffff; opacity: 0.7; stroke: #000000; stroke-width: 1.5; stroke-linejoin: miter" id="mb_auto_path_27"/>
    </g>
    <!-- {f(a) &lt; f(a + h) = } -->
    <g transform="translate(229.92817 34.201012) scale(0.2 -0.2)" id="mb_auto_g_46">
     <defs>
      <path id="CMSS17-66" d="M 1075 2368  L 1722 2368  L 1722 2737  L 1062 2737  L 1062 3559  C 1062 4014 1408 4092 1606 4092  C 1670 4092 1850 4092 2080 4009  L 2080 4429  C 1933 4461 1754 4480 1613 4480  C 1018 4480 602 3993 602 3359  L 602 2737  L 160 2737  L 160 2368  L 602 2368  L 602 0  L 1075 0  L 1075 2368  z " transform="scale(0.015625)"/>
      <path id="CMSS17-28" d="M 1613 4768  C 1267 4417 474 3601 474 1588  C 474 -433 1267 -1243 1613 -1600  L 2003 -1600  C 1216 -784 960 357 960 1581  C 960 2798 1203 3946 2003 4768  L 1613 4768  z " transform="scale(0.015625)"/>
      <path id="CMSS17-61" d="M 2406 1791  C 2406 2392 1978 2808 1402 2808  C 1120 2808 813 2757 461 2553  L 499 2135  C 659 2248 934 2432 1395 2432  C 1722 2432 1920 2180 1920 1782  L 1920 1536  C 896 1536 256 1238 256 726  C 256 461 416 -64 947 -64  C 1043 -64 1562 -64 1933 217  L 1933 -19  L 2406 -19  L 2406 1791  z M 1920 816  C 1920 701 1920 548 1728 434  C 1562 325 1350 325 1261 325  C 941 325 723 511 723 744  C 723 1211 1722 1211 1920 1211  L 1920 816  z " transform="scale(0.015625)"/>
      <path id="CMSS17-29" d="M 723 -1600  C 1069 -1249 1862 -433 1862 1581  C 1862 3601 1069 4411 723 4768  L 333 4768  C 1120 3952 1376 2811 1376 1588  C 1376 370 1133 -778 333 -1600  L 723 -1600  z " transform="scale(0.015625)"/>
      <path id="CMSS17-3c" d="M 1216 3200  L 704 3200  L 704 2691  L 1216 2691  L 1216 3200  z M 704 -1216  L 1216 -1216  L 1165 2135  L 755 2135  L 704 -1216  z " transform="scale(0.015625)"/>
      <path id="CMSS17-2b" d="M 2451 1505  L 4141 1505  C 4230 1505 4339 1505 4339 1613  C 4339 1728 4237 1728 4141 1728  L 2451 1728  L 2451 3413  C 2451 3502 2451 3611 2342 3611  C 2227 3611 2227 3509 2227 3413  L 2227 1728  L 531 1728  C 442 1728 333 1728 333 1620  C 333 1505 435 1505 531 1505  L 2227 1505  L 2227 -186  C 2227 -275 2227 -384 2336 -384  C 2451 -384 2451 -282 2451 -186  L 2451 1505  z " transform="scale(0.015625)"/>
      <path id="CMSS17-68" d="M 2618 1891  C 2618 2292 2522 2820 1798 2820  C 1395 2820 1133 2623 947 2407  L 947 4448  L 474 4448  L 474 32  L 960 32  L 960 1573  C 960 1973 1114 2432 1549 2432  C 2112 2432 2131 2056 2131 1839  L 2131 32  L 2618 32  L 2618 1891  z " transform="scale(0.015625)"/>
      <path id="CMSS17-3d" d="M 4147 2017  C 4243 2017 4339 2017 4339 2125  C 4339 2240 4230 2240 4122 2240  L 550 2240  C 442 2240 333 2240 333 2125  C 333 2017 429 2017 525 2017  L 4147 2017  z M 4122 896  C 4230 896 4339 896 4339 1011  C 4339 1119 4243 1119 4147 1119  L 525 1119  C 429 1119 333 1119 333 1011  C 333 896 442 896 550 896  L 4122 896  z " transform="scale(0.015625)"/>
     </defs>
     <use xlink:href="#CMSS17-66" transform="scale(0.996264)" id="mb_auto_use_56"/>
     <use xlink:href="#CMSS17-28" transform="translate(28.626659 0) scale(0.996264)" id="mb_auto_use_57"/>
     <use xlink:href="#CMSS17-61" transform="translate(65.060573 0) scale(0.996264)" id="mb_auto_use_58"/>
     <use xlink:href="#CMSS17-29" transform="translate(109.982494 0) scale(0.996264)" id="mb_auto_use_59"/>
     <use xlink:href="#CMSS17-3c" transform="translate(177.645521 0) scale(0.996264)" id="mb_auto_use_60"/>
     <use xlink:href="#CMSS17-66" transform="translate(238.742518 0) scale(0.996264)" id="mb_auto_use_61"/>
     <use xlink:href="#CMSS17-28" transform="translate(267.369177 0) scale(0.996264)" id="mb_auto_use_62"/>
     <use xlink:href="#CMSS17-61" transform="translate(303.803091 0) scale(0.996264)" id="mb_auto_use_63"/>
     <use xlink:href="#CMSS17-2b" transform="translate(379.954124 0) scale(0.996264)" id="mb_auto_use_64"/>
     <use xlink:href="#CMSS17-68" transform="translate(484.051172 0) scale(0.996264)" id="mb_auto_use_65"/>
     <use xlink:href="#CMSS17-29" transform="translate(532.256115 0) scale(0.996264)" id="mb_auto_use_66"/>
     <use xlink:href="#CMSS17-3d" transform="translate(599.919142 0) scale(0.996264)" id="mb_auto_use_67"/>
    </g>
   </g>
   <g id="legend_1">
    <g id="patch_8">
     <path d="M 24.8 63.891949  L 98.416648 63.891949  Q 102.416648 63.891949 102.416648 59.891949  L 102.416648 34.016315  Q 102.416648 30.016315 98.416648 30.016315  L 24.8 30.016315  Q 20.8 30.016315 20.8 34.016315  L 20.8 59.891949  Q 20.8 63.891949 24.8 63.891949  z " style="fill: #ffffff; opacity: 0.8; stroke: #cccccc; stroke-linejoin: miter" id="mb_auto_path_28"/>
    </g>
    <g id="line2d_46">
     <path d="M 28.8 45.016315  L 48.8 45.016315  L 68.8 45.016315  " style="fill: none; stroke: #0072b2; stroke-width: 2.5; stroke-linecap: square" id="mb_auto_path_29"/>
    </g>
    <g id="text_24">
     <!-- $f$ -->
     <g transform="translate(84.8 52.016315) scale(0.2 -0.2)" id="mb_auto_g_47">
      <defs>
       <path id="CMMI12-66" d="M 2854 2566  C 2982 2566 3034 2566 3034 2688  C 3034 2752 2982 2752 2867 2752  L 2349 2752  C 2470 3429 2560 3897 2611 4107  C 2650 4265 2784 4416 2950 4416  C 3085 4416 3219 4358 3283 4298  C 3034 4272 2957 4082 2957 3969  C 2957 3837 3053 3759 3174 3759  C 3302 3759 3494 3870 3494 4119  C 3494 4393 3226 4544 2944 4544  C 2669 4544 2400 4334 2272 4078  C 2157 3848 2093 3611 1946 2752  L 1517 2752  C 1395 2752 1331 2752 1331 2637  C 1331 2566 1370 2566 1498 2566  L 1907 2566  C 1792 1976 1530 542 1382 -137  C 1274 -689 1178 -1152 858 -1152  C 838 -1152 653 -1152 538 -1031  C 864 -1005 864 -726 864 -720  C 864 -593 768 -517 646 -517  C 518 -517 326 -625 326 -867  C 326 -1140 608 -1280 858 -1280  C 1510 -1280 1779 -118 1850 199  C 1965 688 2278 2376 2310 2566  L 2854 2566  z " transform="scale(0.015625)"/>
      </defs>
      <use xlink:href="#CMMI12-66" transform="scale(0.996264)" id="mb_auto_use_68"/>
     </g>
    </g>
   </g>
  </g>
 </g>
 <defs>
  <clipPath id="pcac5e8b19f">
   <rect x="10.8" y="20.016315" width="436.2" height="314.783685" id="mb_auto_rect_0"/>
  </clipPath>
 </defs>
</svg>