<?xml version="1.0" encoding="utf-8" standalone="no"?>
<!DOCTYPE svg PUBLIC "-//W3C//DTD SVG 1.1//EN"
  "http://www.w3.org/Graphics/SVG/1.1/DTD/svg11.dtd">
<svg xmlns:xlink="http://www.w3.org/1999/xlink" width="460.8pt" height="345.6pt" viewBox="0 0 460.8 345.6" xmlns="http://www.w3.org/2000/svg" version="1.1">
 <metadata>
  <rdf:RDF xmlns:dc="http://purl.org/dc/elements/1.1/" xmlns:cc="http://creativecommons.org/ns#" xmlns:rdf="http://www.w3.org/1999/02/22-rdf-syntax-ns#">
   <cc:Work>
    <dc:type rdf:resource="http://purl.org/dc/dcmitype/StillImage"/>
    <dc:date>2025-02-12T20:50:10.138156</dc:date>
    <dc:format>image/svg+xml</dc:format>
    <dc:creator>
     <cc:Agent>
      <dc:title>Matplotlib v3.9.1, https://matplotlib.org/</dc:title>
     </cc:Agent>
    </dc:creator>
   </cc:Work>
  </rdf:RDF>
 </metadata>
 <defs>
  <style type="text/css">*{stroke-linejoin: round; stroke-linecap: butt}</style>
 </defs>
 <g id="figure_1">
  <g id="patch_1">
   <path d="M 0 345.6 
L 460.8 345.6 
L 460.8 0 
L 0 0 
z
" style="fill: #ffffff"/>
  </g>
  <g id="axes_1">
   <g id="patch_2">
    <path d="M 10.8 334.8 
L 447 334.8 
L 447 18.064532 
L 10.8 18.064532 
z
" style="fill: #ffffff"/>
   </g>
   <g id="matplotlib.axis_1">
    <g id="text_1">
     <!-- $x$ -->
     <g transform="translate(438.13055 191.501854) scale(0.16 -0.16)">
      <defs>
       <path id="CMMI12-78" d="M 3034 2606 
C 2829 2567 2752 2414 2752 2293 
C 2752 2139 2874 2088 2963 2088 
C 3155 2088 3290 2254 3290 2427 
C 3290 2695 2982 2816 2714 2816 
C 2323 2816 2106 2433 2048 2312 
C 1901 2816 1504 2816 1389 2816 
C 736 2816 390 1980 390 1839 
C 390 1814 416 1782 461 1782 
C 512 1782 525 1820 538 1846 
C 755 2555 1184 2689 1370 2689 
C 1658 2689 1715 2420 1715 2267 
C 1715 2127 1677 1980 1600 1673 
L 1382 798 
C 1286 415 1101 64 762 64 
C 730 64 570 64 435 147 
C 666 192 717 383 717 460 
C 717 588 621 664 499 664 
C 346 664 179 530 179 326 
C 179 57 480 -64 755 -64 
C 1062 -64 1280 179 1414 441 
C 1517 64 1837 -64 2074 -64 
C 2726 -64 3072 773 3072 913 
C 3072 945 3046 971 3008 971 
C 2950 971 2944 939 2925 888 
C 2752 326 2381 64 2093 64 
C 1869 64 1747 230 1747 492 
C 1747 632 1773 734 1875 1156 
L 2099 2024 
C 2195 2408 2413 2689 2707 2689 
C 2720 2689 2899 2689 3034 2606 
z
" transform="scale(0.015625)"/>
      </defs>
      <use xlink:href="#CMMI12-78" transform="scale(0.996264)"/>
     </g>
    </g>
   </g>
   <g id="matplotlib.axis_2">
    <g id="text_2">
     <!-- $y$ -->
     <g transform="translate(217.289729 14.965056) scale(0.16 -0.16)">
      <defs>
       <path id="CMMI12-79" d="M 1683 -700 
C 1510 -939 1261 -1152 947 -1152 
C 870 -1152 563 -1152 467 -889 
C 486 -895 518 -895 531 -895 
C 723 -895 851 -729 851 -582 
C 851 -435 730 -384 634 -384 
C 531 -384 307 -458 307 -759 
C 307 -1071 582 -1286 947 -1286 
C 1587 -1286 2234 -700 2413 6 
L 3040 2485 
C 3046 2517 3059 2556 3059 2594 
C 3059 2689 2982 2753 2886 2753 
C 2829 2753 2694 2727 2643 2535 
L 2170 658 
C 2138 543 2138 530 2086 460 
C 1958 281 1747 64 1440 64 
C 1082 64 1050 415 1050 588 
C 1050 952 1222 1443 1395 1903 
C 1466 2088 1504 2178 1504 2305 
C 1504 2574 1312 2816 998 2816 
C 410 2816 173 1890 173 1839 
C 173 1814 198 1782 243 1782 
C 301 1782 307 1807 333 1897 
C 486 2433 730 2689 979 2689 
C 1037 2689 1146 2689 1146 2478 
C 1146 2312 1075 2127 979 1884 
C 666 1047 666 837 666 683 
C 666 77 1101 -64 1421 -64 
C 1606 -64 1837 -6 2061 230 
L 2067 224 
C 1971 -147 1907 -392 1683 -700 
z
" transform="scale(0.015625)"/>
      </defs>
      <use xlink:href="#CMMI12-79" transform="scale(0.996264)"/>
     </g>
    </g>
   </g>
   <g id="line2d_1">
    <defs>
     <path id="m3cfebbd277" d="M 3 0 
L -3 -3 
L -3 3 
z
" style="stroke: #000000; stroke-linejoin: miter"/>
    </defs>
    <g>
     <use xlink:href="#m3cfebbd277" x="447" y="176.432266" style="stroke: #000000; stroke-linejoin: miter"/>
    </g>
   </g>
   <g id="line2d_2">
    <defs>
     <path id="m9779512105" d="M 0 -3 
L -3 3 
L 3 3 
z
" style="stroke: #000000; stroke-linejoin: miter"/>
    </defs>
    <g>
     <use xlink:href="#m9779512105" x="228.9" y="18.064532" style="stroke: #000000; stroke-linejoin: miter"/>
    </g>
   </g>
   <g id="line2d_3">
    <path d="M 10.643656 293.838211 
L 34.407957 286.142946 
L 53.794624 280.090064 
L 70.054409 275.240547 
L 83.5 271.452906 
L 95.069462 268.418563 
L 104.762796 266.094813 
L 113.205376 264.28893 
L 120.709892 262.909346 
L 127.276344 261.930486 
L 132.904731 261.310963 
L 137.907742 260.977621 
L 142.285376 260.897525 
L 146.350323 261.044433 
L 149.789892 261.374702 
L 152.916774 261.875916 
L 156.043656 262.610911 
L 158.857849 263.516538 
L 161.359355 264.558324 
L 163.548172 265.690521 
L 165.736989 267.070207 
L 167.613118 268.488024 
L 169.489247 270.165507 
L 171.365376 272.154018 
L 173.241505 274.519424 
L 174.804946 276.83968 
L 176.368387 279.544987 
L 177.931828 282.717856 
L 179.495269 286.466185 
L 181.05871 290.933841 
L 182.309462 295.155358 
L 183.560215 300.096202 
L 184.810968 305.936203 
L 186.06172 312.920587 
L 187.312473 321.392667 
L 188.563226 331.848343 
L 189.50129 341.425747 
L 189.941515 346.6 
L 189.941515 346.6 
" clip-path="url(#p99a7571a43)" style="fill: none; stroke: #008080; stroke-opacity: 0.7; stroke-width: 2; stroke-linecap: square"/>
   </g>
   <g id="line2d_4">
    <path d="M 205.468241 -1 
L 206.10219 20.895425 
L 206.841271 41.204715 
L 207.949892 64.653551 
L 209.058514 82.378067 
L 210.167136 96.218223 
L 211.275758 107.301736 
L 212.384379 116.358305 
L 213.493001 123.880972 
L 214.601623 130.214864 
L 216.079785 137.231122 
L 217.557947 142.988559 
L 219.036109 147.777673 
L 220.514272 151.805961 
L 221.992434 155.225589 
L 223.470596 158.150681 
L 224.948759 160.668507 
L 226.796461 163.345063 
L 228.644164 165.592467 
L 230.491867 167.488276 
L 232.33957 169.092422 
L 234.556813 170.697932 
L 236.774057 172.014181 
L 238.9913 173.090289 
L 241.578084 174.093269 
L 244.164868 174.869666 
L 247.121193 175.527215 
L 250.447058 176.025329 
L 254.142463 176.333841 
L 258.20741 176.431945 
L 262.641896 176.306665 
L 267.445924 175.951212 
L 272.989032 175.314479 
L 279.271222 174.360782 
L 286.292493 173.066691 
L 294.422385 171.335525 
L 303.660899 169.136315 
L 314.377576 166.351858 
L 326.941955 162.849769 
L 341.723578 158.489445 
L 359.091984 153.127384 
L 379.786256 146.50072 
L 404.915015 138.213511 
L 435.586882 127.856706 
L 447.042639 123.938923 
L 447.042639 123.938923 
" clip-path="url(#p99a7571a43)" style="fill: none; stroke: #008080; stroke-opacity: 0.7; stroke-width: 2; stroke-linecap: square"/>
   </g>
   <g id="LineCollection_1">
    <path d="M 199.82 346.6 
L 199.82 -1 
" clip-path="url(#p99a7571a43)" style="fill: none; stroke-dasharray: 5.55,2.4; stroke-dashoffset: 0; stroke: #ff0000; stroke-width: 1.5"/>
   </g>
   <g id="line2d_5">
    <path d="M 10.302542 287.470288 
L 447.497458 128.741338 
L 447.497458 128.741338 
" clip-path="url(#p99a7571a43)" style="fill: none; stroke-dasharray: 5.55,2.4; stroke-dashoffset: 0; stroke: #0000ff; stroke-opacity: 0.7; stroke-width: 1.5"/>
   </g>
   <g id="line2d_6">
    <defs>
     <path id="mb4200cffc7" d="M 0 4 
C 1.060812 4 2.078319 3.578535 2.828427 2.828427 
C 3.578535 2.078319 4 1.060812 4 0 
C 4 -1.060812 3.578535 -2.078319 2.828427 -2.828427 
C 2.078319 -3.578535 1.060812 -4 0 -4 
C -1.060812 -4 -2.078319 -3.578535 -2.828427 -2.828427 
C -3.578535 -2.078319 -4 -1.060812 -4 0 
C -4 1.060812 -3.578535 2.078319 -2.828427 2.828427 
C -2.078319 3.578535 -1.060812 4 0 4 
z
" style="stroke: #000000; stroke-opacity: 0.7"/>
    </defs>
    <g clip-path="url(#p99a7571a43)">
     <use xlink:href="#mb4200cffc7" x="257.98" y="176.432266" style="fill-opacity: 0.7; stroke: #000000; stroke-opacity: 0.7"/>
    </g>
   </g>
   <g id="patch_3">
    <path d="M 228.9 334.8 
L 228.9 18.064532 
" style="fill: none; stroke: #000000; stroke-width: 0.8; stroke-linejoin: miter; stroke-linecap: square"/>
   </g>
   <g id="patch_4">
    <path d="M 447 334.8 
L 447 18.064532 
" style="fill: none"/>
   </g>
   <g id="patch_5">
    <path d="M 10.8 176.432266 
L 447 176.432266 
" style="fill: none; stroke: #000000; stroke-width: 0.8; stroke-linejoin: miter; stroke-linecap: square"/>
   </g>
   <g id="patch_6">
    <path d="M 10.8 18.064532 
L 447 18.064532 
" style="fill: none"/>
   </g>
   <g id="legend_1">
    <g id="patch_7">
     <path d="M 372.899538 53.164008 
L 435.8 53.164008 
Q 439 53.164008 439 49.964008 
L 439 29.264532 
Q 439 26.064532 435.8 26.064532 
L 372.899538 26.064532 
Q 369.699538 26.064532 369.699538 29.264532 
L 369.699538 49.964008 
Q 369.699538 53.164008 372.899538 53.164008 
z
" style="fill: #ffffff; opacity: 0.8; stroke: #cccccc; stroke-linejoin: miter"/>
    </g>
    <g id="line2d_7">
     <path d="M 376.099538 38.064532 
L 392.099538 38.064532 
L 408.099538 38.064532 
" style="fill: none; stroke: #008080; stroke-opacity: 0.7; stroke-width: 2; stroke-linecap: square"/>
    </g>
    <g id="text_3">
     <!-- $\mathrm{A}$ -->
     <g transform="translate(420.899538 43.664532) scale(0.16 -0.16)">
      <defs>
       <path id="CMR17-41" d="M 2323 4378 
C 2291 4461 2278 4480 2214 4480 
C 2150 4480 2138 4461 2106 4378 
L 749 566 
C 627 223 371 153 147 153 
L 147 -13 
C 262 0 518 0 640 0 
C 800 0 1056 0 1210 -13 
L 1210 153 
C 909 153 864 361 864 439 
C 864 497 877 530 890 569 
L 1229 1536 
L 2906 1536 
L 3290 442 
C 3322 365 3322 352 3322 327 
C 3322 153 3046 153 2925 153 
L 2925 0 
C 3110 0 3443 0 3642 0 
C 3808 0 4128 0 4282 -13 
L 4282 153 
C 3942 153 3827 153 3744 387 
L 2323 4378 
z
M 2067 3893 
L 2848 1702 
L 1286 1702 
L 2067 3893 
z
" transform="scale(0.015625)"/>
      </defs>
      <use xlink:href="#CMR17-41" transform="scale(0.996264)"/>
     </g>
    </g>
   </g>
  </g>
 </g>
 <defs>
  <clipPath id="p99a7571a43">
   <rect x="10.8" y="18.064532" width="436.2" height="316.735468"/>
  </clipPath>
 </defs>
</svg>
