<?xml version="1.0" encoding="utf-8" standalone="no"?>
<!DOCTYPE svg PUBLIC "-//W3C//DTD SVG 1.1//EN"
  "http://www.w3.org/Graphics/SVG/1.1/DTD/svg11.dtd">
<svg xmlns:xlink="http://www.w3.org/1999/xlink" width="460.8pt" height="345.6pt" viewBox="0 0 460.8 345.6" xmlns="http://www.w3.org/2000/svg" version="1.1">
 <metadata>
  <rdf:RDF xmlns:dc="http://purl.org/dc/elements/1.1/" xmlns:cc="http://creativecommons.org/ns#" xmlns:rdf="http://www.w3.org/1999/02/22-rdf-syntax-ns#">
   <cc:Work>
    <dc:type rdf:resource="http://purl.org/dc/dcmitype/StillImage"/>
    <dc:date>2024-10-22T19:25:57.395009</dc:date>
    <dc:format>image/svg+xml</dc:format>
    <dc:creator>
     <cc:Agent>
      <dc:title>Matplotlib v3.9.1, https://matplotlib.org/</dc:title>
     </cc:Agent>
    </dc:creator>
   </cc:Work>
  </rdf:RDF>
 </metadata>
 <defs>
  <style type="text/css">*{stroke-linejoin: round; stroke-linecap: butt}</style>
 </defs>
 <g id="figure_1">
  <g id="patch_1">
   <path d="M 0 345.6 
L 460.8 345.6 
L 460.8 0 
L 0 0 
z
" style="fill: #ffffff"/>
  </g>
  <g id="axes_1">
   <g id="patch_2">
    <path d="M 10.8 334.8 
L 447 334.8 
L 447 18.064532 
L 10.8 18.064532 
z
" style="fill: #ffffff"/>
   </g>
   <g id="matplotlib.axis_1">
    <g id="xtick_1">
     <g id="line2d_1">
      <defs>
       <path id="m949c25feef" d="M 0 0 
L 0 3.5 
" style="stroke: #000000; stroke-width: 0.8"/>
      </defs>
      <g>
       <use xlink:href="#m949c25feef" x="98.04" y="255.616133" style="stroke: #000000; stroke-width: 0.8"/>
      </g>
     </g>
     <g id="text_1">
      <!-- $x_1$ -->
      <g transform="translate(90.815741 273.685721) scale(0.16 -0.16)">
       <defs>
        <path id="CMMI12-78" d="M 3034 2606 
C 2829 2567 2752 2414 2752 2293 
C 2752 2139 2874 2088 2963 2088 
C 3155 2088 3290 2254 3290 2427 
C 3290 2695 2982 2816 2714 2816 
C 2323 2816 2106 2433 2048 2312 
C 1901 2816 1504 2816 1389 2816 
C 736 2816 390 1980 390 1839 
C 390 1814 416 1782 461 1782 
C 512 1782 525 1820 538 1846 
C 755 2555 1184 2689 1370 2689 
C 1658 2689 1715 2420 1715 2267 
C 1715 2127 1677 1980 1600 1673 
L 1382 798 
C 1286 415 1101 64 762 64 
C 730 64 570 64 435 147 
C 666 192 717 383 717 460 
C 717 588 621 664 499 664 
C 346 664 179 530 179 326 
C 179 57 480 -64 755 -64 
C 1062 -64 1280 179 1414 441 
C 1517 64 1837 -64 2074 -64 
C 2726 -64 3072 773 3072 913 
C 3072 945 3046 971 3008 971 
C 2950 971 2944 939 2925 888 
C 2752 326 2381 64 2093 64 
C 1869 64 1747 230 1747 492 
C 1747 632 1773 734 1875 1156 
L 2099 2024 
C 2195 2408 2413 2689 2707 2689 
C 2720 2689 2899 2689 3034 2606 
z
" transform="scale(0.015625)"/>
        <path id="CMR17-31" d="M 1702 4058 
C 1702 4192 1696 4192 1606 4192 
C 1357 3916 979 3827 621 3827 
C 602 3827 570 3827 563 3808 
C 557 3795 557 3782 557 3648 
C 755 3648 1088 3686 1344 3839 
L 1344 461 
C 1344 236 1331 160 781 160 
L 589 160 
L 589 0 
C 896 0 1216 0 1523 0 
C 1830 0 2150 0 2458 0 
L 2458 160 
L 2266 160 
C 1715 160 1702 230 1702 458 
L 1702 4058 
z
" transform="scale(0.015625)"/>
       </defs>
       <use xlink:href="#CMMI12-78" transform="scale(0.996264)"/>
       <use xlink:href="#CMR17-31" transform="translate(55.43406 -14.943915) scale(0.697382)"/>
      </g>
     </g>
    </g>
    <g id="xtick_2">
     <g id="line2d_2">
      <g>
       <use xlink:href="#m949c25feef" x="272.52" y="255.616133" style="stroke: #000000; stroke-width: 0.8"/>
      </g>
     </g>
     <g id="text_2">
      <!-- $x_2$ -->
      <g transform="translate(265.295741 273.685721) scale(0.16 -0.16)">
       <defs>
        <path id="CMR17-32" d="M 2669 989 
L 2554 989 
C 2490 536 2438 459 2413 420 
C 2381 369 1920 369 1830 369 
L 602 369 
C 832 619 1280 1072 1824 1597 
C 2214 1967 2669 2402 2669 3035 
C 2669 3790 2067 4224 1395 4224 
C 691 4224 262 3604 262 3030 
C 262 2780 448 2748 525 2748 
C 589 2748 781 2787 781 3010 
C 781 3207 614 3264 525 3264 
C 486 3264 448 3258 422 3245 
C 544 3790 915 4058 1306 4058 
C 1862 4058 2227 3617 2227 3035 
C 2227 2479 1901 2000 1536 1584 
L 262 146 
L 262 0 
L 2515 0 
L 2669 989 
z
" transform="scale(0.015625)"/>
       </defs>
       <use xlink:href="#CMMI12-78" transform="scale(0.996264)"/>
       <use xlink:href="#CMR17-32" transform="translate(55.43406 -14.943915) scale(0.697382)"/>
      </g>
     </g>
    </g>
    <g id="text_3">
     <!-- $x$ -->
     <g transform="translate(438.13055 291.854786) scale(0.16 -0.16)">
      <use xlink:href="#CMMI12-78" transform="scale(0.996264)"/>
     </g>
    </g>
   </g>
   <g id="matplotlib.axis_2">
    <g id="text_4">
     <!-- $y$ -->
     <g transform="translate(217.289729 14.965056) scale(0.16 -0.16)">
      <defs>
       <path id="CMMI12-79" d="M 1683 -700 
C 1510 -939 1261 -1152 947 -1152 
C 870 -1152 563 -1152 467 -889 
C 486 -895 518 -895 531 -895 
C 723 -895 851 -729 851 -582 
C 851 -435 730 -384 634 -384 
C 531 -384 307 -458 307 -759 
C 307 -1071 582 -1286 947 -1286 
C 1587 -1286 2234 -700 2413 6 
L 3040 2485 
C 3046 2517 3059 2556 3059 2594 
C 3059 2689 2982 2753 2886 2753 
C 2829 2753 2694 2727 2643 2535 
L 2170 658 
C 2138 543 2138 530 2086 460 
C 1958 281 1747 64 1440 64 
C 1082 64 1050 415 1050 588 
C 1050 952 1222 1443 1395 1903 
C 1466 2088 1504 2178 1504 2305 
C 1504 2574 1312 2816 998 2816 
C 410 2816 173 1890 173 1839 
C 173 1814 198 1782 243 1782 
C 301 1782 307 1807 333 1897 
C 486 2433 730 2689 979 2689 
C 1037 2689 1146 2689 1146 2478 
C 1146 2312 1075 2127 979 1884 
C 666 1047 666 837 666 683 
C 666 77 1101 -64 1421 -64 
C 1606 -64 1837 -6 2061 230 
L 2067 224 
C 1971 -147 1907 -392 1683 -700 
z
" transform="scale(0.015625)"/>
      </defs>
      <use xlink:href="#CMMI12-79" transform="scale(0.996264)"/>
     </g>
    </g>
   </g>
   <g id="line2d_3">
    <defs>
     <path id="m231d86c986" d="M 3 0 
L -3 -3 
L -3 3 
z
" style="stroke: #000000; stroke-linejoin: miter"/>
    </defs>
    <g>
     <use xlink:href="#m231d86c986" x="447" y="255.616133" style="stroke: #000000; stroke-linejoin: miter"/>
    </g>
   </g>
   <g id="line2d_4">
    <defs>
     <path id="m1c61559195" d="M 0 -3 
L -3 3 
L 3 3 
z
" style="stroke: #000000; stroke-linejoin: miter"/>
    </defs>
    <g>
     <use xlink:href="#m1c61559195" x="228.9" y="18.064532" style="stroke: #000000; stroke-linejoin: miter"/>
    </g>
   </g>
   <g id="line2d_5">
    <path d="M 56.161154 -1 
L 56.21085 -0.789029 
L 60.47478 16.807739 
L 64.73871 33.900085 
L 69.002639 50.488009 
L 73.266569 66.57151 
L 77.530499 82.150589 
L 81.794428 97.225246 
L 86.058358 111.795481 
L 90.322287 125.861294 
L 94.586217 139.422684 
L 98.850147 152.479652 
L 103.114076 165.032199 
L 107.378006 177.080323 
L 111.641935 188.624024 
L 115.905865 199.663304 
L 120.169795 210.198161 
L 124.433724 220.228596 
L 128.697654 229.754609 
L 132.961584 238.7762 
L 137.225513 247.293369 
L 141.489443 255.306115 
L 145.753372 262.814439 
L 150.017302 269.818341 
L 154.281232 276.317821 
L 158.545161 282.312879 
L 162.809091 287.803515 
L 167.073021 292.789728 
L 171.33695 297.271519 
L 175.60088 301.248888 
L 179.864809 304.721835 
L 184.128739 307.690359 
L 188.392669 310.154462 
L 192.656598 312.114142 
L 196.920528 313.5694 
L 201.184457 314.520236 
L 205.448387 314.966649 
L 209.712317 314.908641 
L 213.976246 314.34621 
L 218.240176 313.279357 
L 222.504106 311.708082 
L 226.768035 309.632385 
L 231.031965 307.052265 
L 235.295894 303.967724 
L 239.559824 300.37876 
L 243.823754 296.285374 
L 248.087683 291.687565 
L 252.351613 286.585335 
L 256.615543 280.978682 
L 260.879472 274.867608 
L 265.143402 268.252111 
L 269.407331 261.132191 
L 273.671261 253.50785 
L 277.935191 245.379087 
L 282.19912 236.745901 
L 286.46305 227.608293 
L 290.726979 217.966263 
L 294.990909 207.819811 
L 299.254839 197.168936 
L 303.518768 186.013639 
L 307.782698 174.353921 
L 312.046628 162.18978 
L 316.310557 149.521216 
L 320.574487 136.348231 
L 324.838416 122.670823 
L 329.102346 108.488994 
L 333.366276 93.802742 
L 337.630205 78.612068 
L 341.894135 62.916971 
L 346.158065 46.717453 
L 350.421994 30.013512 
L 354.685924 12.805149 
L 358.009183 -1 
" clip-path="url(#ped5a2359f8)" style="fill: none; stroke: #029386; stroke-opacity: 0.7; stroke-width: 2; stroke-linecap: square"/>
   </g>
   <g id="line2d_6">
    <path d="M 9.307625 312.339156 
L 13.571554 301.209081 
L 17.835484 290.415287 
L 22.099413 279.957774 
L 26.363343 269.836543 
L 30.627273 260.051593 
L 34.891202 250.602925 
L 39.155132 241.490538 
L 43.419062 232.714433 
L 47.682991 224.274609 
L 51.946921 216.171066 
L 56.21085 208.403805 
L 60.47478 200.972826 
L 64.73871 193.878128 
L 69.002639 187.119711 
L 73.266569 180.697576 
L 77.530499 174.611722 
L 81.794428 168.86215 
L 86.058358 163.448859 
L 90.322287 158.37185 
L 94.586217 153.631122 
L 98.850147 149.226676 
L 103.114076 145.158511 
L 107.378006 141.426627 
L 111.641935 138.031025 
L 115.905865 134.971705 
L 120.169795 132.248666 
L 124.433724 129.861908 
L 128.697654 127.811432 
L 132.961584 126.097237 
L 137.225513 124.719324 
L 141.489443 123.677692 
L 145.753372 122.972342 
L 150.017302 122.603273 
L 154.281232 122.570485 
L 158.545161 122.873979 
L 162.809091 123.513755 
L 167.073021 124.489812 
L 171.33695 125.80215 
L 175.60088 127.45077 
L 179.864809 129.435671 
L 184.128739 131.756854 
L 188.392669 134.414318 
L 192.656598 137.408064 
L 196.920528 140.738091 
L 201.184457 144.4044 
L 205.448387 148.40699 
L 209.712317 152.745861 
L 213.976246 157.421014 
L 218.240176 162.432449 
L 222.504106 167.780165 
L 226.768035 173.464162 
L 231.031965 179.484441 
L 235.295894 185.841001 
L 239.559824 192.533843 
L 243.823754 199.562966 
L 248.087683 206.92837 
L 252.351613 214.630057 
L 256.615543 222.668024 
L 260.879472 231.042273 
L 265.143402 239.752804 
L 269.407331 248.799615 
L 273.671261 258.182709 
L 277.935191 267.902084 
L 282.19912 277.95774 
L 286.46305 288.349678 
L 290.726979 299.077897 
L 294.990909 310.142398 
L 299.254839 321.54318 
L 303.518768 333.280243 
L 307.782698 345.353588 
L 308.210963 346.6 
" clip-path="url(#ped5a2359f8)" style="fill: none; stroke: #c875c4; stroke-opacity: 0.7; stroke-width: 2; stroke-linecap: square"/>
   </g>
   <g id="line2d_7">
    <defs>
     <path id="m43b9c6183c" d="M 0 4 
C 1.060812 4 2.078319 3.578535 2.828427 2.828427 
C 3.578535 2.078319 4 1.060812 4 0 
C 4 -1.060812 3.578535 -2.078319 2.828427 -2.828427 
C 2.078319 -3.578535 1.060812 -4 0 -4 
C -1.060812 -4 -2.078319 -3.578535 -2.828427 -2.828427 
C -3.578535 -2.078319 -4 -1.060812 -4 0 
C -4 1.060812 -3.578535 2.078319 -2.828427 2.828427 
C -2.078319 3.578535 -1.060812 4 0 4 
z
" style="stroke: #000000; stroke-opacity: 0.7"/>
    </defs>
    <g clip-path="url(#ped5a2359f8)">
     <use xlink:href="#m43b9c6183c" x="272.52" y="255.616133" style="fill-opacity: 0.7; stroke: #000000; stroke-opacity: 0.7"/>
    </g>
   </g>
   <g id="line2d_8">
    <g clip-path="url(#ped5a2359f8)">
     <use xlink:href="#m43b9c6183c" x="98.04" y="150.037644" style="fill-opacity: 0.7; stroke: #000000; stroke-opacity: 0.7"/>
    </g>
   </g>
   <g id="LineCollection_1">
    <path d="M 98.04 255.616133 
L 98.04 150.037644 
" clip-path="url(#ped5a2359f8)" style="fill: none; stroke-dasharray: 5.55,2.4; stroke-dashoffset: 0; stroke: #000000; stroke-opacity: 0.5; stroke-width: 1.5"/>
   </g>
   <g id="patch_3">
    <path d="M 228.9 334.8 
L 228.9 18.064532 
" style="fill: none; stroke: #000000; stroke-width: 0.8; stroke-linejoin: miter; stroke-linecap: square"/>
   </g>
   <g id="patch_4">
    <path d="M 447 334.8 
L 447 18.064532 
" style="fill: none"/>
   </g>
   <g id="patch_5">
    <path d="M 10.8 255.616133 
L 447 255.616133 
" style="fill: none; stroke: #000000; stroke-width: 0.8; stroke-linejoin: miter; stroke-linecap: square"/>
   </g>
   <g id="patch_6">
    <path d="M 10.8 18.064532 
L 447 18.064532 
" style="fill: none"/>
   </g>
   <g id="patch_7">
    <path d="M 127.804726 93.730848 
Q 106.654692 112.888469 98.986115 145.909183 
" style="fill: none; opacity: 0.7; stroke: #000000; stroke-width: 2; stroke-linecap: round"/>
    <path d="M 103.55094 140.398977 
L 98.986115 145.909183 
L 97.316845 138.9512 
" style="fill: none; opacity: 0.7; stroke: #000000; stroke-width: 2; stroke-linecap: round"/>
   </g>
   <g id="text_5">
    <g id="patch_8">
     <path d="M 98.04 91.903938 
L 293.823102 91.903938 
Q 298.623102 91.903938 298.623102 87.103938 
L 298.623102 55.489196 
Q 298.623102 50.689196 293.823102 50.689196 
L 98.04 50.689196 
Q 93.24 50.689196 93.24 55.489196 
L 93.24 87.103938 
Q 93.24 91.903938 98.04 91.903938 
z
" style="fill: #ffffff; opacity: 0.7; stroke: #000000; stroke-linejoin: miter"/>
    </g>
    <!-- $x$-koordinatene til skjæringene  -->
    <g transform="translate(98.04 65.673204) scale(0.16 -0.16)">
     <defs>
      <path id="CMSS17-2d" d="M 1664 1216 
L 1664 1585 
L 64 1585 
L 64 1216 
L 1664 1216 
z
" transform="scale(0.015625)"/>
      <path id="CMSS17-6b" d="M 1696 1688 
L 2688 2739 
L 2074 2739 
L 954 1554 
L 954 4416 
L 480 4416 
L 480 0 
L 947 0 
L 947 892 
L 1376 1344 
L 2278 0 
L 2822 0 
L 1696 1688 
z
" transform="scale(0.015625)"/>
      <path id="CMSS17-6f" d="M 2829 1356 
C 2829 2176 2221 2816 1504 2816 
C 768 2816 173 2157 173 1356 
C 173 544 787 -64 1498 -64 
C 2227 -64 2829 563 2829 1356 
z
M 1504 337 
C 1050 337 659 709 659 1408 
C 659 2151 1114 2427 1498 2427 
C 1914 2427 2342 2126 2342 1408 
C 2342 683 1926 337 1504 337 
z
" transform="scale(0.015625)"/>
      <path id="CMSS17-72" d="M 954 1363 
C 954 1965 1395 2368 1958 2368 
L 1958 2789 
C 1549 2789 1165 2585 934 2253 
L 934 2758 
L 480 2758 
L 480 0 
L 954 0 
L 954 1363 
z
" transform="scale(0.015625)"/>
      <path id="CMSS17-64" d="M 2611 4416 
L 2138 4416 
L 2138 2438 
C 1939 2603 1613 2756 1254 2756 
C 672 2756 211 2131 211 1347 
C 211 562 666 -64 1235 -64 
C 1677 -64 1971 172 2125 306 
L 2125 -13 
L 2611 -13 
L 2611 4416 
z
M 2125 836 
C 2125 747 2125 653 1926 482 
C 1798 375 1645 325 1498 325 
C 1152 325 698 576 698 1340 
C 698 2134 1210 2368 1562 2368 
C 1798 2368 1990 2254 2125 2065 
L 2125 836 
z
" transform="scale(0.015625)"/>
      <path id="CMSS17-69" d="M 979 4183 
L 442 4183 
L 442 3648 
L 979 3648 
L 979 4183 
z
M 947 2739 
L 474 2739 
L 474 0 
L 947 0 
L 947 2739 
z
" transform="scale(0.015625)"/>
      <path id="CMSS17-6e" d="M 2618 1877 
C 2618 2283 2522 2816 1798 2816 
C 1389 2816 1120 2606 941 2389 
L 941 2758 
L 474 2758 
L 474 0 
L 960 0 
L 960 1559 
C 960 1964 1114 2428 1549 2428 
C 2112 2428 2131 2048 2131 1829 
L 2131 0 
L 2618 0 
L 2618 1877 
z
" transform="scale(0.015625)"/>
      <path id="CMSS17-61" d="M 2406 1791 
C 2406 2392 1978 2808 1402 2808 
C 1120 2808 813 2757 461 2553 
L 499 2135 
C 659 2248 934 2432 1395 2432 
C 1722 2432 1920 2180 1920 1782 
L 1920 1536 
C 896 1536 256 1238 256 726 
C 256 461 416 -64 947 -64 
C 1043 -64 1562 -64 1933 217 
L 1933 -19 
L 2406 -19 
L 2406 1791 
z
M 1920 816 
C 1920 701 1920 548 1728 434 
C 1562 325 1350 325 1261 325 
C 941 325 723 511 723 744 
C 723 1211 1722 1211 1920 1211 
L 1920 816 
z
" transform="scale(0.015625)"/>
      <path id="CMSS17-74" d="M 1069 2368 
L 1901 2368 
L 1901 2737 
L 1069 2737 
L 1069 3520 
L 614 3520 
L 614 2737 
L 109 2737 
L 109 2368 
L 602 2368 
L 602 749 
C 602 384 685 -64 1107 -64 
C 1427 -64 1722 25 2003 172 
L 1901 548 
C 1747 414 1562 337 1363 337 
C 1082 337 1069 696 1069 856 
L 1069 2368 
z
" transform="scale(0.015625)"/>
      <path id="CMSS17-65" d="M 2502 1377 
C 2502 1590 2490 2003 2285 2345 
C 2061 2713 1696 2816 1421 2816 
C 755 2816 192 2188 192 1375 
C 192 582 774 -64 1510 -64 
C 1798 -64 2150 19 2470 248 
C 2470 274 2458 414 2451 420 
C 2451 433 2432 630 2432 656 
C 2125 407 1773 325 1517 325 
C 1107 325 666 667 646 1377 
L 2502 1377 
z
M 698 1728 
C 781 2084 1062 2421 1421 2421 
C 1517 2421 1965 2421 2080 1728 
L 698 1728 
z
" transform="scale(0.015625)"/>
      <path id="CMSS17-6c" d="M 947 4416 
L 474 4416 
L 474 0 
L 947 0 
L 947 4416 
z
" transform="scale(0.015625)"/>
      <path id="CMSS17-73" d="M 2061 2627 
C 1683 2807 1389 2807 1197 2807 
C 742 2807 198 2648 198 2003 
C 198 1359 902 1218 1094 1179 
C 1389 1122 1715 1058 1715 740 
C 1715 337 1254 337 1171 337 
C 915 337 563 407 243 638 
L 166 210 
C 531 0 883 -64 1178 -64 
C 1965 -64 2163 416 2163 781 
C 2163 1094 1984 1305 1862 1401 
C 1651 1568 1574 1587 1050 1696 
C 960 1709 646 1779 646 2066 
C 646 2432 1050 2432 1139 2432 
C 1555 2432 1811 2303 1984 2208 
L 2061 2627 
z
" transform="scale(0.015625)"/>
      <path id="CMSS17-6a" d="M 1114 4224 
L 576 4224 
L 576 3689 
L 1114 3689 
L 1114 4224 
z
M -371 -1064 
C -166 -1191 83 -1280 352 -1280 
C 755 -1280 1114 -935 1114 -366 
L 1114 2767 
L 640 2767 
L 640 -425 
C 640 -815 346 -873 179 -873 
C 38 -873 -128 -828 -275 -675 
L -371 -1064 
z
" transform="scale(0.015625)"/>
      <path id="CMSS17-1a" d="M 4173 1377 
C 4173 1588 4173 2808 3155 2808 
C 2874 2808 2528 2680 2259 2354 
C 2086 2617 1811 2808 1408 2808 
C 1178 2808 838 2776 461 2553 
L 499 2128 
C 736 2296 1005 2432 1402 2432 
C 1709 2432 1926 2190 1926 1772 
L 1926 1536 
C 1216 1536 269 1322 269 717 
C 269 503 384 -64 966 -64 
C 992 -64 1382 -64 1709 38 
C 1856 83 2112 164 2278 387 
C 2304 355 2656 -64 3251 -64 
C 3546 -64 3866 32 4141 248 
C 4141 274 4128 414 4122 420 
C 4122 433 4102 630 4102 656 
C 3814 401 3488 325 3258 325 
C 2803 325 2419 749 2413 1377 
L 4173 1377 
z
M 2458 1728 
C 2573 2176 2874 2432 3155 2432 
C 3398 2432 3674 2254 3744 1728 
L 2458 1728 
z
M 1939 1085 
C 1952 973 1952 880 1952 773 
C 1952 325 1325 325 1267 325 
C 941 325 736 518 736 735 
C 736 1160 1658 1160 1933 1160 
L 1939 1085 
z
" transform="scale(0.015625)"/>
      <path id="CMSS17-67" d="M 2848 2808 
C 2483 2808 2170 2738 1914 2617 
C 1702 2777 1485 2808 1338 2808 
C 781 2808 358 2349 358 1814 
C 358 1468 550 1207 563 1195 
C 448 1035 384 863 384 672 
C 384 448 474 289 544 200 
C 211 -3 166 -314 166 -435 
C 166 -898 749 -1280 1498 -1280 
C 2253 -1280 2835 -898 2835 -428 
C 2835 448 1856 448 1587 448 
L 1069 448 
C 973 448 717 448 717 791 
C 717 921 774 1004 781 1010 
C 877 940 1075 832 1338 832 
C 1869 832 2310 1278 2310 1827 
C 2310 2132 2170 2355 2112 2432 
L 2131 2432 
C 2150 2432 2419 2432 2515 2432 
C 2720 2432 2739 2429 2918 2419 
L 2848 2808 
z
M 1338 1182 
C 1120 1182 813 1315 813 1823 
C 813 2375 1165 2464 1331 2464 
C 1549 2464 1856 2331 1856 1823 
C 1856 1271 1504 1182 1338 1182 
z
M 1581 -10 
C 1734 -10 2381 -10 2381 -442 
C 2381 -714 1984 -929 1504 -929 
C 1018 -929 621 -720 621 -435 
C 621 -403 621 -10 1062 -10 
L 1581 -10 
z
" transform="scale(0.015625)"/>
     </defs>
     <use xlink:href="#CMMI12-78" transform="scale(0.996264)"/>
     <use xlink:href="#CMSS17-2d" transform="translate(55.43406 0) scale(0.996264)"/>
     <use xlink:href="#CMSS17-6b" transform="translate(86.663172 0) scale(0.996264)"/>
     <use xlink:href="#CMSS17-6f" transform="translate(129.663208 0) scale(0.996264)"/>
     <use xlink:href="#CMSS17-6f" transform="translate(179.10927 0) scale(0.996264)"/>
     <use xlink:href="#CMSS17-72" transform="translate(223.350439 0) scale(0.996264)"/>
     <use xlink:href="#CMSS17-64" transform="translate(255.260212 0) scale(0.996264)"/>
     <use xlink:href="#CMSS17-69" transform="translate(303.465155 0) scale(0.996264)"/>
     <use xlink:href="#CMSS17-6e" transform="translate(325.645878 0) scale(0.996264)"/>
     <use xlink:href="#CMSS17-61" transform="translate(373.850821 0) scale(0.996264)"/>
     <use xlink:href="#CMSS17-74" transform="translate(418.772742 0) scale(0.996264)"/>
     <use xlink:href="#CMSS17-65" transform="translate(452.604309 0) scale(0.996264)"/>
     <use xlink:href="#CMSS17-6e" transform="translate(494.243131 0) scale(0.996264)"/>
     <use xlink:href="#CMSS17-65" transform="translate(542.448074 0) scale(0.996264)"/>
     <use xlink:href="#CMSS17-74" transform="translate(615.316009 0) scale(0.996264)"/>
     <use xlink:href="#CMSS17-69" transform="translate(649.147575 0) scale(0.996264)"/>
     <use xlink:href="#CMSS17-6c" transform="translate(671.328298 0) scale(0.996264)"/>
     <use xlink:href="#CMSS17-73" transform="translate(724.738134 0) scale(0.996264)"/>
     <use xlink:href="#CMSS17-6b" transform="translate(760.651676 0) scale(0.996264)"/>
     <use xlink:href="#CMSS17-6a" transform="translate(806.254165 0) scale(0.996264)"/>
     <use xlink:href="#CMSS17-1a" transform="translate(831.037251 0) scale(0.996264)"/>
     <use xlink:href="#CMSS17-72" transform="translate(898.700278 0) scale(0.996264)"/>
     <use xlink:href="#CMSS17-69" transform="translate(930.610051 0) scale(0.996264)"/>
     <use xlink:href="#CMSS17-6e" transform="translate(952.790774 0) scale(0.996264)"/>
     <use xlink:href="#CMSS17-67" transform="translate(1000.995717 0) scale(0.996264)"/>
     <use xlink:href="#CMSS17-65" transform="translate(1047.83934 0) scale(0.996264)"/>
     <use xlink:href="#CMSS17-6e" transform="translate(1089.478162 0) scale(0.996264)"/>
     <use xlink:href="#CMSS17-65" transform="translate(1137.683105 0) scale(0.996264)"/>
    </g>
    <!--  løser likningen $f(x) = g(x)$ -->
    <g transform="translate(98.04 83.118882) scale(0.16 -0.16)">
     <defs>
      <path id="CMSS17-1c" d="M 2758 3268 
L 2413 3459 
L 2010 2708 
C 1926 2746 1728 2816 1504 2816 
C 768 2816 173 2157 173 1356 
C 173 888 384 479 672 248 
L 243 -535 
L 589 -727 
L 1005 38 
C 1107 -7 1286 -64 1498 -64 
C 2227 -64 2829 563 2829 1357 
C 2829 1799 2643 2210 2336 2497 
L 2758 3268 
z
M 877 643 
C 685 886 659 1179 659 1363 
C 659 2090 1075 2427 1504 2427 
C 1613 2427 1722 2408 1818 2363 
L 877 643 
z
M 2125 2097 
C 2310 1855 2342 1549 2342 1351 
C 2342 631 1907 325 1498 325 
C 1395 325 1293 344 1197 383 
L 2125 2097 
z
" transform="scale(0.015625)"/>
      <path id="CMMI12-66" d="M 2854 2566 
C 2982 2566 3034 2566 3034 2688 
C 3034 2752 2982 2752 2867 2752 
L 2349 2752 
C 2470 3429 2560 3897 2611 4107 
C 2650 4265 2784 4416 2950 4416 
C 3085 4416 3219 4358 3283 4298 
C 3034 4272 2957 4082 2957 3969 
C 2957 3837 3053 3759 3174 3759 
C 3302 3759 3494 3870 3494 4119 
C 3494 4393 3226 4544 2944 4544 
C 2669 4544 2400 4334 2272 4078 
C 2157 3848 2093 3611 1946 2752 
L 1517 2752 
C 1395 2752 1331 2752 1331 2637 
C 1331 2566 1370 2566 1498 2566 
L 1907 2566 
C 1792 1976 1530 542 1382 -137 
C 1274 -689 1178 -1152 858 -1152 
C 838 -1152 653 -1152 538 -1031 
C 864 -1005 864 -726 864 -720 
C 864 -593 768 -517 646 -517 
C 518 -517 326 -625 326 -867 
C 326 -1140 608 -1280 858 -1280 
C 1510 -1280 1779 -118 1850 199 
C 1965 688 2278 2376 2310 2566 
L 2854 2566 
z
" transform="scale(0.015625)"/>
      <path id="CMR17-28" d="M 1958 -1561 
C 1958 -1555 1958 -1542 1939 -1523 
C 1645 -1224 858 -407 858 1581 
C 858 3569 1632 4379 1946 4697 
C 1946 4704 1958 4717 1958 4736 
C 1958 4755 1939 4768 1914 4768 
C 1843 4768 1299 4296 986 3594 
C 666 2887 576 2199 576 1588 
C 576 1128 621 351 1005 -471 
C 1312 -1135 1837 -1600 1914 -1600 
C 1946 -1600 1958 -1587 1958 -1561 
z
" transform="scale(0.015625)"/>
      <path id="CMR17-29" d="M 1683 1581 
C 1683 2040 1638 2817 1254 3639 
C 947 4303 422 4768 346 4768 
C 326 4768 301 4761 301 4729 
C 301 4717 307 4710 314 4697 
C 621 4378 1402 3568 1402 1584 
C 1402 -407 627 -1217 314 -1537 
C 307 -1549 301 -1556 301 -1568 
C 301 -1600 326 -1600 346 -1600 
C 416 -1600 960 -1128 1274 -426 
C 1594 281 1683 969 1683 1581 
z
" transform="scale(0.015625)"/>
      <path id="CMR17-3d" d="M 4115 2017 
C 4211 2017 4307 2017 4307 2125 
C 4307 2240 4198 2240 4090 2240 
L 512 2240 
C 403 2240 294 2240 294 2125 
C 294 2017 390 2017 486 2017 
L 4115 2017 
z
M 4090 896 
C 4198 896 4307 896 4307 1011 
C 4307 1119 4211 1119 4115 1119 
L 486 1119 
C 390 1119 294 1119 294 1011 
C 294 896 403 896 512 896 
L 4090 896 
z
" transform="scale(0.015625)"/>
      <path id="CMMI12-67" d="M 2163 811 
C 2138 709 2125 683 2042 588 
C 1779 249 1510 128 1312 128 
C 1101 128 902 294 902 734 
C 902 1073 1094 1788 1235 2076 
C 1421 2433 1709 2689 1978 2689 
C 2400 2689 2483 2165 2483 2127 
L 2464 2037 
L 2163 811 
z
M 2560 2395 
C 2477 2580 2298 2816 1978 2816 
C 1280 2816 486 1941 486 990 
C 486 326 890 0 1299 0 
C 1638 0 1939 268 2054 396 
L 1914 -171 
C 1824 -516 1786 -674 1555 -894 
C 1293 -1152 1050 -1152 909 -1152 
C 717 -1152 557 -1139 397 -1089 
C 602 -1033 653 -858 653 -789 
C 653 -689 576 -588 435 -588 
C 282 -588 115 -714 115 -922 
C 115 -1180 378 -1280 922 -1280 
C 1747 -1280 2176 -753 2259 -410 
L 2970 2435 
C 2989 2511 2989 2524 2989 2536 
C 2989 2625 2918 2695 2822 2695 
C 2669 2695 2579 2567 2560 2395 
z
" transform="scale(0.015625)"/>
     </defs>
     <use xlink:href="#CMSS17-6c" transform="scale(0.996264)"/>
     <use xlink:href="#CMSS17-1c" transform="translate(22.180723 0) scale(0.996264)"/>
     <use xlink:href="#CMSS17-73" transform="translate(69.024347 0) scale(0.996264)"/>
     <use xlink:href="#CMSS17-65" transform="translate(104.937889 0) scale(0.996264)"/>
     <use xlink:href="#CMSS17-72" transform="translate(146.576711 0) scale(0.996264)"/>
     <use xlink:href="#CMSS17-6c" transform="translate(209.715596 0) scale(0.996264)"/>
     <use xlink:href="#CMSS17-69" transform="translate(231.896319 0) scale(0.996264)"/>
     <use xlink:href="#CMSS17-6b" transform="translate(254.077042 0) scale(0.996264)"/>
     <use xlink:href="#CMSS17-6e" transform="translate(299.679531 0) scale(0.996264)"/>
     <use xlink:href="#CMSS17-69" transform="translate(347.884474 0) scale(0.996264)"/>
     <use xlink:href="#CMSS17-6e" transform="translate(370.065197 0) scale(0.996264)"/>
     <use xlink:href="#CMSS17-67" transform="translate(418.270141 0) scale(0.996264)"/>
     <use xlink:href="#CMSS17-65" transform="translate(465.113764 0) scale(0.996264)"/>
     <use xlink:href="#CMSS17-6e" transform="translate(506.752586 0) scale(0.996264)"/>
     <use xlink:href="#CMMI12-66" transform="translate(586.186642 0) scale(0.996264)"/>
     <use xlink:href="#CMR17-28" transform="translate(644.906947 0) scale(0.996264)"/>
     <use xlink:href="#CMMI12-78" transform="translate(680.187715 0) scale(0.996264)"/>
     <use xlink:href="#CMR17-29" transform="translate(735.621774 0) scale(0.996264)"/>
     <use xlink:href="#CMR17-3d" transform="translate(798.576551 0) scale(0.996264)"/>
     <use xlink:href="#CMMI12-67" transform="translate(897.965348 0) scale(0.996264)"/>
     <use xlink:href="#CMR17-28" transform="translate(948.250837 0) scale(0.996264)"/>
     <use xlink:href="#CMMI12-78" transform="translate(983.531605 0) scale(0.996264)"/>
     <use xlink:href="#CMR17-29" transform="translate(1038.965665 0) scale(0.996264)"/>
    </g>
   </g>
   <g id="patch_9">
    <path d="M 210.65162 94.117793 
Q 254.882766 168.294201 271.685243 251.465117 
" style="fill: none; opacity: 0.7; stroke: #000000; stroke-width: 2; stroke-linecap: round"/>
    <path d="M 273.554528 244.55818 
L 271.685243 251.465117 
L 267.281265 245.825526 
" style="fill: none; opacity: 0.7; stroke: #000000; stroke-width: 2; stroke-linecap: round"/>
   </g>
   <g id="text_6">
    <g id="patch_10">
     <path d="M 98.04 91.903938 
L 293.823102 91.903938 
Q 298.623102 91.903938 298.623102 87.103938 
L 298.623102 55.489196 
Q 298.623102 50.689196 293.823102 50.689196 
L 98.04 50.689196 
Q 93.24 50.689196 93.24 55.489196 
L 93.24 87.103938 
Q 93.24 91.903938 98.04 91.903938 
z
" style="fill: #ffffff; opacity: 0.7; stroke: #000000; stroke-linejoin: miter"/>
    </g>
    <!-- $x$-koordinatene til skjæringene  -->
    <g transform="translate(98.04 65.673204) scale(0.16 -0.16)">
     <use xlink:href="#CMMI12-78" transform="scale(0.996264)"/>
     <use xlink:href="#CMSS17-2d" transform="translate(55.43406 0) scale(0.996264)"/>
     <use xlink:href="#CMSS17-6b" transform="translate(86.663172 0) scale(0.996264)"/>
     <use xlink:href="#CMSS17-6f" transform="translate(129.663208 0) scale(0.996264)"/>
     <use xlink:href="#CMSS17-6f" transform="translate(179.10927 0) scale(0.996264)"/>
     <use xlink:href="#CMSS17-72" transform="translate(223.350439 0) scale(0.996264)"/>
     <use xlink:href="#CMSS17-64" transform="translate(255.260212 0) scale(0.996264)"/>
     <use xlink:href="#CMSS17-69" transform="translate(303.465155 0) scale(0.996264)"/>
     <use xlink:href="#CMSS17-6e" transform="translate(325.645878 0) scale(0.996264)"/>
     <use xlink:href="#CMSS17-61" transform="translate(373.850821 0) scale(0.996264)"/>
     <use xlink:href="#CMSS17-74" transform="translate(418.772742 0) scale(0.996264)"/>
     <use xlink:href="#CMSS17-65" transform="translate(452.604309 0) scale(0.996264)"/>
     <use xlink:href="#CMSS17-6e" transform="translate(494.243131 0) scale(0.996264)"/>
     <use xlink:href="#CMSS17-65" transform="translate(542.448074 0) scale(0.996264)"/>
     <use xlink:href="#CMSS17-74" transform="translate(615.316009 0) scale(0.996264)"/>
     <use xlink:href="#CMSS17-69" transform="translate(649.147575 0) scale(0.996264)"/>
     <use xlink:href="#CMSS17-6c" transform="translate(671.328298 0) scale(0.996264)"/>
     <use xlink:href="#CMSS17-73" transform="translate(724.738134 0) scale(0.996264)"/>
     <use xlink:href="#CMSS17-6b" transform="translate(760.651676 0) scale(0.996264)"/>
     <use xlink:href="#CMSS17-6a" transform="translate(806.254165 0) scale(0.996264)"/>
     <use xlink:href="#CMSS17-1a" transform="translate(831.037251 0) scale(0.996264)"/>
     <use xlink:href="#CMSS17-72" transform="translate(898.700278 0) scale(0.996264)"/>
     <use xlink:href="#CMSS17-69" transform="translate(930.610051 0) scale(0.996264)"/>
     <use xlink:href="#CMSS17-6e" transform="translate(952.790774 0) scale(0.996264)"/>
     <use xlink:href="#CMSS17-67" transform="translate(1000.995717 0) scale(0.996264)"/>
     <use xlink:href="#CMSS17-65" transform="translate(1047.83934 0) scale(0.996264)"/>
     <use xlink:href="#CMSS17-6e" transform="translate(1089.478162 0) scale(0.996264)"/>
     <use xlink:href="#CMSS17-65" transform="translate(1137.683105 0) scale(0.996264)"/>
    </g>
    <!--  løser likningen $f(x) = g(x)$ -->
    <g transform="translate(98.04 83.118882) scale(0.16 -0.16)">
     <use xlink:href="#CMSS17-6c" transform="scale(0.996264)"/>
     <use xlink:href="#CMSS17-1c" transform="translate(22.180723 0) scale(0.996264)"/>
     <use xlink:href="#CMSS17-73" transform="translate(69.024347 0) scale(0.996264)"/>
     <use xlink:href="#CMSS17-65" transform="translate(104.937889 0) scale(0.996264)"/>
     <use xlink:href="#CMSS17-72" transform="translate(146.576711 0) scale(0.996264)"/>
     <use xlink:href="#CMSS17-6c" transform="translate(209.715596 0) scale(0.996264)"/>
     <use xlink:href="#CMSS17-69" transform="translate(231.896319 0) scale(0.996264)"/>
     <use xlink:href="#CMSS17-6b" transform="translate(254.077042 0) scale(0.996264)"/>
     <use xlink:href="#CMSS17-6e" transform="translate(299.679531 0) scale(0.996264)"/>
     <use xlink:href="#CMSS17-69" transform="translate(347.884474 0) scale(0.996264)"/>
     <use xlink:href="#CMSS17-6e" transform="translate(370.065197 0) scale(0.996264)"/>
     <use xlink:href="#CMSS17-67" transform="translate(418.270141 0) scale(0.996264)"/>
     <use xlink:href="#CMSS17-65" transform="translate(465.113764 0) scale(0.996264)"/>
     <use xlink:href="#CMSS17-6e" transform="translate(506.752586 0) scale(0.996264)"/>
     <use xlink:href="#CMMI12-66" transform="translate(586.186642 0) scale(0.996264)"/>
     <use xlink:href="#CMR17-28" transform="translate(644.906947 0) scale(0.996264)"/>
     <use xlink:href="#CMMI12-78" transform="translate(680.187715 0) scale(0.996264)"/>
     <use xlink:href="#CMR17-29" transform="translate(735.621774 0) scale(0.996264)"/>
     <use xlink:href="#CMR17-3d" transform="translate(798.576551 0) scale(0.996264)"/>
     <use xlink:href="#CMMI12-67" transform="translate(897.965348 0) scale(0.996264)"/>
     <use xlink:href="#CMR17-28" transform="translate(948.250837 0) scale(0.996264)"/>
     <use xlink:href="#CMMI12-78" transform="translate(983.531605 0) scale(0.996264)"/>
     <use xlink:href="#CMR17-29" transform="translate(1038.965665 0) scale(0.996264)"/>
    </g>
   </g>
   <g id="legend_1">
    <g id="patch_11">
     <path d="M 376.906682 201.131742 
L 435.8 201.131742 
Q 439 201.131742 439 197.931742 
L 439 154.93279 
Q 439 151.73279 435.8 151.73279 
L 376.906682 151.73279 
Q 373.706682 151.73279 373.706682 154.93279 
L 373.706682 197.931742 
Q 373.706682 201.131742 376.906682 201.131742 
z
" style="fill: #ffffff; opacity: 0.8; stroke: #cccccc; stroke-linejoin: miter"/>
    </g>
    <g id="line2d_9">
     <path d="M 380.106682 163.73279 
L 396.106682 163.73279 
L 412.106682 163.73279 
" style="fill: none; stroke: #029386; stroke-opacity: 0.7; stroke-width: 2; stroke-linecap: square"/>
    </g>
    <g id="text_7">
     <!-- $f$ -->
     <g transform="translate(424.906682 169.33279) scale(0.16 -0.16)">
      <use xlink:href="#CMMI12-66" transform="scale(0.996264)"/>
     </g>
    </g>
    <g id="line2d_10">
     <path d="M 380.106682 186.032266 
L 396.106682 186.032266 
L 412.106682 186.032266 
" style="fill: none; stroke: #c875c4; stroke-opacity: 0.7; stroke-width: 2; stroke-linecap: square"/>
    </g>
    <g id="text_8">
     <!-- $g$ -->
     <g transform="translate(424.906682 191.632266) scale(0.16 -0.16)">
      <use xlink:href="#CMMI12-67" transform="scale(0.996264)"/>
     </g>
    </g>
   </g>
  </g>
 </g>
 <defs>
  <clipPath id="ped5a2359f8">
   <rect x="10.8" y="18.064532" width="436.2" height="316.735468"/>
  </clipPath>
 </defs>
</svg>
