<?xml version="1.0" encoding="utf-8" standalone="no"?>
<!DOCTYPE svg PUBLIC "-//W3C//DTD SVG 1.1//EN"
  "http://www.w3.org/Graphics/SVG/1.1/DTD/svg11.dtd">
<svg xmlns:xlink="http://www.w3.org/1999/xlink" width="460.8pt" height="345.6pt" viewBox="0 0 460.8 345.6" xmlns="http://www.w3.org/2000/svg" version="1.1">
 <metadata>
  <rdf:RDF xmlns:dc="http://purl.org/dc/elements/1.1/" xmlns:cc="http://creativecommons.org/ns#" xmlns:rdf="http://www.w3.org/1999/02/22-rdf-syntax-ns#">
   <cc:Work>
    <dc:type rdf:resource="http://purl.org/dc/dcmitype/StillImage"/>
    <dc:date>2025-04-15T00:40:40.835006</dc:date>
    <dc:format>image/svg+xml</dc:format>
    <dc:creator>
     <cc:Agent>
      <dc:title>Matplotlib v3.9.1, https://matplotlib.org/</dc:title>
     </cc:Agent>
    </dc:creator>
   </cc:Work>
  </rdf:RDF>
 </metadata>
 <defs>
  <style type="text/css">*{stroke-linejoin: round; stroke-linecap: butt}</style>
 </defs>
 <g id="figure_1">
  <g id="patch_1">
   <path d="M 0 345.6 
L 460.8 345.6 
L 460.8 0 
L 0 0 
z
" style="fill: #ffffff"/>
  </g>
  <g id="axes_1">
   <g id="patch_2">
    <path d="M 10.8 334.8 
L 447 334.8 
L 447 18.064532 
L 10.8 18.064532 
z
" style="fill: #ffffff"/>
   </g>
   <g id="matplotlib.axis_1">
    <g id="text_1">
     <!-- $x$ -->
     <g transform="translate(438.13055 244.291099) scale(0.16 -0.16)">
      <defs>
       <path id="CMMI12-78" d="M 3034 2606 
C 2829 2567 2752 2414 2752 2293 
C 2752 2139 2874 2088 2963 2088 
C 3155 2088 3290 2254 3290 2427 
C 3290 2695 2982 2816 2714 2816 
C 2323 2816 2106 2433 2048 2312 
C 1901 2816 1504 2816 1389 2816 
C 736 2816 390 1980 390 1839 
C 390 1814 416 1782 461 1782 
C 512 1782 525 1820 538 1846 
C 755 2555 1184 2689 1370 2689 
C 1658 2689 1715 2420 1715 2267 
C 1715 2127 1677 1980 1600 1673 
L 1382 798 
C 1286 415 1101 64 762 64 
C 730 64 570 64 435 147 
C 666 192 717 383 717 460 
C 717 588 621 664 499 664 
C 346 664 179 530 179 326 
C 179 57 480 -64 755 -64 
C 1062 -64 1280 179 1414 441 
C 1517 64 1837 -64 2074 -64 
C 2726 -64 3072 773 3072 913 
C 3072 945 3046 971 3008 971 
C 2950 971 2944 939 2925 888 
C 2752 326 2381 64 2093 64 
C 1869 64 1747 230 1747 492 
C 1747 632 1773 734 1875 1156 
L 2099 2024 
C 2195 2408 2413 2689 2707 2689 
C 2720 2689 2899 2689 3034 2606 
z
" transform="scale(0.015625)"/>
      </defs>
      <use xlink:href="#CMMI12-78" transform="scale(0.996264)"/>
     </g>
    </g>
   </g>
   <g id="matplotlib.axis_2">
    <g id="text_2">
     <!-- $y$ -->
     <g transform="translate(217.289729 14.965056) scale(0.16 -0.16)">
      <defs>
       <path id="CMMI12-79" d="M 1683 -700 
C 1510 -939 1261 -1152 947 -1152 
C 870 -1152 563 -1152 467 -889 
C 486 -895 518 -895 531 -895 
C 723 -895 851 -729 851 -582 
C 851 -435 730 -384 634 -384 
C 531 -384 307 -458 307 -759 
C 307 -1071 582 -1286 947 -1286 
C 1587 -1286 2234 -700 2413 6 
L 3040 2485 
C 3046 2517 3059 2556 3059 2594 
C 3059 2689 2982 2753 2886 2753 
C 2829 2753 2694 2727 2643 2535 
L 2170 658 
C 2138 543 2138 530 2086 460 
C 1958 281 1747 64 1440 64 
C 1082 64 1050 415 1050 588 
C 1050 952 1222 1443 1395 1903 
C 1466 2088 1504 2178 1504 2305 
C 1504 2574 1312 2816 998 2816 
C 410 2816 173 1890 173 1839 
C 173 1814 198 1782 243 1782 
C 301 1782 307 1807 333 1897 
C 486 2433 730 2689 979 2689 
C 1037 2689 1146 2689 1146 2478 
C 1146 2312 1075 2127 979 1884 
C 666 1047 666 837 666 683 
C 666 77 1101 -64 1421 -64 
C 1606 -64 1837 -6 2061 230 
L 2067 224 
C 1971 -147 1907 -392 1683 -700 
z
" transform="scale(0.015625)"/>
      </defs>
      <use xlink:href="#CMMI12-79" transform="scale(0.996264)"/>
     </g>
    </g>
   </g>
   <g id="line2d_1">
    <defs>
     <path id="m8664a2c945" d="M 3 0 
L -3 -3 
L -3 3 
z
" style="stroke: #000000; stroke-linejoin: miter"/>
    </defs>
    <g>
     <use xlink:href="#m8664a2c945" x="447" y="229.221511" style="stroke: #000000; stroke-linejoin: miter"/>
    </g>
   </g>
   <g id="line2d_2">
    <defs>
     <path id="m0f21ec53c1" d="M 0 -3 
L -3 3 
L 3 3 
z
" style="stroke: #000000; stroke-linejoin: miter"/>
    </defs>
    <g>
     <use xlink:href="#m0f21ec53c1" x="228.9" y="18.064532" style="stroke: #000000; stroke-linejoin: miter"/>
    </g>
   </g>
   <g id="line2d_3">
    <path d="M 179.679025 -1 
L 184.001758 18.206647 
L 188.262564 36.163966 
L 192.41685 52.741244 
L 196.464615 68.009197 
L 200.405861 82.036728 
L 204.240586 94.89093 
L 207.968791 106.637078 
L 211.590476 117.338637 
L 215.105641 127.057258 
L 218.514286 135.852779 
L 221.81641 143.783223 
L 225.012015 150.904802 
L 228.101099 157.271914 
L 231.190183 163.130709 
L 234.172747 168.305149 
L 237.048791 172.846006 
L 239.818315 176.802237 
L 242.481319 180.220988 
L 245.037802 183.14759 
L 247.487766 185.625561 
L 249.831209 187.696607 
L 252.174652 189.475113 
L 254.411575 190.899882 
L 256.648498 192.058102 
L 258.778901 192.913356 
L 260.909304 193.526842 
L 262.933187 193.885717 
L 264.95707 194.026396 
L 266.980952 193.948879 
L 269.004835 193.653166 
L 271.028718 193.139258 
L 273.159121 192.362578 
L 275.289524 191.34413 
L 277.419927 190.083915 
L 279.65685 188.500485 
L 282.000293 186.555764 
L 284.343736 184.318503 
L 286.7937 181.666761 
L 289.350183 178.558833 
L 291.906667 175.102759 
L 294.56967 171.132475 
L 297.339194 166.602649 
L 300.215238 161.466136 
L 303.197802 155.673979 
L 306.286886 149.175406 
L 309.482491 141.917832 
L 312.784615 133.84686 
L 316.19326 124.906278 
L 319.708425 115.038063 
L 323.33011 104.182377 
L 327.058315 92.277568 
L 330.89304 79.260174 
L 334.834286 65.064915 
L 338.882051 49.624703 
L 343.036337 32.870633 
L 347.297143 14.731987 
L 350.820986 -1 
L 350.820986 -1 
" clip-path="url(#p0b530c071f)" style="fill: none; stroke: #008080; stroke-opacity: 0.8; stroke-width: 2.5; stroke-linecap: square"/>
   </g>
   <g id="line2d_4">
    <path d="M 152.966066 -1 
L 157.904322 27.887567 
L 162.804249 55.266889 
L 167.597656 80.813458 
L 172.284542 104.608871 
L 176.864908 126.732911 
L 181.338755 147.263549 
L 185.706081 166.276942 
L 189.966886 183.847433 
L 194.121172 200.047553 
L 198.168938 214.948018 
L 202.110183 228.617733 
L 205.944908 241.123788 
L 209.673114 252.531461 
L 213.294799 262.904216 
L 216.809963 272.303703 
L 220.218608 280.789761 
L 223.520733 288.420413 
L 226.716337 295.25187 
L 229.805421 301.338531 
L 232.787985 306.73298 
L 235.664029 311.485989 
L 238.433553 315.646514 
L 241.096557 319.261702 
L 243.65304 322.376882 
L 246.209524 325.143917 
L 248.659487 327.46897 
L 251.00293 329.393746 
L 253.239853 330.958136 
L 255.476777 332.255977 
L 257.607179 333.244204 
L 259.737582 333.990663 
L 261.867985 334.495353 
L 263.891868 334.750872 
L 265.915751 334.788195 
L 267.939634 334.607322 
L 269.963516 334.208254 
L 271.987399 333.59099 
L 274.117802 332.705515 
L 276.248205 331.578271 
L 278.485128 330.134463 
L 280.722051 328.424105 
L 283.065495 326.346411 
L 285.515458 323.861489 
L 287.965421 321.056829 
L 290.521905 317.789334 
L 293.184908 314.015487 
L 295.954432 309.689954 
L 298.830476 304.765593 
L 301.70652 299.40061 
L 304.689084 293.37152 
L 307.778168 286.627552 
L 310.973773 279.116122 
L 314.275897 270.782831 
L 317.684542 261.57147 
L 321.199707 251.424013 
L 324.821392 240.280622 
L 328.549597 228.079648 
L 332.384322 214.757626 
L 336.325568 200.249278 
L 340.373333 184.487514 
L 344.527619 167.40343 
L 348.788425 148.926309 
L 353.155751 128.98362 
L 357.629597 107.501021 
L 362.209963 84.402353 
L 366.89685 59.609647 
L 371.690256 33.043119 
L 376.590183 4.621173 
L 377.53394 -1 
L 377.53394 -1 
" clip-path="url(#p0b530c071f)" style="fill: none; stroke: #4169e1; stroke-opacity: 0.8; stroke-width: 2.5; stroke-linecap: square"/>
   </g>
   <g id="patch_3">
    <path d="M 228.9 334.8 
L 228.9 18.064532 
" style="fill: none; stroke: #000000; stroke-width: 0.8; stroke-linejoin: miter; stroke-linecap: square"/>
   </g>
   <g id="patch_4">
    <path d="M 447 334.8 
L 447 18.064532 
" style="fill: none"/>
   </g>
   <g id="patch_5">
    <path d="M 10.8 229.221511 
L 447 229.221511 
" style="fill: none; stroke: #000000; stroke-width: 0.8; stroke-linejoin: miter; stroke-linecap: square"/>
   </g>
   <g id="patch_6">
    <path d="M 10.8 18.064532 
L 447 18.064532 
" style="fill: none"/>
   </g>
   <g id="text_3">
    <g id="patch_7">
     <path d="M 245.549562 97.338256 
L 284.950438 97.338256 
Q 290.350438 97.338256 290.350438 91.938256 
L 290.350438 75.996892 
Q 290.350438 70.596892 284.950438 70.596892 
L 245.549562 70.596892 
Q 240.149562 70.596892 240.149562 75.996892 
L 240.149562 91.938256 
Q 240.149562 97.338256 245.549562 97.338256 
z
" style="fill: #008080; opacity: 0.5; stroke: #000000; stroke-linejoin: miter"/>
    </g>
    <!-- $c &gt; 0$ -->
    <g transform="translate(245.549562 88.450192) scale(0.18 -0.18)">
     <defs>
      <path id="CMMI12-63" d="M 2502 2431 
C 2381 2431 2323 2431 2234 2355 
C 2195 2323 2125 2227 2125 2125 
C 2125 1997 2221 1920 2342 1920 
C 2496 1920 2669 2044 2669 2292 
C 2669 2588 2374 2816 1933 2816 
C 1094 2816 256 1903 256 996 
C 256 441 602 -64 1254 -64 
C 2125 -64 2675 622 2675 706 
C 2675 744 2637 776 2611 776 
C 2592 776 2586 770 2528 713 
C 2118 162 1510 64 1267 64 
C 826 64 685 446 685 764 
C 685 988 794 1605 1024 2039 
C 1190 2338 1536 2682 1939 2682 
C 2022 2682 2374 2682 2502 2431 
z
" transform="scale(0.015625)"/>
      <path id="CMMI12-3e" d="M 4218 1449 
C 4339 1507 4346 1545 4346 1590 
C 4346 1628 4333 1673 4218 1725 
L 755 3322 
C 672 3360 659 3360 646 3360 
C 570 3360 525 3296 525 3245 
C 525 3168 576 3142 659 3104 
L 3949 1590 
L 653 65 
C 525 6 525 -39 525 -77 
C 525 -128 570 -192 646 -192 
C 659 -192 666 -185 755 -147 
L 4218 1449 
z
" transform="scale(0.015625)"/>
      <path id="CMR17-30" d="M 2688 2025 
C 2688 2416 2682 3080 2413 3591 
C 2176 4039 1798 4198 1466 4198 
C 1158 4198 768 4058 525 3597 
C 269 3118 243 2524 243 2025 
C 243 1661 250 1106 448 619 
C 723 -39 1216 -128 1466 -128 
C 1760 -128 2208 -7 2470 600 
C 2662 1042 2688 1559 2688 2025 
z
M 1466 -26 
C 1056 -26 813 325 723 812 
C 653 1188 653 1738 653 2096 
C 653 2588 653 2997 736 3387 
C 858 3929 1216 4096 1466 4096 
C 1728 4096 2067 3923 2189 3400 
C 2272 3036 2278 2607 2278 2096 
C 2278 1680 2278 1169 2202 792 
C 2067 95 1690 -26 1466 -26 
z
" transform="scale(0.015625)"/>
     </defs>
     <use xlink:href="#CMMI12-63" transform="scale(0.996264)"/>
     <use xlink:href="#CMMI12-3e" transform="translate(69.657242 0) scale(0.996264)"/>
     <use xlink:href="#CMR17-30" transform="translate(173.203347 0) scale(0.996264)"/>
    </g>
   </g>
   <g id="text_4">
    <g id="patch_8">
     <path d="M 136.499562 273.302405 
L 175.900438 273.302405 
Q 181.300438 273.302405 181.300438 267.902405 
L 181.300438 251.96104 
Q 181.300438 246.56104 175.900438 246.56104 
L 136.499562 246.56104 
Q 131.099562 246.56104 131.099562 251.96104 
L 131.099562 267.902405 
Q 131.099562 273.302405 136.499562 273.302405 
z
" style="fill: #4169e1; opacity: 0.5; stroke: #000000; stroke-linejoin: miter"/>
    </g>
    <!-- $c &lt; 0$ -->
    <g transform="translate(136.499562 264.41434) scale(0.18 -0.18)">
     <defs>
      <path id="CMMI12-3c" d="M 4218 3104 
C 4333 3155 4346 3200 4346 3238 
C 4346 3309 4294 3360 4224 3360 
C 4211 3360 4205 3353 4115 3315 
L 653 1719 
C 538 1667 525 1622 525 1584 
C 525 1539 531 1501 653 1442 
L 4115 -154 
C 4198 -192 4211 -192 4224 -192 
C 4294 -192 4346 -141 4346 -70 
C 4346 -32 4333 13 4218 64 
L 922 1581 
L 4218 3104 
z
" transform="scale(0.015625)"/>
     </defs>
     <use xlink:href="#CMMI12-63" transform="scale(0.996264)"/>
     <use xlink:href="#CMMI12-3c" transform="translate(69.657242 0) scale(0.996264)"/>
     <use xlink:href="#CMR17-30" transform="translate(173.203347 0) scale(0.996264)"/>
    </g>
   </g>
  </g>
 </g>
 <defs>
  <clipPath id="p0b530c071f">
   <rect x="10.8" y="18.064532" width="436.2" height="316.735468"/>
  </clipPath>
 </defs>
</svg>
