<?xml version="1.0" encoding="utf-8" standalone="no"?>
<!DOCTYPE svg PUBLIC "-//W3C//DTD SVG 1.1//EN"
  "http://www.w3.org/Graphics/SVG/1.1/DTD/svg11.dtd">
<svg xmlns:xlink="http://www.w3.org/1999/xlink" width="460.8pt" height="345.6pt" viewBox="0 0 460.8 345.6" xmlns="http://www.w3.org/2000/svg" version="1.1">
 <metadata>
  <rdf:RDF xmlns:dc="http://purl.org/dc/elements/1.1/" xmlns:cc="http://creativecommons.org/ns#" xmlns:rdf="http://www.w3.org/1999/02/22-rdf-syntax-ns#">
   <cc:Work>
    <dc:type rdf:resource="http://purl.org/dc/dcmitype/StillImage"/>
    <dc:date>2025-03-11T22:22:09.361873</dc:date>
    <dc:format>image/svg+xml</dc:format>
    <dc:creator>
     <cc:Agent>
      <dc:title>Matplotlib v3.9.1, https://matplotlib.org/</dc:title>
     </cc:Agent>
    </dc:creator>
   </cc:Work>
  </rdf:RDF>
 </metadata>
 <defs>
  <style type="text/css">*{stroke-linejoin: round; stroke-linecap: butt}</style>
 </defs>
 <g id="figure_1">
  <g id="patch_1">
   <path d="M 0 345.6 
L 460.8 345.6 
L 460.8 0 
L 0 0 
z
" style="fill: #ffffff"/>
  </g>
  <g id="axes_1">
   <g id="patch_2">
    <path d="M 116.841121 233.610295 
L 398.487273 233.610295 
L 73.832727 115.445705 
z
" clip-path="url(#p5a1b51d79b)" style="fill: #00648c; opacity: 0.1; stroke: #00648c; stroke-linejoin: miter"/>
   </g>
   <g id="line2d_1">
    <path d="M 116.841121 233.610295 
L 398.487273 233.610295 
L 73.832727 115.445705 
L 116.841121 233.610295 
" clip-path="url(#p5a1b51d79b)" style="fill: none; stroke: #000000; stroke-width: 1.5; stroke-linecap: square"/>
   </g>
   <g id="line2d_2">
    <defs>
     <path id="m94d8b9d912" d="M 0 4 
C 1.060812 4 2.078319 3.578535 2.828427 2.828427 
C 3.578535 2.078319 4 1.060812 4 0 
C 4 -1.060812 3.578535 -2.078319 2.828427 -2.828427 
C 2.078319 -3.578535 1.060812 -4 0 -4 
C -1.060812 -4 -2.078319 -3.578535 -2.828427 -2.828427 
C -3.578535 -2.078319 -4 -1.060812 -4 0 
C -4 1.060812 -3.578535 2.078319 -2.828427 2.828427 
C -2.078319 3.578535 -1.060812 4 0 4 
z
" style="stroke: #000000; stroke-opacity: 0.7"/>
    </defs>
    <g clip-path="url(#p5a1b51d79b)">
     <use xlink:href="#m94d8b9d912" x="73.832727" y="115.445705" style="fill-opacity: 0.7; stroke: #000000; stroke-opacity: 0.7"/>
     <use xlink:href="#m94d8b9d912" x="398.487273" y="233.610295" style="fill-opacity: 0.7; stroke: #000000; stroke-opacity: 0.7"/>
     <use xlink:href="#m94d8b9d912" x="116.841121" y="233.610295" style="fill-opacity: 0.7; stroke: #000000; stroke-opacity: 0.7"/>
    </g>
   </g>
   <g id="line2d_3">
    <path d="M 360.934453 233.610295 
L 360.934686 233.477888 
L 360.935386 233.345481 
L 360.936553 233.213078 
L 360.938187 233.08068 
L 360.940288 232.948289 
L 360.942856 232.815906 
L 360.94589 232.683533 
L 360.949391 232.551171 
L 360.953359 232.418822 
L 360.957793 232.286488 
L 360.962694 232.154171 
L 360.968061 232.021872 
L 360.973895 231.889592 
L 360.980196 231.757334 
L 360.986962 231.625099 
L 360.994195 231.492889 
L 361.001894 231.360705 
L 361.010058 231.228548 
L 361.018689 231.096422 
L 361.027786 230.964327 
L 361.037348 230.832264 
L 361.047376 230.700237 
L 361.057869 230.568245 
L 361.068828 230.436291 
L 361.080252 230.304377 
L 361.092141 230.172503 
L 361.104495 230.040673 
L 361.117313 229.908887 
L 361.130596 229.777147 
L 361.144344 229.645454 
L 361.158556 229.513811 
L 361.173231 229.382219 
L 361.188371 229.250679 
L 361.203975 229.119194 
L 361.220042 228.987764 
L 361.236572 228.856392 
L 361.253565 228.725079 
L 361.271022 228.593826 
L 361.288941 228.462636 
L 361.307322 228.33151 
L 361.326166 228.20045 
L 361.345471 228.069457 
L 361.365239 227.938533 
L 361.385468 227.807679 
L 361.406158 227.676897 
L 361.427309 227.54619 
L 361.448921 227.415557 
L 361.470993 227.285002 
L 361.493525 227.154525 
L 361.516518 227.024129 
L 361.53997 226.893814 
L 361.563881 226.763583 
L 361.588252 226.633437 
L 361.613081 226.503378 
L 361.638368 226.373407 
L 361.664114 226.243526 
L 361.690318 226.113736 
L 361.716979 225.98404 
L 361.744097 225.854439 
L 361.771671 225.724934 
L 361.799703 225.595527 
L 361.82819 225.46622 
L 361.857133 225.337014 
L 361.886532 225.20791 
L 361.916385 225.078912 
L 361.946694 224.950019 
L 361.977456 224.821234 
L 362.008673 224.692558 
L 362.040342 224.563994 
L 362.072465 224.435541 
L 362.105041 224.307203 
L 362.138069 224.17898 
L 362.171549 224.050875 
L 362.20548 223.922888 
L 362.239863 223.795022 
L 362.274696 223.667278 
L 362.309979 223.539658 
L 362.345712 223.412162 
L 362.381895 223.284794 
L 362.418526 223.157554 
L 362.455606 223.030443 
L 362.493133 222.903465 
L 362.531108 222.776619 
L 362.56953 222.649908 
L 362.608399 222.523334 
L 362.647714 222.396897 
L 362.687474 222.2706 
L 362.727679 222.144443 
L 362.768329 222.018429 
L 362.809423 221.89256 
L 362.85096 221.766836 
L 362.892941 221.641259 
L 362.935364 221.515831 
L 362.978229 221.390553 
L 363.021535 221.265427 
L 363.065283 221.140455 
L 363.10947 221.015638 
L 363.154098 220.890977 
L 363.199165 220.766475 
" clip-path="url(#p5a1b51d79b)" style="fill: none; stroke: #000000; stroke-linecap: square"/>
   </g>
   <g id="line2d_4">
    <path d="M 86.676548 150.733813 
L 86.987103 150.619227 
L 87.296635 150.501909 
L 87.605121 150.381867 
L 87.912537 150.259111 
L 88.218859 150.133649 
L 88.524063 150.005493 
L 88.828126 149.87465 
L 89.131024 149.741133 
L 89.432733 149.604951 
L 89.733229 149.466115 
L 90.032491 149.324636 
L 90.330493 149.180524 
L 90.627214 149.033791 
L 90.92263 148.884448 
L 91.216718 148.732507 
L 91.509455 148.577979 
L 91.800818 148.420877 
L 92.090786 148.261213 
L 92.379335 148.098999 
L 92.666443 147.934248 
L 92.952087 147.766973 
L 93.236246 147.597186 
L 93.518897 147.424901 
L 93.800019 147.250132 
L 94.079589 147.072891 
L 94.357586 146.893192 
L 94.633988 146.711051 
L 94.908774 146.526479 
L 95.181922 146.339493 
L 95.453411 146.150107 
L 95.723221 145.958335 
L 95.99133 145.764191 
L 96.257717 145.567693 
L 96.522361 145.368853 
L 96.785242 145.167689 
L 97.046341 144.964215 
L 97.305635 144.758448 
L 97.563105 144.550403 
L 97.818732 144.340096 
L 98.072495 144.127545 
L 98.324375 143.912765 
L 98.574351 143.695773 
L 98.822405 143.476586 
L 99.068518 143.255221 
L 99.312669 143.031695 
L 99.554841 142.806026 
L 99.795014 142.57823 
L 100.03317 142.348327 
L 100.26929 142.116333 
L 100.503356 141.882267 
L 100.73535 141.646147 
L 100.965253 141.407991 
L 101.193048 141.167818 
L 101.418718 140.925646 
L 101.642243 140.681495 
L 101.863608 140.435382 
L 102.082795 140.187328 
L 102.299787 139.937352 
L 102.514568 139.685472 
L 102.727119 139.431709 
L 102.937425 139.176083 
L 103.14547 138.918612 
L 103.351238 138.659318 
L 103.554712 138.39822 
L 103.755876 138.135338 
L 103.954715 137.870694 
L 104.151214 137.604307 
L 104.345357 137.336198 
L 104.53713 137.066389 
L 104.726516 136.794899 
L 104.913502 136.521751 
L 105.098073 136.246965 
L 105.280215 135.970563 
L 105.459913 135.692566 
L 105.637154 135.412996 
L 105.811924 135.131874 
L 105.984209 134.849223 
L 106.153996 134.565064 
L 106.321271 134.27942 
L 106.486022 133.992312 
L 106.648236 133.703763 
L 106.8079 133.413796 
L 106.965002 133.122432 
L 107.119529 132.829695 
L 107.27147 132.535607 
L 107.420813 132.240191 
L 107.567546 131.94347 
L 107.711658 131.645468 
L 107.853138 131.346207 
L 107.991974 131.04571 
L 108.128156 130.744001 
L 108.261673 130.441103 
L 108.392515 130.137041 
L 108.520672 129.831836 
L 108.646134 129.525514 
L 108.76889 129.218098 
L 108.888932 128.909612 
L 109.00625 128.60008 
L 109.120835 128.289525 
" clip-path="url(#p5a1b51d79b)" style="fill: none; stroke: #000000; stroke-linecap: square"/>
   </g>
   <g id="text_1">
    <!-- $A$ -->
    <g transform="translate(104.486621 248.154873) scale(0.16 -0.16)">
     <defs>
      <path id="CMMI12-41" d="M 1088 691 
C 864 314 646 186 339 186 
C 269 180 218 180 218 58 
C 218 24 250 0 294 0 
C 410 0 698 0 813 0 
C 998 0 1203 0 1382 0 
C 1421 0 1498 0 1498 122 
C 1498 180 1446 186 1408 186 
C 1261 186 1139 236 1139 388 
C 1139 476 1178 546 1261 685 
L 1747 1479 
L 3379 1479 
C 3386 1423 3386 1373 3392 1316 
C 3411 1152 3488 495 3488 376 
C 3488 186 3162 186 3059 186 
C 2989 186 2918 186 2918 70 
C 2918 0 2976 0 3014 0 
C 3123 0 3251 0 3360 0 
L 3725 0 
C 4115 0 4397 0 4403 0 
C 4448 0 4518 0 4518 122 
C 4518 186 4461 186 4365 186 
C 4013 186 4006 244 3987 434 
L 3597 4404 
C 3584 4531 3558 4544 3488 4544 
C 3424 4544 3386 4531 3328 4435 
L 1088 691 
z
M 1856 1664 
L 3142 3819 
L 3360 1664 
L 1856 1664 
z
" transform="scale(0.015625)"/>
     </defs>
     <use xlink:href="#CMMI12-41" transform="scale(0.996264)"/>
    </g>
   </g>
   <g id="text_2">
    <!-- $20^\circ$ -->
    <g transform="translate(315.052823 224.751531) scale(0.16 -0.16)">
     <defs>
      <path id="CMR17-32" d="M 2669 989 
L 2554 989 
C 2490 536 2438 459 2413 420 
C 2381 369 1920 369 1830 369 
L 602 369 
C 832 619 1280 1072 1824 1597 
C 2214 1967 2669 2402 2669 3035 
C 2669 3790 2067 4224 1395 4224 
C 691 4224 262 3604 262 3030 
C 262 2780 448 2748 525 2748 
C 589 2748 781 2787 781 3010 
C 781 3207 614 3264 525 3264 
C 486 3264 448 3258 422 3245 
C 544 3790 915 4058 1306 4058 
C 1862 4058 2227 3617 2227 3035 
C 2227 2479 1901 2000 1536 1584 
L 262 146 
L 262 0 
L 2515 0 
L 2669 989 
z
" transform="scale(0.015625)"/>
      <path id="CMR17-30" d="M 2688 2025 
C 2688 2416 2682 3080 2413 3591 
C 2176 4039 1798 4198 1466 4198 
C 1158 4198 768 4058 525 3597 
C 269 3118 243 2524 243 2025 
C 243 1661 250 1106 448 619 
C 723 -39 1216 -128 1466 -128 
C 1760 -128 2208 -7 2470 600 
C 2662 1042 2688 1559 2688 2025 
z
M 1466 -26 
C 1056 -26 813 325 723 812 
C 653 1188 653 1738 653 2096 
C 653 2588 653 2997 736 3387 
C 858 3929 1216 4096 1466 4096 
C 1728 4096 2067 3923 2189 3400 
C 2272 3036 2278 2607 2278 2096 
C 2278 1680 2278 1169 2202 792 
C 2067 95 1690 -26 1466 -26 
z
" transform="scale(0.015625)"/>
      <path id="CMSY10-e" d="M 2842 1600 
C 2842 2277 2272 2828 1600 2828 
C 909 2828 352 2264 352 1600 
C 352 930 909 372 1600 372 
C 2272 372 2842 923 2842 1600 
z
M 1600 628 
C 1043 628 608 1070 608 1600 
C 608 2130 1050 2572 1600 2572 
C 2131 2572 2586 2142 2586 1600 
C 2586 1058 2131 628 1600 628 
z
" transform="scale(0.015625)"/>
     </defs>
     <use xlink:href="#CMR17-32" transform="scale(0.996264)"/>
     <use xlink:href="#CMR17-30" transform="translate(45.690477 0) scale(0.996264)"/>
     <use xlink:href="#CMSY10-e" transform="translate(91.380954 36.153639) scale(0.697382)"/>
    </g>
   </g>
   <g id="text_3">
    <!-- $B$ -->
    <g transform="translate(423.050453 236.93273) scale(0.16 -0.16)">
     <defs>
      <path id="CMMI12-42" d="M 2342 3921 
C 2400 4160 2426 4160 2675 4160 
L 3507 4160 
C 4230 4160 4230 3544 4230 3485 
C 4230 2966 3712 2304 2867 2304 
L 1946 2304 
L 2342 3921 
z
M 3424 2275 
C 4122 2402 4755 2886 4755 3473 
C 4755 3970 4314 4352 3590 4352 
L 1536 4352 
C 1414 4352 1357 4352 1357 4226 
C 1357 4160 1414 4160 1510 4160 
C 1901 4160 1901 4112 1901 4044 
C 1901 4032 1901 3993 1875 3897 
L 1011 472 
C 954 249 941 185 493 185 
C 371 185 307 185 307 70 
C 307 0 346 0 474 0 
L 2669 0 
C 3648 0 4403 739 4403 1383 
C 4403 1906 3942 2224 3424 2275 
z
M 2515 185 
L 1651 185 
C 1562 185 1549 185 1510 192 
C 1440 198 1434 211 1434 261 
C 1434 305 1446 343 1459 399 
L 1907 2176 
L 3110 2176 
C 3866 2176 3866 1483 3866 1433 
C 3866 828 3309 185 2515 185 
z
" transform="scale(0.015625)"/>
     </defs>
     <use xlink:href="#CMMI12-42" transform="scale(0.996264)"/>
    </g>
   </g>
   <g id="text_4">
    <!-- $50^\circ$ -->
    <g transform="translate(111.371135 167.56269) scale(0.16 -0.16)">
     <defs>
      <path id="CMR17-35" d="M 730 3692 
C 794 3666 1056 3584 1325 3584 
C 1920 3584 2246 3911 2432 4100 
C 2432 4157 2432 4192 2394 4192 
C 2387 4192 2374 4192 2323 4163 
C 2099 4058 1837 3973 1517 3973 
C 1325 3973 1037 3999 723 4139 
C 653 4171 640 4171 634 4171 
C 602 4171 595 4164 595 4037 
L 595 2203 
C 595 2089 595 2057 659 2057 
C 691 2057 704 2070 736 2114 
C 941 2401 1222 2522 1542 2522 
C 1766 2522 2246 2382 2246 1289 
C 2246 1085 2246 715 2054 421 
C 1894 159 1645 25 1370 25 
C 947 25 518 320 403 814 
C 429 807 480 795 506 795 
C 589 795 749 840 749 1038 
C 749 1210 627 1280 506 1280 
C 358 1280 262 1190 262 1011 
C 262 454 704 -128 1382 -128 
C 2042 -128 2669 440 2669 1264 
C 2669 2030 2170 2624 1549 2624 
C 1222 2624 947 2503 730 2274 
L 730 3692 
z
" transform="scale(0.015625)"/>
     </defs>
     <use xlink:href="#CMR17-35" transform="scale(0.996264)"/>
     <use xlink:href="#CMR17-30" transform="translate(45.690477 0) scale(0.996264)"/>
     <use xlink:href="#CMSY10-e" transform="translate(91.380954 36.153639) scale(0.697382)"/>
    </g>
   </g>
   <g id="text_5">
    <!-- $C$ -->
    <g transform="translate(49.766763 102.449328) scale(0.16 -0.16)">
     <defs>
      <path id="CMMI12-43" d="M 4781 4423 
C 4781 4480 4736 4480 4723 4480 
C 4710 4480 4685 4480 4634 4416 
L 4192 3882 
C 3968 4264 3616 4480 3136 4480 
C 1754 4480 320 3088 320 1595 
C 320 533 1069 -128 2003 -128 
C 2515 -128 2963 88 3334 400 
C 3891 863 4058 1481 4058 1531 
C 4058 1588 4006 1588 3987 1588 
C 3930 1588 3923 1550 3910 1524 
C 3616 534 2752 57 2112 57 
C 1434 57 845 489 845 1391 
C 845 1595 909 2700 1632 3532 
C 1984 3939 2586 4295 3194 4295 
C 3898 4295 4211 3717 4211 3068 
C 4211 2903 4192 2764 4192 2738 
C 4192 2681 4256 2681 4275 2681 
C 4346 2681 4352 2687 4378 2801 
L 4781 4423 
z
" transform="scale(0.015625)"/>
     </defs>
     <use xlink:href="#CMMI12-43" transform="scale(0.996264)"/>
    </g>
   </g>
  </g>
 </g>
 <defs>
  <clipPath id="p5a1b51d79b">
   <rect x="57.6" y="41.472" width="357.12" height="266.112"/>
  </clipPath>
 </defs>
</svg>
