<?xml version="1.0" encoding="utf-8" standalone="no"?>
<!DOCTYPE svg PUBLIC "-//W3C//DTD SVG 1.1//EN"
  "http://www.w3.org/Graphics/SVG/1.1/DTD/svg11.dtd">
<svg xmlns:xlink="http://www.w3.org/1999/xlink" width="460.8pt" height="345.6pt" viewBox="0 0 460.8 345.6" xmlns="http://www.w3.org/2000/svg" version="1.1">
 <metadata>
  <rdf:RDF xmlns:dc="http://purl.org/dc/elements/1.1/" xmlns:cc="http://creativecommons.org/ns#" xmlns:rdf="http://www.w3.org/1999/02/22-rdf-syntax-ns#">
   <cc:Work>
    <dc:type rdf:resource="http://purl.org/dc/dcmitype/StillImage"/>
    <dc:date>2025-04-19T02:42:52.885254</dc:date>
    <dc:format>image/svg+xml</dc:format>
    <dc:creator>
     <cc:Agent>
      <dc:title>Matplotlib v3.9.1, https://matplotlib.org/</dc:title>
     </cc:Agent>
    </dc:creator>
   </cc:Work>
  </rdf:RDF>
 </metadata>
 <defs>
  <style type="text/css">*{stroke-linejoin: round; stroke-linecap: butt}</style>
 </defs>
 <g id="figure_1">
  <g id="patch_1">
   <path d="M 0 345.6 
L 460.8 345.6 
L 460.8 0 
L 0 0 
L 0 345.6 
z
" style="fill: none"/>
  </g>
  <g id="axes_1">
   <g id="patch_2">
    <path d="M 64.441199 334.8 
L 393.358801 334.8 
L 393.358801 18.064532 
L 64.441199 18.064532 
L 64.441199 334.8 
z
" style="fill: none"/>
   </g>
   <g id="matplotlib.axis_1">
    <g id="text_1">
     <!-- $x$ -->
     <g transform="translate(382.271989 194.269263) scale(0.2 -0.2)">
      <defs>
       <path id="CMMI12-78" d="M 3034 2606 
C 2829 2567 2752 2414 2752 2293 
C 2752 2139 2874 2088 2963 2088 
C 3155 2088 3290 2254 3290 2427 
C 3290 2695 2982 2816 2714 2816 
C 2323 2816 2106 2433 2048 2312 
C 1901 2816 1504 2816 1389 2816 
C 736 2816 390 1980 390 1839 
C 390 1814 416 1782 461 1782 
C 512 1782 525 1820 538 1846 
C 755 2555 1184 2689 1370 2689 
C 1658 2689 1715 2420 1715 2267 
C 1715 2127 1677 1980 1600 1673 
L 1382 798 
C 1286 415 1101 64 762 64 
C 730 64 570 64 435 147 
C 666 192 717 383 717 460 
C 717 588 621 664 499 664 
C 346 664 179 530 179 326 
C 179 57 480 -64 755 -64 
C 1062 -64 1280 179 1414 441 
C 1517 64 1837 -64 2074 -64 
C 2726 -64 3072 773 3072 913 
C 3072 945 3046 971 3008 971 
C 2950 971 2944 939 2925 888 
C 2752 326 2381 64 2093 64 
C 1869 64 1747 230 1747 492 
C 1747 632 1773 734 1875 1156 
L 2099 2024 
C 2195 2408 2413 2689 2707 2689 
C 2720 2689 2899 2689 3034 2606 
z
" transform="scale(0.015625)"/>
      </defs>
      <use xlink:href="#CMMI12-78" transform="scale(0.996264)"/>
     </g>
    </g>
   </g>
   <g id="matplotlib.axis_2">
    <g id="text_2">
     <!-- $y$ -->
     <g transform="translate(215.387165 14.188899) scale(0.2 -0.2)">
      <defs>
       <path id="CMMI12-79" d="M 1683 -700 
C 1510 -939 1261 -1152 947 -1152 
C 870 -1152 563 -1152 467 -889 
C 486 -895 518 -895 531 -895 
C 723 -895 851 -729 851 -582 
C 851 -435 730 -384 634 -384 
C 531 -384 307 -458 307 -759 
C 307 -1071 582 -1286 947 -1286 
C 1587 -1286 2234 -700 2413 6 
L 3040 2485 
C 3046 2517 3059 2556 3059 2594 
C 3059 2689 2982 2753 2886 2753 
C 2829 2753 2694 2727 2643 2535 
L 2170 658 
C 2138 543 2138 530 2086 460 
C 1958 281 1747 64 1440 64 
C 1082 64 1050 415 1050 588 
C 1050 952 1222 1443 1395 1903 
C 1466 2088 1504 2178 1504 2305 
C 1504 2574 1312 2816 998 2816 
C 410 2816 173 1890 173 1839 
C 173 1814 198 1782 243 1782 
C 301 1782 307 1807 333 1897 
C 486 2433 730 2689 979 2689 
C 1037 2689 1146 2689 1146 2478 
C 1146 2312 1075 2127 979 1884 
C 666 1047 666 837 666 683 
C 666 77 1101 -64 1421 -64 
C 1606 -64 1837 -6 2061 230 
L 2067 224 
C 1971 -147 1907 -392 1683 -700 
z
" transform="scale(0.015625)"/>
      </defs>
      <use xlink:href="#CMMI12-79" transform="scale(0.996264)"/>
     </g>
    </g>
   </g>
   <g id="line2d_1">
    <defs>
     <path id="m5c86f3db83" d="M 3 0 
L -3 -3 
L -3 3 
z
" style="stroke: #000000; stroke-linejoin: miter"/>
    </defs>
    <g>
     <use xlink:href="#m5c86f3db83" x="393.358801" y="176.432266" style="stroke: #000000; stroke-linejoin: miter"/>
    </g>
   </g>
   <g id="line2d_2">
    <defs>
     <path id="m99e3709639" d="M 0 -3 
L -3 3 
L 3 3 
z
" style="stroke: #000000; stroke-linejoin: miter"/>
    </defs>
    <g>
     <use xlink:href="#m99e3709639" x="228.9" y="18.064532" style="stroke: #000000; stroke-linejoin: miter"/>
    </g>
   </g>
   <g id="line2d_3">
    <path d="M 350.721334 176.432266 
L 350.608762 171.19636 
L 350.271253 165.970131 
L 349.709432 160.763238 
L 348.924337 155.585303 
L 347.917419 150.445897 
L 346.690538 145.354517 
L 345.245963 140.320574 
L 343.586362 135.353371 
L 341.714804 130.462088 
L 339.634747 125.655764 
L 337.350035 120.943284 
L 334.864892 116.333355 
L 332.183909 111.834498 
L 329.312041 107.455028 
L 326.254597 103.203038 
L 323.017227 99.086387 
L 319.605914 95.112683 
L 316.026962 91.28927 
L 312.286987 87.623214 
L 308.3929 84.121291 
L 304.351898 80.789972 
L 300.171449 77.635415 
L 295.85928 74.663449 
L 291.42336 71.879568 
L 286.871888 69.288915 
L 282.213274 66.89628 
L 277.45613 64.706085 
L 272.609246 62.722376 
L 267.681581 60.94882 
L 262.682242 59.388695 
L 257.620468 58.044885 
L 252.505614 56.919872 
L 247.347134 56.015736 
L 242.15456 55.334149 
L 236.93749 54.876369 
L 231.705566 54.643243 
L 226.468456 54.635201 
L 221.23584 54.852259 
L 216.017389 55.294016 
L 210.822747 55.959654 
L 205.661514 56.847944 
L 200.54323 57.957244 
L 195.477353 59.285503 
L 190.473246 60.830268 
L 185.540158 62.588683 
L 180.687205 64.557498 
L 175.923357 66.733074 
L 171.257418 69.111392 
L 166.698011 71.688054 
L 162.253563 74.4583 
L 157.932288 77.417009 
L 153.742171 80.558713 
L 149.690958 83.877607 
L 145.786135 87.367555 
L 142.034919 91.022108 
L 138.444243 94.834513 
L 135.020743 98.797722 
L 131.770746 102.904412 
L 128.700258 107.146992 
L 125.814955 111.517623 
L 123.120169 116.008225 
L 120.62088 120.6105 
L 118.321707 125.315942 
L 116.2269 130.115855 
L 114.34033 135.001368 
L 112.665483 139.963451 
L 111.205456 144.992934 
L 109.962945 150.080522 
L 108.940249 155.216812 
L 108.139256 160.392311 
L 107.561448 165.597455 
L 107.207892 170.822623 
L 107.079241 176.058158 
L 107.175733 181.294385 
L 107.49719 186.521626 
L 108.043019 191.73022 
L 108.812209 196.910541 
L 109.803339 202.053016 
L 111.014579 207.148139 
L 112.443688 212.186494 
L 114.088027 217.158771 
L 115.944555 222.055778 
L 118.009843 226.868467 
L 120.280072 231.587942 
L 122.751047 236.20548 
L 125.418202 240.712549 
L 128.276606 245.100818 
L 131.320978 249.362177 
L 134.545691 253.48875 
L 137.944785 257.472912 
L 141.511978 261.307298 
L 145.240677 264.984822 
L 149.123992 268.498687 
L 153.154745 271.8424 
L 157.325486 275.00978 
L 161.628508 277.994974 
L 166.055858 280.792465 
L 170.599353 283.397083 
L 175.250597 285.804013 
L 180.000993 288.008807 
L 184.841762 290.007391 
L 189.763957 291.796071 
L 194.758482 293.371541 
L 199.816105 294.73089 
L 204.92748 295.871605 
L 210.083159 296.791578 
L 215.273615 297.489108 
L 220.489255 297.962907 
L 225.720439 298.212099 
L 230.957499 298.236224 
L 236.190757 298.035236 
L 241.41054 297.609507 
L 246.607202 296.959825 
L 251.771138 296.087389 
L 256.892805 294.993812 
L 261.962737 293.681116 
L 266.971564 292.151726 
L 271.910029 290.408469 
L 276.769005 288.454566 
L 281.539511 286.29363 
L 286.212732 283.929652 
L 290.780031 281.367004 
L 295.232965 278.61042 
L 299.563306 275.664995 
L 303.763051 272.536173 
L 307.824437 269.229737 
L 311.739959 265.751796 
L 315.502381 262.10878 
L 319.104748 258.30742 
L 322.540402 254.354743 
L 325.802995 250.258053 
L 328.886497 246.024922 
L 331.785209 241.663173 
L 334.493772 237.180868 
L 337.007183 232.586289 
L 339.320795 227.88793 
L 341.430333 223.094473 
L 343.331898 218.214777 
L 345.021975 213.25786 
L 346.497441 208.232884 
L 347.755569 203.149136 
L 348.794034 198.016011 
L 349.610916 192.842996 
L 350.204707 187.639652 
L 350.574308 182.415594 
L 350.719036 177.180478 
L 350.721334 176.432266 
L 350.721334 176.432266 
" clip-path="url(#pe69b3a37db)" style="fill: none; stroke: #0072b2; stroke-opacity: 0.9; stroke-width: 2.5; stroke-linecap: square"/>
   </g>
   <g id="line2d_4">
    <path d="M 228.9 176.432266 
L 315.040691 90.291575 
" clip-path="url(#pe69b3a37db)" style="fill: none; stroke: #000000; stroke-opacity: 0.7; stroke-width: 2; stroke-linecap: square"/>
   </g>
   <g id="LineCollection_1">
    <path d="M 315.040691 176.432266 
L 315.040691 90.291575 
" clip-path="url(#pe69b3a37db)" style="fill: none; stroke-dasharray: 5.55,2.4; stroke-dashoffset: 0; stroke: #000000; stroke-opacity: 0.6; stroke-width: 1.5"/>
   </g>
   <g id="LineCollection_2">
    <path d="M 228.9 90.291575 
L 315.040691 90.291575 
" clip-path="url(#pe69b3a37db)" style="fill: none; stroke-dasharray: 5.55,2.4; stroke-dashoffset: 0; stroke: #000000; stroke-opacity: 0.6; stroke-width: 1.5"/>
   </g>
   <g id="line2d_5">
    <path d="M 253.264267 176.432266 
L 253.153943 174.116295 
L 252.823973 171.821298 
L 252.277343 169.568059 
L 251.519004 167.376983 
L 250.555824 165.267913 
L 249.396525 163.259949 
L 248.051607 161.371276 
L 246.533249 159.618997 
L 246.128138 159.204128 
L 246.128138 159.204128 
" clip-path="url(#pe69b3a37db)" style="fill: none; stroke: #000000; stroke-opacity: 0.7; stroke-linecap: square"/>
   </g>
   <g id="line2d_6">
    <defs>
     <path id="m5947cfe08c" d="M 0 4 
C 1.060812 4 2.078319 3.578535 2.828427 2.828427 
C 3.578535 2.078319 4 1.060812 4 0 
C 4 -1.060812 3.578535 -2.078319 2.828427 -2.828427 
C 2.078319 -3.578535 1.060812 -4 0 -4 
C -1.060812 -4 -2.078319 -3.578535 -2.828427 -2.828427 
C -3.578535 -2.078319 -4 -1.060812 -4 0 
C -4 1.060812 -3.578535 2.078319 -2.828427 2.828427 
C -2.078319 3.578535 -1.060812 4 0 4 
z
" style="stroke: #000000; stroke-opacity: 0.7"/>
    </defs>
    <g clip-path="url(#pe69b3a37db)">
     <use xlink:href="#m5947cfe08c" x="315.040691" y="90.291575" style="fill-opacity: 0.7; stroke: #000000; stroke-opacity: 0.7"/>
    </g>
   </g>
   <g id="LineCollection_3">
    <path d="M 315.040691 176.432266 
L 315.040691 90.291575 
" clip-path="url(#pe69b3a37db)" style="fill: none; stroke: #000000; stroke-opacity: 0.6; stroke-width: 1.5"/>
   </g>
   <g id="line2d_7">
    <path d="M 315.040691 164.250133 
L 302.858558 164.250133 
" clip-path="url(#pe69b3a37db)" style="fill: none; stroke: #000000; stroke-linecap: square"/>
   </g>
   <g id="line2d_8">
    <path d="M 302.858558 176.432266 
L 302.858558 164.250133 
" clip-path="url(#pe69b3a37db)" style="fill: none; stroke: #000000; stroke-linecap: square"/>
   </g>
   <g id="patch_3">
    <path d="M 228.9 334.8 
L 228.9 18.064532 
" style="fill: none; stroke: #000000; stroke-width: 0.8; stroke-linejoin: miter; stroke-linecap: square"/>
   </g>
   <g id="patch_4">
    <path d="M 393.358801 334.8 
L 393.358801 18.064532 
" style="fill: none"/>
   </g>
   <g id="patch_5">
    <path d="M 64.441199 176.432266 
L 393.358801 176.432266 
" style="fill: none; stroke: #000000; stroke-width: 0.8; stroke-linejoin: miter; stroke-linecap: square"/>
   </g>
   <g id="patch_6">
    <path d="M 64.441199 18.064532 
L 393.358801 18.064532 
" style="fill: none"/>
   </g>
   <g id="text_3">
    <!-- $1$ -->
    <g transform="translate(262.83225 129.486287) scale(0.2 -0.2)">
     <defs>
      <path id="CMR17-31" d="M 1702 4058 
C 1702 4192 1696 4192 1606 4192 
C 1357 3916 979 3827 621 3827 
C 602 3827 570 3827 563 3808 
C 557 3795 557 3782 557 3648 
C 755 3648 1088 3686 1344 3839 
L 1344 461 
C 1344 236 1331 160 781 160 
L 589 160 
L 589 0 
C 896 0 1216 0 1523 0 
C 1830 0 2150 0 2458 0 
L 2458 160 
L 2266 160 
C 1715 160 1702 230 1702 458 
L 1702 4058 
z
" transform="scale(0.015625)"/>
     </defs>
     <use xlink:href="#CMR17-31" transform="scale(0.996264)"/>
    </g>
   </g>
   <g id="text_4">
    <!-- $v$ -->
    <g transform="translate(255.378247 168.491844) scale(0.2 -0.2)">
     <defs>
      <path id="CMMI12-76" d="M 2925 2389 
C 2925 2791 2720 2816 2669 2816 
C 2515 2816 2374 2663 2374 2535 
C 2374 2459 2419 2414 2445 2389 
C 2509 2331 2675 2159 2675 1827 
C 2675 1558 2291 64 1523 64 
C 1133 64 1056 390 1056 626 
C 1056 945 1203 1392 1376 1852 
C 1478 2114 1504 2178 1504 2305 
C 1504 2574 1312 2816 998 2816 
C 410 2816 173 1890 173 1839 
C 173 1814 198 1782 243 1782 
C 301 1782 307 1807 333 1897 
C 486 2446 736 2689 979 2689 
C 1037 2689 1146 2689 1146 2478 
C 1146 2312 1075 2127 979 1884 
C 672 1067 672 869 672 715 
C 672 575 691 313 890 134 
C 1120 -64 1440 -64 1498 -64 
C 2560 -64 2925 2024 2925 2389 
z
" transform="scale(0.015625)"/>
     </defs>
     <use xlink:href="#CMMI12-76" transform="scale(0.996264)"/>
    </g>
   </g>
   <g id="text_5">
    <!-- $P(x, y)$ -->
    <g transform="translate(327.222825 85.326931) scale(0.2 -0.2)">
     <defs>
      <path id="CMMI12-50" d="M 1894 2023 
L 2970 2023 
C 3853 2023 4736 2673 4736 3401 
C 4736 3898 4314 4352 3507 4352 
L 1530 4352 
C 1408 4352 1350 4352 1350 4231 
C 1350 4167 1408 4167 1504 4167 
C 1894 4167 1894 4116 1894 4046 
C 1894 4034 1894 3995 1869 3899 
L 1005 472 
C 947 249 934 185 486 185 
C 365 185 301 185 301 70 
C 301 0 358 0 397 0 
C 518 0 646 0 768 0 
L 1517 0 
C 1638 0 1773 0 1894 0 
C 1946 0 2016 0 2016 121 
C 2016 185 1958 185 1862 185 
C 1478 185 1472 230 1472 293 
C 1472 325 1478 369 1485 401 
L 1894 2023 
z
M 2355 3930 
C 2413 4167 2438 4167 2688 4167 
L 3322 4167 
C 3802 4167 4198 4013 4198 3535 
C 4198 3369 4115 2827 3821 2534 
C 3712 2419 3405 2176 2822 2176 
L 1920 2176 
L 2355 3930 
z
" transform="scale(0.015625)"/>
      <path id="CMR17-28" d="M 1958 -1561 
C 1958 -1555 1958 -1542 1939 -1523 
C 1645 -1224 858 -407 858 1581 
C 858 3569 1632 4379 1946 4697 
C 1946 4704 1958 4717 1958 4736 
C 1958 4755 1939 4768 1914 4768 
C 1843 4768 1299 4296 986 3594 
C 666 2887 576 2199 576 1588 
C 576 1128 621 351 1005 -471 
C 1312 -1135 1837 -1600 1914 -1600 
C 1946 -1600 1958 -1587 1958 -1561 
z
" transform="scale(0.015625)"/>
      <path id="CMMI12-3b" d="M 1248 -31 
C 1248 343 1126 619 864 619 
C 659 619 557 453 557 313 
C 557 172 653 0 870 0 
C 954 0 1024 26 1082 83 
C 1094 96 1101 96 1107 96 
C 1120 96 1120 5 1120 -27 
C 1120 -240 1082 -659 710 -1080 
C 640 -1157 640 -1170 640 -1183 
C 640 -1216 672 -1248 704 -1248 
C 755 -1248 1248 -771 1248 -31 
z
" transform="scale(0.015625)"/>
      <path id="CMR17-29" d="M 1683 1581 
C 1683 2040 1638 2817 1254 3639 
C 947 4303 422 4768 346 4768 
C 326 4768 301 4761 301 4729 
C 301 4717 307 4710 314 4697 
C 621 4378 1402 3568 1402 1584 
C 1402 -407 627 -1217 314 -1537 
C 307 -1549 301 -1556 301 -1568 
C 301 -1600 326 -1600 346 -1600 
C 416 -1600 960 -1128 1274 -426 
C 1594 281 1683 969 1683 1581 
z
" transform="scale(0.015625)"/>
     </defs>
     <use xlink:href="#CMMI12-50" transform="scale(0.996264)"/>
     <use xlink:href="#CMR17-28" transform="translate(76.425821 0) scale(0.996264)"/>
     <use xlink:href="#CMMI12-78" transform="translate(111.706589 0) scale(0.996264)"/>
     <use xlink:href="#CMMI12-3b" transform="translate(167.140648 0) scale(0.996264)"/>
     <use xlink:href="#CMMI12-79" transform="translate(210.84223 0) scale(0.996264)"/>
     <use xlink:href="#CMR17-29" transform="translate(261.981011 0) scale(0.996264)"/>
    </g>
   </g>
  </g>
 </g>
 <defs>
  <clipPath id="pe69b3a37db">
   <rect x="64.441199" y="18.064532" width="328.917601" height="316.735468"/>
  </clipPath>
 </defs>
</svg>
