<?xml version="1.0" encoding="utf-8" standalone="no"?>
<!DOCTYPE svg PUBLIC "-//W3C//DTD SVG 1.1//EN"
  "http://www.w3.org/Graphics/SVG/1.1/DTD/svg11.dtd">
<svg xmlns:xlink="http://www.w3.org/1999/xlink" width="460.8pt" height="345.6pt" viewBox="0 0 460.8 345.6" xmlns="http://www.w3.org/2000/svg" version="1.1">
 <metadata>
  <rdf:RDF xmlns:dc="http://purl.org/dc/elements/1.1/" xmlns:cc="http://creativecommons.org/ns#" xmlns:rdf="http://www.w3.org/1999/02/22-rdf-syntax-ns#">
   <cc:Work>
    <dc:type rdf:resource="http://purl.org/dc/dcmitype/StillImage"/>
    <dc:date>2025-03-15T22:01:21.071479</dc:date>
    <dc:format>image/svg+xml</dc:format>
    <dc:creator>
     <cc:Agent>
      <dc:title>Matplotlib v3.9.1, https://matplotlib.org/</dc:title>
     </cc:Agent>
    </dc:creator>
   </cc:Work>
  </rdf:RDF>
 </metadata>
 <defs>
  <style type="text/css">*{stroke-linejoin: round; stroke-linecap: butt}</style>
 </defs>
 <g id="figure_1">
  <g id="patch_1">
   <path d="M 0 345.6 
L 460.8 345.6 
L 460.8 0 
L 0 0 
z
" style="fill: #ffffff"/>
  </g>
  <g id="axes_1">
   <g id="patch_2">
    <path d="M 236.16 174.528 
L 357.120143 174.528 
L 175.679929 69.773444 
z
" clip-path="url(#pabda6c308c)" style="fill: #00718c; opacity: 0.1; stroke: #00718c; stroke-linejoin: miter"/>
   </g>
   <g id="patch_3">
    <path d="M 236.16 174.528 
L 175.679929 69.773444 
L 115.199857 174.528 
z
" clip-path="url(#pabda6c308c)" style="fill: #00718c; opacity: 0.1; stroke: #00718c; stroke-linejoin: miter"/>
   </g>
   <g id="line2d_1">
    <path d="M 236.16 174.528 
L 357.120143 174.528 
L 175.679929 69.773444 
L 236.16 174.528 
" clip-path="url(#pabda6c308c)" style="fill: none; stroke: #000000; stroke-width: 1.5; stroke-linecap: square"/>
   </g>
   <g id="line2d_2">
    <defs>
     <path id="mb5c1fd5414" d="M 0 4 
C 1.060812 4 2.078319 3.578535 2.828427 2.828427 
C 3.578535 2.078319 4 1.060812 4 0 
C 4 -1.060812 3.578535 -2.078319 2.828427 -2.828427 
C 2.078319 -3.578535 1.060812 -4 0 -4 
C -1.060812 -4 -2.078319 -3.578535 -2.828427 -2.828427 
C -3.578535 -2.078319 -4 -1.060812 -4 0 
C -4 1.060812 -3.578535 2.078319 -2.828427 2.828427 
C -2.078319 3.578535 -1.060812 4 0 4 
z
" style="stroke: #000000; stroke-opacity: 0.7"/>
    </defs>
    <g clip-path="url(#pabda6c308c)">
     <use xlink:href="#mb5c1fd5414" x="357.120143" y="174.528" style="fill-opacity: 0.7; stroke: #000000; stroke-opacity: 0.7"/>
     <use xlink:href="#mb5c1fd5414" x="175.679929" y="69.773444" style="fill-opacity: 0.7; stroke: #000000; stroke-opacity: 0.7"/>
     <use xlink:href="#mb5c1fd5414" x="236.16" y="174.528" style="fill-opacity: 0.7; stroke: #000000; stroke-opacity: 0.7"/>
    </g>
   </g>
   <g id="line2d_3">
    <path d="M 236.16 174.528 
L 175.679929 69.773444 
L 115.199857 174.528 
L 236.16 174.528 
" clip-path="url(#pabda6c308c)" style="fill: none; stroke: #000000; stroke-width: 1.5; stroke-linecap: square"/>
   </g>
   <g id="line2d_4">
    <g clip-path="url(#pabda6c308c)">
     <use xlink:href="#mb5c1fd5414" x="115.199857" y="174.528" style="fill-opacity: 0.7; stroke: #000000; stroke-opacity: 0.7"/>
     <use xlink:href="#mb5c1fd5414" x="175.679929" y="69.773444" style="fill-opacity: 0.7; stroke: #000000; stroke-opacity: 0.7"/>
     <use xlink:href="#mb5c1fd5414" x="236.16" y="174.528" style="fill-opacity: 0.7; stroke: #000000; stroke-opacity: 0.7"/>
    </g>
   </g>
   <g id="line2d_5">
    <path d="M 357.120143 174.528 
L 357.008366 169.329108 
L 356.673244 164.139825 
L 356.115394 158.969741 
L 355.335849 153.82841 
L 354.336049 148.725336 
L 353.117842 143.669949 
L 351.683479 138.671592 
L 350.035611 133.739504 
L 348.177283 128.882798 
L 346.11193 124.110452 
L 343.84337 119.431286 
L 341.375794 114.853946 
L 338.713764 110.386893 
L 335.862199 106.038383 
L 332.826368 101.816451 
L 329.611884 97.728902 
L 326.224687 93.783289 
L 322.671036 89.986905 
L 318.9575 86.346765 
L 315.090941 82.869598 
L 311.078506 79.561829 
L 306.92761 76.429573 
L 302.645925 73.478617 
L 298.241364 70.714415 
L 293.722067 68.142077 
L 289.096387 65.766357 
L 284.372872 63.591644 
L 279.560252 61.621959 
L 274.667423 59.860941 
L 269.703425 58.311845 
L 264.677434 56.977534 
L 259.598739 55.860475 
L 254.476726 54.962731 
L 249.32086 54.285961 
L 244.140671 53.831418 
L 238.945732 53.59994 
L 233.745645 53.591955 
L 228.550021 53.807479 
L 223.36846 54.246112 
L 218.21054 54.907044 
L 213.085794 55.789055 
L 208.003692 56.890513 
L 202.973628 58.209382 
L 198.004896 59.743227 
L 193.106682 61.489211 
L 188.288036 63.444108 
L 183.557865 65.604304 
L 178.924911 67.965809 
L 174.397736 70.524256 
L 169.984706 73.274918 
L 165.693979 76.212711 
L 161.533484 79.332206 
L 157.51091 82.627637 
L 153.633691 86.092914 
L 149.908994 89.721632 
L 146.343701 93.507085 
L 142.944403 97.442278 
L 139.717381 101.519936 
L 136.6686 105.732525 
L 133.803694 110.072257 
L 131.127958 114.531114 
L 128.646337 119.100855 
L 126.363418 123.773033 
L 124.28342 128.539014 
L 122.410186 133.389989 
L 120.747179 138.316994 
L 119.297473 143.310922 
L 118.063747 148.362544 
L 117.04828 153.462524 
L 116.25295 158.601436 
L 115.679226 163.769783 
L 115.328169 168.958013 
L 115.200428 174.156537 
L 115.296238 179.355747 
L 115.615423 184.546035 
L 116.157392 189.717808 
L 116.921145 194.861508 
L 117.905269 199.967629 
L 119.107946 205.026733 
L 120.526953 210.029471 
L 122.159667 214.966597 
L 124.003071 219.828986 
L 126.053758 224.607652 
L 128.307938 229.293764 
L 130.761445 233.87866 
L 133.409745 238.353866 
L 136.247943 242.711113 
L 139.270793 246.942348 
L 142.47271 251.039749 
L 145.847775 254.995745 
L 149.38975 258.803025 
L 153.09209 262.454551 
L 156.947952 265.943576 
L 160.95021 269.263651 
L 165.091467 272.40864 
L 169.36407 275.372731 
L 173.760122 278.150446 
L 178.271498 280.73665 
L 182.889861 283.126565 
L 187.606675 285.315773 
L 192.413223 287.300229 
L 197.300622 289.076264 
L 202.259838 290.640597 
L 207.281708 291.990336 
L 212.356949 293.122987 
L 217.476181 294.036456 
L 222.629944 294.729055 
L 227.808713 295.199505 
L 233.002916 295.446935 
L 238.202954 295.470889 
L 243.399216 295.271322 
L 248.582099 294.848603 
L 253.742024 294.203513 
L 258.869455 293.337245 
L 263.954915 292.251399 
L 268.989007 290.947983 
L 273.962425 289.429405 
L 278.865978 287.698471 
L 283.690605 285.758381 
L 288.427387 283.612721 
L 293.067572 281.265455 
L 297.602582 278.720923 
L 302.024038 275.983826 
L 306.323766 273.059223 
L 310.493822 269.95252 
L 314.526497 266.669458 
L 318.414339 263.216104 
L 322.150163 259.598841 
L 325.727063 255.824354 
L 329.138431 251.89962 
L 332.377959 247.831891 
L 335.439663 243.628685 
L 338.317882 239.29777 
L 341.007299 234.847152 
L 343.502941 230.285054 
L 345.800198 225.619908 
L 347.894823 220.860338 
L 349.782944 216.015138 
L 351.461074 211.093263 
L 352.926109 206.10381 
L 354.175343 201.056001 
L 355.206467 195.959163 
L 356.017575 190.822718 
L 356.607168 185.656157 
L 356.974156 180.46903 
L 357.117861 175.270923 
L 357.120143 174.528 
L 357.120143 174.528 
" clip-path="url(#pabda6c308c)" style="fill: none; stroke: #000000; stroke-width: 1.5; stroke-linecap: square"/>
   </g>
   <g id="line2d_6">
    <path d="M 254.304021 174.528 
L 254.299961 174.144183 
L 254.287783 173.760537 
L 254.267492 173.377235 
L 254.239097 172.994448 
L 254.20261 172.612347 
L 254.158049 172.231104 
L 254.105434 171.850888 
L 254.044786 171.471871 
L 253.976135 171.094221 
L 253.899511 170.718109 
L 253.814947 170.343701 
L 253.722482 169.971166 
L 253.622157 169.60067 
L 253.514017 169.232379 
L 253.398111 168.866458 
L 253.274489 168.503072 
L 253.143209 168.142381 
L 253.004328 167.784548 
L 252.857908 167.429734 
L 252.704015 167.078096 
L 252.542718 166.729792 
L 252.37409 166.384978 
L 252.198205 166.043809 
L 252.015142 165.706436 
L 251.824983 165.373011 
L 251.627814 165.043684 
L 251.423722 164.718601 
L 251.212799 164.397909 
L 250.99514 164.08175 
L 250.770841 163.770266 
L 250.540003 163.463596 
L 250.30273 163.161879 
L 250.059127 162.865248 
L 249.809304 162.573837 
L 249.553372 162.287775 
L 249.291446 162.007192 
L 249.023643 161.732212 
L 248.750083 161.462958 
L 248.470889 161.199552 
L 248.186185 160.942111 
L 247.896099 160.69075 
L 247.600761 160.445582 
L 247.300303 160.206716 
L 246.994858 159.97426 
L 246.684565 159.748317 
L 246.369562 159.528988 
L 246.049989 159.316372 
L 245.72599 159.110564 
L 245.39771 158.911655 
L 245.065296 158.719736 
L 244.728896 158.534891 
L 244.388662 158.357204 
L 244.044745 158.186754 
L 243.697299 158.023618 
L 243.34648 157.867867 
L 242.992444 157.719573 
L 242.635351 157.578801 
L 242.27536 157.445615 
L 241.912632 157.320073 
L 241.54733 157.202233 
L 241.179616 157.092147 
L 240.809656 156.989864 
L 240.437615 156.89543 
L 240.06366 156.808887 
L 239.687958 156.730275 
L 239.310676 156.659627 
L 238.931985 156.596976 
L 238.552053 156.54235 
L 238.171051 156.495774 
L 237.789148 156.457267 
L 237.406517 156.426848 
L 237.023327 156.40453 
L 236.639752 156.390322 
L 236.255961 156.384232 
L 235.872128 156.386262 
L 235.488423 156.396412 
L 235.105019 156.414675 
L 234.722087 156.441046 
L 234.339799 156.47551 
L 233.958325 156.518054 
L 233.577837 156.568659 
L 233.198504 156.6273 
L 232.820496 156.693953 
L 232.443983 156.768587 
L 232.069134 156.85117 
L 231.696115 156.941663 
L 231.325093 157.040027 
L 230.956236 157.146218 
L 230.589707 157.260187 
L 230.225672 157.381885 
L 229.864292 157.511256 
L 229.50573 157.648243 
L 229.150146 157.792784 
L 228.797699 157.944815 
L 228.448547 158.104267 
L 228.102846 158.27107 
L 227.760751 158.445148 
L 227.422415 158.626424 
L 227.087989 158.814817 
" clip-path="url(#pabda6c308c)" style="fill: none; stroke: #000000; stroke-width: 1.5; stroke-linecap: square"/>
   </g>
   <g id="text_1">
    <!-- $120^\circ$ -->
    <g transform="translate(248.256014 158.556352) scale(0.2 -0.2)">
     <defs>
      <path id="CMR17-31" d="M 1702 4058 
C 1702 4192 1696 4192 1606 4192 
C 1357 3916 979 3827 621 3827 
C 602 3827 570 3827 563 3808 
C 557 3795 557 3782 557 3648 
C 755 3648 1088 3686 1344 3839 
L 1344 461 
C 1344 236 1331 160 781 160 
L 589 160 
L 589 0 
C 896 0 1216 0 1523 0 
C 1830 0 2150 0 2458 0 
L 2458 160 
L 2266 160 
C 1715 160 1702 230 1702 458 
L 1702 4058 
z
" transform="scale(0.015625)"/>
      <path id="CMR17-32" d="M 2669 989 
L 2554 989 
C 2490 536 2438 459 2413 420 
C 2381 369 1920 369 1830 369 
L 602 369 
C 832 619 1280 1072 1824 1597 
C 2214 1967 2669 2402 2669 3035 
C 2669 3790 2067 4224 1395 4224 
C 691 4224 262 3604 262 3030 
C 262 2780 448 2748 525 2748 
C 589 2748 781 2787 781 3010 
C 781 3207 614 3264 525 3264 
C 486 3264 448 3258 422 3245 
C 544 3790 915 4058 1306 4058 
C 1862 4058 2227 3617 2227 3035 
C 2227 2479 1901 2000 1536 1584 
L 262 146 
L 262 0 
L 2515 0 
L 2669 989 
z
" transform="scale(0.015625)"/>
      <path id="CMR17-30" d="M 2688 2025 
C 2688 2416 2682 3080 2413 3591 
C 2176 4039 1798 4198 1466 4198 
C 1158 4198 768 4058 525 3597 
C 269 3118 243 2524 243 2025 
C 243 1661 250 1106 448 619 
C 723 -39 1216 -128 1466 -128 
C 1760 -128 2208 -7 2470 600 
C 2662 1042 2688 1559 2688 2025 
z
M 1466 -26 
C 1056 -26 813 325 723 812 
C 653 1188 653 1738 653 2096 
C 653 2588 653 2997 736 3387 
C 858 3929 1216 4096 1466 4096 
C 1728 4096 2067 3923 2189 3400 
C 2272 3036 2278 2607 2278 2096 
C 2278 1680 2278 1169 2202 792 
C 2067 95 1690 -26 1466 -26 
z
" transform="scale(0.015625)"/>
      <path id="CMSY10-e" d="M 2842 1600 
C 2842 2277 2272 2828 1600 2828 
C 909 2828 352 2264 352 1600 
C 352 930 909 372 1600 372 
C 2272 372 2842 923 2842 1600 
z
M 1600 628 
C 1043 628 608 1070 608 1600 
C 608 2130 1050 2572 1600 2572 
C 2131 2572 2586 2142 2586 1600 
C 2586 1058 2131 628 1600 628 
z
" transform="scale(0.015625)"/>
     </defs>
     <use xlink:href="#CMR17-31" transform="scale(0.996264)"/>
     <use xlink:href="#CMR17-32" transform="translate(45.690477 0) scale(0.996264)"/>
     <use xlink:href="#CMR17-30" transform="translate(91.380954 0) scale(0.996264)"/>
     <use xlink:href="#CMSY10-e" transform="translate(137.071431 36.153639) scale(0.697382)"/>
    </g>
   </g>
   <g id="text_2">
    <!-- $S$ -->
    <g transform="translate(230.160556 200.461011) scale(0.2 -0.2)">
     <defs>
      <path id="CMMI12-53" d="M 4064 4423 
C 4064 4480 4019 4480 4006 4480 
C 3981 4480 3974 4474 3898 4378 
C 3859 4333 3597 4001 3590 3995 
C 3379 4410 2957 4480 2688 4480 
C 1875 4480 1139 3743 1139 3025 
C 1139 2549 1427 2269 1741 2161 
C 1811 2135 2189 2033 2381 1989 
C 2707 1900 2790 1875 2925 1735 
C 2950 1703 3078 1557 3078 1258 
C 3078 667 2528 57 1888 57 
C 1363 57 781 280 781 991 
C 781 1112 806 1265 826 1328 
C 826 1348 832 1378 832 1391 
C 832 1417 819 1449 768 1449 
C 710 1449 704 1436 678 1328 
L 352 24 
C 352 18 326 -64 326 -71 
C 326 -128 378 -128 390 -128 
C 416 -128 422 -122 499 -26 
L 794 356 
C 947 126 1280 -128 1875 -128 
C 2701 -128 3456 666 3456 1460 
C 3456 1728 3392 1963 3149 2197 
C 3014 2331 2899 2363 2310 2516 
C 1882 2630 1824 2649 1709 2751 
C 1600 2858 1517 3011 1517 3227 
C 1517 3761 2061 4308 2669 4308 
C 3296 4308 3590 3926 3590 3323 
C 3590 3158 3558 2986 3558 2961 
C 3558 2903 3610 2903 3629 2903 
C 3686 2903 3693 2922 3718 3024 
L 4064 4423 
z
" transform="scale(0.015625)"/>
     </defs>
     <use xlink:href="#CMMI12-53" transform="scale(0.996264)"/>
    </g>
   </g>
   <g id="text_3">
    <!-- $A$ -->
    <g transform="translate(369.216157 179.508682) scale(0.2 -0.2)">
     <defs>
      <path id="CMMI12-41" d="M 1088 691 
C 864 314 646 186 339 186 
C 269 180 218 180 218 58 
C 218 24 250 0 294 0 
C 410 0 698 0 813 0 
C 998 0 1203 0 1382 0 
C 1421 0 1498 0 1498 122 
C 1498 180 1446 186 1408 186 
C 1261 186 1139 236 1139 388 
C 1139 476 1178 546 1261 685 
L 1747 1479 
L 3379 1479 
C 3386 1423 3386 1373 3392 1316 
C 3411 1152 3488 495 3488 376 
C 3488 186 3162 186 3059 186 
C 2989 186 2918 186 2918 70 
C 2918 0 2976 0 3014 0 
C 3123 0 3251 0 3360 0 
L 3725 0 
C 4115 0 4397 0 4403 0 
C 4448 0 4518 0 4518 122 
C 4518 186 4461 186 4365 186 
C 4013 186 4006 244 3987 434 
L 3597 4404 
C 3584 4531 3558 4544 3488 4544 
C 3424 4544 3386 4531 3328 4435 
L 1088 691 
z
M 1856 1664 
L 3142 3819 
L 3360 1664 
L 1856 1664 
z
" transform="scale(0.015625)"/>
     </defs>
     <use xlink:href="#CMMI12-41" transform="scale(0.996264)"/>
    </g>
   </g>
   <g id="text_4">
    <!-- $B$ -->
    <g transform="translate(163.583914 59.418412) scale(0.2 -0.2)">
     <defs>
      <path id="CMMI12-42" d="M 2342 3921 
C 2400 4160 2426 4160 2675 4160 
L 3507 4160 
C 4230 4160 4230 3544 4230 3485 
C 4230 2966 3712 2304 2867 2304 
L 1946 2304 
L 2342 3921 
z
M 3424 2275 
C 4122 2402 4755 2886 4755 3473 
C 4755 3970 4314 4352 3590 4352 
L 1536 4352 
C 1414 4352 1357 4352 1357 4226 
C 1357 4160 1414 4160 1510 4160 
C 1901 4160 1901 4112 1901 4044 
C 1901 4032 1901 3993 1875 3897 
L 1011 472 
C 954 249 941 185 493 185 
C 371 185 307 185 307 70 
C 307 0 346 0 474 0 
L 2669 0 
C 3648 0 4403 739 4403 1383 
C 4403 1906 3942 2224 3424 2275 
z
M 2515 185 
L 1651 185 
C 1562 185 1549 185 1510 192 
C 1440 198 1434 211 1434 261 
C 1434 305 1446 343 1459 399 
L 1907 2176 
L 3110 2176 
C 3866 2176 3866 1483 3866 1433 
C 3866 828 3309 185 2515 185 
z
" transform="scale(0.015625)"/>
     </defs>
     <use xlink:href="#CMMI12-42" transform="scale(0.996264)"/>
    </g>
   </g>
   <g id="text_5">
    <!-- $C$ -->
    <g transform="translate(89.145445 179.508682) scale(0.2 -0.2)">
     <defs>
      <path id="CMMI12-43" d="M 4781 4423 
C 4781 4480 4736 4480 4723 4480 
C 4710 4480 4685 4480 4634 4416 
L 4192 3882 
C 3968 4264 3616 4480 3136 4480 
C 1754 4480 320 3088 320 1595 
C 320 533 1069 -128 2003 -128 
C 2515 -128 2963 88 3334 400 
C 3891 863 4058 1481 4058 1531 
C 4058 1588 4006 1588 3987 1588 
C 3930 1588 3923 1550 3910 1524 
C 3616 534 2752 57 2112 57 
C 1434 57 845 489 845 1391 
C 845 1595 909 2700 1632 3532 
C 1984 3939 2586 4295 3194 4295 
C 3898 4295 4211 3717 4211 3068 
C 4211 2903 4192 2764 4192 2738 
C 4192 2681 4256 2681 4275 2681 
C 4346 2681 4352 2687 4378 2801 
L 4781 4423 
z
" transform="scale(0.015625)"/>
     </defs>
     <use xlink:href="#CMMI12-43" transform="scale(0.996264)"/>
    </g>
   </g>
  </g>
 </g>
 <defs>
  <clipPath id="pabda6c308c">
   <rect x="57.6" y="41.472" width="357.12" height="266.112"/>
  </clipPath>
 </defs>
</svg>
