<?xml version="1.0" encoding="utf-8" standalone="no"?>
<!DOCTYPE svg PUBLIC "-//W3C//DTD SVG 1.1//EN"
  "http://www.w3.org/Graphics/SVG/1.1/DTD/svg11.dtd">
<svg xmlns:xlink="http://www.w3.org/1999/xlink" width="460.8pt" height="345.6pt" viewBox="0 0 460.8 345.6" xmlns="http://www.w3.org/2000/svg" version="1.1">
 <metadata>
  <rdf:RDF xmlns:dc="http://purl.org/dc/elements/1.1/" xmlns:cc="http://creativecommons.org/ns#" xmlns:rdf="http://www.w3.org/1999/02/22-rdf-syntax-ns#">
   <cc:Work>
    <dc:type rdf:resource="http://purl.org/dc/dcmitype/StillImage"/>
    <dc:date>2025-04-19T01:41:09.597020</dc:date>
    <dc:format>image/svg+xml</dc:format>
    <dc:creator>
     <cc:Agent>
      <dc:title>Matplotlib v3.9.1, https://matplotlib.org/</dc:title>
     </cc:Agent>
    </dc:creator>
   </cc:Work>
  </rdf:RDF>
 </metadata>
 <defs>
  <style type="text/css">*{stroke-linejoin: round; stroke-linecap: butt}</style>
 </defs>
 <g id="figure_1">
  <g id="patch_1">
   <path d="M 0 345.6 
L 460.8 345.6 
L 460.8 0 
L 0 0 
L 0 345.6 
z
" style="fill: none"/>
  </g>
  <g id="axes_1">
   <g id="patch_2">
    <path d="M 75.46926 305.41731 
L 385.33074 305.41731 
L 230.4 37.069396 
z
" clip-path="url(#pc5ba9b33c9)" style="fill: #0072b2; opacity: 0.1; stroke: #0072b2; stroke-linejoin: miter"/>
   </g>
   <g id="line2d_1">
    <path d="M 75.46926 305.41731 
L 385.33074 305.41731 
L 230.4 37.069396 
L 75.46926 305.41731 
" clip-path="url(#pc5ba9b33c9)" style="fill: none; stroke: #000000; stroke-width: 1.5; stroke-linecap: square"/>
   </g>
   <g id="line2d_2">
    <path d="M 118.075213 305.41731 
L 118.07283 304.966643 
L 118.065679 304.516026 
L 118.053763 304.065511 
L 118.037082 303.615147 
L 118.015638 303.164984 
L 117.989434 302.715073 
L 117.958472 302.265465 
L 117.922756 301.816209 
L 117.88229 301.367356 
L 117.837079 300.918957 
L 117.787127 300.47106 
L 117.73244 300.023718 
L 117.673025 299.576978 
L 117.608887 299.130892 
L 117.540035 298.68551 
L 117.466475 298.24088 
L 117.388217 297.797054 
L 117.305268 297.35408 
L 117.217638 296.912008 
L 117.125338 296.470888 
L 117.028376 296.030769 
L 116.926764 295.591701 
L 116.820514 295.153731 
L 116.709637 294.71691 
L 116.594146 294.281286 
L 116.474053 293.846909 
L 116.349373 293.413826 
L 116.220118 292.982085 
L 116.086304 292.551737 
L 115.947946 292.122827 
L 115.805058 291.695405 
L 115.657657 291.269519 
L 115.50576 290.845215 
L 115.349383 290.422542 
L 115.188544 290.001547 
L 115.023261 289.582276 
L 114.853552 289.164778 
L 114.679437 288.749097 
L 114.500934 288.335282 
L 114.318064 287.923378 
L 114.130848 287.513431 
L 113.939306 287.105488 
L 113.743459 286.699593 
L 113.54333 286.295793 
L 113.338941 285.894132 
L 113.130315 285.494655 
L 112.917476 285.097408 
L 112.700446 284.702434 
L 112.47925 284.309778 
L 112.253913 283.919484 
L 112.024461 283.531595 
L 111.790919 283.146154 
L 111.553312 282.763206 
L 111.311669 282.382792 
L 111.066015 282.004956 
L 110.816378 281.629739 
L 110.562786 281.257184 
L 110.305267 280.887331 
L 110.043851 280.520224 
L 109.778567 280.155902 
L 109.509443 279.794407 
L 109.236511 279.435778 
L 108.959801 279.080057 
L 108.679344 278.727282 
L 108.395171 278.377494 
L 108.107314 278.030731 
L 107.815805 277.687032 
L 107.520676 277.346436 
L 107.221962 277.008981 
L 106.919695 276.674704 
L 106.613909 276.343643 
L 106.304638 276.015835 
L 105.991918 275.691317 
L 105.675782 275.370125 
L 105.356266 275.052295 
L 105.033406 274.737862 
L 104.707239 274.426862 
L 104.3778 274.119329 
L 104.045127 273.815299 
L 103.709256 273.514804 
L 103.370226 273.217878 
L 103.028073 272.924556 
L 102.682838 272.634869 
L 102.334557 272.34885 
L 101.983271 272.06653 
L 101.629018 271.787943 
L 101.271838 271.513118 
L 100.911771 271.242086 
L 100.548857 270.974879 
L 100.183137 270.711525 
L 99.814652 270.452054 
L 99.443443 270.196495 
L 99.069552 269.944877 
L 98.69302 269.697228 
L 98.31389 269.453576 
L 97.932203 269.213948 
L 97.548004 268.97837 
L 97.161334 268.746869 
L 96.772236 268.519472 
" clip-path="url(#pc5ba9b33c9)" style="fill: none; stroke: #000000; stroke-linecap: square"/>
   </g>
   <g id="line2d_3">
    <path d="M 342.724787 305.41731 
L 342.72717 304.966643 
L 342.734321 304.516026 
L 342.746237 304.065511 
L 342.762918 303.615147 
L 342.784362 303.164984 
L 342.810566 302.715073 
L 342.841528 302.265465 
L 342.877244 301.816209 
L 342.91771 301.367356 
L 342.962921 300.918957 
L 343.012873 300.47106 
L 343.06756 300.023718 
L 343.126975 299.576978 
L 343.191113 299.130892 
L 343.259965 298.68551 
L 343.333525 298.24088 
L 343.411783 297.797054 
L 343.494732 297.35408 
L 343.582362 296.912008 
L 343.674662 296.470888 
L 343.771624 296.030769 
L 343.873236 295.591701 
L 343.979486 295.153731 
L 344.090363 294.71691 
L 344.205854 294.281286 
L 344.325947 293.846909 
L 344.450627 293.413826 
L 344.579882 292.982085 
L 344.713696 292.551737 
L 344.852054 292.122827 
L 344.994942 291.695405 
L 345.142343 291.269519 
L 345.29424 290.845215 
L 345.450617 290.422542 
L 345.611456 290.001547 
L 345.776739 289.582276 
L 345.946448 289.164778 
L 346.120563 288.749097 
L 346.299066 288.335282 
L 346.481936 287.923378 
L 346.669152 287.513431 
L 346.860694 287.105488 
L 347.056541 286.699593 
L 347.25667 286.295793 
L 347.461059 285.894132 
L 347.669685 285.494655 
L 347.882524 285.097408 
L 348.099554 284.702434 
L 348.32075 284.309778 
L 348.546087 283.919484 
L 348.775539 283.531595 
L 349.009081 283.146154 
L 349.246688 282.763206 
L 349.488331 282.382792 
L 349.733985 282.004956 
L 349.983622 281.629739 
L 350.237214 281.257184 
L 350.494733 280.887331 
L 350.756149 280.520224 
L 351.021433 280.155902 
L 351.290557 279.794407 
L 351.563489 279.435778 
L 351.840199 279.080057 
L 352.120656 278.727282 
L 352.404829 278.377494 
L 352.692686 278.030731 
L 352.984195 277.687032 
L 353.279324 277.346436 
L 353.578038 277.008981 
L 353.880305 276.674704 
L 354.186091 276.343643 
L 354.495362 276.015835 
L 354.808082 275.691317 
L 355.124218 275.370125 
L 355.443734 275.052295 
L 355.766594 274.737862 
L 356.092761 274.426862 
L 356.4222 274.119329 
L 356.754873 273.815299 
L 357.090744 273.514804 
L 357.429774 273.217878 
L 357.771927 272.924556 
L 358.117162 272.634869 
L 358.465443 272.34885 
L 358.816729 272.06653 
L 359.170982 271.787943 
L 359.528162 271.513118 
L 359.888229 271.242086 
L 360.251143 270.974879 
L 360.616863 270.711525 
L 360.985348 270.452054 
L 361.356557 270.196495 
L 361.730448 269.944877 
L 362.10698 269.697228 
L 362.48611 269.453576 
L 362.867797 269.213948 
L 363.251996 268.97837 
L 363.638666 268.746869 
L 364.027764 268.519472 
" clip-path="url(#pc5ba9b33c9)" style="fill: none; stroke: #000000; stroke-linecap: square"/>
   </g>
   <g id="LineCollection_1">
    <path d="M 230.4 305.41731 
L 230.4 37.069396 
" clip-path="url(#pc5ba9b33c9)" style="fill: none; stroke-dasharray: 5.55,2.4; stroke-dashoffset: 0; stroke: #000000; stroke-width: 1.5"/>
   </g>
   <g id="line2d_4">
    <path d="M 230.4 274.431162 
L 261.386148 274.431162 
" clip-path="url(#pc5ba9b33c9)" style="fill: none; stroke-dasharray: 5.55,2.4; stroke-dashoffset: 0; stroke: #000000; stroke-width: 1.5"/>
   </g>
   <g id="line2d_5">
    <path d="M 261.386148 305.41731 
L 261.386148 274.431162 
" clip-path="url(#pc5ba9b33c9)" style="fill: none; stroke-dasharray: 5.55,2.4; stroke-dashoffset: 0; stroke: #000000; stroke-width: 1.5"/>
   </g>
   <g id="text_1">
    <!-- $60^\circ$ -->
    <g transform="translate(110.775946 282.724613) scale(0.2 -0.2)">
     <defs>
      <path id="CMR17-36" d="M 678 2176 
C 678 3690 1395 4032 1811 4032 
C 1946 4032 2272 4009 2400 3776 
C 2298 3776 2106 3776 2106 3553 
C 2106 3381 2246 3323 2336 3323 
C 2394 3323 2566 3348 2566 3560 
C 2566 3954 2246 4179 1805 4179 
C 1043 4179 243 3390 243 1984 
C 243 253 966 -128 1478 -128 
C 2099 -128 2688 427 2688 1283 
C 2688 2081 2170 2662 1517 2662 
C 1126 2662 838 2407 678 1960 
L 678 2176 
z
M 1478 25 
C 691 25 691 1200 691 1436 
C 691 1896 909 2560 1504 2560 
C 1613 2560 1926 2560 2138 2120 
C 2253 1870 2253 1609 2253 1289 
C 2253 944 2253 690 2118 434 
C 1978 171 1773 25 1478 25 
z
" transform="scale(0.015625)"/>
      <path id="CMR17-30" d="M 2688 2025 
C 2688 2416 2682 3080 2413 3591 
C 2176 4039 1798 4198 1466 4198 
C 1158 4198 768 4058 525 3597 
C 269 3118 243 2524 243 2025 
C 243 1661 250 1106 448 619 
C 723 -39 1216 -128 1466 -128 
C 1760 -128 2208 -7 2470 600 
C 2662 1042 2688 1559 2688 2025 
z
M 1466 -26 
C 1056 -26 813 325 723 812 
C 653 1188 653 1738 653 2096 
C 653 2588 653 2997 736 3387 
C 858 3929 1216 4096 1466 4096 
C 1728 4096 2067 3923 2189 3400 
C 2272 3036 2278 2607 2278 2096 
C 2278 1680 2278 1169 2202 792 
C 2067 95 1690 -26 1466 -26 
z
" transform="scale(0.015625)"/>
      <path id="CMSY10-e" d="M 2842 1600 
C 2842 2277 2272 2828 1600 2828 
C 909 2828 352 2264 352 1600 
C 352 930 909 372 1600 372 
C 2272 372 2842 923 2842 1600 
z
M 1600 628 
C 1043 628 608 1070 608 1600 
C 608 2130 1050 2572 1600 2572 
C 2131 2572 2586 2142 2586 1600 
C 2586 1058 2131 628 1600 628 
z
" transform="scale(0.015625)"/>
     </defs>
     <use xlink:href="#CMR17-36" transform="scale(0.996264)"/>
     <use xlink:href="#CMR17-30" transform="translate(45.690477 0) scale(0.996264)"/>
     <use xlink:href="#CMSY10-e" transform="translate(91.380954 36.153639) scale(0.697382)"/>
    </g>
   </g>
   <g id="text_2">
    <!-- $A$ -->
    <g transform="translate(51.503411 315.378365) scale(0.2 -0.2)">
     <defs>
      <path id="CMMI12-41" d="M 1088 691 
C 864 314 646 186 339 186 
C 269 180 218 180 218 58 
C 218 24 250 0 294 0 
C 410 0 698 0 813 0 
C 998 0 1203 0 1382 0 
C 1421 0 1498 0 1498 122 
C 1498 180 1446 186 1408 186 
C 1261 186 1139 236 1139 388 
C 1139 476 1178 546 1261 685 
L 1747 1479 
L 3379 1479 
C 3386 1423 3386 1373 3392 1316 
C 3411 1152 3488 495 3488 376 
C 3488 186 3162 186 3059 186 
C 2989 186 2918 186 2918 70 
C 2918 0 2976 0 3014 0 
C 3123 0 3251 0 3360 0 
L 3725 0 
C 4115 0 4397 0 4403 0 
C 4448 0 4518 0 4518 122 
C 4518 186 4461 186 4365 186 
C 4013 186 4006 244 3987 434 
L 3597 4404 
C 3584 4531 3558 4544 3488 4544 
C 3424 4544 3386 4531 3328 4435 
L 1088 691 
z
M 1856 1664 
L 3142 3819 
L 3360 1664 
L 1856 1664 
z
" transform="scale(0.015625)"/>
     </defs>
     <use xlink:href="#CMMI12-41" transform="scale(0.996264)"/>
    </g>
   </g>
   <g id="text_3">
    <!-- $60^\circ$ -->
    <g transform="translate(324.774031 282.724613) scale(0.2 -0.2)">
     <use xlink:href="#CMR17-36" transform="scale(0.996264)"/>
     <use xlink:href="#CMR17-30" transform="translate(45.690477 0) scale(0.996264)"/>
     <use xlink:href="#CMSY10-e" transform="translate(91.380954 36.153639) scale(0.697382)"/>
    </g>
   </g>
   <g id="text_4">
    <!-- $B$ -->
    <g transform="translate(394.474988 315.378365) scale(0.2 -0.2)">
     <defs>
      <path id="CMMI12-42" d="M 2342 3921 
C 2400 4160 2426 4160 2675 4160 
L 3507 4160 
C 4230 4160 4230 3544 4230 3485 
C 4230 2966 3712 2304 2867 2304 
L 1946 2304 
L 2342 3921 
z
M 3424 2275 
C 4122 2402 4755 2886 4755 3473 
C 4755 3970 4314 4352 3590 4352 
L 1536 4352 
C 1414 4352 1357 4352 1357 4226 
C 1357 4160 1414 4160 1510 4160 
C 1901 4160 1901 4112 1901 4044 
C 1901 4032 1901 3993 1875 3897 
L 1011 472 
C 954 249 941 185 493 185 
C 371 185 307 185 307 70 
C 307 0 346 0 474 0 
L 2669 0 
C 3648 0 4403 739 4403 1383 
C 4403 1906 3942 2224 3424 2275 
z
M 2515 185 
L 1651 185 
C 1562 185 1549 185 1510 192 
C 1440 198 1434 211 1434 261 
C 1434 305 1446 343 1459 399 
L 1907 2176 
L 3110 2176 
C 3866 2176 3866 1483 3866 1433 
C 3866 828 3309 185 2515 185 
z
" transform="scale(0.015625)"/>
     </defs>
     <use xlink:href="#CMMI12-42" transform="scale(0.996264)"/>
    </g>
   </g>
   <g id="text_5">
    <!-- $C$ -->
    <g transform="translate(223.420801 23.233014) scale(0.2 -0.2)">
     <defs>
      <path id="CMMI12-43" d="M 4781 4423 
C 4781 4480 4736 4480 4723 4480 
C 4710 4480 4685 4480 4634 4416 
L 4192 3882 
C 3968 4264 3616 4480 3136 4480 
C 1754 4480 320 3088 320 1595 
C 320 533 1069 -128 2003 -128 
C 2515 -128 2963 88 3334 400 
C 3891 863 4058 1481 4058 1531 
C 4058 1588 4006 1588 3987 1588 
C 3930 1588 3923 1550 3910 1524 
C 3616 534 2752 57 2112 57 
C 1434 57 845 489 845 1391 
C 845 1595 909 2700 1632 3532 
C 1984 3939 2586 4295 3194 4295 
C 3898 4295 4211 3717 4211 3068 
C 4211 2903 4192 2764 4192 2738 
C 4192 2681 4256 2681 4275 2681 
C 4346 2681 4352 2687 4378 2801 
L 4781 4423 
z
" transform="scale(0.015625)"/>
     </defs>
     <use xlink:href="#CMMI12-43" transform="scale(0.996264)"/>
    </g>
   </g>
   <g id="text_6">
    <!-- $4$ -->
    <g transform="translate(230.4 331.700968) scale(0.2 -0.2)">
     <defs>
      <path id="CMR17-34" d="M 2150 4122 
C 2150 4256 2144 4256 2029 4256 
L 128 1254 
L 128 1088 
L 1779 1088 
L 1779 457 
C 1779 224 1766 160 1318 160 
L 1197 160 
L 1197 0 
C 1402 0 1747 0 1965 0 
C 2182 0 2528 0 2733 0 
L 2733 160 
L 2611 160 
C 2163 160 2150 224 2150 457 
L 2150 1088 
L 2803 1088 
L 2803 1254 
L 2150 1254 
L 2150 4122 
z
M 1798 3703 
L 1798 1254 
L 256 1254 
L 1798 3703 
z
" transform="scale(0.015625)"/>
     </defs>
     <use xlink:href="#CMR17-34" transform="scale(0.996264)"/>
    </g>
   </g>
   <g id="text_7">
    <!-- $h$ -->
    <g transform="translate(238.146537 176.224034) scale(0.2 -0.2)">
     <defs>
      <path id="CMMI12-68" d="M 1798 4257 
C 1805 4283 1818 4321 1818 4352 
C 1818 4416 1754 4416 1741 4416 
C 1734 4416 1421 4388 1389 4380 
C 1280 4373 1184 4358 1069 4358 
C 909 4345 864 4339 864 4224 
C 864 4160 915 4160 1005 4160 
C 1318 4160 1325 4103 1325 4040 
C 1325 4002 1312 3951 1306 3932 
L 378 248 
C 352 152 352 140 352 101 
C 352 -38 461 -64 525 -64 
C 634 -64 717 19 749 89 
L 1037 1245 
C 1069 1386 1107 1520 1139 1660 
C 1210 1929 1210 1935 1331 2120 
C 1453 2305 1741 2689 2234 2689 
C 2490 2689 2579 2497 2579 2242 
C 2579 1884 2330 1188 2189 805 
C 2131 651 2099 568 2099 453 
C 2099 166 2298 -64 2605 -64 
C 3200 -64 3424 875 3424 913 
C 3424 945 3398 971 3360 971 
C 3302 971 3296 952 3264 843 
C 3117 332 2880 64 2624 64 
C 2560 64 2458 64 2458 269 
C 2458 436 2534 640 2560 710 
C 2675 1018 2963 1773 2963 2145 
C 2963 2528 2739 2816 2253 2816 
C 1888 2816 1568 2644 1306 2312 
L 1798 4257 
z
" transform="scale(0.015625)"/>
     </defs>
     <use xlink:href="#CMMI12-68" transform="scale(0.996264)"/>
    </g>
   </g>
  </g>
 </g>
 <defs>
  <clipPath id="pc5ba9b33c9">
   <rect x="10.8" y="23.652" width="439.2" height="295.182705"/>
  </clipPath>
 </defs>
</svg>
