<?xml version="1.0" encoding="utf-8" standalone="no"?>
<!DOCTYPE svg PUBLIC "-//W3C//DTD SVG 1.1//EN"
  "http://www.w3.org/Graphics/SVG/1.1/DTD/svg11.dtd">
<svg xmlns:xlink="http://www.w3.org/1999/xlink" width="460.8pt" height="345.6pt" viewBox="0 0 460.8 345.6" xmlns="http://www.w3.org/2000/svg" version="1.1">
 <metadata>
  <rdf:RDF xmlns:dc="http://purl.org/dc/elements/1.1/" xmlns:cc="http://creativecommons.org/ns#" xmlns:rdf="http://www.w3.org/1999/02/22-rdf-syntax-ns#">
   <cc:Work>
    <dc:type rdf:resource="http://purl.org/dc/dcmitype/StillImage"/>
    <dc:date>2025-04-22T05:38:22.625785</dc:date>
    <dc:format>image/svg+xml</dc:format>
    <dc:creator>
     <cc:Agent>
      <dc:title>Matplotlib v3.9.1, https://matplotlib.org/</dc:title>
     </cc:Agent>
    </dc:creator>
   </cc:Work>
  </rdf:RDF>
 </metadata>
 <defs>
  <style type="text/css">*{stroke-linejoin: round; stroke-linecap: butt}</style>
 </defs>
 <g id="figure_1">
  <g id="patch_1">
   <path d="M 0 345.6 
L 460.8 345.6 
L 460.8 0 
L 0 0 
L 0 345.6 
z
" style="fill: none"/>
  </g>
  <g id="axes_1">
   <g id="patch_2">
    <path d="M 73.832727 226.69898 
L 398.487273 226.69898 
L 198.182633 122.35702 
z
" clip-path="url(#p560d4dc80b)" style="fill: #0072b2; opacity: 0.1; stroke: #0072b2; stroke-linejoin: miter"/>
   </g>
   <g id="line2d_1">
    <path d="M 73.832727 226.69898 
L 398.487273 226.69898 
L 198.182633 122.35702 
L 73.832727 226.69898 
" clip-path="url(#p560d4dc80b)" style="fill: none; stroke: #000000; stroke-width: 1.5; stroke-linecap: square"/>
   </g>
   <g id="line2d_2">
    <path d="M 122.530909 226.69898 
L 122.529698 226.355571 
L 122.526066 226.012179 
L 122.520012 225.668822 
L 122.511537 225.325516 
L 122.500641 224.982278 
L 122.487325 224.639125 
L 122.47159 224.296075 
L 122.453436 223.953144 
L 122.432864 223.61035 
L 122.409875 223.26771 
L 122.384471 222.92524 
L 122.356652 222.582958 
L 122.32642 222.24088 
L 122.293777 221.899024 
L 122.258724 221.557407 
L 122.221263 221.216046 
L 122.181395 220.874957 
L 122.139123 220.534157 
L 122.094449 220.193665 
L 122.047375 219.853496 
L 121.997903 219.513667 
L 121.946037 219.174196 
L 121.891777 218.835098 
L 121.835128 218.496392 
L 121.776092 218.158094 
L 121.714671 217.82022 
L 121.65087 217.482788 
L 121.58469 217.145815 
L 121.516136 216.809316 
L 121.445211 216.473309 
L 121.371918 216.137811 
L 121.296261 215.802838 
L 121.218243 215.468406 
L 121.13787 215.134533 
L 121.055144 214.801236 
L 120.970069 214.468529 
L 120.882651 214.136432 
L 120.792893 213.804958 
L 120.700799 213.474126 
L 120.606375 213.143952 
L 120.509625 212.814452 
L 120.410554 212.485642 
L 120.309167 212.157539 
L 120.205468 211.830159 
L 120.099463 211.503518 
L 119.991158 211.177633 
L 119.880557 210.85252 
L 119.767667 210.528195 
L 119.652492 210.204675 
L 119.535038 209.881974 
L 119.415312 209.56011 
L 119.293319 209.239097 
L 119.169066 208.918954 
L 119.042558 208.599694 
L 118.913801 208.281334 
L 118.782803 207.963891 
L 118.64957 207.647379 
L 118.514108 207.331814 
L 118.376424 207.017212 
L 118.236525 206.703589 
L 118.094418 206.390961 
L 117.95011 206.079342 
L 117.803608 205.768749 
L 117.654919 205.459197 
L 117.504052 205.1507 
L 117.351012 204.843276 
L 117.195808 204.536938 
L 117.038449 204.231702 
L 116.87894 203.927584 
L 116.717291 203.624598 
L 116.553509 203.322759 
L 116.387603 203.022083 
L 116.219581 202.722584 
L 116.049451 202.424277 
L 115.877221 202.127178 
L 115.702901 201.831301 
L 115.526499 201.53666 
L 115.348023 201.24327 
L 115.167483 200.951147 
L 114.984887 200.660303 
L 114.800245 200.370755 
L 114.613565 200.082516 
L 114.424858 199.7956 
L 114.234132 199.510023 
L 114.041397 199.225797 
L 113.846663 198.942937 
L 113.649938 198.661458 
L 113.451234 198.381373 
L 113.250559 198.102696 
L 113.047925 197.825442 
L 112.84334 197.549623 
L 112.636815 197.275253 
L 112.428361 197.002347 
L 112.217987 196.730918 
L 112.005705 196.460979 
L 111.791524 196.192543 
L 111.575455 195.925625 
L 111.35751 195.660237 
L 111.137699 195.396392 
" clip-path="url(#p560d4dc80b)" style="fill: none; stroke: #000000; stroke-linecap: square"/>
   </g>
   <g id="line2d_3">
    <path d="M 349.789091 226.69898 
L 349.789664 226.46275 
L 349.791383 226.226526 
L 349.794248 225.990313 
L 349.798258 225.754117 
L 349.803414 225.517943 
L 349.809716 225.281796 
L 349.817164 225.045683 
L 349.825756 224.809609 
L 349.835494 224.57358 
L 349.846376 224.3376 
L 349.858403 224.101676 
L 349.871575 223.865813 
L 349.88589 223.630017 
L 349.901349 223.394293 
L 349.917952 223.158647 
L 349.935697 222.923084 
L 349.954585 222.68761 
L 349.974614 222.45223 
L 349.995786 222.21695 
L 350.018098 221.981776 
L 350.041551 221.746713 
L 350.066144 221.511766 
L 350.091876 221.276941 
L 350.118747 221.042244 
L 350.146757 220.80768 
L 350.175903 220.573255 
L 350.206187 220.338973 
L 350.237607 220.104842 
L 350.270162 219.870865 
L 350.303852 219.63705 
L 350.338675 219.4034 
L 350.374632 219.169922 
L 350.411721 218.936622 
L 350.449941 218.703504 
L 350.489291 218.470574 
L 350.529771 218.237837 
L 350.571379 218.0053 
L 350.614115 217.772968 
L 350.657978 217.540845 
L 350.702965 217.308938 
L 350.749078 217.077252 
L 350.796313 216.845792 
L 350.844671 216.614564 
L 350.89415 216.383574 
L 350.944749 216.152826 
L 350.996467 215.922326 
L 351.049302 215.69208 
L 351.103253 215.462093 
L 351.15832 215.232371 
L 351.2145 215.002918 
L 351.271792 214.77374 
L 351.330196 214.544843 
L 351.389709 214.316233 
L 351.450331 214.087913 
L 351.512059 213.85989 
L 351.574893 213.632169 
L 351.638831 213.404756 
L 351.703871 213.177656 
L 351.770012 212.950874 
L 351.837252 212.724415 
L 351.90559 212.498285 
L 351.975024 212.272489 
L 352.045553 212.047033 
L 352.117174 211.821922 
L 352.189887 211.59716 
L 352.263689 211.372754 
L 352.338578 211.148709 
L 352.414554 210.92503 
L 352.491614 210.701721 
L 352.569756 210.47879 
L 352.648979 210.256239 
L 352.72928 210.034076 
L 352.810658 209.812305 
L 352.893111 209.590931 
L 352.976637 209.36996 
L 353.061233 209.149397 
L 353.146899 208.929247 
L 353.233631 208.709514 
L 353.321429 208.490205 
L 353.410289 208.271325 
L 353.50021 208.052878 
L 353.59119 207.83487 
L 353.683226 207.617306 
L 353.776316 207.400191 
L 353.870458 207.18353 
L 353.965651 206.967328 
L 354.061891 206.75159 
L 354.159176 206.536322 
L 354.257504 206.321529 
L 354.356874 206.107215 
L 354.457281 205.893385 
L 354.558725 205.680045 
L 354.661203 205.4672 
L 354.764711 205.254854 
L 354.869249 205.043013 
L 354.974813 204.831681 
L 355.081401 204.620864 
L 355.18901 204.410567 
L 355.297638 204.200794 
" clip-path="url(#p560d4dc80b)" style="fill: none; stroke: #000000; stroke-linecap: square"/>
   </g>
   <g id="text_1">
    <!-- $40^\circ$ -->
    <g transform="translate(127.741571 207.207095) scale(0.16 -0.16)">
     <defs>
      <path id="CMR17-34" d="M 2150 4122 
C 2150 4256 2144 4256 2029 4256 
L 128 1254 
L 128 1088 
L 1779 1088 
L 1779 457 
C 1779 224 1766 160 1318 160 
L 1197 160 
L 1197 0 
C 1402 0 1747 0 1965 0 
C 2182 0 2528 0 2733 0 
L 2733 160 
L 2611 160 
C 2163 160 2150 224 2150 457 
L 2150 1088 
L 2803 1088 
L 2803 1254 
L 2150 1254 
L 2150 4122 
z
M 1798 3703 
L 1798 1254 
L 256 1254 
L 1798 3703 
z
" transform="scale(0.015625)"/>
      <path id="CMR17-30" d="M 2688 2025 
C 2688 2416 2682 3080 2413 3591 
C 2176 4039 1798 4198 1466 4198 
C 1158 4198 768 4058 525 3597 
C 269 3118 243 2524 243 2025 
C 243 1661 250 1106 448 619 
C 723 -39 1216 -128 1466 -128 
C 1760 -128 2208 -7 2470 600 
C 2662 1042 2688 1559 2688 2025 
z
M 1466 -26 
C 1056 -26 813 325 723 812 
C 653 1188 653 1738 653 2096 
C 653 2588 653 2997 736 3387 
C 858 3929 1216 4096 1466 4096 
C 1728 4096 2067 3923 2189 3400 
C 2272 3036 2278 2607 2278 2096 
C 2278 1680 2278 1169 2202 792 
C 2067 95 1690 -26 1466 -26 
z
" transform="scale(0.015625)"/>
      <path id="CMSY10-e" d="M 2842 1600 
C 2842 2277 2272 2828 1600 2828 
C 909 2828 352 2264 352 1600 
C 352 930 909 372 1600 372 
C 2272 372 2842 923 2842 1600 
z
M 1600 628 
C 1043 628 608 1070 608 1600 
C 608 2130 1050 2572 1600 2572 
C 2131 2572 2586 2142 2586 1600 
C 2586 1058 2131 628 1600 628 
z
" transform="scale(0.015625)"/>
     </defs>
     <use xlink:href="#CMR17-34" transform="scale(0.996264)"/>
     <use xlink:href="#CMR17-30" transform="translate(45.690477 0) scale(0.996264)"/>
     <use xlink:href="#CMSY10-e" transform="translate(91.380954 36.153639) scale(0.697382)"/>
    </g>
   </g>
   <g id="text_2">
    <!-- $A$ -->
    <g transform="translate(41.581545 235.337974) scale(0.16 -0.16)">
     <defs>
      <path id="CMMI12-41" d="M 1088 691 
C 864 314 646 186 339 186 
C 269 180 218 180 218 58 
C 218 24 250 0 294 0 
C 410 0 698 0 813 0 
C 998 0 1203 0 1382 0 
C 1421 0 1498 0 1498 122 
C 1498 180 1446 186 1408 186 
C 1261 186 1139 236 1139 388 
C 1139 476 1178 546 1261 685 
L 1747 1479 
L 3379 1479 
C 3386 1423 3386 1373 3392 1316 
C 3411 1152 3488 495 3488 376 
C 3488 186 3162 186 3059 186 
C 2989 186 2918 186 2918 70 
C 2918 0 2976 0 3014 0 
C 3123 0 3251 0 3360 0 
L 3725 0 
C 4115 0 4397 0 4403 0 
C 4448 0 4518 0 4518 122 
C 4518 186 4461 186 4365 186 
C 4013 186 4006 244 3987 434 
L 3597 4404 
C 3584 4531 3558 4544 3488 4544 
C 3424 4544 3386 4531 3328 4435 
L 1088 691 
z
M 1856 1664 
L 3142 3819 
L 3360 1664 
L 1856 1664 
z
" transform="scale(0.015625)"/>
     </defs>
     <use xlink:href="#CMMI12-41" transform="scale(0.996264)"/>
    </g>
   </g>
   <g id="text_3">
    <!-- $27.52^\circ$ -->
    <g transform="translate(309.006128 213.810396) scale(0.16 -0.16)">
     <defs>
      <path id="CMR17-32" d="M 2669 989 
L 2554 989 
C 2490 536 2438 459 2413 420 
C 2381 369 1920 369 1830 369 
L 602 369 
C 832 619 1280 1072 1824 1597 
C 2214 1967 2669 2402 2669 3035 
C 2669 3790 2067 4224 1395 4224 
C 691 4224 262 3604 262 3030 
C 262 2780 448 2748 525 2748 
C 589 2748 781 2787 781 3010 
C 781 3207 614 3264 525 3264 
C 486 3264 448 3258 422 3245 
C 544 3790 915 4058 1306 4058 
C 1862 4058 2227 3617 2227 3035 
C 2227 2479 1901 2000 1536 1584 
L 262 146 
L 262 0 
L 2515 0 
L 2669 989 
z
" transform="scale(0.015625)"/>
      <path id="CMR17-37" d="M 2886 3941 
L 2886 4081 
L 1382 4081 
C 634 4081 621 4165 595 4288 
L 480 4288 
L 294 3094 
L 410 3094 
C 429 3215 474 3540 550 3661 
C 589 3712 1062 3712 1171 3712 
L 2579 3712 
L 1869 2661 
C 1395 1954 1069 999 1069 165 
C 1069 89 1069 -128 1299 -128 
C 1530 -128 1530 89 1530 171 
L 1530 465 
C 1530 1508 1709 2196 2003 2636 
L 2886 3941 
z
" transform="scale(0.015625)"/>
      <path id="CMMI12-3a" d="M 1178 307 
C 1178 492 1024 619 870 619 
C 685 619 557 466 557 313 
C 557 128 710 0 864 0 
C 1050 0 1178 153 1178 307 
z
" transform="scale(0.015625)"/>
      <path id="CMR17-35" d="M 730 3692 
C 794 3666 1056 3584 1325 3584 
C 1920 3584 2246 3911 2432 4100 
C 2432 4157 2432 4192 2394 4192 
C 2387 4192 2374 4192 2323 4163 
C 2099 4058 1837 3973 1517 3973 
C 1325 3973 1037 3999 723 4139 
C 653 4171 640 4171 634 4171 
C 602 4171 595 4164 595 4037 
L 595 2203 
C 595 2089 595 2057 659 2057 
C 691 2057 704 2070 736 2114 
C 941 2401 1222 2522 1542 2522 
C 1766 2522 2246 2382 2246 1289 
C 2246 1085 2246 715 2054 421 
C 1894 159 1645 25 1370 25 
C 947 25 518 320 403 814 
C 429 807 480 795 506 795 
C 589 795 749 840 749 1038 
C 749 1210 627 1280 506 1280 
C 358 1280 262 1190 262 1011 
C 262 454 704 -128 1382 -128 
C 2042 -128 2669 440 2669 1264 
C 2669 2030 2170 2624 1549 2624 
C 1222 2624 947 2503 730 2274 
L 730 3692 
z
" transform="scale(0.015625)"/>
     </defs>
     <use xlink:href="#CMR17-32" transform="scale(0.996264)"/>
     <use xlink:href="#CMR17-37" transform="translate(45.690477 0) scale(0.996264)"/>
     <use xlink:href="#CMMI12-3a" transform="translate(91.380954 0) scale(0.996264)"/>
     <use xlink:href="#CMR17-35" transform="translate(118.478131 0) scale(0.996264)"/>
     <use xlink:href="#CMR17-32" transform="translate(164.168608 0) scale(0.996264)"/>
     <use xlink:href="#CMSY10-e" transform="translate(209.859086 36.153639) scale(0.697382)"/>
    </g>
   </g>
   <g id="text_4">
    <!-- $B$ -->
    <g transform="translate(421.08792 232.036323) scale(0.16 -0.16)">
     <defs>
      <path id="CMMI12-42" d="M 2342 3921 
C 2400 4160 2426 4160 2675 4160 
L 3507 4160 
C 4230 4160 4230 3544 4230 3485 
C 4230 2966 3712 2304 2867 2304 
L 1946 2304 
L 2342 3921 
z
M 3424 2275 
C 4122 2402 4755 2886 4755 3473 
C 4755 3970 4314 4352 3590 4352 
L 1536 4352 
C 1414 4352 1357 4352 1357 4226 
C 1357 4160 1414 4160 1510 4160 
C 1901 4160 1901 4112 1901 4044 
C 1901 4032 1901 3993 1875 3897 
L 1011 472 
C 954 249 941 185 493 185 
C 371 185 307 185 307 70 
C 307 0 346 0 474 0 
L 2669 0 
C 3648 0 4403 739 4403 1383 
C 4403 1906 3942 2224 3424 2275 
z
M 2515 185 
L 1651 185 
C 1562 185 1549 185 1510 192 
C 1440 198 1434 211 1434 261 
C 1434 305 1446 343 1459 399 
L 1907 2176 
L 3110 2176 
C 3866 2176 3866 1483 3866 1433 
C 3866 828 3309 185 2515 185 
z
" transform="scale(0.015625)"/>
     </defs>
     <use xlink:href="#CMMI12-42" transform="scale(0.996264)"/>
    </g>
   </g>
   <g id="text_5">
    <!-- $C$ -->
    <g transform="translate(190.39252 113.251318) scale(0.16 -0.16)">
     <defs>
      <path id="CMMI12-43" d="M 4781 4423 
C 4781 4480 4736 4480 4723 4480 
C 4710 4480 4685 4480 4634 4416 
L 4192 3882 
C 3968 4264 3616 4480 3136 4480 
C 1754 4480 320 3088 320 1595 
C 320 533 1069 -128 2003 -128 
C 2515 -128 2963 88 3334 400 
C 3891 863 4058 1481 4058 1531 
C 4058 1588 4006 1588 3987 1588 
C 3930 1588 3923 1550 3910 1524 
C 3616 534 2752 57 2112 57 
C 1434 57 845 489 845 1391 
C 845 1595 909 2700 1632 3532 
C 1984 3939 2586 4295 3194 4295 
C 3898 4295 4211 3717 4211 3068 
C 4211 2903 4192 2764 4192 2738 
C 4192 2681 4256 2681 4275 2681 
C 4346 2681 4352 2687 4378 2801 
L 4781 4423 
z
" transform="scale(0.015625)"/>
     </defs>
     <use xlink:href="#CMMI12-43" transform="scale(0.996264)"/>
    </g>
   </g>
   <g id="text_6">
    <!-- $c$ -->
    <g transform="translate(236.16 255.033127) scale(0.16 -0.16)">
     <defs>
      <path id="CMMI12-63" d="M 2502 2431 
C 2381 2431 2323 2431 2234 2355 
C 2195 2323 2125 2227 2125 2125 
C 2125 1997 2221 1920 2342 1920 
C 2496 1920 2669 2044 2669 2292 
C 2669 2588 2374 2816 1933 2816 
C 1094 2816 256 1903 256 996 
C 256 441 602 -64 1254 -64 
C 2125 -64 2675 622 2675 706 
C 2675 744 2637 776 2611 776 
C 2592 776 2586 770 2528 713 
C 2118 162 1510 64 1267 64 
C 826 64 685 446 685 764 
C 685 988 794 1605 1024 2039 
C 1190 2338 1536 2682 1939 2682 
C 2022 2682 2374 2682 2502 2431 
z
" transform="scale(0.015625)"/>
     </defs>
     <use xlink:href="#CMMI12-63" transform="scale(0.996264)"/>
    </g>
   </g>
   <g id="text_7">
    <!-- $a$ -->
    <g transform="translate(309.584046 149.833707) scale(0.16 -0.16)">
     <defs>
      <path id="CMMI12-61" d="M 1926 760 
C 1894 651 1894 639 1805 517 
C 1664 338 1382 64 1082 64 
C 819 64 672 300 672 677 
C 672 1028 870 1743 992 2012 
C 1210 2459 1510 2689 1760 2689 
C 2182 2689 2266 2165 2266 2114 
C 2266 2108 2246 2024 2240 2012 
L 1926 760 
z
M 2336 2395 
C 2266 2561 2093 2816 1760 2816 
C 1037 2816 256 1884 256 939 
C 256 307 627 -64 1062 -64 
C 1414 -64 1715 211 1894 422 
C 1958 45 2259 -64 2451 -64 
C 2643 -64 2797 51 2912 281 
C 3014 498 3104 888 3104 913 
C 3104 945 3078 971 3040 971 
C 2982 971 2976 939 2950 843 
C 2854 466 2733 64 2470 64 
C 2285 64 2272 230 2272 358 
C 2272 505 2291 575 2349 824 
C 2394 984 2426 1124 2477 1309 
C 2714 2267 2771 2497 2771 2535 
C 2771 2625 2701 2695 2605 2695 
C 2400 2695 2349 2472 2336 2395 
z
" transform="scale(0.015625)"/>
     </defs>
     <use xlink:href="#CMMI12-61" transform="scale(0.996264)"/>
    </g>
   </g>
   <g id="text_8">
    <!-- $1$ -->
    <g transform="translate(112.552399 166.945103) scale(0.16 -0.16)">
     <defs>
      <path id="CMR17-31" d="M 1702 4058 
C 1702 4192 1696 4192 1606 4192 
C 1357 3916 979 3827 621 3827 
C 602 3827 570 3827 563 3808 
C 557 3795 557 3782 557 3648 
C 755 3648 1088 3686 1344 3839 
L 1344 461 
C 1344 236 1331 160 781 160 
L 589 160 
L 589 0 
C 896 0 1216 0 1523 0 
C 1830 0 2150 0 2458 0 
L 2458 160 
L 2266 160 
C 1715 160 1702 230 1702 458 
L 1702 4058 
z
" transform="scale(0.015625)"/>
     </defs>
     <use xlink:href="#CMR17-31" transform="scale(0.996264)"/>
    </g>
   </g>
  </g>
 </g>
 <defs>
  <clipPath id="p560d4dc80b">
   <rect x="57.6" y="41.472" width="357.12" height="266.112"/>
  </clipPath>
 </defs>
</svg>
