<?xml version="1.0" encoding="utf-8" standalone="no"?>
<!DOCTYPE svg PUBLIC "-//W3C//DTD SVG 1.1//EN"
  "http://www.w3.org/Graphics/SVG/1.1/DTD/svg11.dtd">
<svg xmlns:xlink="http://www.w3.org/1999/xlink" width="460.8pt" height="345.6pt" viewBox="0 0 460.8 345.6" xmlns="http://www.w3.org/2000/svg" version="1.1">
 <metadata>
  <rdf:RDF xmlns:dc="http://purl.org/dc/elements/1.1/" xmlns:cc="http://creativecommons.org/ns#" xmlns:rdf="http://www.w3.org/1999/02/22-rdf-syntax-ns#">
   <cc:Work>
    <dc:type rdf:resource="http://purl.org/dc/dcmitype/StillImage"/>
    <dc:date>2025-05-10T19:16:33.467321</dc:date>
    <dc:format>image/svg+xml</dc:format>
    <dc:creator>
     <cc:Agent>
      <dc:title>Matplotlib v3.9.1, https://matplotlib.org/</dc:title>
     </cc:Agent>
    </dc:creator>
   </cc:Work>
  </rdf:RDF>
 </metadata>
 <defs>
  <style type="text/css">*{stroke-linejoin: round; stroke-linecap: butt}</style>
 </defs>
 <g id="figure_1">
  <g id="patch_1">
   <path d="M 0 345.6 
L 460.8 345.6 
L 460.8 0 
L 0 0 
L 0 345.6 
z
" style="fill: none"/>
  </g>
  <g id="axes_1">
   <g id="line2d_1">
    <path d="M 379.161027 176.018648 
L 379.060027 170.537805 
L 378.757164 165.064404 
L 378.252849 159.605878 
L 377.547766 154.169638 
L 376.642874 148.763067 
L 375.539401 143.393505 
L 374.238846 138.068245 
L 372.742974 132.794517 
L 371.053816 127.579482 
L 369.173667 122.430221 
L 367.10508 117.353728 
L 364.850862 112.356894 
L 362.414076 107.446506 
L 359.79803 102.62923 
L 357.006276 97.911608 
L 354.042605 93.300047 
L 350.911042 88.800807 
L 347.615839 84.419999 
L 344.16147 80.163571 
L 340.552626 76.037303 
L 336.794207 72.046798 
L 332.891318 68.197474 
L 328.849256 64.494559 
L 324.673512 60.94308 
L 320.369755 57.54786 
L 315.943829 54.313509 
L 311.401745 51.24442 
L 306.749669 48.344759 
L 301.993919 45.618464 
L 297.140952 43.069237 
L 292.197359 40.700539 
L 287.169852 38.515587 
L 282.065257 36.517349 
L 276.890507 34.708536 
L 271.652628 33.091606 
L 266.358732 31.668754 
L 261.016008 30.441912 
L 255.63171 29.412745 
L 250.21315 28.582653 
L 244.767686 27.95276 
L 239.302712 27.523924 
L 233.825649 27.296726 
L 228.343933 27.271475 
L 222.865009 27.448204 
L 217.396316 27.826675 
L 211.94528 28.406373 
L 206.519303 29.18651 
L 201.125753 30.166029 
L 195.771953 31.343598 
L 190.465173 32.717618 
L 185.212619 34.286224 
L 180.021425 36.047287 
L 174.898638 37.998413 
L 169.851214 40.136955 
L 164.886008 42.460008 
L 160.009762 44.964417 
L 155.229098 47.646783 
L 150.550505 50.503463 
L 145.980339 53.530577 
L 141.524804 56.724015 
L 137.18995 60.079442 
L 132.981664 63.5923 
L 128.90566 67.25782 
L 124.967473 71.071024 
L 121.17245 75.026734 
L 117.525745 79.11958 
L 114.03231 83.344003 
L 110.696887 87.694267 
L 107.524006 92.164465 
L 104.517976 96.748528 
L 101.682879 101.440229 
L 99.022563 106.2332 
L 96.540642 111.12093 
L 94.240486 116.096784 
L 92.125217 121.154005 
L 90.197709 126.285726 
L 88.460579 131.484977 
L 86.916185 136.744701 
L 85.566624 142.057753 
L 84.413729 147.416921 
L 83.459066 152.814926 
L 82.703931 158.24444 
L 82.149349 163.698088 
L 81.796074 169.168466 
L 81.644584 174.648147 
L 81.695087 180.129688 
L 81.947512 185.605646 
L 82.401518 191.068587 
L 83.056487 196.511092 
L 83.911532 201.92577 
L 84.965489 207.30527 
L 86.216929 212.642286 
L 87.664152 217.929572 
L 89.305193 223.159947 
L 91.137824 228.32631 
L 93.159555 233.421646 
L 95.367642 238.439035 
L 97.759087 243.371665 
L 100.330642 248.212837 
L 103.078815 252.955978 
L 105.999875 257.594647 
L 109.089854 262.122546 
L 112.344558 266.533526 
L 115.759567 270.821598 
L 119.330244 274.980938 
L 123.05174 279.005899 
L 126.919001 282.891016 
L 130.926777 286.631013 
L 135.069625 290.220811 
L 139.34192 293.655536 
L 143.73786 296.930525 
L 148.251477 300.041329 
L 152.876642 302.983726 
L 157.607073 305.753719 
L 162.436349 308.347547 
L 167.35791 310.761688 
L 172.365074 312.992864 
L 177.451043 315.038045 
L 182.60891 316.894454 
L 187.83167 318.559571 
L 193.112233 320.031134 
L 198.443428 321.307146 
L 203.818016 322.385872 
L 209.228698 323.26585 
L 214.668128 323.945883 
L 220.128919 324.425049 
L 225.603657 324.702696 
L 231.084907 324.778448 
L 236.565227 324.652202 
L 242.037175 324.324129 
L 247.49332 323.794675 
L 252.926254 323.064558 
L 258.3286 322.134771 
L 263.693021 321.006575 
L 269.012234 319.681503 
L 274.279016 318.161354 
L 279.486215 316.448192 
L 284.62676 314.544343 
L 289.693671 312.452393 
L 294.680067 310.175181 
L 299.579179 307.715802 
L 304.384353 305.077593 
L 309.089064 302.264137 
L 313.686925 299.279255 
L 318.171691 296.127 
L 322.537274 292.811652 
L 326.777744 289.337713 
L 330.887345 285.7099 
L 334.860495 281.933139 
L 338.691799 278.012559 
L 342.376056 273.953483 
L 345.908262 269.761424 
L 349.283621 265.442073 
L 352.49755 261.001295 
L 355.545684 256.445121 
L 358.423885 251.779738 
L 361.128244 247.01148 
L 363.655089 242.146822 
L 366.000989 237.19237 
L 368.162759 232.154851 
L 370.137462 227.041106 
L 371.922419 221.858078 
L 373.515204 216.612806 
L 374.913655 211.312412 
L 376.115873 205.964093 
L 377.120226 200.575112 
L 377.92535 195.152786 
L 378.530151 189.704478 
L 378.933809 184.237587 
L 379.135775 178.759535 
L 379.161027 176.018648 
L 379.161027 176.018648 
" clip-path="url(#pb365730072)" style="fill: none; stroke: #000000; stroke-width: 1.5; stroke-linecap: square"/>
   </g>
   <g id="line2d_2">
    <path d="M 156.01896 304.849781 
L 379.161027 176.018648 
" clip-path="url(#pb365730072)" style="fill: none; stroke: #0072b2; stroke-opacity: 0.9; stroke-width: 2.5; stroke-linecap: square"/>
   </g>
   <g id="line2d_3">
    <path d="M 379.161027 176.018648 
L 230.399649 27.25727 
" clip-path="url(#pb365730072)" style="fill: none; stroke: #0072b2; stroke-opacity: 0.9; stroke-width: 2.5; stroke-linecap: square"/>
   </g>
   <g id="line2d_4">
    <path d="M 230.399649 27.25727 
L 156.01896 304.849781 
" clip-path="url(#pb365730072)" style="fill: none; stroke: #0072b2; stroke-opacity: 0.9; stroke-width: 2.5; stroke-linecap: square"/>
   </g>
   <g id="line2d_5">
    <path d="M 230.399649 161.14251 
L 245.275787 161.14251 
" clip-path="url(#pb365730072)" style="fill: none; stroke: #000000; stroke-width: 2; stroke-linecap: square"/>
   </g>
   <g id="line2d_6">
    <path d="M 245.275787 176.018648 
L 245.275787 161.14251 
" clip-path="url(#pb365730072)" style="fill: none; stroke: #000000; stroke-width: 2; stroke-linecap: square"/>
   </g>
   <g id="line2d_7">
    <path d="M 230.399649 176.018648 
L 379.161027 176.018648 
" clip-path="url(#pb365730072)" style="fill: none; stroke-dasharray: 5.55,2.4; stroke-dashoffset: 0; stroke: #000000; stroke-width: 1.5"/>
   </g>
   <g id="line2d_8">
    <path d="M 230.399649 176.018648 
L 230.399649 27.25727 
" clip-path="url(#pb365730072)" style="fill: none; stroke-dasharray: 5.55,2.4; stroke-dashoffset: 0; stroke: #000000; stroke-width: 1.5"/>
   </g>
   <g id="line2d_9">
    <path d="M 230.399649 176.018648 
L 156.01896 304.849781 
" clip-path="url(#pb365730072)" style="fill: none; stroke-dasharray: 5.55,2.4; stroke-dashoffset: 0; stroke: #000000; stroke-width: 1.5"/>
   </g>
   <g id="line2d_10">
    <path d="M 334.532614 176.018648 
L 334.643891 179.168226 
L 334.977167 182.302098 
L 335.530779 185.404635 
L 336.301968 188.460366 
L 337.286887 191.454052 
L 338.480625 194.370765 
L 339.877229 197.195959 
L 340.511688 198.332855 
L 340.511688 198.332855 
" clip-path="url(#pb365730072)" style="fill: none; stroke: #000000; stroke-width: 1.5; stroke-linecap: square"/>
   </g>
   <g id="text_1">
    <!-- $30^\circ$ -->
    <g transform="translate(307.031464 198.332855) scale(0.2 -0.2)">
     <defs>
      <path id="CMR17-33" d="M 1414 2157 
C 1984 2157 2234 1662 2234 1090 
C 2234 320 1824 25 1453 25 
C 1114 25 563 194 390 693 
C 422 680 454 680 486 680 
C 640 680 755 782 755 948 
C 755 1133 614 1216 486 1216 
C 378 1216 211 1165 211 926 
C 211 335 787 -128 1466 -128 
C 2176 -128 2720 430 2720 1085 
C 2720 1707 2208 2157 1600 2227 
C 2086 2328 2554 2756 2554 3329 
C 2554 3820 2048 4179 1472 4179 
C 890 4179 378 3829 378 3329 
C 378 3110 544 3072 627 3072 
C 762 3072 877 3155 877 3321 
C 877 3486 762 3569 627 3569 
C 602 3569 570 3569 544 3557 
C 730 3959 1235 4032 1459 4032 
C 1683 4032 2106 3925 2106 3320 
C 2106 3143 2080 2828 1862 2550 
C 1670 2304 1453 2304 1242 2284 
C 1210 2284 1062 2269 1037 2269 
C 992 2263 966 2257 966 2208 
C 966 2163 973 2157 1101 2157 
L 1414 2157 
z
" transform="scale(0.015625)"/>
      <path id="CMR17-30" d="M 2688 2025 
C 2688 2416 2682 3080 2413 3591 
C 2176 4039 1798 4198 1466 4198 
C 1158 4198 768 4058 525 3597 
C 269 3118 243 2524 243 2025 
C 243 1661 250 1106 448 619 
C 723 -39 1216 -128 1466 -128 
C 1760 -128 2208 -7 2470 600 
C 2662 1042 2688 1559 2688 2025 
z
M 1466 -26 
C 1056 -26 813 325 723 812 
C 653 1188 653 1738 653 2096 
C 653 2588 653 2997 736 3387 
C 858 3929 1216 4096 1466 4096 
C 1728 4096 2067 3923 2189 3400 
C 2272 3036 2278 2607 2278 2096 
C 2278 1680 2278 1169 2202 792 
C 2067 95 1690 -26 1466 -26 
z
" transform="scale(0.015625)"/>
      <path id="CMSY10-e" d="M 2842 1600 
C 2842 2277 2272 2828 1600 2828 
C 909 2828 352 2264 352 1600 
C 352 930 909 372 1600 372 
C 2272 372 2842 923 2842 1600 
z
M 1600 628 
C 1043 628 608 1070 608 1600 
C 608 2130 1050 2572 1600 2572 
C 2131 2572 2586 2142 2586 1600 
C 2586 1058 2131 628 1600 628 
z
" transform="scale(0.015625)"/>
     </defs>
     <use xlink:href="#CMR17-33" transform="scale(0.996264)"/>
     <use xlink:href="#CMR17-30" transform="translate(45.690477 0) scale(0.996264)"/>
     <use xlink:href="#CMSY10-e" transform="translate(91.380954 36.153639) scale(0.697382)"/>
    </g>
   </g>
   <g id="text_2">
    <!-- $r$ -->
    <g transform="translate(300.384249 172.143015) scale(0.2 -0.2)">
     <defs>
      <path id="CMMI12-72" d="M 2490 2612 
C 2291 2574 2189 2433 2189 2293 
C 2189 2139 2310 2088 2400 2088 
C 2579 2088 2726 2242 2726 2433 
C 2726 2638 2528 2816 2208 2816 
C 1952 2816 1658 2701 1389 2312 
C 1344 2650 1088 2816 832 2816 
C 582 2816 454 2625 378 2484 
C 269 2254 173 1871 173 1839 
C 173 1814 198 1782 243 1782 
C 294 1782 301 1788 339 1935 
C 435 2318 557 2689 813 2689 
C 966 2689 1011 2580 1011 2395 
C 1011 2254 947 2005 902 1807 
L 723 1118 
C 698 996 627 709 595 594 
C 550 428 480 128 480 96 
C 480 6 550 -64 646 -64 
C 717 -64 838 -19 877 109 
C 896 160 1133 1124 1171 1271 
C 1203 1411 1242 1546 1274 1686 
C 1299 1775 1325 1878 1344 1961 
C 1363 2018 1536 2331 1696 2472 
C 1773 2542 1939 2689 2202 2689 
C 2304 2689 2406 2670 2490 2612 
z
" transform="scale(0.015625)"/>
     </defs>
     <use xlink:href="#CMMI12-72" transform="scale(0.996264)"/>
    </g>
   </g>
   <g id="text_3">
    <!-- $r$ -->
    <g transform="translate(215.523511 230.538758) scale(0.2 -0.2)">
     <use xlink:href="#CMMI12-72" transform="scale(0.996264)"/>
    </g>
   </g>
   <g id="text_4">
    <!-- $r$ -->
    <g transform="translate(237.837718 106.618641) scale(0.2 -0.2)">
     <use xlink:href="#CMMI12-72" transform="scale(0.996264)"/>
    </g>
   </g>
   <g id="text_5">
    <!-- $S$ -->
    <g transform="translate(212.499295 180.99933) scale(0.2 -0.2)">
     <defs>
      <path id="CMMI12-53" d="M 4064 4423 
C 4064 4480 4019 4480 4006 4480 
C 3981 4480 3974 4474 3898 4378 
C 3859 4333 3597 4001 3590 3995 
C 3379 4410 2957 4480 2688 4480 
C 1875 4480 1139 3743 1139 3025 
C 1139 2549 1427 2269 1741 2161 
C 1811 2135 2189 2033 2381 1989 
C 2707 1900 2790 1875 2925 1735 
C 2950 1703 3078 1557 3078 1258 
C 3078 667 2528 57 1888 57 
C 1363 57 781 280 781 991 
C 781 1112 806 1265 826 1328 
C 826 1348 832 1378 832 1391 
C 832 1417 819 1449 768 1449 
C 710 1449 704 1436 678 1328 
L 352 24 
C 352 18 326 -64 326 -71 
C 326 -128 378 -128 390 -128 
C 416 -128 422 -122 499 -26 
L 794 356 
C 947 126 1280 -128 1875 -128 
C 2701 -128 3456 666 3456 1460 
C 3456 1728 3392 1963 3149 2197 
C 3014 2331 2899 2363 2310 2516 
C 1882 2630 1824 2649 1709 2751 
C 1600 2858 1517 3011 1517 3227 
C 1517 3761 2061 4308 2669 4308 
C 3296 4308 3590 3926 3590 3323 
C 3590 3158 3558 2986 3558 2961 
C 3558 2903 3610 2903 3629 2903 
C 3686 2903 3693 2922 3718 3024 
L 4064 4423 
z
" transform="scale(0.015625)"/>
     </defs>
     <use xlink:href="#CMMI12-53" transform="scale(0.996264)"/>
    </g>
   </g>
   <g id="text_6">
    <!-- $B$ -->
    <g transform="translate(383.651137 180.99933) scale(0.2 -0.2)">
     <defs>
      <path id="CMMI12-42" d="M 2342 3921 
C 2400 4160 2426 4160 2675 4160 
L 3507 4160 
C 4230 4160 4230 3544 4230 3485 
C 4230 2966 3712 2304 2867 2304 
L 1946 2304 
L 2342 3921 
z
M 3424 2275 
C 4122 2402 4755 2886 4755 3473 
C 4755 3970 4314 4352 3590 4352 
L 1536 4352 
C 1414 4352 1357 4352 1357 4226 
C 1357 4160 1414 4160 1510 4160 
C 1901 4160 1901 4112 1901 4044 
C 1901 4032 1901 3993 1875 3897 
L 1011 472 
C 954 249 941 185 493 185 
C 371 185 307 185 307 70 
C 307 0 346 0 474 0 
L 2669 0 
C 3648 0 4403 739 4403 1383 
C 4403 1906 3942 2224 3424 2275 
z
M 2515 185 
L 1651 185 
C 1562 185 1549 185 1510 192 
C 1440 198 1434 211 1434 261 
C 1434 305 1446 343 1459 399 
L 1907 2176 
L 3110 2176 
C 3866 2176 3866 1483 3866 1433 
C 3866 828 3309 185 2515 185 
z
" transform="scale(0.015625)"/>
     </defs>
     <use xlink:href="#CMMI12-42" transform="scale(0.996264)"/>
    </g>
   </g>
   <g id="text_7">
    <!-- $A$ -->
    <g transform="translate(144.243332 321.731372) scale(0.2 -0.2)">
     <defs>
      <path id="CMMI12-41" d="M 1088 691 
C 864 314 646 186 339 186 
C 269 180 218 180 218 58 
C 218 24 250 0 294 0 
C 410 0 698 0 813 0 
C 998 0 1203 0 1382 0 
C 1421 0 1498 0 1498 122 
C 1498 180 1446 186 1408 186 
C 1261 186 1139 236 1139 388 
C 1139 476 1178 546 1261 685 
L 1747 1479 
L 3379 1479 
C 3386 1423 3386 1373 3392 1316 
C 3411 1152 3488 495 3488 376 
C 3488 186 3162 186 3059 186 
C 2989 186 2918 186 2918 70 
C 2918 0 2976 0 3014 0 
C 3123 0 3251 0 3360 0 
L 3725 0 
C 4115 0 4397 0 4403 0 
C 4448 0 4518 0 4518 122 
C 4518 186 4461 186 4365 186 
C 4013 186 4006 244 3987 434 
L 3597 4404 
C 3584 4531 3558 4544 3488 4544 
C 3424 4544 3386 4531 3328 4435 
L 1088 691 
z
M 1856 1664 
L 3142 3819 
L 3360 1664 
L 1856 1664 
z
" transform="scale(0.015625)"/>
     </defs>
     <use xlink:href="#CMMI12-41" transform="scale(0.996264)"/>
    </g>
   </g>
   <g id="text_8">
    <!-- $C$ -->
    <g transform="translate(223.42045 20.337041) scale(0.2 -0.2)">
     <defs>
      <path id="CMMI12-43" d="M 4781 4423 
C 4781 4480 4736 4480 4723 4480 
C 4710 4480 4685 4480 4634 4416 
L 4192 3882 
C 3968 4264 3616 4480 3136 4480 
C 1754 4480 320 3088 320 1595 
C 320 533 1069 -128 2003 -128 
C 2515 -128 2963 88 3334 400 
C 3891 863 4058 1481 4058 1531 
C 4058 1588 4006 1588 3987 1588 
C 3930 1588 3923 1550 3910 1524 
C 3616 534 2752 57 2112 57 
C 1434 57 845 489 845 1391 
C 845 1595 909 2700 1632 3532 
C 1984 3939 2586 4295 3194 4295 
C 3898 4295 4211 3717 4211 3068 
C 4211 2903 4192 2764 4192 2738 
C 4192 2681 4256 2681 4275 2681 
C 4346 2681 4352 2687 4378 2801 
L 4781 4423 
z
" transform="scale(0.015625)"/>
     </defs>
     <use xlink:href="#CMMI12-43" transform="scale(0.996264)"/>
    </g>
   </g>
  </g>
 </g>
 <defs>
  <clipPath id="pb365730072">
   <rect x="10.8" y="17.237121" width="439.2" height="317.562879"/>
  </clipPath>
 </defs>
</svg>
