<?xml version="1.0" encoding="utf-8" standalone="no"?>
<!DOCTYPE svg PUBLIC "-//W3C//DTD SVG 1.1//EN"
  "http://www.w3.org/Graphics/SVG/1.1/DTD/svg11.dtd">
<svg xmlns:xlink="http://www.w3.org/1999/xlink" width="460.8pt" height="345.6pt" viewBox="0 0 460.8 345.6" xmlns="http://www.w3.org/2000/svg" version="1.1">
 <metadata>
  <rdf:RDF xmlns:dc="http://purl.org/dc/elements/1.1/" xmlns:cc="http://creativecommons.org/ns#" xmlns:rdf="http://www.w3.org/1999/02/22-rdf-syntax-ns#">
   <cc:Work>
    <dc:type rdf:resource="http://purl.org/dc/dcmitype/StillImage"/>
    <dc:date>2025-04-05T10:39:20.253975</dc:date>
    <dc:format>image/svg+xml</dc:format>
    <dc:creator>
     <cc:Agent>
      <dc:title>Matplotlib v3.9.1, https://matplotlib.org/</dc:title>
     </cc:Agent>
    </dc:creator>
   </cc:Work>
  </rdf:RDF>
 </metadata>
 <defs>
  <style type="text/css">*{stroke-linejoin: round; stroke-linecap: butt}</style>
 </defs>
 <g id="figure_1">
  <g id="patch_1">
   <path d="M 0 345.6 
L 460.8 345.6 
L 460.8 0 
L 0 0 
z
" style="fill: #ffffff"/>
  </g>
  <g id="axes_1">
   <g id="patch_2">
    <path d="M 73.832727 233.610295 
L 355.478879 233.610295 
L 398.487273 115.445705 
z
" clip-path="url(#pb21becfcae)" style="fill: #00648c; opacity: 0.1; stroke: #00648c; stroke-linejoin: miter"/>
   </g>
   <g id="line2d_1">
    <path d="M 73.832727 233.610295 
L 355.478879 233.610295 
L 398.487273 115.445705 
L 73.832727 233.610295 
" clip-path="url(#pb21becfcae)" style="fill: none; stroke: #000000; stroke-width: 1.5; stroke-linecap: square"/>
   </g>
   <g id="line2d_2">
    <path d="M 116.07965 233.610295 
L 116.079387 233.461337 
L 116.0786 233.31238 
L 116.077287 233.163426 
L 116.075448 233.014479 
L 116.073085 232.865538 
L 116.070196 232.716607 
L 116.066783 232.567687 
L 116.062844 232.41878 
L 116.05838 232.269888 
L 116.053392 232.121012 
L 116.047878 231.972155 
L 116.04184 231.823319 
L 116.035277 231.674504 
L 116.028189 231.525714 
L 116.020577 231.376949 
L 116.01244 231.228213 
L 116.003779 231.079506 
L 115.994593 230.93083 
L 115.984884 230.782188 
L 115.97465 230.633581 
L 115.963892 230.48501 
L 115.952611 230.336479 
L 115.940806 230.187989 
L 115.928478 230.039541 
L 115.915626 229.891137 
L 115.902251 229.742779 
L 115.888353 229.59447 
L 115.873932 229.446211 
L 115.858988 229.298003 
L 115.843522 229.149849 
L 115.827534 229.001751 
L 115.811024 228.853709 
L 115.793991 228.705727 
L 115.776438 228.557806 
L 115.758362 228.409948 
L 115.739766 228.262154 
L 115.720648 228.114427 
L 115.70101 227.966768 
L 115.680851 227.819179 
L 115.660172 227.671662 
L 115.638973 227.524219 
L 115.617254 227.376852 
L 115.595016 227.229562 
L 115.572258 227.082352 
L 115.548982 226.935223 
L 115.525187 226.788176 
L 115.500873 226.641215 
L 115.476042 226.49434 
L 115.450693 226.347554 
L 115.424826 226.200858 
L 115.398443 226.054254 
L 115.371543 225.907744 
L 115.344126 225.761329 
L 115.316193 225.615013 
L 115.287745 225.468795 
L 115.258781 225.322679 
L 115.229302 225.176666 
L 115.199308 225.030758 
L 115.1688 224.884957 
L 115.137779 224.739264 
L 115.106244 224.593681 
L 115.074195 224.44821 
L 115.041634 224.302853 
L 115.008561 224.157612 
L 114.974975 224.012489 
L 114.940879 223.867485 
L 114.906271 223.722602 
L 114.871152 223.577841 
L 114.835524 223.433206 
L 114.799385 223.288697 
L 114.762738 223.144316 
L 114.725581 223.000066 
L 114.687916 222.855947 
L 114.649744 222.711962 
L 114.611063 222.568113 
L 114.571876 222.424401 
L 114.532182 222.280828 
L 114.491983 222.137396 
L 114.451278 221.994106 
L 114.410067 221.850961 
L 114.368353 221.707962 
L 114.326134 221.565111 
L 114.283412 221.42241 
L 114.240187 221.27986 
L 114.19646 221.137464 
L 114.152231 220.995222 
L 114.107501 220.853138 
L 114.06227 220.711212 
L 114.016539 220.569446 
L 113.970308 220.427843 
L 113.923579 220.286403 
L 113.876351 220.145129 
L 113.828625 220.004023 
L 113.780402 219.863085 
L 113.731682 219.722319 
L 113.682466 219.581725 
L 113.632755 219.441306 
L 113.582549 219.301062 
L 113.531849 219.160997 
" clip-path="url(#pb21becfcae)" style="fill: none; stroke: #000000; stroke-linecap: square"/>
   </g>
   <g id="line2d_3">
    <path d="M 334.355418 233.610295 
L 334.359389 233.200683 
L 334.371303 232.791225 
L 334.391155 232.382075 
L 334.418937 231.973387 
L 334.454639 231.565315 
L 334.498247 231.158011 
L 334.549745 230.75163 
L 334.609113 230.346324 
L 334.67633 229.942245 
L 334.75137 229.539545 
L 334.834205 229.138377 
L 334.924803 228.73889 
L 335.023131 228.341235 
L 335.129151 227.945562 
L 335.242824 227.552018 
L 335.364107 227.160754 
L 335.492955 226.771914 
L 335.629318 226.385646 
L 335.773146 226.002095 
L 335.924384 225.621405 
L 336.082976 225.24372 
L 336.248862 224.869181 
L 336.42198 224.497929 
L 336.602264 224.130103 
L 336.789647 223.765843 
L 336.984058 223.405285 
L 337.185425 223.048565 
L 337.39367 222.695816 
L 337.608717 222.347172 
L 337.830484 222.002764 
L 338.058888 221.66272 
L 338.293843 221.32717 
L 338.535261 220.996239 
L 338.78305 220.670052 
L 339.037118 220.34873 
L 339.297369 220.032396 
L 339.563705 219.721168 
L 339.836026 219.415163 
L 340.11423 219.114497 
L 340.398212 218.819281 
L 340.687865 218.529628 
L 340.98308 218.245646 
L 341.283747 217.967443 
L 341.589752 217.695121 
L 341.90098 217.428785 
L 342.217314 217.168534 
L 342.538635 216.914466 
L 342.864822 216.666677 
L 343.195754 216.42526 
L 343.531304 216.190305 
L 343.871347 215.961901 
L 344.215756 215.740134 
L 344.5644 215.525087 
L 344.917148 215.316841 
L 345.273869 215.115475 
L 345.634427 214.921064 
L 345.998687 214.733681 
L 346.366512 214.553397 
L 346.737764 214.380279 
L 347.112303 214.214393 
L 347.489989 214.055801 
L 347.870679 213.904563 
L 348.25423 213.760735 
L 348.640497 213.624371 
L 349.029337 213.495524 
L 349.420602 213.374241 
L 349.814145 213.260568 
L 350.209819 213.154548 
L 350.607473 213.05622 
L 351.00696 212.965621 
L 351.408129 212.882787 
L 351.810828 212.807747 
L 352.214907 212.74053 
L 352.620213 212.681161 
L 353.026595 212.629663 
L 353.433898 212.586055 
L 353.841971 212.550354 
L 354.250659 212.522572 
L 354.659809 212.50272 
L 355.069267 212.490806 
L 355.478879 212.486834 
L 355.888491 212.490806 
L 356.297949 212.50272 
L 356.707099 212.522572 
L 357.115787 212.550354 
L 357.52386 212.586055 
L 357.931163 212.629663 
L 358.337544 212.681161 
L 358.742851 212.74053 
L 359.146929 212.807747 
L 359.549629 212.882787 
L 359.950797 212.965621 
L 360.350284 213.05622 
L 360.747939 213.154548 
L 361.143613 213.260568 
L 361.537156 213.374241 
L 361.928421 213.495524 
L 362.31726 213.624371 
L 362.703528 213.760735 
" clip-path="url(#pb21becfcae)" style="fill: none; stroke: #000000; stroke-linecap: square"/>
   </g>
   <g id="line2d_4">
    <path d="M 358.788151 129.895003 
L 358.917059 130.244377 
L 359.049042 130.592601 
L 359.18409 130.939648 
L 359.322191 131.285491 
L 359.463335 131.630103 
L 359.607511 131.973458 
L 359.754709 132.315528 
L 359.904915 132.656288 
L 360.05812 132.99571 
L 360.214311 133.333769 
L 360.373475 133.670438 
L 360.535601 134.005691 
L 360.700676 134.339502 
L 360.868687 134.671845 
L 361.03962 135.002694 
L 361.213464 135.332023 
L 361.390204 135.659807 
L 361.569826 135.98602 
L 361.752316 136.310638 
L 361.937661 136.633634 
L 362.125846 136.954984 
L 362.316856 137.274663 
L 362.510676 137.592646 
L 362.707292 137.908907 
L 362.906688 138.223424 
L 363.108849 138.53617 
L 363.313758 138.847123 
L 363.521401 139.156257 
L 363.73176 139.463549 
L 363.94482 139.768974 
L 364.160564 140.07251 
L 364.378975 140.374132 
L 364.600036 140.673817 
L 364.82373 140.971542 
L 365.05004 141.267284 
L 365.278948 141.561019 
L 365.510437 141.852726 
L 365.744487 142.14238 
L 365.981082 142.42996 
L 366.220202 142.715443 
L 366.46183 142.998808 
L 366.705946 143.280031 
L 366.952531 143.559092 
L 367.201567 143.835969 
L 367.453034 144.110639 
L 367.706911 144.383082 
L 367.963181 144.653277 
L 368.221822 144.921203 
L 368.482815 145.186838 
L 368.746139 145.450162 
L 369.011775 145.711155 
L 369.2797 145.969796 
L 369.549895 146.226066 
L 369.822338 146.479944 
L 370.097009 146.73141 
L 370.373885 146.980446 
L 370.652946 147.227031 
L 370.934169 147.471147 
L 371.217534 147.712775 
L 371.503017 147.951895 
L 371.790597 148.18849 
L 372.080252 148.422541 
L 372.371958 148.654029 
L 372.665693 148.882937 
L 372.961435 149.109247 
L 373.25916 149.332941 
L 373.558845 149.554002 
L 373.860467 149.772413 
L 374.164003 149.988157 
L 374.469429 150.201217 
L 374.77672 150.411576 
L 375.085855 150.619219 
L 375.396807 150.824128 
L 375.709554 151.026289 
L 376.02407 151.225685 
L 376.340332 151.422301 
L 376.658314 151.616121 
L 376.977993 151.807131 
L 377.299343 151.995316 
L 377.622339 152.180661 
L 377.946957 152.363152 
L 378.27317 152.542774 
L 378.600954 152.719513 
L 378.930284 152.893357 
L 379.261133 153.064291 
L 379.593475 153.232301 
L 379.927286 153.397376 
L 380.262539 153.559502 
L 380.599208 153.718666 
L 380.937267 153.874857 
L 381.276689 154.028062 
L 381.617449 154.178269 
L 381.95952 154.325466 
L 382.302874 154.469642 
L 382.647487 154.610787 
L 382.99333 154.748888 
L 383.340377 154.883935 
L 383.6886 155.015918 
L 384.037974 155.144826 
" clip-path="url(#pb21becfcae)" style="fill: none; stroke: #000000; stroke-linecap: square"/>
   </g>
   <g id="text_1">
    <!-- $ $ -->
    <g transform="translate(135.29226 227.754003) scale(0.2 -0.2)"/>
   </g>
   <g id="text_2">
    <!-- $A$ -->
    <g transform="translate(43.102961 244.009464) scale(0.2 -0.2)">
     <defs>
      <path id="CMMI12-41" d="M 1088 691 
C 864 314 646 186 339 186 
C 269 180 218 180 218 58 
C 218 24 250 0 294 0 
C 410 0 698 0 813 0 
C 998 0 1203 0 1382 0 
C 1421 0 1498 0 1498 122 
C 1498 180 1446 186 1408 186 
C 1261 186 1139 236 1139 388 
C 1139 476 1178 546 1261 685 
L 1747 1479 
L 3379 1479 
C 3386 1423 3386 1373 3392 1316 
C 3411 1152 3488 495 3488 376 
C 3488 186 3162 186 3059 186 
C 2989 186 2918 186 2918 70 
C 2918 0 2976 0 3014 0 
C 3123 0 3251 0 3360 0 
L 3725 0 
C 4115 0 4397 0 4403 0 
C 4448 0 4518 0 4518 122 
C 4518 186 4461 186 4365 186 
C 4013 186 4006 244 3987 434 
L 3597 4404 
C 3584 4531 3558 4544 3488 4544 
C 3424 4544 3386 4531 3328 4435 
L 1088 691 
z
M 1856 1664 
L 3142 3819 
L 3360 1664 
L 1856 1664 
z
" transform="scale(0.015625)"/>
     </defs>
     <use xlink:href="#CMMI12-41" transform="scale(0.996264)"/>
    </g>
   </g>
   <g id="text_3">
    <!-- $ $ -->
    <g transform="translate(334.630661 208.816636) scale(0.2 -0.2)"/>
   </g>
   <g id="text_4">
    <!-- $ $ -->
    <g transform="translate(357.875958 161.037701) scale(0.2 -0.2)"/>
   </g>
   <g id="text_5">
    <!-- $C$ -->
    <g transform="translate(404.834532 108.977044) scale(0.2 -0.2)">
     <defs>
      <path id="CMMI12-43" d="M 4781 4423 
C 4781 4480 4736 4480 4723 4480 
C 4710 4480 4685 4480 4634 4416 
L 4192 3882 
C 3968 4264 3616 4480 3136 4480 
C 1754 4480 320 3088 320 1595 
C 320 533 1069 -128 2003 -128 
C 2515 -128 2963 88 3334 400 
C 3891 863 4058 1481 4058 1531 
C 4058 1588 4006 1588 3987 1588 
C 3930 1588 3923 1550 3910 1524 
C 3616 534 2752 57 2112 57 
C 1434 57 845 489 845 1391 
C 845 1595 909 2700 1632 3532 
C 1984 3939 2586 4295 3194 4295 
C 3898 4295 4211 3717 4211 3068 
C 4211 2903 4192 2764 4192 2738 
C 4192 2681 4256 2681 4275 2681 
C 4346 2681 4352 2687 4378 2801 
L 4781 4423 
z
" transform="scale(0.015625)"/>
     </defs>
     <use xlink:href="#CMMI12-43" transform="scale(0.996264)"/>
    </g>
   </g>
   <g id="text_6">
    <!-- $c$ -->
    <g transform="translate(214.655803 259.714438) scale(0.2 -0.2)">
     <defs>
      <path id="CMMI12-63" d="M 2502 2431 
C 2381 2431 2323 2431 2234 2355 
C 2195 2323 2125 2227 2125 2125 
C 2125 1997 2221 1920 2342 1920 
C 2496 1920 2669 2044 2669 2292 
C 2669 2588 2374 2816 1933 2816 
C 1094 2816 256 1903 256 996 
C 256 441 602 -64 1254 -64 
C 2125 -64 2675 622 2675 706 
C 2675 744 2637 776 2611 776 
C 2592 776 2586 770 2528 713 
C 2118 162 1510 64 1267 64 
C 826 64 685 446 685 764 
C 685 988 794 1605 1024 2039 
C 1190 2338 1536 2682 1939 2682 
C 2022 2682 2374 2682 2502 2431 
z
" transform="scale(0.015625)"/>
     </defs>
     <use xlink:href="#CMMI12-63" transform="scale(0.996264)"/>
    </g>
   </g>
   <g id="text_7">
    <!-- $a$ -->
    <g transform="translate(386.591074 195.589646) scale(0.2 -0.2)">
     <defs>
      <path id="CMMI12-61" d="M 1926 760 
C 1894 651 1894 639 1805 517 
C 1664 338 1382 64 1082 64 
C 819 64 672 300 672 677 
C 672 1028 870 1743 992 2012 
C 1210 2459 1510 2689 1760 2689 
C 2182 2689 2266 2165 2266 2114 
C 2266 2108 2246 2024 2240 2012 
L 1926 760 
z
M 2336 2395 
C 2266 2561 2093 2816 1760 2816 
C 1037 2816 256 1884 256 939 
C 256 307 627 -64 1062 -64 
C 1414 -64 1715 211 1894 422 
C 1958 45 2259 -64 2451 -64 
C 2643 -64 2797 51 2912 281 
C 3014 498 3104 888 3104 913 
C 3104 945 3078 971 3040 971 
C 2982 971 2976 939 2950 843 
C 2854 466 2733 64 2470 64 
C 2285 64 2272 230 2272 358 
C 2272 505 2291 575 2349 824 
C 2394 984 2426 1124 2477 1309 
C 2714 2267 2771 2497 2771 2535 
C 2771 2625 2701 2695 2605 2695 
C 2400 2695 2349 2472 2336 2395 
z
" transform="scale(0.015625)"/>
     </defs>
     <use xlink:href="#CMMI12-61" transform="scale(0.996264)"/>
    </g>
   </g>
   <g id="text_8">
    <!-- $b$ -->
    <g transform="translate(220.640179 168.515436) scale(0.2 -0.2)">
     <defs>
      <path id="CMMI12-62" d="M 1478 4257 
C 1485 4283 1498 4321 1498 4352 
C 1498 4416 1434 4416 1421 4416 
C 1414 4416 1184 4393 1069 4377 
C 960 4377 864 4358 749 4358 
C 595 4345 550 4339 550 4224 
C 550 4160 614 4160 678 4160 
C 1005 4160 1005 4103 1005 4040 
C 1005 3996 954 3811 928 3696 
L 774 3085 
C 710 2831 346 1387 320 1272 
C 288 1114 288 1005 288 922 
C 288 274 653 -64 1069 -64 
C 1811 -64 2579 888 2579 1814 
C 2579 2401 2246 2816 1766 2816 
C 1434 2816 1133 2542 1011 2414 
L 1478 4257 
z
M 1075 64 
C 870 64 646 217 646 715 
C 646 926 666 1047 781 1494 
C 800 1577 902 1986 928 2069 
C 941 2120 1318 2689 1754 2689 
C 2035 2689 2163 2408 2163 2076 
C 2163 1769 1984 1047 1824 715 
C 1664 370 1370 64 1075 64 
z
" transform="scale(0.015625)"/>
     </defs>
     <use xlink:href="#CMMI12-62" transform="scale(0.996264)"/>
    </g>
   </g>
   <g id="text_9">
    <!-- $B$ -->
    <g transform="translate(362.520033 247.447292) scale(0.2 -0.2)">
     <defs>
      <path id="CMMI12-42" d="M 2342 3921 
C 2400 4160 2426 4160 2675 4160 
L 3507 4160 
C 4230 4160 4230 3544 4230 3485 
C 4230 2966 3712 2304 2867 2304 
L 1946 2304 
L 2342 3921 
z
M 3424 2275 
C 4122 2402 4755 2886 4755 3473 
C 4755 3970 4314 4352 3590 4352 
L 1536 4352 
C 1414 4352 1357 4352 1357 4226 
C 1357 4160 1414 4160 1510 4160 
C 1901 4160 1901 4112 1901 4044 
C 1901 4032 1901 3993 1875 3897 
L 1011 472 
C 954 249 941 185 493 185 
C 371 185 307 185 307 70 
C 307 0 346 0 474 0 
L 2669 0 
C 3648 0 4403 739 4403 1383 
C 4403 1906 3942 2224 3424 2275 
z
M 2515 185 
L 1651 185 
C 1562 185 1549 185 1510 192 
C 1440 198 1434 211 1434 261 
C 1434 305 1446 343 1459 399 
L 1907 2176 
L 3110 2176 
C 3866 2176 3866 1483 3866 1433 
C 3866 828 3309 185 2515 185 
z
" transform="scale(0.015625)"/>
     </defs>
     <use xlink:href="#CMMI12-42" transform="scale(0.996264)"/>
    </g>
   </g>
  </g>
 </g>
 <defs>
  <clipPath id="pb21becfcae">
   <rect x="57.6" y="41.472" width="357.12" height="266.112"/>
  </clipPath>
 </defs>
</svg>
