<?xml version="1.0" encoding="utf-8" standalone="no"?>
<!DOCTYPE svg PUBLIC "-//W3C//DTD SVG 1.1//EN"
  "http://www.w3.org/Graphics/SVG/1.1/DTD/svg11.dtd">
<svg xmlns:xlink="http://www.w3.org/1999/xlink" width="460.8pt" height="345.6pt" viewBox="0 0 460.8 345.6" xmlns="http://www.w3.org/2000/svg" version="1.1">
 <metadata>
  <rdf:RDF xmlns:dc="http://purl.org/dc/elements/1.1/" xmlns:cc="http://creativecommons.org/ns#" xmlns:rdf="http://www.w3.org/1999/02/22-rdf-syntax-ns#">
   <cc:Work>
    <dc:type rdf:resource="http://purl.org/dc/dcmitype/StillImage"/>
    <dc:date>2025-05-10T16:09:06.292801</dc:date>
    <dc:format>image/svg+xml</dc:format>
    <dc:creator>
     <cc:Agent>
      <dc:title>Matplotlib v3.9.1, https://matplotlib.org/</dc:title>
     </cc:Agent>
    </dc:creator>
   </cc:Work>
  </rdf:RDF>
 </metadata>
 <defs>
  <style type="text/css">*{stroke-linejoin: round; stroke-linecap: butt}</style>
 </defs>
 <g id="figure_1">
  <g id="patch_1">
   <path d="M 0 345.6 
L 460.8 345.6 
L 460.8 0 
L 0 0 
L 0 345.6 
z
" style="fill: none"/>
  </g>
  <g id="axes_1">
   <g id="patch_2">
    <path d="M 127.837988 321.56129 
L 332.962012 149.441798 
L 153.867841 24.03871 
z
" clip-path="url(#p8924efd674)" style="fill: #0072b2; opacity: 0.03; stroke: #0072b2; stroke-linejoin: miter"/>
   </g>
   <g id="patch_3">
    <path d="M 332.962012 149.441798 
L 279.61568 35.04022 
L 153.867841 24.03871 
z
" clip-path="url(#p8924efd674)" style="fill: #0072b2; opacity: 0.03; stroke: #0072b2; stroke-linejoin: miter"/>
   </g>
   <g id="line2d_1">
    <path d="M 127.837988 321.56129 
L 332.962012 149.441798 
L 153.867841 24.03871 
L 127.837988 321.56129 
" clip-path="url(#p8924efd674)" style="fill: none; stroke: #000000; stroke-width: 1.5; stroke-linecap: square"/>
   </g>
   <g id="line2d_2">
    <path d="M 332.962012 149.441798 
L 279.61568 35.04022 
L 153.867841 24.03871 
L 332.962012 149.441798 
" clip-path="url(#p8924efd674)" style="fill: none; stroke: #000000; stroke-width: 1.5; stroke-linecap: square"/>
   </g>
   <g id="line2d_3">
    <path d="M 156.846906 297.219918 
L 156.652887 296.99055 
L 156.457055 296.762728 
L 156.259422 296.536466 
L 156.06 296.31178 
L 155.858801 296.088683 
L 155.655839 295.867189 
L 155.451127 295.647312 
L 155.244676 295.429066 
L 155.036501 295.212465 
L 154.826614 294.997522 
L 154.615028 294.784251 
L 154.401757 294.572665 
L 154.186814 294.362778 
L 153.970213 294.154602 
L 153.751967 293.948152 
L 153.53209 293.743439 
L 153.310596 293.540477 
L 153.087498 293.339279 
L 152.862812 293.139857 
L 152.636551 292.942223 
L 152.408729 292.746391 
L 152.17936 292.552373 
L 151.94846 292.36018 
L 151.716042 292.169825 
L 151.482121 291.98132 
L 151.246712 291.794676 
L 151.00983 291.609906 
L 150.77149 291.427021 
L 150.531706 291.246032 
L 150.290494 291.066952 
L 150.047869 290.889791 
L 149.803846 290.71456 
L 149.55844 290.54127 
L 149.311668 290.369933 
L 149.063544 290.200559 
L 148.814084 290.033158 
L 148.563304 289.867742 
L 148.311219 289.704321 
L 148.057846 289.542905 
L 147.803201 289.383503 
L 147.547299 289.226127 
L 147.290156 289.070786 
L 147.031789 288.91749 
L 146.772215 288.766248 
L 146.511448 288.617071 
L 146.249506 288.469967 
L 145.986406 288.324945 
L 145.722163 288.182016 
L 145.456795 288.041187 
L 145.190318 287.902467 
L 144.922748 287.765867 
L 144.654104 287.631393 
L 144.384401 287.499054 
L 144.113656 287.36886 
L 143.841888 287.240817 
L 143.569112 287.114934 
L 143.295346 286.99122 
L 143.020607 286.869681 
L 142.744913 286.750325 
L 142.46828 286.633161 
L 142.190727 286.518194 
L 141.91227 286.405433 
L 141.632928 286.294885 
L 141.352717 286.186556 
L 141.071656 286.080454 
L 140.789762 285.976585 
L 140.507053 285.874955 
L 140.223546 285.775572 
L 139.93926 285.67844 
L 139.654212 285.583567 
L 139.368421 285.490959 
L 139.081903 285.40062 
L 138.794679 285.312558 
L 138.506764 285.226776 
L 138.218178 285.143282 
L 137.928939 285.062079 
L 137.639065 284.983174 
L 137.348574 284.906571 
L 137.057484 284.832275 
L 136.765814 284.76029 
L 136.473583 284.690622 
L 136.180807 284.623274 
L 135.887507 284.558251 
L 135.5937 284.495556 
L 135.299405 284.435195 
L 135.00464 284.37717 
L 134.709424 284.321486 
L 134.413776 284.268145 
L 134.117714 284.217151 
L 133.821257 284.168508 
L 133.524423 284.122218 
L 133.227231 284.078284 
L 132.9297 284.03671 
L 132.631849 283.997497 
L 132.333695 283.960648 
L 132.035259 283.926166 
L 131.736559 283.894052 
L 131.437614 283.864309 
L 131.138441 283.836939 
" clip-path="url(#p8924efd674)" style="fill: none; stroke: #000000; stroke-width: 1.5; stroke-linecap: square"/>
   </g>
   <g id="line2d_4">
    <path d="M 313.622733 165.669379 
L 313.409866 165.412261 
L 313.200417 165.15235 
L 312.994422 164.889693 
L 312.791918 164.624335 
L 312.592941 164.356323 
L 312.397525 164.085703 
L 312.205703 163.812523 
L 312.017511 163.536831 
L 311.83298 163.258675 
L 311.652143 162.978103 
L 311.475031 162.695165 
L 311.301676 162.40991 
L 311.132107 162.122388 
L 310.966355 161.832648 
L 310.804448 161.540743 
L 310.646415 161.246722 
L 310.492283 160.950638 
L 310.34208 160.652542 
L 310.195831 160.352485 
L 310.053562 160.050521 
L 309.915298 159.746703 
L 309.781063 159.441083 
L 309.650881 159.133715 
L 309.524774 158.824653 
L 309.402764 158.51395 
L 309.284873 158.201661 
L 309.171122 157.887841 
L 309.061529 157.572544 
L 308.956115 157.255826 
L 308.854898 156.937741 
L 308.757896 156.618347 
L 308.665124 156.297697 
L 308.576601 155.975849 
L 308.492341 155.652859 
L 308.412358 155.328783 
L 308.336667 155.003677 
L 308.265282 154.677599 
L 308.198214 154.350606 
L 308.135475 154.022755 
L 308.077077 153.694103 
L 308.023029 153.364708 
L 307.973341 153.034626 
L 307.928022 152.703917 
L 307.887079 152.372637 
L 307.85052 152.040845 
L 307.81835 151.708599 
L 307.790577 151.375956 
L 307.767204 151.042975 
L 307.748236 150.709714 
L 307.733676 150.376232 
L 307.723526 150.042586 
L 307.717789 149.708835 
L 307.716465 149.375037 
L 307.719554 149.041252 
L 307.727057 148.707536 
L 307.738971 148.373948 
L 307.755295 148.040547 
L 307.776025 147.707392 
L 307.801159 147.374539 
L 307.830691 147.042048 
L 307.864617 146.709976 
L 307.90293 146.378382 
L 307.945625 146.047323 
L 307.992692 145.716858 
L 308.044125 145.387044 
L 308.099915 145.057939 
L 308.16005 144.729601 
L 308.224522 144.402086 
L 308.293319 144.075452 
L 308.366428 143.749757 
L 308.443837 143.425056 
L 308.525532 143.101407 
L 308.6115 142.778867 
L 308.701724 142.457492 
L 308.79619 142.137338 
L 308.89488 141.81846 
L 308.997778 141.500916 
L 309.104866 141.184759 
L 309.216124 140.870047 
L 309.331534 140.556832 
L 309.451075 140.245172 
L 309.574726 139.935118 
L 309.702466 139.626727 
L 309.834272 139.320052 
L 309.970121 139.015146 
L 310.10999 138.712063 
L 310.253854 138.410856 
L 310.401688 138.111578 
L 310.553466 137.81428 
L 310.709162 137.519015 
L 310.868748 137.225834 
L 311.032196 136.934789 
L 311.199478 136.645931 
L 311.370565 136.359309 
L 311.545426 136.074975 
L 311.724032 135.792977 
L 311.906351 135.513366 
L 312.09235 135.236189 
L 312.281998 134.961497 
" clip-path="url(#p8924efd674)" style="fill: none; stroke: #000000; stroke-width: 1.5; stroke-linecap: square"/>
   </g>
   <g id="line2d_5">
    <path d="M 287.61763 52.200457 
L 287.252833 52.365889 
L 286.884618 52.523568 
L 286.51315 52.673423 
L 286.138595 52.815385 
L 285.761121 52.949393 
L 285.380896 53.075386 
L 284.998091 53.193307 
L 284.612878 53.303104 
L 284.225428 53.404728 
L 283.835915 53.498133 
L 283.444513 53.583277 
L 283.051398 53.660122 
L 282.656745 53.728635 
L 282.260731 53.788783 
L 281.863533 53.840541 
L 281.46533 53.883885 
L 281.066298 53.918796 
L 280.666618 53.945258 
L 280.266467 53.963259 
L 279.866025 53.972791 
L 279.46547 53.97385 
L 279.064983 53.966436 
L 278.664743 53.950552 
L 278.264928 53.926204 
L 277.865717 53.893404 
L 277.46729 53.852167 
L 277.069824 53.80251 
L 276.673498 53.744457 
L 276.278488 53.678033 
L 275.884972 53.603268 
L 275.493125 53.520195 
L 275.103124 53.428851 
L 274.715141 53.329278 
L 274.329353 53.22152 
L 273.94593 53.105625 
L 273.565044 52.981645 
L 273.186866 52.849636 
L 272.811566 52.709656 
L 272.43931 52.561768 
L 272.070267 52.406039 
L 271.7046 52.242538 
L 271.342474 52.071338 
L 270.98405 51.892516 
L 270.629489 51.706152 
L 270.27895 51.51233 
L 269.932589 51.311135 
L 269.590562 51.102659 
L 269.253022 50.886994 
L 268.920119 50.664237 
L 268.592003 50.434488 
L 268.268821 50.197849 
L 267.950717 49.954427 
L 267.637833 49.704329 
L 267.33031 49.44767 
L 267.028285 49.184562 
L 266.731893 48.915124 
L 266.441267 48.639476 
L 266.156537 48.357743 
L 265.877831 48.070049 
L 265.605273 47.776524 
L 265.338986 47.477299 
L 265.079087 47.172507 
L 264.825694 46.862287 
L 264.578921 46.546775 
L 264.338877 46.226113 
L 264.10567 45.900446 
L 263.879404 45.569918 
L 263.660181 45.234678 
L 263.448098 44.894875 
L 263.243251 44.550662 
L 263.045732 44.202193 
L 262.855628 43.849623 
L 262.673025 43.493111 
L 262.498004 43.132816 
L 262.330645 42.768899 
L 262.17102 42.401523 
L 262.019204 42.030853 
L 261.875262 41.657054 
L 261.73926 41.280294 
L 261.611258 40.900741 
L 261.491313 40.518565 
L 261.379481 40.133938 
L 261.275809 39.747031 
L 261.180346 39.358017 
L 261.093132 38.967071 
L 261.014209 38.574368 
L 260.94361 38.180083 
L 260.881368 37.784393 
L 260.82751 37.387474 
L 260.782061 36.989505 
L 260.74504 36.590664 
L 260.716465 36.191129 
L 260.696348 35.791079 
L 260.684698 35.390693 
L 260.68152 34.99015 
L 260.686816 34.589629 
L 260.700583 34.18931 
L 260.722816 33.789372 
L 260.753504 33.389993 
" clip-path="url(#p8924efd674)" style="fill: none; stroke: #000000; stroke-width: 1.5; stroke-linecap: square"/>
   </g>
   <g id="text_1">
    <!-- $45^\circ$ -->
    <g transform="translate(142.498771 270.690635) scale(0.2 -0.2)">
     <defs>
      <path id="CMR17-34" d="M 2150 4122 
C 2150 4256 2144 4256 2029 4256 
L 128 1254 
L 128 1088 
L 1779 1088 
L 1779 457 
C 1779 224 1766 160 1318 160 
L 1197 160 
L 1197 0 
C 1402 0 1747 0 1965 0 
C 2182 0 2528 0 2733 0 
L 2733 160 
L 2611 160 
C 2163 160 2150 224 2150 457 
L 2150 1088 
L 2803 1088 
L 2803 1254 
L 2150 1254 
L 2150 4122 
z
M 1798 3703 
L 1798 1254 
L 256 1254 
L 1798 3703 
z
" transform="scale(0.015625)"/>
      <path id="CMR17-35" d="M 730 3692 
C 794 3666 1056 3584 1325 3584 
C 1920 3584 2246 3911 2432 4100 
C 2432 4157 2432 4192 2394 4192 
C 2387 4192 2374 4192 2323 4163 
C 2099 4058 1837 3973 1517 3973 
C 1325 3973 1037 3999 723 4139 
C 653 4171 640 4171 634 4171 
C 602 4171 595 4164 595 4037 
L 595 2203 
C 595 2089 595 2057 659 2057 
C 691 2057 704 2070 736 2114 
C 941 2401 1222 2522 1542 2522 
C 1766 2522 2246 2382 2246 1289 
C 2246 1085 2246 715 2054 421 
C 1894 159 1645 25 1370 25 
C 947 25 518 320 403 814 
C 429 807 480 795 506 795 
C 589 795 749 840 749 1038 
C 749 1210 627 1280 506 1280 
C 358 1280 262 1190 262 1011 
C 262 454 704 -128 1382 -128 
C 2042 -128 2669 440 2669 1264 
C 2669 2030 2170 2624 1549 2624 
C 1222 2624 947 2503 730 2274 
L 730 3692 
z
" transform="scale(0.015625)"/>
      <path id="CMSY10-e" d="M 2842 1600 
C 2842 2277 2272 2828 1600 2828 
C 909 2828 352 2264 352 1600 
C 352 930 909 372 1600 372 
C 2272 372 2842 923 2842 1600 
z
M 1600 628 
C 1043 628 608 1070 608 1600 
C 608 2130 1050 2572 1600 2572 
C 2131 2572 2586 2142 2586 1600 
C 2586 1058 2131 628 1600 628 
z
" transform="scale(0.015625)"/>
     </defs>
     <use xlink:href="#CMR17-34" transform="scale(0.996264)"/>
     <use xlink:href="#CMR17-35" transform="translate(45.690477 0) scale(0.996264)"/>
     <use xlink:href="#CMSY10-e" transform="translate(91.380954 36.153639) scale(0.697382)"/>
    </g>
   </g>
   <g id="text_2">
    <!-- $75^\circ$ -->
    <g transform="translate(275.100501 159.424573) scale(0.2 -0.2)">
     <defs>
      <path id="CMR17-37" d="M 2886 3941 
L 2886 4081 
L 1382 4081 
C 634 4081 621 4165 595 4288 
L 480 4288 
L 294 3094 
L 410 3094 
C 429 3215 474 3540 550 3661 
C 589 3712 1062 3712 1171 3712 
L 2579 3712 
L 1869 2661 
C 1395 1954 1069 999 1069 165 
C 1069 89 1069 -128 1299 -128 
C 1530 -128 1530 89 1530 171 
L 1530 465 
C 1530 1508 1709 2196 2003 2636 
L 2886 3941 
z
" transform="scale(0.015625)"/>
     </defs>
     <use xlink:href="#CMR17-37" transform="scale(0.996264)"/>
     <use xlink:href="#CMR17-35" transform="translate(45.690477 0) scale(0.996264)"/>
     <use xlink:href="#CMSY10-e" transform="translate(91.380954 36.153639) scale(0.697382)"/>
    </g>
   </g>
   <g id="text_3">
    <!-- $120^\circ$ -->
    <g transform="translate(241.915455 69.586055) scale(0.2 -0.2)">
     <defs>
      <path id="CMR17-31" d="M 1702 4058 
C 1702 4192 1696 4192 1606 4192 
C 1357 3916 979 3827 621 3827 
C 602 3827 570 3827 563 3808 
C 557 3795 557 3782 557 3648 
C 755 3648 1088 3686 1344 3839 
L 1344 461 
C 1344 236 1331 160 781 160 
L 589 160 
L 589 0 
C 896 0 1216 0 1523 0 
C 1830 0 2150 0 2458 0 
L 2458 160 
L 2266 160 
C 1715 160 1702 230 1702 458 
L 1702 4058 
z
" transform="scale(0.015625)"/>
      <path id="CMR17-32" d="M 2669 989 
L 2554 989 
C 2490 536 2438 459 2413 420 
C 2381 369 1920 369 1830 369 
L 602 369 
C 832 619 1280 1072 1824 1597 
C 2214 1967 2669 2402 2669 3035 
C 2669 3790 2067 4224 1395 4224 
C 691 4224 262 3604 262 3030 
C 262 2780 448 2748 525 2748 
C 589 2748 781 2787 781 3010 
C 781 3207 614 3264 525 3264 
C 486 3264 448 3258 422 3245 
C 544 3790 915 4058 1306 4058 
C 1862 4058 2227 3617 2227 3035 
C 2227 2479 1901 2000 1536 1584 
L 262 146 
L 262 0 
L 2515 0 
L 2669 989 
z
" transform="scale(0.015625)"/>
      <path id="CMR17-30" d="M 2688 2025 
C 2688 2416 2682 3080 2413 3591 
C 2176 4039 1798 4198 1466 4198 
C 1158 4198 768 4058 525 3597 
C 269 3118 243 2524 243 2025 
C 243 1661 250 1106 448 619 
C 723 -39 1216 -128 1466 -128 
C 1760 -128 2208 -7 2470 600 
C 2662 1042 2688 1559 2688 2025 
z
M 1466 -26 
C 1056 -26 813 325 723 812 
C 653 1188 653 1738 653 2096 
C 653 2588 653 2997 736 3387 
C 858 3929 1216 4096 1466 4096 
C 1728 4096 2067 3923 2189 3400 
C 2272 3036 2278 2607 2278 2096 
C 2278 1680 2278 1169 2202 792 
C 2067 95 1690 -26 1466 -26 
z
" transform="scale(0.015625)"/>
     </defs>
     <use xlink:href="#CMR17-31" transform="scale(0.996264)"/>
     <use xlink:href="#CMR17-32" transform="translate(45.690477 0) scale(0.996264)"/>
     <use xlink:href="#CMR17-30" transform="translate(91.380954 0) scale(0.996264)"/>
     <use xlink:href="#CMSY10-e" transform="translate(137.071431 36.153639) scale(0.697382)"/>
    </g>
   </g>
   <g id="text_4">
    <!-- $2a$ -->
    <g transform="translate(216.741761 25.663831) scale(0.2 -0.2)">
     <defs>
      <path id="CMMI12-61" d="M 1926 760 
C 1894 651 1894 639 1805 517 
C 1664 338 1382 64 1082 64 
C 819 64 672 300 672 677 
C 672 1028 870 1743 992 2012 
C 1210 2459 1510 2689 1760 2689 
C 2182 2689 2266 2165 2266 2114 
C 2266 2108 2246 2024 2240 2012 
L 1926 760 
z
M 2336 2395 
C 2266 2561 2093 2816 1760 2816 
C 1037 2816 256 1884 256 939 
C 256 307 627 -64 1062 -64 
C 1414 -64 1715 211 1894 422 
C 1958 45 2259 -64 2451 -64 
C 2643 -64 2797 51 2912 281 
C 3014 498 3104 888 3104 913 
C 3104 945 3078 971 3040 971 
C 2982 971 2976 939 2950 843 
C 2854 466 2733 64 2470 64 
C 2285 64 2272 230 2272 358 
C 2272 505 2291 575 2349 824 
C 2394 984 2426 1124 2477 1309 
C 2714 2267 2771 2497 2771 2535 
C 2771 2625 2701 2695 2605 2695 
C 2400 2695 2349 2472 2336 2395 
z
" transform="scale(0.015625)"/>
     </defs>
     <use xlink:href="#CMR17-32" transform="scale(0.996264)"/>
     <use xlink:href="#CMMI12-61" transform="translate(45.690477 0) scale(0.996264)"/>
    </g>
   </g>
   <g id="text_5">
    <!-- $2a$ -->
    <g transform="translate(311.103476 85.051005) scale(0.2 -0.2)">
     <use xlink:href="#CMR17-32" transform="scale(0.996264)"/>
     <use xlink:href="#CMMI12-61" transform="translate(45.690477 0) scale(0.996264)"/>
    </g>
   </g>
   <g id="text_6">
    <!-- $A$ -->
    <g transform="translate(113.212414 335.398287) scale(0.2 -0.2)">
     <defs>
      <path id="CMMI12-41" d="M 1088 691 
C 864 314 646 186 339 186 
C 269 180 218 180 218 58 
C 218 24 250 0 294 0 
C 410 0 698 0 813 0 
C 998 0 1203 0 1382 0 
C 1421 0 1498 0 1498 122 
C 1498 180 1446 186 1408 186 
C 1261 186 1139 236 1139 388 
C 1139 476 1178 546 1261 685 
L 1747 1479 
L 3379 1479 
C 3386 1423 3386 1373 3392 1316 
C 3411 1152 3488 495 3488 376 
C 3488 186 3162 186 3059 186 
C 2989 186 2918 186 2918 70 
C 2918 0 2976 0 3014 0 
C 3123 0 3251 0 3360 0 
L 3725 0 
C 4115 0 4397 0 4403 0 
C 4448 0 4518 0 4518 122 
C 4518 186 4461 186 4365 186 
C 4013 186 4006 244 3987 434 
L 3597 4404 
C 3584 4531 3558 4544 3488 4544 
C 3424 4544 3386 4531 3328 4435 
L 1088 691 
z
M 1856 1664 
L 3142 3819 
L 3360 1664 
L 1856 1664 
z
" transform="scale(0.015625)"/>
     </defs>
     <use xlink:href="#CMMI12-41" transform="scale(0.996264)"/>
    </g>
   </g>
   <g id="text_7">
    <!-- $B$ -->
    <g transform="translate(332.962012 154.422479) scale(0.2 -0.2)">
     <defs>
      <path id="CMMI12-42" d="M 2342 3921 
C 2400 4160 2426 4160 2675 4160 
L 3507 4160 
C 4230 4160 4230 3544 4230 3485 
C 4230 2966 3712 2304 2867 2304 
L 1946 2304 
L 2342 3921 
z
M 3424 2275 
C 4122 2402 4755 2886 4755 3473 
C 4755 3970 4314 4352 3590 4352 
L 1536 4352 
C 1414 4352 1357 4352 1357 4226 
C 1357 4160 1414 4160 1510 4160 
C 1901 4160 1901 4112 1901 4044 
C 1901 4032 1901 3993 1875 3897 
L 1011 472 
C 954 249 941 185 493 185 
C 371 185 307 185 307 70 
C 307 0 346 0 474 0 
L 2669 0 
C 3648 0 4403 739 4403 1383 
C 4403 1906 3942 2224 3424 2275 
z
M 2515 185 
L 1651 185 
C 1562 185 1549 185 1510 192 
C 1440 198 1434 211 1434 261 
C 1434 305 1446 343 1459 399 
L 1907 2176 
L 3110 2176 
C 3866 2176 3866 1483 3866 1433 
C 3866 828 3309 185 2515 185 
z
" transform="scale(0.015625)"/>
     </defs>
     <use xlink:href="#CMMI12-42" transform="scale(0.996264)"/>
    </g>
   </g>
   <g id="text_8">
    <!-- $C$ -->
    <g transform="translate(279.61568 31.164586) scale(0.2 -0.2)">
     <defs>
      <path id="CMMI12-43" d="M 4781 4423 
C 4781 4480 4736 4480 4723 4480 
C 4710 4480 4685 4480 4634 4416 
L 4192 3882 
C 3968 4264 3616 4480 3136 4480 
C 1754 4480 320 3088 320 1595 
C 320 533 1069 -128 2003 -128 
C 2515 -128 2963 88 3334 400 
C 3891 863 4058 1481 4058 1531 
C 4058 1588 4006 1588 3987 1588 
C 3930 1588 3923 1550 3910 1524 
C 3616 534 2752 57 2112 57 
C 1434 57 845 489 845 1391 
C 845 1595 909 2700 1632 3532 
C 1984 3939 2586 4295 3194 4295 
C 3898 4295 4211 3717 4211 3068 
C 4211 2903 4192 2764 4192 2738 
C 4192 2681 4256 2681 4275 2681 
C 4346 2681 4352 2687 4378 2801 
L 4781 4423 
z
" transform="scale(0.015625)"/>
     </defs>
     <use xlink:href="#CMMI12-43" transform="scale(0.996264)"/>
    </g>
   </g>
   <g id="text_9">
    <!-- $D$ -->
    <g transform="translate(137.669004 20.163076) scale(0.2 -0.2)">
     <defs>
      <path id="CMMI12-44" d="M 1005 472 
C 947 249 934 185 486 185 
C 365 185 301 185 301 70 
C 301 0 339 0 467 0 
L 2496 0 
C 3789 0 5050 1332 5050 2753 
C 5050 3671 4499 4352 3584 4352 
L 1530 4352 
C 1408 4352 1350 4352 1350 4231 
C 1350 4167 1408 4167 1504 4167 
C 1894 4167 1894 4116 1894 4046 
C 1894 4034 1894 3995 1869 3899 
L 1005 472 
z
M 2355 3931 
C 2413 4167 2438 4167 2688 4167 
L 3392 4167 
C 3994 4167 4544 3842 4544 2963 
C 4544 2644 4416 1536 3795 835 
C 3616 625 3130 185 2394 185 
L 1664 185 
C 1574 185 1562 185 1523 192 
C 1453 198 1446 211 1446 262 
C 1446 307 1459 345 1472 402 
L 2355 3931 
z
" transform="scale(0.015625)"/>
     </defs>
     <use xlink:href="#CMMI12-44" transform="scale(0.996264)"/>
    </g>
   </g>
  </g>
 </g>
 <defs>
  <clipPath id="p8924efd674">
   <rect x="10.8" y="16.41663" width="439.2" height="312.766739"/>
  </clipPath>
 </defs>
</svg>
