<?xml version="1.0" encoding="utf-8" standalone="no"?>
<!DOCTYPE svg PUBLIC "-//W3C//DTD SVG 1.1//EN"
  "http://www.w3.org/Graphics/SVG/1.1/DTD/svg11.dtd">
<svg xmlns:xlink="http://www.w3.org/1999/xlink" width="144pt" height="216pt" viewBox="0 0 144 216" xmlns="http://www.w3.org/2000/svg" version="1.1">
 <metadata>
  <rdf:RDF xmlns:dc="http://purl.org/dc/elements/1.1/" xmlns:cc="http://creativecommons.org/ns#" xmlns:rdf="http://www.w3.org/1999/02/22-rdf-syntax-ns#">
   <cc:Work>
    <dc:type rdf:resource="http://purl.org/dc/dcmitype/StillImage"/>
    <dc:date>2025-05-22T19:44:29.184132</dc:date>
    <dc:format>image/svg+xml</dc:format>
    <dc:creator>
     <cc:Agent>
      <dc:title>Matplotlib v3.9.1, https://matplotlib.org/</dc:title>
     </cc:Agent>
    </dc:creator>
   </cc:Work>
  </rdf:RDF>
 </metadata>
 <defs>
  <style type="text/css">*{stroke-linejoin: round; stroke-linecap: butt}</style>
 </defs>
 <g id="figure_1">
  <g id="patch_1">
   <path d="M 0 216 
L 144 216 
L 144 0 
L 0 0 
L 0 216 
z
" style="fill: none"/>
  </g>
  <g id="axes_1">
   <g id="line2d_1">
    <path d="M 128.533185 35.146938 
L 128.426717 34.051167 
L 128.107799 32.960395 
L 127.519325 31.782012 
L 126.682963 30.621899 
L 125.502468 29.39303 
L 124.043923 28.200824 
L 122.172924 26.96662 
L 119.838178 25.711566 
L 117.181355 24.536541 
L 114.017848 23.382604 
L 110.317425 22.281165 
L 106.307096 21.31986 
L 101.771672 20.466361 
L 96.993189 19.79211 
L 91.750054 19.283924 
L 86.372457 18.991517 
L 80.933547 18.918866 
L 75.507308 19.066959 
L 70.167551 19.433782 
L 64.98691 20.014345 
L 60.289608 20.754392 
L 55.85574 21.670169 
L 51.739442 22.750496 
L 48.188772 23.910032 
L 45.181399 25.11341 
L 42.528 26.413606 
L 40.384737 27.709323 
L 38.701461 28.975803 
L 37.423776 30.192856 
L 36.429263 31.441476 
L 35.768098 32.615187 
L 35.357225 33.802646 
L 35.202395 34.897719 
L 35.260476 35.99393 
L 35.531203 37.086276 
L 36.067587 38.267663 
L 36.852635 39.432106 
L 37.882087 40.573281 
L 39.266614 41.776115 
L 41.060904 43.024022 
L 43.156703 44.213724 
L 45.719148 45.413837 
L 48.78976 46.597739 
L 52.401253 47.734325 
L 56.333669 48.733808 
L 60.799545 49.630574 
L 65.522629 50.350496 
L 70.723383 50.908883 
L 76.075693 51.252866 
L 81.506753 51.377765 
L 86.942687 51.281883 
L 92.309551 50.966524 
L 97.534343 50.435976 
L 102.545991 49.697458 
L 107.035432 48.81504 
L 111.217546 47.765736 
L 114.839057 46.633013 
L 117.920108 45.452396 
L 120.653249 44.172338 
L 122.876095 42.892943 
L 124.637254 41.639339 
L 126.08236 40.337762 
L 127.131878 39.094601 
L 127.84478 37.924558 
L 128.308026 36.739434 
L 128.511181 35.645317 
L 128.533185 35.146938 
L 128.533185 35.146938 
" clip-path="url(#p2ea8b7c721)" style="fill: none; stroke: #000000; stroke-width: 2.5; stroke-linecap: square"/>
   </g>
   <g id="line2d_2">
    <path d="M 128.533185 164.997385 
L 128.426717 163.901614 
L 128.107799 162.810842 
L 127.519325 161.632459 
L 126.682963 160.472346 
L 125.502468 159.243478 
L 124.043923 158.051272 
L 122.172924 156.817067 
L 119.838178 155.562014 
L 117.181355 154.386988 
L 114.017848 153.233052 
L 110.317425 152.131612 
L 106.307096 151.170308 
L 101.771672 150.316809 
L 96.993189 149.642557 
L 91.750054 149.134371 
L 86.372457 148.841964 
L 80.933547 148.769313 
L 75.507308 148.917406 
L 70.167551 149.28423 
L 64.98691 149.864793 
L 60.289608 150.604839 
L 55.85574 151.520617 
L 51.739442 152.600944 
L 48.188772 153.76048 
L 45.181399 154.963858 
L 42.528 156.264053 
L 40.384737 157.559771 
L 38.701461 158.826251 
L 37.423776 160.043304 
L 36.429263 161.291923 
L 35.768098 162.465635 
L 35.357225 163.653093 
L 35.202395 164.748167 
L 35.260476 165.844377 
L 35.531203 166.936724 
L 36.067587 168.118111 
L 36.852635 169.282553 
L 37.882087 170.423729 
L 39.266614 171.626563 
L 41.060904 172.87447 
L 43.156703 174.064172 
L 45.719148 175.264285 
L 48.78976 176.448187 
L 52.401253 177.584773 
L 56.333669 178.584256 
L 60.799545 179.481021 
L 65.522629 180.200944 
L 70.723383 180.75933 
L 76.075693 181.103313 
L 81.506753 181.228213 
L 86.942687 181.132331 
L 92.309551 180.816971 
L 97.534343 180.286424 
L 102.545991 179.547905 
L 107.035432 178.665487 
L 111.217546 177.616183 
L 114.839057 176.48346 
L 117.920108 175.302843 
L 120.653249 174.022785 
L 122.876095 172.74339 
L 124.637254 171.489787 
L 126.08236 170.18821 
L 127.131878 168.945048 
L 127.84478 167.775006 
L 128.308026 166.589882 
L 128.511181 165.495764 
L 128.533185 164.997385 
L 128.533185 164.997385 
" clip-path="url(#p2ea8b7c721)" style="fill: none; stroke: #000000; stroke-width: 2.5; stroke-linecap: square"/>
   </g>
   <g id="line2d_3">
    <path d="M 128.533185 35.146938 
L 128.533185 164.997385 
" clip-path="url(#p2ea8b7c721)" style="fill: none; stroke: #000000; stroke-width: 2.5; stroke-linecap: square"/>
   </g>
   <g id="line2d_4">
    <path d="M 35.196894 35.146938 
L 35.196894 164.997385 
" clip-path="url(#p2ea8b7c721)" style="fill: none; stroke: #000000; stroke-width: 2.5; stroke-linecap: square"/>
   </g>
  </g>
 </g>
 <defs>
  <clipPath id="p2ea8b7c721">
   <rect x="30.530079" y="10.8" width="102.669921" height="178.544323"/>
  </clipPath>
 </defs>
</svg>
