<?xml version="1.0" encoding="utf-8" standalone="no"?>
<!DOCTYPE svg PUBLIC "-//W3C//DTD SVG 1.1//EN"
  "http://www.w3.org/Graphics/SVG/1.1/DTD/svg11.dtd">
<svg xmlns:xlink="http://www.w3.org/1999/xlink" width="460.8pt" height="345.6pt" viewBox="0 0 460.8 345.6" xmlns="http://www.w3.org/2000/svg" version="1.1">
 <metadata>
  <rdf:RDF xmlns:dc="http://purl.org/dc/elements/1.1/" xmlns:cc="http://creativecommons.org/ns#" xmlns:rdf="http://www.w3.org/1999/02/22-rdf-syntax-ns#">
   <cc:Work>
    <dc:type rdf:resource="http://purl.org/dc/dcmitype/StillImage"/>
    <dc:date>2025-05-22T18:58:23.008628</dc:date>
    <dc:format>image/svg+xml</dc:format>
    <dc:creator>
     <cc:Agent>
      <dc:title>Matplotlib v3.9.1, https://matplotlib.org/</dc:title>
     </cc:Agent>
    </dc:creator>
   </cc:Work>
  </rdf:RDF>
 </metadata>
 <defs>
  <style type="text/css">*{stroke-linejoin: round; stroke-linecap: butt}</style>
 </defs>
 <g id="figure_1">
  <g id="patch_1">
   <path d="M 0 345.6 
L 460.8 345.6 
L 460.8 0 
L 0 0 
L 0 345.6 
z
" style="fill: none"/>
  </g>
  <g id="axes_1">
   <g id="patch_2">
    <path d="M 379.16129 172.8 
L 359.231057 98.419355 
L 304.780645 43.968943 
L 230.4 24.03871 
L 156.019355 43.968943 
L 101.568943 98.419355 
L 81.63871 172.8 
L 101.568943 247.180645 
L 156.019355 301.631057 
L 230.4 321.56129 
L 304.780645 301.631057 
L 359.231057 247.180645 
z
" clip-path="url(#p19d1195393)" style="fill: #0072b2; opacity: 0.15; stroke: #0072b2; stroke-linejoin: miter"/>
   </g>
   <g id="line2d_1">
    <path d="M 379.16129 172.8 
L 379.06029 167.31916 
L 378.757427 161.845762 
L 378.253112 156.387239 
L 377.54803 150.951003 
L 376.643139 145.544435 
L 375.539667 140.174876 
L 374.239112 134.849619 
L 372.743241 129.575894 
L 371.054084 124.360862 
L 369.173936 119.211605 
L 367.10535 114.135114 
L 364.851134 109.138283 
L 362.414349 104.227898 
L 359.798304 99.410625 
L 357.006552 94.693006 
L 354.042883 90.081447 
L 350.911322 85.582211 
L 347.616121 81.201405 
L 344.161754 76.94498 
L 340.552912 72.818714 
L 336.794495 68.828211 
L 332.891608 64.97889 
L 328.849549 61.275976 
L 324.673807 57.7245 
L 320.370053 54.329282 
L 315.94413 51.094933 
L 311.402048 48.025845 
L 306.749975 45.126186 
L 301.994227 42.399892 
L 297.141264 39.850667 
L 292.197673 37.481971 
L 287.170169 35.29702 
L 282.065578 33.298783 
L 276.89083 31.489971 
L 271.652954 29.873042 
L 266.359061 28.450191 
L 261.01634 27.223349 
L 255.632046 26.194184 
L 250.213489 25.364091 
L 244.768029 24.7342 
L 239.303058 24.305364 
L 233.825997 24.078166 
L 228.344285 24.052914 
L 222.865364 24.229644 
L 217.396675 24.608114 
L 211.945642 25.187812 
L 206.519668 25.967949 
L 201.126121 26.947467 
L 195.772324 28.125035 
L 190.465547 29.499055 
L 185.212997 31.06766 
L 180.021805 32.828721 
L 174.899021 34.779846 
L 169.851601 36.918387 
L 164.886398 39.241438 
L 160.010155 41.745846 
L 155.229493 44.428211 
L 150.550903 47.284888 
L 145.980739 50.312001 
L 141.525207 53.505438 
L 137.190356 56.860862 
L 132.982072 60.373718 
L 128.906071 64.039236 
L 124.967886 67.852438 
L 121.172866 71.808146 
L 117.526163 75.900989 
L 114.032729 80.125409 
L 110.697308 84.475671 
L 107.52443 88.945867 
L 104.518401 93.529926 
L 101.683305 98.221625 
L 99.022991 103.014593 
L 96.541072 107.90232 
L 94.240917 112.878171 
L 92.12565 117.935389 
L 90.198143 123.067107 
L 88.461013 128.266356 
L 86.91662 133.526076 
L 85.56706 138.839125 
L 84.414166 144.19829 
L 83.459504 149.596292 
L 82.704369 155.025802 
L 82.149788 160.479447 
L 81.796512 165.949822 
L 81.645023 171.429499 
L 81.695525 176.911037 
L 81.94795 182.386993 
L 82.401956 187.84993 
L 83.056925 193.292432 
L 83.911969 198.707107 
L 84.965926 204.086603 
L 86.217365 209.423616 
L 87.664587 214.710899 
L 89.305627 219.941271 
L 91.138256 225.107631 
L 93.159987 230.202964 
L 95.368073 235.22035 
L 97.759516 240.152977 
L 100.331069 244.994146 
L 103.079241 249.737284 
L 106.000299 254.375951 
L 109.090277 258.903847 
L 112.344979 263.314825 
L 115.759986 267.602894 
L 119.33066 271.762231 
L 123.052154 275.78719 
L 126.919413 279.672305 
L 130.927186 283.412299 
L 135.070032 287.002096 
L 139.342324 290.436819 
L 143.738262 293.711805 
L 148.251877 296.822608 
L 152.877038 299.765003 
L 157.607467 302.534994 
L 162.436739 305.12882 
L 167.358298 307.54296 
L 172.365459 309.774135 
L 177.451425 311.819315 
L 182.609288 313.675723 
L 187.832046 315.340839 
L 193.112606 316.812401 
L 198.443798 318.088412 
L 203.818382 319.167138 
L 209.229061 320.047115 
L 214.668488 320.727148 
L 220.129276 321.206313 
L 225.604011 321.48396 
L 231.085258 321.559712 
L 236.565574 321.433466 
L 242.037519 321.105393 
L 247.493661 320.575939 
L 252.926592 319.845823 
L 258.328934 318.916037 
L 263.693352 317.787842 
L 269.012562 316.46277 
L 274.279341 314.942622 
L 279.486536 313.229461 
L 284.627078 311.325613 
L 289.693986 309.233664 
L 294.68038 306.956454 
L 299.579489 304.497076 
L 304.38466 301.858869 
L 309.089369 299.045415 
L 313.687227 296.060535 
L 318.17199 292.908281 
L 322.53757 289.592935 
L 326.778038 286.118998 
L 330.887636 282.491187 
L 334.860784 278.714428 
L 338.692086 274.793851 
L 342.376341 270.734777 
L 345.908545 266.54272 
L 349.283902 262.223372 
L 352.497829 257.782597 
L 355.545961 253.226426 
L 358.42416 248.561045 
L 361.128518 243.79279 
L 363.655361 238.928135 
L 366.00126 233.973685 
L 368.163028 228.93617 
L 370.137731 223.822428 
L 371.922686 218.639403 
L 373.51547 213.394134 
L 374.91392 208.093743 
L 376.116138 202.745428 
L 377.12049 197.35645 
L 377.925614 191.934127 
L 378.530415 186.485822 
L 378.934072 181.018934 
L 379.136038 175.540885 
L 379.16129 172.8 
L 379.16129 172.8 
" clip-path="url(#p19d1195393)" style="fill: none; stroke: #000000; stroke-width: 1.5; stroke-linecap: square"/>
   </g>
   <g id="line2d_2">
    <path d="M 230.4 172.8 
L 379.16129 172.8 
" clip-path="url(#p19d1195393)" style="fill: none; stroke: #000000; stroke-linecap: square"/>
   </g>
   <g id="line2d_3">
    <path d="M 230.4 172.8 
L 359.231057 98.419355 
" clip-path="url(#p19d1195393)" style="fill: none; stroke: #000000; stroke-linecap: square"/>
   </g>
   <g id="line2d_4">
    <path d="M 230.4 172.8 
L 304.780645 43.968943 
" clip-path="url(#p19d1195393)" style="fill: none; stroke: #000000; stroke-linecap: square"/>
   </g>
   <g id="line2d_5">
    <path d="M 230.4 172.8 
L 230.4 24.03871 
" clip-path="url(#p19d1195393)" style="fill: none; stroke: #000000; stroke-linecap: square"/>
   </g>
   <g id="line2d_6">
    <path d="M 230.4 172.8 
L 156.019355 43.968943 
" clip-path="url(#p19d1195393)" style="fill: none; stroke: #000000; stroke-linecap: square"/>
   </g>
   <g id="line2d_7">
    <path d="M 230.4 172.8 
L 101.568943 98.419355 
" clip-path="url(#p19d1195393)" style="fill: none; stroke: #000000; stroke-linecap: square"/>
   </g>
   <g id="line2d_8">
    <path d="M 230.4 172.8 
L 81.63871 172.8 
" clip-path="url(#p19d1195393)" style="fill: none; stroke: #000000; stroke-linecap: square"/>
   </g>
   <g id="line2d_9">
    <path d="M 230.4 172.8 
L 101.568943 247.180645 
" clip-path="url(#p19d1195393)" style="fill: none; stroke: #000000; stroke-linecap: square"/>
   </g>
   <g id="line2d_10">
    <path d="M 230.4 172.8 
L 156.019355 301.631057 
" clip-path="url(#p19d1195393)" style="fill: none; stroke: #000000; stroke-linecap: square"/>
   </g>
   <g id="line2d_11">
    <path d="M 230.4 172.8 
L 230.4 321.56129 
" clip-path="url(#p19d1195393)" style="fill: none; stroke: #000000; stroke-linecap: square"/>
   </g>
   <g id="line2d_12">
    <path d="M 230.4 172.8 
L 304.780645 301.631057 
" clip-path="url(#p19d1195393)" style="fill: none; stroke: #000000; stroke-linecap: square"/>
   </g>
   <g id="line2d_13">
    <path d="M 230.4 172.8 
L 359.231057 247.180645 
" clip-path="url(#p19d1195393)" style="fill: none; stroke: #000000; stroke-linecap: square"/>
   </g>
   <g id="line2d_14">
    <path d="M 379.16129 172.8 
L 359.231057 98.419355 
L 304.780645 43.968943 
L 230.4 24.03871 
L 156.019355 43.968943 
L 101.568943 98.419355 
L 81.63871 172.8 
L 101.568943 247.180645 
L 156.019355 301.631057 
L 230.4 321.56129 
L 304.780645 301.631057 
L 359.231057 247.180645 
L 379.16129 172.8 
" clip-path="url(#p19d1195393)" style="fill: none; stroke: #000000; stroke-width: 1.5; stroke-linecap: square"/>
   </g>
   <g id="line2d_15">
    <path d="M 275.028387 172.8 
L 275.027763 172.563967 
L 275.02589 172.327941 
L 275.02277 172.091928 
L 275.018401 171.855934 
L 275.012784 171.619967 
L 275.005919 171.384034 
L 274.997806 171.148139 
L 274.988446 170.912291 
L 274.977838 170.676496 
L 274.965984 170.44076 
L 274.952883 170.20509 
L 274.938536 169.969493 
L 274.922943 169.733975 
L 274.906104 169.498542 
L 274.888021 169.263202 
L 274.868693 169.027961 
L 274.848121 168.792826 
L 274.826306 168.557802 
L 274.803249 168.322897 
L 274.778949 168.088118 
L 274.753408 167.85347 
L 274.726626 167.61896 
L 274.698604 167.384596 
L 274.669343 167.150383 
L 274.638844 166.916328 
L 274.607108 166.682438 
L 274.574134 166.448718 
L 274.539926 166.215177 
L 274.504482 165.981819 
L 274.467805 165.748653 
L 274.429895 165.515683 
L 274.390754 165.282917 
L 274.350382 165.050362 
L 274.30878 164.818023 
L 274.265951 164.585908 
L 274.221894 164.354022 
L 274.176612 164.122373 
L 274.130105 163.890966 
L 274.082374 163.659809 
L 274.033422 163.428907 
L 273.98325 163.198267 
L 273.931858 162.967896 
L 273.879249 162.7378 
L 273.825423 162.507986 
L 273.770383 162.278459 
L 273.714129 162.049227 
L 273.656664 161.820295 
L 273.597989 161.59167 
L 273.538106 161.363359 
L 273.477016 161.135368 
L 273.414721 160.907703 
L 273.351223 160.680371 
L 273.286523 160.453378 
L 273.220624 160.22673 
L 273.153527 160.000434 
L 273.085234 159.774496 
L 273.015747 159.548923 
L 272.945068 159.32372 
L 272.873199 159.098893 
L 272.800142 158.874451 
L 272.725898 158.650397 
L 272.650471 158.42674 
L 272.573862 158.203484 
L 272.496074 157.980637 
L 272.417108 157.758205 
L 272.336966 157.536193 
L 272.255651 157.314608 
L 272.173166 157.093456 
L 272.089512 156.872744 
L 272.004692 156.652477 
L 271.918709 156.432661 
L 271.831563 156.213304 
L 271.743259 155.994411 
L 271.653799 155.775987 
L 271.563184 155.55804 
L 271.471419 155.340575 
L 271.378504 155.123599 
L 271.284443 154.907117 
L 271.189238 154.691135 
L 271.092893 154.47566 
L 270.995409 154.260698 
L 270.896789 154.046254 
L 270.797037 153.832335 
L 270.696155 153.618946 
L 270.594146 153.406094 
L 270.491012 153.193785 
L 270.386757 152.982023 
L 270.281383 152.770816 
L 270.174894 152.56017 
L 270.067292 152.350089 
L 269.958581 152.140581 
L 269.848763 151.93165 
L 269.737842 151.723304 
L 269.62582 151.515546 
L 269.512701 151.308385 
L 269.398488 151.101824 
L 269.283184 150.89587 
L 269.166793 150.690529 
L 269.049317 150.485806 
" clip-path="url(#p19d1195393)" style="fill: none; stroke: #000000; stroke-linecap: square"/>
   </g>
   <g id="text_1">
    <!-- $30^\circ$ -->
    <g transform="translate(285.980069 162.406489) scale(0.18 -0.18)">
     <defs>
      <path id="CMR17-33" d="M 1414 2157 
C 1984 2157 2234 1662 2234 1090 
C 2234 320 1824 25 1453 25 
C 1114 25 563 194 390 693 
C 422 680 454 680 486 680 
C 640 680 755 782 755 948 
C 755 1133 614 1216 486 1216 
C 378 1216 211 1165 211 926 
C 211 335 787 -128 1466 -128 
C 2176 -128 2720 430 2720 1085 
C 2720 1707 2208 2157 1600 2227 
C 2086 2328 2554 2756 2554 3329 
C 2554 3820 2048 4179 1472 4179 
C 890 4179 378 3829 378 3329 
C 378 3110 544 3072 627 3072 
C 762 3072 877 3155 877 3321 
C 877 3486 762 3569 627 3569 
C 602 3569 570 3569 544 3557 
C 730 3959 1235 4032 1459 4032 
C 1683 4032 2106 3925 2106 3320 
C 2106 3143 2080 2828 1862 2550 
C 1670 2304 1453 2304 1242 2284 
C 1210 2284 1062 2269 1037 2269 
C 992 2263 966 2257 966 2208 
C 966 2163 973 2157 1101 2157 
L 1414 2157 
z
" transform="scale(0.015625)"/>
      <path id="CMR17-30" d="M 2688 2025 
C 2688 2416 2682 3080 2413 3591 
C 2176 4039 1798 4198 1466 4198 
C 1158 4198 768 4058 525 3597 
C 269 3118 243 2524 243 2025 
C 243 1661 250 1106 448 619 
C 723 -39 1216 -128 1466 -128 
C 1760 -128 2208 -7 2470 600 
C 2662 1042 2688 1559 2688 2025 
z
M 1466 -26 
C 1056 -26 813 325 723 812 
C 653 1188 653 1738 653 2096 
C 653 2588 653 2997 736 3387 
C 858 3929 1216 4096 1466 4096 
C 1728 4096 2067 3923 2189 3400 
C 2272 3036 2278 2607 2278 2096 
C 2278 1680 2278 1169 2202 792 
C 2067 95 1690 -26 1466 -26 
z
" transform="scale(0.015625)"/>
      <path id="CMSY10-e" d="M 2842 1600 
C 2842 2277 2272 2828 1600 2828 
C 909 2828 352 2264 352 1600 
C 352 930 909 372 1600 372 
C 2272 372 2842 923 2842 1600 
z
M 1600 628 
C 1043 628 608 1070 608 1600 
C 608 2130 1050 2572 1600 2572 
C 2131 2572 2586 2142 2586 1600 
C 2586 1058 2131 628 1600 628 
z
" transform="scale(0.015625)"/>
     </defs>
     <use xlink:href="#CMR17-33" transform="scale(0.996264)"/>
     <use xlink:href="#CMR17-30" transform="translate(45.690477 0) scale(0.996264)"/>
     <use xlink:href="#CMSY10-e" transform="translate(91.380954 36.153639) scale(0.697382)"/>
    </g>
   </g>
  </g>
 </g>
 <defs>
  <clipPath id="p19d1195393">
   <rect x="10.8" y="10.8" width="439.2" height="324"/>
  </clipPath>
 </defs>
</svg>
