<?xml version="1.0" encoding="utf-8" standalone="no"?>
<!DOCTYPE svg PUBLIC "-//W3C//DTD SVG 1.1//EN"
  "http://www.w3.org/Graphics/SVG/1.1/DTD/svg11.dtd">
<svg xmlns:xlink="http://www.w3.org/1999/xlink" width="460.8pt" height="345.6pt" viewBox="0 0 460.8 345.6" xmlns="http://www.w3.org/2000/svg" version="1.1">
 <metadata>
  <rdf:RDF xmlns:dc="http://purl.org/dc/elements/1.1/" xmlns:cc="http://creativecommons.org/ns#" xmlns:rdf="http://www.w3.org/1999/02/22-rdf-syntax-ns#">
   <cc:Work>
    <dc:type rdf:resource="http://purl.org/dc/dcmitype/StillImage"/>
    <dc:date>2025-04-19T00:55:35.751127</dc:date>
    <dc:format>image/svg+xml</dc:format>
    <dc:creator>
     <cc:Agent>
      <dc:title>Matplotlib v3.9.1, https://matplotlib.org/</dc:title>
     </cc:Agent>
    </dc:creator>
   </cc:Work>
  </rdf:RDF>
 </metadata>
 <defs>
  <style type="text/css">*{stroke-linejoin: round; stroke-linecap: butt}</style>
 </defs>
 <g id="figure_1">
  <g id="patch_1">
   <path d="M 0 345.6 
L 460.8 345.6 
L 460.8 0 
L 0 0 
L 0 345.6 
z
" style="fill: none"/>
  </g>
  <g id="axes_1">
   <g id="patch_2">
    <path d="M 10.8 334.8 
L 447 334.8 
L 447 18.064532 
L 10.8 18.064532 
L 10.8 334.8 
z
" style="fill: none"/>
   </g>
   <g id="matplotlib.axis_1">
    <g id="text_1">
     <!-- $x$ -->
     <g transform="translate(438.13055 191.501854) scale(0.16 -0.16)">
      <defs>
       <path id="CMMI12-78" d="M 3034 2606 
C 2829 2567 2752 2414 2752 2293 
C 2752 2139 2874 2088 2963 2088 
C 3155 2088 3290 2254 3290 2427 
C 3290 2695 2982 2816 2714 2816 
C 2323 2816 2106 2433 2048 2312 
C 1901 2816 1504 2816 1389 2816 
C 736 2816 390 1980 390 1839 
C 390 1814 416 1782 461 1782 
C 512 1782 525 1820 538 1846 
C 755 2555 1184 2689 1370 2689 
C 1658 2689 1715 2420 1715 2267 
C 1715 2127 1677 1980 1600 1673 
L 1382 798 
C 1286 415 1101 64 762 64 
C 730 64 570 64 435 147 
C 666 192 717 383 717 460 
C 717 588 621 664 499 664 
C 346 664 179 530 179 326 
C 179 57 480 -64 755 -64 
C 1062 -64 1280 179 1414 441 
C 1517 64 1837 -64 2074 -64 
C 2726 -64 3072 773 3072 913 
C 3072 945 3046 971 3008 971 
C 2950 971 2944 939 2925 888 
C 2752 326 2381 64 2093 64 
C 1869 64 1747 230 1747 492 
C 1747 632 1773 734 1875 1156 
L 2099 2024 
C 2195 2408 2413 2689 2707 2689 
C 2720 2689 2899 2689 3034 2606 
z
" transform="scale(0.015625)"/>
      </defs>
      <use xlink:href="#CMMI12-78" transform="scale(0.996264)"/>
     </g>
    </g>
   </g>
   <g id="matplotlib.axis_2">
    <g id="text_2">
     <!-- $y$ -->
     <g transform="translate(217.289729 14.965056) scale(0.16 -0.16)">
      <defs>
       <path id="CMMI12-79" d="M 1683 -700 
C 1510 -939 1261 -1152 947 -1152 
C 870 -1152 563 -1152 467 -889 
C 486 -895 518 -895 531 -895 
C 723 -895 851 -729 851 -582 
C 851 -435 730 -384 634 -384 
C 531 -384 307 -458 307 -759 
C 307 -1071 582 -1286 947 -1286 
C 1587 -1286 2234 -700 2413 6 
L 3040 2485 
C 3046 2517 3059 2556 3059 2594 
C 3059 2689 2982 2753 2886 2753 
C 2829 2753 2694 2727 2643 2535 
L 2170 658 
C 2138 543 2138 530 2086 460 
C 1958 281 1747 64 1440 64 
C 1082 64 1050 415 1050 588 
C 1050 952 1222 1443 1395 1903 
C 1466 2088 1504 2178 1504 2305 
C 1504 2574 1312 2816 998 2816 
C 410 2816 173 1890 173 1839 
C 173 1814 198 1782 243 1782 
C 301 1782 307 1807 333 1897 
C 486 2433 730 2689 979 2689 
C 1037 2689 1146 2689 1146 2478 
C 1146 2312 1075 2127 979 1884 
C 666 1047 666 837 666 683 
C 666 77 1101 -64 1421 -64 
C 1606 -64 1837 -6 2061 230 
L 2067 224 
C 1971 -147 1907 -392 1683 -700 
z
" transform="scale(0.015625)"/>
      </defs>
      <use xlink:href="#CMMI12-79" transform="scale(0.996264)"/>
     </g>
    </g>
   </g>
   <g id="line2d_1">
    <defs>
     <path id="ma9ed15d139" d="M 3 0 
L -3 -3 
L -3 3 
z
" style="stroke: #000000; stroke-linejoin: miter"/>
    </defs>
    <g>
     <use xlink:href="#ma9ed15d139" x="447" y="176.432266" style="stroke: #000000; stroke-linejoin: miter"/>
    </g>
   </g>
   <g id="line2d_2">
    <defs>
     <path id="me534c6ac1f" d="M 0 -3 
L -3 3 
L 3 3 
z
" style="stroke: #000000; stroke-linejoin: miter"/>
    </defs>
    <g>
     <use xlink:href="#me534c6ac1f" x="228.9" y="18.064532" style="stroke: #000000; stroke-linejoin: miter"/>
    </g>
   </g>
   <g id="line2d_3">
    <path d="M 10.330968 192.761729 
L 57.703226 193.09367 
L 86.783226 193.504359 
L 106.013548 193.981335 
L 120.084516 194.543067 
L 130.403226 195.166819 
L 138.376774 195.860969 
L 144.474194 196.594297 
L 149.633548 197.428199 
L 153.854839 198.329401 
L 157.138065 199.229012 
L 159.952258 200.195675 
L 162.297419 201.190376 
L 164.642581 202.420145 
L 166.51871 203.632888 
L 168.394839 205.123042 
L 169.801935 206.483678 
L 171.209032 208.12231 
L 172.616129 210.131879 
L 174.023226 212.651815 
L 174.96129 214.7186 
L 175.899355 217.203309 
L 176.837419 220.245398 
L 177.775484 224.054061 
L 178.713548 228.958036 
L 179.651613 235.50523 
L 180.589677 244.681891 
L 181.05871 250.80419 
L 181.527742 258.460528 
L 181.996774 268.30841 
L 182.465806 281.443683 
L 182.934839 299.838872 
L 183.403871 327.439026 
L 183.5992 346.6 
L 183.5992 346.6 
" clip-path="url(#p603bc38a44)" style="fill: none; stroke: #0072b2; stroke-opacity: 0.9; stroke-width: 2.5; stroke-linecap: square"/>
   </g>
   <g id="line2d_4">
    <path d="M 186.641784 -1 
L 186.985572 37.355879 
L 187.497243 72.387935 
L 188.094194 97.149419 
L 188.691144 113.236537 
L 189.373372 125.868228 
L 190.14088 135.831606 
L 190.908387 143.069236 
L 191.761173 149.091721 
L 192.699238 154.107653 
L 193.637302 157.988201 
L 194.660645 161.326512 
L 195.769267 164.197152 
L 196.963167 166.667567 
L 198.242346 168.796639 
L 199.606804 170.63469 
L 201.05654 172.224158 
L 202.676833 173.669372 
L 204.467683 174.96156 
L 206.429091 176.100684 
L 208.646334 177.126913 
L 211.119413 178.024641 
L 213.933607 178.806617 
L 217.088915 179.451725 
L 220.670616 179.953099 
L 224.593431 180.274544 
L 228.772082 180.391357 
L 232.950733 180.288139 
L 236.958827 179.971717 
L 240.625806 179.466299 
L 243.951672 178.786056 
L 246.851144 177.969714 
L 249.409501 177.020364 
L 251.626745 175.965813 
L 253.588152 174.793373 
L 255.379003 173.460661 
L 256.999296 171.96643 
L 258.449032 170.318358 
L 259.728211 168.538165 
L 260.922111 166.508396 
L 262.030733 164.197152 
L 263.054076 161.571651 
L 264.077419 158.297747 
L 265.015484 154.500955 
L 265.86827 150.109794 
L 266.635777 145.060368 
L 267.403284 138.486451 
L 268.085513 130.723488 
L 268.767742 120.127755 
L 269.364692 107.088458 
L 269.876364 91.216816 
L 270.388035 67.717617 
L 270.814428 37.355879 
L 271.158216 -1 
L 271.158216 -1 
" clip-path="url(#p603bc38a44)" style="fill: none; stroke: #0072b2; stroke-opacity: 0.9; stroke-width: 2.5; stroke-linecap: square"/>
   </g>
   <g id="line2d_5">
    <path d="M 274.2008 346.6 
L 274.396129 327.439026 
L 274.865161 299.838872 
L 275.334194 281.443683 
L 275.803226 268.30841 
L 276.74129 250.80419 
L 277.679355 239.675218 
L 278.617419 231.978815 
L 279.555484 226.341739 
L 280.493548 222.036988 
L 281.431613 218.643671 
L 282.369677 215.901243 
L 283.776774 212.651815 
L 285.183871 210.131879 
L 286.590968 208.12231 
L 287.998065 206.483678 
L 289.874194 204.719553 
L 291.750323 203.306881 
L 293.626452 202.151597 
L 295.971613 200.974903 
L 298.785806 199.849411 
L 302.069032 198.817722 
L 305.82129 197.898962 
L 310.042581 197.096539 
L 315.201935 196.344463 
L 321.768387 195.631147 
L 329.741935 195.002944 
L 340.060645 194.430849 
L 353.193548 193.937371 
L 371.016774 193.504359 
L 395.875484 193.138984 
L 432.46 192.840688 
L 447.469032 192.761729 
L 447.469032 192.761729 
" clip-path="url(#p603bc38a44)" style="fill: none; stroke: #0072b2; stroke-opacity: 0.9; stroke-width: 2.5; stroke-linecap: square"/>
   </g>
   <g id="LineCollection_1">
    <path d="M 185.28 346.6 
L 185.28 -1 
" clip-path="url(#p603bc38a44)" style="fill: none; stroke-dasharray: 7.4,3.2; stroke-dashoffset: 0; stroke: #dc5e8b; stroke-width: 2"/>
   </g>
   <g id="LineCollection_2">
    <path d="M 272.52 346.6 
L 272.52 -1 
" clip-path="url(#p603bc38a44)" style="fill: none; stroke-dasharray: 7.4,3.2; stroke-dashoffset: 0; stroke: #dc5e8b; stroke-width: 2"/>
   </g>
   <g id="LineCollection_3">
    <path d="M -1 192.26904 
L 461.8 192.26904 
" clip-path="url(#p603bc38a44)" style="fill: none; stroke-dasharray: 7.4,3.2; stroke-dashoffset: 0; stroke: #dc5e8b; stroke-width: 2"/>
   </g>
   <g id="line2d_6">
    <defs>
     <path id="md759555428" d="M 0 4 
C 1.060812 4 2.078319 3.578535 2.828427 2.828427 
C 3.578535 2.078319 4 1.060812 4 0 
C 4 -1.060812 3.578535 -2.078319 2.828427 -2.828427 
C 2.078319 -3.578535 1.060812 -4 0 -4 
C -1.060812 -4 -2.078319 -3.578535 -2.828427 -2.828427 
C -3.578535 -2.078319 -4 -1.060812 -4 0 
C -4 1.060812 -3.578535 2.078319 -2.828427 2.828427 
C -2.078319 3.578535 -1.060812 4 0 4 
z
" style="stroke: #000000; stroke-opacity: 0.7"/>
    </defs>
    <g clip-path="url(#p603bc38a44)">
     <use xlink:href="#md759555428" x="250.71" y="176.432266" style="fill-opacity: 0.7; stroke: #000000; stroke-opacity: 0.7"/>
    </g>
   </g>
   <g id="line2d_7">
    <g clip-path="url(#p603bc38a44)">
     <use xlink:href="#md759555428" x="207.09" y="176.432266" style="fill-opacity: 0.7; stroke: #000000; stroke-opacity: 0.7"/>
    </g>
   </g>
   <g id="patch_3">
    <path d="M 228.9 334.8 
L 228.9 18.064532 
" style="fill: none; stroke: #000000; stroke-width: 0.8; stroke-linejoin: miter; stroke-linecap: square"/>
   </g>
   <g id="patch_4">
    <path d="M 447 334.8 
L 447 18.064532 
" style="fill: none"/>
   </g>
   <g id="patch_5">
    <path d="M 10.8 176.432266 
L 447 176.432266 
" style="fill: none; stroke: #000000; stroke-width: 0.8; stroke-linejoin: miter; stroke-linecap: square"/>
   </g>
   <g id="patch_6">
    <path d="M 10.8 18.064532 
L 447 18.064532 
" style="fill: none"/>
   </g>
   <g id="legend_1">
    <g id="patch_7">
     <path d="M 376.906682 53.164008 
L 435.8 53.164008 
Q 439 53.164008 439 49.964008 
L 439 29.264532 
Q 439 26.064532 435.8 26.064532 
L 376.906682 26.064532 
Q 373.706682 26.064532 373.706682 29.264532 
L 373.706682 49.964008 
Q 373.706682 53.164008 376.906682 53.164008 
z
" style="fill: #ffffff; opacity: 0.8; stroke: #cccccc; stroke-linejoin: miter"/>
    </g>
    <g id="line2d_8">
     <path d="M 380.106682 38.064532 
L 396.106682 38.064532 
L 412.106682 38.064532 
" style="fill: none; stroke: #0072b2; stroke-opacity: 0.9; stroke-width: 2.5; stroke-linecap: square"/>
    </g>
    <g id="text_3">
     <!-- $f$ -->
     <g transform="translate(424.906682 43.664532) scale(0.16 -0.16)">
      <defs>
       <path id="CMMI12-66" d="M 2854 2566 
C 2982 2566 3034 2566 3034 2688 
C 3034 2752 2982 2752 2867 2752 
L 2349 2752 
C 2470 3429 2560 3897 2611 4107 
C 2650 4265 2784 4416 2950 4416 
C 3085 4416 3219 4358 3283 4298 
C 3034 4272 2957 4082 2957 3969 
C 2957 3837 3053 3759 3174 3759 
C 3302 3759 3494 3870 3494 4119 
C 3494 4393 3226 4544 2944 4544 
C 2669 4544 2400 4334 2272 4078 
C 2157 3848 2093 3611 1946 2752 
L 1517 2752 
C 1395 2752 1331 2752 1331 2637 
C 1331 2566 1370 2566 1498 2566 
L 1907 2566 
C 1792 1976 1530 542 1382 -137 
C 1274 -689 1178 -1152 858 -1152 
C 838 -1152 653 -1152 538 -1031 
C 864 -1005 864 -726 864 -720 
C 864 -593 768 -517 646 -517 
C 518 -517 326 -625 326 -867 
C 326 -1140 608 -1280 858 -1280 
C 1510 -1280 1779 -118 1850 199 
C 1965 688 2278 2376 2310 2566 
L 2854 2566 
z
" transform="scale(0.015625)"/>
      </defs>
      <use xlink:href="#CMMI12-66" transform="scale(0.996264)"/>
     </g>
    </g>
   </g>
  </g>
 </g>
 <defs>
  <clipPath id="p603bc38a44">
   <rect x="10.8" y="18.064532" width="436.2" height="316.735468"/>
  </clipPath>
 </defs>
</svg>
