<?xml version='1.0' encoding='ASCII' standalone='yes'?>
<svg xmlns="http://www.w3.org/2000/svg" xmlns:xlink="http://www.w3.org/1999/xlink" version="1.1" width="1152.0px" viewBox="0 0 1152.0 432.00000000000006" height="432.00000000000006px">
  <g>
    <g transform="translate(0, 0) scale(1 1) translate(0, 0) scale(1.25 1.25) "><metadata>
  <rdf:RDF xmlns:dc="http://purl.org/dc/elements/1.1/" xmlns:cc="http://creativecommons.org/ns#" xmlns:rdf="http://www.w3.org/1999/02/22-rdf-syntax-ns#">
   <cc:Work>
    <dc:type rdf:resource="http://purl.org/dc/dcmitype/StillImage"/>
    <dc:date>2025-03-13T19:29:30.248874</dc:date>
    <dc:format>image/svg+xml</dc:format>
    <dc:creator>
     <cc:Agent>
      <dc:title>Matplotlib v3.9.1, https://matplotlib.org/</dc:title>
     </cc:Agent>
    </dc:creator>
   </cc:Work>
  </rdf:RDF>
 </metadata>
 <defs>
  <style type="text/css">*{stroke-linejoin: round; stroke-linecap: butt}</style>
 </defs>
 <g id="figure_1">
  <g id="patch_1">
   <path d="M 0 345.6  L 460.8 345.6  L 460.8 0  L 0 0  z " style="fill: #ffffff"/>
  </g>
  <g id="axes_1">
   <g id="patch_2">
    <path d="M 73.832727 250.79687  L 398.487273 250.79687  L 129.351924 98.25913  z " clip-path="url(#p96646b3760)" style="fill: #00648c; opacity: 0.1; stroke: #00648c; stroke-linejoin: miter"/>
   </g>
   <g id="line2d_1">
    <path d="M 73.832727 250.79687  L 398.487273 250.79687  L 129.351924 98.25913  L 73.832727 250.79687  " clip-path="url(#p96646b3760)" style="fill: none; stroke: #000000; stroke-width: 1.5; stroke-linecap: square"/>
   </g>
   <g id="line2d_2">
    <defs>
     <path id="m052221202d" d="M 0 4  C 1.060812 4 2.078319 3.578535 2.828427 2.828427  C 3.578535 2.078319 4 1.060812 4 0  C 4 -1.060812 3.578535 -2.078319 2.828427 -2.828427  C 2.078319 -3.578535 1.060812 -4 0 -4  C -1.060812 -4 -2.078319 -3.578535 -2.828427 -2.828427  C -3.578535 -2.078319 -4 -1.060812 -4 0  C -4 1.060812 -3.578535 2.078319 -2.828427 2.828427  C -2.078319 3.578535 -1.060812 4 0 4  z " style="stroke: #000000; stroke-opacity: 0.7"/>
    </defs>
    <g clip-path="url(#p96646b3760)">
     <use xlink:href="#m052221202d" x="129.351924" y="98.25913" style="fill-opacity: 0.7; stroke: #000000; stroke-opacity: 0.7"/>
     <use xlink:href="#m052221202d" x="398.487273" y="250.79687" style="fill-opacity: 0.7; stroke: #000000; stroke-opacity: 0.7"/>
     <use xlink:href="#m052221202d" x="73.832727" y="250.79687" style="fill-opacity: 0.7; stroke: #000000; stroke-opacity: 0.7"/>
    </g>
   </g>
   <g id="LineCollection_1">
    <path d="M 129.351924 250.79687  L 129.351924 98.25913  " clip-path="url(#p96646b3760)" style="fill: none; stroke-dasharray: 5.55,2.4; stroke-dashoffset: 0; stroke: #000000; stroke-width: 1.5"/>
   </g>
   <g id="line2d_3">
    <path d="M 129.351924 224.824507  L 155.324288 224.824507  " clip-path="url(#p96646b3760)" style="fill: none; stroke-dasharray: 5.55,2.4; stroke-dashoffset: 0; stroke: #000000; stroke-width: 1.5"/>
   </g>
   <g id="line2d_4">
    <path d="M 155.324288 224.824507  L 155.324288 250.79687  " clip-path="url(#p96646b3760)" style="fill: none; stroke-dasharray: 5.55,2.4; stroke-dashoffset: 0; stroke: #000000; stroke-width: 1.5"/>
   </g>
   <g id="text_1">
    <!-- $h$ -->
    <g transform="translate(137.468288 179.508682) scale(0.2 -0.2)">
     <defs>
      <path id="CMMI12-68" d="M 1798 4257  C 1805 4283 1818 4321 1818 4352  C 1818 4416 1754 4416 1741 4416  C 1734 4416 1421 4388 1389 4380  C 1280 4373 1184 4358 1069 4358  C 909 4345 864 4339 864 4224  C 864 4160 915 4160 1005 4160  C 1318 4160 1325 4103 1325 4040  C 1325 4002 1312 3951 1306 3932  L 378 248  C 352 152 352 140 352 101  C 352 -38 461 -64 525 -64  C 634 -64 717 19 749 89  L 1037 1245  C 1069 1386 1107 1520 1139 1660  C 1210 1929 1210 1935 1331 2120  C 1453 2305 1741 2689 2234 2689  C 2490 2689 2579 2497 2579 2242  C 2579 1884 2330 1188 2189 805  C 2131 651 2099 568 2099 453  C 2099 166 2298 -64 2605 -64  C 3200 -64 3424 875 3424 913  C 3424 945 3398 971 3360 971  C 3302 971 3296 952 3264 843  C 3117 332 2880 64 2624 64  C 2560 64 2458 64 2458 269  C 2458 436 2534 640 2560 710  C 2675 1018 2963 1773 2963 2145  C 2963 2528 2739 2816 2253 2816  C 1888 2816 1568 2644 1306 2312  L 1798 4257  z " transform="scale(0.015625)"/>
     </defs>
     <use xlink:href="#CMMI12-68" transform="scale(0.996264)"/>
    </g>
   </g>
   <g id="text_2">
    <!-- $g$ -->
    <g transform="translate(231.48891 272.750231) scale(0.2 -0.2)">
     <defs>
      <path id="CMMI12-67" d="M 2163 811  C 2138 709 2125 683 2042 588  C 1779 249 1510 128 1312 128  C 1101 128 902 294 902 734  C 902 1073 1094 1788 1235 2076  C 1421 2433 1709 2689 1978 2689  C 2400 2689 2483 2165 2483 2127  L 2464 2037  L 2163 811  z M 2560 2395  C 2477 2580 2298 2816 1978 2816  C 1280 2816 486 1941 486 990  C 486 326 890 0 1299 0  C 1638 0 1939 268 2054 396  L 1914 -171  C 1824 -516 1786 -674 1555 -894  C 1293 -1152 1050 -1152 909 -1152  C 717 -1152 557 -1139 397 -1089  C 602 -1033 653 -858 653 -789  C 653 -689 576 -588 435 -588  C 282 -588 115 -714 115 -922  C 115 -1180 378 -1280 922 -1280  C 1747 -1280 2176 -753 2259 -410  L 2970 2435  C 2989 2511 2989 2524 2989 2536  C 2989 2625 2918 2695 2822 2695  C 2669 2695 2579 2567 2560 2395  z " transform="scale(0.015625)"/>
     </defs>
     <use xlink:href="#CMMI12-67" transform="scale(0.996264)"/>
    </g>
   </g>
  </g>
 </g>
 <defs>
  <clipPath id="p96646b3760">
   <rect x="57.6" y="41.472" width="357.12" height="266.112"/>
  </clipPath>
 </defs>
</g>
    <g transform="translate(576.0, 0) scale(1 1) translate(0, 0) scale(1.25 1.25) "><metadata>
  <rdf:RDF xmlns:dc="http://purl.org/dc/elements/1.1/" xmlns:cc="http://creativecommons.org/ns#" xmlns:rdf="http://www.w3.org/1999/02/22-rdf-syntax-ns#">
   <cc:Work>
    <dc:type rdf:resource="http://purl.org/dc/dcmitype/StillImage"/>
    <dc:date>2025-03-13T19:29:33.740248</dc:date>
    <dc:format>image/svg+xml</dc:format>
    <dc:creator>
     <cc:Agent>
      <dc:title>Matplotlib v3.9.1, https://matplotlib.org/</dc:title>
     </cc:Agent>
    </dc:creator>
   </cc:Work>
  </rdf:RDF>
 </metadata>
 <defs>
  <style type="text/css">*{stroke-linejoin: round; stroke-linecap: butt}</style>
 </defs>
 <g id="figure_1">
  <g id="patch_1">
   <path d="M 0 345.6  L 460.8 345.6  L 460.8 0  L 0 0  z " style="fill: #ffffff"/>
  </g>
  <g id="axes_1">
   <g id="patch_2">
    <path d="M 182.050909 268.247695  L 398.487273 268.247695  L 73.832727 80.808305  z " clip-path="url(#pfa0fb6fa7c)" style="fill: #00648c; opacity: 0.1; stroke: #00648c; stroke-linejoin: miter"/>
   </g>
   <g id="line2d_1">
    <path d="M 182.050909 268.247695  L 398.487273 268.247695  L 73.832727 80.808305  L 182.050909 268.247695  " clip-path="url(#pfa0fb6fa7c)" style="fill: none; stroke: #000000; stroke-width: 1.5; stroke-linecap: square"/>
   </g>
   <g id="line2d_2">
    <defs>
     <path id="mc29bbb28b4" d="M 0 4  C 1.060812 4 2.078319 3.578535 2.828427 2.828427  C 3.578535 2.078319 4 1.060812 4 0  C 4 -1.060812 3.578535 -2.078319 2.828427 -2.828427  C 2.078319 -3.578535 1.060812 -4 0 -4  C -1.060812 -4 -2.078319 -3.578535 -2.828427 -2.828427  C -3.578535 -2.078319 -4 -1.060812 -4 0  C -4 1.060812 -3.578535 2.078319 -2.828427 2.828427  C -2.078319 3.578535 -1.060812 4 0 4  z " style="stroke: #000000; stroke-opacity: 0.7"/>
    </defs>
    <g clip-path="url(#pfa0fb6fa7c)">
     <use xlink:href="#mc29bbb28b4" x="398.487273" y="268.247695" style="fill-opacity: 0.7; stroke: #000000; stroke-opacity: 0.7"/>
     <use xlink:href="#mc29bbb28b4" x="73.832727" y="80.808305" style="fill-opacity: 0.7; stroke: #000000; stroke-opacity: 0.7"/>
     <use xlink:href="#mc29bbb28b4" x="182.050909" y="268.247695" style="fill-opacity: 0.7; stroke: #000000; stroke-opacity: 0.7"/>
    </g>
   </g>
   <g id="LineCollection_1">
    <path d="M 73.832727 268.247695  L 73.832727 80.808305  " clip-path="url(#pfa0fb6fa7c)" style="fill: none; stroke-dasharray: 5.55,2.4; stroke-dashoffset: 0; stroke: #000000; stroke-width: 1.5"/>
   </g>
   <g id="LineCollection_2">
    <path d="M 182.050909 268.247695  L 73.832727 268.247695  " clip-path="url(#pfa0fb6fa7c)" style="fill: none; stroke-dasharray: 5.55,2.4; stroke-dashoffset: 0; stroke: #000000; stroke-width: 1.5"/>
   </g>
   <g id="line2d_3">
    <path d="M 73.832727 246.604058  L 95.476364 246.604058  " clip-path="url(#pfa0fb6fa7c)" style="fill: none; stroke-dasharray: 5.55,2.4; stroke-dashoffset: 0; stroke: #000000; stroke-width: 1.5"/>
   </g>
   <g id="line2d_4">
    <path d="M 95.476364 246.604058  L 95.476364 268.247695  " clip-path="url(#pfa0fb6fa7c)" style="fill: none; stroke-dasharray: 5.55,2.4; stroke-dashoffset: 0; stroke: #000000; stroke-width: 1.5"/>
   </g>
   <g id="text_1">
    <!-- $h$ -->
    <g transform="translate(51.779984 179.508682) scale(0.2 -0.2)">
     <defs>
      <path id="CMMI12-68" d="M 1798 4257  C 1805 4283 1818 4321 1818 4352  C 1818 4416 1754 4416 1741 4416  C 1734 4416 1421 4388 1389 4380  C 1280 4373 1184 4358 1069 4358  C 909 4345 864 4339 864 4224  C 864 4160 915 4160 1005 4160  C 1318 4160 1325 4103 1325 4040  C 1325 4002 1312 3951 1306 3932  L 378 248  C 352 152 352 140 352 101  C 352 -38 461 -64 525 -64  C 634 -64 717 19 749 89  L 1037 1245  C 1069 1386 1107 1520 1139 1660  C 1210 1929 1210 1935 1331 2120  C 1453 2305 1741 2689 2234 2689  C 2490 2689 2579 2497 2579 2242  C 2579 1884 2330 1188 2189 805  C 2131 651 2099 568 2099 453  C 2099 166 2298 -64 2605 -64  C 3200 -64 3424 875 3424 913  C 3424 945 3398 971 3360 971  C 3302 971 3296 952 3264 843  C 3117 332 2880 64 2624 64  C 2560 64 2458 64 2458 269  C 2458 436 2534 640 2560 710  C 2675 1018 2963 1773 2963 2145  C 2963 2528 2739 2816 2253 2816  C 1888 2816 1568 2644 1306 2312  L 1798 4257  z " transform="scale(0.015625)"/>
     </defs>
     <use xlink:href="#CMMI12-68" transform="scale(0.996264)"/>
    </g>
   </g>
   <g id="text_2">
    <!-- $g$ -->
    <g transform="translate(285.598001 292.90651) scale(0.2 -0.2)">
     <defs>
      <path id="CMMI12-67" d="M 2163 811  C 2138 709 2125 683 2042 588  C 1779 249 1510 128 1312 128  C 1101 128 902 294 902 734  C 902 1073 1094 1788 1235 2076  C 1421 2433 1709 2689 1978 2689  C 2400 2689 2483 2165 2483 2127  L 2464 2037  L 2163 811  z M 2560 2395  C 2477 2580 2298 2816 1978 2816  C 1280 2816 486 1941 486 990  C 486 326 890 0 1299 0  C 1638 0 1939 268 2054 396  L 1914 -171  C 1824 -516 1786 -674 1555 -894  C 1293 -1152 1050 -1152 909 -1152  C 717 -1152 557 -1139 397 -1089  C 602 -1033 653 -858 653 -789  C 653 -689 576 -588 435 -588  C 282 -588 115 -714 115 -922  C 115 -1180 378 -1280 922 -1280  C 1747 -1280 2176 -753 2259 -410  L 2970 2435  C 2989 2511 2989 2524 2989 2536  C 2989 2625 2918 2695 2822 2695  C 2669 2695 2579 2567 2560 2395  z " transform="scale(0.015625)"/>
     </defs>
     <use xlink:href="#CMMI12-67" transform="scale(0.996264)"/>
    </g>
   </g>
  </g>
 </g>
 <defs>
  <clipPath id="pfa0fb6fa7c">
   <rect x="57.6" y="41.472" width="357.12" height="266.112"/>
  </clipPath>
 </defs>
</g>
  </g>
</svg>
