<?xml version='1.0' encoding='ASCII' standalone='yes'?>
<svg xmlns="http://www.w3.org/2000/svg" xmlns:xlink="http://www.w3.org/1999/xlink" version="1.1" width="1152.0px" viewBox="0 0 1152.0 864.0000000000001" height="864.0000000000001px">
  <g>
    <g transform="translate(0, 0) scale(1 1) translate(0, 0) scale(1.25 1.25) "><metadata>
  <rdf:RDF xmlns:dc="http://purl.org/dc/elements/1.1/" xmlns:cc="http://creativecommons.org/ns#" xmlns:rdf="http://www.w3.org/1999/02/22-rdf-syntax-ns#">
   <cc:Work>
    <dc:type rdf:resource="http://purl.org/dc/dcmitype/StillImage"/>
    <dc:date>2025-02-13T00:07:44.130422</dc:date>
    <dc:format>image/svg+xml</dc:format>
    <dc:creator>
     <cc:Agent>
      <dc:title>Matplotlib v3.9.1, https://matplotlib.org/</dc:title>
     </cc:Agent>
    </dc:creator>
   </cc:Work>
  </rdf:RDF>
 </metadata>
 <defs>
  <style type="text/css">*{stroke-linejoin: round; stroke-linecap: butt}</style>
 </defs>
 <g id="figure_1">
  <g id="patch_1">
   <path d="M 0 345.6  L 460.8 345.6  L 460.8 0  L 0 0  z " style="fill: #ffffff"/>
  </g>
  <g id="axes_1">
   <g id="patch_2">
    <path d="M 10.8 334.8  L 447 334.8  L 447 18.064532  L 10.8 18.064532  z " style="fill: #ffffff"/>
   </g>
   <g id="matplotlib.axis_1">
    <g id="text_1">
     <!-- $x$ -->
     <g transform="translate(438.13055 191.501854) scale(0.16 -0.16)">
      <defs>
       <path id="CMMI12-78" d="M 3034 2606  C 2829 2567 2752 2414 2752 2293  C 2752 2139 2874 2088 2963 2088  C 3155 2088 3290 2254 3290 2427  C 3290 2695 2982 2816 2714 2816  C 2323 2816 2106 2433 2048 2312  C 1901 2816 1504 2816 1389 2816  C 736 2816 390 1980 390 1839  C 390 1814 416 1782 461 1782  C 512 1782 525 1820 538 1846  C 755 2555 1184 2689 1370 2689  C 1658 2689 1715 2420 1715 2267  C 1715 2127 1677 1980 1600 1673  L 1382 798  C 1286 415 1101 64 762 64  C 730 64 570 64 435 147  C 666 192 717 383 717 460  C 717 588 621 664 499 664  C 346 664 179 530 179 326  C 179 57 480 -64 755 -64  C 1062 -64 1280 179 1414 441  C 1517 64 1837 -64 2074 -64  C 2726 -64 3072 773 3072 913  C 3072 945 3046 971 3008 971  C 2950 971 2944 939 2925 888  C 2752 326 2381 64 2093 64  C 1869 64 1747 230 1747 492  C 1747 632 1773 734 1875 1156  L 2099 2024  C 2195 2408 2413 2689 2707 2689  C 2720 2689 2899 2689 3034 2606  z " transform="scale(0.015625)"/>
      </defs>
      <use xlink:href="#CMMI12-78" transform="scale(0.996264)"/>
     </g>
    </g>
   </g>
   <g id="matplotlib.axis_2">
    <g id="text_2">
     <!-- $y$ -->
     <g transform="translate(217.289729 14.965056) scale(0.16 -0.16)">
      <defs>
       <path id="CMMI12-79" d="M 1683 -700  C 1510 -939 1261 -1152 947 -1152  C 870 -1152 563 -1152 467 -889  C 486 -895 518 -895 531 -895  C 723 -895 851 -729 851 -582  C 851 -435 730 -384 634 -384  C 531 -384 307 -458 307 -759  C 307 -1071 582 -1286 947 -1286  C 1587 -1286 2234 -700 2413 6  L 3040 2485  C 3046 2517 3059 2556 3059 2594  C 3059 2689 2982 2753 2886 2753  C 2829 2753 2694 2727 2643 2535  L 2170 658  C 2138 543 2138 530 2086 460  C 1958 281 1747 64 1440 64  C 1082 64 1050 415 1050 588  C 1050 952 1222 1443 1395 1903  C 1466 2088 1504 2178 1504 2305  C 1504 2574 1312 2816 998 2816  C 410 2816 173 1890 173 1839  C 173 1814 198 1782 243 1782  C 301 1782 307 1807 333 1897  C 486 2433 730 2689 979 2689  C 1037 2689 1146 2689 1146 2478  C 1146 2312 1075 2127 979 1884  C 666 1047 666 837 666 683  C 666 77 1101 -64 1421 -64  C 1606 -64 1837 -6 2061 230  L 2067 224  C 1971 -147 1907 -392 1683 -700  z " transform="scale(0.015625)"/>
      </defs>
      <use xlink:href="#CMMI12-79" transform="scale(0.996264)"/>
     </g>
    </g>
   </g>
   <g id="line2d_1">
    <defs>
     <path id="m7efff9963f" d="M 3 0  L -3 -3  L -3 3  z " style="stroke: #000000; stroke-linejoin: miter"/>
    </defs>
    <g>
     <use xlink:href="#m7efff9963f" x="447" y="176.432266" style="stroke: #000000; stroke-linejoin: miter"/>
    </g>
   </g>
   <g id="line2d_2">
    <defs>
     <path id="m6fd49344f0" d="M 0 -3  L -3 3  L 3 3  z " style="stroke: #000000; stroke-linejoin: miter"/>
    </defs>
    <g>
     <use xlink:href="#m6fd49344f0" x="228.9" y="18.064532" style="stroke: #000000; stroke-linejoin: miter"/>
    </g>
   </g>
   <g id="line2d_3">
    <path d="M 10.21371 181.903679  L 26.629839 182.781228  L 40.114516 183.716884  L 51.254032 184.698092  L 61.220968 185.798268  L 69.429032 186.918426  L 76.464516 188.083487  L 82.91371 189.368462  L 88.776613 190.76939  L 94.053226 192.273575  L 98.743548 193.856785  L 102.847581 195.480764  L 106.365323 197.091805  L 109.883065 198.950587  L 112.814516 200.728785  L 115.745968 202.758922  L 118.677419 205.093097  L 121.022581 207.223469  L 123.367742 209.633468  L 125.712903 212.376213  L 128.058065 215.518278  L 130.403226 219.144044  L 132.162097 222.244807  L 133.920968 225.735076  L 135.679839 229.685053  L 137.43871 234.181725  L 139.197581 239.33395  L 140.956452 245.279458  L 142.715323 252.194608  L 144.474194 260.308257  L 146.233065 269.921812  L 147.405645 277.358017  L 148.578226 285.790667  L 149.750806 295.410066  L 150.923387 306.45465  L 152.095968 319.226442  L 153.268548 334.11264  L 154.118511 346.6  L 154.118511 346.6  " clip-path="url(#p8b1f261e8f)" style="fill: none; stroke: #008080; stroke-opacity: 0.7; stroke-width: 2; stroke-linecap: square"/>
   </g>
   <g id="line2d_4">
    <path d="M 191.463698 346.6  L 192.390103 327.815166  L 193.77588 304.974421  L 195.161657 286.675888  L 196.547434 271.804795  L 197.933211 259.566936  L 199.318988 249.384341  L 200.704765 240.828456  L 202.090543 233.576209  L 203.47632 227.380405  L 204.862097 222.049377  L 206.247874 217.432709  L 207.633651 213.411062  L 209.019428 209.888809  L 210.405205 206.788615  L 212.483871 202.794871  L 214.562537 199.44362  L 216.641202 196.607894  L 218.719868 194.19028  L 220.798534 192.115077  L 222.877199 190.322767  L 224.955865 188.766056  L 227.727419 186.992426  L 230.498974 185.500336  L 233.270528 184.23573  L 236.734971 182.911964  L 240.199413 181.816319  L 244.356745 180.737501  L 249.206965 179.730057  L 254.750073 178.827798  L 260.98607 178.046616  L 268.607845 177.332805  L 277.615396 176.72643  L 288.701613 176.214393  L 302.559384 175.803793  L 321.267375 175.485763  L 347.597141 175.278063  L 389.170455 175.195311  L 447.373094 175.245051  L 447.373094 175.245051  " clip-path="url(#p8b1f261e8f)" style="fill: none; stroke: #008080; stroke-opacity: 0.7; stroke-width: 2; stroke-linecap: square"/>
   </g>
   <g id="LineCollection_1">
    <path d="M 174.375 346.6  L 174.375 -1  " clip-path="url(#p8b1f261e8f)" style="fill: none; stroke-dasharray: 5.55,2.4; stroke-dashoffset: 0; stroke: #ff0000; stroke-width: 1.5"/>
   </g>
   <g id="line2d_5">
    <defs>
     <path id="mdf0ae157d1" d="M 0 4  C 1.060812 4 2.078319 3.578535 2.828427 2.828427  C 3.578535 2.078319 4 1.060812 4 0  C 4 -1.060812 3.578535 -2.078319 2.828427 -2.828427  C 2.078319 -3.578535 1.060812 -4 0 -4  C -1.060812 -4 -2.078319 -3.578535 -2.828427 -2.828427  C -3.578535 -2.078319 -4 -1.060812 -4 0  C -4 1.060812 -3.578535 2.078319 -2.828427 2.828427  C -2.078319 3.578535 -1.060812 4 0 4  z " style="stroke: #000000; stroke-opacity: 0.7"/>
    </defs>
    <g clip-path="url(#p8b1f261e8f)">
     <use xlink:href="#mdf0ae157d1" x="283.425" y="176.432266" style="fill-opacity: 0.7; stroke: #000000; stroke-opacity: 0.7"/>
    </g>
   </g>
   <g id="patch_3">
    <path d="M 228.9 334.8  L 228.9 18.064532  " style="fill: none; stroke: #000000; stroke-width: 0.8; stroke-linejoin: miter; stroke-linecap: square"/>
   </g>
   <g id="patch_4">
    <path d="M 447 334.8  L 447 18.064532  " style="fill: none"/>
   </g>
   <g id="patch_5">
    <path d="M 10.8 176.432266  L 447 176.432266  " style="fill: none; stroke: #000000; stroke-width: 0.8; stroke-linejoin: miter; stroke-linecap: square"/>
   </g>
   <g id="patch_6">
    <path d="M 10.8 18.064532  L 447 18.064532  " style="fill: none"/>
   </g>
   <g id="legend_1">
    <g id="patch_7">
     <path d="M 372.899538 53.164008  L 435.8 53.164008  Q 439 53.164008 439 49.964008  L 439 29.264532  Q 439 26.064532 435.8 26.064532  L 372.899538 26.064532  Q 369.699538 26.064532 369.699538 29.264532  L 369.699538 49.964008  Q 369.699538 53.164008 372.899538 53.164008  z " style="fill: #ffffff; opacity: 0.8; stroke: #cccccc; stroke-linejoin: miter"/>
    </g>
    <g id="line2d_6">
     <path d="M 376.099538 38.064532  L 392.099538 38.064532  L 408.099538 38.064532  " style="fill: none; stroke: #008080; stroke-opacity: 0.7; stroke-width: 2; stroke-linecap: square"/>
    </g>
    <g id="text_3">
     <!-- $\mathrm{A}$ -->
     <g transform="translate(420.899538 43.664532) scale(0.16 -0.16)">
      <defs>
       <path id="CMR17-41" d="M 2323 4378  C 2291 4461 2278 4480 2214 4480  C 2150 4480 2138 4461 2106 4378  L 749 566  C 627 223 371 153 147 153  L 147 -13  C 262 0 518 0 640 0  C 800 0 1056 0 1210 -13  L 1210 153  C 909 153 864 361 864 439  C 864 497 877 530 890 569  L 1229 1536  L 2906 1536  L 3290 442  C 3322 365 3322 352 3322 327  C 3322 153 3046 153 2925 153  L 2925 0  C 3110 0 3443 0 3642 0  C 3808 0 4128 0 4282 -13  L 4282 153  C 3942 153 3827 153 3744 387  L 2323 4378  z M 2067 3893  L 2848 1702  L 1286 1702  L 2067 3893  z " transform="scale(0.015625)"/>
      </defs>
      <use xlink:href="#CMR17-41" transform="scale(0.996264)"/>
     </g>
    </g>
   </g>
  </g>
 </g>
 <defs>
  <clipPath id="p8b1f261e8f">
   <rect x="10.8" y="18.064532" width="436.2" height="316.735468"/>
  </clipPath>
 </defs>
</g>
    <g transform="translate(576.0, 0) scale(1 1) translate(0, 0) scale(1.25 1.25) "><metadata>
  <rdf:RDF xmlns:dc="http://purl.org/dc/elements/1.1/" xmlns:cc="http://creativecommons.org/ns#" xmlns:rdf="http://www.w3.org/1999/02/22-rdf-syntax-ns#">
   <cc:Work>
    <dc:type rdf:resource="http://purl.org/dc/dcmitype/StillImage"/>
    <dc:date>2025-02-13T00:07:46.287396</dc:date>
    <dc:format>image/svg+xml</dc:format>
    <dc:creator>
     <cc:Agent>
      <dc:title>Matplotlib v3.9.1, https://matplotlib.org/</dc:title>
     </cc:Agent>
    </dc:creator>
   </cc:Work>
  </rdf:RDF>
 </metadata>
 <defs>
  <style type="text/css">*{stroke-linejoin: round; stroke-linecap: butt}</style>
 </defs>
 <g id="figure_1">
  <g id="patch_1">
   <path d="M 0 345.6  L 460.8 345.6  L 460.8 0  L 0 0  z " style="fill: #ffffff"/>
  </g>
  <g id="axes_1">
   <g id="patch_2">
    <path d="M 10.8 334.8  L 447 334.8  L 447 18.064532  L 10.8 18.064532  z " style="fill: #ffffff"/>
   </g>
   <g id="matplotlib.axis_1">
    <g id="text_1">
     <!-- $x$ -->
     <g transform="translate(438.13055 191.501854) scale(0.16 -0.16)">
      <defs>
       <path id="CMMI12-78" d="M 3034 2606  C 2829 2567 2752 2414 2752 2293  C 2752 2139 2874 2088 2963 2088  C 3155 2088 3290 2254 3290 2427  C 3290 2695 2982 2816 2714 2816  C 2323 2816 2106 2433 2048 2312  C 1901 2816 1504 2816 1389 2816  C 736 2816 390 1980 390 1839  C 390 1814 416 1782 461 1782  C 512 1782 525 1820 538 1846  C 755 2555 1184 2689 1370 2689  C 1658 2689 1715 2420 1715 2267  C 1715 2127 1677 1980 1600 1673  L 1382 798  C 1286 415 1101 64 762 64  C 730 64 570 64 435 147  C 666 192 717 383 717 460  C 717 588 621 664 499 664  C 346 664 179 530 179 326  C 179 57 480 -64 755 -64  C 1062 -64 1280 179 1414 441  C 1517 64 1837 -64 2074 -64  C 2726 -64 3072 773 3072 913  C 3072 945 3046 971 3008 971  C 2950 971 2944 939 2925 888  C 2752 326 2381 64 2093 64  C 1869 64 1747 230 1747 492  C 1747 632 1773 734 1875 1156  L 2099 2024  C 2195 2408 2413 2689 2707 2689  C 2720 2689 2899 2689 3034 2606  z " transform="scale(0.015625)"/>
      </defs>
      <use xlink:href="#CMMI12-78" transform="scale(0.996264)"/>
     </g>
    </g>
   </g>
   <g id="matplotlib.axis_2">
    <g id="text_2">
     <!-- $y$ -->
     <g transform="translate(217.289729 14.965056) scale(0.16 -0.16)">
      <defs>
       <path id="CMMI12-79" d="M 1683 -700  C 1510 -939 1261 -1152 947 -1152  C 870 -1152 563 -1152 467 -889  C 486 -895 518 -895 531 -895  C 723 -895 851 -729 851 -582  C 851 -435 730 -384 634 -384  C 531 -384 307 -458 307 -759  C 307 -1071 582 -1286 947 -1286  C 1587 -1286 2234 -700 2413 6  L 3040 2485  C 3046 2517 3059 2556 3059 2594  C 3059 2689 2982 2753 2886 2753  C 2829 2753 2694 2727 2643 2535  L 2170 658  C 2138 543 2138 530 2086 460  C 1958 281 1747 64 1440 64  C 1082 64 1050 415 1050 588  C 1050 952 1222 1443 1395 1903  C 1466 2088 1504 2178 1504 2305  C 1504 2574 1312 2816 998 2816  C 410 2816 173 1890 173 1839  C 173 1814 198 1782 243 1782  C 301 1782 307 1807 333 1897  C 486 2433 730 2689 979 2689  C 1037 2689 1146 2689 1146 2478  C 1146 2312 1075 2127 979 1884  C 666 1047 666 837 666 683  C 666 77 1101 -64 1421 -64  C 1606 -64 1837 -6 2061 230  L 2067 224  C 1971 -147 1907 -392 1683 -700  z " transform="scale(0.015625)"/>
      </defs>
      <use xlink:href="#CMMI12-79" transform="scale(0.996264)"/>
     </g>
    </g>
   </g>
   <g id="line2d_1">
    <defs>
     <path id="m8dc60f56e5" d="M 3 0  L -3 -3  L -3 3  z " style="stroke: #000000; stroke-linejoin: miter"/>
    </defs>
    <g>
     <use xlink:href="#m8dc60f56e5" x="447" y="176.432266" style="stroke: #000000; stroke-linejoin: miter"/>
    </g>
   </g>
   <g id="line2d_2">
    <defs>
     <path id="mbaa7d8b839" d="M 0 -3  L -3 3  L 3 3  z " style="stroke: #000000; stroke-linejoin: miter"/>
    </defs>
    <g>
     <use xlink:href="#mbaa7d8b839" x="228.9" y="18.064532" style="stroke: #000000; stroke-linejoin: miter"/>
    </g>
   </g>
   <g id="line2d_3">
    <path d="M 10.426906 178.409157  L 67.936657 178.936752  L 108.817082 179.52312  L 138.61129 180.159037  L 161.476613 180.857807  L 179.491716 181.6249  L 193.349487 182.423767  L 204.435704 183.26468  L 214.136144 184.221218  L 221.757918 185.183897  L 227.993915 186.168456  L 233.537023 187.250254  L 238.387243 188.415268  L 242.544575 189.633879  L 246.009018 190.85625  L 249.47346 192.328086  L 252.245015 193.741047  L 255.016569 195.429709  L 257.095235 196.929507  L 259.1739 198.686413  L 261.252566 200.77274  L 263.331232 203.29072  L 264.717009 205.280235  L 266.102786 207.588072  L 267.488563 210.297273  L 268.87434 213.522511  L 270.260117 217.426748  L 271.645894 222.249628  L 273.031672 228.35861  L 274.417449 236.347278  L 275.110337 241.340196  L 275.803226 247.240916  L 276.496114 254.321781  L 277.189003 262.976172  L 277.881891 273.79416  L 278.57478 287.703002  L 279.267669 306.248125  L 279.960557 332.211297  L 280.216555 346.6  L 280.216555 346.6  " clip-path="url(#p00ca339669)" style="fill: none; stroke: #008080; stroke-opacity: 0.7; stroke-width: 2; stroke-linecap: square"/>
   </g>
   <g id="line2d_4">
    <path d="M 286.483903 -1  L 286.942742 23.013524  L 287.529032 44.930487  L 288.115323 61.368209  L 288.701613 74.153105  L 289.874194 92.749316  L 291.046774 105.623616  L 292.219355 115.064769  L 293.391935 122.284475  L 294.564516 127.984242  L 295.737097 132.59834  L 296.909677 136.409986  L 298.082258 139.611768  L 299.254839 142.339212  L 301.01371 145.748518  L 302.772581 148.537949  L 304.531452 150.862476  L 306.290323 152.829383  L 308.049194 154.515303  L 310.394355 156.421126  L 312.739516 158.022017  L 315.084677 159.385739  L 318.016129 160.83036  L 321.533871 162.270536  L 325.051613 163.467302  L 329.155645 164.630824  L 333.845968 165.728633  L 339.122581 166.742661  L 345.571774 167.748186  L 353.193548 168.696867  L 361.987903 169.56277  L 372.541129 170.376263  L 385.439516 171.141965  L 401.269355 171.852602  L 421.203226 172.515192  L 446.41371 173.12107  L 447.58629 173.144722  L 447.58629 173.144722  " clip-path="url(#p00ca339669)" style="fill: none; stroke: #008080; stroke-opacity: 0.7; stroke-width: 2; stroke-linecap: square"/>
   </g>
   <g id="LineCollection_1">
    <path d="M 283.425 346.6  L 283.425 -1  " clip-path="url(#p00ca339669)" style="fill: none; stroke-dasharray: 5.55,2.4; stroke-dashoffset: 0; stroke: #ff0000; stroke-width: 1.5"/>
   </g>
   <g id="patch_3">
    <path d="M 228.9 334.8  L 228.9 18.064532  " style="fill: none; stroke: #000000; stroke-width: 0.8; stroke-linejoin: miter; stroke-linecap: square"/>
   </g>
   <g id="patch_4">
    <path d="M 447 334.8  L 447 18.064532  " style="fill: none"/>
   </g>
   <g id="patch_5">
    <path d="M 10.8 176.432266  L 447 176.432266  " style="fill: none; stroke: #000000; stroke-width: 0.8; stroke-linejoin: miter; stroke-linecap: square"/>
   </g>
   <g id="patch_6">
    <path d="M 10.8 18.064532  L 447 18.064532  " style="fill: none"/>
   </g>
   <g id="legend_1">
    <g id="patch_7">
     <path d="M 373.547103 53.164008  L 435.8 53.164008  Q 439 53.164008 439 49.964008  L 439 29.264532  Q 439 26.064532 435.8 26.064532  L 373.547103 26.064532  Q 370.347103 26.064532 370.347103 29.264532  L 370.347103 49.964008  Q 370.347103 53.164008 373.547103 53.164008  z " style="fill: #ffffff; opacity: 0.8; stroke: #cccccc; stroke-linejoin: miter"/>
    </g>
    <g id="line2d_5">
     <path d="M 376.747103 38.064532  L 392.747103 38.064532  L 408.747103 38.064532  " style="fill: none; stroke: #008080; stroke-opacity: 0.7; stroke-width: 2; stroke-linecap: square"/>
    </g>
    <g id="text_3">
     <!-- $\mathrm{B}$ -->
     <g transform="translate(421.547103 43.664532) scale(0.16 -0.16)">
      <defs>
       <path id="CMR17-42" d="M 333 4352  L 333 4186  C 774 4186 845 4186 845 3900  L 845 452  C 845 166 774 166 333 166  L 333 0  L 2534 0  C 3354 0 3885 583 3885 1164  C 3885 1741 3360 2233 2675 2233  C 3290 2356 3718 2771 3718 3264  C 3718 3802 3194 4352 2368 4352  L 333 4352  z M 1248 2304  L 1248 3937  C 1248 4155 1261 4186 1517 4186  L 2336 4186  C 2970 4186 3251 3674 3251 3277  C 3251 2791 2861 2304 2170 2304  L 1248 2304  z M 1517 166  C 1261 166 1248 197 1248 413  L 1248 2202  L 2432 2202  C 3091 2202 3411 1625 3411 1162  C 3411 699 3046 166 2349 166  L 1517 166  z " transform="scale(0.015625)"/>
      </defs>
      <use xlink:href="#CMR17-42" transform="scale(0.996264)"/>
     </g>
    </g>
   </g>
  </g>
 </g>
 <defs>
  <clipPath id="p00ca339669">
   <rect x="10.8" y="18.064532" width="436.2" height="316.735468"/>
  </clipPath>
 </defs>
</g>
    <g transform="translate(0, 432.00000000000006) scale(1 1) translate(0, 0) scale(1.25 1.25) "><metadata>
  <rdf:RDF xmlns:dc="http://purl.org/dc/elements/1.1/" xmlns:cc="http://creativecommons.org/ns#" xmlns:rdf="http://www.w3.org/1999/02/22-rdf-syntax-ns#">
   <cc:Work>
    <dc:type rdf:resource="http://purl.org/dc/dcmitype/StillImage"/>
    <dc:date>2025-02-13T00:07:49.773122</dc:date>
    <dc:format>image/svg+xml</dc:format>
    <dc:creator>
     <cc:Agent>
      <dc:title>Matplotlib v3.9.1, https://matplotlib.org/</dc:title>
     </cc:Agent>
    </dc:creator>
   </cc:Work>
  </rdf:RDF>
 </metadata>
 <defs>
  <style type="text/css">*{stroke-linejoin: round; stroke-linecap: butt}</style>
 </defs>
 <g id="figure_1">
  <g id="patch_1">
   <path d="M 0 345.6  L 460.8 345.6  L 460.8 0  L 0 0  z " style="fill: #ffffff"/>
  </g>
  <g id="axes_1">
   <g id="patch_2">
    <path d="M 10.8 334.8  L 447 334.8  L 447 18.064532  L 10.8 18.064532  z " style="fill: #ffffff"/>
   </g>
   <g id="matplotlib.axis_1">
    <g id="text_1">
     <!-- $x$ -->
     <g transform="translate(438.13055 214.125816) scale(0.16 -0.16)">
      <defs>
       <path id="CMMI12-78" d="M 3034 2606  C 2829 2567 2752 2414 2752 2293  C 2752 2139 2874 2088 2963 2088  C 3155 2088 3290 2254 3290 2427  C 3290 2695 2982 2816 2714 2816  C 2323 2816 2106 2433 2048 2312  C 1901 2816 1504 2816 1389 2816  C 736 2816 390 1980 390 1839  C 390 1814 416 1782 461 1782  C 512 1782 525 1820 538 1846  C 755 2555 1184 2689 1370 2689  C 1658 2689 1715 2420 1715 2267  C 1715 2127 1677 1980 1600 1673  L 1382 798  C 1286 415 1101 64 762 64  C 730 64 570 64 435 147  C 666 192 717 383 717 460  C 717 588 621 664 499 664  C 346 664 179 530 179 326  C 179 57 480 -64 755 -64  C 1062 -64 1280 179 1414 441  C 1517 64 1837 -64 2074 -64  C 2726 -64 3072 773 3072 913  C 3072 945 3046 971 3008 971  C 2950 971 2944 939 2925 888  C 2752 326 2381 64 2093 64  C 1869 64 1747 230 1747 492  C 1747 632 1773 734 1875 1156  L 2099 2024  C 2195 2408 2413 2689 2707 2689  C 2720 2689 2899 2689 3034 2606  z " transform="scale(0.015625)"/>
      </defs>
      <use xlink:href="#CMMI12-78" transform="scale(0.996264)"/>
     </g>
    </g>
   </g>
   <g id="matplotlib.axis_2">
    <g id="text_2">
     <!-- $y$ -->
     <g transform="translate(217.289729 14.965056) scale(0.16 -0.16)">
      <defs>
       <path id="CMMI12-79" d="M 1683 -700  C 1510 -939 1261 -1152 947 -1152  C 870 -1152 563 -1152 467 -889  C 486 -895 518 -895 531 -895  C 723 -895 851 -729 851 -582  C 851 -435 730 -384 634 -384  C 531 -384 307 -458 307 -759  C 307 -1071 582 -1286 947 -1286  C 1587 -1286 2234 -700 2413 6  L 3040 2485  C 3046 2517 3059 2556 3059 2594  C 3059 2689 2982 2753 2886 2753  C 2829 2753 2694 2727 2643 2535  L 2170 658  C 2138 543 2138 530 2086 460  C 1958 281 1747 64 1440 64  C 1082 64 1050 415 1050 588  C 1050 952 1222 1443 1395 1903  C 1466 2088 1504 2178 1504 2305  C 1504 2574 1312 2816 998 2816  C 410 2816 173 1890 173 1839  C 173 1814 198 1782 243 1782  C 301 1782 307 1807 333 1897  C 486 2433 730 2689 979 2689  C 1037 2689 1146 2689 1146 2478  C 1146 2312 1075 2127 979 1884  C 666 1047 666 837 666 683  C 666 77 1101 -64 1421 -64  C 1606 -64 1837 -6 2061 230  L 2067 224  C 1971 -147 1907 -392 1683 -700  z " transform="scale(0.015625)"/>
      </defs>
      <use xlink:href="#CMMI12-79" transform="scale(0.996264)"/>
     </g>
    </g>
   </g>
   <g id="line2d_1">
    <defs>
     <path id="mab1020a76e" d="M 3 0  L -3 -3  L -3 3  z " style="stroke: #000000; stroke-linejoin: miter"/>
    </defs>
    <g>
     <use xlink:href="#mab1020a76e" x="447" y="199.056228" style="stroke: #000000; stroke-linejoin: miter"/>
    </g>
   </g>
   <g id="line2d_2">
    <defs>
     <path id="m27f2a4c158" d="M 0 -3  L -3 3  L 3 3  z " style="stroke: #000000; stroke-linejoin: miter"/>
    </defs>
    <g>
     <use xlink:href="#m27f2a4c158" x="228.9" y="18.064532" style="stroke: #000000; stroke-linejoin: miter"/>
    </g>
   </g>
   <g id="line2d_3">
    <path d="M 10.782234 304.355463  L 52.089052 279.383709  L 83.180205 260.832908  L 107.608969 246.507536  L 126.70782 235.556186  L 142.253397 226.893998  L 154.689858 220.209769  L 164.905523 214.95831  L 173.34455 210.851458  L 180.4511 207.618144  L 186.66933 205.018633  L 191.999242 203.018849  L 196.440836 201.564244  L 200.43827 200.468411  L 203.991544 199.711211  L 207.10066 199.26075  L 209.765616 199.071582  L 212.430572 199.108488  L 214.651369 199.352155  L 216.872165 199.834921  L 218.648803 200.430943  L 220.42544 201.253871  L 222.202077 202.352325  L 223.534555 203.394509  L 224.867033 204.661274  L 226.199511 206.195624  L 227.531989 208.052294  L 228.864467 210.302036  L 230.196945 213.037946  L 231.529423 216.385039  L 232.861901 220.515211  L 234.194379 225.671485  L 235.082698 229.847964  L 235.971017 234.78114  L 236.859335 240.668414  L 237.747654 247.782385  L 238.635973 256.51043  L 239.524291 267.422222  L 240.41261 281.391261  L 241.300929 299.828584  L 242.189247 325.171436  L 242.740041 346.6  L 242.740041 346.6  " clip-path="url(#pbce292374d)" style="fill: none; stroke: #008080; stroke-opacity: 0.7; stroke-width: 2; stroke-linecap: square"/>
   </g>
   <g id="line2d_4">
    <path d="M 252.512317 -1  L 253.204399 15.823482  L 254.021652 31.099528  L 254.838905 43.052479  L 255.656158 52.631792  L 256.882038 63.848272  L 258.107918 72.40265  L 259.333798 79.093557  L 260.559677 84.429212  L 261.785557 88.748428  L 263.011437 92.285768  L 264.237317 95.208777  L 265.463196 97.640321  L 266.689076 99.67255  L 268.323583 101.880484  L 269.958089 103.62767  L 271.592595 105.006258  L 273.227102 106.085358  L 274.861608 106.917824  L 276.904741 107.673338  L 278.947874 108.168961  L 280.991007 108.451663  L 283.442766 108.560375  L 286.303152 108.42895  L 289.163539 108.073409  L 292.432551 107.447039  L 296.110191 106.517935  L 300.196457 105.26477  L 305.099976 103.521123  L 310.820748 101.232483  L 317.358773 98.363355  L 325.122678 94.69512  L 334.112463 90.188266  L 344.736755 84.603668  L 357.404179 77.686382  L 372.931989 68.941627  L 391.728812 58.091711  L 415.429154 44.141138  L 445.258895 26.310578  L 447.302028 25.08129  L 447.302028 25.08129  " clip-path="url(#pbce292374d)" style="fill: none; stroke: #008080; stroke-opacity: 0.7; stroke-width: 2; stroke-linecap: square"/>
   </g>
   <g id="LineCollection_1">
    <path d="M 247.075 346.6  L 247.075 -1  " clip-path="url(#pbce292374d)" style="fill: none; stroke-dasharray: 5.55,2.4; stroke-dashoffset: 0; stroke: #ff0000; stroke-width: 1.5"/>
   </g>
   <g id="line2d_5">
    <defs>
     <path id="m33669ac17f" d="M 0 4  C 1.060812 4 2.078319 3.578535 2.828427 2.828427  C 3.578535 2.078319 4 1.060812 4 0  C 4 -1.060812 3.578535 -2.078319 2.828427 -2.828427  C 2.078319 -3.578535 1.060812 -4 0 -4  C -1.060812 -4 -2.078319 -3.578535 -2.828427 -2.828427  C -3.578535 -2.078319 -4 -1.060812 -4 0  C -4 1.060812 -3.578535 2.078319 -2.828427 2.828427  C -2.078319 3.578535 -1.060812 4 0 4  z " style="stroke: #000000; stroke-opacity: 0.7"/>
    </defs>
    <g clip-path="url(#pbce292374d)">
     <use xlink:href="#m33669ac17f" x="210.725" y="199.056228" style="fill-opacity: 0.7; stroke: #000000; stroke-opacity: 0.7"/>
    </g>
   </g>
   <g id="line2d_6">
    <path d="M 10.373607 301.129441  L 447.426393 29.11113  L 447.426393 29.11113  " clip-path="url(#pbce292374d)" style="fill: none; stroke-dasharray: 5.55,2.4; stroke-dashoffset: 0; stroke: #0000ff; stroke-opacity: 0.7; stroke-width: 1.5"/>
   </g>
   <g id="patch_3">
    <path d="M 228.9 334.8  L 228.9 18.064532  " style="fill: none; stroke: #000000; stroke-width: 0.8; stroke-linejoin: miter; stroke-linecap: square"/>
   </g>
   <g id="patch_4">
    <path d="M 447 334.8  L 447 18.064532  " style="fill: none"/>
   </g>
   <g id="patch_5">
    <path d="M 10.8 199.056228  L 447 199.056228  " style="fill: none; stroke: #000000; stroke-width: 0.8; stroke-linejoin: miter; stroke-linecap: square"/>
   </g>
   <g id="patch_6">
    <path d="M 10.8 18.064532  L 447 18.064532  " style="fill: none"/>
   </g>
   <g id="legend_1">
    <g id="patch_7">
     <path d="M 22 53.164008  L 84.472426 53.164008  Q 87.672426 53.164008 87.672426 49.964008  L 87.672426 29.264532  Q 87.672426 26.064532 84.472426 26.064532  L 22 26.064532  Q 18.8 26.064532 18.8 29.264532  L 18.8 49.964008  Q 18.8 53.164008 22 53.164008  z " style="fill: #ffffff; opacity: 0.8; stroke: #cccccc; stroke-linejoin: miter"/>
    </g>
    <g id="line2d_7">
     <path d="M 25.2 38.064532  L 41.2 38.064532  L 57.2 38.064532  " style="fill: none; stroke: #008080; stroke-opacity: 0.7; stroke-width: 2; stroke-linecap: square"/>
    </g>
    <g id="text_3">
     <!-- $\mathrm{C}$ -->
     <g transform="translate(70 43.664532) scale(0.16 -0.16)">
      <defs>
       <path id="CMR17-43" d="M 3974 4289  C 3974 4403 3968 4410 3930 4410  C 3904 4410 3898 4403 3853 4327  L 3571 3792  C 3258 4187 2874 4416 2381 4416  C 1286 4416 294 3456 294 2148  C 294 826 1286 -128 2387 -128  C 3366 -128 3974 730 3974 1461  C 3974 1524 3974 1550 3917 1550  C 3866 1550 3866 1531 3859 1474  C 3808 585 3168 38 2477 38  C 1824 38 781 495 781 2147  C 781 3805 1843 4250 2464 4250  C 3187 4250 3712 3628 3834 2745  C 3846 2668 3846 2655 3904 2655  C 3974 2655 3974 2668 3974 2783  L 3974 4289  z " transform="scale(0.015625)"/>
      </defs>
      <use xlink:href="#CMR17-43" transform="scale(0.996264)"/>
     </g>
    </g>
   </g>
  </g>
 </g>
 <defs>
  <clipPath id="pbce292374d">
   <rect x="10.8" y="18.064532" width="436.2" height="316.735468"/>
  </clipPath>
 </defs>
</g>
    <g transform="translate(576.0, 432.00000000000006) scale(1 1) translate(0, 0) scale(1.25 1.25) "><metadata>
  <rdf:RDF xmlns:dc="http://purl.org/dc/elements/1.1/" xmlns:cc="http://creativecommons.org/ns#" xmlns:rdf="http://www.w3.org/1999/02/22-rdf-syntax-ns#">
   <cc:Work>
    <dc:type rdf:resource="http://purl.org/dc/dcmitype/StillImage"/>
    <dc:date>2025-02-13T00:07:51.746030</dc:date>
    <dc:format>image/svg+xml</dc:format>
    <dc:creator>
     <cc:Agent>
      <dc:title>Matplotlib v3.9.1, https://matplotlib.org/</dc:title>
     </cc:Agent>
    </dc:creator>
   </cc:Work>
  </rdf:RDF>
 </metadata>
 <defs>
  <style type="text/css">*{stroke-linejoin: round; stroke-linecap: butt}</style>
 </defs>
 <g id="figure_1">
  <g id="patch_1">
   <path d="M 0 345.6  L 460.8 345.6  L 460.8 0  L 0 0  z " style="fill: #ffffff"/>
  </g>
  <g id="axes_1">
   <g id="patch_2">
    <path d="M 10.8 334.8  L 447 334.8  L 447 18.064532  L 10.8 18.064532  z " style="fill: #ffffff"/>
   </g>
   <g id="matplotlib.axis_1">
    <g id="text_1">
     <!-- $x$ -->
     <g transform="translate(438.13055 191.501854) scale(0.16 -0.16)">
      <defs>
       <path id="CMMI12-78" d="M 3034 2606  C 2829 2567 2752 2414 2752 2293  C 2752 2139 2874 2088 2963 2088  C 3155 2088 3290 2254 3290 2427  C 3290 2695 2982 2816 2714 2816  C 2323 2816 2106 2433 2048 2312  C 1901 2816 1504 2816 1389 2816  C 736 2816 390 1980 390 1839  C 390 1814 416 1782 461 1782  C 512 1782 525 1820 538 1846  C 755 2555 1184 2689 1370 2689  C 1658 2689 1715 2420 1715 2267  C 1715 2127 1677 1980 1600 1673  L 1382 798  C 1286 415 1101 64 762 64  C 730 64 570 64 435 147  C 666 192 717 383 717 460  C 717 588 621 664 499 664  C 346 664 179 530 179 326  C 179 57 480 -64 755 -64  C 1062 -64 1280 179 1414 441  C 1517 64 1837 -64 2074 -64  C 2726 -64 3072 773 3072 913  C 3072 945 3046 971 3008 971  C 2950 971 2944 939 2925 888  C 2752 326 2381 64 2093 64  C 1869 64 1747 230 1747 492  C 1747 632 1773 734 1875 1156  L 2099 2024  C 2195 2408 2413 2689 2707 2689  C 2720 2689 2899 2689 3034 2606  z " transform="scale(0.015625)"/>
      </defs>
      <use xlink:href="#CMMI12-78" transform="scale(0.996264)"/>
     </g>
    </g>
   </g>
   <g id="matplotlib.axis_2">
    <g id="text_2">
     <!-- $y$ -->
     <g transform="translate(217.289729 14.965056) scale(0.16 -0.16)">
      <defs>
       <path id="CMMI12-79" d="M 1683 -700  C 1510 -939 1261 -1152 947 -1152  C 870 -1152 563 -1152 467 -889  C 486 -895 518 -895 531 -895  C 723 -895 851 -729 851 -582  C 851 -435 730 -384 634 -384  C 531 -384 307 -458 307 -759  C 307 -1071 582 -1286 947 -1286  C 1587 -1286 2234 -700 2413 6  L 3040 2485  C 3046 2517 3059 2556 3059 2594  C 3059 2689 2982 2753 2886 2753  C 2829 2753 2694 2727 2643 2535  L 2170 658  C 2138 543 2138 530 2086 460  C 1958 281 1747 64 1440 64  C 1082 64 1050 415 1050 588  C 1050 952 1222 1443 1395 1903  C 1466 2088 1504 2178 1504 2305  C 1504 2574 1312 2816 998 2816  C 410 2816 173 1890 173 1839  C 173 1814 198 1782 243 1782  C 301 1782 307 1807 333 1897  C 486 2433 730 2689 979 2689  C 1037 2689 1146 2689 1146 2478  C 1146 2312 1075 2127 979 1884  C 666 1047 666 837 666 683  C 666 77 1101 -64 1421 -64  C 1606 -64 1837 -6 2061 230  L 2067 224  C 1971 -147 1907 -392 1683 -700  z " transform="scale(0.015625)"/>
      </defs>
      <use xlink:href="#CMMI12-79" transform="scale(0.996264)"/>
     </g>
    </g>
   </g>
   <g id="line2d_1">
    <defs>
     <path id="m1276c64fe9" d="M 3 0  L -3 -3  L -3 3  z " style="stroke: #000000; stroke-linejoin: miter"/>
    </defs>
    <g>
     <use xlink:href="#m1276c64fe9" x="447" y="176.432266" style="stroke: #000000; stroke-linejoin: miter"/>
    </g>
   </g>
   <g id="line2d_2">
    <defs>
     <path id="mffd5e21a7f" d="M 0 -3  L -3 3  L 3 3  z " style="stroke: #000000; stroke-linejoin: miter"/>
    </defs>
    <g>
     <use xlink:href="#mffd5e21a7f" x="228.9" y="18.064532" style="stroke: #000000; stroke-linejoin: miter"/>
    </g>
   </g>
   <g id="line2d_3">
    <path d="M 10.497972 328.660337  L 44.413978 310.922802  L 70.157454 297.695474  L 90.588783 287.439308  L 106.52522 279.676508  L 119.601271 273.546346  L 130.225562 268.802641  L 139.215347 265.030623  L 146.570626 262.178678  L 152.700024 260.025483  L 158.01217 258.382264  L 162.507063 257.206928  L 166.593328 256.363386  L 170.270968 255.842875  L 173.131354 255.638538  L 175.99174 255.657116  L 178.4435 255.895379  L 180.486632 256.288844  L 182.529765 256.90059  L 184.572898 257.781777  L 186.207405 258.72599  L 187.841911 259.932254  L 189.476417 261.461042  L 190.702297 262.866804  L 191.928177 264.543005  L 193.154057 266.546249  L 194.379936 268.95012  L 195.605816 271.852069  L 196.831696 275.38394  L 198.057576 279.728612  L 199.283456 285.147343  L 200.509335 292.026796  L 201.326588 297.706874  L 202.143842 304.553648  L 202.961095 312.935546  L 203.778348 323.394379  L 204.595601 336.760919  L 205.076675 346.6  L 205.076675 346.6  " clip-path="url(#p0fafaad025)" style="fill: none; stroke: #008080; stroke-opacity: 0.7; stroke-width: 2; stroke-linecap: square"/>
   </g>
   <g id="line2d_4">
    <path d="M 214.083566 -1  L 214.722434 33.8359  L 215.610753 66.081459  L 216.499071 88.256455  L 217.38739 104.389112  L 218.275709 116.612021  L 219.164027 126.15984  L 220.052346 133.796879  L 220.940665 140.021603  L 222.273143 147.423546  L 223.605621 153.143916  L 224.938099 157.655656  L 226.270577 161.269556  L 227.603055 164.198263  L 228.935533 166.592184  L 230.268011 168.560709  L 231.600489 170.185295  L 232.932967 171.527851  L 234.709604 172.960457  L 236.486241 174.062008  L 238.262879 174.896579  L 240.039516 175.512712  L 242.260313 176.031942  L 244.481109 176.323718  L 247.146065 176.432191  L 249.811022 176.327965  L 252.920137 175.991306  L 256.473412 175.380776  L 260.470846 174.467749  L 265.356598 173.100636  L 270.68651 171.368807  L 276.904741 169.109988  L 284.45545 166.11144  L 293.338636 162.323141  L 303.554301 157.7183  L 315.990762 151.861297  L 331.09218 144.494803  L 349.746872 135.137774  L 373.287317 123.067342  L 403.045992 107.545899  L 441.687854 87.127794  L 447.017766 84.295436  L 447.017766 84.295436  " clip-path="url(#p0fafaad025)" style="fill: none; stroke: #008080; stroke-opacity: 0.7; stroke-width: 2; stroke-linecap: square"/>
   </g>
   <g id="LineCollection_1">
    <path d="M 210.725 346.6  L 210.725 -1  " clip-path="url(#p0fafaad025)" style="fill: none; stroke-dasharray: 5.55,2.4; stroke-dashoffset: 0; stroke: #ff0000; stroke-width: 1.5"/>
   </g>
   <g id="line2d_5">
    <defs>
     <path id="m512e371544" d="M 0 4  C 1.060812 4 2.078319 3.578535 2.828427 2.828427  C 3.578535 2.078319 4 1.060812 4 0  C 4 -1.060812 3.578535 -2.078319 2.828427 -2.828427  C 2.078319 -3.578535 1.060812 -4 0 -4  C -1.060812 -4 -2.078319 -3.578535 -2.828427 -2.828427  C -3.578535 -2.078319 -4 -1.060812 -4 0  C -4 1.060812 -3.578535 2.078319 -2.828427 2.828427  C -2.078319 3.578535 -1.060812 4 0 4  z " style="stroke: #000000; stroke-opacity: 0.7"/>
    </defs>
    <g clip-path="url(#p0fafaad025)">
     <use xlink:href="#m512e371544" x="247.075" y="176.432266" style="fill-opacity: 0.7; stroke: #000000; stroke-opacity: 0.7"/>
    </g>
   </g>
   <g id="line2d_6">
    <path d="M 10.373607 325.134227  L 447.426393 87.118205  L 447.426393 87.118205  " clip-path="url(#p0fafaad025)" style="fill: none; stroke-dasharray: 5.55,2.4; stroke-dashoffset: 0; stroke: #0000ff; stroke-opacity: 0.7; stroke-width: 1.5"/>
   </g>
   <g id="patch_3">
    <path d="M 228.9 334.8  L 228.9 18.064532  " style="fill: none; stroke: #000000; stroke-width: 0.8; stroke-linejoin: miter; stroke-linecap: square"/>
   </g>
   <g id="patch_4">
    <path d="M 447 334.8  L 447 18.064532  " style="fill: none"/>
   </g>
   <g id="patch_5">
    <path d="M 10.8 176.432266  L 447 176.432266  " style="fill: none; stroke: #000000; stroke-width: 0.8; stroke-linejoin: miter; stroke-linecap: square"/>
   </g>
   <g id="patch_6">
    <path d="M 10.8 18.064532  L 447 18.064532  " style="fill: none"/>
   </g>
   <g id="legend_1">
    <g id="patch_7">
     <path d="M 372.679994 53.164008  L 435.8 53.164008  Q 439 53.164008 439 49.964008  L 439 29.264532  Q 439 26.064532 435.8 26.064532  L 372.679994 26.064532  Q 369.479994 26.064532 369.479994 29.264532  L 369.479994 49.964008  Q 369.479994 53.164008 372.679994 53.164008  z " style="fill: #ffffff; opacity: 0.8; stroke: #cccccc; stroke-linejoin: miter"/>
    </g>
    <g id="line2d_7">
     <path d="M 375.879994 38.064532  L 391.879994 38.064532  L 407.879994 38.064532  " style="fill: none; stroke: #008080; stroke-opacity: 0.7; stroke-width: 2; stroke-linecap: square"/>
    </g>
    <g id="text_3">
     <!-- $\mathrm{D}$ -->
     <g transform="translate(420.679994 43.664532) scale(0.16 -0.16)">
      <defs>
       <path id="CMR17-44" d="M 333 4352  L 333 4186  C 774 4186 845 4186 845 3900  L 845 452  C 845 166 774 166 333 166  L 333 0  L 2368 0  C 3398 0 4224 943 4224 2141  C 4224 3346 3411 4352 2368 4352  L 333 4352  z M 1523 166  C 1267 166 1254 197 1254 414  L 1254 3938  C 1254 4155 1267 4186 1523 4186  L 2240 4186  C 2771 4186 3750 3874 3750 2141  C 3750 1242 3488 879 3366 707  C 3213 510 2848 166 2240 166  L 1523 166  z " transform="scale(0.015625)"/>
      </defs>
      <use xlink:href="#CMR17-44" transform="scale(0.996264)"/>
     </g>
    </g>
   </g>
  </g>
 </g>
 <defs>
  <clipPath id="p0fafaad025">
   <rect x="10.8" y="18.064532" width="436.2" height="316.735468"/>
  </clipPath>
 </defs>
</g>
  </g>
</svg>
