<?xml version='1.0' encoding='ASCII' standalone='yes'?>
<svg xmlns="http://www.w3.org/2000/svg" xmlns:xlink="http://www.w3.org/1999/xlink" version="1.1" width="1152.0px" viewBox="0 0 1152.0 432.00000000000006" height="432.00000000000006px">
  <g>
    <g transform="translate(0, 0) scale(1 1) translate(0, 0) scale(1.25 1.25) "><metadata>
  <rdf:RDF xmlns:dc="http://purl.org/dc/elements/1.1/" xmlns:cc="http://creativecommons.org/ns#" xmlns:rdf="http://www.w3.org/1999/02/22-rdf-syntax-ns#">
   <cc:Work>
    <dc:type rdf:resource="http://purl.org/dc/dcmitype/StillImage"/>
    <dc:date>2025-03-11T23:47:33.273318</dc:date>
    <dc:format>image/svg+xml</dc:format>
    <dc:creator>
     <cc:Agent>
      <dc:title>Matplotlib v3.9.1, https://matplotlib.org/</dc:title>
     </cc:Agent>
    </dc:creator>
   </cc:Work>
  </rdf:RDF>
 </metadata>
 <defs>
  <style type="text/css">*{stroke-linejoin: round; stroke-linecap: butt}</style>
 </defs>
 <g id="figure_1">
  <g id="patch_1">
   <path d="M 0 345.6  L 460.8 345.6  L 460.8 0  L 0 0  z " style="fill: #ffffff"/>
  </g>
  <g id="axes_1">
   <g id="patch_2">
    <path d="M 182.050909 268.247695  L 398.487273 268.247695  L 73.832727 80.808305  z " clip-path="url(#p7ce2c5dd02)" style="fill: #00648c; opacity: 0.1; stroke: #00648c; stroke-linejoin: miter"/>
   </g>
   <g id="line2d_1">
    <path d="M 182.050909 268.247695  L 398.487273 268.247695  L 73.832727 80.808305  L 182.050909 268.247695  " clip-path="url(#p7ce2c5dd02)" style="fill: none; stroke: #000000; stroke-width: 1.5; stroke-linecap: square"/>
   </g>
   <g id="line2d_2">
    <defs>
     <path id="m213d089384" d="M 0 4  C 1.060812 4 2.078319 3.578535 2.828427 2.828427  C 3.578535 2.078319 4 1.060812 4 0  C 4 -1.060812 3.578535 -2.078319 2.828427 -2.828427  C 2.078319 -3.578535 1.060812 -4 0 -4  C -1.060812 -4 -2.078319 -3.578535 -2.828427 -2.828427  C -3.578535 -2.078319 -4 -1.060812 -4 0  C -4 1.060812 -3.578535 2.078319 -2.828427 2.828427  C -2.078319 3.578535 -1.060812 4 0 4  z " style="stroke: #000000; stroke-opacity: 0.7"/>
    </defs>
    <g clip-path="url(#p7ce2c5dd02)">
     <use xlink:href="#m213d089384" x="398.487273" y="268.247695" style="fill-opacity: 0.7; stroke: #000000; stroke-opacity: 0.7"/>
     <use xlink:href="#m213d089384" x="73.832727" y="80.808305" style="fill-opacity: 0.7; stroke: #000000; stroke-opacity: 0.7"/>
     <use xlink:href="#m213d089384" x="182.050909" y="268.247695" style="fill-opacity: 0.7; stroke: #000000; stroke-opacity: 0.7"/>
    </g>
   </g>
   <g id="line2d_3">
    <path d="M 210.909091 268.247695  L 210.902633 267.637231  L 210.883263 267.02704  L 210.85099 266.417396  L 210.805827 265.80857  L 210.747796 265.200837  L 210.676921 264.594467  L 210.593236 263.989731  L 210.496776 263.386902  L 210.387586 262.786248  L 210.265714 262.188038  L 210.131215 261.59254  L 209.984149 261.00002  L 209.824581 260.410744  L 209.652584 259.824976  L 209.468234 259.242977  L 209.271614 258.665008  L 209.062811 258.091327  L 208.84192 257.522192  L 208.609038 256.957857  L 208.364271 256.398574  L 208.107727 255.844595  L 207.839522 255.296166  L 207.559776 254.753534  L 207.268613 254.216941  L 206.966165 253.686627  L 206.652566 253.16283  L 206.327956 252.645784  L 205.992482 252.13572  L 205.646293 251.632867  L 205.289545 251.13745  L 204.922396 250.64969  L 204.545011 250.169806  L 204.157559 249.698013  L 203.760213 249.234521  L 203.353152 248.779539  L 202.936558 248.333269  L 202.510616 247.895912  L 202.075517 247.467663  L 201.631457 247.048714  L 201.178634 246.639252  L 200.71725 246.23946  L 200.247513 245.849519  L 199.769631 245.469601  L 199.28382 245.099878  L 198.790297 244.740514  L 198.289282 244.39167  L 197.781 244.053503  L 197.265677 243.726164  L 196.743546 243.409799  L 196.214839 243.10455  L 195.679794 242.810553  L 195.138648 242.527941  L 194.591646 242.256839  L 194.039031 241.997369  L 193.481051 241.749647  L 192.917955 241.513784  L 192.349997 241.289886  L 191.777428 241.078052  L 191.200507 240.878378  L 190.619491 240.690952  L 190.034641 240.515859  L 189.446217 240.353178  L 188.854483 240.20298  L 188.259705 240.065333  L 187.662148 239.940299  L 187.06208 239.827933  L 186.459769 239.728287  L 185.855485 239.641404  L 185.249498 239.567324  L 184.64208 239.506079  L 184.033502 239.457697  L 183.424037 239.422199  L 182.813957 239.399603  L 182.203536 239.389916  L 181.593046 239.393145  L 180.982762 239.409288  L 180.372955 239.438336  L 179.763899 239.480278  L 179.155867 239.535095  L 178.549131 239.602761  L 177.943962 239.683247  L 177.34063 239.776517  L 176.739407 239.882529  L 176.140561 240.001236  L 175.54436 240.132583  L 174.951071 240.276514  L 174.360959 240.432962  L 173.774289 240.601859  L 173.191323 240.783128  L 172.612322 240.976689  L 172.037546 241.182455  L 171.46725 241.400333  L 170.901691 241.630227  L 170.341122 241.872033  L 169.785793 242.125643  L 169.235954 242.390943  L 168.69185 242.667816  L 168.153724 242.956137  L 167.621818 243.255776  " clip-path="url(#p7ce2c5dd02)" style="fill: none; stroke: #000000; stroke-linecap: square"/>
   </g>
   <g id="line2d_4">
    <path d="M 102.690909 130.792143  L 102.954863 130.638817  L 103.218001 130.484097  L 103.480318 130.327988  L 103.741806 130.170494  L 104.002457 130.011619  L 104.262264 129.851367  L 104.52122 129.689744  L 104.779317 129.526754  L 105.036549 129.3624  L 105.292908 129.196689  L 105.548387 129.029624  L 105.802979 128.86121  L 106.056677 128.691452  L 106.309473 128.520354  L 106.561361 128.347922  L 106.812333 128.174161  L 107.062383 127.999074  L 107.311503 127.822667  L 107.559687 127.644945  L 107.806927 127.465913  L 108.053217 127.285576  L 108.29855 127.103939  L 108.542918 126.921007  L 108.786316 126.736785  L 109.028736 126.551278  L 109.270172 126.364492  L 109.510616 126.176432  L 109.750062 125.987102  L 109.988504 125.796509  L 110.225934 125.604657  L 110.462347 125.411552  L 110.697734 125.2172  L 110.932091 125.021605  L 111.165409 124.824774  L 111.397684 124.626711  L 111.628908 124.427423  L 111.859074 124.226914  L 112.088177 124.025191  L 112.316209 123.822259  L 112.543166 123.618124  L 112.769039 123.412792  L 112.993823 123.206268  L 113.217512 122.998557  L 113.440099 122.789667  L 113.661578 122.579602  L 113.881944 122.368369  L 114.101188 122.155974  L 114.319307 121.942421  L 114.536293 121.727719  L 114.75214 121.511871  L 114.966843 121.294885  L 115.180395 121.076767  L 115.392791 120.857522  L 115.604024 120.637157  L 115.814089 120.415677  L 116.022979 120.19309  L 116.230689 119.969401  L 116.437214 119.744617  L 116.642546 119.518744  L 116.846681 119.291787  L 117.049613 119.063755  L 117.251336 118.834652  L 117.451845 118.604486  L 117.651133 118.373262  L 117.849196 118.140988  L 118.046027 117.907669  L 118.241622 117.673312  L 118.435974 117.437925  L 118.629079 117.201512  L 118.820931 116.964082  L 119.011524 116.725641  L 119.200854 116.486194  L 119.388914 116.24575  L 119.5757 116.004314  L 119.761207 115.761894  L 119.945429 115.518497  L 120.128361 115.274128  L 120.309998 115.028795  L 120.490335 114.782505  L 120.669367 114.535265  L 120.847089 114.287081  L 121.023496 114.037961  L 121.198583 113.787911  L 121.372344 113.536939  L 121.544776 113.285051  L 121.715874 113.032255  L 121.885632 112.778557  L 122.054046 112.523965  L 122.221111 112.268486  L 122.386822 112.012127  L 122.551175 111.754896  L 122.714166 111.496798  L 122.875789 111.237842  L 123.036041 110.978035  L 123.194916 110.717384  L 123.35241 110.455897  L 123.508519 110.19358  L 123.663239 109.930441  L 123.816564 109.666487  " clip-path="url(#p7ce2c5dd02)" style="fill: none; stroke: #000000; stroke-linecap: square"/>
   </g>
   <g id="text_1">
    <!-- $120^\circ$ -->
    <g transform="translate(191.995626 223.74261) scale(0.22 -0.22)">
     <defs>
      <path id="CMR17-31" d="M 1702 4058  C 1702 4192 1696 4192 1606 4192  C 1357 3916 979 3827 621 3827  C 602 3827 570 3827 563 3808  C 557 3795 557 3782 557 3648  C 755 3648 1088 3686 1344 3839  L 1344 461  C 1344 236 1331 160 781 160  L 589 160  L 589 0  C 896 0 1216 0 1523 0  C 1830 0 2150 0 2458 0  L 2458 160  L 2266 160  C 1715 160 1702 230 1702 458  L 1702 4058  z " transform="scale(0.015625)"/>
      <path id="CMR17-32" d="M 2669 989  L 2554 989  C 2490 536 2438 459 2413 420  C 2381 369 1920 369 1830 369  L 602 369  C 832 619 1280 1072 1824 1597  C 2214 1967 2669 2402 2669 3035  C 2669 3790 2067 4224 1395 4224  C 691 4224 262 3604 262 3030  C 262 2780 448 2748 525 2748  C 589 2748 781 2787 781 3010  C 781 3207 614 3264 525 3264  C 486 3264 448 3258 422 3245  C 544 3790 915 4058 1306 4058  C 1862 4058 2227 3617 2227 3035  C 2227 2479 1901 2000 1536 1584  L 262 146  L 262 0  L 2515 0  L 2669 989  z " transform="scale(0.015625)"/>
      <path id="CMR17-30" d="M 2688 2025  C 2688 2416 2682 3080 2413 3591  C 2176 4039 1798 4198 1466 4198  C 1158 4198 768 4058 525 3597  C 269 3118 243 2524 243 2025  C 243 1661 250 1106 448 619  C 723 -39 1216 -128 1466 -128  C 1760 -128 2208 -7 2470 600  C 2662 1042 2688 1559 2688 2025  z M 1466 -26  C 1056 -26 813 325 723 812  C 653 1188 653 1738 653 2096  C 653 2588 653 2997 736 3387  C 858 3929 1216 4096 1466 4096  C 1728 4096 2067 3923 2189 3400  C 2272 3036 2278 2607 2278 2096  C 2278 1680 2278 1169 2202 792  C 2067 95 1690 -26 1466 -26  z " transform="scale(0.015625)"/>
      <path id="CMSY10-e" d="M 2842 1600  C 2842 2277 2272 2828 1600 2828  C 909 2828 352 2264 352 1600  C 352 930 909 372 1600 372  C 2272 372 2842 923 2842 1600  z M 1600 628  C 1043 628 608 1070 608 1600  C 608 2130 1050 2572 1600 2572  C 2131 2572 2586 2142 2586 1600  C 2586 1058 2131 628 1600 628  z " transform="scale(0.015625)"/>
     </defs>
     <use xlink:href="#CMR17-31" transform="scale(0.996264)"/>
     <use xlink:href="#CMR17-32" transform="translate(45.690477 0) scale(0.996264)"/>
     <use xlink:href="#CMR17-30" transform="translate(91.380954 0) scale(0.996264)"/>
     <use xlink:href="#CMSY10-e" transform="translate(137.071431 36.153639) scale(0.697382)"/>
    </g>
   </g>
   <g id="text_2">
    <!-- $A$ -->
    <g transform="translate(167.621818 288.976425) scale(0.22 -0.22)">
     <defs>
      <path id="CMMI12-41" d="M 1088 691  C 864 314 646 186 339 186  C 269 180 218 180 218 58  C 218 24 250 0 294 0  C 410 0 698 0 813 0  C 998 0 1203 0 1382 0  C 1421 0 1498 0 1498 122  C 1498 180 1446 186 1408 186  C 1261 186 1139 236 1139 388  C 1139 476 1178 546 1261 685  L 1747 1479  L 3379 1479  C 3386 1423 3386 1373 3392 1316  C 3411 1152 3488 495 3488 376  C 3488 186 3162 186 3059 186  C 2989 186 2918 186 2918 70  C 2918 0 2976 0 3014 0  C 3123 0 3251 0 3360 0  L 3725 0  C 4115 0 4397 0 4403 0  C 4448 0 4518 0 4518 122  C 4518 186 4461 186 4365 186  C 4013 186 4006 244 3987 434  L 3597 4404  C 3584 4531 3558 4544 3488 4544  C 3424 4544 3386 4531 3328 4435  L 1088 691  z M 1856 1664  L 3142 3819  L 3360 1664  L 1856 1664  z " transform="scale(0.015625)"/>
     </defs>
     <use xlink:href="#CMMI12-41" transform="scale(0.996264)"/>
    </g>
   </g>
   <g id="text_3">
    <!-- $B$ -->
    <g transform="translate(436.033614 278.413598) scale(0.22 -0.22)">
     <defs>
      <path id="CMMI12-42" d="M 2342 3921  C 2400 4160 2426 4160 2675 4160  L 3507 4160  C 4230 4160 4230 3544 4230 3485  C 4230 2966 3712 2304 2867 2304  L 1946 2304  L 2342 3921  z M 3424 2275  C 4122 2402 4755 2886 4755 3473  C 4755 3970 4314 4352 3590 4352  L 1536 4352  C 1414 4352 1357 4352 1357 4226  C 1357 4160 1414 4160 1510 4160  C 1901 4160 1901 4112 1901 4044  C 1901 4032 1901 3993 1875 3897  L 1011 472  C 954 249 941 185 493 185  C 371 185 307 185 307 70  C 307 0 346 0 474 0  L 2669 0  C 3648 0 4403 739 4403 1383  C 4403 1906 3942 2224 3424 2275  z M 2515 185  L 1651 185  C 1562 185 1549 185 1510 192  C 1440 198 1434 211 1434 261  C 1434 305 1446 343 1459 399  L 1907 2176  L 3110 2176  C 3866 2176 3866 1483 3866 1433  C 3866 828 3309 185 2515 185  z " transform="scale(0.015625)"/>
     </defs>
     <use xlink:href="#CMMI12-42" transform="scale(0.996264)"/>
    </g>
   </g>
   <g id="text_4">
    <!-- $30^\circ$ -->
    <g transform="translate(138.787234 165.129077) scale(0.22 -0.22)">
     <defs>
      <path id="CMR17-33" d="M 1414 2157  C 1984 2157 2234 1662 2234 1090  C 2234 320 1824 25 1453 25  C 1114 25 563 194 390 693  C 422 680 454 680 486 680  C 640 680 755 782 755 948  C 755 1133 614 1216 486 1216  C 378 1216 211 1165 211 926  C 211 335 787 -128 1466 -128  C 2176 -128 2720 430 2720 1085  C 2720 1707 2208 2157 1600 2227  C 2086 2328 2554 2756 2554 3329  C 2554 3820 2048 4179 1472 4179  C 890 4179 378 3829 378 3329  C 378 3110 544 3072 627 3072  C 762 3072 877 3155 877 3321  C 877 3486 762 3569 627 3569  C 602 3569 570 3569 544 3557  C 730 3959 1235 4032 1459 4032  C 1683 4032 2106 3925 2106 3320  C 2106 3143 2080 2828 1862 2550  C 1670 2304 1453 2304 1242 2284  C 1210 2284 1062 2269 1037 2269  C 992 2263 966 2257 966 2208  C 966 2163 973 2157 1101 2157  L 1414 2157  z " transform="scale(0.015625)"/>
     </defs>
     <use xlink:href="#CMR17-33" transform="scale(0.996264)"/>
     <use xlink:href="#CMR17-30" transform="translate(45.690477 0) scale(0.996264)"/>
     <use xlink:href="#CMSY10-e" transform="translate(91.380954 36.153639) scale(0.697382)"/>
    </g>
   </g>
   <g id="text_5">
    <!-- $C$ -->
    <g transform="translate(34.411718 56.607989) scale(0.22 -0.22)">
     <defs>
      <path id="CMMI12-43" d="M 4781 4423  C 4781 4480 4736 4480 4723 4480  C 4710 4480 4685 4480 4634 4416  L 4192 3882  C 3968 4264 3616 4480 3136 4480  C 1754 4480 320 3088 320 1595  C 320 533 1069 -128 2003 -128  C 2515 -128 2963 88 3334 400  C 3891 863 4058 1481 4058 1531  C 4058 1588 4006 1588 3987 1588  C 3930 1588 3923 1550 3910 1524  C 3616 534 2752 57 2112 57  C 1434 57 845 489 845 1391  C 845 1595 909 2700 1632 3532  C 1984 3939 2586 4295 3194 4295  C 3898 4295 4211 3717 4211 3068  C 4211 2903 4192 2764 4192 2738  C 4192 2681 4256 2681 4275 2681  C 4346 2681 4352 2687 4378 2801  L 4781 4423  z " transform="scale(0.015625)"/>
     </defs>
     <use xlink:href="#CMMI12-43" transform="scale(0.996264)"/>
    </g>
   </g>
   <g id="text_6">
    <!-- $3$ -->
    <g transform="translate(290.269091 302.584629) scale(0.22 -0.22)">
     <use xlink:href="#CMR17-33" transform="scale(0.996264)"/>
    </g>
   </g>
   <g id="text_7">
    <!-- $3 \sqrt{3}$ -->
    <g transform="translate(250.589091 145.272894) scale(0.22 -0.22)">
     <defs>
      <path id="CMSY10-70" d="M 2490 -5472  L 1363 -2982  C 1318 -2880 1286 -2880 1267 -2880  C 1261 -2880 1229 -2880 1158 -2931  L 550 -3392  C 467 -3456 467 -3475 467 -3494  C 467 -3526 486 -3565 531 -3565  C 570 -3565 678 -3475 749 -3424  C 787 -3393 883 -3323 954 -3271  L 2214 -6042  C 2259 -6144 2291 -6144 2349 -6144  C 2445 -6144 2464 -6106 2509 -6016  L 5414 0  C 5459 90 5459 115 5459 128  C 5459 192 5408 256 5331 256  C 5280 256 5235 224 5184 122  L 2490 -5472  z " transform="scale(0.015625)"/>
     </defs>
     <use xlink:href="#CMR17-33" transform="scale(0.996264)"/>
     <use xlink:href="#CMSY10-70" transform="translate(45.690477 82.421465) scale(0.996264)"/>
     <use xlink:href="#CMR17-33" transform="translate(128.712731 0) scale(0.996264)"/>
     <path d="M 128.712731 82.421465  L 174.403208 82.421465  L 174.403208 86.406414  L 128.712731 86.406414  L 128.712731 82.421465  z "/>
    </g>
   </g>
  </g>
 </g>
 <defs>
  <clipPath id="p7ce2c5dd02">
   <rect x="57.6" y="41.472" width="357.12" height="266.112"/>
  </clipPath>
 </defs>
</g>
    <g transform="translate(576.0, 0) scale(1 1) translate(0, 0) scale(1.25 1.25) "><metadata>
  <rdf:RDF xmlns:dc="http://purl.org/dc/elements/1.1/" xmlns:cc="http://creativecommons.org/ns#" xmlns:rdf="http://www.w3.org/1999/02/22-rdf-syntax-ns#">
   <cc:Work>
    <dc:type rdf:resource="http://purl.org/dc/dcmitype/StillImage"/>
    <dc:date>2025-03-11T23:47:35.894630</dc:date>
    <dc:format>image/svg+xml</dc:format>
    <dc:creator>
     <cc:Agent>
      <dc:title>Matplotlib v3.9.1, https://matplotlib.org/</dc:title>
     </cc:Agent>
    </dc:creator>
   </cc:Work>
  </rdf:RDF>
 </metadata>
 <defs>
  <style type="text/css">*{stroke-linejoin: round; stroke-linecap: butt}</style>
 </defs>
 <g id="figure_1">
  <g id="patch_1">
   <path d="M 0 345.6  L 460.8 345.6  L 460.8 0  L 0 0  z " style="fill: #ffffff"/>
  </g>
  <g id="axes_1">
   <g id="patch_2">
    <path d="M 73.832727 268.247695  L 290.269091 268.247695  L 398.487273 80.808305  z " clip-path="url(#p236bd41e6a)" style="fill: #00648c; opacity: 0.1; stroke: #00648c; stroke-linejoin: miter"/>
   </g>
   <g id="line2d_1">
    <path d="M 73.832727 268.247695  L 290.269091 268.247695  L 398.487273 80.808305  L 73.832727 268.247695  " clip-path="url(#p236bd41e6a)" style="fill: none; stroke: #000000; stroke-width: 1.5; stroke-linecap: square"/>
   </g>
   <g id="line2d_2">
    <defs>
     <path id="m4969bafdc8" d="M 0 4  C 1.060812 4 2.078319 3.578535 2.828427 2.828427  C 3.578535 2.078319 4 1.060812 4 0  C 4 -1.060812 3.578535 -2.078319 2.828427 -2.828427  C 2.078319 -3.578535 1.060812 -4 0 -4  C -1.060812 -4 -2.078319 -3.578535 -2.828427 -2.828427  C -3.578535 -2.078319 -4 -1.060812 -4 0  C -4 1.060812 -3.578535 2.078319 -2.828427 2.828427  C -2.078319 3.578535 -1.060812 4 0 4  z " style="stroke: #000000; stroke-opacity: 0.7"/>
    </defs>
    <g clip-path="url(#p236bd41e6a)">
     <use xlink:href="#m4969bafdc8" x="290.269091" y="268.247695" style="fill-opacity: 0.7; stroke: #000000; stroke-opacity: 0.7"/>
     <use xlink:href="#m4969bafdc8" x="398.487273" y="80.808305" style="fill-opacity: 0.7; stroke: #000000; stroke-opacity: 0.7"/>
     <use xlink:href="#m4969bafdc8" x="73.832727" y="268.247695" style="fill-opacity: 0.7; stroke: #000000; stroke-opacity: 0.7"/>
    </g>
   </g>
   <g id="line2d_3">
    <path d="M 124.334545 268.247695  L 124.333839 267.980598  L 124.33172 267.713509  L 124.328189 267.446435  L 124.323245 267.179383  L 124.316888 266.912361  L 124.30912 266.645376  L 124.29994 266.378437  L 124.289347 266.111549  L 124.277344 265.844721  L 124.26393 265.577961  L 124.249104 265.311275  L 124.232869 265.044671  L 124.215224 264.778157  L 124.196169 264.51174  L 124.175706 264.245428  L 124.153834 263.979227  L 124.130555 263.713146  L 124.105869 263.447192  L 124.079777 263.181372  L 124.052279 262.915693  L 124.023377 262.650164  L 123.99307 262.384791  L 123.961361 262.119583  L 123.928249 261.854546  L 123.893736 261.589687  L 123.857822 261.325015  L 123.82051 261.060537  L 123.781799 260.796259  L 123.741691 260.53219  L 123.700186 260.268337  L 123.657287 260.004707  L 123.612995 259.741307  L 123.567309 259.478146  L 123.520233 259.21523  L 123.471767 258.952566  L 123.421912 258.690163  L 123.37067 258.428026  L 123.318042 258.166165  L 123.26403 257.904585  L 123.208636 257.643295  L 123.15186 257.382302  L 123.093705 257.121612  L 123.034172 256.861234  L 122.973262 256.601174  L 122.910978 256.34144  L 122.847322 256.082039  L 122.782294 255.822978  L 122.715897 255.564265  L 122.648132 255.305906  L 122.579002 255.04791  L 122.508509 254.790283  L 122.436654 254.533032  L 122.363439 254.276165  L 122.288867 254.019688  L 122.212939 253.76361  L 122.135659 253.507937  L 122.057027 253.252676  L 121.977046 252.997834  L 121.895718 252.743419  L 121.813046 252.489438  L 121.729032 252.235898  L 121.643678 251.982805  L 121.556987 251.730168  L 121.468961 251.477992  L 121.379602 251.226286  L 121.288913 250.975056  L 121.196897 250.724308  L 121.103556 250.474051  L 121.008893 250.224292  L 120.91291 249.975036  L 120.81561 249.726291  L 120.716996 249.478065  L 120.61707 249.230363  L 120.515836 248.983194  L 120.413296 248.736563  L 120.309453 248.490478  L 120.20431 248.244946  L 120.09787 247.999974  L 119.990136 247.755567  L 119.88111 247.511734  L 119.770797 247.268481  L 119.659198 247.025815  L 119.546318 246.783742  L 119.432159 246.54227  L 119.316725 246.301405  L 119.200018 246.061154  L 119.082042 245.821523  L 118.9628 245.58252  L 118.842296 245.344151  L 118.720533 245.106422  L 118.597515 244.869341  L 118.473244 244.632913  L 118.347725 244.397147  L 118.22096 244.162047  L 118.092954 243.927621  L 117.96371 243.693875  L 117.833231 243.460817  L 117.701521 243.228451  L 117.568585 242.996786  " clip-path="url(#p236bd41e6a)" style="fill: none; stroke: #000000; stroke-linecap: square"/>
   </g>
   <g id="line2d_4">
    <path d="M 354.751415 106.059214  L 354.885575 106.290174  L 355.020955 106.52042  L 355.15755 106.749948  L 355.295358 106.978749  L 355.434374 107.206819  L 355.574594 107.43415  L 355.716014 107.660737  L 355.858631 107.886572  L 356.00244 108.11165  L 356.147437 108.335964  L 356.293619 108.559508  L 356.440981 108.782276  L 356.58952 109.004261  L 356.73923 109.225458  L 356.890108 109.44586  L 357.042149 109.66546  L 357.19535 109.884254  L 357.349706 110.102234  L 357.505213 110.319395  L 357.661866 110.53573  L 357.819661 110.751234  L 357.978593 110.9659  L 358.138659 111.179723  L 358.299853 111.392696  L 358.462171 111.604813  L 358.625609 111.816069  L 358.790162 112.026458  L 358.955826 112.235974  L 359.122595 112.44461  L 359.290465 112.652362  L 359.459432 112.859222  L 359.62949 113.065186  L 359.800636 113.270248  L 359.972863 113.474402  L 360.146168 113.677642  L 360.320545 113.879963  L 360.49599 114.081359  L 360.672498 114.281824  L 360.850063 114.481352  L 361.028681 114.679939  L 361.208347 114.877578  L 361.389056 115.074264  L 361.570802 115.269992  L 361.753581 115.464756  L 361.937388 115.65855  L 362.122217 115.85137  L 362.308063 116.043209  L 362.494921 116.234063  L 362.682786 116.423925  L 362.871653 116.612792  L 363.061515 116.800657  L 363.252369 116.987515  L 363.444208 117.173361  L 363.637028 117.35819  L 363.830822 117.541997  L 364.025586 117.724776  L 364.221314 117.906522  L 364.418 118.087231  L 364.615639 118.266897  L 364.814226 118.445515  L 365.013754 118.62308  L 365.214219 118.799588  L 365.415615 118.975033  L 365.617936 119.14941  L 365.821176 119.322715  L 366.02533 119.494943  L 366.230392 119.666088  L 366.436356 119.836146  L 366.643217 120.005113  L 366.850968 120.172983  L 367.059604 120.339752  L 367.26912 120.505416  L 367.479509 120.669969  L 367.690765 120.833407  L 367.902882 120.995725  L 368.115855 121.156919  L 368.329678 121.316985  L 368.544344 121.475918  L 368.759848 121.633712  L 368.976183 121.790365  L 369.193344 121.945872  L 369.411324 122.100228  L 369.630118 122.253429  L 369.849719 122.40547  L 370.07012 122.556348  L 370.291317 122.706059  L 370.513302 122.854597  L 370.73607 123.001959  L 370.959614 123.148141  L 371.183928 123.293138  L 371.409006 123.436948  L 371.634842 123.579564  L 371.861428 123.720985  L 372.088759 123.861205  L 372.316829 124.00022  L 372.54563 124.138028  L 372.775158 124.274623  L 373.005404 124.410003  L 373.236364 124.544163  " clip-path="url(#p236bd41e6a)" style="fill: none; stroke: #000000; stroke-linecap: square"/>
   </g>
   <g id="text_1">
    <!-- $30^\circ$ -->
    <g transform="translate(154.182891 248.475538) scale(0.22 -0.22)">
     <defs>
      <path id="CMR17-33" d="M 1414 2157  C 1984 2157 2234 1662 2234 1090  C 2234 320 1824 25 1453 25  C 1114 25 563 194 390 693  C 422 680 454 680 486 680  C 640 680 755 782 755 948  C 755 1133 614 1216 486 1216  C 378 1216 211 1165 211 926  C 211 335 787 -128 1466 -128  C 2176 -128 2720 430 2720 1085  C 2720 1707 2208 2157 1600 2227  C 2086 2328 2554 2756 2554 3329  C 2554 3820 2048 4179 1472 4179  C 890 4179 378 3829 378 3329  C 378 3110 544 3072 627 3072  C 762 3072 877 3155 877 3321  C 877 3486 762 3569 627 3569  C 602 3569 570 3569 544 3557  C 730 3959 1235 4032 1459 4032  C 1683 4032 2106 3925 2106 3320  C 2106 3143 2080 2828 1862 2550  C 1670 2304 1453 2304 1242 2284  C 1210 2284 1062 2269 1037 2269  C 992 2263 966 2257 966 2208  C 966 2163 973 2157 1101 2157  L 1414 2157  z " transform="scale(0.015625)"/>
      <path id="CMR17-30" d="M 2688 2025  C 2688 2416 2682 3080 2413 3591  C 2176 4039 1798 4198 1466 4198  C 1158 4198 768 4058 525 3597  C 269 3118 243 2524 243 2025  C 243 1661 250 1106 448 619  C 723 -39 1216 -128 1466 -128  C 1760 -128 2208 -7 2470 600  C 2662 1042 2688 1559 2688 2025  z M 1466 -26  C 1056 -26 813 325 723 812  C 653 1188 653 1738 653 2096  C 653 2588 653 2997 736 3387  C 858 3929 1216 4096 1466 4096  C 1728 4096 2067 3923 2189 3400  C 2272 3036 2278 2607 2278 2096  C 2278 1680 2278 1169 2202 792  C 2067 95 1690 -26 1466 -26  z " transform="scale(0.015625)"/>
      <path id="CMSY10-e" d="M 2842 1600  C 2842 2277 2272 2828 1600 2828  C 909 2828 352 2264 352 1600  C 352 930 909 372 1600 372  C 2272 372 2842 923 2842 1600  z M 1600 628  C 1043 628 608 1070 608 1600  C 608 2130 1050 2572 1600 2572  C 2131 2572 2586 2142 2586 1600  C 2586 1058 2131 628 1600 628  z " transform="scale(0.015625)"/>
     </defs>
     <use xlink:href="#CMR17-33" transform="scale(0.996264)"/>
     <use xlink:href="#CMR17-30" transform="translate(45.690477 0) scale(0.996264)"/>
     <use xlink:href="#CMSY10-e" transform="translate(91.380954 36.153639) scale(0.697382)"/>
    </g>
   </g>
   <g id="text_2">
    <!-- $D$ -->
    <g transform="translate(26.713889 276.609961) scale(0.22 -0.22)">
     <defs>
      <path id="CMMI12-44" d="M 1005 472  C 947 249 934 185 486 185  C 365 185 301 185 301 70  C 301 0 339 0 467 0  L 2496 0  C 3789 0 5050 1332 5050 2753  C 5050 3671 4499 4352 3584 4352  L 1530 4352  C 1408 4352 1350 4352 1350 4231  C 1350 4167 1408 4167 1504 4167  C 1894 4167 1894 4116 1894 4046  C 1894 4034 1894 3995 1869 3899  L 1005 472  z M 2355 3931  C 2413 4167 2438 4167 2688 4167  L 3392 4167  C 3994 4167 4544 3842 4544 2963  C 4544 2644 4416 1536 3795 835  C 3616 625 3130 185 2394 185  L 1664 185  C 1574 185 1562 185 1523 192  C 1453 198 1446 211 1446 262  C 1446 307 1459 345 1472 402  L 2355 3931  z " transform="scale(0.015625)"/>
     </defs>
     <use xlink:href="#CMMI12-44" transform="scale(0.996264)"/>
    </g>
   </g>
   <g id="text_3">
    <!-- $E$ -->
    <g transform="translate(287.00809 285.852435) scale(0.22 -0.22)">
     <defs>
      <path id="CMMI12-45" d="M 4448 1489  C 4454 1508 4474 1554 4474 1579  C 4474 1611 4448 1643 4410 1643  C 4384 1643 4371 1637 4352 1617  C 4339 1611 4339 1598 4282 1469  C 3904 570 3629 185 2605 185  L 1670 185  C 1581 185 1568 185 1530 192  C 1459 198 1453 211 1453 262  C 1453 307 1466 345 1478 403  L 1920 2176  L 2554 2176  C 3053 2176 3091 2066 3091 1874  C 3091 1810 3091 1752 3046 1560  C 3034 1534 3027 1508 3027 1489  C 3027 1444 3059 1425 3098 1425  C 3155 1425 3162 1469 3187 1559  L 3552 3042  C 3552 3073 3526 3105 3488 3105  C 3430 3105 3424 3080 3398 2990  C 3270 2501 3142 2361 2573 2361  L 1965 2361  L 2362 3930  C 2419 4154 2432 4154 2694 4154  L 3610 4154  C 4397 4154 4557 3943 4557 3458  C 4557 3451 4557 3273 4531 3062  C 4525 3036 4518 2998 4518 2985  C 4518 2934 4550 2915 4589 2915  C 4634 2915 4659 2941 4672 3055  L 4806 4174  C 4806 4195 4819 4263 4819 4277  C 4819 4352 4762 4352 4646 4352  L 1523 4352  C 1402 4352 1338 4352 1338 4229  C 1338 4154 1382 4154 1491 4154  C 1888 4154 1888 4114 1888 4052  C 1888 4020 1882 3994 1862 3924  L 998 473  C 941 249 928 185 480 185  C 358 185 294 185 294 70  C 294 0 333 0 461 0  L 3674 0  C 3814 0 3821 6 3866 110  L 4448 1489  z " transform="scale(0.015625)"/>
     </defs>
     <use xlink:href="#CMMI12-45" transform="scale(0.996264)"/>
    </g>
   </g>
   <g id="text_4">
    <!-- $30^\circ$ -->
    <g transform="translate(315.612994 155.273825) scale(0.22 -0.22)">
     <use xlink:href="#CMR17-33" transform="scale(0.996264)"/>
     <use xlink:href="#CMR17-30" transform="translate(45.690477 0) scale(0.996264)"/>
     <use xlink:href="#CMSY10-e" transform="translate(91.380954 36.153639) scale(0.697382)"/>
    </g>
   </g>
   <g id="text_5">
    <!-- $F$ -->
    <g transform="translate(419.088051 61.535616) scale(0.22 -0.22)">
     <defs>
      <path id="CMMI12-46" d="M 1901 2055  L 2515 2055  C 3002 2055 3040 1946 3040 1761  C 3040 1678 3027 1589 2995 1448  C 2982 1423 2976 1391 2976 1378  C 2976 1333 3002 1308 3046 1308  C 3098 1308 3104 1333 3130 1435  L 3501 2935  C 3501 2961 3482 2999 3437 2999  C 3379 2999 3373 2974 3347 2863  C 3213 2376 3085 2240 2528 2240  L 1946 2240  L 2362 3926  C 2419 4154 2432 4154 2694 4154  L 3552 4154  C 4352 4154 4467 3918 4467 3464  C 4467 3426 4467 3285 4448 3119  C 4442 3094 4429 3011 4429 2985  C 4429 2934 4461 2915 4499 2915  C 4544 2915 4570 2941 4582 3055  L 4717 4174  C 4717 4195 4730 4263 4730 4277  C 4730 4352 4672 4352 4557 4352  L 1523 4352  C 1402 4352 1338 4352 1338 4229  C 1338 4154 1382 4154 1491 4154  C 1888 4154 1888 4113 1888 4050  C 1888 4018 1882 3992 1862 3922  L 998 473  C 941 249 928 185 480 185  C 358 185 294 185 294 70  C 294 0 352 0 390 0  C 512 0 640 0 762 0  L 1594 0  C 1734 0 1888 0 2029 0  C 2086 0 2163 0 2163 115  C 2163 185 2125 185 1984 185  C 1478 185 1466 229 1466 324  C 1466 356 1478 406 1491 449  L 1901 2055  z " transform="scale(0.015625)"/>
     </defs>
     <use xlink:href="#CMMI12-46" transform="scale(0.996264)"/>
    </g>
   </g>
   <g id="text_6">
    <!-- $6 \sqrt{3}$ -->
    <g transform="translate(185.16584 170.314676) scale(0.22 -0.22)">
     <defs>
      <path id="CMR17-36" d="M 678 2176  C 678 3690 1395 4032 1811 4032  C 1946 4032 2272 4009 2400 3776  C 2298 3776 2106 3776 2106 3553  C 2106 3381 2246 3323 2336 3323  C 2394 3323 2566 3348 2566 3560  C 2566 3954 2246 4179 1805 4179  C 1043 4179 243 3390 243 1984  C 243 253 966 -128 1478 -128  C 2099 -128 2688 427 2688 1283  C 2688 2081 2170 2662 1517 2662  C 1126 2662 838 2407 678 1960  L 678 2176  z M 1478 25  C 691 25 691 1200 691 1436  C 691 1896 909 2560 1504 2560  C 1613 2560 1926 2560 2138 2120  C 2253 1870 2253 1609 2253 1289  C 2253 944 2253 690 2118 434  C 1978 171 1773 25 1478 25  z " transform="scale(0.015625)"/>
      <path id="CMSY10-70" d="M 2490 -5472  L 1363 -2982  C 1318 -2880 1286 -2880 1267 -2880  C 1261 -2880 1229 -2880 1158 -2931  L 550 -3392  C 467 -3456 467 -3475 467 -3494  C 467 -3526 486 -3565 531 -3565  C 570 -3565 678 -3475 749 -3424  C 787 -3393 883 -3323 954 -3271  L 2214 -6042  C 2259 -6144 2291 -6144 2349 -6144  C 2445 -6144 2464 -6106 2509 -6016  L 5414 0  C 5459 90 5459 115 5459 128  C 5459 192 5408 256 5331 256  C 5280 256 5235 224 5184 122  L 2490 -5472  z " transform="scale(0.015625)"/>
     </defs>
     <use xlink:href="#CMR17-36" transform="scale(0.996264)"/>
     <use xlink:href="#CMSY10-70" transform="translate(45.690477 82.421465) scale(0.996264)"/>
     <use xlink:href="#CMR17-33" transform="translate(128.712731 0) scale(0.996264)"/>
     <path d="M 128.712731 82.421465  L 174.403208 82.421465  L 174.403208 86.406414  L 128.712731 86.406414  L 128.712731 82.421465  z "/>
    </g>
   </g>
  </g>
 </g>
 <defs>
  <clipPath id="p236bd41e6a">
   <rect x="57.6" y="41.472" width="357.12" height="266.112"/>
  </clipPath>
 </defs>
</g>
  </g>
</svg>
