<?xml version='1.0' encoding='ASCII' standalone='yes'?>
<svg xmlns="http://www.w3.org/2000/svg" xmlns:xlink="http://www.w3.org/1999/xlink" version="1.1" width="1152.0px" viewBox="0 0 1152.0 864.0000000000001" height="864.0000000000001px">
  <g>
    <g transform="translate(0, 0) scale(1 1) translate(0, 0) scale(1.25 1.25) "><metadata>
  <rdf:RDF xmlns:dc="http://purl.org/dc/elements/1.1/" xmlns:cc="http://creativecommons.org/ns#" xmlns:rdf="http://www.w3.org/1999/02/22-rdf-syntax-ns#">
   <cc:Work>
    <dc:type rdf:resource="http://purl.org/dc/dcmitype/StillImage"/>
    <dc:date>2025-02-19T16:02:39.413509</dc:date>
    <dc:format>image/svg+xml</dc:format>
    <dc:creator>
     <cc:Agent>
      <dc:title>Matplotlib v3.9.1, https://matplotlib.org/</dc:title>
     </cc:Agent>
    </dc:creator>
   </cc:Work>
  </rdf:RDF>
 </metadata>
 <defs>
  <style type="text/css">*{stroke-linejoin: round; stroke-linecap: butt}</style>
 </defs>
 <g id="figure_1">
  <g id="patch_1">
   <path d="M 0 345.6  L 460.8 345.6  L 460.8 0  L 0 0  z " style="fill: #ffffff"/>
  </g>
  <g id="axes_1">
   <g id="patch_2">
    <path d="M 10.8 334.8  L 447 334.8  L 447 18.064532  L 10.8 18.064532  z " style="fill: #ffffff"/>
   </g>
   <g id="matplotlib.axis_1">
    <g id="text_1">
     <!-- $x$ -->
     <g transform="translate(438.13055 191.501854) scale(0.16 -0.16)">
      <defs>
       <path id="CMMI12-78" d="M 3034 2606  C 2829 2567 2752 2414 2752 2293  C 2752 2139 2874 2088 2963 2088  C 3155 2088 3290 2254 3290 2427  C 3290 2695 2982 2816 2714 2816  C 2323 2816 2106 2433 2048 2312  C 1901 2816 1504 2816 1389 2816  C 736 2816 390 1980 390 1839  C 390 1814 416 1782 461 1782  C 512 1782 525 1820 538 1846  C 755 2555 1184 2689 1370 2689  C 1658 2689 1715 2420 1715 2267  C 1715 2127 1677 1980 1600 1673  L 1382 798  C 1286 415 1101 64 762 64  C 730 64 570 64 435 147  C 666 192 717 383 717 460  C 717 588 621 664 499 664  C 346 664 179 530 179 326  C 179 57 480 -64 755 -64  C 1062 -64 1280 179 1414 441  C 1517 64 1837 -64 2074 -64  C 2726 -64 3072 773 3072 913  C 3072 945 3046 971 3008 971  C 2950 971 2944 939 2925 888  C 2752 326 2381 64 2093 64  C 1869 64 1747 230 1747 492  C 1747 632 1773 734 1875 1156  L 2099 2024  C 2195 2408 2413 2689 2707 2689  C 2720 2689 2899 2689 3034 2606  z " transform="scale(0.015625)"/>
      </defs>
      <use xlink:href="#CMMI12-78" transform="scale(0.996264)"/>
     </g>
    </g>
   </g>
   <g id="matplotlib.axis_2">
    <g id="text_2">
     <!-- $y$ -->
     <g transform="translate(217.289729 14.965056) scale(0.16 -0.16)">
      <defs>
       <path id="CMMI12-79" d="M 1683 -700  C 1510 -939 1261 -1152 947 -1152  C 870 -1152 563 -1152 467 -889  C 486 -895 518 -895 531 -895  C 723 -895 851 -729 851 -582  C 851 -435 730 -384 634 -384  C 531 -384 307 -458 307 -759  C 307 -1071 582 -1286 947 -1286  C 1587 -1286 2234 -700 2413 6  L 3040 2485  C 3046 2517 3059 2556 3059 2594  C 3059 2689 2982 2753 2886 2753  C 2829 2753 2694 2727 2643 2535  L 2170 658  C 2138 543 2138 530 2086 460  C 1958 281 1747 64 1440 64  C 1082 64 1050 415 1050 588  C 1050 952 1222 1443 1395 1903  C 1466 2088 1504 2178 1504 2305  C 1504 2574 1312 2816 998 2816  C 410 2816 173 1890 173 1839  C 173 1814 198 1782 243 1782  C 301 1782 307 1807 333 1897  C 486 2433 730 2689 979 2689  C 1037 2689 1146 2689 1146 2478  C 1146 2312 1075 2127 979 1884  C 666 1047 666 837 666 683  C 666 77 1101 -64 1421 -64  C 1606 -64 1837 -6 2061 230  L 2067 224  C 1971 -147 1907 -392 1683 -700  z " transform="scale(0.015625)"/>
      </defs>
      <use xlink:href="#CMMI12-79" transform="scale(0.996264)"/>
     </g>
    </g>
   </g>
   <g id="line2d_1">
    <defs>
     <path id="mae9e812705" d="M 3 0  L -3 -3  L -3 3  z " style="stroke: #000000; stroke-linejoin: miter"/>
    </defs>
    <g>
     <use xlink:href="#mae9e812705" x="447" y="176.432266" style="stroke: #000000; stroke-linejoin: miter"/>
    </g>
   </g>
   <g id="line2d_2">
    <defs>
     <path id="m7e56ffbe26" d="M 0 -3  L -3 3  L 3 3  z " style="stroke: #000000; stroke-linejoin: miter"/>
    </defs>
    <g>
     <use xlink:href="#m7e56ffbe26" x="228.9" y="18.064532" style="stroke: #000000; stroke-linejoin: miter"/>
    </g>
   </g>
   <g id="line2d_3">
    <path d="M 10.544164 177.181682  L 118.187067 177.179177  L 155.027419 176.970742  L 176.901378 176.642135  L 192.443402 176.19392  L 203.956012 175.642462  L 212.590469 175.02042  L 219.498035 174.32168  L 225.25434 173.538566  L 230.435015 172.61199  L 234.464428 171.692076  L 238.493842 170.53683  L 241.947625 169.299023  L 244.825777 168.039815  L 247.70393 166.514455  L 250.006452 165.052453  L 252.308974 163.320789  L 254.611496 161.252427  L 256.338387 159.427829  L 258.065279 157.316257  L 259.79217 154.856835  L 261.519062 151.97192  L 263.245953 148.561286  L 264.972845 144.493822  L 266.699736 139.595458  L 267.850997 135.755479  L 269.002258 131.353673  L 270.153519 126.277939  L 271.30478 120.387074  L 272.456041 113.501253  L 273.607302 105.388702  L 274.758563 95.746683  L 275.909824 84.173858  L 277.061085 70.129283  L 278.212346 52.870071  L 279.363607 31.354106  L 280.514868 4.083461  L 280.692785 -1  L 280.692785 -1  " clip-path="url(#pb3755b3ec6)" style="fill: none; stroke: #008080; stroke-opacity: 0.7; stroke-width: 2; stroke-linecap: square"/>
   </g>
   <g id="line2d_4">
    <path d="M 309.90887 -1  L 310.895367 18.32092  L 312.238504 39.701726  L 313.581642 56.86315  L 314.92478 70.856781  L 316.267918 82.424703  L 317.611056 92.102906  L 318.954194 100.286474  L 320.297331 107.271906  L 321.640469 113.285294  L 322.983607 118.501525  L 324.774457 124.449086  L 326.565308 129.469278  L 328.356158 133.748395  L 330.147009 137.427899  L 331.937859 140.61681  L 333.72871 143.400272  L 335.967273 146.410628  L 338.205836 148.994268  L 340.444399 151.229898  L 342.682962 153.178725  L 345.369238 155.205876  L 348.055513 156.954  L 351.189501 158.707214  L 354.32349 160.209961  L 357.905191 161.680256  L 361.934604 163.081851  L 366.41173 164.391157  L 371.336569 165.595197  L 377.156833 166.771695  L 383.424809 167.81042  L 391.035924 168.833054  L 399.542463 169.746763  L 409.839853 170.619051  L 421.928094 171.411881  L 436.70261 172.148026  L 447.447713 172.569924  L 447.447713 172.569924  " clip-path="url(#pb3755b3ec6)" style="fill: none; stroke: #008080; stroke-opacity: 0.7; stroke-width: 2; stroke-linecap: square"/>
   </g>
   <g id="LineCollection_1">
    <path d="M 294.33 346.6  L 294.33 -1  " clip-path="url(#pb3755b3ec6)" style="fill: none; stroke-dasharray: 5.55,2.4; stroke-dashoffset: 0; stroke: #ff0000; stroke-width: 1.5"/>
   </g>
   <g id="line2d_5">
    <defs>
     <path id="m2611e73acd" d="M 0 4  C 1.060812 4 2.078319 3.578535 2.828427 2.828427  C 3.578535 2.078319 4 1.060812 4 0  C 4 -1.060812 3.578535 -2.078319 2.828427 -2.828427  C 2.078319 -3.578535 1.060812 -4 0 -4  C -1.060812 -4 -2.078319 -3.578535 -2.828427 -2.828427  C -3.578535 -2.078319 -4 -1.060812 -4 0  C -4 1.060812 -3.578535 2.078319 -2.828427 2.828427  C -2.078319 3.578535 -1.060812 4 0 4  z " style="stroke: #000000; stroke-opacity: 0.7"/>
    </defs>
    <g clip-path="url(#pb3755b3ec6)">
     <use xlink:href="#m2611e73acd" x="185.28" y="176.432266" style="fill-opacity: 0.7; stroke: #000000; stroke-opacity: 0.7"/>
    </g>
   </g>
   <g id="patch_3">
    <path d="M 228.9 334.8  L 228.9 18.064532  " style="fill: none; stroke: #000000; stroke-width: 0.8; stroke-linejoin: miter; stroke-linecap: square"/>
   </g>
   <g id="patch_4">
    <path d="M 447 334.8  L 447 18.064532  " style="fill: none"/>
   </g>
   <g id="patch_5">
    <path d="M 10.8 176.432266  L 447 176.432266  " style="fill: none; stroke: #000000; stroke-width: 0.8; stroke-linejoin: miter; stroke-linecap: square"/>
   </g>
   <g id="patch_6">
    <path d="M 10.8 18.064532  L 447 18.064532  " style="fill: none"/>
   </g>
   <g id="legend_1">
    <g id="patch_7">
     <path d="M 372.899538 53.164008  L 435.8 53.164008  Q 439 53.164008 439 49.964008  L 439 29.264532  Q 439 26.064532 435.8 26.064532  L 372.899538 26.064532  Q 369.699538 26.064532 369.699538 29.264532  L 369.699538 49.964008  Q 369.699538 53.164008 372.899538 53.164008  z " style="fill: #ffffff; opacity: 0.8; stroke: #cccccc; stroke-linejoin: miter"/>
    </g>
    <g id="line2d_6">
     <path d="M 376.099538 38.064532  L 392.099538 38.064532  L 408.099538 38.064532  " style="fill: none; stroke: #008080; stroke-opacity: 0.7; stroke-width: 2; stroke-linecap: square"/>
    </g>
    <g id="text_3">
     <!-- $\mathrm{A}$ -->
     <g transform="translate(420.899538 43.664532) scale(0.16 -0.16)">
      <defs>
       <path id="CMR17-41" d="M 2323 4378  C 2291 4461 2278 4480 2214 4480  C 2150 4480 2138 4461 2106 4378  L 749 566  C 627 223 371 153 147 153  L 147 -13  C 262 0 518 0 640 0  C 800 0 1056 0 1210 -13  L 1210 153  C 909 153 864 361 864 439  C 864 497 877 530 890 569  L 1229 1536  L 2906 1536  L 3290 442  C 3322 365 3322 352 3322 327  C 3322 153 3046 153 2925 153  L 2925 0  C 3110 0 3443 0 3642 0  C 3808 0 4128 0 4282 -13  L 4282 153  C 3942 153 3827 153 3744 387  L 2323 4378  z M 2067 3893  L 2848 1702  L 1286 1702  L 2067 3893  z " transform="scale(0.015625)"/>
      </defs>
      <use xlink:href="#CMR17-41" transform="scale(0.996264)"/>
     </g>
    </g>
   </g>
  </g>
 </g>
 <defs>
  <clipPath id="pb3755b3ec6">
   <rect x="10.8" y="18.064532" width="436.2" height="316.735468"/>
  </clipPath>
 </defs>
</g>
    <g transform="translate(576.0, 0) scale(1 1) translate(0, 0) scale(1.25 1.25) "><metadata>
  <rdf:RDF xmlns:dc="http://purl.org/dc/elements/1.1/" xmlns:cc="http://creativecommons.org/ns#" xmlns:rdf="http://www.w3.org/1999/02/22-rdf-syntax-ns#">
   <cc:Work>
    <dc:type rdf:resource="http://purl.org/dc/dcmitype/StillImage"/>
    <dc:date>2025-02-19T16:05:34.007557</dc:date>
    <dc:format>image/svg+xml</dc:format>
    <dc:creator>
     <cc:Agent>
      <dc:title>Matplotlib v3.9.1, https://matplotlib.org/</dc:title>
     </cc:Agent>
    </dc:creator>
   </cc:Work>
  </rdf:RDF>
 </metadata>
 <defs>
  <style type="text/css">*{stroke-linejoin: round; stroke-linecap: butt}</style>
 </defs>
 <g id="figure_1">
  <g id="patch_1">
   <path d="M 0 345.6  L 460.8 345.6  L 460.8 0  L 0 0  z " style="fill: #ffffff"/>
  </g>
  <g id="axes_1">
   <g id="patch_2">
    <path d="M 10.8 334.8  L 447 334.8  L 447 18.064532  L 10.8 18.064532  z " style="fill: #ffffff"/>
   </g>
   <g id="matplotlib.axis_1">
    <g id="text_1">
     <!-- $x$ -->
     <g transform="translate(438.13055 191.501854) scale(0.16 -0.16)">
      <defs>
       <path id="CMMI12-78" d="M 3034 2606  C 2829 2567 2752 2414 2752 2293  C 2752 2139 2874 2088 2963 2088  C 3155 2088 3290 2254 3290 2427  C 3290 2695 2982 2816 2714 2816  C 2323 2816 2106 2433 2048 2312  C 1901 2816 1504 2816 1389 2816  C 736 2816 390 1980 390 1839  C 390 1814 416 1782 461 1782  C 512 1782 525 1820 538 1846  C 755 2555 1184 2689 1370 2689  C 1658 2689 1715 2420 1715 2267  C 1715 2127 1677 1980 1600 1673  L 1382 798  C 1286 415 1101 64 762 64  C 730 64 570 64 435 147  C 666 192 717 383 717 460  C 717 588 621 664 499 664  C 346 664 179 530 179 326  C 179 57 480 -64 755 -64  C 1062 -64 1280 179 1414 441  C 1517 64 1837 -64 2074 -64  C 2726 -64 3072 773 3072 913  C 3072 945 3046 971 3008 971  C 2950 971 2944 939 2925 888  C 2752 326 2381 64 2093 64  C 1869 64 1747 230 1747 492  C 1747 632 1773 734 1875 1156  L 2099 2024  C 2195 2408 2413 2689 2707 2689  C 2720 2689 2899 2689 3034 2606  z " transform="scale(0.015625)"/>
      </defs>
      <use xlink:href="#CMMI12-78" transform="scale(0.996264)"/>
     </g>
    </g>
   </g>
   <g id="matplotlib.axis_2">
    <g id="text_2">
     <!-- $y$ -->
     <g transform="translate(217.289729 14.965056) scale(0.16 -0.16)">
      <defs>
       <path id="CMMI12-79" d="M 1683 -700  C 1510 -939 1261 -1152 947 -1152  C 870 -1152 563 -1152 467 -889  C 486 -895 518 -895 531 -895  C 723 -895 851 -729 851 -582  C 851 -435 730 -384 634 -384  C 531 -384 307 -458 307 -759  C 307 -1071 582 -1286 947 -1286  C 1587 -1286 2234 -700 2413 6  L 3040 2485  C 3046 2517 3059 2556 3059 2594  C 3059 2689 2982 2753 2886 2753  C 2829 2753 2694 2727 2643 2535  L 2170 658  C 2138 543 2138 530 2086 460  C 1958 281 1747 64 1440 64  C 1082 64 1050 415 1050 588  C 1050 952 1222 1443 1395 1903  C 1466 2088 1504 2178 1504 2305  C 1504 2574 1312 2816 998 2816  C 410 2816 173 1890 173 1839  C 173 1814 198 1782 243 1782  C 301 1782 307 1807 333 1897  C 486 2433 730 2689 979 2689  C 1037 2689 1146 2689 1146 2478  C 1146 2312 1075 2127 979 1884  C 666 1047 666 837 666 683  C 666 77 1101 -64 1421 -64  C 1606 -64 1837 -6 2061 230  L 2067 224  C 1971 -147 1907 -392 1683 -700  z " transform="scale(0.015625)"/>
      </defs>
      <use xlink:href="#CMMI12-79" transform="scale(0.996264)"/>
     </g>
    </g>
   </g>
   <g id="line2d_1">
    <defs>
     <path id="m6de612dcbd" d="M 3 0  L -3 -3  L -3 3  z " style="stroke: #000000; stroke-linejoin: miter"/>
    </defs>
    <g>
     <use xlink:href="#m6de612dcbd" x="447" y="176.432266" style="stroke: #000000; stroke-linejoin: miter"/>
    </g>
   </g>
   <g id="line2d_2">
    <defs>
     <path id="med332e1ea9" d="M 0 -3  L -3 3  L 3 3  z " style="stroke: #000000; stroke-linejoin: miter"/>
    </defs>
    <g>
     <use xlink:href="#med332e1ea9" x="228.9" y="18.064532" style="stroke: #000000; stroke-linejoin: miter"/>
    </g>
   </g>
   <g id="line2d_3">
    <path d="M 10.640103 166.729183  L 46.904824 167.617595  L 77.125425 168.573162  L 102.740982 169.600426  L 124.902757 170.708779  L 144.474194 171.90727  L 162.89437 173.258247  L 186.783035 175.266041  L 198.58346 176.143825  L 204.915396 176.408971  L 209.52044 176.397795  L 213.262038 176.174232  L 216.428006 175.755953  L 219.018343 175.190397  L 221.320865 174.456909  L 223.335572 173.579896  L 225.062463 172.603605  L 226.789355 171.365016  L 228.228431 170.083803  L 229.667507 168.522837  L 231.106584 166.618181  L 232.54566 164.288173  L 233.696921 162.048094  L 234.848182 159.400674  L 235.999443 156.26075  L 237.150704 152.521167  L 238.301965 148.045803  L 239.453226 142.659918  L 240.604487 136.136582  L 241.755748 128.177294  L 242.907009 118.383764  L 244.05827 106.216008  L 245.209531 90.92865  L 246.072977 76.799641  L 246.936422 59.730503  L 247.799868 38.915384  L 248.663314 13.261121  L 249.069819 -1  L 249.069819 -1  " clip-path="url(#p6a243fb607)" style="fill: none; stroke: #008080; stroke-opacity: 0.7; stroke-width: 2; stroke-linecap: square"/>
   </g>
   <g id="line2d_4">
    <path d="M 284.845222 -1  L 286.015337 10.737826  L 287.582331 24.265057  L 289.149326 35.771265  L 290.71632 45.656491  L 292.283314 54.224747  L 294.074164 62.70295  L 295.865015 70.035927  L 297.655865 76.43103  L 299.446716 82.049741  L 301.461422 87.600349  L 303.476129 92.471981  L 305.490836 96.777187  L 307.729399 101.004774  L 309.967962 104.741166  L 312.206525 108.064223  L 314.668944 111.316537  L 317.131364 114.211321  L 319.817639 117.024644  L 322.727771 119.729771  L 325.637903 122.134279  L 328.771891 124.440157  L 332.129736 126.635283  L 335.711437 128.712449  L 339.516994 130.668412  L 343.770264 132.598627  L 348.24739 134.387364  L 353.172229 136.116381  L 358.54478 137.767248  L 364.5889 139.384039  L 371.080733 140.889687  L 378.467991 142.36815  L 386.526818 143.752212  L 395.704927 145.097496  L 406.002317 146.376212  L 417.642845 147.592966  L 430.850367 148.746868  L 446.072595 149.849133  L 447.191877 149.922244  L 447.191877 149.922244  " clip-path="url(#p6a243fb607)" style="fill: none; stroke: #008080; stroke-opacity: 0.7; stroke-width: 2; stroke-linecap: square"/>
   </g>
   <g id="LineCollection_1">
    <path d="M 261.615 346.6  L 261.615 -1  " clip-path="url(#p6a243fb607)" style="fill: none; stroke-dasharray: 5.55,2.4; stroke-dashoffset: 0; stroke: #ff0000; stroke-width: 1.5"/>
   </g>
   <g id="LineCollection_2">
    <path d="M 10.8 160.595493  L 447 160.595493  " clip-path="url(#p6a243fb607)" style="fill: none; stroke-dasharray: 5.55,2.4; stroke-dashoffset: 0; stroke: #0000ff; stroke-width: 1.5"/>
   </g>
   <g id="line2d_5">
    <defs>
     <path id="m89a8075e9c" d="M 0 4  C 1.060812 4 2.078319 3.578535 2.828427 2.828427  C 3.578535 2.078319 4 1.060812 4 0  C 4 -1.060812 3.578535 -2.078319 2.828427 -2.828427  C 2.078319 -3.578535 1.060812 -4 0 -4  C -1.060812 -4 -2.078319 -3.578535 -2.828427 -2.828427  C -3.578535 -2.078319 -4 -1.060812 -4 0  C -4 1.060812 -3.578535 2.078319 -2.828427 2.828427  C -2.078319 3.578535 -1.060812 4 0 4  z " style="stroke: #000000; stroke-opacity: 0.7"/>
    </defs>
    <g clip-path="url(#p6a243fb607)">
     <use xlink:href="#m89a8075e9c" x="207.09" y="176.432266" style="fill-opacity: 0.7; stroke: #000000; stroke-opacity: 0.7"/>
    </g>
   </g>
   <g id="patch_3">
    <path d="M 228.9 334.8  L 228.9 18.064532  " style="fill: none; stroke: #000000; stroke-width: 0.8; stroke-linejoin: miter; stroke-linecap: square"/>
   </g>
   <g id="patch_4">
    <path d="M 447 334.8  L 447 18.064532  " style="fill: none"/>
   </g>
   <g id="patch_5">
    <path d="M 10.8 176.432266  L 447 176.432266  " style="fill: none; stroke: #000000; stroke-width: 0.8; stroke-linejoin: miter; stroke-linecap: square"/>
   </g>
   <g id="patch_6">
    <path d="M 10.8 18.064532  L 447 18.064532  " style="fill: none"/>
   </g>
   <g id="legend_1">
    <g id="patch_7">
     <path d="M 373.547103 53.164008  L 435.8 53.164008  Q 439 53.164008 439 49.964008  L 439 29.264532  Q 439 26.064532 435.8 26.064532  L 373.547103 26.064532  Q 370.347103 26.064532 370.347103 29.264532  L 370.347103 49.964008  Q 370.347103 53.164008 373.547103 53.164008  z " style="fill: #ffffff; opacity: 0.8; stroke: #cccccc; stroke-linejoin: miter"/>
    </g>
    <g id="line2d_6">
     <path d="M 376.747103 38.064532  L 392.747103 38.064532  L 408.747103 38.064532  " style="fill: none; stroke: #008080; stroke-opacity: 0.7; stroke-width: 2; stroke-linecap: square"/>
    </g>
    <g id="text_3">
     <!-- $\mathrm{B}$ -->
     <g transform="translate(421.547103 43.664532) scale(0.16 -0.16)">
      <defs>
       <path id="CMR17-42" d="M 333 4352  L 333 4186  C 774 4186 845 4186 845 3900  L 845 452  C 845 166 774 166 333 166  L 333 0  L 2534 0  C 3354 0 3885 583 3885 1164  C 3885 1741 3360 2233 2675 2233  C 3290 2356 3718 2771 3718 3264  C 3718 3802 3194 4352 2368 4352  L 333 4352  z M 1248 2304  L 1248 3937  C 1248 4155 1261 4186 1517 4186  L 2336 4186  C 2970 4186 3251 3674 3251 3277  C 3251 2791 2861 2304 2170 2304  L 1248 2304  z M 1517 166  C 1261 166 1248 197 1248 413  L 1248 2202  L 2432 2202  C 3091 2202 3411 1625 3411 1162  C 3411 699 3046 166 2349 166  L 1517 166  z " transform="scale(0.015625)"/>
      </defs>
      <use xlink:href="#CMR17-42" transform="scale(0.996264)"/>
     </g>
    </g>
   </g>
  </g>
 </g>
 <defs>
  <clipPath id="p6a243fb607">
   <rect x="10.8" y="18.064532" width="436.2" height="316.735468"/>
  </clipPath>
 </defs>
</g>
    <g transform="translate(0, 432.00000000000006) scale(1 1) translate(0, 0) scale(1.25 1.25) "><metadata>
  <rdf:RDF xmlns:dc="http://purl.org/dc/elements/1.1/" xmlns:cc="http://creativecommons.org/ns#" xmlns:rdf="http://www.w3.org/1999/02/22-rdf-syntax-ns#">
   <cc:Work>
    <dc:type rdf:resource="http://purl.org/dc/dcmitype/StillImage"/>
    <dc:date>2025-02-19T16:05:43.339773</dc:date>
    <dc:format>image/svg+xml</dc:format>
    <dc:creator>
     <cc:Agent>
      <dc:title>Matplotlib v3.9.1, https://matplotlib.org/</dc:title>
     </cc:Agent>
    </dc:creator>
   </cc:Work>
  </rdf:RDF>
 </metadata>
 <defs>
  <style type="text/css">*{stroke-linejoin: round; stroke-linecap: butt}</style>
 </defs>
 <g id="figure_1">
  <g id="patch_1">
   <path d="M 0 345.6  L 460.8 345.6  L 460.8 0  L 0 0  z " style="fill: #ffffff"/>
  </g>
  <g id="axes_1">
   <g id="patch_2">
    <path d="M 10.8 334.8  L 447 334.8  L 447 18.064532  L 10.8 18.064532  z " style="fill: #ffffff"/>
   </g>
   <g id="matplotlib.axis_1">
    <g id="text_1">
     <!-- $x$ -->
     <g transform="translate(438.13055 244.291099) scale(0.16 -0.16)">
      <defs>
       <path id="CMMI12-78" d="M 3034 2606  C 2829 2567 2752 2414 2752 2293  C 2752 2139 2874 2088 2963 2088  C 3155 2088 3290 2254 3290 2427  C 3290 2695 2982 2816 2714 2816  C 2323 2816 2106 2433 2048 2312  C 1901 2816 1504 2816 1389 2816  C 736 2816 390 1980 390 1839  C 390 1814 416 1782 461 1782  C 512 1782 525 1820 538 1846  C 755 2555 1184 2689 1370 2689  C 1658 2689 1715 2420 1715 2267  C 1715 2127 1677 1980 1600 1673  L 1382 798  C 1286 415 1101 64 762 64  C 730 64 570 64 435 147  C 666 192 717 383 717 460  C 717 588 621 664 499 664  C 346 664 179 530 179 326  C 179 57 480 -64 755 -64  C 1062 -64 1280 179 1414 441  C 1517 64 1837 -64 2074 -64  C 2726 -64 3072 773 3072 913  C 3072 945 3046 971 3008 971  C 2950 971 2944 939 2925 888  C 2752 326 2381 64 2093 64  C 1869 64 1747 230 1747 492  C 1747 632 1773 734 1875 1156  L 2099 2024  C 2195 2408 2413 2689 2707 2689  C 2720 2689 2899 2689 3034 2606  z " transform="scale(0.015625)"/>
      </defs>
      <use xlink:href="#CMMI12-78" transform="scale(0.996264)"/>
     </g>
    </g>
   </g>
   <g id="matplotlib.axis_2">
    <g id="text_2">
     <!-- $y$ -->
     <g transform="translate(217.289729 14.965056) scale(0.16 -0.16)">
      <defs>
       <path id="CMMI12-79" d="M 1683 -700  C 1510 -939 1261 -1152 947 -1152  C 870 -1152 563 -1152 467 -889  C 486 -895 518 -895 531 -895  C 723 -895 851 -729 851 -582  C 851 -435 730 -384 634 -384  C 531 -384 307 -458 307 -759  C 307 -1071 582 -1286 947 -1286  C 1587 -1286 2234 -700 2413 6  L 3040 2485  C 3046 2517 3059 2556 3059 2594  C 3059 2689 2982 2753 2886 2753  C 2829 2753 2694 2727 2643 2535  L 2170 658  C 2138 543 2138 530 2086 460  C 1958 281 1747 64 1440 64  C 1082 64 1050 415 1050 588  C 1050 952 1222 1443 1395 1903  C 1466 2088 1504 2178 1504 2305  C 1504 2574 1312 2816 998 2816  C 410 2816 173 1890 173 1839  C 173 1814 198 1782 243 1782  C 301 1782 307 1807 333 1897  C 486 2433 730 2689 979 2689  C 1037 2689 1146 2689 1146 2478  C 1146 2312 1075 2127 979 1884  C 666 1047 666 837 666 683  C 666 77 1101 -64 1421 -64  C 1606 -64 1837 -6 2061 230  L 2067 224  C 1971 -147 1907 -392 1683 -700  z " transform="scale(0.015625)"/>
      </defs>
      <use xlink:href="#CMMI12-79" transform="scale(0.996264)"/>
     </g>
    </g>
   </g>
   <g id="line2d_1">
    <defs>
     <path id="m276ab230d8" d="M 3 0  L -3 -3  L -3 3  z " style="stroke: #000000; stroke-linejoin: miter"/>
    </defs>
    <g>
     <use xlink:href="#m276ab230d8" x="447" y="229.221511" style="stroke: #000000; stroke-linejoin: miter"/>
    </g>
   </g>
   <g id="line2d_2">
    <defs>
     <path id="m1e384047d7" d="M 0 -3  L -3 3  L 3 3  z " style="stroke: #000000; stroke-linejoin: miter"/>
    </defs>
    <g>
     <use xlink:href="#m1e384047d7" x="228.9" y="18.064532" style="stroke: #000000; stroke-linejoin: miter"/>
    </g>
   </g>
   <g id="line2d_3">
    <path d="M 10.640103 303.659238  L 44.602302 288.116128  L 71.944751 275.836129  L 94.39434 265.987328  L 113.102331 258.015247  L 128.644355 251.624279  L 141.883856 246.412057  L 153.108651 242.221772  L 162.89437 238.799416  L 171.241012 236.105341  L 178.724208 233.920488  L 185.056144 232.291277  L 190.812449 231.033055  L 195.993123 230.129901  L 200.598167 229.555863  L 204.627581 229.273018  L 208.369179 229.236387  L 211.535147 229.412509  L 214.413299 229.771527  L 217.291452 230.358115  L 219.881789 231.11953  L 222.184311 232.018636  L 224.486833 233.167507  L 226.50154 234.416278  L 228.516246 235.935804  L 230.243138 237.493295  L 231.970029 239.329634  L 233.696921 241.496567  L 235.423812 244.059485  L 236.862889 246.557534  L 238.301965 249.449987  L 239.741041 252.814689  L 241.180117 256.75141  L 242.619194 261.390154  L 244.05827 266.90355  L 245.209531 272.098691  L 246.360792 278.162126  L 247.512053 285.306498  L 248.663314 293.820058  L 249.814575 304.103542  L 250.965836 316.730982  L 252.117097 332.554723  L 252.942667 346.6  L 252.942667 346.6  " clip-path="url(#pd14e44fd3d)" style="fill: none; stroke: #008080; stroke-opacity: 0.7; stroke-width: 2; stroke-linecap: square"/>
   </g>
   <g id="line2d_4">
    <path d="M 269.914399 -1  L 271.016965 18.810081  L 272.136246 34.55239  L 273.255528 47.163134  L 274.374809 57.46641  L 275.494091 66.020476  L 276.837229 74.519682  L 278.180367 81.535203  L 279.523504 87.400866  L 280.866642 92.357341  L 282.433636 97.225547  L 284.00063 101.306006  L 285.567625 104.753323  L 287.134619 107.684129  L 288.701613 110.188067  L 290.492463 112.616157  L 292.283314 114.659427  L 294.074164 116.381574  L 296.088871 117.997457  L 298.103578 119.327198  L 300.342141 120.523408  L 302.580704 121.470452  L 305.043123 122.270402  L 307.729399 122.900452  L 310.639531 123.344273  L 313.773519 123.591046  L 317.131364 123.634452  L 320.936921 123.45525  L 325.190191 123.019362  L 329.891173 122.302326  L 335.039868 121.288004  L 340.860132 119.910101  L 347.351965 118.142626  L 354.739223 115.89815  L 363.245762 113.073808  L 372.871584 109.639287  L 384.064399 105.403446  L 397.048065 100.245024  L 412.270293 93.949896  L 430.178798 86.295591  L 447.191877 78.842568  L 447.191877 78.842568  " clip-path="url(#pd14e44fd3d)" style="fill: none; stroke: #008080; stroke-opacity: 0.7; stroke-width: 2; stroke-linecap: square"/>
   </g>
   <g id="LineCollection_1">
    <path d="M 261.615 346.6  L 261.615 -1  " clip-path="url(#pd14e44fd3d)" style="fill: none; stroke-dasharray: 5.55,2.4; stroke-dashoffset: 0; stroke: #ff0000; stroke-width: 1.5"/>
   </g>
   <g id="line2d_5">
    <defs>
     <path id="mcaaabee961" d="M 0 4  C 1.060812 4 2.078319 3.578535 2.828427 2.828427  C 3.578535 2.078319 4 1.060812 4 0  C 4 -1.060812 3.578535 -2.078319 2.828427 -2.828427  C 2.078319 -3.578535 1.060812 -4 0 -4  C -1.060812 -4 -2.078319 -3.578535 -2.828427 -2.828427  C -3.578535 -2.078319 -4 -1.060812 -4 0  C -4 1.060812 -3.578535 2.078319 -2.828427 2.828427  C -2.078319 3.578535 -1.060812 4 0 4  z " style="stroke: #000000; stroke-opacity: 0.7"/>
    </defs>
    <g clip-path="url(#pd14e44fd3d)">
     <use xlink:href="#mcaaabee961" x="207.09" y="229.221511" style="fill-opacity: 0.7; stroke: #000000; stroke-opacity: 0.7"/>
    </g>
   </g>
   <g id="line2d_6">
    <path d="M 10.8 297.847529  L 447 86.69055  L 447 86.69055  " clip-path="url(#pd14e44fd3d)" style="fill: none; stroke-dasharray: 5.55,2.4; stroke-dashoffset: 0; stroke: #0000ff; stroke-width: 1.5"/>
   </g>
   <g id="patch_3">
    <path d="M 228.9 334.8  L 228.9 18.064532  " style="fill: none; stroke: #000000; stroke-width: 0.8; stroke-linejoin: miter; stroke-linecap: square"/>
   </g>
   <g id="patch_4">
    <path d="M 447 334.8  L 447 18.064532  " style="fill: none"/>
   </g>
   <g id="patch_5">
    <path d="M 10.8 229.221511  L 447 229.221511  " style="fill: none; stroke: #000000; stroke-width: 0.8; stroke-linejoin: miter; stroke-linecap: square"/>
   </g>
   <g id="patch_6">
    <path d="M 10.8 18.064532  L 447 18.064532  " style="fill: none"/>
   </g>
   <g id="legend_1">
    <g id="patch_7">
     <path d="M 373.327574 53.164008  L 435.8 53.164008  Q 439 53.164008 439 49.964008  L 439 29.264532  Q 439 26.064532 435.8 26.064532  L 373.327574 26.064532  Q 370.127574 26.064532 370.127574 29.264532  L 370.127574 49.964008  Q 370.127574 53.164008 373.327574 53.164008  z " style="fill: #ffffff; opacity: 0.8; stroke: #cccccc; stroke-linejoin: miter"/>
    </g>
    <g id="line2d_7">
     <path d="M 376.527574 38.064532  L 392.527574 38.064532  L 408.527574 38.064532  " style="fill: none; stroke: #008080; stroke-opacity: 0.7; stroke-width: 2; stroke-linecap: square"/>
    </g>
    <g id="text_3">
     <!-- $\mathrm{C}$ -->
     <g transform="translate(421.327574 43.664532) scale(0.16 -0.16)">
      <defs>
       <path id="CMR17-43" d="M 3974 4289  C 3974 4403 3968 4410 3930 4410  C 3904 4410 3898 4403 3853 4327  L 3571 3792  C 3258 4187 2874 4416 2381 4416  C 1286 4416 294 3456 294 2148  C 294 826 1286 -128 2387 -128  C 3366 -128 3974 730 3974 1461  C 3974 1524 3974 1550 3917 1550  C 3866 1550 3866 1531 3859 1474  C 3808 585 3168 38 2477 38  C 1824 38 781 495 781 2147  C 781 3805 1843 4250 2464 4250  C 3187 4250 3712 3628 3834 2745  C 3846 2668 3846 2655 3904 2655  C 3974 2655 3974 2668 3974 2783  L 3974 4289  z " transform="scale(0.015625)"/>
      </defs>
      <use xlink:href="#CMR17-43" transform="scale(0.996264)"/>
     </g>
    </g>
   </g>
  </g>
 </g>
 <defs>
  <clipPath id="pd14e44fd3d">
   <rect x="10.8" y="18.064532" width="436.2" height="316.735468"/>
  </clipPath>
 </defs>
</g>
    <g transform="translate(576.0, 432.00000000000006) scale(1 1) translate(0, 0) scale(1.25 1.25) "><metadata>
  <rdf:RDF xmlns:dc="http://purl.org/dc/elements/1.1/" xmlns:cc="http://creativecommons.org/ns#" xmlns:rdf="http://www.w3.org/1999/02/22-rdf-syntax-ns#">
   <cc:Work>
    <dc:type rdf:resource="http://purl.org/dc/dcmitype/StillImage"/>
    <dc:date>2025-02-19T16:06:40.926629</dc:date>
    <dc:format>image/svg+xml</dc:format>
    <dc:creator>
     <cc:Agent>
      <dc:title>Matplotlib v3.9.1, https://matplotlib.org/</dc:title>
     </cc:Agent>
    </dc:creator>
   </cc:Work>
  </rdf:RDF>
 </metadata>
 <defs>
  <style type="text/css">*{stroke-linejoin: round; stroke-linecap: butt}</style>
 </defs>
 <g id="figure_1">
  <g id="patch_1">
   <path d="M 0 345.6  L 460.8 345.6  L 460.8 0  L 0 0  z " style="fill: #ffffff"/>
  </g>
  <g id="axes_1">
   <g id="patch_2">
    <path d="M 10.8 334.8  L 447 334.8  L 447 18.064532  L 10.8 18.064532  z " style="fill: #ffffff"/>
   </g>
   <g id="matplotlib.axis_1">
    <g id="text_1">
     <!-- $x$ -->
     <g transform="translate(438.13055 138.71261) scale(0.16 -0.16)">
      <defs>
       <path id="CMMI12-78" d="M 3034 2606  C 2829 2567 2752 2414 2752 2293  C 2752 2139 2874 2088 2963 2088  C 3155 2088 3290 2254 3290 2427  C 3290 2695 2982 2816 2714 2816  C 2323 2816 2106 2433 2048 2312  C 1901 2816 1504 2816 1389 2816  C 736 2816 390 1980 390 1839  C 390 1814 416 1782 461 1782  C 512 1782 525 1820 538 1846  C 755 2555 1184 2689 1370 2689  C 1658 2689 1715 2420 1715 2267  C 1715 2127 1677 1980 1600 1673  L 1382 798  C 1286 415 1101 64 762 64  C 730 64 570 64 435 147  C 666 192 717 383 717 460  C 717 588 621 664 499 664  C 346 664 179 530 179 326  C 179 57 480 -64 755 -64  C 1062 -64 1280 179 1414 441  C 1517 64 1837 -64 2074 -64  C 2726 -64 3072 773 3072 913  C 3072 945 3046 971 3008 971  C 2950 971 2944 939 2925 888  C 2752 326 2381 64 2093 64  C 1869 64 1747 230 1747 492  C 1747 632 1773 734 1875 1156  L 2099 2024  C 2195 2408 2413 2689 2707 2689  C 2720 2689 2899 2689 3034 2606  z " transform="scale(0.015625)"/>
      </defs>
      <use xlink:href="#CMMI12-78" transform="scale(0.996264)"/>
     </g>
    </g>
   </g>
   <g id="matplotlib.axis_2">
    <g id="text_2">
     <!-- $y$ -->
     <g transform="translate(217.289729 14.965056) scale(0.16 -0.16)">
      <defs>
       <path id="CMMI12-79" d="M 1683 -700  C 1510 -939 1261 -1152 947 -1152  C 870 -1152 563 -1152 467 -889  C 486 -895 518 -895 531 -895  C 723 -895 851 -729 851 -582  C 851 -435 730 -384 634 -384  C 531 -384 307 -458 307 -759  C 307 -1071 582 -1286 947 -1286  C 1587 -1286 2234 -700 2413 6  L 3040 2485  C 3046 2517 3059 2556 3059 2594  C 3059 2689 2982 2753 2886 2753  C 2829 2753 2694 2727 2643 2535  L 2170 658  C 2138 543 2138 530 2086 460  C 1958 281 1747 64 1440 64  C 1082 64 1050 415 1050 588  C 1050 952 1222 1443 1395 1903  C 1466 2088 1504 2178 1504 2305  C 1504 2574 1312 2816 998 2816  C 410 2816 173 1890 173 1839  C 173 1814 198 1782 243 1782  C 301 1782 307 1807 333 1897  C 486 2433 730 2689 979 2689  C 1037 2689 1146 2689 1146 2478  C 1146 2312 1075 2127 979 1884  C 666 1047 666 837 666 683  C 666 77 1101 -64 1421 -64  C 1606 -64 1837 -6 2061 230  L 2067 224  C 1971 -147 1907 -392 1683 -700  z " transform="scale(0.015625)"/>
      </defs>
      <use xlink:href="#CMMI12-79" transform="scale(0.996264)"/>
     </g>
    </g>
   </g>
   <g id="line2d_1">
    <defs>
     <path id="m6692a91190" d="M 3 0  L -3 -3  L -3 3  z " style="stroke: #000000; stroke-linejoin: miter"/>
    </defs>
    <g>
     <use xlink:href="#m6692a91190" x="447" y="123.643021" style="stroke: #000000; stroke-linejoin: miter"/>
    </g>
   </g>
   <g id="line2d_2">
    <defs>
     <path id="m63685ca1c5" d="M 0 -3  L -3 3  L 3 3  z " style="stroke: #000000; stroke-linejoin: miter"/>
    </defs>
    <g>
     <use xlink:href="#m63685ca1c5" x="228.9" y="18.064532" style="stroke: #000000; stroke-linejoin: miter"/>
    </g>
   </g>
   <g id="line2d_3">
    <path d="M 10.640103 49.205294  L 44.602302 64.748404  L 71.944751 77.028403  L 94.39434 86.877204  L 113.102331 94.849285  L 128.644355 101.240254  L 141.883856 106.452475  L 153.108651 110.64276  L 162.89437 114.065116  L 171.241012 116.759192  L 178.724208 118.944045  L 185.056144 120.573255  L 190.812449 121.831477  L 195.993123 122.734631  L 200.598167 123.308669  L 204.627581 123.591515  L 208.369179 123.628145  L 211.535147 123.452023  L 214.413299 123.093005  L 217.291452 122.506417  L 219.881789 121.745003  L 222.184311 120.845896  L 224.486833 119.697025  L 226.50154 118.448254  L 228.516246 116.928728  L 230.243138 115.371237  L 231.970029 113.534898  L 233.696921 111.367966  L 235.423812 108.805047  L 236.862889 106.306999  L 238.301965 103.414545  L 239.741041 100.049843  L 241.180117 96.113122  L 242.619194 91.474378  L 244.05827 85.960983  L 245.209531 80.765842  L 246.360792 74.702406  L 247.512053 67.558034  L 248.663314 59.044474  L 249.814575 48.76099  L 250.965836 36.133551  L 252.117097 20.30981  L 252.980543 5.575321  L 253.314608 -1  L 253.314608 -1  " clip-path="url(#p1d6990ba85)" style="fill: none; stroke: #008080; stroke-opacity: 0.7; stroke-width: 2; stroke-linecap: square"/>
   </g>
   <g id="line2d_4">
    <path d="M 270.287392 346.6  L 271.240821 330.603028  L 272.360103 315.570784  L 273.479384 303.477043  L 274.598666 293.561849  L 275.941804 283.820375  L 277.284941 275.86033  L 278.628079 269.259795  L 279.971217 263.720342  L 281.314355 259.024932  L 282.881349 254.400373  L 284.448343 250.514673  L 286.015337 247.225483  L 287.582331 244.424814  L 289.149326 242.02926  L 290.940176 239.704235  L 292.731026 237.746629  L 294.521877 236.096453  L 296.536584 234.548593  L 298.55129 233.275984  L 300.789853 232.133149  L 303.028416 231.231015  L 305.490836 230.472707  L 308.177111 229.880728  L 311.087243 229.471324  L 314.221232 229.25539  L 317.802933 229.245335  L 321.60849 229.462807  L 325.86176 229.933639  L 330.562742 230.68199  L 335.935293 231.773837  L 341.979413 233.243318  L 348.695103 235.113188  L 356.306217 237.469193  L 365.036613 240.412437  L 375.110147 244.053756  L 386.750674 248.509163  L 400.182053 253.89628  L 415.851994 260.426643  L 434.432067 268.417749  L 447.191877 274.021964  L 447.191877 274.021964  " clip-path="url(#p1d6990ba85)" style="fill: none; stroke: #008080; stroke-opacity: 0.7; stroke-width: 2; stroke-linecap: square"/>
   </g>
   <g id="LineCollection_1">
    <path d="M 261.615 346.6  L 261.615 -1  " clip-path="url(#p1d6990ba85)" style="fill: none; stroke-dasharray: 5.55,2.4; stroke-dashoffset: 0; stroke: #ff0000; stroke-width: 1.5"/>
   </g>
   <g id="line2d_5">
    <defs>
     <path id="md488e1b0b8" d="M 0 4  C 1.060812 4 2.078319 3.578535 2.828427 2.828427  C 3.578535 2.078319 4 1.060812 4 0  C 4 -1.060812 3.578535 -2.078319 2.828427 -2.828427  C 2.078319 -3.578535 1.060812 -4 0 -4  C -1.060812 -4 -2.078319 -3.578535 -2.828427 -2.828427  C -3.578535 -2.078319 -4 -1.060812 -4 0  C -4 1.060812 -3.578535 2.078319 -2.828427 2.828427  C -2.078319 3.578535 -1.060812 4 0 4  z " style="stroke: #000000; stroke-opacity: 0.7"/>
    </defs>
    <g clip-path="url(#p1d6990ba85)">
     <use xlink:href="#md488e1b0b8" x="207.09" y="123.643021" style="fill-opacity: 0.7; stroke: #000000; stroke-opacity: 0.7"/>
    </g>
   </g>
   <g id="line2d_6">
    <path d="M 10.8 55.017003  L 447 266.173982  L 447 266.173982  " clip-path="url(#p1d6990ba85)" style="fill: none; stroke-dasharray: 5.55,2.4; stroke-dashoffset: 0; stroke: #0000ff; stroke-width: 1.5"/>
   </g>
   <g id="patch_3">
    <path d="M 228.9 334.8  L 228.9 18.064532  " style="fill: none; stroke: #000000; stroke-width: 0.8; stroke-linejoin: miter; stroke-linecap: square"/>
   </g>
   <g id="patch_4">
    <path d="M 447 334.8  L 447 18.064532  " style="fill: none"/>
   </g>
   <g id="patch_5">
    <path d="M 10.8 123.643021  L 447 123.643021  " style="fill: none; stroke: #000000; stroke-width: 0.8; stroke-linejoin: miter; stroke-linecap: square"/>
   </g>
   <g id="patch_6">
    <path d="M 10.8 18.064532  L 447 18.064532  " style="fill: none"/>
   </g>
   <g id="legend_1">
    <g id="patch_7">
     <path d="M 372.679994 53.164008  L 435.8 53.164008  Q 439 53.164008 439 49.964008  L 439 29.264532  Q 439 26.064532 435.8 26.064532  L 372.679994 26.064532  Q 369.479994 26.064532 369.479994 29.264532  L 369.479994 49.964008  Q 369.479994 53.164008 372.679994 53.164008  z " style="fill: #ffffff; opacity: 0.8; stroke: #cccccc; stroke-linejoin: miter"/>
    </g>
    <g id="line2d_7">
     <path d="M 375.879994 38.064532  L 391.879994 38.064532  L 407.879994 38.064532  " style="fill: none; stroke: #008080; stroke-opacity: 0.7; stroke-width: 2; stroke-linecap: square"/>
    </g>
    <g id="text_3">
     <!-- $\mathrm{D}$ -->
     <g transform="translate(420.679994 43.664532) scale(0.16 -0.16)">
      <defs>
       <path id="CMR17-44" d="M 333 4352  L 333 4186  C 774 4186 845 4186 845 3900  L 845 452  C 845 166 774 166 333 166  L 333 0  L 2368 0  C 3398 0 4224 943 4224 2141  C 4224 3346 3411 4352 2368 4352  L 333 4352  z M 1523 166  C 1267 166 1254 197 1254 414  L 1254 3938  C 1254 4155 1267 4186 1523 4186  L 2240 4186  C 2771 4186 3750 3874 3750 2141  C 3750 1242 3488 879 3366 707  C 3213 510 2848 166 2240 166  L 1523 166  z " transform="scale(0.015625)"/>
      </defs>
      <use xlink:href="#CMR17-44" transform="scale(0.996264)"/>
     </g>
    </g>
   </g>
  </g>
 </g>
 <defs>
  <clipPath id="p1d6990ba85">
   <rect x="10.8" y="18.064532" width="436.2" height="316.735468"/>
  </clipPath>
 </defs>
</g>
  </g>
</svg>
