<?xml version='1.0' encoding='ASCII' standalone='yes'?>
<svg xmlns="http://www.w3.org/2000/svg" xmlns:xlink="http://www.w3.org/1999/xlink" version="1.1" width="1152.0px" viewBox="0 0 1152.0 864.0000000000001" height="864.0000000000001px">
  <g>
    <g transform="translate(0, 0) scale(1 1) translate(0, 0) scale(1.25 1.25) "><metadata>
  <rdf:RDF xmlns:dc="http://purl.org/dc/elements/1.1/" xmlns:cc="http://creativecommons.org/ns#" xmlns:rdf="http://www.w3.org/1999/02/22-rdf-syntax-ns#">
   <cc:Work>
    <dc:type rdf:resource="http://purl.org/dc/dcmitype/StillImage"/>
    <dc:date>2025-04-19T00:23:59.382579</dc:date>
    <dc:format>image/svg+xml</dc:format>
    <dc:creator>
     <cc:Agent>
      <dc:title>Matplotlib v3.9.1, https://matplotlib.org/</dc:title>
     </cc:Agent>
    </dc:creator>
   </cc:Work>
  </rdf:RDF>
 </metadata>
 <defs>
  <style type="text/css">*{stroke-linejoin: round; stroke-linecap: butt}</style>
 </defs>
 <g id="figure_1">
  <g id="patch_1">
   <path d="M 0 345.6  L 460.8 345.6  L 460.8 0  L 0 0  L 0 345.6  z " style="fill: none"/>
  </g>
  <g id="axes_1">
   <g id="patch_2">
    <path d="M 10.8 334.8  L 447 334.8  L 447 18.064532  L 10.8 18.064532  L 10.8 334.8  z " style="fill: none"/>
   </g>
   <g id="matplotlib.axis_1">
    <g id="text_1">
     <!-- $x$ -->
     <g transform="translate(438.13055 191.501854) scale(0.16 -0.16)">
      <defs>
       <path id="CMMI12-78" d="M 3034 2606  C 2829 2567 2752 2414 2752 2293  C 2752 2139 2874 2088 2963 2088  C 3155 2088 3290 2254 3290 2427  C 3290 2695 2982 2816 2714 2816  C 2323 2816 2106 2433 2048 2312  C 1901 2816 1504 2816 1389 2816  C 736 2816 390 1980 390 1839  C 390 1814 416 1782 461 1782  C 512 1782 525 1820 538 1846  C 755 2555 1184 2689 1370 2689  C 1658 2689 1715 2420 1715 2267  C 1715 2127 1677 1980 1600 1673  L 1382 798  C 1286 415 1101 64 762 64  C 730 64 570 64 435 147  C 666 192 717 383 717 460  C 717 588 621 664 499 664  C 346 664 179 530 179 326  C 179 57 480 -64 755 -64  C 1062 -64 1280 179 1414 441  C 1517 64 1837 -64 2074 -64  C 2726 -64 3072 773 3072 913  C 3072 945 3046 971 3008 971  C 2950 971 2944 939 2925 888  C 2752 326 2381 64 2093 64  C 1869 64 1747 230 1747 492  C 1747 632 1773 734 1875 1156  L 2099 2024  C 2195 2408 2413 2689 2707 2689  C 2720 2689 2899 2689 3034 2606  z " transform="scale(0.015625)"/>
      </defs>
      <use xlink:href="#CMMI12-78" transform="scale(0.996264)"/>
     </g>
    </g>
   </g>
   <g id="matplotlib.axis_2">
    <g id="text_2">
     <!-- $y$ -->
     <g transform="translate(217.289729 14.965056) scale(0.16 -0.16)">
      <defs>
       <path id="CMMI12-79" d="M 1683 -700  C 1510 -939 1261 -1152 947 -1152  C 870 -1152 563 -1152 467 -889  C 486 -895 518 -895 531 -895  C 723 -895 851 -729 851 -582  C 851 -435 730 -384 634 -384  C 531 -384 307 -458 307 -759  C 307 -1071 582 -1286 947 -1286  C 1587 -1286 2234 -700 2413 6  L 3040 2485  C 3046 2517 3059 2556 3059 2594  C 3059 2689 2982 2753 2886 2753  C 2829 2753 2694 2727 2643 2535  L 2170 658  C 2138 543 2138 530 2086 460  C 1958 281 1747 64 1440 64  C 1082 64 1050 415 1050 588  C 1050 952 1222 1443 1395 1903  C 1466 2088 1504 2178 1504 2305  C 1504 2574 1312 2816 998 2816  C 410 2816 173 1890 173 1839  C 173 1814 198 1782 243 1782  C 301 1782 307 1807 333 1897  C 486 2433 730 2689 979 2689  C 1037 2689 1146 2689 1146 2478  C 1146 2312 1075 2127 979 1884  C 666 1047 666 837 666 683  C 666 77 1101 -64 1421 -64  C 1606 -64 1837 -6 2061 230  L 2067 224  C 1971 -147 1907 -392 1683 -700  z " transform="scale(0.015625)"/>
      </defs>
      <use xlink:href="#CMMI12-79" transform="scale(0.996264)"/>
     </g>
    </g>
   </g>
   <g id="line2d_1">
    <defs>
     <path id="m57c0b679ec" d="M 3 0  L -3 -3  L -3 3  z " style="stroke: #000000; stroke-linejoin: miter"/>
    </defs>
    <g>
     <use xlink:href="#m57c0b679ec" x="447" y="176.432266" style="stroke: #000000; stroke-linejoin: miter"/>
    </g>
   </g>
   <g id="line2d_2">
    <defs>
     <path id="mc68328f71a" d="M 0 -3  L -3 3  L 3 3  z " style="stroke: #000000; stroke-linejoin: miter"/>
    </defs>
    <g>
     <use xlink:href="#mc68328f71a" x="228.9" y="18.064532" style="stroke: #000000; stroke-linejoin: miter"/>
    </g>
   </g>
   <g id="line2d_3">
    <path d="M 10.643656 293.838211  L 34.407957 286.142946  L 53.794624 280.090064  L 70.054409 275.240547  L 83.5 271.452906  L 95.069462 268.418563  L 104.762796 266.094813  L 113.205376 264.28893  L 120.709892 262.909346  L 127.276344 261.930486  L 132.904731 261.310963  L 137.907742 260.977621  L 142.285376 260.897525  L 146.350323 261.044433  L 149.789892 261.374702  L 152.916774 261.875916  L 156.043656 262.610911  L 158.857849 263.516538  L 161.359355 264.558324  L 163.548172 265.690521  L 165.736989 267.070207  L 167.613118 268.488024  L 169.489247 270.165507  L 171.365376 272.154018  L 173.241505 274.519424  L 174.804946 276.83968  L 176.368387 279.544987  L 177.931828 282.717856  L 179.495269 286.466185  L 181.05871 290.933841  L 182.309462 295.155358  L 183.560215 300.096202  L 184.810968 305.936203  L 186.06172 312.920587  L 187.312473 321.392667  L 188.563226 331.848343  L 189.50129 341.425747  L 189.941515 346.6  L 189.941515 346.6  " clip-path="url(#p7b134d43e6)" style="fill: none; stroke: #0072b2; stroke-opacity: 0.9; stroke-width: 2.5; stroke-linecap: square"/>
   </g>
   <g id="line2d_4">
    <path d="M 205.468241 -1  L 206.10219 20.895425  L 206.841271 41.204715  L 207.949892 64.653551  L 209.058514 82.378067  L 210.167136 96.218223  L 211.275758 107.301736  L 212.384379 116.358305  L 213.493001 123.880972  L 214.601623 130.214864  L 216.079785 137.231122  L 217.557947 142.988559  L 219.036109 147.777673  L 220.514272 151.805961  L 221.992434 155.225589  L 223.470596 158.150681  L 224.948759 160.668507  L 226.796461 163.345063  L 228.644164 165.592467  L 230.491867 167.488276  L 232.33957 169.092422  L 234.556813 170.697932  L 236.774057 172.014181  L 238.9913 173.090289  L 241.578084 174.093269  L 244.164868 174.869666  L 247.121193 175.527215  L 250.447058 176.025329  L 254.142463 176.333841  L 258.20741 176.431945  L 262.641896 176.306665  L 267.445924 175.951212  L 272.989032 175.314479  L 279.271222 174.360782  L 286.292493 173.066691  L 294.422385 171.335525  L 303.660899 169.136315  L 314.377576 166.351858  L 326.941955 162.849769  L 341.723578 158.489445  L 359.091984 153.127384  L 379.786256 146.50072  L 404.915015 138.213511  L 435.586882 127.856706  L 447.042639 123.938923  L 447.042639 123.938923  " clip-path="url(#p7b134d43e6)" style="fill: none; stroke: #0072b2; stroke-opacity: 0.9; stroke-width: 2.5; stroke-linecap: square"/>
   </g>
   <g id="LineCollection_1">
    <path d="M 199.82 346.6  L 199.82 -1  " clip-path="url(#p7b134d43e6)" style="fill: none; stroke-dasharray: 7.4,3.2; stroke-dashoffset: 0; stroke: #dc5e8b; stroke-width: 2"/>
   </g>
   <g id="line2d_5">
    <path d="M 10.302542 287.470288  L 447.497458 128.741338  L 447.497458 128.741338  " clip-path="url(#p7b134d43e6)" style="fill: none; stroke-dasharray: 7.4,3.2; stroke-dashoffset: 0; stroke: #dc5e8b; stroke-width: 2"/>
   </g>
   <g id="line2d_6">
    <defs>
     <path id="mde791d7d35" d="M 0 4  C 1.060812 4 2.078319 3.578535 2.828427 2.828427  C 3.578535 2.078319 4 1.060812 4 0  C 4 -1.060812 3.578535 -2.078319 2.828427 -2.828427  C 2.078319 -3.578535 1.060812 -4 0 -4  C -1.060812 -4 -2.078319 -3.578535 -2.828427 -2.828427  C -3.578535 -2.078319 -4 -1.060812 -4 0  C -4 1.060812 -3.578535 2.078319 -2.828427 2.828427  C -2.078319 3.578535 -1.060812 4 0 4  z " style="stroke: #000000; stroke-opacity: 0.7"/>
    </defs>
    <g clip-path="url(#p7b134d43e6)">
     <use xlink:href="#mde791d7d35" x="257.98" y="176.432266" style="fill-opacity: 0.7; stroke: #000000; stroke-opacity: 0.7"/>
    </g>
   </g>
   <g id="patch_3">
    <path d="M 228.9 334.8  L 228.9 18.064532  " style="fill: none; stroke: #000000; stroke-width: 0.8; stroke-linejoin: miter; stroke-linecap: square"/>
   </g>
   <g id="patch_4">
    <path d="M 447 334.8  L 447 18.064532  " style="fill: none"/>
   </g>
   <g id="patch_5">
    <path d="M 10.8 176.432266  L 447 176.432266  " style="fill: none; stroke: #000000; stroke-width: 0.8; stroke-linejoin: miter; stroke-linecap: square"/>
   </g>
   <g id="patch_6">
    <path d="M 10.8 18.064532  L 447 18.064532  " style="fill: none"/>
   </g>
   <g id="legend_1">
    <g id="patch_7">
     <path d="M 372.899538 53.164008  L 435.8 53.164008  Q 439 53.164008 439 49.964008  L 439 29.264532  Q 439 26.064532 435.8 26.064532  L 372.899538 26.064532  Q 369.699538 26.064532 369.699538 29.264532  L 369.699538 49.964008  Q 369.699538 53.164008 372.899538 53.164008  z " style="fill: #ffffff; opacity: 0.8; stroke: #cccccc; stroke-linejoin: miter"/>
    </g>
    <g id="line2d_7">
     <path d="M 376.099538 38.064532  L 392.099538 38.064532  L 408.099538 38.064532  " style="fill: none; stroke: #0072b2; stroke-opacity: 0.9; stroke-width: 2.5; stroke-linecap: square"/>
    </g>
    <g id="text_3">
     <!-- $\mathrm{A}$ -->
     <g transform="translate(420.899538 43.664532) scale(0.16 -0.16)">
      <defs>
       <path id="CMR17-41" d="M 2323 4378  C 2291 4461 2278 4480 2214 4480  C 2150 4480 2138 4461 2106 4378  L 749 566  C 627 223 371 153 147 153  L 147 -13  C 262 0 518 0 640 0  C 800 0 1056 0 1210 -13  L 1210 153  C 909 153 864 361 864 439  C 864 497 877 530 890 569  L 1229 1536  L 2906 1536  L 3290 442  C 3322 365 3322 352 3322 327  C 3322 153 3046 153 2925 153  L 2925 0  C 3110 0 3443 0 3642 0  C 3808 0 4128 0 4282 -13  L 4282 153  C 3942 153 3827 153 3744 387  L 2323 4378  z M 2067 3893  L 2848 1702  L 1286 1702  L 2067 3893  z " transform="scale(0.015625)"/>
      </defs>
      <use xlink:href="#CMR17-41" transform="scale(0.996264)"/>
     </g>
    </g>
   </g>
  </g>
 </g>
 <defs>
  <clipPath id="p7b134d43e6">
   <rect x="10.8" y="18.064532" width="436.2" height="316.735468"/>
  </clipPath>
 </defs>
</g>
    <g transform="translate(576.0, 0) scale(1 1) translate(0, 0) scale(1.25 1.25) "><metadata>
  <rdf:RDF xmlns:dc="http://purl.org/dc/elements/1.1/" xmlns:cc="http://creativecommons.org/ns#" xmlns:rdf="http://www.w3.org/1999/02/22-rdf-syntax-ns#">
   <cc:Work>
    <dc:type rdf:resource="http://purl.org/dc/dcmitype/StillImage"/>
    <dc:date>2025-04-19T00:24:02.033846</dc:date>
    <dc:format>image/svg+xml</dc:format>
    <dc:creator>
     <cc:Agent>
      <dc:title>Matplotlib v3.9.1, https://matplotlib.org/</dc:title>
     </cc:Agent>
    </dc:creator>
   </cc:Work>
  </rdf:RDF>
 </metadata>
 <defs>
  <style type="text/css">*{stroke-linejoin: round; stroke-linecap: butt}</style>
 </defs>
 <g id="figure_1">
  <g id="patch_1">
   <path d="M 0 345.6  L 460.8 345.6  L 460.8 0  L 0 0  L 0 345.6  z " style="fill: none"/>
  </g>
  <g id="axes_1">
   <g id="patch_2">
    <path d="M 10.8 334.8  L 447 334.8  L 447 18.064532  L 10.8 18.064532  L 10.8 334.8  z " style="fill: none"/>
   </g>
   <g id="matplotlib.axis_1">
    <g id="text_1">
     <!-- $x$ -->
     <g transform="translate(438.13055 191.501854) scale(0.16 -0.16)">
      <defs>
       <path id="CMMI12-78" d="M 3034 2606  C 2829 2567 2752 2414 2752 2293  C 2752 2139 2874 2088 2963 2088  C 3155 2088 3290 2254 3290 2427  C 3290 2695 2982 2816 2714 2816  C 2323 2816 2106 2433 2048 2312  C 1901 2816 1504 2816 1389 2816  C 736 2816 390 1980 390 1839  C 390 1814 416 1782 461 1782  C 512 1782 525 1820 538 1846  C 755 2555 1184 2689 1370 2689  C 1658 2689 1715 2420 1715 2267  C 1715 2127 1677 1980 1600 1673  L 1382 798  C 1286 415 1101 64 762 64  C 730 64 570 64 435 147  C 666 192 717 383 717 460  C 717 588 621 664 499 664  C 346 664 179 530 179 326  C 179 57 480 -64 755 -64  C 1062 -64 1280 179 1414 441  C 1517 64 1837 -64 2074 -64  C 2726 -64 3072 773 3072 913  C 3072 945 3046 971 3008 971  C 2950 971 2944 939 2925 888  C 2752 326 2381 64 2093 64  C 1869 64 1747 230 1747 492  C 1747 632 1773 734 1875 1156  L 2099 2024  C 2195 2408 2413 2689 2707 2689  C 2720 2689 2899 2689 3034 2606  z " transform="scale(0.015625)"/>
      </defs>
      <use xlink:href="#CMMI12-78" transform="scale(0.996264)"/>
     </g>
    </g>
   </g>
   <g id="matplotlib.axis_2">
    <g id="text_2">
     <!-- $y$ -->
     <g transform="translate(217.289729 14.965056) scale(0.16 -0.16)">
      <defs>
       <path id="CMMI12-79" d="M 1683 -700  C 1510 -939 1261 -1152 947 -1152  C 870 -1152 563 -1152 467 -889  C 486 -895 518 -895 531 -895  C 723 -895 851 -729 851 -582  C 851 -435 730 -384 634 -384  C 531 -384 307 -458 307 -759  C 307 -1071 582 -1286 947 -1286  C 1587 -1286 2234 -700 2413 6  L 3040 2485  C 3046 2517 3059 2556 3059 2594  C 3059 2689 2982 2753 2886 2753  C 2829 2753 2694 2727 2643 2535  L 2170 658  C 2138 543 2138 530 2086 460  C 1958 281 1747 64 1440 64  C 1082 64 1050 415 1050 588  C 1050 952 1222 1443 1395 1903  C 1466 2088 1504 2178 1504 2305  C 1504 2574 1312 2816 998 2816  C 410 2816 173 1890 173 1839  C 173 1814 198 1782 243 1782  C 301 1782 307 1807 333 1897  C 486 2433 730 2689 979 2689  C 1037 2689 1146 2689 1146 2478  C 1146 2312 1075 2127 979 1884  C 666 1047 666 837 666 683  C 666 77 1101 -64 1421 -64  C 1606 -64 1837 -6 2061 230  L 2067 224  C 1971 -147 1907 -392 1683 -700  z " transform="scale(0.015625)"/>
      </defs>
      <use xlink:href="#CMMI12-79" transform="scale(0.996264)"/>
     </g>
    </g>
   </g>
   <g id="line2d_1">
    <defs>
     <path id="me875a6bf67" d="M 3 0  L -3 -3  L -3 3  z " style="stroke: #000000; stroke-linejoin: miter"/>
    </defs>
    <g>
     <use xlink:href="#me875a6bf67" x="447" y="176.432266" style="stroke: #000000; stroke-linejoin: miter"/>
    </g>
   </g>
   <g id="line2d_2">
    <defs>
     <path id="m3c178615fd" d="M 0 -3  L -3 3  L 3 3  z " style="stroke: #000000; stroke-linejoin: miter"/>
    </defs>
    <g>
     <use xlink:href="#m3c178615fd" x="228.9" y="18.064532" style="stroke: #000000; stroke-linejoin: miter"/>
    </g>
   </g>
   <g id="line2d_3">
    <path d="M 10.643656 59.026322  L 34.407957 66.721586  L 53.794624 72.774469  L 70.054409 77.623986  L 83.5 81.411626  L 95.069462 84.44597  L 104.762796 86.769719  L 113.205376 88.575602  L 120.709892 89.955187  L 127.276344 90.934046  L 132.904731 91.553569  L 137.907742 91.886911  L 142.285376 91.967007  L 146.350323 91.820099  L 149.789892 91.489831  L 152.916774 90.988617  L 156.043656 90.253622  L 158.857849 89.347995  L 161.359355 88.306208  L 163.548172 87.174011  L 165.736989 85.794326  L 167.613118 84.376509  L 169.489247 82.699026  L 171.365376 80.710514  L 173.241505 78.345108  L 174.804946 76.024852  L 176.368387 73.319545  L 177.931828 70.146677  L 179.495269 66.398347  L 181.05871 61.930692  L 182.309462 57.709174  L 183.560215 52.76833  L 184.810968 46.928329  L 186.06172 39.943945  L 187.312473 31.471865  L 188.563226 21.016189  L 189.50129 11.438785  L 190.501723 -1  L 190.501723 -1  " clip-path="url(#p4fcffeff7c)" style="fill: none; stroke: #0072b2; stroke-opacity: 0.9; stroke-width: 2.5; stroke-linecap: square"/>
   </g>
   <g id="line2d_4">
    <path d="M 205.664009 346.6  L 206.10219 331.969107  L 206.841271 311.659817  L 207.949892 288.210981  L 209.058514 270.486465  L 210.167136 256.64631  L 211.275758 245.562797  L 212.384379 236.506227  L 213.493001 228.98356  L 214.601623 222.649669  L 216.079785 215.633411  L 217.557947 209.875973  L 219.036109 205.086859  L 220.514272 201.058571  L 221.992434 197.638943  L 223.470596 194.713852  L 224.948759 192.196026  L 226.796461 189.51947  L 228.644164 187.272066  L 230.491867 185.376256  L 232.33957 183.772111  L 234.556813 182.166601  L 236.774057 180.850352  L 238.9913 179.774244  L 241.578084 178.771263  L 244.164868 177.994866  L 247.121193 177.337317  L 250.447058 176.839204  L 254.142463 176.530691  L 258.20741 176.432588  L 262.641896 176.557868  L 267.445924 176.91332  L 272.989032 177.550053  L 279.271222 178.50375  L 286.292493 179.797841  L 294.422385 181.529007  L 303.660899 183.728217  L 314.377576 186.512674  L 326.941955 190.014763  L 341.723578 194.375087  L 359.091984 199.737149  L 379.786256 206.363812  L 404.915015 214.651021  L 435.586882 225.007827  L 447.042639 228.92561  L 447.042639 228.92561  " clip-path="url(#p4fcffeff7c)" style="fill: none; stroke: #0072b2; stroke-opacity: 0.9; stroke-width: 2.5; stroke-linecap: square"/>
   </g>
   <g id="LineCollection_1">
    <path d="M 199.82 346.6  L 199.82 -1  " clip-path="url(#p4fcffeff7c)" style="fill: none; stroke-dasharray: 7.4,3.2; stroke-dashoffset: 0; stroke: #dc5e8b; stroke-width: 2"/>
   </g>
   <g id="line2d_5">
    <path d="M 10.302542 65.394244  L 447.497458 224.123195  L 447.497458 224.123195  " clip-path="url(#p4fcffeff7c)" style="fill: none; stroke-dasharray: 7.4,3.2; stroke-dashoffset: 0; stroke: #dc5e8b; stroke-width: 2"/>
   </g>
   <g id="line2d_6">
    <defs>
     <path id="m8f25a8b1a1" d="M 0 4  C 1.060812 4 2.078319 3.578535 2.828427 2.828427  C 3.578535 2.078319 4 1.060812 4 0  C 4 -1.060812 3.578535 -2.078319 2.828427 -2.828427  C 2.078319 -3.578535 1.060812 -4 0 -4  C -1.060812 -4 -2.078319 -3.578535 -2.828427 -2.828427  C -3.578535 -2.078319 -4 -1.060812 -4 0  C -4 1.060812 -3.578535 2.078319 -2.828427 2.828427  C -2.078319 3.578535 -1.060812 4 0 4  z " style="stroke: #000000; stroke-opacity: 0.7"/>
    </defs>
    <g clip-path="url(#p4fcffeff7c)">
     <use xlink:href="#m8f25a8b1a1" x="257.98" y="176.432266" style="fill-opacity: 0.7; stroke: #000000; stroke-opacity: 0.7"/>
    </g>
   </g>
   <g id="patch_3">
    <path d="M 228.9 334.8  L 228.9 18.064532  " style="fill: none; stroke: #000000; stroke-width: 0.8; stroke-linejoin: miter; stroke-linecap: square"/>
   </g>
   <g id="patch_4">
    <path d="M 447 334.8  L 447 18.064532  " style="fill: none"/>
   </g>
   <g id="patch_5">
    <path d="M 10.8 176.432266  L 447 176.432266  " style="fill: none; stroke: #000000; stroke-width: 0.8; stroke-linejoin: miter; stroke-linecap: square"/>
   </g>
   <g id="patch_6">
    <path d="M 10.8 18.064532  L 447 18.064532  " style="fill: none"/>
   </g>
   <g id="legend_1">
    <g id="patch_7">
     <path d="M 373.547103 53.164008  L 435.8 53.164008  Q 439 53.164008 439 49.964008  L 439 29.264532  Q 439 26.064532 435.8 26.064532  L 373.547103 26.064532  Q 370.347103 26.064532 370.347103 29.264532  L 370.347103 49.964008  Q 370.347103 53.164008 373.547103 53.164008  z " style="fill: #ffffff; opacity: 0.8; stroke: #cccccc; stroke-linejoin: miter"/>
    </g>
    <g id="line2d_7">
     <path d="M 376.747103 38.064532  L 392.747103 38.064532  L 408.747103 38.064532  " style="fill: none; stroke: #0072b2; stroke-opacity: 0.9; stroke-width: 2.5; stroke-linecap: square"/>
    </g>
    <g id="text_3">
     <!-- $\mathrm{B}$ -->
     <g transform="translate(421.547103 43.664532) scale(0.16 -0.16)">
      <defs>
       <path id="CMR17-42" d="M 333 4352  L 333 4186  C 774 4186 845 4186 845 3900  L 845 452  C 845 166 774 166 333 166  L 333 0  L 2534 0  C 3354 0 3885 583 3885 1164  C 3885 1741 3360 2233 2675 2233  C 3290 2356 3718 2771 3718 3264  C 3718 3802 3194 4352 2368 4352  L 333 4352  z M 1248 2304  L 1248 3937  C 1248 4155 1261 4186 1517 4186  L 2336 4186  C 2970 4186 3251 3674 3251 3277  C 3251 2791 2861 2304 2170 2304  L 1248 2304  z M 1517 166  C 1261 166 1248 197 1248 413  L 1248 2202  L 2432 2202  C 3091 2202 3411 1625 3411 1162  C 3411 699 3046 166 2349 166  L 1517 166  z " transform="scale(0.015625)"/>
      </defs>
      <use xlink:href="#CMR17-42" transform="scale(0.996264)"/>
     </g>
    </g>
   </g>
  </g>
 </g>
 <defs>
  <clipPath id="p4fcffeff7c">
   <rect x="10.8" y="18.064532" width="436.2" height="316.735468"/>
  </clipPath>
 </defs>
</g>
    <g transform="translate(0, 432.00000000000006) scale(1 1) translate(0, 0) scale(1.25 1.25) "><metadata>
  <rdf:RDF xmlns:dc="http://purl.org/dc/elements/1.1/" xmlns:cc="http://creativecommons.org/ns#" xmlns:rdf="http://www.w3.org/1999/02/22-rdf-syntax-ns#">
   <cc:Work>
    <dc:type rdf:resource="http://purl.org/dc/dcmitype/StillImage"/>
    <dc:date>2025-04-19T00:24:04.090657</dc:date>
    <dc:format>image/svg+xml</dc:format>
    <dc:creator>
     <cc:Agent>
      <dc:title>Matplotlib v3.9.1, https://matplotlib.org/</dc:title>
     </cc:Agent>
    </dc:creator>
   </cc:Work>
  </rdf:RDF>
 </metadata>
 <defs>
  <style type="text/css">*{stroke-linejoin: round; stroke-linecap: butt}</style>
 </defs>
 <g id="figure_1">
  <g id="patch_1">
   <path d="M 0 345.6  L 460.8 345.6  L 460.8 0  L 0 0  L 0 345.6  z " style="fill: none"/>
  </g>
  <g id="axes_1">
   <g id="patch_2">
    <path d="M 10.8 334.8  L 447 334.8  L 447 18.064532  L 10.8 18.064532  L 10.8 334.8  z " style="fill: none"/>
   </g>
   <g id="matplotlib.axis_1">
    <g id="text_1">
     <!-- $x$ -->
     <g transform="translate(438.13055 191.501854) scale(0.16 -0.16)">
      <defs>
       <path id="CMMI12-78" d="M 3034 2606  C 2829 2567 2752 2414 2752 2293  C 2752 2139 2874 2088 2963 2088  C 3155 2088 3290 2254 3290 2427  C 3290 2695 2982 2816 2714 2816  C 2323 2816 2106 2433 2048 2312  C 1901 2816 1504 2816 1389 2816  C 736 2816 390 1980 390 1839  C 390 1814 416 1782 461 1782  C 512 1782 525 1820 538 1846  C 755 2555 1184 2689 1370 2689  C 1658 2689 1715 2420 1715 2267  C 1715 2127 1677 1980 1600 1673  L 1382 798  C 1286 415 1101 64 762 64  C 730 64 570 64 435 147  C 666 192 717 383 717 460  C 717 588 621 664 499 664  C 346 664 179 530 179 326  C 179 57 480 -64 755 -64  C 1062 -64 1280 179 1414 441  C 1517 64 1837 -64 2074 -64  C 2726 -64 3072 773 3072 913  C 3072 945 3046 971 3008 971  C 2950 971 2944 939 2925 888  C 2752 326 2381 64 2093 64  C 1869 64 1747 230 1747 492  C 1747 632 1773 734 1875 1156  L 2099 2024  C 2195 2408 2413 2689 2707 2689  C 2720 2689 2899 2689 3034 2606  z " transform="scale(0.015625)"/>
      </defs>
      <use xlink:href="#CMMI12-78" transform="scale(0.996264)"/>
     </g>
    </g>
   </g>
   <g id="matplotlib.axis_2">
    <g id="text_2">
     <!-- $y$ -->
     <g transform="translate(217.289729 14.965056) scale(0.16 -0.16)">
      <defs>
       <path id="CMMI12-79" d="M 1683 -700  C 1510 -939 1261 -1152 947 -1152  C 870 -1152 563 -1152 467 -889  C 486 -895 518 -895 531 -895  C 723 -895 851 -729 851 -582  C 851 -435 730 -384 634 -384  C 531 -384 307 -458 307 -759  C 307 -1071 582 -1286 947 -1286  C 1587 -1286 2234 -700 2413 6  L 3040 2485  C 3046 2517 3059 2556 3059 2594  C 3059 2689 2982 2753 2886 2753  C 2829 2753 2694 2727 2643 2535  L 2170 658  C 2138 543 2138 530 2086 460  C 1958 281 1747 64 1440 64  C 1082 64 1050 415 1050 588  C 1050 952 1222 1443 1395 1903  C 1466 2088 1504 2178 1504 2305  C 1504 2574 1312 2816 998 2816  C 410 2816 173 1890 173 1839  C 173 1814 198 1782 243 1782  C 301 1782 307 1807 333 1897  C 486 2433 730 2689 979 2689  C 1037 2689 1146 2689 1146 2478  C 1146 2312 1075 2127 979 1884  C 666 1047 666 837 666 683  C 666 77 1101 -64 1421 -64  C 1606 -64 1837 -6 2061 230  L 2067 224  C 1971 -147 1907 -392 1683 -700  z " transform="scale(0.015625)"/>
      </defs>
      <use xlink:href="#CMMI12-79" transform="scale(0.996264)"/>
     </g>
    </g>
   </g>
   <g id="line2d_1">
    <defs>
     <path id="mc607769b8f" d="M 3 0  L -3 -3  L -3 3  z " style="stroke: #000000; stroke-linejoin: miter"/>
    </defs>
    <g>
     <use xlink:href="#mc607769b8f" x="447" y="176.432266" style="stroke: #000000; stroke-linejoin: miter"/>
    </g>
   </g>
   <g id="line2d_2">
    <defs>
     <path id="mdec56c023e" d="M 0 -3  L -3 3  L 3 3  z " style="stroke: #000000; stroke-linejoin: miter"/>
    </defs>
    <g>
     <use xlink:href="#mdec56c023e" x="228.9" y="18.064532" style="stroke: #000000; stroke-linejoin: miter"/>
    </g>
   </g>
   <g id="line2d_3">
    <path d="M 10.757361 228.92561  L 45.863715 217.001974  L 73.948798 207.68891  L 96.860313 200.319555  L 115.706882 194.486774  L 131.227586 189.908762  L 144.161505 186.313954  L 155.247722 183.453344  L 164.855777 181.198399  L 172.98567 179.508169  L 180.00694 178.260112  L 186.28913 177.359456  L 191.832239 176.782466  L 196.636266 176.492257  L 201.070753 176.442246  L 205.135699 176.626401  L 208.831105 177.032089  L 212.15697 177.638174  L 215.113294 178.413168  L 217.700078 179.31385  L 220.286862 180.467059  L 222.504106 181.698389  L 224.721349 183.201229  L 226.569052 184.702481  L 228.416755 186.475242  L 230.264457 188.573816  L 232.11216 191.068019  L 233.590323 193.408658  L 235.068485 196.120562  L 236.546647 199.280545  L 238.024809 202.988179  L 239.502972 207.374901  L 240.981134 212.617864  L 242.089756 217.255738  L 243.198377 222.649669  L 244.306999 228.98356  L 245.415621 236.506227  L 246.524242 245.562797  L 247.632864 256.64631  L 248.741486 270.486465  L 249.850108 288.210981  L 250.589189 303.048494  L 251.32827 321.242861  L 252.135991 346.6  L 252.135991 346.6  " clip-path="url(#p52181bbb8f)" style="fill: none; stroke: #0072b2; stroke-opacity: 0.9; stroke-width: 2.5; stroke-linecap: square"/>
   </g>
   <g id="line2d_4">
    <path d="M 267.298277 -1  L 267.986022 7.833068  L 269.236774 21.016189  L 270.487527 31.471865  L 271.73828 39.943945  L 272.989032 46.928329  L 274.239785 52.76833  L 275.490538 57.709174  L 277.053978 62.890259  L 278.617419 67.200328  L 280.18086 70.823397  L 281.744301 73.895059  L 283.307742 76.517426  L 284.871183 78.768863  L 286.747312 81.066114  L 288.623441 82.998663  L 290.49957 84.62963  L 292.688387 86.216506  L 294.877204 87.520824  L 297.37871 88.725896  L 299.880215 89.678637  L 302.694409 90.501585  L 305.82129 91.161442  L 309.26086 91.634437  L 313.013118 91.904972  L 317.078065 91.964069  L 321.455699 91.807855  L 326.45871 91.404959  L 332.087097 90.723571  L 338.34086 89.742701  L 345.532688 88.386942  L 353.662581 86.62711  L 363.043226 84.367337  L 373.987312 81.496693  L 386.807527 77.895649  L 401.816559 73.441166  L 419.639785 67.911562  L 440.902581 61.074886  L 447.156344 59.026322  L 447.156344 59.026322  " clip-path="url(#p52181bbb8f)" style="fill: none; stroke: #0072b2; stroke-opacity: 0.9; stroke-width: 2.5; stroke-linecap: square"/>
   </g>
   <g id="LineCollection_1">
    <path d="M 257.98 346.6  L 257.98 -1  " clip-path="url(#p52181bbb8f)" style="fill: none; stroke-dasharray: 7.4,3.2; stroke-dashoffset: 0; stroke: #dc5e8b; stroke-width: 2"/>
   </g>
   <g id="line2d_5">
    <path d="M 10.302542 224.123195  L 447.497458 65.394244  L 447.497458 65.394244  " clip-path="url(#p52181bbb8f)" style="fill: none; stroke-dasharray: 7.4,3.2; stroke-dashoffset: 0; stroke: #dc5e8b; stroke-width: 2"/>
   </g>
   <g id="line2d_6">
    <defs>
     <path id="mc834411658" d="M 0 4  C 1.060812 4 2.078319 3.578535 2.828427 2.828427  C 3.578535 2.078319 4 1.060812 4 0  C 4 -1.060812 3.578535 -2.078319 2.828427 -2.828427  C 2.078319 -3.578535 1.060812 -4 0 -4  C -1.060812 -4 -2.078319 -3.578535 -2.828427 -2.828427  C -3.578535 -2.078319 -4 -1.060812 -4 0  C -4 1.060812 -3.578535 2.078319 -2.828427 2.828427  C -2.078319 3.578535 -1.060812 4 0 4  z " style="stroke: #000000; stroke-opacity: 0.7"/>
    </defs>
    <g clip-path="url(#p52181bbb8f)">
     <use xlink:href="#mc834411658" x="199.82" y="176.432266" style="fill-opacity: 0.7; stroke: #000000; stroke-opacity: 0.7"/>
    </g>
   </g>
   <g id="patch_3">
    <path d="M 228.9 334.8  L 228.9 18.064532  " style="fill: none; stroke: #000000; stroke-width: 0.8; stroke-linejoin: miter; stroke-linecap: square"/>
   </g>
   <g id="patch_4">
    <path d="M 447 334.8  L 447 18.064532  " style="fill: none"/>
   </g>
   <g id="patch_5">
    <path d="M 10.8 176.432266  L 447 176.432266  " style="fill: none; stroke: #000000; stroke-width: 0.8; stroke-linejoin: miter; stroke-linecap: square"/>
   </g>
   <g id="patch_6">
    <path d="M 10.8 18.064532  L 447 18.064532  " style="fill: none"/>
   </g>
   <g id="legend_1">
    <g id="patch_7">
     <path d="M 373.327574 53.164008  L 435.8 53.164008  Q 439 53.164008 439 49.964008  L 439 29.264532  Q 439 26.064532 435.8 26.064532  L 373.327574 26.064532  Q 370.127574 26.064532 370.127574 29.264532  L 370.127574 49.964008  Q 370.127574 53.164008 373.327574 53.164008  z " style="fill: #ffffff; opacity: 0.8; stroke: #cccccc; stroke-linejoin: miter"/>
    </g>
    <g id="line2d_7">
     <path d="M 376.527574 38.064532  L 392.527574 38.064532  L 408.527574 38.064532  " style="fill: none; stroke: #0072b2; stroke-opacity: 0.9; stroke-width: 2.5; stroke-linecap: square"/>
    </g>
    <g id="text_3">
     <!-- $\mathrm{C}$ -->
     <g transform="translate(421.327574 43.664532) scale(0.16 -0.16)">
      <defs>
       <path id="CMR17-43" d="M 3974 4289  C 3974 4403 3968 4410 3930 4410  C 3904 4410 3898 4403 3853 4327  L 3571 3792  C 3258 4187 2874 4416 2381 4416  C 1286 4416 294 3456 294 2148  C 294 826 1286 -128 2387 -128  C 3366 -128 3974 730 3974 1461  C 3974 1524 3974 1550 3917 1550  C 3866 1550 3866 1531 3859 1474  C 3808 585 3168 38 2477 38  C 1824 38 781 495 781 2147  C 781 3805 1843 4250 2464 4250  C 3187 4250 3712 3628 3834 2745  C 3846 2668 3846 2655 3904 2655  C 3974 2655 3974 2668 3974 2783  L 3974 4289  z " transform="scale(0.015625)"/>
      </defs>
      <use xlink:href="#CMR17-43" transform="scale(0.996264)"/>
     </g>
    </g>
   </g>
  </g>
 </g>
 <defs>
  <clipPath id="p52181bbb8f">
   <rect x="10.8" y="18.064532" width="436.2" height="316.735468"/>
  </clipPath>
 </defs>
</g>
    <g transform="translate(576.0, 432.00000000000006) scale(1 1) translate(0, 0) scale(1.25 1.25) "><metadata>
  <rdf:RDF xmlns:dc="http://purl.org/dc/elements/1.1/" xmlns:cc="http://creativecommons.org/ns#" xmlns:rdf="http://www.w3.org/1999/02/22-rdf-syntax-ns#">
   <cc:Work>
    <dc:type rdf:resource="http://purl.org/dc/dcmitype/StillImage"/>
    <dc:date>2025-04-19T00:24:06.040732</dc:date>
    <dc:format>image/svg+xml</dc:format>
    <dc:creator>
     <cc:Agent>
      <dc:title>Matplotlib v3.9.1, https://matplotlib.org/</dc:title>
     </cc:Agent>
    </dc:creator>
   </cc:Work>
  </rdf:RDF>
 </metadata>
 <defs>
  <style type="text/css">*{stroke-linejoin: round; stroke-linecap: butt}</style>
 </defs>
 <g id="figure_1">
  <g id="patch_1">
   <path d="M 0 345.6  L 460.8 345.6  L 460.8 0  L 0 0  L 0 345.6  z " style="fill: none"/>
  </g>
  <g id="axes_1">
   <g id="patch_2">
    <path d="M 10.8 334.8  L 447 334.8  L 447 18.064532  L 10.8 18.064532  L 10.8 334.8  z " style="fill: none"/>
   </g>
   <g id="matplotlib.axis_1">
    <g id="text_1">
     <!-- $x$ -->
     <g transform="translate(438.13055 191.501854) scale(0.16 -0.16)">
      <defs>
       <path id="CMMI12-78" d="M 3034 2606  C 2829 2567 2752 2414 2752 2293  C 2752 2139 2874 2088 2963 2088  C 3155 2088 3290 2254 3290 2427  C 3290 2695 2982 2816 2714 2816  C 2323 2816 2106 2433 2048 2312  C 1901 2816 1504 2816 1389 2816  C 736 2816 390 1980 390 1839  C 390 1814 416 1782 461 1782  C 512 1782 525 1820 538 1846  C 755 2555 1184 2689 1370 2689  C 1658 2689 1715 2420 1715 2267  C 1715 2127 1677 1980 1600 1673  L 1382 798  C 1286 415 1101 64 762 64  C 730 64 570 64 435 147  C 666 192 717 383 717 460  C 717 588 621 664 499 664  C 346 664 179 530 179 326  C 179 57 480 -64 755 -64  C 1062 -64 1280 179 1414 441  C 1517 64 1837 -64 2074 -64  C 2726 -64 3072 773 3072 913  C 3072 945 3046 971 3008 971  C 2950 971 2944 939 2925 888  C 2752 326 2381 64 2093 64  C 1869 64 1747 230 1747 492  C 1747 632 1773 734 1875 1156  L 2099 2024  C 2195 2408 2413 2689 2707 2689  C 2720 2689 2899 2689 3034 2606  z " transform="scale(0.015625)"/>
      </defs>
      <use xlink:href="#CMMI12-78" transform="scale(0.996264)"/>
     </g>
    </g>
   </g>
   <g id="matplotlib.axis_2">
    <g id="text_2">
     <!-- $y$ -->
     <g transform="translate(217.289729 14.965056) scale(0.16 -0.16)">
      <defs>
       <path id="CMMI12-79" d="M 1683 -700  C 1510 -939 1261 -1152 947 -1152  C 870 -1152 563 -1152 467 -889  C 486 -895 518 -895 531 -895  C 723 -895 851 -729 851 -582  C 851 -435 730 -384 634 -384  C 531 -384 307 -458 307 -759  C 307 -1071 582 -1286 947 -1286  C 1587 -1286 2234 -700 2413 6  L 3040 2485  C 3046 2517 3059 2556 3059 2594  C 3059 2689 2982 2753 2886 2753  C 2829 2753 2694 2727 2643 2535  L 2170 658  C 2138 543 2138 530 2086 460  C 1958 281 1747 64 1440 64  C 1082 64 1050 415 1050 588  C 1050 952 1222 1443 1395 1903  C 1466 2088 1504 2178 1504 2305  C 1504 2574 1312 2816 998 2816  C 410 2816 173 1890 173 1839  C 173 1814 198 1782 243 1782  C 301 1782 307 1807 333 1897  C 486 2433 730 2689 979 2689  C 1037 2689 1146 2689 1146 2478  C 1146 2312 1075 2127 979 1884  C 666 1047 666 837 666 683  C 666 77 1101 -64 1421 -64  C 1606 -64 1837 -6 2061 230  L 2067 224  C 1971 -147 1907 -392 1683 -700  z " transform="scale(0.015625)"/>
      </defs>
      <use xlink:href="#CMMI12-79" transform="scale(0.996264)"/>
     </g>
    </g>
   </g>
   <g id="line2d_1">
    <defs>
     <path id="m9e1786fd3a" d="M 3 0  L -3 -3  L -3 3  z " style="stroke: #000000; stroke-linejoin: miter"/>
    </defs>
    <g>
     <use xlink:href="#m9e1786fd3a" x="447" y="176.432266" style="stroke: #000000; stroke-linejoin: miter"/>
    </g>
   </g>
   <g id="line2d_2">
    <defs>
     <path id="m39d46fa2ad" d="M 0 -3  L -3 3  L 3 3  z " style="stroke: #000000; stroke-linejoin: miter"/>
    </defs>
    <g>
     <use xlink:href="#m39d46fa2ad" x="228.9" y="18.064532" style="stroke: #000000; stroke-linejoin: miter"/>
    </g>
   </g>
   <g id="line2d_3">
    <path d="M 10.757361 123.938923  L 45.863715 135.862559  L 73.948798 145.175623  L 96.860313 152.544977  L 115.706882 158.377758  L 131.227586 162.95577  L 144.161505 166.550579  L 155.247722 169.411188  L 164.855777 171.666133  L 172.98567 173.356363  L 180.00694 174.60442  L 186.28913 175.505076  L 191.832239 176.082066  L 196.636266 176.372275  L 201.070753 176.422286  L 205.135699 176.238131  L 208.831105 175.832443  L 212.15697 175.226358  L 215.113294 174.451364  L 217.700078 173.550682  L 220.286862 172.397473  L 222.504106 171.166143  L 224.721349 169.663303  L 226.569052 168.162052  L 228.416755 166.38929  L 230.264457 164.290716  L 232.11216 161.796513  L 233.590323 159.455874  L 235.068485 156.74397  L 236.546647 153.583987  L 238.024809 149.876353  L 239.502972 145.489631  L 240.981134 140.246669  L 242.089756 135.608794  L 243.198377 130.214864  L 244.306999 123.880972  L 245.415621 116.358305  L 246.524242 107.301736  L 247.632864 96.218223  L 248.741486 82.378067  L 249.850108 64.653551  L 250.589189 49.816038  L 251.32827 31.621671  L 252.067351 8.811628  L 252.331759 -1  L 252.331759 -1  " clip-path="url(#p001ef3bff5)" style="fill: none; stroke: #0072b2; stroke-opacity: 0.9; stroke-width: 2.5; stroke-linecap: square"/>
   </g>
   <g id="line2d_4">
    <path d="M 267.858485 346.6  L 268.924086 334.851897  L 270.174839 323.796783  L 271.425591 314.882918  L 272.676344 307.5636  L 273.927097 301.463642  L 275.177849 296.317002  L 276.74129 290.933841  L 278.304731 286.466185  L 279.868172 282.717856  L 281.431613 279.544987  L 282.995054 276.83968  L 284.558495 274.519424  L 286.434624 272.154018  L 288.310753 270.165507  L 290.186882 268.488024  L 292.375699 266.856166  L 294.564516 265.514662  L 296.753333 264.41434  L 299.254839 263.402934  L 302.069032 262.525473  L 304.883226 261.875916  L 308.010108 261.374702  L 311.449677 261.044433  L 315.201935 260.900641  L 319.57957 260.964786  L 324.269892 261.257053  L 329.585591 261.811687  L 335.526667 262.654699  L 342.405806 263.861851  L 350.223011 265.467239  L 359.290968 267.56782  L 369.609677 270.193635  L 381.491828 273.449227  L 395.562796 277.540956  L 412.135269 282.598185  L 431.834624 288.847589  L 447.156344 293.838211  L 447.156344 293.838211  " clip-path="url(#p001ef3bff5)" style="fill: none; stroke: #0072b2; stroke-opacity: 0.9; stroke-width: 2.5; stroke-linecap: square"/>
   </g>
   <g id="LineCollection_1">
    <path d="M 257.98 346.6  L 257.98 -1  " clip-path="url(#p001ef3bff5)" style="fill: none; stroke-dasharray: 7.4,3.2; stroke-dashoffset: 0; stroke: #dc5e8b; stroke-width: 2"/>
   </g>
   <g id="line2d_5">
    <path d="M 10.302542 128.741338  L 447.497458 287.470288  L 447.497458 287.470288  " clip-path="url(#p001ef3bff5)" style="fill: none; stroke-dasharray: 7.4,3.2; stroke-dashoffset: 0; stroke: #dc5e8b; stroke-width: 2"/>
   </g>
   <g id="line2d_6">
    <defs>
     <path id="md9e532464e" d="M 0 4  C 1.060812 4 2.078319 3.578535 2.828427 2.828427  C 3.578535 2.078319 4 1.060812 4 0  C 4 -1.060812 3.578535 -2.078319 2.828427 -2.828427  C 2.078319 -3.578535 1.060812 -4 0 -4  C -1.060812 -4 -2.078319 -3.578535 -2.828427 -2.828427  C -3.578535 -2.078319 -4 -1.060812 -4 0  C -4 1.060812 -3.578535 2.078319 -2.828427 2.828427  C -2.078319 3.578535 -1.060812 4 0 4  z " style="stroke: #000000; stroke-opacity: 0.7"/>
    </defs>
    <g clip-path="url(#p001ef3bff5)">
     <use xlink:href="#md9e532464e" x="199.82" y="176.432266" style="fill-opacity: 0.7; stroke: #000000; stroke-opacity: 0.7"/>
    </g>
   </g>
   <g id="patch_3">
    <path d="M 228.9 334.8  L 228.9 18.064532  " style="fill: none; stroke: #000000; stroke-width: 0.8; stroke-linejoin: miter; stroke-linecap: square"/>
   </g>
   <g id="patch_4">
    <path d="M 447 334.8  L 447 18.064532  " style="fill: none"/>
   </g>
   <g id="patch_5">
    <path d="M 10.8 176.432266  L 447 176.432266  " style="fill: none; stroke: #000000; stroke-width: 0.8; stroke-linejoin: miter; stroke-linecap: square"/>
   </g>
   <g id="patch_6">
    <path d="M 10.8 18.064532  L 447 18.064532  " style="fill: none"/>
   </g>
   <g id="legend_1">
    <g id="patch_7">
     <path d="M 372.679994 53.164008  L 435.8 53.164008  Q 439 53.164008 439 49.964008  L 439 29.264532  Q 439 26.064532 435.8 26.064532  L 372.679994 26.064532  Q 369.479994 26.064532 369.479994 29.264532  L 369.479994 49.964008  Q 369.479994 53.164008 372.679994 53.164008  z " style="fill: #ffffff; opacity: 0.8; stroke: #cccccc; stroke-linejoin: miter"/>
    </g>
    <g id="line2d_7">
     <path d="M 375.879994 38.064532  L 391.879994 38.064532  L 407.879994 38.064532  " style="fill: none; stroke: #0072b2; stroke-opacity: 0.9; stroke-width: 2.5; stroke-linecap: square"/>
    </g>
    <g id="text_3">
     <!-- $\mathrm{D}$ -->
     <g transform="translate(420.679994 43.664532) scale(0.16 -0.16)">
      <defs>
       <path id="CMR17-44" d="M 333 4352  L 333 4186  C 774 4186 845 4186 845 3900  L 845 452  C 845 166 774 166 333 166  L 333 0  L 2368 0  C 3398 0 4224 943 4224 2141  C 4224 3346 3411 4352 2368 4352  L 333 4352  z M 1523 166  C 1267 166 1254 197 1254 414  L 1254 3938  C 1254 4155 1267 4186 1523 4186  L 2240 4186  C 2771 4186 3750 3874 3750 2141  C 3750 1242 3488 879 3366 707  C 3213 510 2848 166 2240 166  L 1523 166  z " transform="scale(0.015625)"/>
      </defs>
      <use xlink:href="#CMR17-44" transform="scale(0.996264)"/>
     </g>
    </g>
   </g>
  </g>
 </g>
 <defs>
  <clipPath id="p001ef3bff5">
   <rect x="10.8" y="18.064532" width="436.2" height="316.735468"/>
  </clipPath>
 </defs>
</g>
  </g>
</svg>
