<?xml version='1.0' encoding='ASCII' standalone='yes'?>
<svg xmlns="http://www.w3.org/2000/svg" xmlns:xlink="http://www.w3.org/1999/xlink" version="1.1" width="1152.0px" viewBox="0 0 1152.0 864.0000000000001" height="864.0000000000001px">
  <g>
    <g transform="translate(0, 0) scale(1 1) translate(0, 0) scale(1.25 1.25) "><metadata>
  <rdf:RDF xmlns:dc="http://purl.org/dc/elements/1.1/" xmlns:cc="http://creativecommons.org/ns#" xmlns:rdf="http://www.w3.org/1999/02/22-rdf-syntax-ns#">
   <cc:Work>
    <dc:type rdf:resource="http://purl.org/dc/dcmitype/StillImage"/>
    <dc:date>2025-08-02T20:06:28.790818</dc:date>
    <dc:format>image/svg+xml</dc:format>
    <dc:creator>
     <cc:Agent>
      <dc:title>Matplotlib v3.9.1, https://matplotlib.org/</dc:title>
     </cc:Agent>
    </dc:creator>
   </cc:Work>
  </rdf:RDF>
 </metadata>
 <defs>
  <style type="text/css">*{stroke-linejoin: round; stroke-linecap: butt}</style>
 </defs>
 <g id="figure_1">
  <g id="patch_1">
   <path d="M 0 345.6  L 460.8 345.6  L 460.8 0  L 0 0  L 0 345.6  z " style="fill: none"/>
  </g>
  <g id="axes_1">
   <g id="patch_2">
    <path d="M 10.8 334.8  L 447 334.8  L 447 18.064532  L 10.8 18.064532  L 10.8 334.8  z " style="fill: none"/>
   </g>
   <g id="matplotlib.axis_1">
    <g id="text_1">
     <!-- $x$ -->
     <g transform="translate(433.141493 197.72852) scale(0.25 -0.25)">
      <defs>
       <path id="CMMI12-78" d="M 3034 2606  C 2829 2567 2752 2414 2752 2293  C 2752 2139 2874 2088 2963 2088  C 3155 2088 3290 2254 3290 2427  C 3290 2695 2982 2816 2714 2816  C 2323 2816 2106 2433 2048 2312  C 1901 2816 1504 2816 1389 2816  C 736 2816 390 1980 390 1839  C 390 1814 416 1782 461 1782  C 512 1782 525 1820 538 1846  C 755 2555 1184 2689 1370 2689  C 1658 2689 1715 2420 1715 2267  C 1715 2127 1677 1980 1600 1673  L 1382 798  C 1286 415 1101 64 762 64  C 730 64 570 64 435 147  C 666 192 717 383 717 460  C 717 588 621 664 499 664  C 346 664 179 530 179 326  C 179 57 480 -64 755 -64  C 1062 -64 1280 179 1414 441  C 1517 64 1837 -64 2074 -64  C 2726 -64 3072 773 3072 913  C 3072 945 3046 971 3008 971  C 2950 971 2944 939 2925 888  C 2752 326 2381 64 2093 64  C 1869 64 1747 230 1747 492  C 1747 632 1773 734 1875 1156  L 2099 2024  C 2195 2408 2413 2689 2707 2689  C 2720 2689 2899 2689 3034 2606  z " transform="scale(0.015625)"/>
      </defs>
      <use xlink:href="#CMMI12-78" transform="scale(0.996264)"/>
     </g>
    </g>
   </g>
   <g id="matplotlib.axis_2">
    <g id="text_2">
     <!-- $y$ -->
     <g transform="translate(213.008953 13.219998) scale(0.25 -0.25)">
      <defs>
       <path id="CMMI12-79" d="M 1683 -700  C 1510 -939 1261 -1152 947 -1152  C 870 -1152 563 -1152 467 -889  C 486 -895 518 -895 531 -895  C 723 -895 851 -729 851 -582  C 851 -435 730 -384 634 -384  C 531 -384 307 -458 307 -759  C 307 -1071 582 -1286 947 -1286  C 1587 -1286 2234 -700 2413 6  L 3040 2485  C 3046 2517 3059 2556 3059 2594  C 3059 2689 2982 2753 2886 2753  C 2829 2753 2694 2727 2643 2535  L 2170 658  C 2138 543 2138 530 2086 460  C 1958 281 1747 64 1440 64  C 1082 64 1050 415 1050 588  C 1050 952 1222 1443 1395 1903  C 1466 2088 1504 2178 1504 2305  C 1504 2574 1312 2816 998 2816  C 410 2816 173 1890 173 1839  C 173 1814 198 1782 243 1782  C 301 1782 307 1807 333 1897  C 486 2433 730 2689 979 2689  C 1037 2689 1146 2689 1146 2478  C 1146 2312 1075 2127 979 1884  C 666 1047 666 837 666 683  C 666 77 1101 -64 1421 -64  C 1606 -64 1837 -6 2061 230  L 2067 224  C 1971 -147 1907 -392 1683 -700  z " transform="scale(0.015625)"/>
      </defs>
      <use xlink:href="#CMMI12-79" transform="scale(0.996264)"/>
     </g>
    </g>
   </g>
   <g id="line2d_1">
    <defs>
     <path id="m733117bc7c" d="M 3 0  L -3 -3  L -3 3  z " style="stroke: #000000; stroke-linejoin: miter"/>
    </defs>
    <g>
     <use xlink:href="#m733117bc7c" x="447" y="176.432266" style="stroke: #000000; stroke-linejoin: miter"/>
    </g>
   </g>
   <g id="line2d_2">
    <defs>
     <path id="ma0a68890ae" d="M 0 -3  L -3 3  L 3 3  z " style="stroke: #000000; stroke-linejoin: miter"/>
    </defs>
    <g>
     <use xlink:href="#ma0a68890ae" x="228.9" y="18.064532" style="stroke: #000000; stroke-linejoin: miter"/>
    </g>
   </g>
   <g id="line2d_3">
    <path d="M 89.922487 346.6  L 94.205275 327.821474  L 98.466081 310.108944  L 102.620366 293.770337  L 106.668132 278.734934  L 110.609377 264.933834  L 114.444103 252.299943  L 118.172308 240.767987  L 121.793993 230.274499  L 125.309158 220.75783  L 128.717802 212.158141  L 132.019927 204.417409  L 135.215531 197.479423  L 138.304615 191.289783  L 141.287179 185.795907  L 144.163223 180.947023  L 146.932747 176.694172  L 149.702271 172.84991  L 152.365275 169.538821  L 154.921758 166.715575  L 157.371722 164.336653  L 159.715165 162.360351  L 162.058608 160.676588  L 164.295531 159.342255  L 166.425934 158.319274  L 168.556337 157.538061  L 170.68674 156.998616  L 172.710623 156.710081  L 174.734505 156.639742  L 176.758388 156.787598  L 178.782271 157.15365  L 180.806154 157.737897  L 182.936557 158.588619  L 185.06696 159.681108  L 187.303883 161.088424  L 189.540806 162.76229  L 191.884249 164.801755  L 194.227692 167.133758  L 196.677656 169.884549  L 199.234139 173.095833  L 201.897143 176.811128  L 204.666667 181.075764  L 207.43619 185.748989  L 210.312234 191.034416  L 213.294799 196.981003  L 216.383883 203.639521  L 219.579487 211.062554  L 222.881612 219.304502  L 226.290256 228.421574  L 229.805421 238.471795  L 233.427106 249.515003  L 237.155311 261.612848  L 240.990037 274.828794  L 244.931282 289.22812  L 248.979048 304.877915  L 253.133333 321.847083  L 257.394139 340.206343  L 258.827507 346.6  L 258.827507 346.6  " clip-path="url(#p55b8581408)" style="fill: none; stroke: #0072b2; stroke-opacity: 0.9; stroke-width: 2.5; stroke-linecap: square"/>
   </g>
   <g id="patch_3">
    <path d="M 228.9 334.8  L 228.9 18.064532  " style="fill: none; stroke: #000000; stroke-width: 0.8; stroke-linejoin: miter; stroke-linecap: square"/>
   </g>
   <g id="patch_4">
    <path d="M 447 334.8  L 447 18.064532  " style="fill: none"/>
   </g>
   <g id="patch_5">
    <path d="M 10.8 176.432266  L 447 176.432266  " style="fill: none; stroke: #000000; stroke-width: 0.8; stroke-linejoin: miter; stroke-linecap: square"/>
   </g>
   <g id="patch_6">
    <path d="M 10.8 18.064532  L 447 18.064532  " style="fill: none"/>
   </g>
   <g id="legend_1">
    <g id="patch_7">
     <path d="M 333.945536 72.909067  L 429.5 72.909067  Q 434.5 72.909067 434.5 67.909067  L 434.5 35.564532  Q 434.5 30.564532 429.5 30.564532  L 333.945536 30.564532  Q 328.945536 30.564532 328.945536 35.564532  L 328.945536 67.909067  Q 328.945536 72.909067 333.945536 72.909067  z " style="fill: #ffffff; opacity: 0.8; stroke: #cccccc; stroke-linejoin: miter"/>
    </g>
    <g id="line2d_4">
     <path d="M 338.945536 49.314532  L 363.945536 49.314532  L 388.945536 49.314532  " style="fill: none; stroke: #0072b2; stroke-opacity: 0.9; stroke-width: 2.5; stroke-linecap: square"/>
    </g>
    <g id="text_3">
     <!-- A -->
     <g transform="translate(408.945536 58.064532) scale(0.25 -0.25)">
      <defs>
       <path id="CMSS17-41" d="M 2272 4416  L 1722 4416  L 166 0  L 653 0  L 1101 1280  L 2816 1280  L 3270 0  L 3827 0  L 2272 4416  z M 2694 1637  L 1222 1637  C 1530 2528 1914 3638 1958 3925  L 1965 3925  C 2010 3663 2138 3281 2246 2956  L 2694 1637  z " transform="scale(0.015625)"/>
      </defs>
      <use xlink:href="#CMSS17-41" transform="scale(0.996264)"/>
     </g>
    </g>
   </g>
  </g>
 </g>
 <defs>
  <clipPath id="p55b8581408">
   <rect x="10.8" y="18.064532" width="436.2" height="316.735468"/>
  </clipPath>
 </defs>
</g>
    <g transform="translate(576.0, 0) scale(1 1) translate(0, 0) scale(1.25 1.25) "><metadata>
  <rdf:RDF xmlns:dc="http://purl.org/dc/elements/1.1/" xmlns:cc="http://creativecommons.org/ns#" xmlns:rdf="http://www.w3.org/1999/02/22-rdf-syntax-ns#">
   <cc:Work>
    <dc:type rdf:resource="http://purl.org/dc/dcmitype/StillImage"/>
    <dc:date>2025-08-02T20:06:30.493016</dc:date>
    <dc:format>image/svg+xml</dc:format>
    <dc:creator>
     <cc:Agent>
      <dc:title>Matplotlib v3.9.1, https://matplotlib.org/</dc:title>
     </cc:Agent>
    </dc:creator>
   </cc:Work>
  </rdf:RDF>
 </metadata>
 <defs>
  <style type="text/css">*{stroke-linejoin: round; stroke-linecap: butt}</style>
 </defs>
 <g id="figure_1">
  <g id="patch_1">
   <path d="M 0 345.6  L 460.8 345.6  L 460.8 0  L 0 0  L 0 345.6  z " style="fill: none"/>
  </g>
  <g id="axes_1">
   <g id="patch_2">
    <path d="M 10.8 334.8  L 447 334.8  L 447 18.064532  L 10.8 18.064532  L 10.8 334.8  z " style="fill: none"/>
   </g>
   <g id="matplotlib.axis_1">
    <g id="text_1">
     <!-- $x$ -->
     <g transform="translate(433.141493 197.72852) scale(0.25 -0.25)">
      <defs>
       <path id="CMMI12-78" d="M 3034 2606  C 2829 2567 2752 2414 2752 2293  C 2752 2139 2874 2088 2963 2088  C 3155 2088 3290 2254 3290 2427  C 3290 2695 2982 2816 2714 2816  C 2323 2816 2106 2433 2048 2312  C 1901 2816 1504 2816 1389 2816  C 736 2816 390 1980 390 1839  C 390 1814 416 1782 461 1782  C 512 1782 525 1820 538 1846  C 755 2555 1184 2689 1370 2689  C 1658 2689 1715 2420 1715 2267  C 1715 2127 1677 1980 1600 1673  L 1382 798  C 1286 415 1101 64 762 64  C 730 64 570 64 435 147  C 666 192 717 383 717 460  C 717 588 621 664 499 664  C 346 664 179 530 179 326  C 179 57 480 -64 755 -64  C 1062 -64 1280 179 1414 441  C 1517 64 1837 -64 2074 -64  C 2726 -64 3072 773 3072 913  C 3072 945 3046 971 3008 971  C 2950 971 2944 939 2925 888  C 2752 326 2381 64 2093 64  C 1869 64 1747 230 1747 492  C 1747 632 1773 734 1875 1156  L 2099 2024  C 2195 2408 2413 2689 2707 2689  C 2720 2689 2899 2689 3034 2606  z " transform="scale(0.015625)"/>
      </defs>
      <use xlink:href="#CMMI12-78" transform="scale(0.996264)"/>
     </g>
    </g>
   </g>
   <g id="matplotlib.axis_2">
    <g id="text_2">
     <!-- $y$ -->
     <g transform="translate(213.008953 13.219998) scale(0.25 -0.25)">
      <defs>
       <path id="CMMI12-79" d="M 1683 -700  C 1510 -939 1261 -1152 947 -1152  C 870 -1152 563 -1152 467 -889  C 486 -895 518 -895 531 -895  C 723 -895 851 -729 851 -582  C 851 -435 730 -384 634 -384  C 531 -384 307 -458 307 -759  C 307 -1071 582 -1286 947 -1286  C 1587 -1286 2234 -700 2413 6  L 3040 2485  C 3046 2517 3059 2556 3059 2594  C 3059 2689 2982 2753 2886 2753  C 2829 2753 2694 2727 2643 2535  L 2170 658  C 2138 543 2138 530 2086 460  C 1958 281 1747 64 1440 64  C 1082 64 1050 415 1050 588  C 1050 952 1222 1443 1395 1903  C 1466 2088 1504 2178 1504 2305  C 1504 2574 1312 2816 998 2816  C 410 2816 173 1890 173 1839  C 173 1814 198 1782 243 1782  C 301 1782 307 1807 333 1897  C 486 2433 730 2689 979 2689  C 1037 2689 1146 2689 1146 2478  C 1146 2312 1075 2127 979 1884  C 666 1047 666 837 666 683  C 666 77 1101 -64 1421 -64  C 1606 -64 1837 -6 2061 230  L 2067 224  C 1971 -147 1907 -392 1683 -700  z " transform="scale(0.015625)"/>
      </defs>
      <use xlink:href="#CMMI12-79" transform="scale(0.996264)"/>
     </g>
    </g>
   </g>
   <g id="line2d_1">
    <defs>
     <path id="m171a65a0ff" d="M 3 0  L -3 -3  L -3 3  z " style="stroke: #000000; stroke-linejoin: miter"/>
    </defs>
    <g>
     <use xlink:href="#m171a65a0ff" x="447" y="176.432266" style="stroke: #000000; stroke-linejoin: miter"/>
    </g>
   </g>
   <g id="line2d_2">
    <defs>
     <path id="m7de6ab71df" d="M 0 -3  L -3 3  L 3 3  z " style="stroke: #000000; stroke-linejoin: miter"/>
    </defs>
    <g>
     <use xlink:href="#m7de6ab71df" x="228.9" y="18.064532" style="stroke: #000000; stroke-linejoin: miter"/>
    </g>
   </g>
   <g id="line2d_3">
    <path d="M 97.443299 -1  L 101.555165 15.400517  L 105.60293 30.665598  L 109.544176 44.690335  L 113.378901 57.541816  L 117.107106 69.28532  L 120.728791 79.98431  L 124.243956 89.700438  L 127.652601 98.493541  L 130.954725 106.421643  L 134.15033 113.540956  L 137.239414 119.905877  L 140.328498 125.762481  L 143.311062 130.934805  L 146.187106 135.473622  L 148.95663 139.427889  L 151.619634 142.844751  L 154.176117 145.76954  L 156.626081 148.245773  L 158.969524 150.315156  L 161.312967 152.092  L 163.54989 153.515183  L 165.786813 154.671816  L 167.917216 155.525559  L 170.047619 156.137535  L 172.071502 156.494974  L 174.095385 156.634217  L 176.119267 156.555265  L 178.14315 156.258117  L 180.167033 155.742773  L 182.297436 154.964582  L 184.427839 153.944623  L 186.558242 152.682896  L 188.795165 151.09788  L 191.138608 149.151497  L 193.482051 146.912574  L 195.932015 144.259094  L 198.488498 141.149353  L 201.044982 137.691466  L 203.707985 133.719293  L 206.477509 129.187502  L 209.353553 124.04895  L 212.336117 118.254677  L 215.425201 111.753913  L 218.620806 104.494072  L 221.92293 96.420758  L 225.331575 87.477759  L 228.84674 77.607051  L 232.468425 66.748796  L 236.19663 54.841343  L 240.031355 41.821228  L 243.972601 27.623174  L 248.020366 12.180091  L 251.30671 -1  L 251.30671 -1  " clip-path="url(#p4e11848bde)" style="fill: none; stroke: #0072b2; stroke-opacity: 0.9; stroke-width: 2.5; stroke-linecap: square"/>
   </g>
   <g id="patch_3">
    <path d="M 228.9 334.8  L 228.9 18.064532  " style="fill: none; stroke: #000000; stroke-width: 0.8; stroke-linejoin: miter; stroke-linecap: square"/>
   </g>
   <g id="patch_4">
    <path d="M 447 334.8  L 447 18.064532  " style="fill: none"/>
   </g>
   <g id="patch_5">
    <path d="M 10.8 176.432266  L 447 176.432266  " style="fill: none; stroke: #000000; stroke-width: 0.8; stroke-linejoin: miter; stroke-linecap: square"/>
   </g>
   <g id="patch_6">
    <path d="M 10.8 18.064532  L 447 18.064532  " style="fill: none"/>
   </g>
   <g id="legend_1">
    <g id="patch_7">
     <path d="M 333.915498 72.909067  L 429.5 72.909067  Q 434.5 72.909067 434.5 67.909067  L 434.5 35.564532  Q 434.5 30.564532 429.5 30.564532  L 333.915498 30.564532  Q 328.915498 30.564532 328.915498 35.564532  L 328.915498 67.909067  Q 328.915498 72.909067 333.915498 72.909067  z " style="fill: #ffffff; opacity: 0.8; stroke: #cccccc; stroke-linejoin: miter"/>
    </g>
    <g id="line2d_4">
     <path d="M 338.915498 49.314532  L 363.915498 49.314532  L 388.915498 49.314532  " style="fill: none; stroke: #0072b2; stroke-opacity: 0.9; stroke-width: 2.5; stroke-linecap: square"/>
    </g>
    <g id="text_3">
     <!-- B -->
     <g transform="translate(408.915498 58.064532) scale(0.25 -0.25)">
      <defs>
       <path id="CMSS17-42" d="M 570 4416  L 570 0  L 2163 0  C 3034 0 3667 574 3667 1200  C 3667 1685 3251 2176 2502 2317  C 3334 2558 3501 3040 3501 3313  C 3501 3883 2874 4416 1997 4416  L 570 4416  z M 1088 2496  L 1088 4059  L 1824 4059  C 2483 4059 3002 3724 3002 3306  C 3002 2926 2592 2496 1766 2496  L 1088 2496  z M 1088 357  L 1088 2107  L 1939 2107  C 2630 2107 3162 1679 3162 1206  C 3162 772 2694 357 1984 357  L 1088 357  z " transform="scale(0.015625)"/>
      </defs>
      <use xlink:href="#CMSS17-42" transform="scale(0.996264)"/>
     </g>
    </g>
   </g>
  </g>
 </g>
 <defs>
  <clipPath id="p4e11848bde">
   <rect x="10.8" y="18.064532" width="436.2" height="316.735468"/>
  </clipPath>
 </defs>
</g>
    <g transform="translate(0, 432.00000000000006) scale(1 1) translate(0, 0) scale(1.25 1.25) "><metadata>
  <rdf:RDF xmlns:dc="http://purl.org/dc/elements/1.1/" xmlns:cc="http://creativecommons.org/ns#" xmlns:rdf="http://www.w3.org/1999/02/22-rdf-syntax-ns#">
   <cc:Work>
    <dc:type rdf:resource="http://purl.org/dc/dcmitype/StillImage"/>
    <dc:date>2025-08-02T20:06:33.460685</dc:date>
    <dc:format>image/svg+xml</dc:format>
    <dc:creator>
     <cc:Agent>
      <dc:title>Matplotlib v3.9.1, https://matplotlib.org/</dc:title>
     </cc:Agent>
    </dc:creator>
   </cc:Work>
  </rdf:RDF>
 </metadata>
 <defs>
  <style type="text/css">*{stroke-linejoin: round; stroke-linecap: butt}</style>
 </defs>
 <g id="figure_1">
  <g id="patch_1">
   <path d="M 0 345.6  L 460.8 345.6  L 460.8 0  L 0 0  L 0 345.6  z " style="fill: none"/>
  </g>
  <g id="axes_1">
   <g id="patch_2">
    <path d="M 10.8 334.8  L 447 334.8  L 447 18.064532  L 10.8 18.064532  L 10.8 334.8  z " style="fill: none"/>
   </g>
   <g id="matplotlib.axis_1">
    <g id="text_1">
     <!-- $x$ -->
     <g transform="translate(433.141493 197.72852) scale(0.25 -0.25)">
      <defs>
       <path id="CMMI12-78" d="M 3034 2606  C 2829 2567 2752 2414 2752 2293  C 2752 2139 2874 2088 2963 2088  C 3155 2088 3290 2254 3290 2427  C 3290 2695 2982 2816 2714 2816  C 2323 2816 2106 2433 2048 2312  C 1901 2816 1504 2816 1389 2816  C 736 2816 390 1980 390 1839  C 390 1814 416 1782 461 1782  C 512 1782 525 1820 538 1846  C 755 2555 1184 2689 1370 2689  C 1658 2689 1715 2420 1715 2267  C 1715 2127 1677 1980 1600 1673  L 1382 798  C 1286 415 1101 64 762 64  C 730 64 570 64 435 147  C 666 192 717 383 717 460  C 717 588 621 664 499 664  C 346 664 179 530 179 326  C 179 57 480 -64 755 -64  C 1062 -64 1280 179 1414 441  C 1517 64 1837 -64 2074 -64  C 2726 -64 3072 773 3072 913  C 3072 945 3046 971 3008 971  C 2950 971 2944 939 2925 888  C 2752 326 2381 64 2093 64  C 1869 64 1747 230 1747 492  C 1747 632 1773 734 1875 1156  L 2099 2024  C 2195 2408 2413 2689 2707 2689  C 2720 2689 2899 2689 3034 2606  z " transform="scale(0.015625)"/>
      </defs>
      <use xlink:href="#CMMI12-78" transform="scale(0.996264)"/>
     </g>
    </g>
   </g>
   <g id="matplotlib.axis_2">
    <g id="text_2">
     <!-- $y$ -->
     <g transform="translate(213.008953 13.219998) scale(0.25 -0.25)">
      <defs>
       <path id="CMMI12-79" d="M 1683 -700  C 1510 -939 1261 -1152 947 -1152  C 870 -1152 563 -1152 467 -889  C 486 -895 518 -895 531 -895  C 723 -895 851 -729 851 -582  C 851 -435 730 -384 634 -384  C 531 -384 307 -458 307 -759  C 307 -1071 582 -1286 947 -1286  C 1587 -1286 2234 -700 2413 6  L 3040 2485  C 3046 2517 3059 2556 3059 2594  C 3059 2689 2982 2753 2886 2753  C 2829 2753 2694 2727 2643 2535  L 2170 658  C 2138 543 2138 530 2086 460  C 1958 281 1747 64 1440 64  C 1082 64 1050 415 1050 588  C 1050 952 1222 1443 1395 1903  C 1466 2088 1504 2178 1504 2305  C 1504 2574 1312 2816 998 2816  C 410 2816 173 1890 173 1839  C 173 1814 198 1782 243 1782  C 301 1782 307 1807 333 1897  C 486 2433 730 2689 979 2689  C 1037 2689 1146 2689 1146 2478  C 1146 2312 1075 2127 979 1884  C 666 1047 666 837 666 683  C 666 77 1101 -64 1421 -64  C 1606 -64 1837 -6 2061 230  L 2067 224  C 1971 -147 1907 -392 1683 -700  z " transform="scale(0.015625)"/>
      </defs>
      <use xlink:href="#CMMI12-79" transform="scale(0.996264)"/>
     </g>
    </g>
   </g>
   <g id="line2d_1">
    <defs>
     <path id="m7e66c223d2" d="M 3 0  L -3 -3  L -3 3  z " style="stroke: #000000; stroke-linejoin: miter"/>
    </defs>
    <g>
     <use xlink:href="#m7e66c223d2" x="447" y="176.432266" style="stroke: #000000; stroke-linejoin: miter"/>
    </g>
   </g>
   <g id="line2d_2">
    <defs>
     <path id="m5c46e3fc01" d="M 0 -3  L -3 3  L 3 3  z " style="stroke: #000000; stroke-linejoin: miter"/>
    </defs>
    <g>
     <use xlink:href="#m5c46e3fc01" x="228.9" y="18.064532" style="stroke: #000000; stroke-linejoin: miter"/>
    </g>
   </g>
   <g id="line2d_3">
    <path d="M 115.585336 -1  L 119.98315 18.644162  L 124.243956 36.693655  L 128.398242 53.360803  L 132.446007 68.716321  L 136.387253 82.829114  L 140.221978 95.766271  L 143.950183 107.593072  L 147.571868 118.372979  L 151.087033 128.167644  L 154.495678 137.036904  L 157.904322 145.287237  L 161.206447 152.689532  L 164.402051 159.299999  L 167.491136 165.173035  L 170.4737 170.361226  L 173.349744 174.915342  L 176.119267 178.884342  L 178.782271 182.31537  L 181.338755 185.253758  L 183.788718 187.743024  L 186.238681 189.912552  L 188.582125 191.688565  L 190.819048 193.110954  L 193.055971 194.266794  L 195.186374 195.119782  L 197.316777 195.731002  L 199.340659 196.087723  L 201.364542 196.226248  L 203.388425 196.146578  L 205.412308 195.848713  L 207.43619 195.332651  L 209.566593 194.553705  L 211.696996 193.53299  L 213.827399 192.270508  L 216.064322 190.684699  L 218.407766 188.737484  L 220.751209 186.49773  L 223.201172 183.843381  L 225.757656 180.732734  L 228.314139 177.27394  L 230.977143 173.300822  L 233.746667 168.76805  L 236.622711 163.628477  L 239.605275 157.833147  L 242.694359 151.331287  L 245.889963 144.070313  L 249.192088 135.995828  L 252.600733 127.05162  L 256.115897 117.179665  L 259.737582 106.320126  L 263.465788 94.411351  L 267.300513 81.389876  L 271.241758 67.190425  L 275.289524 51.745906  L 279.44381 34.987415  L 283.704615 16.844236  L 287.689661 -1  L 287.689661 -1  " clip-path="url(#p43093af418)" style="fill: none; stroke: #0072b2; stroke-opacity: 0.9; stroke-width: 2.5; stroke-linecap: square"/>
   </g>
   <g id="patch_3">
    <path d="M 228.9 334.8  L 228.9 18.064532  " style="fill: none; stroke: #000000; stroke-width: 0.8; stroke-linejoin: miter; stroke-linecap: square"/>
   </g>
   <g id="patch_4">
    <path d="M 447 334.8  L 447 18.064532  " style="fill: none"/>
   </g>
   <g id="patch_5">
    <path d="M 10.8 176.432266  L 447 176.432266  " style="fill: none; stroke: #000000; stroke-width: 0.8; stroke-linejoin: miter; stroke-linecap: square"/>
   </g>
   <g id="patch_6">
    <path d="M 10.8 18.064532  L 447 18.064532  " style="fill: none"/>
   </g>
   <g id="legend_1">
    <g id="patch_7">
     <path d="M 334.536065 72.909067  L 429.5 72.909067  Q 434.5 72.909067 434.5 67.909067  L 434.5 35.564532  Q 434.5 30.564532 429.5 30.564532  L 334.536065 30.564532  Q 329.536065 30.564532 329.536065 35.564532  L 329.536065 67.909067  Q 329.536065 72.909067 334.536065 72.909067  z " style="fill: #ffffff; opacity: 0.8; stroke: #cccccc; stroke-linejoin: miter"/>
    </g>
    <g id="line2d_4">
     <path d="M 339.536065 49.314532  L 364.536065 49.314532  L 389.536065 49.314532  " style="fill: none; stroke: #0072b2; stroke-opacity: 0.9; stroke-width: 2.5; stroke-linecap: square"/>
    </g>
    <g id="text_3">
     <!-- C -->
     <g transform="translate(409.536065 58.064532) scale(0.25 -0.25)">
      <defs>
       <path id="CMSS17-43" d="M 3501 714  C 3072 427 2874 344 2355 344  C 1459 344 934 1303 934 2179  C 934 3112 1472 4032 2381 4032  C 2790 4032 3059 3918 3386 3715  L 3475 4217  C 3168 4370 2778 4440 2387 4440  C 1158 4440 397 3316 397 2179  C 397 927 1299 -64 2323 -64  C 2874 -64 3066 -19 3539 280  L 3501 714  z " transform="scale(0.015625)"/>
      </defs>
      <use xlink:href="#CMSS17-43" transform="scale(0.996264)"/>
     </g>
    </g>
   </g>
  </g>
 </g>
 <defs>
  <clipPath id="p43093af418">
   <rect x="10.8" y="18.064532" width="436.2" height="316.735468"/>
  </clipPath>
 </defs>
</g>
    <g transform="translate(576.0, 432.00000000000006) scale(1 1) translate(0, 0) scale(1.25 1.25) "><metadata>
  <rdf:RDF xmlns:dc="http://purl.org/dc/elements/1.1/" xmlns:cc="http://creativecommons.org/ns#" xmlns:rdf="http://www.w3.org/1999/02/22-rdf-syntax-ns#">
   <cc:Work>
    <dc:type rdf:resource="http://purl.org/dc/dcmitype/StillImage"/>
    <dc:date>2025-08-02T20:06:35.131273</dc:date>
    <dc:format>image/svg+xml</dc:format>
    <dc:creator>
     <cc:Agent>
      <dc:title>Matplotlib v3.9.1, https://matplotlib.org/</dc:title>
     </cc:Agent>
    </dc:creator>
   </cc:Work>
  </rdf:RDF>
 </metadata>
 <defs>
  <style type="text/css">*{stroke-linejoin: round; stroke-linecap: butt}</style>
 </defs>
 <g id="figure_1">
  <g id="patch_1">
   <path d="M 0 345.6  L 460.8 345.6  L 460.8 0  L 0 0  L 0 345.6  z " style="fill: none"/>
  </g>
  <g id="axes_1">
   <g id="patch_2">
    <path d="M 10.8 334.8  L 447 334.8  L 447 18.064532  L 10.8 18.064532  L 10.8 334.8  z " style="fill: none"/>
   </g>
   <g id="matplotlib.axis_1">
    <g id="text_1">
     <!-- $x$ -->
     <g transform="translate(433.141493 197.72852) scale(0.25 -0.25)">
      <defs>
       <path id="CMMI12-78" d="M 3034 2606  C 2829 2567 2752 2414 2752 2293  C 2752 2139 2874 2088 2963 2088  C 3155 2088 3290 2254 3290 2427  C 3290 2695 2982 2816 2714 2816  C 2323 2816 2106 2433 2048 2312  C 1901 2816 1504 2816 1389 2816  C 736 2816 390 1980 390 1839  C 390 1814 416 1782 461 1782  C 512 1782 525 1820 538 1846  C 755 2555 1184 2689 1370 2689  C 1658 2689 1715 2420 1715 2267  C 1715 2127 1677 1980 1600 1673  L 1382 798  C 1286 415 1101 64 762 64  C 730 64 570 64 435 147  C 666 192 717 383 717 460  C 717 588 621 664 499 664  C 346 664 179 530 179 326  C 179 57 480 -64 755 -64  C 1062 -64 1280 179 1414 441  C 1517 64 1837 -64 2074 -64  C 2726 -64 3072 773 3072 913  C 3072 945 3046 971 3008 971  C 2950 971 2944 939 2925 888  C 2752 326 2381 64 2093 64  C 1869 64 1747 230 1747 492  C 1747 632 1773 734 1875 1156  L 2099 2024  C 2195 2408 2413 2689 2707 2689  C 2720 2689 2899 2689 3034 2606  z " transform="scale(0.015625)"/>
      </defs>
      <use xlink:href="#CMMI12-78" transform="scale(0.996264)"/>
     </g>
    </g>
   </g>
   <g id="matplotlib.axis_2">
    <g id="text_2">
     <!-- $y$ -->
     <g transform="translate(213.008953 13.219998) scale(0.25 -0.25)">
      <defs>
       <path id="CMMI12-79" d="M 1683 -700  C 1510 -939 1261 -1152 947 -1152  C 870 -1152 563 -1152 467 -889  C 486 -895 518 -895 531 -895  C 723 -895 851 -729 851 -582  C 851 -435 730 -384 634 -384  C 531 -384 307 -458 307 -759  C 307 -1071 582 -1286 947 -1286  C 1587 -1286 2234 -700 2413 6  L 3040 2485  C 3046 2517 3059 2556 3059 2594  C 3059 2689 2982 2753 2886 2753  C 2829 2753 2694 2727 2643 2535  L 2170 658  C 2138 543 2138 530 2086 460  C 1958 281 1747 64 1440 64  C 1082 64 1050 415 1050 588  C 1050 952 1222 1443 1395 1903  C 1466 2088 1504 2178 1504 2305  C 1504 2574 1312 2816 998 2816  C 410 2816 173 1890 173 1839  C 173 1814 198 1782 243 1782  C 301 1782 307 1807 333 1897  C 486 2433 730 2689 979 2689  C 1037 2689 1146 2689 1146 2478  C 1146 2312 1075 2127 979 1884  C 666 1047 666 837 666 683  C 666 77 1101 -64 1421 -64  C 1606 -64 1837 -6 2061 230  L 2067 224  C 1971 -147 1907 -392 1683 -700  z " transform="scale(0.015625)"/>
      </defs>
      <use xlink:href="#CMMI12-79" transform="scale(0.996264)"/>
     </g>
    </g>
   </g>
   <g id="line2d_1">
    <defs>
     <path id="mb5303883ac" d="M 3 0  L -3 -3  L -3 3  z " style="stroke: #000000; stroke-linejoin: miter"/>
    </defs>
    <g>
     <use xlink:href="#mb5303883ac" x="447" y="176.432266" style="stroke: #000000; stroke-linejoin: miter"/>
    </g>
   </g>
   <g id="line2d_2">
    <defs>
     <path id="m52d7da32bb" d="M 0 -3  L -3 3  L 3 3  z " style="stroke: #000000; stroke-linejoin: miter"/>
    </defs>
    <g>
     <use xlink:href="#m52d7da32bb" x="228.9" y="18.064532" style="stroke: #000000; stroke-linejoin: miter"/>
    </g>
   </g>
   <g id="line2d_3">
    <path d="M 117.18499 346.6  L 121.474432 327.793043  L 125.735238 310.082025  L 129.889524 293.744891  L 133.937289 278.710924  L 137.878535 264.911221  L 141.71326 252.278691  L 145.441465 240.748056  L 149.06315 230.255853  L 152.578315 220.74043  L 155.98696 212.141951  L 159.289084 204.40239  L 162.484689 197.465536  L 165.573773 191.276993  L 168.556337 185.784174  L 171.432381 180.93631  L 174.201905 176.684442  L 176.971429 172.841161  L 179.634432 169.531017  L 182.190916 166.708677  L 184.640879 164.330625  L 186.984322 162.355153  L 189.327766 160.672221  L 191.564689 159.338682  L 193.695092 158.316456  L 195.825495 157.535999  L 197.955897 156.997309  L 199.97978 156.709492  L 202.003663 156.63987  L 204.027546 156.788444  L 206.051429 157.155214  L 208.075311 157.740179  L 210.205714 158.591656  L 212.336117 159.684901  L 214.57304 161.093011  L 216.809963 162.76767  L 219.153407 164.807965  L 221.49685 167.1408  L 223.946813 169.89246  L 226.503297 173.10465  L 229.1663 176.820889  L 231.935824 181.086508  L 234.705348 185.760715  L 237.581392 191.047162  L 240.563956 196.994806  L 243.65304 203.65442  L 246.848645 211.078587  L 250.150769 219.321705  L 253.559414 228.439986  L 257.074579 238.491454  L 260.696264 249.535946  L 264.424469 261.635113  L 268.259194 274.85242  L 272.20044 289.253143  L 276.248205 304.904374  L 280.402491 321.875015  L 284.663297 340.235786  L 286.090008 346.6  L 286.090008 346.6  " clip-path="url(#p111e0c91a4)" style="fill: none; stroke: #0072b2; stroke-opacity: 0.9; stroke-width: 2.5; stroke-linecap: square"/>
   </g>
   <g id="patch_3">
    <path d="M 228.9 334.8  L 228.9 18.064532  " style="fill: none; stroke: #000000; stroke-width: 0.8; stroke-linejoin: miter; stroke-linecap: square"/>
   </g>
   <g id="patch_4">
    <path d="M 447 334.8  L 447 18.064532  " style="fill: none"/>
   </g>
   <g id="patch_5">
    <path d="M 10.8 176.432266  L 447 176.432266  " style="fill: none; stroke: #000000; stroke-width: 0.8; stroke-linejoin: miter; stroke-linecap: square"/>
   </g>
   <g id="patch_6">
    <path d="M 10.8 18.064532  L 447 18.064532  " style="fill: none"/>
   </g>
   <g id="legend_1">
    <g id="patch_7">
     <path d="M 332.614301 72.909067  L 429.5 72.909067  Q 434.5 72.909067 434.5 67.909067  L 434.5 35.564532  Q 434.5 30.564532 429.5 30.564532  L 332.614301 30.564532  Q 327.614301 30.564532 327.614301 35.564532  L 327.614301 67.909067  Q 327.614301 72.909067 332.614301 72.909067  z " style="fill: #ffffff; opacity: 0.8; stroke: #cccccc; stroke-linejoin: miter"/>
    </g>
    <g id="line2d_4">
     <path d="M 337.614301 49.314532  L 362.614301 49.314532  L 387.614301 49.314532  " style="fill: none; stroke: #0072b2; stroke-opacity: 0.9; stroke-width: 2.5; stroke-linecap: square"/>
    </g>
    <g id="text_3">
     <!-- D -->
     <g transform="translate(407.614301 58.064532) scale(0.25 -0.25)">
      <defs>
       <path id="CMSS17-44" d="M 570 4416  L 570 0  L 2144 0  C 3194 0 4000 980 4000 2170  C 4000 3398 3194 4416 2144 4416  L 570 4416  z M 1094 357  L 1094 4059  L 2003 4059  C 2861 4059 3475 3277 3475 2170  C 3475 1107 2867 357 2003 357  L 1094 357  z " transform="scale(0.015625)"/>
      </defs>
      <use xlink:href="#CMSS17-44" transform="scale(0.996264)"/>
     </g>
    </g>
   </g>
  </g>
 </g>
 <defs>
  <clipPath id="p111e0c91a4">
   <rect x="10.8" y="18.064532" width="436.2" height="316.735468"/>
  </clipPath>
 </defs>
</g>
  </g>
</svg>
