<svg xmlns:xlink="http://www.w3.org/1999/xlink" xmlns="http://www.w3.org/2000/svg" width="453.6pt" height="338.54pt" viewBox="0 0 453.6 338.54" version="1.1">
 
 <defs>
  <style type="text/css">*{stroke-linejoin: round; stroke-linecap: butt}</style>
 </defs>
 <g id="figure_1">
  <g id="patch_1">
   <path id="path_0" d="M 0 338.54  L 453.6 338.54  L 453.6 0  L 0 0  L 0 338.54  z " style="fill: none; opacity: 0"/>
  </g>
  <g id="axes_1">
   <g id="patch_2">
    <path id="path_1" d="M 7.2 331.34  L 443.4 331.34  L 443.4 16.556315  L 7.2 16.556315  L 7.2 331.34  z " style="fill: none; opacity: 0"/>
   </g>
   <g id="matplotlib.axis_1">
    <g id="xtick_1">
     <g id="line2d_1">
      <path id="path_2" d="M 116.25 331.34  L 116.25 16.556315  " clip-path="url(#p18b6a98bdd)" style="fill: none; stroke-dasharray: 2.96,1.28; stroke-dashoffset: 0; stroke: #b0b0b0; stroke-opacity: 0.6; stroke-width: 0.8"/>
     </g>
     <g id="line2d_2">
      <defs>
       <path id="m3cccfb9af9" d="M 0 0  L 0 3.5  " style="stroke: #000000; stroke-width: 0.8"/>
      </defs>
      <g id="g_0">
       <use id="use_0" xlink:href="#m3cccfb9af9" x="116.25" y="173.948158" style="stroke: #000000; stroke-width: 0.8"/>
      </g>
     </g>
     <g id="text_1">
      <!-- $\mathdefault{−1}$ -->
      <g id="g_1" transform="translate(103.932209 194.785154) scale(0.2 -0.2)">
       <defs>
        <path id="CMSY10-0" d="M 4218 1472  C 4326 1472 4442 1472 4442 1600  C 4442 1728 4326 1728 4218 1728  L 755 1728  C 646 1728 531 1728 531 1600  C 531 1472 646 1472 755 1472  L 4218 1472  z " transform="scale(0.015625)"/>
        <path id="CMR17-31" d="M 1702 4058  C 1702 4192 1696 4192 1606 4192  C 1357 3916 979 3827 621 3827  C 602 3827 570 3827 563 3808  C 557 3795 557 3782 557 3648  C 755 3648 1088 3686 1344 3839  L 1344 461  C 1344 236 1331 160 781 160  L 589 160  L 589 0  C 896 0 1216 0 1523 0  C 1830 0 2150 0 2458 0  L 2458 160  L 2266 160  C 1715 160 1702 230 1702 458  L 1702 4058  z " transform="scale(0.015625)"/>
       </defs>
       <use id="use_1" xlink:href="#CMSY10-0" transform="scale(0.996264)"/>
       <use id="use_2" xlink:href="#CMR17-31" transform="translate(77.487468 0) scale(0.996264)"/>
      </g>
     </g>
    </g>
    <g id="xtick_2">
     <g id="line2d_3">
      <path id="path_3" d="M 334.35 331.34  L 334.35 16.556315  " clip-path="url(#p18b6a98bdd)" style="fill: none; stroke-dasharray: 2.96,1.28; stroke-dashoffset: 0; stroke: #b0b0b0; stroke-opacity: 0.6; stroke-width: 0.8"/>
     </g>
     <g id="line2d_4">
      <g id="g_2">
       <use id="use_3" xlink:href="#m3cccfb9af9" x="334.35" y="173.948158" style="stroke: #000000; stroke-width: 0.8"/>
      </g>
     </g>
     <g id="text_2">
      <!-- $\mathdefault{1}$ -->
      <g id="g_3" transform="translate(329.780952 194.785154) scale(0.2 -0.2)">
       <use id="use_4" xlink:href="#CMR17-31" transform="scale(0.996264)"/>
      </g>
     </g>
    </g>
    <g id="text_3">
     <!-- $x$ -->
     <g id="g_4" transform="translate(432.313188 216.497785) scale(0.2 -0.2)">
      <defs>
       <path id="CMMI12-78" d="M 3034 2606  C 2829 2567 2752 2414 2752 2293  C 2752 2139 2874 2088 2963 2088  C 3155 2088 3290 2254 3290 2427  C 3290 2695 2982 2816 2714 2816  C 2323 2816 2106 2433 2048 2312  C 1901 2816 1504 2816 1389 2816  C 736 2816 390 1980 390 1839  C 390 1814 416 1782 461 1782  C 512 1782 525 1820 538 1846  C 755 2555 1184 2689 1370 2689  C 1658 2689 1715 2420 1715 2267  C 1715 2127 1677 1980 1600 1673  L 1382 798  C 1286 415 1101 64 762 64  C 730 64 570 64 435 147  C 666 192 717 383 717 460  C 717 588 621 664 499 664  C 346 664 179 530 179 326  C 179 57 480 -64 755 -64  C 1062 -64 1280 179 1414 441  C 1517 64 1837 -64 2074 -64  C 2726 -64 3072 773 3072 913  C 3072 945 3046 971 3008 971  C 2950 971 2944 939 2925 888  C 2752 326 2381 64 2093 64  C 1869 64 1747 230 1747 492  C 1747 632 1773 734 1875 1156  L 2099 2024  C 2195 2408 2413 2689 2707 2689  C 2720 2689 2899 2689 3034 2606  z " transform="scale(0.015625)"/>
      </defs>
      <use id="use_5" xlink:href="#CMMI12-78" transform="scale(0.996264)"/>
     </g>
    </g>
   </g>
   <g id="matplotlib.axis_2">
    <g id="ytick_1">
     <g id="line2d_5">
      <path id="path_4" d="M 7.2 252.644079  L 443.4 252.644079  " clip-path="url(#p18b6a98bdd)" style="fill: none; stroke-dasharray: 2.96,1.28; stroke-dashoffset: 0; stroke: #b0b0b0; stroke-opacity: 0.6; stroke-width: 0.8"/>
     </g>
     <g id="line2d_6">
      <defs>
       <path id="mcfaca8332a" d="M 0 0  L -3.5 0  " style="stroke: #000000; stroke-width: 0.8"/>
      </defs>
      <g id="g_5">
       <use id="use_6" xlink:href="#mcfaca8332a" x="225.3" y="252.644079" style="stroke: #000000; stroke-width: 0.8"/>
      </g>
     </g>
     <g id="text_4">
      <!-- $\mathdefault{−1}$ -->
      <g id="g_6" transform="translate(193.664417 259.562577) scale(0.2 -0.2)">
       <use id="use_7" xlink:href="#CMSY10-0" transform="scale(0.996264)"/>
       <use id="use_8" xlink:href="#CMR17-31" transform="translate(77.487468 0) scale(0.996264)"/>
      </g>
     </g>
    </g>
    <g id="ytick_2">
     <g id="line2d_7">
      <path id="path_5" d="M 7.2 95.252236  L 443.4 95.252236  " clip-path="url(#p18b6a98bdd)" style="fill: none; stroke-dasharray: 2.96,1.28; stroke-dashoffset: 0; stroke: #b0b0b0; stroke-opacity: 0.6; stroke-width: 0.8"/>
     </g>
     <g id="line2d_8">
      <g id="g_7">
       <use id="use_9" xlink:href="#mcfaca8332a" x="225.3" y="95.252236" style="stroke: #000000; stroke-width: 0.8"/>
      </g>
     </g>
     <g id="text_5">
      <!-- $\mathdefault{1}$ -->
      <g id="g_8" transform="translate(209.161905 102.170735) scale(0.2 -0.2)">
       <use id="use_10" xlink:href="#CMR17-31" transform="scale(0.996264)"/>
      </g>
     </g>
    </g>
    <g id="text_6">
     <!-- $y$ -->
     <g id="g_9" transform="translate(180.151583 12.680682) scale(0.2 -0.2)">
      <defs>
       <path id="CMMI12-79" d="M 1683 -700  C 1510 -939 1261 -1152 947 -1152  C 870 -1152 563 -1152 467 -889  C 486 -895 518 -895 531 -895  C 723 -895 851 -729 851 -582  C 851 -435 730 -384 634 -384  C 531 -384 307 -458 307 -759  C 307 -1071 582 -1286 947 -1286  C 1587 -1286 2234 -700 2413 6  L 3040 2485  C 3046 2517 3059 2556 3059 2594  C 3059 2689 2982 2753 2886 2753  C 2829 2753 2694 2727 2643 2535  L 2170 658  C 2138 543 2138 530 2086 460  C 1958 281 1747 64 1440 64  C 1082 64 1050 415 1050 588  C 1050 952 1222 1443 1395 1903  C 1466 2088 1504 2178 1504 2305  C 1504 2574 1312 2816 998 2816  C 410 2816 173 1890 173 1839  C 173 1814 198 1782 243 1782  C 301 1782 307 1807 333 1897  C 486 2433 730 2689 979 2689  C 1037 2689 1146 2689 1146 2478  C 1146 2312 1075 2127 979 1884  C 666 1047 666 837 666 683  C 666 77 1101 -64 1421 -64  C 1606 -64 1837 -6 2061 230  L 2067 224  C 1971 -147 1907 -392 1683 -700  z " transform="scale(0.015625)"/>
      </defs>
      <use id="use_11" xlink:href="#CMMI12-79" transform="scale(0.996264)"/>
     </g>
    </g>
   </g>
   <g id="line2d_9">
    <defs>
     <path id="m52b262cd02" d="M 3 0  L -3 -3  L -3 3  z " style="stroke: #000000; stroke-linejoin: miter"/>
    </defs>
    <g id="g_10">
     <use id="use_12" xlink:href="#m52b262cd02" x="443.4" y="173.948158" style="stroke: #000000; stroke-linejoin: miter"/>
    </g>
   </g>
   <g id="line2d_10">
    <defs>
     <path id="m7d94f32faa" d="M 0 -3  L -3 3  L 3 3  z " style="stroke: #000000; stroke-linejoin: miter"/>
    </defs>
    <g id="g_11">
     <use id="use_13" xlink:href="#m7d94f32faa" x="225.3" y="16.556315" style="stroke: #000000; stroke-linejoin: miter"/>
    </g>
   </g>
   <g id="line2d_11">
    <defs>
     <path id="m96bae0e4b0" d="M 0 5  C 1.326016 5 2.597899 4.473168 3.535534 3.535534  C 4.473168 2.597899 5 1.326016 5 0  C 5 -1.326016 4.473168 -2.597899 3.535534 -3.535534  C 2.597899 -4.473168 1.326016 -5 0 -5  C -1.326016 -5 -2.597899 -4.473168 -3.535534 -3.535534  C -4.473168 -2.597899 -5 -1.326016 -5 0  C -5 1.326016 -4.473168 2.597899 -3.535534 3.535534  C -2.597899 4.473168 -1.326016 5 0 5  z " style="stroke: #000000; stroke-opacity: 0.8"/>
    </defs>
    <g id="g_12" clip-path="url(#p18b6a98bdd)">
     <use id="use_14" xlink:href="#m96bae0e4b0" x="334.35" y="173.948158" style="fill-opacity: 0.8; stroke: #000000; stroke-opacity: 0.8"/>
    </g>
   </g>
   <g id="line2d_12">
    <path id="path_6" d="M 334.35 173.948158  L 334.24923 170.565791  L 333.947104 167.189675  L 333.444183 163.82605  L 332.741394 160.481133  L 331.840038 157.161104  L 330.741779 153.8721  L 329.448648 150.6202  L 327.735247 146.956882  L 325.774588 143.358716  L 323.571403 139.834386  L 321.131011 136.3924  L 318.459302 133.041066  L 315.562725 129.788473  L 312.448273 126.642473  L 309.123461 123.61066  L 305.596317 120.700351  L 301.875354 117.918572  L 297.969553 115.272036  L 293.888343 112.767133  L 289.641574 110.409909  L 285.239497 108.206053  L 280.692739 106.160886  L 276.012274 104.279343  L 271.209399 102.565967  L 266.295708 101.024893  L 260.650124 99.501755  L 254.896552 98.206036  L 249.052569 97.141694  L 243.136026 96.311981  L 237.164997 95.71943  L 231.157724 95.365853  L 225.132556 95.252329  L 219.1079 95.379205  L 213.102159 95.746094  L 207.13368 96.351874  L 201.220696 97.194696  L 195.38127 98.271984  L 189.633239 99.580448  L 183.994163 101.11609  L 178.481268 102.87422  L 173.70047 104.619454  L 169.044224 106.532035  L 164.523767 108.607344  L 160.150013 110.840373  L 155.933517 113.225731  L 151.884458 115.757661  L 148.012609 118.430052  L 144.327316 121.236451  L 140.837476 124.170086  L 137.55151 127.223876  L 134.477352 130.390448  L 131.622422 133.66216  L 128.99361 137.031115  L 126.597263 140.489179  L 124.439164 144.028007  L 122.524523 147.639056  L 120.857961 151.31361  L 119.443502 155.042799  L 118.415351 158.343584  L 117.58474 161.673209  L 116.953202 165.02552  L 116.521906 168.394321  L 116.291649 171.773386  L 116.262855 175.15647  L 116.435579 178.537322  L 116.8095 181.909692  L 117.383929 185.267348  L 118.157803 188.604084  L 119.129691 191.913734  L 120.297799 195.190181  L 121.659967 198.427369  L 123.451109 202.07127  L 125.488093 205.647288  L 127.766004 209.14679  L 130.279342 212.56133  L 133.02204 215.882665  L 135.987479 219.102779  L 139.168501 222.213899  L 142.557427 225.208515  L 146.146076 228.079399  L 149.925788 230.819621  L 153.887437 233.422567  L 158.021462 235.881953  L 162.317884 238.191844  L 166.766332 240.346663  L 171.356068 242.34121  L 176.076015 244.170669  L 180.914778 245.830626  L 185.860678 247.317073  L 191.538004 248.777476  L 197.318466 250.009291  L 203.184406 251.008754  L 209.117905 251.772812  L 215.100837 252.299131  L 221.114925 252.586104  L 227.141798 252.632854  L 233.163044 252.439237  L 239.160271 252.005846  L 245.115157 251.334004  L 251.009512 250.425764  L 256.825329 249.2839  L 262.544843 247.9119  L 268.150581 246.313956  L 273.625419 244.494949  L 278.368521 242.696947  L 282.983525 240.732999  L 287.459293 238.607846  L 291.785022 236.326618  L 295.950268 233.89482  L 299.944979 231.318324  L 303.759512 228.603347  L 307.38466 225.756444  L 310.811672 222.784486  L 314.032276 219.694647  L 317.038698 216.494385  L 319.823681 213.191425  L 322.380503 209.793739  L 324.702992 206.30953  L 326.785543 202.747207  L 328.623128 199.115369  L 330.211311 195.422782  L 331.393356 192.148939  L 332.379324 188.841459  L 333.167394 185.506453  L 333.756108 182.150086  L 334.144379 178.778561  L 334.331489 175.398108  L 334.35 173.948158  L 334.35 173.948158  " clip-path="url(#p18b6a98bdd)" style="fill: none; stroke: #0072b2; stroke-width: 2.5; stroke-linecap: square"/>
   </g>
   <g id="line2d_13">
    <path id="path_7" d="M 258.015 173.948158  L 258.015 173.948158  " clip-path="url(#p18b6a98bdd)" style="fill: none; stroke: #dc5e8b; stroke-linecap: square"/>
   </g>
   <g id="line2d_14">
    <path id="path_8" d="M 225.3 173.948158  L 334.35 173.948158  " clip-path="url(#p18b6a98bdd)" style="fill: none; stroke: #dc5e8b; stroke-width: 2.5; stroke-linecap: square"/>
   </g>
   <g id="patch_3">
    <path id="path_9" d="M 225.3 331.34  L 225.3 16.556315  " style="fill: none; stroke: #000000; stroke-width: 0.8; stroke-linejoin: miter; stroke-linecap: square"/>
   </g>
   <g id="patch_4">
    <path id="path_10" d="M 443.4 331.34  L 443.4 16.556315  " style="fill: none"/>
   </g>
   <g id="patch_5">
    <path id="path_11" d="M 7.2 173.948158  L 443.4 173.948158  " style="fill: none; stroke: #000000; stroke-width: 0.8; stroke-linejoin: miter; stroke-linecap: square"/>
   </g>
   <g id="patch_6">
    <path id="path_12" d="M 7.2 16.556315  L 443.4 16.556315  " style="fill: none"/>
   </g>
   <g id="text_7">
    <!-- v = 0$^\circ$ -->
    <g id="g_13" transform="translate(330.156097 84.493734) scale(0.2 -0.2)">
     <defs>
      <path id="CMSS17-76" d="M 2675 2752  L 2176 2752  L 1747 1556  C 1613 1165 1421 627 1389 352  L 1382 352  C 1370 468 1318 634 1286 749  C 1248 890 1197 1056 1158 1172  L 595 2752  L 83 2752  L 1094 0  L 1664 0  L 2675 2752  z " transform="scale(0.015625)"/>
      <path id="CMSS17-3d" d="M 4147 2017  C 4243 2017 4339 2017 4339 2125  C 4339 2240 4230 2240 4122 2240  L 550 2240  C 442 2240 333 2240 333 2125  C 333 2017 429 2017 525 2017  L 4147 2017  z M 4122 896  C 4230 896 4339 896 4339 1011  C 4339 1119 4243 1119 4147 1119  L 525 1119  C 429 1119 333 1119 333 1011  C 333 896 442 896 550 896  L 4122 896  z " transform="scale(0.015625)"/>
      <path id="CMSS17-30" d="M 2758 2044  C 2758 2405 2752 3077 2490 3596  C 2227 4096 1805 4229 1504 4229  C 1069 4229 698 3975 506 3570  C 301 3146 243 2709 243 2044  C 243 1589 262 1031 493 543  C 755 5 1197 -128 1498 -128  C 1894 -128 2278 81 2496 518  C 2720 974 2758 1474 2758 2044  z M 1498 261  C 1011 261 864 811 819 995  C 742 1310 730 1614 730 2114  C 730 2506 730 2948 851 3297  C 998 3701 1254 3840 1498 3840  C 1971 3840 2125 3372 2176 3208  C 2272 2873 2272 2481 2272 2114  C 2272 1526 2272 261 1498 261  z " transform="scale(0.015625)"/>
      <path id="CMSY10-e" d="M 2842 1600  C 2842 2277 2272 2828 1600 2828  C 909 2828 352 2264 352 1600  C 352 930 909 372 1600 372  C 2272 372 2842 923 2842 1600  z M 1600 628  C 1043 628 608 1070 608 1600  C 608 2130 1050 2572 1600 2572  C 2131 2572 2586 2142 2586 1600  C 2586 1058 2131 628 1600 628  z " transform="scale(0.015625)"/>
     </defs>
     <use id="use_15" xlink:href="#CMSS17-76" transform="scale(0.996264)"/>
     <use id="use_16" xlink:href="#CMSS17-3d" transform="translate(74.229254 0) scale(0.996264)"/>
     <use id="use_17" xlink:href="#CMSS17-30" transform="translate(178.326302 0) scale(0.996264)"/>
     <use id="use_18" xlink:href="#CMSY10-e" transform="translate(225.169926 36.153639) scale(0.697382)"/>
    </g>
   </g>
   <g id="text_8">
    <!-- (1.00, 0.00) -->
    <g id="g_14" transform="translate(241.703801 161.113922) scale(0.2 -0.2)">
     <defs>
      <path id="CMSS17-28" d="M 1613 4768  C 1267 4417 474 3601 474 1588  C 474 -433 1267 -1243 1613 -1600  L 2003 -1600  C 1216 -784 960 357 960 1581  C 960 2798 1203 3946 2003 4768  L 1613 4768  z " transform="scale(0.015625)"/>
      <path id="CMSS17-31" d="M 1818 4288  L 1696 4288  C 1350 3940 947 3890 538 3890  L 538 3520  C 723 3520 1024 3520 1325 3667  L 1325 369  L 570 369  L 570 0  L 2573 0  L 2573 369  L 1818 369  L 1818 4288  z " transform="scale(0.015625)"/>
      <path id="CMSS17-2e" d="M 1088 510  L 576 510  L 576 0  L 1088 0  L 1088 510  z " transform="scale(0.015625)"/>
      <path id="CMSS17-2c" d="M 1088 6  L 1088 510  L 576 510  L 576 0  L 736 0  L 570 -800  L 826 -800  L 1088 6  z " transform="scale(0.015625)"/>
      <path id="CMSS17-29" d="M 723 -1600  C 1069 -1249 1862 -433 1862 1581  C 1862 3601 1069 4411 723 4768  L 333 4768  C 1120 3952 1376 2811 1376 1588  C 1376 370 1133 -778 333 -1600  L 723 -1600  z " transform="scale(0.015625)"/>
     </defs>
     <use id="use_19" xlink:href="#CMSS17-28" transform="scale(0.996264)"/>
     <use id="use_20" xlink:href="#CMSS17-31" transform="translate(36.433914 0) scale(0.996264)"/>
     <use id="use_21" xlink:href="#CMSS17-2e" transform="translate(83.277538 0) scale(0.996264)"/>
     <use id="use_22" xlink:href="#CMSS17-30" transform="translate(109.301743 0) scale(0.996264)"/>
     <use id="use_23" xlink:href="#CMSS17-30" transform="translate(156.145366 0) scale(0.996264)"/>
     <use id="use_24" xlink:href="#CMSS17-2c" transform="translate(202.98899 0) scale(0.996264)"/>
     <use id="use_25" xlink:href="#CMSS17-30" transform="translate(260.242307 0) scale(0.996264)"/>
     <use id="use_26" xlink:href="#CMSS17-2e" transform="translate(307.085931 0) scale(0.996264)"/>
     <use id="use_27" xlink:href="#CMSS17-30" transform="translate(333.110136 0) scale(0.996264)"/>
     <use id="use_28" xlink:href="#CMSS17-30" transform="translate(379.953759 0) scale(0.996264)"/>
     <use id="use_29" xlink:href="#CMSS17-29" transform="translate(426.797383 0) scale(0.996264)"/>
    </g>
   </g>
  </g>
 </g>
 <defs>
  <clipPath id="p18b6a98bdd">
   <rect id="rect_0" x="7.2" y="16.556315" width="436.2" height="314.783685"/>
  </clipPath>
 </defs>
</svg>