<?xml version="1.0" encoding="utf-8" standalone="no"?>
<!DOCTYPE svg PUBLIC "-//W3C//DTD SVG 1.1//EN"
  "http://www.w3.org/Graphics/SVG/1.1/DTD/svg11.dtd">
<svg xmlns:xlink="http://www.w3.org/1999/xlink" width="460.8pt" height="345.6pt" viewBox="0 0 460.8 345.6" xmlns="http://www.w3.org/2000/svg" version="1.1">
 <metadata>
  <rdf:RDF xmlns:dc="http://purl.org/dc/elements/1.1/" xmlns:cc="http://creativecommons.org/ns#" xmlns:rdf="http://www.w3.org/1999/02/22-rdf-syntax-ns#">
   <cc:Work>
    <dc:type rdf:resource="http://purl.org/dc/dcmitype/StillImage"/>
    <dc:date>2025-04-04T11:06:10.123061</dc:date>
    <dc:format>image/svg+xml</dc:format>
    <dc:creator>
     <cc:Agent>
      <dc:title>Matplotlib v3.9.1, https://matplotlib.org/</dc:title>
     </cc:Agent>
    </dc:creator>
   </cc:Work>
  </rdf:RDF>
 </metadata>
 <defs>
  <style type="text/css">*{stroke-linejoin: round; stroke-linecap: butt}</style>
 </defs>
 <g id="figure_1">
  <g id="patch_1">
   <path d="M 0 345.6 
L 460.8 345.6 
L 460.8 0 
L 0 0 
z
" style="fill: #ffffff"/>
  </g>
  <g id="axes_1">
   <g id="patch_2">
    <path d="M 182.050909 268.247695 
L 398.487273 268.247695 
L 73.832727 80.808305 
z
" clip-path="url(#pa62c573543)" style="fill: #00648c; opacity: 0.1; stroke: #00648c; stroke-linejoin: miter"/>
   </g>
   <g id="line2d_1">
    <path d="M 182.050909 268.247695 
L 398.487273 268.247695 
L 73.832727 80.808305 
L 182.050909 268.247695 
" clip-path="url(#pa62c573543)" style="fill: none; stroke: #000000; stroke-width: 1.5; stroke-linecap: square"/>
   </g>
   <g id="line2d_2">
    <defs>
     <path id="mb7b18171d8" d="M 0 4 
C 1.060812 4 2.078319 3.578535 2.828427 2.828427 
C 3.578535 2.078319 4 1.060812 4 0 
C 4 -1.060812 3.578535 -2.078319 2.828427 -2.828427 
C 2.078319 -3.578535 1.060812 -4 0 -4 
C -1.060812 -4 -2.078319 -3.578535 -2.828427 -2.828427 
C -3.578535 -2.078319 -4 -1.060812 -4 0 
C -4 1.060812 -3.578535 2.078319 -2.828427 2.828427 
C -2.078319 3.578535 -1.060812 4 0 4 
z
" style="stroke: #000000; stroke-opacity: 0.7"/>
    </defs>
    <g clip-path="url(#pa62c573543)">
     <use xlink:href="#mb7b18171d8" x="73.832727" y="80.808305" style="fill-opacity: 0.7; stroke: #000000; stroke-opacity: 0.7"/>
     <use xlink:href="#mb7b18171d8" x="398.487273" y="268.247695" style="fill-opacity: 0.7; stroke: #000000; stroke-opacity: 0.7"/>
     <use xlink:href="#mb7b18171d8" x="182.050909" y="268.247695" style="fill-opacity: 0.7; stroke: #000000; stroke-opacity: 0.7"/>
    </g>
   </g>
   <g id="line2d_3">
    <path d="M 205.047273 268.247695 
L 205.042127 267.761231 
L 205.026692 267.274985 
L 205.000974 266.789175 
L 204.964985 266.304017 
L 204.918741 265.81973 
L 204.862263 265.336529 
L 204.795576 264.85463 
L 204.718709 264.37425 
L 204.631698 263.895604 
L 204.534582 263.418906 
L 204.427403 262.944368 
L 204.310209 262.472204 
L 204.183054 262.002625 
L 204.045994 261.535841 
L 203.89909 261.07206 
L 203.742408 260.611491 
L 203.576019 260.154339 
L 203.399996 259.70081 
L 203.214418 259.251105 
L 203.019369 258.805427 
L 202.814936 258.363975 
L 202.60121 257.926945 
L 202.378287 257.494535 
L 202.146267 257.066938 
L 201.905253 256.644344 
L 201.655354 256.226943 
L 201.396681 255.814922 
L 201.12935 255.408465 
L 200.853481 255.007754 
L 200.569197 254.612968 
L 200.276625 254.224285 
L 199.975896 253.841877 
L 199.667146 253.465917 
L 199.350511 253.096572 
L 199.026134 252.734008 
L 198.69416 252.378387 
L 198.354738 252.029868 
L 198.008019 251.688607 
L 197.654158 251.354757 
L 197.293315 251.028467 
L 196.92565 250.709883 
L 196.551328 250.399148 
L 196.170516 250.096401 
L 195.783385 249.801778 
L 195.390109 249.51541 
L 194.990862 249.237425 
L 194.585825 248.967948 
L 194.175178 248.7071 
L 193.759104 248.454996 
L 193.337791 248.211751 
L 192.911426 247.977473 
L 192.480201 247.752266 
L 192.044309 247.536232 
L 191.603944 247.329466 
L 191.159303 247.132063 
L 190.710587 246.94411 
L 190.257994 246.765691 
L 189.801729 246.596886 
L 189.341995 246.43777 
L 188.878998 246.288415 
L 188.412945 246.148888 
L 187.944045 246.019251 
L 187.472507 245.899562 
L 186.998543 245.789875 
L 186.522365 245.690239 
L 186.044186 245.600697 
L 185.564219 245.521292 
L 185.08268 245.452057 
L 184.599785 245.393024 
L 184.115748 245.344219 
L 183.630788 245.305665 
L 183.14512 245.277378 
L 182.658963 245.259371 
L 182.172533 245.251653 
L 181.68605 245.254226 
L 181.199729 245.267089 
L 180.713789 245.290237 
L 180.228448 245.32366 
L 179.743923 245.367342 
L 179.26043 245.421263 
L 178.778185 245.485401 
L 178.297406 245.559725 
L 177.818306 245.644203 
L 177.3411 245.738798 
L 176.866003 245.843465 
L 176.393226 245.95816 
L 175.92298 246.08283 
L 175.455478 246.217419 
L 174.990927 246.361868 
L 174.529535 246.516112 
L 174.07151 246.680082 
L 173.617056 246.853703 
L 173.166376 247.0369 
L 172.719673 247.229589 
L 172.277145 247.431684 
L 171.838992 247.643096 
L 171.405409 247.863729 
L 170.97659 248.093484 
L 170.552727 248.33226 
" clip-path="url(#pa62c573543)" style="fill: none; stroke: #000000; stroke-linecap: square"/>
   </g>
   <g id="line2d_4">
    <path d="M 352.494545 268.247695 
L 352.495189 268.004446 
L 352.497118 267.761204 
L 352.500335 267.517976 
L 352.504837 267.274768 
L 352.510626 267.031587 
L 352.517701 266.78844 
L 352.526062 266.545335 
L 352.535708 266.302276 
L 352.54664 266.059273 
L 352.558856 265.81633 
L 352.572358 265.573455 
L 352.587144 265.330656 
L 352.603213 265.087937 
L 352.620567 264.845308 
L 352.639203 264.602773 
L 352.659122 264.36034 
L 352.680322 264.118016 
L 352.702804 263.875808 
L 352.726567 263.633722 
L 352.751609 263.391765 
L 352.777931 263.149944 
L 352.805532 262.908265 
L 352.83441 262.666736 
L 352.864566 262.425362 
L 352.895997 262.184152 
L 352.928704 261.943111 
L 352.962685 261.702247 
L 352.99794 261.461566 
L 353.034467 261.221074 
L 353.072265 260.980779 
L 353.111334 260.740688 
L 353.151672 260.500806 
L 353.193278 260.261141 
L 353.236152 260.0217 
L 353.28029 259.782488 
L 353.325694 259.543514 
L 353.372361 259.304783 
L 353.420289 259.066302 
L 353.469479 258.828077 
L 353.519927 258.590117 
L 353.571634 258.352426 
L 353.624597 258.115012 
L 353.678814 257.877882 
L 353.734285 257.641042 
L 353.791008 257.404498 
L 353.848981 257.168258 
L 353.908203 256.932328 
L 353.968672 256.696714 
L 354.030386 256.461423 
L 354.093344 256.226462 
L 354.157543 255.991837 
L 354.222983 255.757555 
L 354.28966 255.523623 
L 354.357574 255.290046 
L 354.426722 255.056832 
L 354.497103 254.823987 
L 354.568714 254.591517 
L 354.641554 254.359429 
L 354.71562 254.12773 
L 354.790911 253.896425 
L 354.867424 253.665523 
L 354.945157 253.435028 
L 355.024108 253.204947 
L 355.104275 252.975287 
L 355.185655 252.746054 
L 355.268246 252.517255 
L 355.352047 252.288896 
L 355.437054 252.060984 
L 355.523265 251.833524 
L 355.610678 251.606523 
L 355.69929 251.379988 
L 355.7891 251.153925 
L 355.880103 250.928339 
L 355.972299 250.703239 
L 356.065683 250.478629 
L 356.160254 250.254516 
L 356.25601 250.030906 
L 356.352946 249.807806 
L 356.451061 249.585222 
L 356.550352 249.363159 
L 356.650816 249.141625 
L 356.752451 248.920626 
L 356.855252 248.700167 
L 356.959219 248.480254 
L 357.064347 248.260895 
L 357.170633 248.042095 
L 357.278075 247.82386 
L 357.38667 247.606196 
L 357.496415 247.38911 
L 357.607306 247.172607 
L 357.719341 246.956694 
L 357.832516 246.741376 
L 357.946829 246.52666 
L 358.062275 246.312551 
L 358.178852 246.099056 
L 358.296557 245.886181 
L 358.415385 245.673931 
L 358.535335 245.462312 
L 358.656403 245.251331 
" clip-path="url(#pa62c573543)" style="fill: none; stroke: #000000; stroke-linecap: square"/>
   </g>
   <g id="text_1">
    <!-- $120^\circ$ -->
    <g transform="translate(182.104122 243.355224) scale(0.2 -0.2)">
     <defs>
      <path id="CMR17-31" d="M 1702 4058 
C 1702 4192 1696 4192 1606 4192 
C 1357 3916 979 3827 621 3827 
C 602 3827 570 3827 563 3808 
C 557 3795 557 3782 557 3648 
C 755 3648 1088 3686 1344 3839 
L 1344 461 
C 1344 236 1331 160 781 160 
L 589 160 
L 589 0 
C 896 0 1216 0 1523 0 
C 1830 0 2150 0 2458 0 
L 2458 160 
L 2266 160 
C 1715 160 1702 230 1702 458 
L 1702 4058 
z
" transform="scale(0.015625)"/>
      <path id="CMR17-32" d="M 2669 989 
L 2554 989 
C 2490 536 2438 459 2413 420 
C 2381 369 1920 369 1830 369 
L 602 369 
C 832 619 1280 1072 1824 1597 
C 2214 1967 2669 2402 2669 3035 
C 2669 3790 2067 4224 1395 4224 
C 691 4224 262 3604 262 3030 
C 262 2780 448 2748 525 2748 
C 589 2748 781 2787 781 3010 
C 781 3207 614 3264 525 3264 
C 486 3264 448 3258 422 3245 
C 544 3790 915 4058 1306 4058 
C 1862 4058 2227 3617 2227 3035 
C 2227 2479 1901 2000 1536 1584 
L 262 146 
L 262 0 
L 2515 0 
L 2669 989 
z
" transform="scale(0.015625)"/>
      <path id="CMR17-30" d="M 2688 2025 
C 2688 2416 2682 3080 2413 3591 
C 2176 4039 1798 4198 1466 4198 
C 1158 4198 768 4058 525 3597 
C 269 3118 243 2524 243 2025 
C 243 1661 250 1106 448 619 
C 723 -39 1216 -128 1466 -128 
C 1760 -128 2208 -7 2470 600 
C 2662 1042 2688 1559 2688 2025 
z
M 1466 -26 
C 1056 -26 813 325 723 812 
C 653 1188 653 1738 653 2096 
C 653 2588 653 2997 736 3387 
C 858 3929 1216 4096 1466 4096 
C 1728 4096 2067 3923 2189 3400 
C 2272 3036 2278 2607 2278 2096 
C 2278 1680 2278 1169 2202 792 
C 2067 95 1690 -26 1466 -26 
z
" transform="scale(0.015625)"/>
      <path id="CMSY10-e" d="M 2842 1600 
C 2842 2277 2272 2828 1600 2828 
C 909 2828 352 2264 352 1600 
C 352 930 909 372 1600 372 
C 2272 372 2842 923 2842 1600 
z
M 1600 628 
C 1043 628 608 1070 608 1600 
C 608 2130 1050 2572 1600 2572 
C 2131 2572 2586 2142 2586 1600 
C 2586 1058 2131 628 1600 628 
z
" transform="scale(0.015625)"/>
     </defs>
     <use xlink:href="#CMR17-31" transform="scale(0.996264)"/>
     <use xlink:href="#CMR17-32" transform="translate(45.690477 0) scale(0.996264)"/>
     <use xlink:href="#CMR17-30" transform="translate(91.380954 0) scale(0.996264)"/>
     <use xlink:href="#CMSY10-e" transform="translate(137.071431 36.153639) scale(0.697382)"/>
    </g>
   </g>
   <g id="text_2">
    <!-- $30^\circ$ -->
    <g transform="translate(321.494563 255.981103) scale(0.2 -0.2)">
     <defs>
      <path id="CMR17-33" d="M 1414 2157 
C 1984 2157 2234 1662 2234 1090 
C 2234 320 1824 25 1453 25 
C 1114 25 563 194 390 693 
C 422 680 454 680 486 680 
C 640 680 755 782 755 948 
C 755 1133 614 1216 486 1216 
C 378 1216 211 1165 211 926 
C 211 335 787 -128 1466 -128 
C 2176 -128 2720 430 2720 1085 
C 2720 1707 2208 2157 1600 2227 
C 2086 2328 2554 2756 2554 3329 
C 2554 3820 2048 4179 1472 4179 
C 890 4179 378 3829 378 3329 
C 378 3110 544 3072 627 3072 
C 762 3072 877 3155 877 3321 
C 877 3486 762 3569 627 3569 
C 602 3569 570 3569 544 3557 
C 730 3959 1235 4032 1459 4032 
C 1683 4032 2106 3925 2106 3320 
C 2106 3143 2080 2828 1862 2550 
C 1670 2304 1453 2304 1242 2284 
C 1210 2284 1062 2269 1037 2269 
C 992 2263 966 2257 966 2208 
C 966 2163 973 2157 1101 2157 
L 1414 2157 
z
" transform="scale(0.015625)"/>
     </defs>
     <use xlink:href="#CMR17-33" transform="scale(0.996264)"/>
     <use xlink:href="#CMR17-30" transform="translate(45.690477 0) scale(0.996264)"/>
     <use xlink:href="#CMSY10-e" transform="translate(91.380954 36.153639) scale(0.697382)"/>
    </g>
   </g>
   <g id="text_3">
    <!-- $B$ -->
    <g transform="translate(415.849521 272.995697) scale(0.2 -0.2)">
     <defs>
      <path id="CMMI12-42" d="M 2342 3921 
C 2400 4160 2426 4160 2675 4160 
L 3507 4160 
C 4230 4160 4230 3544 4230 3485 
C 4230 2966 3712 2304 2867 2304 
L 1946 2304 
L 2342 3921 
z
M 3424 2275 
C 4122 2402 4755 2886 4755 3473 
C 4755 3970 4314 4352 3590 4352 
L 1536 4352 
C 1414 4352 1357 4352 1357 4226 
C 1357 4160 1414 4160 1510 4160 
C 1901 4160 1901 4112 1901 4044 
C 1901 4032 1901 3993 1875 3897 
L 1011 472 
C 954 249 941 185 493 185 
C 371 185 307 185 307 70 
C 307 0 346 0 474 0 
L 2669 0 
C 3648 0 4403 739 4403 1383 
C 4403 1906 3942 2224 3424 2275 
z
M 2515 185 
L 1651 185 
C 1562 185 1549 185 1510 192 
C 1440 198 1434 211 1434 261 
C 1434 305 1446 343 1459 399 
L 1907 2176 
L 3110 2176 
C 3866 2176 3866 1483 3866 1433 
C 3866 828 3309 185 2515 185 
z
" transform="scale(0.015625)"/>
     </defs>
     <use xlink:href="#CMMI12-42" transform="scale(0.996264)"/>
    </g>
   </g>
   <g id="text_4">
    <!-- $C$ -->
    <g transform="translate(50.272515 71.085089) scale(0.2 -0.2)">
     <defs>
      <path id="CMMI12-43" d="M 4781 4423 
C 4781 4480 4736 4480 4723 4480 
C 4710 4480 4685 4480 4634 4416 
L 4192 3882 
C 3968 4264 3616 4480 3136 4480 
C 1754 4480 320 3088 320 1595 
C 320 533 1069 -128 2003 -128 
C 2515 -128 2963 88 3334 400 
C 3891 863 4058 1481 4058 1531 
C 4058 1588 4006 1588 3987 1588 
C 3930 1588 3923 1550 3910 1524 
C 3616 534 2752 57 2112 57 
C 1434 57 845 489 845 1391 
C 845 1595 909 2700 1632 3532 
C 1984 3939 2586 4295 3194 4295 
C 3898 4295 4211 3717 4211 3068 
C 4211 2903 4192 2764 4192 2738 
C 4192 2681 4256 2681 4275 2681 
C 4346 2681 4352 2687 4378 2801 
L 4781 4423 
z
" transform="scale(0.015625)"/>
     </defs>
     <use xlink:href="#CMMI12-43" transform="scale(0.996264)"/>
    </g>
   </g>
   <g id="text_5">
    <!-- $4$ -->
    <g transform="translate(290.269091 296.22474) scale(0.2 -0.2)">
     <defs>
      <path id="CMR17-34" d="M 2150 4122 
C 2150 4256 2144 4256 2029 4256 
L 128 1254 
L 128 1088 
L 1779 1088 
L 1779 457 
C 1779 224 1766 160 1318 160 
L 1197 160 
L 1197 0 
C 1402 0 1747 0 1965 0 
C 2182 0 2528 0 2733 0 
L 2733 160 
L 2611 160 
C 2163 160 2150 224 2150 457 
L 2150 1088 
L 2803 1088 
L 2803 1254 
L 2150 1254 
L 2150 4122 
z
M 1798 3703 
L 1798 1254 
L 256 1254 
L 1798 3703 
z
" transform="scale(0.015625)"/>
     </defs>
     <use xlink:href="#CMR17-34" transform="scale(0.996264)"/>
    </g>
   </g>
   <g id="text_6">
    <!-- $A$ -->
    <g transform="translate(162.014426 287.4956) scale(0.2 -0.2)">
     <defs>
      <path id="CMMI12-41" d="M 1088 691 
C 864 314 646 186 339 186 
C 269 180 218 180 218 58 
C 218 24 250 0 294 0 
C 410 0 698 0 813 0 
C 998 0 1203 0 1382 0 
C 1421 0 1498 0 1498 122 
C 1498 180 1446 186 1408 186 
C 1261 186 1139 236 1139 388 
C 1139 476 1178 546 1261 685 
L 1747 1479 
L 3379 1479 
C 3386 1423 3386 1373 3392 1316 
C 3411 1152 3488 495 3488 376 
C 3488 186 3162 186 3059 186 
C 2989 186 2918 186 2918 70 
C 2918 0 2976 0 3014 0 
C 3123 0 3251 0 3360 0 
L 3725 0 
C 4115 0 4397 0 4403 0 
C 4448 0 4518 0 4518 122 
C 4518 186 4461 186 4365 186 
C 4013 186 4006 244 3987 434 
L 3597 4404 
C 3584 4531 3558 4544 3488 4544 
C 3424 4544 3386 4531 3328 4435 
L 1088 691 
z
M 1856 1664 
L 3142 3819 
L 3360 1664 
L 1856 1664 
z
" transform="scale(0.015625)"/>
     </defs>
     <use xlink:href="#CMMI12-41" transform="scale(0.996264)"/>
    </g>
   </g>
  </g>
 </g>
 <defs>
  <clipPath id="pa62c573543">
   <rect x="57.6" y="41.472" width="357.12" height="266.112"/>
  </clipPath>
 </defs>
</svg>
