<svg xmlns:xlink="http://www.w3.org/1999/xlink" xmlns="http://www.w3.org/2000/svg" viewBox="0 0 288 288" version="1.1" class="graph-inline-svg" role="img" aria-label="Tilpasset figur">
 
 <defs>
  <style type="text/css">*{stroke-linejoin: round; stroke-linecap: butt}</style>
 </defs>
 <g id="figure_1">
  <g id="patch_1">
   <path d="M 0 288  L 288 288  L 288 0  L 0 0  L 0 288  z " style="fill: none" id="mb_auto_path_0"/>
  </g>
  <g id="axes_1">
   <g id="patch_2">
    <path d="M 10.8 277.2  L 242.550082 277.2  L 242.550082 17.358952  L 10.8 17.358952  L 10.8 277.2  z " style="fill: none" id="mb_auto_path_1"/>
   </g>
   <g id="matplotlib.axis_1">
    <g id="text_1">
     <!-- $x$ -->
     <g transform="translate(234.789314 160.965353) scale(0.14 -0.14)" id="mb_auto_g_0">
      <defs>
       <path id="CMMI12-78" d="M 3034 2606  C 2829 2567 2752 2414 2752 2293  C 2752 2139 2874 2088 2963 2088  C 3155 2088 3290 2254 3290 2427  C 3290 2695 2982 2816 2714 2816  C 2323 2816 2106 2433 2048 2312  C 1901 2816 1504 2816 1389 2816  C 736 2816 390 1980 390 1839  C 390 1814 416 1782 461 1782  C 512 1782 525 1820 538 1846  C 755 2555 1184 2689 1370 2689  C 1658 2689 1715 2420 1715 2267  C 1715 2127 1677 1980 1600 1673  L 1382 798  C 1286 415 1101 64 762 64  C 730 64 570 64 435 147  C 666 192 717 383 717 460  C 717 588 621 664 499 664  C 346 664 179 530 179 326  C 179 57 480 -64 755 -64  C 1062 -64 1280 179 1414 441  C 1517 64 1837 -64 2074 -64  C 2726 -64 3072 773 3072 913  C 3072 945 3046 971 3008 971  C 2950 971 2944 939 2925 888  C 2752 326 2381 64 2093 64  C 1869 64 1747 230 1747 492  C 1747 632 1773 734 1875 1156  L 2099 2024  C 2195 2408 2413 2689 2707 2689  C 2720 2689 2899 2689 3034 2606  z " transform="scale(0.015625)"/>
      </defs>
      <use xlink:href="#CMMI12-78" transform="scale(0.996264)" id="mb_auto_use_0"/>
     </g>
    </g>
   </g>
   <g id="matplotlib.axis_2">
    <g id="text_2">
     <!-- $y$ -->
     <g transform="translate(116.016068 14.646924) scale(0.14 -0.14)" id="mb_auto_g_1">
      <defs>
       <path id="CMMI12-79" d="M 1683 -700  C 1510 -939 1261 -1152 947 -1152  C 870 -1152 563 -1152 467 -889  C 486 -895 518 -895 531 -895  C 723 -895 851 -729 851 -582  C 851 -435 730 -384 634 -384  C 531 -384 307 -458 307 -759  C 307 -1071 582 -1286 947 -1286  C 1587 -1286 2234 -700 2413 6  L 3040 2485  C 3046 2517 3059 2556 3059 2594  C 3059 2689 2982 2753 2886 2753  C 2829 2753 2694 2727 2643 2535  L 2170 658  C 2138 543 2138 530 2086 460  C 1958 281 1747 64 1440 64  C 1082 64 1050 415 1050 588  C 1050 952 1222 1443 1395 1903  C 1466 2088 1504 2178 1504 2305  C 1504 2574 1312 2816 998 2816  C 410 2816 173 1890 173 1839  C 173 1814 198 1782 243 1782  C 301 1782 307 1807 333 1897  C 486 2433 730 2689 979 2689  C 1037 2689 1146 2689 1146 2478  C 1146 2312 1075 2127 979 1884  C 666 1047 666 837 666 683  C 666 77 1101 -64 1421 -64  C 1606 -64 1837 -6 2061 230  L 2067 224  C 1971 -147 1907 -392 1683 -700  z " transform="scale(0.015625)"/>
      </defs>
      <use xlink:href="#CMMI12-79" transform="scale(0.996264)" id="mb_auto_use_1"/>
     </g>
    </g>
   </g>
   <g id="line2d_1">
    <defs>
     <path id="ma8e4a62900" d="M 3 0  L -3 -3  L -3 3  z " style="stroke: #000000; stroke-linejoin: miter"/>
    </defs>
    <g id="mb_auto_g_2">
     <use xlink:href="#ma8e4a62900" x="242.550082" y="147.279476" style="stroke: #000000; stroke-linejoin: miter" id="mb_auto_use_2"/>
    </g>
   </g>
   <g id="line2d_2">
    <defs>
     <path id="m0c7c09917b" d="M 0 -3  L -3 3  L 3 3  z " style="stroke: #000000; stroke-linejoin: miter"/>
    </defs>
    <g id="mb_auto_g_3">
     <use xlink:href="#m0c7c09917b" x="126.675041" y="17.358952" style="stroke: #000000; stroke-linejoin: miter" id="mb_auto_use_3"/>
    </g>
   </g>
   <g id="line2d_3">
    <path d="M 149.850049 147.279476  L 149.850049 147.279476  " clip-path="url(#pc5da43eb22)" style="fill: none; stroke: #dc5e8b; stroke-linecap: square" id="mb_auto_path_2"/>
   </g>
   <g id="line2d_4">
    <path d="M 126.675041 147.279476  L 203.925069 147.279476  " clip-path="url(#pc5da43eb22)" style="fill: none; stroke: #dc5e8b; stroke-width: 2.5; stroke-linecap: square" id="mb_auto_path_3"/>
   </g>
   <g id="line2d_5">
    <path d="M 203.925069 147.279476  L 203.807077 142.494144  L 203.453462 137.723431  L 202.865305 132.981909  L 202.044401 128.284064  L 200.993259 123.644245  L 199.71509 119.076628  L 198.213798 114.595165  L 196.493969 110.213545  L 194.560857 105.945155  L 192.420368 101.803033  L 190.07904 97.799832  L 187.544025 93.947782  L 184.823067 90.25865  L 181.924479 86.743705  L 178.857115 83.413684  L 175.996445 80.617148  L 173.016722 77.981522  L 169.92514 75.513167  L 166.729161 73.218041  L 163.4365 71.101685  L 160.055103 69.169206  L 156.593134 67.42527  L 153.058949 65.874086  L 149.461078 64.519399  L 145.808207 63.364477  L 142.109151 62.412109  L 138.372841 61.664595  L 134.608295 61.123737  L 130.824599 60.790842  L 127.030888 60.666713  L 123.236317 60.751649  L 119.450047 61.045447  L 115.681216 61.547396  L 111.938922 62.256285  L 108.232199 63.170403  L 104.569992 64.287544  L 100.961143 65.60501  L 97.414362 67.119622  L 93.93821 68.827723  L 90.541079 70.725192  L 87.231167 72.807447  L 84.016465 75.069463  L 80.904733 77.505779  L 77.90348 80.110514  L 75.019953 82.877382  L 72.26111 85.799704  L 69.314729 89.264335  L 66.543572 92.90619  L 63.956105 96.714145  L 61.560232 100.676567  L 59.363272 104.781352  L 57.371935 109.01596  L 55.592306 113.367455  L 54.029821 117.822545  L 52.689252 122.36762  L 51.574695 126.988795  L 50.689554 131.671955  L 50.036534 136.402792  L 49.61763 141.166856  L 49.43412 145.949592  L 49.486566 150.736391  L 49.774808 155.51263  L 50.297964 160.263718  L 51.054437 164.975142  L 52.041917 169.632509  L 53.257385 174.221592  L 54.69713 178.728373  L 56.356753 183.139083  L 58.231184 187.440249  L 60.314698 191.618732  L 62.600929 195.661767  L 65.082894 199.557004  L 67.75301 203.292544  L 70.603122 206.856975  L 73.624522 210.239409  L 76.807981 213.429512  L 79.765921 216.095806  L 82.83709 218.59599  L 86.014075 220.924031  L 89.289207 223.074309  L 92.654581 225.041634  L 96.102074 226.821256  L 99.623363 228.40888  L 103.20995 229.800674  L 106.853177 230.993279  L 110.54425 231.983815  L 114.274259 232.769893  L 118.034202 233.349613  L 121.815001 233.721578  L 125.607532 233.884888  L 129.40264 233.839151  L 133.191163 233.584476  L 136.963958 233.121478  L 140.711918 232.451275  L 144.425996 231.575484  L 148.097226 230.49622  L 151.716747 229.216087  L 155.275823 227.738176  L 158.765862 226.066053  L 162.178441 224.203756  L 165.505321 222.155778  L 168.738473 219.927065  L 171.870092 217.522995  L 174.89262 214.949371  L 177.79876 212.212406  L 180.581497 209.318705  L 183.556222 205.884656  L 186.357185 202.27158  L 188.975831 198.490513  L 191.404161 194.553008  L 193.634756 190.471091  L 195.660803 186.257232  L 197.476112 181.924304  L 199.075138 177.485543  L 200.452996 172.954508  L 201.605477 168.345041  L 202.52906 163.671223  L 203.220924 158.947332  L 203.678956 154.187798  L 203.901757 149.40716  L 203.925069 147.279476  L 203.925069 147.279476  " clip-path="url(#pc5da43eb22)" style="fill: none; stroke: #0072b2; stroke-width: 2.5; stroke-linecap: square" id="mb_auto_path_4"/>
   </g>
   <g id="LineCollection_1">
    <path d="M 203.925069 147.279476  L 203.925069 147.279476  " clip-path="url(#pc5da43eb22)" style="fill: none; stroke-dasharray: 9.25,4; stroke-dashoffset: 0; stroke: #808080; stroke-width: 2.5" id="mb_auto_path_5"/>
   </g>
   <g id="LineCollection_2">
    <path d="M 126.675041 147.279476  L 203.925069 147.279476  " clip-path="url(#pc5da43eb22)" style="fill: none; stroke-dasharray: 9.25,4; stroke-dashoffset: 0; stroke: #808080; stroke-width: 2.5" id="mb_auto_path_6"/>
   </g>
   <g id="line2d_6">
    <defs>
     <path id="m8a84830928" d="M 0 5  C 1.326016 5 2.597899 4.473168 3.535534 3.535534  C 4.473168 2.597899 5 1.326016 5 0  C 5 -1.326016 4.473168 -2.597899 3.535534 -3.535534  C 2.597899 -4.473168 1.326016 -5 0 -5  C -1.326016 -5 -2.597899 -4.473168 -3.535534 -3.535534  C -4.473168 -2.597899 -5 -1.326016 -5 0  C -5 1.326016 -4.473168 2.597899 -3.535534 3.535534  C -2.597899 4.473168 -1.326016 5 0 5  z " style="stroke: #000000; stroke-opacity: 0.8"/>
    </defs>
    <g clip-path="url(#pc5da43eb22)" id="mb_auto_g_4">
     <use xlink:href="#m8a84830928" x="203.925069" y="147.279476" style="fill-opacity: 0.8; stroke: #000000; stroke-opacity: 0.8" id="mb_auto_use_4"/>
    </g>
   </g>
   <g id="patch_3">
    <path d="M 126.675041 277.2  L 126.675041 17.358952  " style="fill: none; stroke: #000000; stroke-width: 0.8; stroke-linejoin: miter; stroke-linecap: square" id="mb_auto_path_7"/>
   </g>
   <g id="patch_4">
    <path d="M 242.550082 277.2  L 242.550082 17.358952  " style="fill: none" id="mb_auto_path_8"/>
   </g>
   <g id="patch_5">
    <path d="M 10.8 147.279476  L 242.550082 147.279476  " style="fill: none; stroke: #000000; stroke-width: 0.8; stroke-linejoin: miter; stroke-linecap: square" id="mb_auto_path_9"/>
   </g>
   <g id="patch_6">
    <path d="M 10.8 17.358952  L 242.550082 17.358952  " style="fill: none" id="mb_auto_path_10"/>
   </g>
   <g id="text_3">
    <!-- $v = 0^\circ$ -->
    <g transform="translate(161.051303 150.7664) scale(0.14 -0.14)" id="mb_auto_g_5">
     <defs>
      <path id="CMMI12-76" d="M 2925 2389  C 2925 2791 2720 2816 2669 2816  C 2515 2816 2374 2663 2374 2535  C 2374 2459 2419 2414 2445 2389  C 2509 2331 2675 2159 2675 1827  C 2675 1558 2291 64 1523 64  C 1133 64 1056 390 1056 626  C 1056 945 1203 1392 1376 1852  C 1478 2114 1504 2178 1504 2305  C 1504 2574 1312 2816 998 2816  C 410 2816 173 1890 173 1839  C 173 1814 198 1782 243 1782  C 301 1782 307 1807 333 1897  C 486 2446 736 2689 979 2689  C 1037 2689 1146 2689 1146 2478  C 1146 2312 1075 2127 979 1884  C 672 1067 672 869 672 715  C 672 575 691 313 890 134  C 1120 -64 1440 -64 1498 -64  C 2560 -64 2925 2024 2925 2389  z " transform="scale(0.015625)"/>
      <path id="CMR17-3d" d="M 4115 2017  C 4211 2017 4307 2017 4307 2125  C 4307 2240 4198 2240 4090 2240  L 512 2240  C 403 2240 294 2240 294 2125  C 294 2017 390 2017 486 2017  L 4115 2017  z M 4090 896  C 4198 896 4307 896 4307 1011  C 4307 1119 4211 1119 4115 1119  L 486 1119  C 390 1119 294 1119 294 1011  C 294 896 403 896 512 896  L 4090 896  z " transform="scale(0.015625)"/>
      <path id="CMR17-30" d="M 2688 2025  C 2688 2416 2682 3080 2413 3591  C 2176 4039 1798 4198 1466 4198  C 1158 4198 768 4058 525 3597  C 269 3118 243 2524 243 2025  C 243 1661 250 1106 448 619  C 723 -39 1216 -128 1466 -128  C 1760 -128 2208 -7 2470 600  C 2662 1042 2688 1559 2688 2025  z M 1466 -26  C 1056 -26 813 325 723 812  C 653 1188 653 1738 653 2096  C 653 2588 653 2997 736 3387  C 858 3929 1216 4096 1466 4096  C 1728 4096 2067 3923 2189 3400  C 2272 3036 2278 2607 2278 2096  C 2278 1680 2278 1169 2202 792  C 2067 95 1690 -26 1466 -26  z " transform="scale(0.015625)"/>
      <path id="CMSY10-e" d="M 2842 1600  C 2842 2277 2272 2828 1600 2828  C 909 2828 352 2264 352 1600  C 352 930 909 372 1600 372  C 2272 372 2842 923 2842 1600  z M 1600 628  C 1043 628 608 1070 608 1600  C 608 2130 1050 2572 1600 2572  C 2131 2572 2586 2142 2586 1600  C 2586 1058 2131 628 1600 628  z " transform="scale(0.015625)"/>
     </defs>
     <use xlink:href="#CMMI12-76" transform="scale(0.996264)" id="mb_auto_use_5"/>
     <use xlink:href="#CMR17-3d" transform="translate(78.409182 0) scale(0.996264)" id="mb_auto_use_6"/>
     <use xlink:href="#CMR17-30" transform="translate(177.797979 0) scale(0.996264)" id="mb_auto_use_7"/>
     <use xlink:href="#CMSY10-e" transform="translate(223.488456 36.153639) scale(0.697382)" id="mb_auto_use_8"/>
    </g>
   </g>
   <g id="text_4">
    <!-- $P(1.00, 0.00)$ -->
    <g transform="translate(207.40132 131.233568) scale(0.14 -0.14)" id="mb_auto_g_6">
     <defs>
      <path id="CMMI12-50" d="M 1894 2023  L 2970 2023  C 3853 2023 4736 2673 4736 3401  C 4736 3898 4314 4352 3507 4352  L 1530 4352  C 1408 4352 1350 4352 1350 4231  C 1350 4167 1408 4167 1504 4167  C 1894 4167 1894 4116 1894 4046  C 1894 4034 1894 3995 1869 3899  L 1005 472  C 947 249 934 185 486 185  C 365 185 301 185 301 70  C 301 0 358 0 397 0  C 518 0 646 0 768 0  L 1517 0  C 1638 0 1773 0 1894 0  C 1946 0 2016 0 2016 121  C 2016 185 1958 185 1862 185  C 1478 185 1472 230 1472 293  C 1472 325 1478 369 1485 401  L 1894 2023  z M 2355 3930  C 2413 4167 2438 4167 2688 4167  L 3322 4167  C 3802 4167 4198 4013 4198 3535  C 4198 3369 4115 2827 3821 2534  C 3712 2419 3405 2176 2822 2176  L 1920 2176  L 2355 3930  z " transform="scale(0.015625)"/>
      <path id="CMR17-28" d="M 1958 -1561  C 1958 -1555 1958 -1542 1939 -1523  C 1645 -1224 858 -407 858 1581  C 858 3569 1632 4379 1946 4697  C 1946 4704 1958 4717 1958 4736  C 1958 4755 1939 4768 1914 4768  C 1843 4768 1299 4296 986 3594  C 666 2887 576 2199 576 1588  C 576 1128 621 351 1005 -471  C 1312 -1135 1837 -1600 1914 -1600  C 1946 -1600 1958 -1587 1958 -1561  z " transform="scale(0.015625)"/>
      <path id="CMR17-31" d="M 1702 4058  C 1702 4192 1696 4192 1606 4192  C 1357 3916 979 3827 621 3827  C 602 3827 570 3827 563 3808  C 557 3795 557 3782 557 3648  C 755 3648 1088 3686 1344 3839  L 1344 461  C 1344 236 1331 160 781 160  L 589 160  L 589 0  C 896 0 1216 0 1523 0  C 1830 0 2150 0 2458 0  L 2458 160  L 2266 160  C 1715 160 1702 230 1702 458  L 1702 4058  z " transform="scale(0.015625)"/>
      <path id="CMMI12-3a" d="M 1178 307  C 1178 492 1024 619 870 619  C 685 619 557 466 557 313  C 557 128 710 0 864 0  C 1050 0 1178 153 1178 307  z " transform="scale(0.015625)"/>
      <path id="CMMI12-3b" d="M 1248 -31  C 1248 343 1126 619 864 619  C 659 619 557 453 557 313  C 557 172 653 0 870 0  C 954 0 1024 26 1082 83  C 1094 96 1101 96 1107 96  C 1120 96 1120 5 1120 -27  C 1120 -240 1082 -659 710 -1080  C 640 -1157 640 -1170 640 -1183  C 640 -1216 672 -1248 704 -1248  C 755 -1248 1248 -771 1248 -31  z " transform="scale(0.015625)"/>
      <path id="CMR17-29" d="M 1683 1581  C 1683 2040 1638 2817 1254 3639  C 947 4303 422 4768 346 4768  C 326 4768 301 4761 301 4729  C 301 4717 307 4710 314 4697  C 621 4378 1402 3568 1402 1584  C 1402 -407 627 -1217 314 -1537  C 307 -1549 301 -1556 301 -1568  C 301 -1600 326 -1600 346 -1600  C 416 -1600 960 -1128 1274 -426  C 1594 281 1683 969 1683 1581  z " transform="scale(0.015625)"/>
     </defs>
     <use xlink:href="#CMMI12-50" transform="scale(0.996264)" id="mb_auto_use_9"/>
     <use xlink:href="#CMR17-28" transform="translate(76.425821 0) scale(0.996264)" id="mb_auto_use_10"/>
     <use xlink:href="#CMR17-31" transform="translate(111.706589 0) scale(0.996264)" id="mb_auto_use_11"/>
     <use xlink:href="#CMMI12-3a" transform="translate(157.397066 0) scale(0.996264)" id="mb_auto_use_12"/>
     <use xlink:href="#CMR17-30" transform="translate(184.494243 0) scale(0.996264)" id="mb_auto_use_13"/>
     <use xlink:href="#CMR17-30" transform="translate(230.18472 0) scale(0.996264)" id="mb_auto_use_14"/>
     <use xlink:href="#CMMI12-3b" transform="translate(275.875197 0) scale(0.996264)" id="mb_auto_use_15"/>
     <use xlink:href="#CMR17-30" transform="translate(319.576779 0) scale(0.996264)" id="mb_auto_use_16"/>
     <use xlink:href="#CMMI12-3a" transform="translate(365.267256 0) scale(0.996264)" id="mb_auto_use_17"/>
     <use xlink:href="#CMR17-30" transform="translate(392.364434 0) scale(0.996264)" id="mb_auto_use_18"/>
     <use xlink:href="#CMR17-30" transform="translate(438.054911 0) scale(0.996264)" id="mb_auto_use_19"/>
     <use xlink:href="#CMR17-29" transform="translate(483.745388 0) scale(0.996264)" id="mb_auto_use_20"/>
    </g>
   </g>
  </g>
 </g>
 <defs>
  <clipPath id="pc5da43eb22">
   <rect x="10.8" y="17.358952" width="231.750082" height="259.841048" id="mb_auto_rect_0"/>
  </clipPath>
 </defs>
</svg>