<?xml version="1.0" encoding="utf-8" standalone="no"?>
<!DOCTYPE svg PUBLIC "-//W3C//DTD SVG 1.1//EN"
  "http://www.w3.org/Graphics/SVG/1.1/DTD/svg11.dtd">
<svg xmlns:xlink="http://www.w3.org/1999/xlink" width="460.8pt" height="345.6pt" viewBox="0 0 460.8 345.6" xmlns="http://www.w3.org/2000/svg" version="1.1">
 <metadata>
  <rdf:RDF xmlns:dc="http://purl.org/dc/elements/1.1/" xmlns:cc="http://creativecommons.org/ns#" xmlns:rdf="http://www.w3.org/1999/02/22-rdf-syntax-ns#">
   <cc:Work>
    <dc:type rdf:resource="http://purl.org/dc/dcmitype/StillImage"/>
    <dc:date>2025-03-31T21:50:45.322482</dc:date>
    <dc:format>image/svg+xml</dc:format>
    <dc:creator>
     <cc:Agent>
      <dc:title>Matplotlib v3.9.1, https://matplotlib.org/</dc:title>
     </cc:Agent>
    </dc:creator>
   </cc:Work>
  </rdf:RDF>
 </metadata>
 <defs>
  <style type="text/css">*{stroke-linejoin: round; stroke-linecap: butt}</style>
 </defs>
 <g id="figure_1">
  <g id="patch_1">
   <path d="M 0 345.6 
L 460.8 345.6 
L 460.8 0 
L 0 0 
z
" style="fill: #ffffff"/>
  </g>
  <g id="axes_1">
   <g id="patch_2">
    <path d="M 97.433928 301.025168 
L 251.30413 301.025168 
L 251.30413 44.574832 
L 97.433928 44.574832 
z
" clip-path="url(#pef75fb4a63)" style="fill: #008080; opacity: 0.2; stroke: #008080; stroke-linejoin: miter"/>
   </g>
   <g id="patch_3">
    <path d="M 251.30413 301.025168 
L 353.884264 301.025168 
L 353.884264 198.445034 
L 251.30413 198.445034 
L 251.30413 301.025168 
z
" clip-path="url(#pef75fb4a63)" style="fill: none; opacity: 0"/>
   </g>
   <g id="patch_4">
    <path d="M 251.30413 198.445034 
L 353.884264 198.445034 
L 353.884264 44.574832 
L 251.30413 44.574832 
z
" clip-path="url(#pef75fb4a63)" style="fill: #008080; opacity: 0.2; stroke: #008080; stroke-linejoin: miter"/>
   </g>
   <g id="line2d_1">
    <path d="M 97.433928 301.025168 
L 251.30413 301.025168 
L 251.30413 44.574832 
L 97.433928 44.574832 
L 97.433928 301.025168 
" clip-path="url(#pef75fb4a63)" style="fill: none; stroke: #000000; stroke-width: 1.5; stroke-linecap: square"/>
   </g>
   <g id="line2d_2">
    <path d="M 251.30413 301.025168 
L 353.884264 301.025168 
L 353.884264 198.445034 
L 251.30413 198.445034 
L 251.30413 301.025168 
" clip-path="url(#pef75fb4a63)" style="fill: none; stroke: #000000; stroke-width: 1.5; stroke-linecap: square"/>
   </g>
   <g id="line2d_3">
    <path d="M 251.30413 198.445034 
L 353.884264 198.445034 
L 353.884264 44.574832 
L 251.30413 44.574832 
L 251.30413 198.445034 
" clip-path="url(#pef75fb4a63)" style="fill: none; stroke: #000000; stroke-width: 1.5; stroke-linecap: square"/>
   </g>
   <g id="text_1">
    <!-- $a$ -->
    <g transform="translate(66.668114 177.780682) scale(0.2 -0.2)">
     <defs>
      <path id="CMMI12-61" d="M 1926 760 
C 1894 651 1894 639 1805 517 
C 1664 338 1382 64 1082 64 
C 819 64 672 300 672 677 
C 672 1028 870 1743 992 2012 
C 1210 2459 1510 2689 1760 2689 
C 2182 2689 2266 2165 2266 2114 
C 2266 2108 2246 2024 2240 2012 
L 1926 760 
z
M 2336 2395 
C 2266 2561 2093 2816 1760 2816 
C 1037 2816 256 1884 256 939 
C 256 307 627 -64 1062 -64 
C 1414 -64 1715 211 1894 422 
C 1958 45 2259 -64 2451 -64 
C 2643 -64 2797 51 2912 281 
C 3014 498 3104 888 3104 913 
C 3104 945 3078 971 3040 971 
C 2982 971 2976 939 2950 843 
C 2854 466 2733 64 2470 64 
C 2285 64 2272 230 2272 358 
C 2272 505 2291 575 2349 824 
C 2394 984 2426 1124 2477 1309 
C 2714 2267 2771 2497 2771 2535 
C 2771 2625 2701 2695 2605 2695 
C 2400 2695 2349 2472 2336 2395 
z
" transform="scale(0.015625)"/>
     </defs>
     <use xlink:href="#CMMI12-61" transform="scale(0.996264)"/>
    </g>
   </g>
   <g id="text_2">
    <!-- $a-b$ -->
    <g transform="translate(152.924126 23.91048) scale(0.2 -0.2)">
     <defs>
      <path id="CMSY10-0" d="M 4218 1472 
C 4326 1472 4442 1472 4442 1600 
C 4442 1728 4326 1728 4218 1728 
L 755 1728 
C 646 1728 531 1728 531 1600 
C 531 1472 646 1472 755 1472 
L 4218 1472 
z
" transform="scale(0.015625)"/>
      <path id="CMMI12-62" d="M 1478 4257 
C 1485 4283 1498 4321 1498 4352 
C 1498 4416 1434 4416 1421 4416 
C 1414 4416 1184 4393 1069 4377 
C 960 4377 864 4358 749 4358 
C 595 4345 550 4339 550 4224 
C 550 4160 614 4160 678 4160 
C 1005 4160 1005 4103 1005 4040 
C 1005 3996 954 3811 928 3696 
L 774 3085 
C 710 2831 346 1387 320 1272 
C 288 1114 288 1005 288 922 
C 288 274 653 -64 1069 -64 
C 1811 -64 2579 888 2579 1814 
C 2579 2401 2246 2816 1766 2816 
C 1434 2816 1133 2542 1011 2414 
L 1478 4257 
z
M 1075 64 
C 870 64 646 217 646 715 
C 646 926 666 1047 781 1494 
C 800 1577 902 1986 928 2069 
C 941 2120 1318 2689 1754 2689 
C 2035 2689 2163 2408 2163 2076 
C 2163 1769 1984 1047 1824 715 
C 1664 370 1370 64 1075 64 
z
" transform="scale(0.015625)"/>
     </defs>
     <use xlink:href="#CMMI12-61" transform="scale(0.996264)"/>
     <use xlink:href="#CMSY10-0" transform="translate(73.347065 0) scale(0.996264)"/>
     <use xlink:href="#CMMI12-62" transform="translate(172.973739 0) scale(0.996264)"/>
    </g>
   </g>
   <g id="text_3">
    <!-- $b$ -->
    <g transform="translate(298.446611 23.91048) scale(0.2 -0.2)">
     <use xlink:href="#CMMI12-62" transform="scale(0.996264)"/>
    </g>
   </g>
   <g id="text_4">
    <!-- $a - b$ -->
    <g transform="translate(379.529298 126.490614) scale(0.2 -0.2)">
     <use xlink:href="#CMMI12-61" transform="scale(0.996264)"/>
     <use xlink:href="#CMSY10-0" transform="translate(73.347065 0) scale(0.996264)"/>
     <use xlink:href="#CMMI12-62" transform="translate(172.973739 0) scale(0.996264)"/>
    </g>
   </g>
   <g id="text_5">
    <!-- $b$ -->
    <g transform="translate(379.529298 254.715782) scale(0.2 -0.2)">
     <use xlink:href="#CMMI12-62" transform="scale(0.996264)"/>
    </g>
   </g>
   <g id="text_6">
    <!-- $b$ -->
    <g transform="translate(298.446611 331.650883) scale(0.2 -0.2)">
     <use xlink:href="#CMMI12-62" transform="scale(0.996264)"/>
    </g>
   </g>
   <g id="text_7">
    <!-- $a-b$ -->
    <g transform="translate(152.924126 331.650883) scale(0.2 -0.2)">
     <use xlink:href="#CMMI12-61" transform="scale(0.996264)"/>
     <use xlink:href="#CMSY10-0" transform="translate(73.347065 0) scale(0.996264)"/>
     <use xlink:href="#CMMI12-62" transform="translate(172.973739 0) scale(0.996264)"/>
    </g>
   </g>
  </g>
 </g>
 <defs>
  <clipPath id="pef75fb4a63">
   <rect x="10.8" y="31.752315" width="429.718193" height="282.09537"/>
  </clipPath>
 </defs>
</svg>
