<?xml version="1.0" encoding="utf-8" standalone="no"?>
<!DOCTYPE svg PUBLIC "-//W3C//DTD SVG 1.1//EN"
  "http://www.w3.org/Graphics/SVG/1.1/DTD/svg11.dtd">
<svg xmlns:xlink="http://www.w3.org/1999/xlink" width="460.8pt" height="345.6pt" viewBox="0 0 460.8 345.6" xmlns="http://www.w3.org/2000/svg" version="1.1">
 <metadata>
  <rdf:RDF xmlns:dc="http://purl.org/dc/elements/1.1/" xmlns:cc="http://creativecommons.org/ns#" xmlns:rdf="http://www.w3.org/1999/02/22-rdf-syntax-ns#">
   <cc:Work>
    <dc:type rdf:resource="http://purl.org/dc/dcmitype/StillImage"/>
    <dc:date>2024-07-10T07:03:26.304454</dc:date>
    <dc:format>image/svg+xml</dc:format>
    <dc:creator>
     <cc:Agent>
      <dc:title>Matplotlib v3.8.4, https://matplotlib.org/</dc:title>
     </cc:Agent>
    </dc:creator>
   </cc:Work>
  </rdf:RDF>
 </metadata>
 <defs>
  <style type="text/css">*{stroke-linejoin: round; stroke-linecap: butt}</style>
 </defs>
 <g id="figure_1">
  <g id="patch_1">
   <path d="M 0 345.6 
L 460.8 345.6 
L 460.8 0 
L 0 0 
z
" style="fill: #ffffff"/>
  </g>
  <g id="axes_1">
   <g id="patch_2">
    <path d="M 10.8 334.8 
L 447 334.8 
L 447 18.950112 
L 10.8 18.950112 
z
" style="fill: #ffffff"/>
   </g>
   <g id="matplotlib.axis_1">
    <g id="text_1">
     <!-- $x$ -->
     <g transform="translate(438.13055 191.944644) scale(0.16 -0.16)">
      <defs>
       <path id="CMMI12-78" d="M 3034 2624 
C 2829 2585 2752 2431 2752 2310 
C 2752 2156 2874 2105 2963 2105 
C 3155 2105 3290 2271 3290 2444 
C 3290 2694 2982 2816 2714 2816 
C 2323 2816 2106 2451 2048 2329 
C 1901 2790 1504 2816 1389 2816 
C 736 2816 390 1993 390 1849 
C 390 1823 416 1790 461 1790 
C 512 1790 525 1829 538 1855 
C 755 2572 1184 2687 1370 2687 
C 1658 2687 1715 2438 1715 2284 
C 1715 2143 1677 1993 1600 1678 
L 1382 778 
C 1286 390 1101 64 762 64 
C 730 64 570 64 435 126 
C 666 166 717 358 717 435 
C 717 563 621 640 499 640 
C 346 640 179 505 179 300 
C 179 57 480 -64 755 -64 
C 1062 -64 1280 153 1414 415 
C 1517 64 1837 -64 2074 -64 
C 2726 -64 3072 751 3072 896 
C 3072 929 3046 955 3008 955 
C 2950 955 2944 922 2925 870 
C 2752 300 2381 64 2093 64 
C 1869 64 1747 204 1747 467 
C 1747 607 1773 712 1875 1146 
L 2099 2039 
C 2195 2425 2413 2687 2707 2687 
C 2720 2687 2899 2687 3034 2624 
z
" transform="scale(0.015625)"/>
      </defs>
      <use xlink:href="#CMMI12-78" transform="scale(0.996264)"/>
     </g>
    </g>
   </g>
   <g id="matplotlib.axis_2">
    <g id="text_2">
     <!-- $f(x)$ -->
     <g transform="translate(174.668494 14.965056) scale(0.16 -0.16)">
      <defs>
       <path id="CMMI12-66" d="M 2854 2566 
C 2982 2566 3034 2566 3034 2687 
C 3034 2752 2982 2752 2867 2752 
L 2349 2752 
C 2470 3398 2560 3846 2611 4051 
C 2650 4204 2784 4351 2950 4351 
C 3085 4351 3219 4294 3283 4236 
C 3034 4211 2957 4025 2957 3916 
C 2957 3788 3053 3712 3174 3712 
C 3302 3712 3494 3820 3494 4064 
C 3494 4332 3226 4480 2944 4480 
C 2669 4480 2400 4275 2272 4025 
C 2157 3801 2093 3573 1946 2752 
L 1517 2752 
C 1395 2752 1331 2752 1331 2636 
C 1331 2566 1370 2566 1498 2566 
L 1907 2566 
C 1792 1977 1530 545 1382 -132 
C 1274 -685 1178 -1152 858 -1152 
C 838 -1152 653 -1152 538 -1031 
C 864 -1005 864 -724 864 -717 
C 864 -589 768 -512 646 -512 
C 518 -512 326 -621 326 -865 
C 326 -1140 608 -1280 858 -1280 
C 1510 -1280 1779 -113 1850 203 
C 1965 691 2278 2376 2310 2566 
L 2854 2566 
z
" transform="scale(0.015625)"/>
       <path id="CMR17-28" d="M 1958 -1562 
C 1958 -1556 1958 -1543 1939 -1524 
C 1645 -1223 858 -403 858 1596 
C 858 3595 1632 4408 1946 4729 
C 1946 4735 1958 4748 1958 4767 
C 1958 4787 1939 4800 1914 4800 
C 1843 4800 1299 4325 986 3620 
C 666 2909 576 2218 576 1603 
C 576 1141 621 360 1005 -467 
C 1312 -1133 1837 -1600 1914 -1600 
C 1946 -1600 1958 -1588 1958 -1562 
z
" transform="scale(0.015625)"/>
       <path id="CMR17-29" d="M 1683 1596 
C 1683 2057 1638 2839 1254 3665 
C 947 4332 422 4800 346 4800 
C 326 4800 301 4793 301 4761 
C 301 4748 307 4742 314 4729 
C 621 4408 1402 3595 1402 1603 
C 1402 -396 627 -1210 314 -1530 
C 307 -1543 301 -1549 301 -1562 
C 301 -1594 326 -1600 346 -1600 
C 416 -1600 960 -1127 1274 -422 
C 1594 289 1683 981 1683 1596 
z
" transform="scale(0.015625)"/>
      </defs>
      <use xlink:href="#CMMI12-66" transform="scale(0.996264)"/>
      <use xlink:href="#CMR17-28" transform="translate(58.720305 0) scale(0.996264)"/>
      <use xlink:href="#CMMI12-78" transform="translate(94.001073 0) scale(0.996264)"/>
      <use xlink:href="#CMR17-29" transform="translate(149.435132 0) scale(0.996264)"/>
     </g>
    </g>
   </g>
   <g id="line2d_1">
    <path d="M 73.990439 -1 
L 79.759371 21.020924 
L 85.341242 41.531433 
L 90.923114 61.259658 
L 96.504985 80.205599 
L 102.086857 98.369256 
L 107.668728 115.750629 
L 113.2506 132.349718 
L 118.212263 146.447731 
L 123.173927 159.927644 
L 128.135591 172.789456 
L 133.097254 185.033166 
L 138.058918 196.658776 
L 143.020581 207.666285 
L 147.362037 216.790819 
L 151.703492 225.442119 
L 156.044948 233.620187 
L 160.386404 241.32502 
L 164.727859 248.55662 
L 169.069315 255.314987 
L 172.790563 260.731217 
L 176.51181 265.799766 
L 180.233058 270.520632 
L 183.954306 274.893817 
L 187.675553 278.91932 
L 191.396801 282.597142 
L 195.118049 285.927281 
L 198.839296 288.909739 
L 201.940336 291.12953 
L 205.041376 293.107876 
L 208.142415 294.844776 
L 211.243455 296.34023 
L 214.344495 297.594239 
L 217.445535 298.606802 
L 220.546574 299.377919 
L 223.647614 299.90759 
L 226.748654 300.195816 
L 229.849693 300.242596 
L 232.950733 300.04793 
L 236.051773 299.611819 
L 239.152813 298.934262 
L 242.253852 298.01526 
L 245.354892 296.854811 
L 248.455932 295.452917 
L 251.556971 293.809578 
L 254.658011 291.924792 
L 257.759051 289.798561 
L 260.860091 287.430884 
L 263.96113 284.821762 
L 267.682378 281.372107 
L 271.403626 277.57477 
L 275.124873 273.429751 
L 278.846121 268.93705 
L 282.567369 264.096668 
L 286.288616 258.908604 
L 290.009864 253.372858 
L 294.35132 246.475057 
L 298.692775 239.104022 
L 303.034231 231.259753 
L 307.375686 222.942251 
L 311.717142 214.151516 
L 316.058598 204.887547 
L 320.400053 195.150344 
L 325.361717 183.442643 
L 330.32338 171.116841 
L 335.285044 158.172937 
L 340.246708 144.610933 
L 345.208371 130.430828 
L 350.170035 115.632622 
L 355.751906 98.245817 
L 361.333778 80.076727 
L 366.915649 61.125354 
L 372.497521 41.391696 
L 378.079392 20.875755 
L 383.809597 -1 
L 383.809597 -1 
" clip-path="url(#p30f1d64ef6)" style="fill: none; stroke: #008080; stroke-opacity: 0.7; stroke-width: 2; stroke-linecap: square"/>
   </g>
   <g id="line2d_2">
    <defs>
     <path id="mfb4accb79d" d="M 0 4 
C 1.060812 4 2.078319 3.578535 2.828427 2.828427 
C 3.578535 2.078319 4 1.060812 4 0 
C 4 -1.060812 3.578535 -2.078319 2.828427 -2.828427 
C 2.078319 -3.578535 1.060812 -4 0 -4 
C -1.060812 -4 -2.078319 -3.578535 -2.828427 -2.828427 
C -3.578535 -2.078319 -4 -1.060812 -4 0 
C -4 1.060812 -3.578535 2.078319 -2.828427 2.828427 
C -2.078319 3.578535 -1.060812 4 0 4 
z
" style="stroke: #000000; stroke-opacity: 0.7"/>
    </defs>
    <g clip-path="url(#p30f1d64ef6)">
     <use xlink:href="#mfb4accb79d" x="129.763636" y="176.875056" style="fill-opacity: 0.7; stroke: #000000; stroke-opacity: 0.7"/>
     <use xlink:href="#mfb4accb79d" x="328.036364" y="176.875056" style="fill-opacity: 0.7; stroke: #000000; stroke-opacity: 0.7"/>
    </g>
   </g>
   <g id="line2d_3">
    <defs>
     <path id="m4d8786288d" d="M 3 0 
L -3 -3 
L -3 3 
z
" style="stroke: #000000; stroke-linejoin: miter"/>
    </defs>
    <g>
     <use xlink:href="#m4d8786288d" x="447" y="176.875056" style="stroke: #000000; stroke-linejoin: miter"/>
    </g>
   </g>
   <g id="line2d_4">
    <defs>
     <path id="m79f5d2ce11" d="M 0 -3 
L -3 3 
L 3 3 
z
" style="stroke: #000000; stroke-linejoin: miter"/>
    </defs>
    <g>
     <use xlink:href="#m79f5d2ce11" x="209.072727" y="18.950112" style="stroke: #000000; stroke-linejoin: miter"/>
    </g>
   </g>
   <g id="patch_3">
    <path d="M 209.072727 334.8 
L 209.072727 18.950112 
" style="fill: none; stroke: #000000; stroke-width: 0.8; stroke-linejoin: miter; stroke-linecap: square"/>
   </g>
   <g id="patch_4">
    <path d="M 447 334.8 
L 447 18.950112 
" style="fill: none"/>
   </g>
   <g id="patch_5">
    <path d="M 10.8 176.875056 
L 447 176.875056 
" style="fill: none; stroke: #000000; stroke-width: 0.8; stroke-linejoin: miter; stroke-linecap: square"/>
   </g>
   <g id="patch_6">
    <path d="M 10.8 18.950112 
L 447 18.950112 
" style="fill: none"/>
   </g>
   <g id="patch_7">
    <path d="M 280.171506 88.814067 
Q 222.755492 159.671522 133.928937 176.111161 
" style="fill: none; opacity: 0.7; stroke: #000000; stroke-width: 2; stroke-linecap: round"/>
    <path d="M 140.804417 178.093019 
L 133.928937 176.111161 
L 139.639712 171.799891 
" style="fill: none; opacity: 0.7; stroke: #000000; stroke-width: 2; stroke-linecap: round"/>
   </g>
   <g id="text_3">
    <!-- Nullpunkter -->
    <g transform="translate(250.501158 82.157022) scale(0.16 -0.16)">
     <defs>
      <path id="CMSS17-4e" d="M 1466 4179 
L 1350 4416 
L 563 4416 
L 563 0 
L 1062 0 
L 1062 3925 
L 1069 3931 
C 1114 3817 1139 3759 1402 3193 
L 2771 236 
L 2886 0 
L 3674 0 
L 3674 4416 
L 3174 4416 
L 3174 490 
L 3168 484 
C 3123 598 3098 655 2835 1222 
L 1466 4179 
z
" transform="scale(0.015625)"/>
      <path id="CMSS17-75" d="M 2618 2752 
L 2131 2752 
L 2131 976 
C 2131 500 1786 307 1421 307 
C 998 307 960 448 960 712 
L 960 2752 
L 474 2752 
L 474 680 
C 474 179 646 -64 1088 -64 
C 1306 -64 1798 -13 2144 307 
L 2144 -13 
L 2618 -13 
L 2618 2752 
z
" transform="scale(0.015625)"/>
      <path id="CMSS17-6c" d="M 947 4416 
L 474 4416 
L 474 0 
L 947 0 
L 947 4416 
z
" transform="scale(0.015625)"/>
      <path id="CMSS17-70" d="M 966 275 
C 1178 70 1466 -64 1773 -64 
C 2368 -64 2880 553 2880 1382 
C 2880 2147 2496 2816 1946 2816 
C 1626 2816 1242 2700 954 2470 
L 954 2764 
L 480 2764 
L 480 -1280 
L 966 -1280 
L 966 275 
z
M 966 2088 
C 1018 2166 1235 2412 1587 2412 
C 2035 2412 2394 1946 2394 1382 
C 2394 741 1958 326 1530 326 
C 1402 326 1267 358 1139 468 
C 966 624 966 721 966 812 
L 966 2088 
z
" transform="scale(0.015625)"/>
      <path id="CMSS17-6e" d="M 2618 1878 
C 2618 2283 2522 2816 1798 2816 
C 1389 2816 1120 2604 941 2386 
L 941 2783 
L 474 2783 
L 474 0 
L 960 0 
L 960 1556 
C 960 1962 1114 2425 1549 2425 
C 2112 2425 2131 2045 2131 1826 
L 2131 0 
L 2618 0 
L 2618 1878 
z
" transform="scale(0.015625)"/>
      <path id="CMSS17-6b" d="M 1696 1686 
L 2688 2735 
L 2074 2735 
L 954 1552 
L 954 4416 
L 480 4416 
L 480 0 
L 947 0 
L 947 891 
L 1376 1342 
L 2278 0 
L 2822 0 
L 1696 1686 
z
" transform="scale(0.015625)"/>
      <path id="CMSS17-74" d="M 1069 2380 
L 1901 2380 
L 1901 2752 
L 1069 2752 
L 1069 3520 
L 614 3520 
L 614 2752 
L 109 2752 
L 109 2380 
L 602 2380 
L 602 751 
C 602 384 685 -64 1107 -64 
C 1427 -64 1722 25 2003 172 
L 1901 551 
C 1747 416 1562 339 1363 339 
C 1082 339 1069 699 1069 860 
L 1069 2380 
z
" transform="scale(0.015625)"/>
      <path id="CMSS17-65" d="M 2502 1375 
C 2502 1587 2490 2001 2285 2347 
C 2061 2713 1696 2816 1421 2816 
C 755 2816 192 2184 192 1363 
C 192 579 774 -64 1510 -64 
C 1798 -64 2150 19 2470 249 
C 2470 275 2458 414 2451 421 
C 2451 433 2432 629 2432 655 
C 2125 408 1773 326 1517 326 
C 1107 326 666 667 646 1375 
L 2502 1375 
z
M 698 1728 
C 781 2086 1062 2425 1421 2425 
C 1517 2425 1965 2412 2080 1728 
L 698 1728 
z
" transform="scale(0.015625)"/>
      <path id="CMSS17-72" d="M 954 1369 
C 954 1974 1395 2379 1958 2392 
L 1958 2816 
C 1549 2809 1165 2604 934 2270 
L 934 2783 
L 480 2783 
L 480 0 
L 954 0 
L 954 1369 
z
" transform="scale(0.015625)"/>
     </defs>
     <use xlink:href="#CMSS17-4e" transform="scale(0.996264)"/>
     <use xlink:href="#CMSS17-75" transform="translate(66.061519 0) scale(0.996264)"/>
     <use xlink:href="#CMSS17-6c" transform="translate(114.266462 0) scale(0.996264)"/>
     <use xlink:href="#CMSS17-6c" transform="translate(136.447185 0) scale(0.996264)"/>
     <use xlink:href="#CMSS17-70" transform="translate(158.627908 0) scale(0.996264)"/>
     <use xlink:href="#CMSS17-75" transform="translate(206.832852 0) scale(0.996264)"/>
     <use xlink:href="#CMSS17-6e" transform="translate(255.037795 0) scale(0.996264)"/>
     <use xlink:href="#CMSS17-6b" transform="translate(303.242738 0) scale(0.996264)"/>
     <use xlink:href="#CMSS17-74" transform="translate(348.845227 0) scale(0.996264)"/>
     <use xlink:href="#CMSS17-65" transform="translate(382.676794 0) scale(0.996264)"/>
     <use xlink:href="#CMSS17-72" transform="translate(424.315616 0) scale(0.996264)"/>
    </g>
   </g>
   <g id="patch_8">
    <path d="M 288.778383 89.252663 
Q 292.278963 138.541719 325.140378 173.786788 
" style="fill: none; opacity: 0.7; stroke: #000000; stroke-width: 2; stroke-linecap: round"/>
    <path d="M 323.116456 166.923571 
L 325.140378 173.786788 
L 318.435452 171.287996 
" style="fill: none; opacity: 0.7; stroke: #000000; stroke-width: 2; stroke-linecap: round"/>
   </g>
   <g id="text_4">
    <!-- Nullpunkter -->
    <g transform="translate(250.501158 82.157022) scale(0.16 -0.16)">
     <use xlink:href="#CMSS17-4e" transform="scale(0.996264)"/>
     <use xlink:href="#CMSS17-75" transform="translate(66.061519 0) scale(0.996264)"/>
     <use xlink:href="#CMSS17-6c" transform="translate(114.266462 0) scale(0.996264)"/>
     <use xlink:href="#CMSS17-6c" transform="translate(136.447185 0) scale(0.996264)"/>
     <use xlink:href="#CMSS17-70" transform="translate(158.627908 0) scale(0.996264)"/>
     <use xlink:href="#CMSS17-75" transform="translate(206.832852 0) scale(0.996264)"/>
     <use xlink:href="#CMSS17-6e" transform="translate(255.037795 0) scale(0.996264)"/>
     <use xlink:href="#CMSS17-6b" transform="translate(303.242738 0) scale(0.996264)"/>
     <use xlink:href="#CMSS17-74" transform="translate(348.845227 0) scale(0.996264)"/>
     <use xlink:href="#CMSS17-65" transform="translate(382.676794 0) scale(0.996264)"/>
     <use xlink:href="#CMSS17-72" transform="translate(424.315616 0) scale(0.996264)"/>
    </g>
   </g>
  </g>
 </g>
 <defs>
  <clipPath id="p30f1d64ef6">
   <rect x="10.8" y="18.950112" width="436.2" height="315.849888"/>
  </clipPath>
 </defs>
</svg>
