<?xml version="1.0" encoding="utf-8" standalone="no"?>
<!DOCTYPE svg PUBLIC "-//W3C//DTD SVG 1.1//EN"
  "http://www.w3.org/Graphics/SVG/1.1/DTD/svg11.dtd">
<svg xmlns:xlink="http://www.w3.org/1999/xlink" width="460.8pt" height="345.6pt" viewBox="0 0 460.8 345.6" xmlns="http://www.w3.org/2000/svg" version="1.1">
 <metadata>
  <rdf:RDF xmlns:dc="http://purl.org/dc/elements/1.1/" xmlns:cc="http://creativecommons.org/ns#" xmlns:rdf="http://www.w3.org/1999/02/22-rdf-syntax-ns#">
   <cc:Work>
    <dc:type rdf:resource="http://purl.org/dc/dcmitype/StillImage"/>
    <dc:date>2025-04-19T01:04:15.315464</dc:date>
    <dc:format>image/svg+xml</dc:format>
    <dc:creator>
     <cc:Agent>
      <dc:title>Matplotlib v3.9.1, https://matplotlib.org/</dc:title>
     </cc:Agent>
    </dc:creator>
   </cc:Work>
  </rdf:RDF>
 </metadata>
 <defs>
  <style type="text/css">*{stroke-linejoin: round; stroke-linecap: butt}</style>
 </defs>
 <g id="figure_1">
  <g id="patch_1">
   <path d="M 0 345.6 
L 460.8 345.6 
L 460.8 0 
L 0 0 
L 0 345.6 
z
" style="fill: none"/>
  </g>
  <g id="axes_1">
   <g id="patch_2">
    <path d="M 10.8 334.8 
L 447 334.8 
L 447 18.064532 
L 10.8 18.064532 
L 10.8 334.8 
z
" style="fill: none"/>
   </g>
   <g id="matplotlib.axis_1">
    <g id="text_1">
     <!-- $x$ -->
     <g transform="translate(438.13055 138.71261) scale(0.16 -0.16)">
      <defs>
       <path id="CMMI12-78" d="M 3034 2606 
C 2829 2567 2752 2414 2752 2293 
C 2752 2139 2874 2088 2963 2088 
C 3155 2088 3290 2254 3290 2427 
C 3290 2695 2982 2816 2714 2816 
C 2323 2816 2106 2433 2048 2312 
C 1901 2816 1504 2816 1389 2816 
C 736 2816 390 1980 390 1839 
C 390 1814 416 1782 461 1782 
C 512 1782 525 1820 538 1846 
C 755 2555 1184 2689 1370 2689 
C 1658 2689 1715 2420 1715 2267 
C 1715 2127 1677 1980 1600 1673 
L 1382 798 
C 1286 415 1101 64 762 64 
C 730 64 570 64 435 147 
C 666 192 717 383 717 460 
C 717 588 621 664 499 664 
C 346 664 179 530 179 326 
C 179 57 480 -64 755 -64 
C 1062 -64 1280 179 1414 441 
C 1517 64 1837 -64 2074 -64 
C 2726 -64 3072 773 3072 913 
C 3072 945 3046 971 3008 971 
C 2950 971 2944 939 2925 888 
C 2752 326 2381 64 2093 64 
C 1869 64 1747 230 1747 492 
C 1747 632 1773 734 1875 1156 
L 2099 2024 
C 2195 2408 2413 2689 2707 2689 
C 2720 2689 2899 2689 3034 2606 
z
" transform="scale(0.015625)"/>
      </defs>
      <use xlink:href="#CMMI12-78" transform="scale(0.996264)"/>
     </g>
    </g>
   </g>
   <g id="matplotlib.axis_2">
    <g id="text_2">
     <!-- $y$ -->
     <g transform="translate(217.289729 14.965056) scale(0.16 -0.16)">
      <defs>
       <path id="CMMI12-79" d="M 1683 -700 
C 1510 -939 1261 -1152 947 -1152 
C 870 -1152 563 -1152 467 -889 
C 486 -895 518 -895 531 -895 
C 723 -895 851 -729 851 -582 
C 851 -435 730 -384 634 -384 
C 531 -384 307 -458 307 -759 
C 307 -1071 582 -1286 947 -1286 
C 1587 -1286 2234 -700 2413 6 
L 3040 2485 
C 3046 2517 3059 2556 3059 2594 
C 3059 2689 2982 2753 2886 2753 
C 2829 2753 2694 2727 2643 2535 
L 2170 658 
C 2138 543 2138 530 2086 460 
C 1958 281 1747 64 1440 64 
C 1082 64 1050 415 1050 588 
C 1050 952 1222 1443 1395 1903 
C 1466 2088 1504 2178 1504 2305 
C 1504 2574 1312 2816 998 2816 
C 410 2816 173 1890 173 1839 
C 173 1814 198 1782 243 1782 
C 301 1782 307 1807 333 1897 
C 486 2433 730 2689 979 2689 
C 1037 2689 1146 2689 1146 2478 
C 1146 2312 1075 2127 979 1884 
C 666 1047 666 837 666 683 
C 666 77 1101 -64 1421 -64 
C 1606 -64 1837 -6 2061 230 
L 2067 224 
C 1971 -147 1907 -392 1683 -700 
z
" transform="scale(0.015625)"/>
      </defs>
      <use xlink:href="#CMMI12-79" transform="scale(0.996264)"/>
     </g>
    </g>
   </g>
   <g id="line2d_1">
    <defs>
     <path id="mc056720fb1" d="M 3 0 
L -3 -3 
L -3 3 
z
" style="stroke: #000000; stroke-linejoin: miter"/>
    </defs>
    <g>
     <use xlink:href="#mc056720fb1" x="447" y="123.643021" style="stroke: #000000; stroke-linejoin: miter"/>
    </g>
   </g>
   <g id="line2d_2">
    <defs>
     <path id="m810d39f938" d="M 0 -3 
L -3 3 
L 3 3 
z
" style="stroke: #000000; stroke-linejoin: miter"/>
    </defs>
    <g>
     <use xlink:href="#m810d39f938" x="228.9" y="18.064532" style="stroke: #000000; stroke-linejoin: miter"/>
    </g>
   </g>
   <g id="line2d_3">
    <path d="M 10.640103 49.205294 
L 44.602302 64.748404 
L 71.944751 77.028403 
L 94.39434 86.877204 
L 113.102331 94.849285 
L 128.644355 101.240254 
L 141.883856 106.452475 
L 153.108651 110.64276 
L 162.89437 114.065116 
L 171.241012 116.759192 
L 178.724208 118.944045 
L 185.056144 120.573255 
L 190.812449 121.831477 
L 195.993123 122.734631 
L 200.598167 123.308669 
L 204.627581 123.591515 
L 208.369179 123.628145 
L 211.535147 123.452023 
L 214.413299 123.093005 
L 217.291452 122.506417 
L 219.881789 121.745003 
L 222.184311 120.845896 
L 224.486833 119.697025 
L 226.50154 118.448254 
L 228.516246 116.928728 
L 230.243138 115.371237 
L 231.970029 113.534898 
L 233.696921 111.367966 
L 235.423812 108.805047 
L 236.862889 106.306999 
L 238.301965 103.414545 
L 239.741041 100.049843 
L 241.180117 96.113122 
L 242.619194 91.474378 
L 244.05827 85.960983 
L 245.209531 80.765842 
L 246.360792 74.702406 
L 247.512053 67.558034 
L 248.663314 59.044474 
L 249.814575 48.76099 
L 250.965836 36.133551 
L 252.117097 20.30981 
L 252.980543 5.575321 
L 253.314608 -1 
L 253.314608 -1 
" clip-path="url(#p0f8c18dc7a)" style="fill: none; stroke: #0072b2; stroke-opacity: 0.9; stroke-width: 2.5; stroke-linecap: square"/>
   </g>
   <g id="line2d_4">
    <path d="M 270.287392 346.6 
L 271.240821 330.603028 
L 272.360103 315.570784 
L 273.479384 303.477043 
L 274.598666 293.561849 
L 275.941804 283.820375 
L 277.284941 275.86033 
L 278.628079 269.259795 
L 279.971217 263.720342 
L 281.314355 259.024932 
L 282.881349 254.400373 
L 284.448343 250.514673 
L 286.015337 247.225483 
L 287.582331 244.424814 
L 289.149326 242.02926 
L 290.940176 239.704235 
L 292.731026 237.746629 
L 294.521877 236.096453 
L 296.536584 234.548593 
L 298.55129 233.275984 
L 300.789853 232.133149 
L 303.028416 231.231015 
L 305.490836 230.472707 
L 308.177111 229.880728 
L 311.087243 229.471324 
L 314.221232 229.25539 
L 317.802933 229.245335 
L 321.60849 229.462807 
L 325.86176 229.933639 
L 330.562742 230.68199 
L 335.935293 231.773837 
L 341.979413 233.243318 
L 348.695103 235.113188 
L 356.306217 237.469193 
L 365.036613 240.412437 
L 375.110147 244.053756 
L 386.750674 248.509163 
L 400.182053 253.89628 
L 415.851994 260.426643 
L 434.432067 268.417749 
L 447.191877 274.021964 
L 447.191877 274.021964 
" clip-path="url(#p0f8c18dc7a)" style="fill: none; stroke: #0072b2; stroke-opacity: 0.9; stroke-width: 2.5; stroke-linecap: square"/>
   </g>
   <g id="LineCollection_1">
    <path d="M 261.615 346.6 
L 261.615 -1 
" clip-path="url(#p0f8c18dc7a)" style="fill: none; stroke-dasharray: 7.4,3.2; stroke-dashoffset: 0; stroke: #dc5e8b; stroke-width: 2"/>
   </g>
   <g id="line2d_5">
    <defs>
     <path id="mff048d5f08" d="M 0 4 
C 1.060812 4 2.078319 3.578535 2.828427 2.828427 
C 3.578535 2.078319 4 1.060812 4 0 
C 4 -1.060812 3.578535 -2.078319 2.828427 -2.828427 
C 2.078319 -3.578535 1.060812 -4 0 -4 
C -1.060812 -4 -2.078319 -3.578535 -2.828427 -2.828427 
C -3.578535 -2.078319 -4 -1.060812 -4 0 
C -4 1.060812 -3.578535 2.078319 -2.828427 2.828427 
C -2.078319 3.578535 -1.060812 4 0 4 
z
" style="stroke: #000000; stroke-opacity: 0.7"/>
    </defs>
    <g clip-path="url(#p0f8c18dc7a)">
     <use xlink:href="#mff048d5f08" x="207.09" y="123.643021" style="fill-opacity: 0.7; stroke: #000000; stroke-opacity: 0.7"/>
    </g>
   </g>
   <g id="line2d_6">
    <path d="M 10.8 55.017003 
L 447 266.173982 
L 447 266.173982 
" clip-path="url(#p0f8c18dc7a)" style="fill: none; stroke-dasharray: 7.4,3.2; stroke-dashoffset: 0; stroke: #dc5e8b; stroke-width: 2"/>
   </g>
   <g id="patch_3">
    <path d="M 228.9 334.8 
L 228.9 18.064532 
" style="fill: none; stroke: #000000; stroke-width: 0.8; stroke-linejoin: miter; stroke-linecap: square"/>
   </g>
   <g id="patch_4">
    <path d="M 447 334.8 
L 447 18.064532 
" style="fill: none"/>
   </g>
   <g id="patch_5">
    <path d="M 10.8 123.643021 
L 447 123.643021 
" style="fill: none; stroke: #000000; stroke-width: 0.8; stroke-linejoin: miter; stroke-linecap: square"/>
   </g>
   <g id="patch_6">
    <path d="M 10.8 18.064532 
L 447 18.064532 
" style="fill: none"/>
   </g>
   <g id="legend_1">
    <g id="patch_7">
     <path d="M 372.679994 53.164008 
L 435.8 53.164008 
Q 439 53.164008 439 49.964008 
L 439 29.264532 
Q 439 26.064532 435.8 26.064532 
L 372.679994 26.064532 
Q 369.479994 26.064532 369.479994 29.264532 
L 369.479994 49.964008 
Q 369.479994 53.164008 372.679994 53.164008 
z
" style="fill: #ffffff; opacity: 0.8; stroke: #cccccc; stroke-linejoin: miter"/>
    </g>
    <g id="line2d_7">
     <path d="M 375.879994 38.064532 
L 391.879994 38.064532 
L 407.879994 38.064532 
" style="fill: none; stroke: #0072b2; stroke-opacity: 0.9; stroke-width: 2.5; stroke-linecap: square"/>
    </g>
    <g id="text_3">
     <!-- $\mathrm{D}$ -->
     <g transform="translate(420.679994 43.664532) scale(0.16 -0.16)">
      <defs>
       <path id="CMR17-44" d="M 333 4352 
L 333 4186 
C 774 4186 845 4186 845 3900 
L 845 452 
C 845 166 774 166 333 166 
L 333 0 
L 2368 0 
C 3398 0 4224 943 4224 2141 
C 4224 3346 3411 4352 2368 4352 
L 333 4352 
z
M 1523 166 
C 1267 166 1254 197 1254 414 
L 1254 3938 
C 1254 4155 1267 4186 1523 4186 
L 2240 4186 
C 2771 4186 3750 3874 3750 2141 
C 3750 1242 3488 879 3366 707 
C 3213 510 2848 166 2240 166 
L 1523 166 
z
" transform="scale(0.015625)"/>
      </defs>
      <use xlink:href="#CMR17-44" transform="scale(0.996264)"/>
     </g>
    </g>
   </g>
  </g>
 </g>
 <defs>
  <clipPath id="p0f8c18dc7a">
   <rect x="10.8" y="18.064532" width="436.2" height="316.735468"/>
  </clipPath>
 </defs>
</svg>
