<?xml version="1.0" encoding="utf-8" standalone="no"?>
<!DOCTYPE svg PUBLIC "-//W3C//DTD SVG 1.1//EN"
  "http://www.w3.org/Graphics/SVG/1.1/DTD/svg11.dtd">
<svg xmlns:xlink="http://www.w3.org/1999/xlink" width="648pt" height="216pt" viewBox="0 0 648 216" xmlns="http://www.w3.org/2000/svg" version="1.1">
 <metadata>
  <rdf:RDF xmlns:dc="http://purl.org/dc/elements/1.1/" xmlns:cc="http://creativecommons.org/ns#" xmlns:rdf="http://www.w3.org/1999/02/22-rdf-syntax-ns#">
   <cc:Work>
    <dc:type rdf:resource="http://purl.org/dc/dcmitype/StillImage"/>
    <dc:date>2025-07-26T18:17:47.162487</dc:date>
    <dc:format>image/svg+xml</dc:format>
    <dc:creator>
     <cc:Agent>
      <dc:title>Matplotlib v3.9.1, https://matplotlib.org/</dc:title>
     </cc:Agent>
    </dc:creator>
   </cc:Work>
  </rdf:RDF>
 </metadata>
 <defs>
  <style type="text/css">*{stroke-linejoin: round; stroke-linecap: butt}</style>
 </defs>
 <g id="figure_1">
  <g id="patch_1">
   <path d="M 0 216 
L 648 216 
L 648 0 
L 0 0 
L 0 216 
z
" style="fill: none"/>
  </g>
  <g id="axes_1">
   <g id="PathCollection_1">
    <defs>
     <path id="mf71c2b0656" d="M 0 5 
C 1.326016 5 2.597899 4.473168 3.535534 3.535534 
C 4.473168 2.597899 5 1.326016 5 0 
C 5 -1.326016 4.473168 -2.597899 3.535534 -3.535534 
C 2.597899 -4.473168 1.326016 -5 0 -5 
C -1.326016 -5 -2.597899 -4.473168 -3.535534 -3.535534 
C -4.473168 -2.597899 -5 -1.326016 -5 0 
C -5 1.326016 -4.473168 2.597899 -3.535534 3.535534 
C -2.597899 4.473168 -1.326016 5 0 5 
z
" style="stroke: #0072b2"/>
    </defs>
    <g clip-path="url(#p22dc86b335)">
     <use xlink:href="#mf71c2b0656" x="81" y="108" style="fill: #0072b2; stroke: #0072b2"/>
    </g>
   </g>
   <g id="text_1">
    <!-- Figur 1 -->
    <g transform="translate(52.949876 175.38049) scale(0.2 -0.2)">
     <defs>
      <path id="CMSS17-46" d="M 2918 1984 
L 2918 2373 
L 1101 2373 
L 1101 3968 
L 1882 3968 
C 1958 3968 2035 3968 2112 3968 
L 3168 3968 
L 3168 4375 
L 563 4375 
L 563 -32 
L 1101 -32 
L 1101 1984 
L 2918 1984 
z
" transform="scale(0.015625)"/>
      <path id="CMSS17-69" d="M 979 4183 
L 442 4183 
L 442 3648 
L 979 3648 
L 979 4183 
z
M 947 2739 
L 474 2739 
L 474 0 
L 947 0 
L 947 2739 
z
" transform="scale(0.015625)"/>
      <path id="CMSS17-67" d="M 2848 2808 
C 2483 2808 2170 2738 1914 2617 
C 1702 2777 1485 2808 1338 2808 
C 781 2808 358 2349 358 1814 
C 358 1468 550 1207 563 1195 
C 448 1035 384 863 384 672 
C 384 448 474 289 544 200 
C 211 -3 166 -314 166 -435 
C 166 -898 749 -1280 1498 -1280 
C 2253 -1280 2835 -898 2835 -428 
C 2835 448 1856 448 1587 448 
L 1069 448 
C 973 448 717 448 717 791 
C 717 921 774 1004 781 1010 
C 877 940 1075 832 1338 832 
C 1869 832 2310 1278 2310 1827 
C 2310 2132 2170 2355 2112 2432 
L 2131 2432 
C 2150 2432 2419 2432 2515 2432 
C 2720 2432 2739 2429 2918 2419 
L 2848 2808 
z
M 1338 1182 
C 1120 1182 813 1315 813 1823 
C 813 2375 1165 2464 1331 2464 
C 1549 2464 1856 2331 1856 1823 
C 1856 1271 1504 1182 1338 1182 
z
M 1581 -10 
C 1734 -10 2381 -10 2381 -442 
C 2381 -714 1984 -929 1504 -929 
C 1018 -929 621 -720 621 -435 
C 621 -403 621 -10 1062 -10 
L 1581 -10 
z
" transform="scale(0.015625)"/>
      <path id="CMSS17-75" d="M 2618 2739 
L 2131 2739 
L 2131 972 
C 2131 498 1786 306 1421 306 
C 998 306 960 447 960 709 
L 960 2739 
L 474 2739 
L 474 678 
C 474 179 646 -64 1088 -64 
C 1306 -64 1798 -13 2144 306 
L 2144 0 
L 2618 0 
L 2618 2739 
z
" transform="scale(0.015625)"/>
      <path id="CMSS17-72" d="M 954 1363 
C 954 1965 1395 2368 1958 2368 
L 1958 2789 
C 1549 2789 1165 2585 934 2253 
L 934 2758 
L 480 2758 
L 480 0 
L 954 0 
L 954 1363 
z
" transform="scale(0.015625)"/>
      <path id="CMSS17-31" d="M 1818 4288 
L 1696 4288 
C 1350 3940 947 3890 538 3890 
L 538 3520 
C 723 3520 1024 3520 1325 3667 
L 1325 369 
L 570 369 
L 570 0 
L 2573 0 
L 2573 369 
L 1818 369 
L 1818 4288 
z
" transform="scale(0.015625)"/>
     </defs>
     <use xlink:href="#CMSS17-46" transform="scale(0.996264)"/>
     <use xlink:href="#CMSS17-69" transform="translate(53.289559 0) scale(0.996264)"/>
     <use xlink:href="#CMSS17-67" transform="translate(75.470282 0) scale(0.996264)"/>
     <use xlink:href="#CMSS17-75" transform="translate(122.313906 0) scale(0.996264)"/>
     <use xlink:href="#CMSS17-72" transform="translate(170.518849 0) scale(0.996264)"/>
     <use xlink:href="#CMSS17-31" transform="translate(233.657734 0) scale(0.996264)"/>
    </g>
   </g>
  </g>
  <g id="axes_2">
   <g id="PathCollection_2">
    <g clip-path="url(#p7e725d6260)">
     <use xlink:href="#mf71c2b0656" x="243" y="108" style="fill: #0072b2; stroke: #0072b2"/>
     <use xlink:href="#mf71c2b0656" x="243" y="92.400048" style="fill: #0072b2; stroke: #0072b2"/>
     <use xlink:href="#mf71c2b0656" x="228.163564" y="103.17935" style="fill: #0072b2; stroke: #0072b2"/>
     <use xlink:href="#mf71c2b0656" x="233.830578" y="120.620626" style="fill: #0072b2; stroke: #0072b2"/>
     <use xlink:href="#mf71c2b0656" x="252.169422" y="120.620626" style="fill: #0072b2; stroke: #0072b2"/>
     <use xlink:href="#mf71c2b0656" x="257.836436" y="103.17935" style="fill: #0072b2; stroke: #0072b2"/>
    </g>
   </g>
   <g id="text_2">
    <!-- Figur 2 -->
    <g transform="translate(214.949876 175.38049) scale(0.2 -0.2)">
     <defs>
      <path id="CMSS17-32" d="M 1651 1357 
C 1830 1541 2099 1764 2285 1987 
C 2464 2204 2701 2511 2701 2957 
C 2701 3657 2227 4288 1421 4288 
C 787 4288 422 3893 250 3274 
L 499 2929 
C 640 3510 838 3880 1338 3880 
C 1888 3880 2195 3433 2195 2942 
C 2195 2355 1747 1901 1408 1563 
C 1030 1187 659 804 301 408 
L 301 0 
L 2701 0 
L 2701 433 
L 1613 433 
C 1536 433 1459 433 1382 433 
L 742 433 
L 742 439 
L 1651 1357 
z
" transform="scale(0.015625)"/>
     </defs>
     <use xlink:href="#CMSS17-46" transform="scale(0.996264)"/>
     <use xlink:href="#CMSS17-69" transform="translate(53.289559 0) scale(0.996264)"/>
     <use xlink:href="#CMSS17-67" transform="translate(75.470282 0) scale(0.996264)"/>
     <use xlink:href="#CMSS17-75" transform="translate(122.313906 0) scale(0.996264)"/>
     <use xlink:href="#CMSS17-72" transform="translate(170.518849 0) scale(0.996264)"/>
     <use xlink:href="#CMSS17-32" transform="translate(233.657734 0) scale(0.996264)"/>
    </g>
   </g>
  </g>
  <g id="axes_3">
   <g id="PathCollection_3">
    <g clip-path="url(#p12bf613076)">
     <use xlink:href="#mf71c2b0656" x="405" y="108" style="fill: #0072b2; stroke: #0072b2"/>
     <use xlink:href="#mf71c2b0656" x="405" y="92.400048" style="fill: #0072b2; stroke: #0072b2"/>
     <use xlink:href="#mf71c2b0656" x="390.163564" y="103.17935" style="fill: #0072b2; stroke: #0072b2"/>
     <use xlink:href="#mf71c2b0656" x="395.830578" y="120.620626" style="fill: #0072b2; stroke: #0072b2"/>
     <use xlink:href="#mf71c2b0656" x="414.169422" y="120.620626" style="fill: #0072b2; stroke: #0072b2"/>
     <use xlink:href="#mf71c2b0656" x="419.836436" y="103.17935" style="fill: #0072b2; stroke: #0072b2"/>
     <use xlink:href="#mf71c2b0656" x="405" y="76.800096" style="fill: #0072b2; stroke: #0072b2"/>
     <use xlink:href="#mf71c2b0656" x="390.163564" y="87.579398" style="fill: #0072b2; stroke: #0072b2"/>
     <use xlink:href="#mf71c2b0656" x="375.327128" y="98.358699" style="fill: #0072b2; stroke: #0072b2"/>
     <use xlink:href="#mf71c2b0656" x="380.994142" y="115.799976" style="fill: #0072b2; stroke: #0072b2"/>
     <use xlink:href="#mf71c2b0656" x="386.661157" y="133.241253" style="fill: #0072b2; stroke: #0072b2"/>
     <use xlink:href="#mf71c2b0656" x="405" y="133.241253" style="fill: #0072b2; stroke: #0072b2"/>
     <use xlink:href="#mf71c2b0656" x="423.338843" y="133.241253" style="fill: #0072b2; stroke: #0072b2"/>
     <use xlink:href="#mf71c2b0656" x="429.005858" y="115.799976" style="fill: #0072b2; stroke: #0072b2"/>
     <use xlink:href="#mf71c2b0656" x="434.672872" y="98.358699" style="fill: #0072b2; stroke: #0072b2"/>
     <use xlink:href="#mf71c2b0656" x="419.836436" y="87.579398" style="fill: #0072b2; stroke: #0072b2"/>
    </g>
   </g>
   <g id="text_3">
    <!-- Figur 3 -->
    <g transform="translate(376.949876 175.38049) scale(0.2 -0.2)">
     <defs>
      <path id="CMSS17-33" d="M 1005 2025 
L 1440 2025 
C 2042 2025 2214 1507 2214 1146 
C 2214 653 1933 267 1472 267 
C 1114 267 608 444 320 912 
C 275 691 275 678 250 526 
C 550 88 1037 -128 1485 -128 
C 2214 -128 2752 473 2752 1138 
C 2752 1638 2400 2057 1920 2215 
C 2304 2424 2586 2816 2586 3273 
C 2586 3805 2093 4229 1491 4229 
C 941 4229 512 3892 333 3530 
C 378 3468 493 3284 550 3189 
C 691 3562 1056 3840 1485 3840 
C 1843 3840 2080 3607 2080 3271 
C 2080 2923 1856 2543 1478 2455 
C 1453 2455 1056 2417 1005 2411 
L 1005 2025 
z
" transform="scale(0.015625)"/>
     </defs>
     <use xlink:href="#CMSS17-46" transform="scale(0.996264)"/>
     <use xlink:href="#CMSS17-69" transform="translate(53.289559 0) scale(0.996264)"/>
     <use xlink:href="#CMSS17-67" transform="translate(75.470282 0) scale(0.996264)"/>
     <use xlink:href="#CMSS17-75" transform="translate(122.313906 0) scale(0.996264)"/>
     <use xlink:href="#CMSS17-72" transform="translate(170.518849 0) scale(0.996264)"/>
     <use xlink:href="#CMSS17-33" transform="translate(233.657734 0) scale(0.996264)"/>
    </g>
   </g>
  </g>
  <g id="axes_4">
   <g id="PathCollection_4">
    <g clip-path="url(#pa9b03c8b7f)">
     <use xlink:href="#mf71c2b0656" x="567" y="108" style="fill: #0072b2; stroke: #0072b2"/>
     <use xlink:href="#mf71c2b0656" x="567" y="92.400048" style="fill: #0072b2; stroke: #0072b2"/>
     <use xlink:href="#mf71c2b0656" x="552.163564" y="103.17935" style="fill: #0072b2; stroke: #0072b2"/>
     <use xlink:href="#mf71c2b0656" x="557.830578" y="120.620626" style="fill: #0072b2; stroke: #0072b2"/>
     <use xlink:href="#mf71c2b0656" x="576.169422" y="120.620626" style="fill: #0072b2; stroke: #0072b2"/>
     <use xlink:href="#mf71c2b0656" x="581.836436" y="103.17935" style="fill: #0072b2; stroke: #0072b2"/>
     <use xlink:href="#mf71c2b0656" x="567" y="76.800096" style="fill: #0072b2; stroke: #0072b2"/>
     <use xlink:href="#mf71c2b0656" x="552.163564" y="87.579398" style="fill: #0072b2; stroke: #0072b2"/>
     <use xlink:href="#mf71c2b0656" x="537.327128" y="98.358699" style="fill: #0072b2; stroke: #0072b2"/>
     <use xlink:href="#mf71c2b0656" x="542.994142" y="115.799976" style="fill: #0072b2; stroke: #0072b2"/>
     <use xlink:href="#mf71c2b0656" x="548.661157" y="133.241253" style="fill: #0072b2; stroke: #0072b2"/>
     <use xlink:href="#mf71c2b0656" x="567" y="133.241253" style="fill: #0072b2; stroke: #0072b2"/>
     <use xlink:href="#mf71c2b0656" x="585.338843" y="133.241253" style="fill: #0072b2; stroke: #0072b2"/>
     <use xlink:href="#mf71c2b0656" x="591.005858" y="115.799976" style="fill: #0072b2; stroke: #0072b2"/>
     <use xlink:href="#mf71c2b0656" x="596.672872" y="98.358699" style="fill: #0072b2; stroke: #0072b2"/>
     <use xlink:href="#mf71c2b0656" x="581.836436" y="87.579398" style="fill: #0072b2; stroke: #0072b2"/>
     <use xlink:href="#mf71c2b0656" x="567" y="61.200144" style="fill: #0072b2; stroke: #0072b2"/>
     <use xlink:href="#mf71c2b0656" x="552.163564" y="71.979446" style="fill: #0072b2; stroke: #0072b2"/>
     <use xlink:href="#mf71c2b0656" x="537.327128" y="82.758747" style="fill: #0072b2; stroke: #0072b2"/>
     <use xlink:href="#mf71c2b0656" x="522.490692" y="93.538049" style="fill: #0072b2; stroke: #0072b2"/>
     <use xlink:href="#mf71c2b0656" x="528.157706" y="110.979326" style="fill: #0072b2; stroke: #0072b2"/>
     <use xlink:href="#mf71c2b0656" x="533.824721" y="128.420602" style="fill: #0072b2; stroke: #0072b2"/>
     <use xlink:href="#mf71c2b0656" x="539.491735" y="145.861879" style="fill: #0072b2; stroke: #0072b2"/>
     <use xlink:href="#mf71c2b0656" x="557.830578" y="145.861879" style="fill: #0072b2; stroke: #0072b2"/>
     <use xlink:href="#mf71c2b0656" x="576.169422" y="145.861879" style="fill: #0072b2; stroke: #0072b2"/>
     <use xlink:href="#mf71c2b0656" x="594.508265" y="145.861879" style="fill: #0072b2; stroke: #0072b2"/>
     <use xlink:href="#mf71c2b0656" x="600.175279" y="128.420602" style="fill: #0072b2; stroke: #0072b2"/>
     <use xlink:href="#mf71c2b0656" x="605.842294" y="110.979326" style="fill: #0072b2; stroke: #0072b2"/>
     <use xlink:href="#mf71c2b0656" x="611.509308" y="93.538049" style="fill: #0072b2; stroke: #0072b2"/>
     <use xlink:href="#mf71c2b0656" x="596.672872" y="82.758747" style="fill: #0072b2; stroke: #0072b2"/>
     <use xlink:href="#mf71c2b0656" x="581.836436" y="71.979446" style="fill: #0072b2; stroke: #0072b2"/>
    </g>
   </g>
   <g id="text_4">
    <!-- Figur 4 -->
    <g transform="translate(538.949876 175.38049) scale(0.2 -0.2)">
     <defs>
      <path id="CMSS17-34" d="M 2253 1088 
L 2835 1088 
L 2835 1477 
L 2253 1477 
L 2253 4192 
L 1690 4192 
L 166 1477 
L 166 1088 
L 1747 1088 
L 1747 0 
L 2253 0 
L 2253 1088 
z
M 659 1477 
C 1030 2127 1766 3439 1766 3885 
L 1766 1477 
L 659 1477 
z
" transform="scale(0.015625)"/>
     </defs>
     <use xlink:href="#CMSS17-46" transform="scale(0.996264)"/>
     <use xlink:href="#CMSS17-69" transform="translate(53.289559 0) scale(0.996264)"/>
     <use xlink:href="#CMSS17-67" transform="translate(75.470282 0) scale(0.996264)"/>
     <use xlink:href="#CMSS17-75" transform="translate(122.313906 0) scale(0.996264)"/>
     <use xlink:href="#CMSS17-72" transform="translate(170.518849 0) scale(0.996264)"/>
     <use xlink:href="#CMSS17-34" transform="translate(233.657734 0) scale(0.996264)"/>
    </g>
   </g>
  </g>
 </g>
 <defs>
  <clipPath id="p22dc86b335">
   <rect x="3.00024" y="30.00024" width="155.99952" height="155.99952"/>
  </clipPath>
  <clipPath id="p7e725d6260">
   <rect x="165.00024" y="30.00024" width="155.99952" height="155.99952"/>
  </clipPath>
  <clipPath id="p12bf613076">
   <rect x="327.00024" y="30.00024" width="155.99952" height="155.99952"/>
  </clipPath>
  <clipPath id="pa9b03c8b7f">
   <rect x="489.00024" y="30.00024" width="155.99952" height="155.99952"/>
  </clipPath>
 </defs>
</svg>
