<?xml version="1.0" encoding="utf-8" standalone="no"?>
<!DOCTYPE svg PUBLIC "-//W3C//DTD SVG 1.1//EN"
  "http://www.w3.org/Graphics/SVG/1.1/DTD/svg11.dtd">
<svg xmlns:xlink="http://www.w3.org/1999/xlink" width="460.8pt" height="345.6pt" viewBox="0 0 460.8 345.6" xmlns="http://www.w3.org/2000/svg" version="1.1">
 <metadata>
  <rdf:RDF xmlns:dc="http://purl.org/dc/elements/1.1/" xmlns:cc="http://creativecommons.org/ns#" xmlns:rdf="http://www.w3.org/1999/02/22-rdf-syntax-ns#">
   <cc:Work>
    <dc:type rdf:resource="http://purl.org/dc/dcmitype/StillImage"/>
    <dc:date>2025-04-11T19:48:29.355385</dc:date>
    <dc:format>image/svg+xml</dc:format>
    <dc:creator>
     <cc:Agent>
      <dc:title>Matplotlib v3.9.1, https://matplotlib.org/</dc:title>
     </cc:Agent>
    </dc:creator>
   </cc:Work>
  </rdf:RDF>
 </metadata>
 <defs>
  <style type="text/css">*{stroke-linejoin: round; stroke-linecap: butt}</style>
 </defs>
 <g id="figure_1">
  <g id="patch_1">
   <path d="M 0 345.6 
L 460.8 345.6 
L 460.8 0 
L 0 0 
z
" style="fill: #ffffff"/>
  </g>
  <g id="axes_1">
   <g id="patch_2">
    <path d="M 10.8 334.8 
L 447 334.8 
L 447 18.064532 
L 10.8 18.064532 
z
" style="fill: #ffffff"/>
   </g>
   <g id="matplotlib.axis_1">
    <g id="text_1">
     <!-- $x$ -->
     <g transform="translate(438.13055 191.501854) scale(0.16 -0.16)">
      <defs>
       <path id="CMMI12-78" d="M 3034 2606 
C 2829 2567 2752 2414 2752 2293 
C 2752 2139 2874 2088 2963 2088 
C 3155 2088 3290 2254 3290 2427 
C 3290 2695 2982 2816 2714 2816 
C 2323 2816 2106 2433 2048 2312 
C 1901 2816 1504 2816 1389 2816 
C 736 2816 390 1980 390 1839 
C 390 1814 416 1782 461 1782 
C 512 1782 525 1820 538 1846 
C 755 2555 1184 2689 1370 2689 
C 1658 2689 1715 2420 1715 2267 
C 1715 2127 1677 1980 1600 1673 
L 1382 798 
C 1286 415 1101 64 762 64 
C 730 64 570 64 435 147 
C 666 192 717 383 717 460 
C 717 588 621 664 499 664 
C 346 664 179 530 179 326 
C 179 57 480 -64 755 -64 
C 1062 -64 1280 179 1414 441 
C 1517 64 1837 -64 2074 -64 
C 2726 -64 3072 773 3072 913 
C 3072 945 3046 971 3008 971 
C 2950 971 2944 939 2925 888 
C 2752 326 2381 64 2093 64 
C 1869 64 1747 230 1747 492 
C 1747 632 1773 734 1875 1156 
L 2099 2024 
C 2195 2408 2413 2689 2707 2689 
C 2720 2689 2899 2689 3034 2606 
z
" transform="scale(0.015625)"/>
      </defs>
      <use xlink:href="#CMMI12-78" transform="scale(0.996264)"/>
     </g>
    </g>
   </g>
   <g id="matplotlib.axis_2">
    <g id="text_2">
     <!-- $y$ -->
     <g transform="translate(217.289729 14.965056) scale(0.16 -0.16)">
      <defs>
       <path id="CMMI12-79" d="M 1683 -700 
C 1510 -939 1261 -1152 947 -1152 
C 870 -1152 563 -1152 467 -889 
C 486 -895 518 -895 531 -895 
C 723 -895 851 -729 851 -582 
C 851 -435 730 -384 634 -384 
C 531 -384 307 -458 307 -759 
C 307 -1071 582 -1286 947 -1286 
C 1587 -1286 2234 -700 2413 6 
L 3040 2485 
C 3046 2517 3059 2556 3059 2594 
C 3059 2689 2982 2753 2886 2753 
C 2829 2753 2694 2727 2643 2535 
L 2170 658 
C 2138 543 2138 530 2086 460 
C 1958 281 1747 64 1440 64 
C 1082 64 1050 415 1050 588 
C 1050 952 1222 1443 1395 1903 
C 1466 2088 1504 2178 1504 2305 
C 1504 2574 1312 2816 998 2816 
C 410 2816 173 1890 173 1839 
C 173 1814 198 1782 243 1782 
C 301 1782 307 1807 333 1897 
C 486 2433 730 2689 979 2689 
C 1037 2689 1146 2689 1146 2478 
C 1146 2312 1075 2127 979 1884 
C 666 1047 666 837 666 683 
C 666 77 1101 -64 1421 -64 
C 1606 -64 1837 -6 2061 230 
L 2067 224 
C 1971 -147 1907 -392 1683 -700 
z
" transform="scale(0.015625)"/>
      </defs>
      <use xlink:href="#CMMI12-79" transform="scale(0.996264)"/>
     </g>
    </g>
   </g>
   <g id="line2d_1">
    <defs>
     <path id="m7887b838eb" d="M 3 0 
L -3 -3 
L -3 3 
z
" style="stroke: #000000; stroke-linejoin: miter"/>
    </defs>
    <g>
     <use xlink:href="#m7887b838eb" x="447" y="176.432266" style="stroke: #000000; stroke-linejoin: miter"/>
    </g>
   </g>
   <g id="line2d_2">
    <defs>
     <path id="m928a470460" d="M 0 -3 
L -3 3 
L 3 3 
z
" style="stroke: #000000; stroke-linejoin: miter"/>
    </defs>
    <g>
     <use xlink:href="#m928a470460" x="228.9" y="18.064532" style="stroke: #000000; stroke-linejoin: miter"/>
    </g>
   </g>
   <g id="line2d_3">
    <path d="M 10.586804 149.062101 
L 45.284531 148.619544 
L 69.162537 148.103802 
L 86.697947 147.510184 
L 99.756232 146.856737 
L 110.202859 146.115854 
L 118.410924 145.31697 
L 125.126613 144.445661 
L 130.723021 143.497524 
L 135.200147 142.529962 
L 139.304179 141.412594 
L 142.662023 140.271821 
L 145.646774 139.023648 
L 148.258431 137.688158 
L 150.496994 136.302926 
L 152.362463 134.926907 
L 154.227933 133.28938 
L 156.093402 131.309965 
L 157.585777 129.403442 
L 159.078152 127.118543 
L 160.570528 124.332294 
L 161.689809 121.806976 
L 162.809091 118.787651 
L 163.928372 115.115368 
L 165.047654 110.554874 
L 166.166935 104.742587 
L 166.913123 99.893985 
L 167.659311 93.963345 
L 168.405499 86.544804 
L 169.151686 77.000571 
L 169.897874 64.267661 
L 170.644062 46.432693 
L 171.390249 19.668902 
L 171.785977 -1 
L 171.785977 -1 
" clip-path="url(#pd863135b9d)" style="fill: none; stroke: #008080; stroke-opacity: 0.9; stroke-width: 2; stroke-linecap: square"/>
   </g>
   <g id="line2d_4">
    <path d="M 176.449572 346.6 
L 176.933358 310.051464 
L 177.572947 278.82218 
L 178.212537 258.010495 
L 178.958724 241.079204 
L 179.704912 228.896664 
L 180.557698 218.583139 
L 181.410484 210.778142 
L 182.369868 203.996734 
L 183.329252 198.677171 
L 184.395235 193.970623 
L 185.567815 189.839401 
L 186.740396 186.502033 
L 188.019575 183.52657 
L 189.405352 180.88703 
L 190.791129 178.705402 
L 192.283504 176.746718 
L 193.882478 174.995303 
L 195.694648 173.345611 
L 197.613416 171.899239 
L 199.745381 170.572308 
L 202.090543 169.376747 
L 204.755499 168.277987 
L 207.633651 167.332224 
L 210.938196 166.486329 
L 214.562537 165.790538 
L 218.61327 165.242508 
L 222.983798 164.876018 
L 227.67412 164.708739 
L 232.364443 164.760762 
L 236.948167 165.02792 
L 241.318695 165.503625 
L 245.26283 166.152616 
L 248.780572 166.949662 
L 251.978519 167.901731 
L 254.750073 168.952829 
L 257.201833 170.109064 
L 259.440396 171.404903 
L 261.465762 172.832925 
L 263.277933 174.376848 
L 264.983504 176.12735 
L 266.47588 177.964584 
L 267.861657 180.000401 
L 269.247434 182.448655 
L 270.526613 185.189019 
L 271.699194 188.238294 
L 272.765176 191.603097 
L 273.831158 195.726477 
L 274.790543 200.317995 
L 275.749927 206.06772 
L 276.602713 212.545649 
L 277.455499 220.884359 
L 278.201686 230.423416 
L 278.947874 243.151846 
L 279.587463 258.010495 
L 280.227053 278.82218 
L 280.760044 303.804832 
L 281.293035 341.288459 
L 281.350428 346.6 
L 281.350428 346.6 
" clip-path="url(#pd863135b9d)" style="fill: none; stroke: #008080; stroke-opacity: 0.9; stroke-width: 2; stroke-linecap: square"/>
   </g>
   <g id="line2d_5">
    <path d="M 286.014023 -1 
L 286.409751 19.668902 
L 287.155938 46.432693 
L 287.902126 64.267661 
L 288.648314 77.000571 
L 289.394501 86.544804 
L 290.140689 93.963345 
L 291.259971 102.434214 
L 292.379252 108.779725 
L 293.498534 113.708523 
L 294.617815 117.645788 
L 295.737097 120.862084 
L 296.856378 123.53778 
L 298.348754 126.474867 
L 299.841129 128.871729 
L 301.333504 130.863624 
L 303.198974 132.923954 
L 305.064443 134.622495 
L 306.929912 136.045642 
L 309.168475 137.474502 
L 311.780132 138.848428 
L 314.764883 140.129299 
L 318.122727 141.297224 
L 321.853666 142.345458 
L 326.330792 143.351109 
L 331.554106 144.274868 
L 337.523607 145.09835 
L 344.61239 145.852432 
L 353.566642 146.569152 
L 364.386364 147.203794 
L 378.190836 147.780576 
L 396.09934 148.292642 
L 419.977346 148.737766 
L 447.213196 149.062101 
L 447.213196 149.062101 
" clip-path="url(#pd863135b9d)" style="fill: none; stroke: #008080; stroke-opacity: 0.9; stroke-width: 2; stroke-linecap: square"/>
   </g>
   <g id="LineCollection_1">
    <path d="M 174.375 346.6 
L 174.375 -1 
" clip-path="url(#pd863135b9d)" style="fill: none; stroke-dasharray: 5.55,2.4; stroke-dashoffset: 0; stroke: #0000ff; stroke-width: 1.5"/>
   </g>
   <g id="LineCollection_2">
    <path d="M 283.425 346.6 
L 283.425 -1 
" clip-path="url(#pd863135b9d)" style="fill: none; stroke-dasharray: 5.55,2.4; stroke-dashoffset: 0; stroke: #0000ff; stroke-width: 1.5"/>
   </g>
   <g id="LineCollection_3">
    <path d="M -1 150.037644 
L 461.8 150.037644 
" clip-path="url(#pd863135b9d)" style="fill: none; stroke-dasharray: 5.55,2.4; stroke-dashoffset: 0; stroke: #0000ff; stroke-width: 1.5"/>
   </g>
   <g id="patch_3">
    <path d="M 228.9 334.8 
L 228.9 18.064532 
" style="fill: none; stroke: #000000; stroke-width: 0.8; stroke-linejoin: miter; stroke-linecap: square"/>
   </g>
   <g id="patch_4">
    <path d="M 447 334.8 
L 447 18.064532 
" style="fill: none"/>
   </g>
   <g id="patch_5">
    <path d="M 10.8 176.432266 
L 447 176.432266 
" style="fill: none; stroke: #000000; stroke-width: 0.8; stroke-linejoin: miter; stroke-linecap: square"/>
   </g>
   <g id="patch_6">
    <path d="M 10.8 18.064532 
L 447 18.064532 
" style="fill: none"/>
   </g>
   <g id="legend_1">
    <g id="patch_7">
     <path d="M 375.735217 53.164008 
L 435.8 53.164008 
Q 439 53.164008 439 49.964008 
L 439 29.264532 
Q 439 26.064532 435.8 26.064532 
L 375.735217 26.064532 
Q 372.535217 26.064532 372.535217 29.264532 
L 372.535217 49.964008 
Q 372.535217 53.164008 375.735217 53.164008 
z
" style="fill: #ffffff; opacity: 0.8; stroke: #cccccc; stroke-linejoin: miter"/>
    </g>
    <g id="line2d_6">
     <path d="M 378.935217 38.064532 
L 394.935217 38.064532 
L 410.935217 38.064532 
" style="fill: none; stroke: #008080; stroke-opacity: 0.9; stroke-width: 2; stroke-linecap: square"/>
    </g>
    <g id="text_3">
     <!-- F -->
     <g transform="translate(423.735217 43.664532) scale(0.16 -0.16)">
      <defs>
       <path id="CMSS17-46" d="M 2918 1984 
L 2918 2373 
L 1101 2373 
L 1101 3968 
L 1882 3968 
C 1958 3968 2035 3968 2112 3968 
L 3168 3968 
L 3168 4375 
L 563 4375 
L 563 -32 
L 1101 -32 
L 1101 1984 
L 2918 1984 
z
" transform="scale(0.015625)"/>
      </defs>
      <use xlink:href="#CMSS17-46" transform="scale(0.996264)"/>
     </g>
    </g>
   </g>
  </g>
 </g>
 <defs>
  <clipPath id="pd863135b9d">
   <rect x="10.8" y="18.064532" width="436.2" height="316.735468"/>
  </clipPath>
 </defs>
</svg>
