<?xml version="1.0" encoding="utf-8" standalone="no"?>
<!DOCTYPE svg PUBLIC "-//W3C//DTD SVG 1.1//EN"
  "http://www.w3.org/Graphics/SVG/1.1/DTD/svg11.dtd">
<svg xmlns:xlink="http://www.w3.org/1999/xlink" width="460.8pt" height="345.6pt" viewBox="0 0 460.8 345.6" xmlns="http://www.w3.org/2000/svg" version="1.1">
 <metadata>
  <rdf:RDF xmlns:dc="http://purl.org/dc/elements/1.1/" xmlns:cc="http://creativecommons.org/ns#" xmlns:rdf="http://www.w3.org/1999/02/22-rdf-syntax-ns#">
   <cc:Work>
    <dc:type rdf:resource="http://purl.org/dc/dcmitype/StillImage"/>
    <dc:date>2025-04-11T23:51:25.106102</dc:date>
    <dc:format>image/svg+xml</dc:format>
    <dc:creator>
     <cc:Agent>
      <dc:title>Matplotlib v3.9.1, https://matplotlib.org/</dc:title>
     </cc:Agent>
    </dc:creator>
   </cc:Work>
  </rdf:RDF>
 </metadata>
 <defs>
  <style type="text/css">*{stroke-linejoin: round; stroke-linecap: butt}</style>
 </defs>
 <g id="figure_1">
  <g id="patch_1">
   <path d="M 0 345.6 
L 460.8 345.6 
L 460.8 0 
L 0 0 
z
" style="fill: #ffffff"/>
  </g>
  <g id="axes_1">
   <g id="patch_2">
    <path d="M 236.16 174.528 
L 375.832577 174.528 
L 305.996289 53.568 
z
" clip-path="url(#p997f875f19)" style="fill: #008080; opacity: 0.1; stroke: #008080; stroke-linejoin: miter"/>
   </g>
   <g id="line2d_1">
    <path d="M 357.12 174.528 
L 357.008224 169.329115 
L 356.673102 164.139837 
L 356.115253 158.969759 
L 355.335709 153.828435 
L 354.33591 148.725367 
L 353.117704 143.669985 
L 351.683343 138.671635 
L 350.035476 133.739552 
L 348.177151 128.882852 
L 346.111801 124.110512 
L 343.843243 119.431351 
L 341.37567 114.854016 
L 338.713643 110.386969 
L 335.862081 106.038463 
L 332.826255 101.816537 
L 329.611774 97.728993 
L 326.224581 93.783384 
L 322.670934 89.987005 
L 318.957402 86.346869 
L 315.090848 82.869706 
L 311.078418 79.561941 
L 306.927527 76.429688 
L 302.645847 73.478736 
L 298.241291 70.714538 
L 293.721999 68.142203 
L 289.096324 65.766485 
L 284.372815 63.591775 
L 279.560201 61.622092 
L 274.667377 59.861076 
L 269.703386 58.311982 
L 264.677401 56.977673 
L 259.598712 55.860614 
L 254.476704 54.962871 
L 249.320844 54.286103 
L 244.140661 53.83156 
L 238.945729 53.600082 
L 233.745648 53.592098 
L 228.55003 53.807621 
L 223.368475 54.246254 
L 218.210562 54.907185 
L 213.085821 55.789195 
L 208.003725 56.890651 
L 202.973667 58.20952 
L 198.004941 59.743362 
L 193.106732 61.489344 
L 188.288092 63.444238 
L 183.557927 65.604433 
L 178.924978 67.965934 
L 174.397808 70.524378 
L 169.984784 73.275037 
L 165.694062 76.212827 
L 161.533572 79.332318 
L 157.511003 82.627745 
L 153.633789 86.093018 
L 149.909096 89.721732 
L 146.343807 93.507181 
L 142.944513 97.442369 
L 139.717495 101.520022 
L 136.668717 105.732606 
L 133.803815 110.072333 
L 131.128082 114.531185 
L 128.646464 119.10092 
L 126.363548 123.773092 
L 124.283552 128.539068 
L 122.41032 133.390038 
L 120.747316 138.317037 
L 119.297611 143.310959 
L 118.063886 148.362575 
L 117.04842 153.462549 
L 116.253091 158.601455 
L 115.679368 163.769796 
L 115.328312 168.958019 
L 115.20057 174.156537 
L 115.296381 179.355741 
L 115.615565 184.546023 
L 116.157534 189.71779 
L 116.921286 194.861484 
L 117.905408 199.967599 
L 119.108084 205.026697 
L 120.527089 210.029429 
L 122.159801 214.966549 
L 124.003203 219.828933 
L 126.053888 224.607593 
L 128.308065 229.293699 
L 130.76157 233.87859 
L 133.409866 238.353791 
L 136.248061 242.711033 
L 139.270908 246.942262 
L 142.47282 251.039659 
L 145.847881 254.99565 
L 149.389852 258.802926 
L 153.092188 262.454448 
L 156.948046 265.943469 
L 160.950299 269.26354 
L 165.091551 272.408525 
L 169.364149 275.372612 
L 173.760195 278.150324 
L 178.271566 280.736525 
L 182.889923 283.126437 
L 187.606732 285.315643 
L 192.413274 287.300096 
L 197.300667 289.076129 
L 202.259878 290.64046 
L 207.281742 291.990197 
L 212.356977 293.122847 
L 217.476203 294.036315 
L 222.62996 294.728914 
L 227.808723 295.199363 
L 233.00292 295.446793 
L 238.202952 295.470747 
L 243.399208 295.27118 
L 248.582084 294.848461 
L 253.742004 294.203372 
L 258.869428 293.337105 
L 263.954883 292.251261 
L 268.988968 290.947846 
L 273.96238 289.429269 
L 278.865928 287.698338 
L 283.690548 285.75825 
L 288.427325 283.612592 
L 293.067505 281.26533 
L 297.60251 278.7208 
L 302.02396 275.983706 
L 306.323684 273.059107 
L 310.493734 269.952407 
L 314.526405 266.669349 
L 318.414242 263.215999 
L 322.150061 259.598741 
L 325.726958 255.824259 
L 329.138321 251.899529 
L 332.377846 247.831804 
L 335.439546 243.628603 
L 338.317762 239.297694 
L 341.007175 234.84708 
L 343.502815 230.284988 
L 345.800069 225.619848 
L 347.894691 220.860283 
L 349.782811 216.015089 
L 351.460938 211.09322 
L 352.925972 206.103773 
L 354.175204 201.055969 
L 355.206327 195.959138 
L 356.017434 190.822698 
L 356.607026 185.656144 
L 356.974013 180.469023 
L 357.117719 175.270922 
L 357.12 174.528 
L 357.12 174.528 
" clip-path="url(#p997f875f19)" style="fill: none; stroke: #000000; stroke-width: 1.5; stroke-linecap: square"/>
   </g>
   <g id="line2d_2">
    <path d="M 375.832577 174.528 
L 305.996289 53.568 
L 166.323711 53.568 
L 96.487423 174.528 
L 166.323711 295.488 
L 305.996289 295.488 
L 375.832577 174.528 
" clip-path="url(#p997f875f19)" style="fill: none; stroke: #008080; stroke-opacity: 0.8; stroke-width: 2.5; stroke-linecap: square"/>
   </g>
   <g id="line2d_3">
    <path d="M 236.16 174.528 
L 375.832577 174.528 
L 305.996289 53.568 
L 236.16 174.528 
" clip-path="url(#p997f875f19)" style="fill: none; stroke: #000000; stroke-width: 1.5; stroke-linecap: square"/>
   </g>
   <g id="line2d_4">
    <defs>
     <path id="macd317e5a2" d="M 0 4 
C 1.060812 4 2.078319 3.578535 2.828427 2.828427 
C 3.578535 2.078319 4 1.060812 4 0 
C 4 -1.060812 3.578535 -2.078319 2.828427 -2.828427 
C 2.078319 -3.578535 1.060812 -4 0 -4 
C -1.060812 -4 -2.078319 -3.578535 -2.828427 -2.828427 
C -3.578535 -2.078319 -4 -1.060812 -4 0 
C -4 1.060812 -3.578535 2.078319 -2.828427 2.828427 
C -2.078319 3.578535 -1.060812 4 0 4 
z
" style="stroke: #000000; stroke-opacity: 0.7"/>
    </defs>
    <g clip-path="url(#p997f875f19)">
     <use xlink:href="#macd317e5a2" x="375.832577" y="174.528" style="fill-opacity: 0.7; stroke: #000000; stroke-opacity: 0.7"/>
     <use xlink:href="#macd317e5a2" x="305.996289" y="53.568" style="fill-opacity: 0.7; stroke: #000000; stroke-opacity: 0.7"/>
     <use xlink:href="#macd317e5a2" x="236.16" y="174.528" style="fill-opacity: 0.7; stroke: #000000; stroke-opacity: 0.7"/>
    </g>
   </g>
   <g id="line2d_5">
    <path d="M 260.352 174.528 
L 260.24009 172.203753 
L 259.905396 169.90101 
L 259.351014 167.641075 
L 258.582073 165.444856 
L 257.605688 163.332673 
L 256.430891 161.324067 
L 255.068552 159.437621 
L 253.531274 157.690788 
L 251.833281 156.09973 
L 249.990282 154.679167 
L 248.256 153.577113 
L 248.256 153.577113 
" clip-path="url(#p997f875f19)" style="fill: none; stroke: #000000; stroke-linecap: square"/>
   </g>
   <g id="text_1">
    <!-- $u$ -->
    <g transform="translate(263.144703 161.751724) scale(0.16 -0.16)">
     <defs>
      <path id="CMMI12-75" d="M 2182 370 
C 2266 13 2573 -64 2726 -64 
C 2931 -64 3085 70 3187 287 
C 3296 517 3379 894 3379 913 
C 3379 945 3354 971 3315 971 
C 3258 971 3251 939 3226 843 
C 3110 402 2995 64 2739 64 
C 2547 64 2547 275 2547 358 
C 2547 505 2566 568 2630 837 
C 2675 1009 2720 1181 2758 1360 
L 3021 2401 
C 3066 2561 3066 2574 3066 2593 
C 3066 2689 2989 2753 2893 2753 
C 2707 2753 2662 2593 2624 2433 
C 2560 2184 2214 811 2170 588 
C 2163 588 1914 64 1446 64 
C 1114 64 1050 351 1050 588 
C 1050 952 1229 1462 1395 1890 
C 1472 2095 1504 2178 1504 2305 
C 1504 2580 1306 2816 998 2816 
C 410 2816 173 1890 173 1839 
C 173 1814 198 1782 243 1782 
C 301 1782 307 1807 333 1896 
C 486 2441 736 2682 979 2682 
C 1043 2682 1146 2682 1146 2478 
C 1146 2312 1075 2127 979 1884 
C 698 1124 666 881 666 690 
C 666 38 1158 -64 1421 -64 
C 1830 -64 2054 217 2182 370 
z
" transform="scale(0.015625)"/>
     </defs>
     <use xlink:href="#CMMI12-75" transform="scale(0.996264)"/>
    </g>
   </g>
  </g>
 </g>
 <defs>
  <clipPath id="p997f875f19">
   <rect x="57.6" y="41.472" width="357.12" height="266.112"/>
  </clipPath>
 </defs>
</svg>
