<?xml version="1.0" encoding="utf-8" standalone="no"?>
<!DOCTYPE svg PUBLIC "-//W3C//DTD SVG 1.1//EN"
  "http://www.w3.org/Graphics/SVG/1.1/DTD/svg11.dtd">
<svg xmlns:xlink="http://www.w3.org/1999/xlink" width="720pt" height="288pt" viewBox="0 0 720 288" xmlns="http://www.w3.org/2000/svg" version="1.1">
 <metadata>
  <rdf:RDF xmlns:dc="http://purl.org/dc/elements/1.1/" xmlns:cc="http://creativecommons.org/ns#" xmlns:rdf="http://www.w3.org/1999/02/22-rdf-syntax-ns#">
   <cc:Work>
    <dc:type rdf:resource="http://purl.org/dc/dcmitype/StillImage"/>
    <dc:date>2025-04-19T19:27:31.219607</dc:date>
    <dc:format>image/svg+xml</dc:format>
    <dc:creator>
     <cc:Agent>
      <dc:title>Matplotlib v3.9.1, https://matplotlib.org/</dc:title>
     </cc:Agent>
    </dc:creator>
   </cc:Work>
  </rdf:RDF>
 </metadata>
 <defs>
  <style type="text/css">*{stroke-linejoin: round; stroke-linecap: butt}</style>
 </defs>
 <g id="figure_1">
  <g id="patch_1">
   <path d="M 0 288 
L 720 288 
L 720 0 
L 0 0 
L 0 288 
z
" style="fill: none"/>
  </g>
  <g id="axes_1">
   <g id="patch_2">
    <path d="M 10.8 277.2 
L 318.367016 277.2 
L 318.367016 18.064532 
L 10.8 18.064532 
L 10.8 277.2 
z
" style="fill: none"/>
   </g>
   <g id="matplotlib.axis_1">
    <g id="text_1">
     <!-- $x$ -->
     <g transform="translate(309.497566 162.701854) scale(0.16 -0.16)">
      <defs>
       <path id="CMMI12-78" d="M 3034 2606 
C 2829 2567 2752 2414 2752 2293 
C 2752 2139 2874 2088 2963 2088 
C 3155 2088 3290 2254 3290 2427 
C 3290 2695 2982 2816 2714 2816 
C 2323 2816 2106 2433 2048 2312 
C 1901 2816 1504 2816 1389 2816 
C 736 2816 390 1980 390 1839 
C 390 1814 416 1782 461 1782 
C 512 1782 525 1820 538 1846 
C 755 2555 1184 2689 1370 2689 
C 1658 2689 1715 2420 1715 2267 
C 1715 2127 1677 1980 1600 1673 
L 1382 798 
C 1286 415 1101 64 762 64 
C 730 64 570 64 435 147 
C 666 192 717 383 717 460 
C 717 588 621 664 499 664 
C 346 664 179 530 179 326 
C 179 57 480 -64 755 -64 
C 1062 -64 1280 179 1414 441 
C 1517 64 1837 -64 2074 -64 
C 2726 -64 3072 773 3072 913 
C 3072 945 3046 971 3008 971 
C 2950 971 2944 939 2925 888 
C 2752 326 2381 64 2093 64 
C 1869 64 1747 230 1747 492 
C 1747 632 1773 734 1875 1156 
L 2099 2024 
C 2195 2408 2413 2689 2707 2689 
C 2720 2689 2899 2689 3034 2606 
z
" transform="scale(0.015625)"/>
      </defs>
      <use xlink:href="#CMMI12-78" transform="scale(0.996264)"/>
     </g>
    </g>
   </g>
   <g id="matplotlib.axis_2">
    <g id="text_2">
     <!-- $y$ -->
     <g transform="translate(122.216536 14.965056) scale(0.16 -0.16)">
      <defs>
       <path id="CMMI12-79" d="M 1683 -700 
C 1510 -939 1261 -1152 947 -1152 
C 870 -1152 563 -1152 467 -889 
C 486 -895 518 -895 531 -895 
C 723 -895 851 -729 851 -582 
C 851 -435 730 -384 634 -384 
C 531 -384 307 -458 307 -759 
C 307 -1071 582 -1286 947 -1286 
C 1587 -1286 2234 -700 2413 6 
L 3040 2485 
C 3046 2517 3059 2556 3059 2594 
C 3059 2689 2982 2753 2886 2753 
C 2829 2753 2694 2727 2643 2535 
L 2170 658 
C 2138 543 2138 530 2086 460 
C 1958 281 1747 64 1440 64 
C 1082 64 1050 415 1050 588 
C 1050 952 1222 1443 1395 1903 
C 1466 2088 1504 2178 1504 2305 
C 1504 2574 1312 2816 998 2816 
C 410 2816 173 1890 173 1839 
C 173 1814 198 1782 243 1782 
C 301 1782 307 1807 333 1897 
C 486 2433 730 2689 979 2689 
C 1037 2689 1146 2689 1146 2478 
C 1146 2312 1075 2127 979 1884 
C 666 1047 666 837 666 683 
C 666 77 1101 -64 1421 -64 
C 1606 -64 1837 -6 2061 230 
L 2067 224 
C 1971 -147 1907 -392 1683 -700 
z
" transform="scale(0.015625)"/>
      </defs>
      <use xlink:href="#CMMI12-79" transform="scale(0.996264)"/>
     </g>
    </g>
   </g>
   <g id="line2d_1">
    <path d="M 58.308023 289 
L 318.787929 69.536993 
L 318.787929 69.536993 
" clip-path="url(#p1856379d9a)" style="fill: none; stroke: #0072b2; stroke-opacity: 0.9; stroke-width: 2.5; stroke-linecap: square"/>
   </g>
   <g id="line2d_2">
    <path d="M 60.999589 -1 
L 233.099601 289 
L 233.099601 289 
" clip-path="url(#p1856379d9a)" style="fill: none; stroke: #dc5e8b; stroke-width: 2.5; stroke-linecap: square"/>
   </g>
   <g id="line2d_3">
    <defs>
     <path id="m676ccddb97" d="M 0 4 
C 1.060812 4 2.078319 3.578535 2.828427 2.828427 
C 3.578535 2.078319 4 1.060812 4 0 
C 4 -1.060812 3.578535 -2.078319 2.828427 -2.828427 
C 2.078319 -3.578535 1.060812 -4 0 -4 
C -1.060812 -4 -2.078319 -3.578535 -2.828427 -2.828427 
C -3.578535 -2.078319 -4 -1.060812 -4 0 
C -4 1.060812 -3.578535 2.078319 -2.828427 2.828427 
C -2.078319 3.578535 -1.060812 4 0 4 
z
" style="stroke: #000000; stroke-opacity: 0.7"/>
    </defs>
    <g clip-path="url(#p1856379d9a)">
     <use xlink:href="#m676ccddb97" x="174.835742" y="190.821511" style="fill-opacity: 0.7; stroke: #000000; stroke-opacity: 0.7"/>
    </g>
   </g>
   <g id="line2d_4">
    <defs>
     <path id="mf3b31f117c" d="M 0 7.5 
L 0 -7.5 
" style="stroke: #000000; stroke-opacity: 0.7"/>
    </defs>
    <g clip-path="url(#p1856379d9a)">
     <use xlink:href="#mf3b31f117c" x="174.835742" y="147.632266" style="fill-opacity: 0.7; stroke: #000000; stroke-opacity: 0.7"/>
    </g>
   </g>
   <g id="line2d_5">
    <defs>
     <path id="md8bfdf35a8" d="M 3 0 
L -3 -3 
L -3 3 
z
" style="stroke: #000000; stroke-linejoin: miter"/>
    </defs>
    <g>
     <use xlink:href="#md8bfdf35a8" x="318.367016" y="147.632266" style="stroke: #000000; stroke-linejoin: miter"/>
    </g>
   </g>
   <g id="line2d_6">
    <defs>
     <path id="m07ccb53f9c" d="M 0 -3 
L -3 3 
L 3 3 
z
" style="stroke: #000000; stroke-linejoin: miter"/>
    </defs>
    <g>
     <use xlink:href="#m07ccb53f9c" x="133.826806" y="18.064532" style="stroke: #000000; stroke-linejoin: miter"/>
    </g>
   </g>
   <g id="LineCollection_1">
    <path d="M -1 147.632266 
L 174.835742 147.632266 
" clip-path="url(#p1856379d9a)" style="fill: none; stroke: #56b4e9; stroke-opacity: 0.9; stroke-width: 8"/>
   </g>
   <g id="LineCollection_2">
    <path d="M 174.835742 147.632266 
L 174.835742 190.821511 
" clip-path="url(#p1856379d9a)" style="fill: none; stroke-dasharray: 5.55,2.4; stroke-dashoffset: 0; stroke: #000000; stroke-opacity: 0.5; stroke-width: 1.5"/>
   </g>
   <g id="patch_3">
    <path d="M 133.826806 277.2 
L 133.826806 18.064532 
" style="fill: none; stroke: #000000; stroke-width: 0.8; stroke-linejoin: miter; stroke-linecap: square"/>
   </g>
   <g id="patch_4">
    <path d="M 318.367016 277.2 
L 318.367016 18.064532 
" style="fill: none"/>
   </g>
   <g id="patch_5">
    <path d="M 10.8 147.632266 
L 318.367016 147.632266 
" style="fill: none; stroke: #000000; stroke-width: 0.8; stroke-linejoin: miter; stroke-linecap: square"/>
   </g>
   <g id="patch_6">
    <path d="M 10.8 18.064532 
L 318.367016 18.064532 
" style="fill: none"/>
   </g>
   <g id="text_3">
    <g id="patch_7">
     <path d="M 147.942739 72.245593 
L 255.04036 72.245593 
Q 259.84036 72.245593 259.84036 67.445593 
L 259.84036 20.510565 
Q 259.84036 15.710565 255.04036 15.710565 
L 147.942739 15.710565 
Q 143.142739 15.710565 143.142739 20.510565 
L 143.142739 67.445593 
Q 143.142739 72.245593 147.942739 72.245593 
z
" style="fill: #ffffff; stroke: #000000; stroke-width: 2; stroke-linejoin: miter"/>
    </g>
    <!-- $ax + b &lt; cx + d$  -->
    <g transform="translate(148.07197 31.580153) scale(0.16 -0.16)">
     <defs>
      <path id="CMMI12-61" d="M 1926 760 
C 1894 651 1894 639 1805 517 
C 1664 338 1382 64 1082 64 
C 819 64 672 300 672 677 
C 672 1028 870 1743 992 2012 
C 1210 2459 1510 2689 1760 2689 
C 2182 2689 2266 2165 2266 2114 
C 2266 2108 2246 2024 2240 2012 
L 1926 760 
z
M 2336 2395 
C 2266 2561 2093 2816 1760 2816 
C 1037 2816 256 1884 256 939 
C 256 307 627 -64 1062 -64 
C 1414 -64 1715 211 1894 422 
C 1958 45 2259 -64 2451 -64 
C 2643 -64 2797 51 2912 281 
C 3014 498 3104 888 3104 913 
C 3104 945 3078 971 3040 971 
C 2982 971 2976 939 2950 843 
C 2854 466 2733 64 2470 64 
C 2285 64 2272 230 2272 358 
C 2272 505 2291 575 2349 824 
C 2394 984 2426 1124 2477 1309 
C 2714 2267 2771 2497 2771 2535 
C 2771 2625 2701 2695 2605 2695 
C 2400 2695 2349 2472 2336 2395 
z
" transform="scale(0.015625)"/>
      <path id="CMR17-2b" d="M 2413 1472 
L 4109 1472 
C 4198 1472 4307 1472 4307 1580 
C 4307 1695 4205 1695 4109 1695 
L 2413 1695 
L 2413 3386 
C 2413 3475 2413 3584 2304 3584 
C 2189 3584 2189 3482 2189 3386 
L 2189 1695 
L 493 1695 
C 403 1695 294 1695 294 1587 
C 294 1472 397 1472 493 1472 
L 2189 1472 
L 2189 -218 
C 2189 -307 2189 -416 2298 -416 
C 2413 -416 2413 -314 2413 -218 
L 2413 1472 
z
" transform="scale(0.015625)"/>
      <path id="CMMI12-62" d="M 1478 4257 
C 1485 4283 1498 4321 1498 4352 
C 1498 4416 1434 4416 1421 4416 
C 1414 4416 1184 4393 1069 4377 
C 960 4377 864 4358 749 4358 
C 595 4345 550 4339 550 4224 
C 550 4160 614 4160 678 4160 
C 1005 4160 1005 4103 1005 4040 
C 1005 3996 954 3811 928 3696 
L 774 3085 
C 710 2831 346 1387 320 1272 
C 288 1114 288 1005 288 922 
C 288 274 653 -64 1069 -64 
C 1811 -64 2579 888 2579 1814 
C 2579 2401 2246 2816 1766 2816 
C 1434 2816 1133 2542 1011 2414 
L 1478 4257 
z
M 1075 64 
C 870 64 646 217 646 715 
C 646 926 666 1047 781 1494 
C 800 1577 902 1986 928 2069 
C 941 2120 1318 2689 1754 2689 
C 2035 2689 2163 2408 2163 2076 
C 2163 1769 1984 1047 1824 715 
C 1664 370 1370 64 1075 64 
z
" transform="scale(0.015625)"/>
      <path id="CMMI12-3c" d="M 4218 3104 
C 4333 3155 4346 3200 4346 3238 
C 4346 3309 4294 3360 4224 3360 
C 4211 3360 4205 3353 4115 3315 
L 653 1719 
C 538 1667 525 1622 525 1584 
C 525 1539 531 1501 653 1442 
L 4115 -154 
C 4198 -192 4211 -192 4224 -192 
C 4294 -192 4346 -141 4346 -70 
C 4346 -32 4333 13 4218 64 
L 922 1581 
L 4218 3104 
z
" transform="scale(0.015625)"/>
      <path id="CMMI12-63" d="M 2502 2431 
C 2381 2431 2323 2431 2234 2355 
C 2195 2323 2125 2227 2125 2125 
C 2125 1997 2221 1920 2342 1920 
C 2496 1920 2669 2044 2669 2292 
C 2669 2588 2374 2816 1933 2816 
C 1094 2816 256 1903 256 996 
C 256 441 602 -64 1254 -64 
C 2125 -64 2675 622 2675 706 
C 2675 744 2637 776 2611 776 
C 2592 776 2586 770 2528 713 
C 2118 162 1510 64 1267 64 
C 826 64 685 446 685 764 
C 685 988 794 1605 1024 2039 
C 1190 2338 1536 2682 1939 2682 
C 2022 2682 2374 2682 2502 2431 
z
" transform="scale(0.015625)"/>
      <path id="CMMI12-64" d="M 3219 4257 
C 3226 4282 3238 4320 3238 4352 
C 3238 4416 3174 4416 3162 4416 
C 3155 4416 2842 4388 2810 4380 
C 2701 4373 2605 4358 2490 4358 
C 2330 4345 2285 4339 2285 4224 
C 2285 4160 2336 4160 2426 4160 
C 2739 4160 2746 4103 2746 4040 
C 2746 4002 2733 3952 2726 3933 
L 2336 2395 
C 2266 2561 2093 2816 1760 2816 
C 1037 2816 256 1884 256 939 
C 256 307 627 -64 1062 -64 
C 1414 -64 1715 211 1894 422 
C 1958 45 2259 -64 2451 -64 
C 2643 -64 2797 51 2912 281 
C 3014 498 3104 888 3104 913 
C 3104 945 3078 971 3040 971 
C 2982 971 2976 939 2950 843 
C 2854 466 2733 64 2470 64 
C 2285 64 2272 229 2272 357 
C 2272 382 2272 515 2317 694 
L 3219 4257 
z
M 1926 760 
C 1894 651 1894 639 1805 517 
C 1664 338 1382 64 1082 64 
C 819 64 672 300 672 677 
C 672 1028 870 1743 992 2012 
C 1210 2459 1510 2689 1760 2689 
C 2182 2689 2266 2165 2266 2114 
C 2266 2108 2246 2024 2240 2012 
L 1926 760 
z
" transform="scale(0.015625)"/>
     </defs>
     <use xlink:href="#CMMI12-61" transform="scale(0.996264)"/>
     <use xlink:href="#CMMI12-78" transform="translate(51.207858 0) scale(0.996264)"/>
     <use xlink:href="#CMR17-2b" transform="translate(128.781124 0) scale(0.996264)"/>
     <use xlink:href="#CMMI12-62" transform="translate(222.63512 0) scale(0.996264)"/>
     <use xlink:href="#CMMI12-3c" transform="translate(291.785002 0) scale(0.996264)"/>
     <use xlink:href="#CMMI12-63" transform="translate(395.331107 0) scale(0.996264)"/>
     <use xlink:href="#CMMI12-78" transform="translate(437.314341 0) scale(0.996264)"/>
     <use xlink:href="#CMR17-2b" transform="translate(514.887607 0) scale(0.996264)"/>
     <use xlink:href="#CMMI12-64" transform="translate(608.741603 0) scale(0.996264)"/>
    </g>
    <!--  eller  -->
    <g transform="translate(188.23124 47.963135) scale(0.16 -0.16)">
     <defs>
      <path id="CMSS17-65" d="M 2502 1377 
C 2502 1590 2490 2003 2285 2345 
C 2061 2713 1696 2816 1421 2816 
C 755 2816 192 2188 192 1375 
C 192 582 774 -64 1510 -64 
C 1798 -64 2150 19 2470 248 
C 2470 274 2458 414 2451 420 
C 2451 433 2432 630 2432 656 
C 2125 407 1773 325 1517 325 
C 1107 325 666 667 646 1377 
L 2502 1377 
z
M 698 1728 
C 781 2084 1062 2421 1421 2421 
C 1517 2421 1965 2421 2080 1728 
L 698 1728 
z
" transform="scale(0.015625)"/>
      <path id="CMSS17-6c" d="M 947 4416 
L 474 4416 
L 474 0 
L 947 0 
L 947 4416 
z
" transform="scale(0.015625)"/>
      <path id="CMSS17-72" d="M 954 1363 
C 954 1965 1395 2368 1958 2368 
L 1958 2789 
C 1549 2789 1165 2585 934 2253 
L 934 2758 
L 480 2758 
L 480 0 
L 954 0 
L 954 1363 
z
" transform="scale(0.015625)"/>
     </defs>
     <use xlink:href="#CMSS17-65" transform="scale(0.996264)"/>
     <use xlink:href="#CMSS17-6c" transform="translate(41.638822 0) scale(0.996264)"/>
     <use xlink:href="#CMSS17-6c" transform="translate(63.819545 0) scale(0.996264)"/>
     <use xlink:href="#CMSS17-65" transform="translate(86.000268 0) scale(0.996264)"/>
     <use xlink:href="#CMSS17-72" transform="translate(127.63909 0) scale(0.996264)"/>
    </g>
    <!--  $ax + b \leq cx + d$ -->
    <g transform="translate(147.942739 64.346117) scale(0.16 -0.16)">
     <defs>
      <path id="CMSY10-14" d="M 4320 3812 
C 4390 3844 4442 3876 4442 3952 
C 4442 4023 4390 4080 4314 4080 
C 4282 4080 4224 4055 4198 4042 
L 659 2372 
C 550 2320 531 2276 531 2224 
C 531 2167 570 2122 659 2084 
L 4198 420 
C 4282 375 4294 375 4314 375 
C 4384 375 4442 432 4442 503 
C 4442 560 4416 599 4307 650 
L 960 2224 
L 4320 3812 
z
M 4218 -891 
C 4326 -891 4442 -891 4442 -763 
C 4442 -635 4307 -635 4211 -635 
L 762 -635 
C 666 -635 531 -635 531 -763 
C 531 -891 646 -891 755 -891 
L 4218 -891 
z
" transform="scale(0.015625)"/>
     </defs>
     <use xlink:href="#CMMI12-61" transform="scale(0.996264)"/>
     <use xlink:href="#CMMI12-78" transform="translate(51.207858 0) scale(0.996264)"/>
     <use xlink:href="#CMR17-2b" transform="translate(128.781124 0) scale(0.996264)"/>
     <use xlink:href="#CMMI12-62" transform="translate(222.63512 0) scale(0.996264)"/>
     <use xlink:href="#CMSY10-14" transform="translate(291.785002 0) scale(0.996264)"/>
     <use xlink:href="#CMMI12-63" transform="translate(396.946479 0) scale(0.996264)"/>
     <use xlink:href="#CMMI12-78" transform="translate(438.929712 0) scale(0.996264)"/>
     <use xlink:href="#CMR17-2b" transform="translate(516.502979 0) scale(0.996264)"/>
     <use xlink:href="#CMMI12-64" transform="translate(610.356974 0) scale(0.996264)"/>
    </g>
   </g>
   <g id="patch_8">
    <path d="M 116.702883 189.173326 
Q 143.433377 169.004969 168.378885 150.183397 
" style="fill: none; opacity: 0.7; stroke: #000000; stroke-width: 2; stroke-linecap: round"/>
    <path d="M 161.342599 151.483656 
L 168.378885 150.183397 
L 165.197321 156.592581 
" style="fill: none; opacity: 0.7; stroke: #000000; stroke-width: 2; stroke-linecap: round"/>
   </g>
   <g id="text_4">
    <!-- Løsningsmengde -->
    <g transform="translate(50.20783 203.444416) scale(0.16 -0.16)">
     <defs>
      <path id="CMSS17-4c" d="M 1670 414 
C 1594 414 1517 414 1440 414 
L 1101 414 
L 1101 4416 
L 563 4416 
L 563 0 
L 3002 0 
L 3002 414 
L 1670 414 
z
" transform="scale(0.015625)"/>
      <path id="CMSS17-1c" d="M 2758 3268 
L 2413 3459 
L 2010 2708 
C 1926 2746 1728 2816 1504 2816 
C 768 2816 173 2157 173 1356 
C 173 888 384 479 672 248 
L 243 -535 
L 589 -727 
L 1005 38 
C 1107 -7 1286 -64 1498 -64 
C 2227 -64 2829 563 2829 1357 
C 2829 1799 2643 2210 2336 2497 
L 2758 3268 
z
M 877 643 
C 685 886 659 1179 659 1363 
C 659 2090 1075 2427 1504 2427 
C 1613 2427 1722 2408 1818 2363 
L 877 643 
z
M 2125 2097 
C 2310 1855 2342 1549 2342 1351 
C 2342 631 1907 325 1498 325 
C 1395 325 1293 344 1197 383 
L 2125 2097 
z
" transform="scale(0.015625)"/>
      <path id="CMSS17-73" d="M 2061 2627 
C 1683 2807 1389 2807 1197 2807 
C 742 2807 198 2648 198 2003 
C 198 1359 902 1218 1094 1179 
C 1389 1122 1715 1058 1715 740 
C 1715 337 1254 337 1171 337 
C 915 337 563 407 243 638 
L 166 210 
C 531 0 883 -64 1178 -64 
C 1965 -64 2163 416 2163 781 
C 2163 1094 1984 1305 1862 1401 
C 1651 1568 1574 1587 1050 1696 
C 960 1709 646 1779 646 2066 
C 646 2432 1050 2432 1139 2432 
C 1555 2432 1811 2303 1984 2208 
L 2061 2627 
z
" transform="scale(0.015625)"/>
      <path id="CMSS17-6e" d="M 2618 1877 
C 2618 2283 2522 2816 1798 2816 
C 1389 2816 1120 2606 941 2389 
L 941 2758 
L 474 2758 
L 474 0 
L 960 0 
L 960 1559 
C 960 1964 1114 2428 1549 2428 
C 2112 2428 2131 2048 2131 1829 
L 2131 0 
L 2618 0 
L 2618 1877 
z
" transform="scale(0.015625)"/>
      <path id="CMSS17-69" d="M 979 4183 
L 442 4183 
L 442 3648 
L 979 3648 
L 979 4183 
z
M 947 2739 
L 474 2739 
L 474 0 
L 947 0 
L 947 2739 
z
" transform="scale(0.015625)"/>
      <path id="CMSS17-67" d="M 2848 2808 
C 2483 2808 2170 2738 1914 2617 
C 1702 2777 1485 2808 1338 2808 
C 781 2808 358 2349 358 1814 
C 358 1468 550 1207 563 1195 
C 448 1035 384 863 384 672 
C 384 448 474 289 544 200 
C 211 -3 166 -314 166 -435 
C 166 -898 749 -1280 1498 -1280 
C 2253 -1280 2835 -898 2835 -428 
C 2835 448 1856 448 1587 448 
L 1069 448 
C 973 448 717 448 717 791 
C 717 921 774 1004 781 1010 
C 877 940 1075 832 1338 832 
C 1869 832 2310 1278 2310 1827 
C 2310 2132 2170 2355 2112 2432 
L 2131 2432 
C 2150 2432 2419 2432 2515 2432 
C 2720 2432 2739 2429 2918 2419 
L 2848 2808 
z
M 1338 1182 
C 1120 1182 813 1315 813 1823 
C 813 2375 1165 2464 1331 2464 
C 1549 2464 1856 2331 1856 1823 
C 1856 1271 1504 1182 1338 1182 
z
M 1581 -10 
C 1734 -10 2381 -10 2381 -442 
C 2381 -714 1984 -929 1504 -929 
C 1018 -929 621 -720 621 -435 
C 621 -403 621 -10 1062 -10 
L 1581 -10 
z
" transform="scale(0.015625)"/>
      <path id="CMSS17-6d" d="M 4288 1877 
C 4288 2308 4179 2816 3462 2816 
C 2982 2816 2694 2516 2566 2331 
C 2451 2670 2182 2816 1798 2816 
C 1363 2816 1088 2568 941 2389 
L 941 2758 
L 474 2758 
L 474 0 
L 960 0 
L 960 1559 
C 960 1939 1101 2428 1555 2428 
C 2138 2428 2138 2016 2138 1829 
L 2138 0 
L 2624 0 
L 2624 1559 
C 2624 1939 2765 2428 3219 2428 
C 3802 2428 3802 2016 3802 1829 
L 3802 0 
L 4288 0 
L 4288 1877 
z
" transform="scale(0.015625)"/>
      <path id="CMSS17-64" d="M 2611 4416 
L 2138 4416 
L 2138 2438 
C 1939 2603 1613 2756 1254 2756 
C 672 2756 211 2131 211 1347 
C 211 562 666 -64 1235 -64 
C 1677 -64 1971 172 2125 306 
L 2125 -13 
L 2611 -13 
L 2611 4416 
z
M 2125 836 
C 2125 747 2125 653 1926 482 
C 1798 375 1645 325 1498 325 
C 1152 325 698 576 698 1340 
C 698 2134 1210 2368 1562 2368 
C 1798 2368 1990 2254 2125 2065 
L 2125 836 
z
" transform="scale(0.015625)"/>
     </defs>
     <use xlink:href="#CMSS17-4c" transform="scale(0.996264)"/>
     <use xlink:href="#CMSS17-1c" transform="translate(50.687105 0) scale(0.996264)"/>
     <use xlink:href="#CMSS17-73" transform="translate(97.530729 0) scale(0.996264)"/>
     <use xlink:href="#CMSS17-6e" transform="translate(133.444271 0) scale(0.996264)"/>
     <use xlink:href="#CMSS17-69" transform="translate(181.649214 0) scale(0.996264)"/>
     <use xlink:href="#CMSS17-6e" transform="translate(203.829937 0) scale(0.996264)"/>
     <use xlink:href="#CMSS17-67" transform="translate(252.03488 0) scale(0.996264)"/>
     <use xlink:href="#CMSS17-73" transform="translate(298.878504 0) scale(0.996264)"/>
     <use xlink:href="#CMSS17-6d" transform="translate(334.792046 0) scale(0.996264)"/>
     <use xlink:href="#CMSS17-65" transform="translate(409.0213 0) scale(0.996264)"/>
     <use xlink:href="#CMSS17-6e" transform="translate(450.660122 0) scale(0.996264)"/>
     <use xlink:href="#CMSS17-67" transform="translate(498.865065 0) scale(0.996264)"/>
     <use xlink:href="#CMSS17-64" transform="translate(545.708689 0) scale(0.996264)"/>
     <use xlink:href="#CMSS17-65" transform="translate(593.913632 0) scale(0.996264)"/>
    </g>
   </g>
   <g id="patch_9">
    <path d="M 105.255244 188.413045 
Q 109.094549 169.00459 112.499932 151.789697 
" style="fill: none; opacity: 0.7; stroke: #000000; stroke-width: 2; stroke-linecap: round"/>
    <path d="M 108.118806 157.447058 
L 112.499932 151.789697 
L 114.397145 158.689014 
" style="fill: none; opacity: 0.7; stroke: #000000; stroke-width: 2; stroke-linecap: round"/>
   </g>
   <g id="text_5">
    <!-- Løsningsmengde -->
    <g transform="translate(50.20783 203.444416) scale(0.16 -0.16)">
     <use xlink:href="#CMSS17-4c" transform="scale(0.996264)"/>
     <use xlink:href="#CMSS17-1c" transform="translate(50.687105 0) scale(0.996264)"/>
     <use xlink:href="#CMSS17-73" transform="translate(97.530729 0) scale(0.996264)"/>
     <use xlink:href="#CMSS17-6e" transform="translate(133.444271 0) scale(0.996264)"/>
     <use xlink:href="#CMSS17-69" transform="translate(181.649214 0) scale(0.996264)"/>
     <use xlink:href="#CMSS17-6e" transform="translate(203.829937 0) scale(0.996264)"/>
     <use xlink:href="#CMSS17-67" transform="translate(252.03488 0) scale(0.996264)"/>
     <use xlink:href="#CMSS17-73" transform="translate(298.878504 0) scale(0.996264)"/>
     <use xlink:href="#CMSS17-6d" transform="translate(334.792046 0) scale(0.996264)"/>
     <use xlink:href="#CMSS17-65" transform="translate(409.0213 0) scale(0.996264)"/>
     <use xlink:href="#CMSS17-6e" transform="translate(450.660122 0) scale(0.996264)"/>
     <use xlink:href="#CMSS17-67" transform="translate(498.865065 0) scale(0.996264)"/>
     <use xlink:href="#CMSS17-64" transform="translate(545.708689 0) scale(0.996264)"/>
     <use xlink:href="#CMSS17-65" transform="translate(593.913632 0) scale(0.996264)"/>
    </g>
   </g>
   <g id="patch_10">
    <path d="M 87.93339 189.25681 
Q 57.883216 169.002191 29.687241 149.997351 
" style="fill: none; opacity: 0.7; stroke: #000000; stroke-width: 2; stroke-linecap: round"/>
    <path d="M 33.205728 156.227941 
L 29.687241 149.997351 
L 36.782805 150.920915 
" style="fill: none; opacity: 0.7; stroke: #000000; stroke-width: 2; stroke-linecap: round"/>
   </g>
   <g id="text_6">
    <!-- Løsningsmengde -->
    <g transform="translate(50.20783 203.444416) scale(0.16 -0.16)">
     <use xlink:href="#CMSS17-4c" transform="scale(0.996264)"/>
     <use xlink:href="#CMSS17-1c" transform="translate(50.687105 0) scale(0.996264)"/>
     <use xlink:href="#CMSS17-73" transform="translate(97.530729 0) scale(0.996264)"/>
     <use xlink:href="#CMSS17-6e" transform="translate(133.444271 0) scale(0.996264)"/>
     <use xlink:href="#CMSS17-69" transform="translate(181.649214 0) scale(0.996264)"/>
     <use xlink:href="#CMSS17-6e" transform="translate(203.829937 0) scale(0.996264)"/>
     <use xlink:href="#CMSS17-67" transform="translate(252.03488 0) scale(0.996264)"/>
     <use xlink:href="#CMSS17-73" transform="translate(298.878504 0) scale(0.996264)"/>
     <use xlink:href="#CMSS17-6d" transform="translate(334.792046 0) scale(0.996264)"/>
     <use xlink:href="#CMSS17-65" transform="translate(409.0213 0) scale(0.996264)"/>
     <use xlink:href="#CMSS17-6e" transform="translate(450.660122 0) scale(0.996264)"/>
     <use xlink:href="#CMSS17-67" transform="translate(498.865065 0) scale(0.996264)"/>
     <use xlink:href="#CMSS17-64" transform="translate(545.708689 0) scale(0.996264)"/>
     <use xlink:href="#CMSS17-65" transform="translate(593.913632 0) scale(0.996264)"/>
    </g>
   </g>
  </g>
  <g id="axes_2">
   <g id="patch_11">
    <path d="M 398.632984 277.2 
L 706.2 277.2 
L 706.2 18.064532 
L 398.632984 18.064532 
L 398.632984 277.2 
z
" style="fill: none"/>
   </g>
   <g id="matplotlib.axis_3">
    <g id="text_7">
     <!-- $x$ -->
     <g transform="translate(697.33055 162.701854) scale(0.16 -0.16)">
      <use xlink:href="#CMMI12-78" transform="scale(0.996264)"/>
     </g>
    </g>
   </g>
   <g id="matplotlib.axis_4">
    <g id="text_8">
     <!-- $y$ -->
     <g transform="translate(510.04952 14.965056) scale(0.16 -0.16)">
      <use xlink:href="#CMMI12-79" transform="scale(0.996264)"/>
     </g>
    </g>
   </g>
   <g id="line2d_7">
    <path d="M 446.141007 289 
L 706.620913 69.536993 
L 706.620913 69.536993 
" clip-path="url(#p48dafbe269)" style="fill: none; stroke: #0072b2; stroke-opacity: 0.9; stroke-width: 2.5; stroke-linecap: square"/>
   </g>
   <g id="line2d_8">
    <path d="M 448.832573 -1 
L 620.932585 289 
L 620.932585 289 
" clip-path="url(#p48dafbe269)" style="fill: none; stroke: #dc5e8b; stroke-width: 2.5; stroke-linecap: square"/>
   </g>
   <g id="line2d_9">
    <g clip-path="url(#p48dafbe269)">
     <use xlink:href="#m676ccddb97" x="562.668726" y="190.821511" style="fill-opacity: 0.7; stroke: #000000; stroke-opacity: 0.7"/>
    </g>
   </g>
   <g id="line2d_10">
    <g clip-path="url(#p48dafbe269)">
     <use xlink:href="#mf3b31f117c" x="562.668726" y="147.632266" style="fill-opacity: 0.7; stroke: #000000; stroke-opacity: 0.7"/>
    </g>
   </g>
   <g id="line2d_11">
    <g>
     <use xlink:href="#md8bfdf35a8" x="706.2" y="147.632266" style="stroke: #000000; stroke-linejoin: miter"/>
    </g>
   </g>
   <g id="line2d_12">
    <g>
     <use xlink:href="#m07ccb53f9c" x="521.65979" y="18.064532" style="stroke: #000000; stroke-linejoin: miter"/>
    </g>
   </g>
   <g id="LineCollection_3">
    <path d="M 562.668726 147.632266 
L 721 147.632266 
" clip-path="url(#p48dafbe269)" style="fill: none; stroke: #56b4e9; stroke-opacity: 0.9; stroke-width: 8"/>
   </g>
   <g id="LineCollection_4">
    <path d="M 562.668726 147.632266 
L 562.668726 190.821511 
" clip-path="url(#p48dafbe269)" style="fill: none; stroke-dasharray: 5.55,2.4; stroke-dashoffset: 0; stroke: #000000; stroke-opacity: 0.5; stroke-width: 1.5"/>
   </g>
   <g id="patch_12">
    <path d="M 521.65979 277.2 
L 521.65979 18.064532 
" style="fill: none; stroke: #000000; stroke-width: 0.8; stroke-linejoin: miter; stroke-linecap: square"/>
   </g>
   <g id="patch_13">
    <path d="M 706.2 277.2 
L 706.2 18.064532 
" style="fill: none"/>
   </g>
   <g id="patch_14">
    <path d="M 398.632984 147.632266 
L 706.2 147.632266 
" style="fill: none; stroke: #000000; stroke-width: 0.8; stroke-linejoin: miter; stroke-linecap: square"/>
   </g>
   <g id="patch_15">
    <path d="M 398.632984 18.064532 
L 706.2 18.064532 
" style="fill: none"/>
   </g>
   <g id="text_9">
    <g id="patch_16">
     <path d="M 535.775723 72.245593 
L 642.873344 72.245593 
Q 647.673344 72.245593 647.673344 67.445593 
L 647.673344 20.510565 
Q 647.673344 15.710565 642.873344 15.710565 
L 535.775723 15.710565 
Q 530.975723 15.710565 530.975723 20.510565 
L 530.975723 67.445593 
Q 530.975723 72.245593 535.775723 72.245593 
z
" style="fill: #ffffff; stroke: #000000; stroke-width: 2; stroke-linejoin: miter"/>
    </g>
    <!-- $ax + b &gt; cx + d$  -->
    <g transform="translate(535.904954 31.580153) scale(0.16 -0.16)">
     <defs>
      <path id="CMMI12-3e" d="M 4218 1449 
C 4339 1507 4346 1545 4346 1590 
C 4346 1628 4333 1673 4218 1725 
L 755 3322 
C 672 3360 659 3360 646 3360 
C 570 3360 525 3296 525 3245 
C 525 3168 576 3142 659 3104 
L 3949 1590 
L 653 65 
C 525 6 525 -39 525 -77 
C 525 -128 570 -192 646 -192 
C 659 -192 666 -185 755 -147 
L 4218 1449 
z
" transform="scale(0.015625)"/>
     </defs>
     <use xlink:href="#CMMI12-61" transform="scale(0.996264)"/>
     <use xlink:href="#CMMI12-78" transform="translate(51.207858 0) scale(0.996264)"/>
     <use xlink:href="#CMR17-2b" transform="translate(128.781124 0) scale(0.996264)"/>
     <use xlink:href="#CMMI12-62" transform="translate(222.63512 0) scale(0.996264)"/>
     <use xlink:href="#CMMI12-3e" transform="translate(291.785002 0) scale(0.996264)"/>
     <use xlink:href="#CMMI12-63" transform="translate(395.331107 0) scale(0.996264)"/>
     <use xlink:href="#CMMI12-78" transform="translate(437.314341 0) scale(0.996264)"/>
     <use xlink:href="#CMR17-2b" transform="translate(514.887607 0) scale(0.996264)"/>
     <use xlink:href="#CMMI12-64" transform="translate(608.741603 0) scale(0.996264)"/>
    </g>
    <!--  eller  -->
    <g transform="translate(576.064224 47.963135) scale(0.16 -0.16)">
     <use xlink:href="#CMSS17-65" transform="scale(0.996264)"/>
     <use xlink:href="#CMSS17-6c" transform="translate(41.638822 0) scale(0.996264)"/>
     <use xlink:href="#CMSS17-6c" transform="translate(63.819545 0) scale(0.996264)"/>
     <use xlink:href="#CMSS17-65" transform="translate(86.000268 0) scale(0.996264)"/>
     <use xlink:href="#CMSS17-72" transform="translate(127.63909 0) scale(0.996264)"/>
    </g>
    <!--  $ax + b \geq cx + d$ -->
    <g transform="translate(535.775723 64.346117) scale(0.16 -0.16)">
     <defs>
      <path id="CMSY10-15" d="M 4314 2084 
C 4403 2122 4442 2167 4442 2224 
C 4442 2288 4416 2327 4314 2372 
L 787 4036 
C 698 4080 672 4080 659 4080 
C 582 4080 531 4023 531 3952 
C 531 3876 582 3844 653 3812 
L 4013 2231 
L 666 650 
C 538 592 531 541 531 503 
C 531 432 589 375 659 375 
C 678 375 691 375 774 420 
L 4314 2084 
z
M 4218 -891 
C 4326 -891 4442 -891 4442 -763 
C 4442 -635 4307 -635 4211 -635 
L 762 -635 
C 666 -635 531 -635 531 -763 
C 531 -891 646 -891 755 -891 
L 4218 -891 
z
" transform="scale(0.015625)"/>
     </defs>
     <use xlink:href="#CMMI12-61" transform="scale(0.996264)"/>
     <use xlink:href="#CMMI12-78" transform="translate(51.207858 0) scale(0.996264)"/>
     <use xlink:href="#CMR17-2b" transform="translate(128.781124 0) scale(0.996264)"/>
     <use xlink:href="#CMMI12-62" transform="translate(222.63512 0) scale(0.996264)"/>
     <use xlink:href="#CMSY10-15" transform="translate(291.785002 0) scale(0.996264)"/>
     <use xlink:href="#CMMI12-63" transform="translate(396.946479 0) scale(0.996264)"/>
     <use xlink:href="#CMMI12-78" transform="translate(438.929712 0) scale(0.996264)"/>
     <use xlink:href="#CMR17-2b" transform="translate(516.502979 0) scale(0.996264)"/>
     <use xlink:href="#CMMI12-64" transform="translate(610.356974 0) scale(0.996264)"/>
    </g>
   </g>
   <g id="patch_17">
    <path d="M 628.66212 214.828397 
Q 597.885852 181.959342 568.637906 150.722535 
" style="fill: none; opacity: 0.7; stroke: #000000; stroke-width: 2; stroke-linecap: round"/>
    <path d="M 570.676336 157.581457 
L 568.637906 150.722535 
L 575.348101 153.207145 
" style="fill: none; opacity: 0.7; stroke: #000000; stroke-width: 2; stroke-linecap: round"/>
   </g>
   <g id="text_10">
    <!-- Løsningsmengde -->
    <g transform="translate(585.672981 229.357962) scale(0.16 -0.16)">
     <use xlink:href="#CMSS17-4c" transform="scale(0.996264)"/>
     <use xlink:href="#CMSS17-1c" transform="translate(50.687105 0) scale(0.996264)"/>
     <use xlink:href="#CMSS17-73" transform="translate(97.530729 0) scale(0.996264)"/>
     <use xlink:href="#CMSS17-6e" transform="translate(133.444271 0) scale(0.996264)"/>
     <use xlink:href="#CMSS17-69" transform="translate(181.649214 0) scale(0.996264)"/>
     <use xlink:href="#CMSS17-6e" transform="translate(203.829937 0) scale(0.996264)"/>
     <use xlink:href="#CMSS17-67" transform="translate(252.03488 0) scale(0.996264)"/>
     <use xlink:href="#CMSS17-73" transform="translate(298.878504 0) scale(0.996264)"/>
     <use xlink:href="#CMSS17-6d" transform="translate(334.792046 0) scale(0.996264)"/>
     <use xlink:href="#CMSS17-65" transform="translate(409.0213 0) scale(0.996264)"/>
     <use xlink:href="#CMSS17-6e" transform="translate(450.660122 0) scale(0.996264)"/>
     <use xlink:href="#CMSS17-67" transform="translate(498.865065 0) scale(0.996264)"/>
     <use xlink:href="#CMSS17-64" transform="translate(545.708689 0) scale(0.996264)"/>
     <use xlink:href="#CMSS17-65" transform="translate(593.913632 0) scale(0.996264)"/>
    </g>
   </g>
   <g id="patch_18">
    <path d="M 636.494787 214.321142 
Q 630.519947 181.959697 624.951086 151.797157 
" style="fill: none; opacity: 0.7; stroke: #000000; stroke-width: 2; stroke-linecap: round"/>
    <path d="M 622.966253 158.67178 
L 624.951086 151.797157 
L 629.259885 157.509797 
" style="fill: none; opacity: 0.7; stroke: #000000; stroke-width: 2; stroke-linecap: round"/>
   </g>
   <g id="text_11">
    <!-- Løsningsmengde -->
    <g transform="translate(585.672981 229.357962) scale(0.16 -0.16)">
     <use xlink:href="#CMSS17-4c" transform="scale(0.996264)"/>
     <use xlink:href="#CMSS17-1c" transform="translate(50.687105 0) scale(0.996264)"/>
     <use xlink:href="#CMSS17-73" transform="translate(97.530729 0) scale(0.996264)"/>
     <use xlink:href="#CMSS17-6e" transform="translate(133.444271 0) scale(0.996264)"/>
     <use xlink:href="#CMSS17-69" transform="translate(181.649214 0) scale(0.996264)"/>
     <use xlink:href="#CMSS17-6e" transform="translate(203.829937 0) scale(0.996264)"/>
     <use xlink:href="#CMSS17-67" transform="translate(252.03488 0) scale(0.996264)"/>
     <use xlink:href="#CMSS17-73" transform="translate(298.878504 0) scale(0.996264)"/>
     <use xlink:href="#CMSS17-6d" transform="translate(334.792046 0) scale(0.996264)"/>
     <use xlink:href="#CMSS17-65" transform="translate(409.0213 0) scale(0.996264)"/>
     <use xlink:href="#CMSS17-6e" transform="translate(450.660122 0) scale(0.996264)"/>
     <use xlink:href="#CMSS17-67" transform="translate(498.865065 0) scale(0.996264)"/>
     <use xlink:href="#CMSS17-64" transform="translate(545.708689 0) scale(0.996264)"/>
     <use xlink:href="#CMSS17-65" transform="translate(593.913632 0) scale(0.996264)"/>
    </g>
   </g>
   <g id="patch_19">
    <path d="M 645.762511 214.627255 
Q 667.735166 181.957793 688.459895 151.143777 
" style="fill: none; opacity: 0.7; stroke: #000000; stroke-width: 2; stroke-linecap: round"/>
    <path d="M 682.232824 154.668487 
L 688.459895 151.143777 
L 687.54342 158.24026 
" style="fill: none; opacity: 0.7; stroke: #000000; stroke-width: 2; stroke-linecap: round"/>
   </g>
   <g id="text_12">
    <!-- Løsningsmengde -->
    <g transform="translate(585.672981 229.357962) scale(0.16 -0.16)">
     <use xlink:href="#CMSS17-4c" transform="scale(0.996264)"/>
     <use xlink:href="#CMSS17-1c" transform="translate(50.687105 0) scale(0.996264)"/>
     <use xlink:href="#CMSS17-73" transform="translate(97.530729 0) scale(0.996264)"/>
     <use xlink:href="#CMSS17-6e" transform="translate(133.444271 0) scale(0.996264)"/>
     <use xlink:href="#CMSS17-69" transform="translate(181.649214 0) scale(0.996264)"/>
     <use xlink:href="#CMSS17-6e" transform="translate(203.829937 0) scale(0.996264)"/>
     <use xlink:href="#CMSS17-67" transform="translate(252.03488 0) scale(0.996264)"/>
     <use xlink:href="#CMSS17-73" transform="translate(298.878504 0) scale(0.996264)"/>
     <use xlink:href="#CMSS17-6d" transform="translate(334.792046 0) scale(0.996264)"/>
     <use xlink:href="#CMSS17-65" transform="translate(409.0213 0) scale(0.996264)"/>
     <use xlink:href="#CMSS17-6e" transform="translate(450.660122 0) scale(0.996264)"/>
     <use xlink:href="#CMSS17-67" transform="translate(498.865065 0) scale(0.996264)"/>
     <use xlink:href="#CMSS17-64" transform="translate(545.708689 0) scale(0.996264)"/>
     <use xlink:href="#CMSS17-65" transform="translate(593.913632 0) scale(0.996264)"/>
    </g>
   </g>
   <g id="legend_1">
    <g id="patch_20">
     <path d="M 334.967016 71.159925 
L 462.298952 71.159925 
Q 465.098952 71.159925 465.098952 68.359925 
L 465.098952 27.864532 
Q 465.098952 25.064532 462.298952 25.064532 
L 334.967016 25.064532 
Q 332.167016 25.064532 332.167016 27.864532 
L 332.167016 68.359925 
Q 332.167016 71.159925 334.967016 71.159925 
z
" style="fill: #ffffff; opacity: 0.7; stroke: #cccccc; stroke-linejoin: miter"/>
    </g>
    <g id="line2d_13">
     <path d="M 337.767016 36.225304 
L 351.767016 36.225304 
L 365.767016 36.225304 
" style="fill: none; stroke: #0072b2; stroke-opacity: 0.9; stroke-width: 2.5; stroke-linecap: square"/>
    </g>
    <g id="text_13">
     <!-- $f(x) = ax + b$ -->
     <g transform="translate(376.967016 41.125304) scale(0.14 -0.14)">
      <defs>
       <path id="CMMI12-66" d="M 2854 2566 
C 2982 2566 3034 2566 3034 2688 
C 3034 2752 2982 2752 2867 2752 
L 2349 2752 
C 2470 3429 2560 3897 2611 4107 
C 2650 4265 2784 4416 2950 4416 
C 3085 4416 3219 4358 3283 4298 
C 3034 4272 2957 4082 2957 3969 
C 2957 3837 3053 3759 3174 3759 
C 3302 3759 3494 3870 3494 4119 
C 3494 4393 3226 4544 2944 4544 
C 2669 4544 2400 4334 2272 4078 
C 2157 3848 2093 3611 1946 2752 
L 1517 2752 
C 1395 2752 1331 2752 1331 2637 
C 1331 2566 1370 2566 1498 2566 
L 1907 2566 
C 1792 1976 1530 542 1382 -137 
C 1274 -689 1178 -1152 858 -1152 
C 838 -1152 653 -1152 538 -1031 
C 864 -1005 864 -726 864 -720 
C 864 -593 768 -517 646 -517 
C 518 -517 326 -625 326 -867 
C 326 -1140 608 -1280 858 -1280 
C 1510 -1280 1779 -118 1850 199 
C 1965 688 2278 2376 2310 2566 
L 2854 2566 
z
" transform="scale(0.015625)"/>
       <path id="CMR17-28" d="M 1958 -1561 
C 1958 -1555 1958 -1542 1939 -1523 
C 1645 -1224 858 -407 858 1581 
C 858 3569 1632 4379 1946 4697 
C 1946 4704 1958 4717 1958 4736 
C 1958 4755 1939 4768 1914 4768 
C 1843 4768 1299 4296 986 3594 
C 666 2887 576 2199 576 1588 
C 576 1128 621 351 1005 -471 
C 1312 -1135 1837 -1600 1914 -1600 
C 1946 -1600 1958 -1587 1958 -1561 
z
" transform="scale(0.015625)"/>
       <path id="CMR17-29" d="M 1683 1581 
C 1683 2040 1638 2817 1254 3639 
C 947 4303 422 4768 346 4768 
C 326 4768 301 4761 301 4729 
C 301 4717 307 4710 314 4697 
C 621 4378 1402 3568 1402 1584 
C 1402 -407 627 -1217 314 -1537 
C 307 -1549 301 -1556 301 -1568 
C 301 -1600 326 -1600 346 -1600 
C 416 -1600 960 -1128 1274 -426 
C 1594 281 1683 969 1683 1581 
z
" transform="scale(0.015625)"/>
       <path id="CMR17-3d" d="M 4115 2017 
C 4211 2017 4307 2017 4307 2125 
C 4307 2240 4198 2240 4090 2240 
L 512 2240 
C 403 2240 294 2240 294 2125 
C 294 2017 390 2017 486 2017 
L 4115 2017 
z
M 4090 896 
C 4198 896 4307 896 4307 1011 
C 4307 1119 4211 1119 4115 1119 
L 486 1119 
C 390 1119 294 1119 294 1011 
C 294 896 403 896 512 896 
L 4090 896 
z
" transform="scale(0.015625)"/>
      </defs>
      <use xlink:href="#CMMI12-66" transform="scale(0.996264)"/>
      <use xlink:href="#CMR17-28" transform="translate(58.720305 0) scale(0.996264)"/>
      <use xlink:href="#CMMI12-78" transform="translate(94.001073 0) scale(0.996264)"/>
      <use xlink:href="#CMR17-29" transform="translate(149.435132 0) scale(0.996264)"/>
      <use xlink:href="#CMR17-3d" transform="translate(212.389909 0) scale(0.996264)"/>
      <use xlink:href="#CMMI12-61" transform="translate(311.778706 0) scale(0.996264)"/>
      <use xlink:href="#CMMI12-78" transform="translate(362.986563 0) scale(0.996264)"/>
      <use xlink:href="#CMR17-2b" transform="translate(440.55983 0) scale(0.996264)"/>
      <use xlink:href="#CMMI12-62" transform="translate(534.413825 0) scale(0.996264)"/>
     </g>
    </g>
    <g id="line2d_14">
     <path d="M 337.767016 57.173 
L 351.767016 57.173 
L 365.767016 57.173 
" style="fill: none; stroke: #dc5e8b; stroke-width: 2.5; stroke-linecap: square"/>
    </g>
    <g id="text_14">
     <!-- $g(x) = cx + d$ -->
     <g transform="translate(376.967016 62.073) scale(0.14 -0.14)">
      <defs>
       <path id="CMMI12-67" d="M 2163 811 
C 2138 709 2125 683 2042 588 
C 1779 249 1510 128 1312 128 
C 1101 128 902 294 902 734 
C 902 1073 1094 1788 1235 2076 
C 1421 2433 1709 2689 1978 2689 
C 2400 2689 2483 2165 2483 2127 
L 2464 2037 
L 2163 811 
z
M 2560 2395 
C 2477 2580 2298 2816 1978 2816 
C 1280 2816 486 1941 486 990 
C 486 326 890 0 1299 0 
C 1638 0 1939 268 2054 396 
L 1914 -171 
C 1824 -516 1786 -674 1555 -894 
C 1293 -1152 1050 -1152 909 -1152 
C 717 -1152 557 -1139 397 -1089 
C 602 -1033 653 -858 653 -789 
C 653 -689 576 -588 435 -588 
C 282 -588 115 -714 115 -922 
C 115 -1180 378 -1280 922 -1280 
C 1747 -1280 2176 -753 2259 -410 
L 2970 2435 
C 2989 2511 2989 2524 2989 2536 
C 2989 2625 2918 2695 2822 2695 
C 2669 2695 2579 2567 2560 2395 
z
" transform="scale(0.015625)"/>
      </defs>
      <use xlink:href="#CMMI12-67" transform="scale(0.996264)"/>
      <use xlink:href="#CMR17-28" transform="translate(50.285489 0) scale(0.996264)"/>
      <use xlink:href="#CMMI12-78" transform="translate(85.566257 0) scale(0.996264)"/>
      <use xlink:href="#CMR17-29" transform="translate(141.000317 0) scale(0.996264)"/>
      <use xlink:href="#CMR17-3d" transform="translate(203.955093 0) scale(0.996264)"/>
      <use xlink:href="#CMMI12-63" transform="translate(303.34389 0) scale(0.996264)"/>
      <use xlink:href="#CMMI12-78" transform="translate(345.327124 0) scale(0.996264)"/>
      <use xlink:href="#CMR17-2b" transform="translate(422.900391 0) scale(0.996264)"/>
      <use xlink:href="#CMMI12-64" transform="translate(516.754386 0) scale(0.996264)"/>
     </g>
    </g>
   </g>
  </g>
 </g>
 <defs>
  <clipPath id="p1856379d9a">
   <rect x="10.8" y="18.064532" width="307.567016" height="259.135468"/>
  </clipPath>
  <clipPath id="p48dafbe269">
   <rect x="398.632984" y="18.064532" width="307.567016" height="259.135468"/>
  </clipPath>
 </defs>
</svg>
