<svg xmlns:xlink="http://www.w3.org/1999/xlink" xmlns="http://www.w3.org/2000/svg" width="453.6pt" height="352.348552pt" viewBox="0 0 453.6 352.348552" version="1.1">
 
 <defs>
  <style type="text/css">*{stroke-linejoin: round; stroke-linecap: butt}</style>
 </defs>
 <g id="figure_1">
  <g id="patch_1">
   <path id="path_0" d="M 0 352.348552  L 453.6 352.348552  L 453.6 0  L 0 0  L 0 352.348552  z " style="fill: none; opacity: 0"/>
  </g>
  <g id="axes_1">
   <g id="patch_2">
    <path id="path_1" d="M 7.2 345.148552  L 443.4 345.148552  L 443.4 30.364867  L 7.2 30.364867  L 7.2 345.148552  z " style="fill: none; opacity: 0"/>
   </g>
   <g id="matplotlib.axis_1">
    <g id="xtick_1">
     <g id="line2d_1">
      <path id="path_2" d="M 82.216001 345.148552  L 82.216001 30.364867  " clip-path="url(#p5d318d4969)" style="fill: none; stroke-dasharray: 2.96,1.28; stroke-dashoffset: 0; stroke: #b0b0b0; stroke-opacity: 0.6; stroke-width: 0.8"/>
     </g>
     <g id="line2d_2">
      <defs>
       <path id="m4197a0e809" d="M 0 0  L 0 3.5  " style="stroke: #000000; stroke-width: 0.8"/>
      </defs>
      <g id="g_0">
       <use id="use_0" xlink:href="#m4197a0e809" x="82.216001" y="187.756709" style="stroke: #000000; stroke-width: 0.8"/>
      </g>
     </g>
     <g id="text_1">
      <!-- $\mathdefault{−1}$ -->
      <g id="g_1" transform="translate(69.898209 208.593706) scale(0.2 -0.2)">
       <defs>
        <path id="CMSY10-0" d="M 4218 1472  C 4326 1472 4442 1472 4442 1600  C 4442 1728 4326 1728 4218 1728  L 755 1728  C 646 1728 531 1728 531 1600  C 531 1472 646 1472 755 1472  L 4218 1472  z " transform="scale(0.015625)"/>
        <path id="CMR17-31" d="M 1702 4058  C 1702 4192 1696 4192 1606 4192  C 1357 3916 979 3827 621 3827  C 602 3827 570 3827 563 3808  C 557 3795 557 3782 557 3648  C 755 3648 1088 3686 1344 3839  L 1344 461  C 1344 236 1331 160 781 160  L 589 160  L 589 0  C 896 0 1216 0 1523 0  C 1830 0 2150 0 2458 0  L 2458 160  L 2266 160  C 1715 160 1702 230 1702 458  L 1702 4058  z " transform="scale(0.015625)"/>
       </defs>
       <use id="use_1" xlink:href="#CMSY10-0" transform="scale(0.996264)"/>
       <use id="use_2" xlink:href="#CMR17-31" transform="translate(77.487468 0) scale(0.996264)"/>
      </g>
     </g>
    </g>
    <g id="xtick_2">
     <g id="line2d_3">
      <path id="path_3" d="M 368.383324 345.148552  L 368.383324 30.364867  " clip-path="url(#p5d318d4969)" style="fill: none; stroke-dasharray: 2.96,1.28; stroke-dashoffset: 0; stroke: #b0b0b0; stroke-opacity: 0.6; stroke-width: 0.8"/>
     </g>
     <g id="line2d_4">
      <g id="g_2">
       <use id="use_3" xlink:href="#m4197a0e809" x="368.383324" y="187.756709" style="stroke: #000000; stroke-width: 0.8"/>
      </g>
     </g>
     <g id="text_2">
      <!-- $\mathdefault{1}$ -->
      <g id="g_3" transform="translate(363.814277 208.593706) scale(0.2 -0.2)">
       <use id="use_4" xlink:href="#CMR17-31" transform="scale(0.996264)"/>
      </g>
     </g>
    </g>
    <g id="text_3">
     <!-- $x$ -->
     <g id="g_4" transform="translate(432.313188 230.306336) scale(0.2 -0.2)">
      <defs>
       <path id="CMMI12-78" d="M 3034 2606  C 2829 2567 2752 2414 2752 2293  C 2752 2139 2874 2088 2963 2088  C 3155 2088 3290 2254 3290 2427  C 3290 2695 2982 2816 2714 2816  C 2323 2816 2106 2433 2048 2312  C 1901 2816 1504 2816 1389 2816  C 736 2816 390 1980 390 1839  C 390 1814 416 1782 461 1782  C 512 1782 525 1820 538 1846  C 755 2555 1184 2689 1370 2689  C 1658 2689 1715 2420 1715 2267  C 1715 2127 1677 1980 1600 1673  L 1382 798  C 1286 415 1101 64 762 64  C 730 64 570 64 435 147  C 666 192 717 383 717 460  C 717 588 621 664 499 664  C 346 664 179 530 179 326  C 179 57 480 -64 755 -64  C 1062 -64 1280 179 1414 441  C 1517 64 1837 -64 2074 -64  C 2726 -64 3072 773 3072 913  C 3072 945 3046 971 3008 971  C 2950 971 2944 939 2925 888  C 2752 326 2381 64 2093 64  C 1869 64 1747 230 1747 492  C 1747 632 1773 734 1875 1156  L 2099 2024  C 2195 2408 2413 2689 2707 2689  C 2720 2689 2899 2689 3034 2606  z " transform="scale(0.015625)"/>
      </defs>
      <use id="use_5" xlink:href="#CMMI12-78" transform="scale(0.996264)"/>
     </g>
    </g>
   </g>
   <g id="matplotlib.axis_2">
    <g id="ytick_1">
     <g id="line2d_5">
      <path id="path_4" d="M 7.2 330.840371  L 443.4 330.840371  " clip-path="url(#p5d318d4969)" style="fill: none; stroke-dasharray: 2.96,1.28; stroke-dashoffset: 0; stroke: #b0b0b0; stroke-opacity: 0.6; stroke-width: 0.8"/>
     </g>
     <g id="line2d_6">
      <defs>
       <path id="m55dfabc3b0" d="M 0 0  L -3.5 0  " style="stroke: #000000; stroke-width: 0.8"/>
      </defs>
      <g id="g_5">
       <use id="use_6" xlink:href="#m55dfabc3b0" x="225.299663" y="330.840371" style="stroke: #000000; stroke-width: 0.8"/>
      </g>
     </g>
     <g id="text_4">
      <!-- $\mathdefault{−1}$ -->
      <g id="g_6" transform="translate(193.66408 337.758869) scale(0.2 -0.2)">
       <use id="use_7" xlink:href="#CMSY10-0" transform="scale(0.996264)"/>
       <use id="use_8" xlink:href="#CMR17-31" transform="translate(77.487468 0) scale(0.996264)"/>
      </g>
     </g>
    </g>
    <g id="ytick_2">
     <g id="line2d_7">
      <path id="path_5" d="M 7.2 44.673048  L 443.4 44.673048  " clip-path="url(#p5d318d4969)" style="fill: none; stroke-dasharray: 2.96,1.28; stroke-dashoffset: 0; stroke: #b0b0b0; stroke-opacity: 0.6; stroke-width: 0.8"/>
     </g>
     <g id="line2d_8">
      <g id="g_7">
       <use id="use_9" xlink:href="#m55dfabc3b0" x="225.299663" y="44.673048" style="stroke: #000000; stroke-width: 0.8"/>
      </g>
     </g>
     <g id="text_5">
      <!-- $\mathdefault{1}$ -->
      <g id="g_8" transform="translate(209.161567 51.591546) scale(0.2 -0.2)">
       <use id="use_10" xlink:href="#CMR17-31" transform="scale(0.996264)"/>
      </g>
     </g>
    </g>
    <g id="text_6">
     <!-- $y$ -->
     <g id="g_9" transform="translate(180.151245 26.489233) scale(0.2 -0.2)">
      <defs>
       <path id="CMMI12-79" d="M 1683 -700  C 1510 -939 1261 -1152 947 -1152  C 870 -1152 563 -1152 467 -889  C 486 -895 518 -895 531 -895  C 723 -895 851 -729 851 -582  C 851 -435 730 -384 634 -384  C 531 -384 307 -458 307 -759  C 307 -1071 582 -1286 947 -1286  C 1587 -1286 2234 -700 2413 6  L 3040 2485  C 3046 2517 3059 2556 3059 2594  C 3059 2689 2982 2753 2886 2753  C 2829 2753 2694 2727 2643 2535  L 2170 658  C 2138 543 2138 530 2086 460  C 1958 281 1747 64 1440 64  C 1082 64 1050 415 1050 588  C 1050 952 1222 1443 1395 1903  C 1466 2088 1504 2178 1504 2305  C 1504 2574 1312 2816 998 2816  C 410 2816 173 1890 173 1839  C 173 1814 198 1782 243 1782  C 301 1782 307 1807 333 1897  C 486 2433 730 2689 979 2689  C 1037 2689 1146 2689 1146 2478  C 1146 2312 1075 2127 979 1884  C 666 1047 666 837 666 683  C 666 77 1101 -64 1421 -64  C 1606 -64 1837 -6 2061 230  L 2067 224  C 1971 -147 1907 -392 1683 -700  z " transform="scale(0.015625)"/>
      </defs>
      <use id="use_11" xlink:href="#CMMI12-79" transform="scale(0.996264)"/>
     </g>
    </g>
   </g>
   <g id="line2d_9">
    <defs>
     <path id="mc5bcfd077a" d="M 3 0  L -3 -3  L -3 3  z " style="stroke: #000000; stroke-linejoin: miter"/>
    </defs>
    <g id="g_10">
     <use id="use_12" xlink:href="#mc5bcfd077a" x="443.4" y="187.756709" style="stroke: #000000; stroke-linejoin: miter"/>
    </g>
   </g>
   <g id="line2d_10">
    <defs>
     <path id="m55147cb1cb" d="M 0 -3  L -3 3  L 3 3  z " style="stroke: #000000; stroke-linejoin: miter"/>
    </defs>
    <g id="g_11">
     <use id="use_13" xlink:href="#m55147cb1cb" x="225.299663" y="30.364867" style="stroke: #000000; stroke-linejoin: miter"/>
    </g>
   </g>
   <g id="line2d_11">
    <defs>
     <path id="m6d66efb181" d="M 0 5  C 1.326016 5 2.597899 4.473168 3.535534 3.535534  C 4.473168 2.597899 5 1.326016 5 0  C 5 -1.326016 4.473168 -2.597899 3.535534 -3.535534  C 2.597899 -4.473168 1.326016 -5 0 -5  C -1.326016 -5 -2.597899 -4.473168 -3.535534 -3.535534  C -4.473168 -2.597899 -5 -1.326016 -5 0  C -5 1.326016 -4.473168 2.597899 -3.535534 3.535534  C -2.597899 4.473168 -1.326016 5 0 5  z " style="stroke: #000000; stroke-opacity: 0.8"/>
    </defs>
    <g id="g_12" clip-path="url(#p5d318d4969)">
     <use id="use_14" xlink:href="#m6d66efb181" x="368.383324" y="187.756709" style="fill-opacity: 0.8; stroke: #000000; stroke-opacity: 0.8"/>
    </g>
   </g>
   <g id="line2d_12">
    <path id="path_6" d="M 368.383324 187.756709  L 368.286179 182.485051  L 367.994875 177.220552  L 367.509808 171.970359  L 366.831636 166.741602  L 365.961281 161.541381  L 364.899924 156.376757  L 363.649006 151.254744  L 362.210226 146.182296  L 360.585538 141.166301  L 358.777148 136.213571  L 356.787511 131.33083  L 354.61933 126.524708  L 352.275547 121.801732  L 349.759347 117.168316  L 347.074145 112.63075  L 344.223587 108.195196  L 341.211545 103.867677  L 338.042109 99.65407  L 334.719581 95.560095  L 331.248475 91.591313  L 327.633502 87.753111  L 323.879572 84.050703  L 319.991783 80.489116  L 315.975412 77.073184  L 311.835915 73.807548  L 307.578912 70.696642  L 303.210183 67.744689  L 298.735662 64.955698  L 294.161422 62.333457  L 289.493677 59.881525  L 284.738764 57.603233  L 279.903139 55.501673  L 274.99337 53.5797  L 270.016122 51.839924  L 264.978155 50.284707  L 259.886309 48.91616  L 254.747499 47.736142  L 249.568701 46.746256  L 244.35695 45.947845  L 239.119321 45.341993  L 233.862926 44.929524  L 228.594903 44.710998  L 223.322406 44.68671  L 218.052594 44.856694  L 212.792623 45.22072  L 207.549634 45.778293  L 202.330748 46.528655  L 197.143051 47.470789  L 191.993587 48.603414  L 186.889349 49.924993  L 181.837268 51.433731  L 176.844204 53.127579  L 171.916936 55.004238  L 167.062156 57.061158  L 162.286455 59.295548  L 157.596319 61.704373  L 152.998115 64.284362  L 148.498089 67.032012  L 144.10235 69.943591  L 139.816868 73.015147  L 135.647461 76.242509  L 131.599791 79.621293  L 127.679354 83.146912  L 123.891474 86.814579  L 120.241295 90.619314  L 116.733772 94.555949  L 113.373669 98.61914  L 110.165548 102.80337  L 107.113765 107.102956  L 104.222465 111.51206  L 101.495574 116.024695  L 98.936793 120.634734  L 96.549599 125.335917  L 94.337232 130.121859  L 92.302696 134.986063  L 90.448754 139.921923  L 88.777924 144.922737  L 87.292474 149.981715  L 85.994422 155.091987  L 84.885529 160.246613  L 83.967302 165.438595  L 83.240988 170.660882  L 82.707573 175.906383  L 82.367781 181.167976  L 82.222073 186.438515  L 82.270648 191.710844  L 82.513439 196.977804  L 82.950117 202.232243  L 83.580089 207.467026  L 84.402499 212.675045  L 85.41623 217.849227  L 86.619907 222.982547  L 88.011895 228.068035  L 89.590302 233.098785  L 91.352988 238.067966  L 93.297556 242.96883  L 95.421369 247.794722  L 97.72154 252.53909  L 100.194947 257.195491  L 102.838232 261.757603  L 105.647805 266.21923  L 108.61985 270.574314  L 111.750333 274.816942  L 115.035003 278.941352  L 118.469399 282.941945  L 122.048858 286.813287  L 125.768519 290.550122  L 129.623332 294.147376  L 133.608061 297.600164  L 137.717297 300.903797  L 141.94546 304.053791  L 146.286807 307.045866  L 150.735445 309.875961  L 155.285332 312.540233  L 159.93029 315.035063  L 164.664012 317.357065  L 169.48007 319.503085  L 174.371925 321.470208  L 179.332933 323.255765  L 184.356359 324.85733  L 189.435381 326.272728  L 194.563102 327.500039  L 199.73256 328.537594  L 204.936734 329.383986  L 210.16856 330.038064  L 215.420931 330.498942  L 220.686717 330.765992  L 225.958767 330.838853  L 231.229921 330.717425  L 236.493023 330.401874  L 241.740926 329.892627  L 246.966504 329.190377  L 252.16266 328.296076  L 257.32234 327.21094  L 262.438536 325.936441  L 267.504303 324.474311  L 272.512761 322.826534  L 277.457108 320.995349  L 282.330633 318.983241  L 287.126716 316.792944  L 291.838845 314.42743  L 296.460622 311.889913  L 300.98577 309.183837  L 305.408146 306.312878  L 309.721744 303.280934  L 313.920707 300.092121  L 317.999333 296.75077  L 321.952084 293.261419  L 325.773593 289.628804  L 329.458669 285.857859  L 333.00231 281.953705  L 336.399704 277.921642  L 339.646237 273.767146  L 342.737501 269.495857  L 345.669299 265.113577  L 348.437648 260.626256  L 351.038791 256.039986  L 353.469195 251.360995  L 355.72556 246.595638  L 357.804822 241.750384  L 359.704158 236.831813  L 361.420989 231.846604  L 362.952983 226.801526  L 364.29806 221.70343  L 365.454393 216.559239  L 366.420414 211.375937  L 367.194809 206.160562  L 367.776527 200.920198  L 368.164778 195.661959  L 368.359036 190.392986  L 368.383324 187.756709  L 368.383324 187.756709  " clip-path="url(#p5d318d4969)" style="fill: none; stroke: #0072b2; stroke-width: 2.5; stroke-linecap: square"/>
   </g>
   <g id="line2d_13">
    <path id="path_7" d="M 268.224761 187.756709  L 268.224761 187.756709  " clip-path="url(#p5d318d4969)" style="fill: none; stroke: #dc5e8b; stroke-linecap: square"/>
   </g>
   <g id="line2d_14">
    <path id="path_8" d="M 225.299663 187.756709  L 368.383324 187.756709  " clip-path="url(#p5d318d4969)" style="fill: none; stroke: #dc5e8b; stroke-width: 2.5; stroke-linecap: square"/>
   </g>
   <g id="patch_3">
    <path id="path_9" d="M 225.299663 345.148552  L 225.299663 30.364867  " style="fill: none; stroke: #000000; stroke-width: 0.8; stroke-linejoin: miter; stroke-linecap: square"/>
   </g>
   <g id="patch_4">
    <path id="path_10" d="M 443.4 345.148552  L 443.4 30.364867  " style="fill: none"/>
   </g>
   <g id="patch_5">
    <path id="path_11" d="M 7.2 187.756709  L 443.4 187.756709  " style="fill: none; stroke: #000000; stroke-width: 0.8; stroke-linejoin: miter; stroke-linecap: square"/>
   </g>
   <g id="patch_6">
    <path id="path_12" d="M 7.2 30.364867  L 443.4 30.364867  " style="fill: none"/>
   </g>
   <g id="text_7">
    <!-- v = 0$^\circ$ -->
    <g id="g_13" transform="translate(370.996154 21.036997) scale(0.2 -0.2)">
     <defs>
      <path id="CMSS17-76" d="M 2675 2752  L 2176 2752  L 1747 1556  C 1613 1165 1421 627 1389 352  L 1382 352  C 1370 468 1318 634 1286 749  C 1248 890 1197 1056 1158 1172  L 595 2752  L 83 2752  L 1094 0  L 1664 0  L 2675 2752  z " transform="scale(0.015625)"/>
      <path id="CMSS17-3d" d="M 4147 2017  C 4243 2017 4339 2017 4339 2125  C 4339 2240 4230 2240 4122 2240  L 550 2240  C 442 2240 333 2240 333 2125  C 333 2017 429 2017 525 2017  L 4147 2017  z M 4122 896  C 4230 896 4339 896 4339 1011  C 4339 1119 4243 1119 4147 1119  L 525 1119  C 429 1119 333 1119 333 1011  C 333 896 442 896 550 896  L 4122 896  z " transform="scale(0.015625)"/>
      <path id="CMSS17-30" d="M 2758 2044  C 2758 2405 2752 3077 2490 3596  C 2227 4096 1805 4229 1504 4229  C 1069 4229 698 3975 506 3570  C 301 3146 243 2709 243 2044  C 243 1589 262 1031 493 543  C 755 5 1197 -128 1498 -128  C 1894 -128 2278 81 2496 518  C 2720 974 2758 1474 2758 2044  z M 1498 261  C 1011 261 864 811 819 995  C 742 1310 730 1614 730 2114  C 730 2506 730 2948 851 3297  C 998 3701 1254 3840 1498 3840  C 1971 3840 2125 3372 2176 3208  C 2272 2873 2272 2481 2272 2114  C 2272 1526 2272 261 1498 261  z " transform="scale(0.015625)"/>
      <path id="CMSY10-e" d="M 2842 1600  C 2842 2277 2272 2828 1600 2828  C 909 2828 352 2264 352 1600  C 352 930 909 372 1600 372  C 2272 372 2842 923 2842 1600  z M 1600 628  C 1043 628 608 1070 608 1600  C 608 2130 1050 2572 1600 2572  C 2131 2572 2586 2142 2586 1600  C 2586 1058 2131 628 1600 628  z " transform="scale(0.015625)"/>
     </defs>
     <use id="use_15" xlink:href="#CMSS17-76" transform="scale(0.996264)"/>
     <use id="use_16" xlink:href="#CMSS17-3d" transform="translate(74.229254 0) scale(0.996264)"/>
     <use id="use_17" xlink:href="#CMSS17-30" transform="translate(178.326302 0) scale(0.996264)"/>
     <use id="use_18" xlink:href="#CMSY10-e" transform="translate(225.169926 36.153639) scale(0.697382)"/>
    </g>
   </g>
   <g id="text_8">
    <!-- (1.00, 0.00) -->
    <g id="g_14" transform="translate(275.737126 168.483699) scale(0.2 -0.2)">
     <defs>
      <path id="CMSS17-28" d="M 1613 4768  C 1267 4417 474 3601 474 1588  C 474 -433 1267 -1243 1613 -1600  L 2003 -1600  C 1216 -784 960 357 960 1581  C 960 2798 1203 3946 2003 4768  L 1613 4768  z " transform="scale(0.015625)"/>
      <path id="CMSS17-31" d="M 1818 4288  L 1696 4288  C 1350 3940 947 3890 538 3890  L 538 3520  C 723 3520 1024 3520 1325 3667  L 1325 369  L 570 369  L 570 0  L 2573 0  L 2573 369  L 1818 369  L 1818 4288  z " transform="scale(0.015625)"/>
      <path id="CMSS17-2e" d="M 1088 510  L 576 510  L 576 0  L 1088 0  L 1088 510  z " transform="scale(0.015625)"/>
      <path id="CMSS17-2c" d="M 1088 6  L 1088 510  L 576 510  L 576 0  L 736 0  L 570 -800  L 826 -800  L 1088 6  z " transform="scale(0.015625)"/>
      <path id="CMSS17-29" d="M 723 -1600  C 1069 -1249 1862 -433 1862 1581  C 1862 3601 1069 4411 723 4768  L 333 4768  C 1120 3952 1376 2811 1376 1588  C 1376 370 1133 -778 333 -1600  L 723 -1600  z " transform="scale(0.015625)"/>
     </defs>
     <use id="use_19" xlink:href="#CMSS17-28" transform="scale(0.996264)"/>
     <use id="use_20" xlink:href="#CMSS17-31" transform="translate(36.433914 0) scale(0.996264)"/>
     <use id="use_21" xlink:href="#CMSS17-2e" transform="translate(83.277538 0) scale(0.996264)"/>
     <use id="use_22" xlink:href="#CMSS17-30" transform="translate(109.301743 0) scale(0.996264)"/>
     <use id="use_23" xlink:href="#CMSS17-30" transform="translate(156.145366 0) scale(0.996264)"/>
     <use id="use_24" xlink:href="#CMSS17-2c" transform="translate(202.98899 0) scale(0.996264)"/>
     <use id="use_25" xlink:href="#CMSS17-30" transform="translate(260.242307 0) scale(0.996264)"/>
     <use id="use_26" xlink:href="#CMSS17-2e" transform="translate(307.085931 0) scale(0.996264)"/>
     <use id="use_27" xlink:href="#CMSS17-30" transform="translate(333.110136 0) scale(0.996264)"/>
     <use id="use_28" xlink:href="#CMSS17-30" transform="translate(379.953759 0) scale(0.996264)"/>
     <use id="use_29" xlink:href="#CMSS17-29" transform="translate(426.797383 0) scale(0.996264)"/>
    </g>
   </g>
  </g>
 </g>
 <defs>
  <clipPath id="p5d318d4969">
   <rect id="rect_0" x="7.2" y="30.364867" width="436.2" height="314.783685"/>
  </clipPath>
 </defs>
</svg>