<?xml version="1.0" encoding="utf-8" standalone="no"?>
<!DOCTYPE svg PUBLIC "-//W3C//DTD SVG 1.1//EN"
  "http://www.w3.org/Graphics/SVG/1.1/DTD/svg11.dtd">
<svg xmlns:xlink="http://www.w3.org/1999/xlink" width="460.8pt" height="345.6pt" viewBox="0 0 460.8 345.6" xmlns="http://www.w3.org/2000/svg" version="1.1">
 <metadata>
  <rdf:RDF xmlns:dc="http://purl.org/dc/elements/1.1/" xmlns:cc="http://creativecommons.org/ns#" xmlns:rdf="http://www.w3.org/1999/02/22-rdf-syntax-ns#">
   <cc:Work>
    <dc:type rdf:resource="http://purl.org/dc/dcmitype/StillImage"/>
    <dc:date>2025-04-19T02:41:25.646447</dc:date>
    <dc:format>image/svg+xml</dc:format>
    <dc:creator>
     <cc:Agent>
      <dc:title>Matplotlib v3.9.1, https://matplotlib.org/</dc:title>
     </cc:Agent>
    </dc:creator>
   </cc:Work>
  </rdf:RDF>
 </metadata>
 <defs>
  <style type="text/css">*{stroke-linejoin: round; stroke-linecap: butt}</style>
 </defs>
 <g id="figure_1">
  <g id="patch_1">
   <path d="M 0 345.6 
L 460.8 345.6 
L 460.8 0 
L 0 0 
L 0 345.6 
z
" style="fill: none"/>
  </g>
  <g id="axes_1">
   <g id="patch_2">
    <path d="M 44.133639 334.8 
L 437.838245 334.8 
L 437.838245 19.836315 
L 44.133639 19.836315 
L 44.133639 334.8 
z
" style="fill: none"/>
   </g>
   <g id="matplotlib.axis_1">
    <g id="text_1">
     <!-- $x$ -->
     <g transform="translate(426.751433 195.155154) scale(0.2 -0.2)">
      <defs>
       <path id="CMMI12-78" d="M 3034 2606 
C 2829 2567 2752 2414 2752 2293 
C 2752 2139 2874 2088 2963 2088 
C 3155 2088 3290 2254 3290 2427 
C 3290 2695 2982 2816 2714 2816 
C 2323 2816 2106 2433 2048 2312 
C 1901 2816 1504 2816 1389 2816 
C 736 2816 390 1980 390 1839 
C 390 1814 416 1782 461 1782 
C 512 1782 525 1820 538 1846 
C 755 2555 1184 2689 1370 2689 
C 1658 2689 1715 2420 1715 2267 
C 1715 2127 1677 1980 1600 1673 
L 1382 798 
C 1286 415 1101 64 762 64 
C 730 64 570 64 435 147 
C 666 192 717 383 717 460 
C 717 588 621 664 499 664 
C 346 664 179 530 179 326 
C 179 57 480 -64 755 -64 
C 1062 -64 1280 179 1414 441 
C 1517 64 1837 -64 2074 -64 
C 2726 -64 3072 773 3072 913 
C 3072 945 3046 971 3008 971 
C 2950 971 2944 939 2925 888 
C 2752 326 2381 64 2093 64 
C 1869 64 1747 230 1747 492 
C 1747 632 1773 734 1875 1156 
L 2099 2024 
C 2195 2408 2413 2689 2707 2689 
C 2720 2689 2899 2689 3034 2606 
z
" transform="scale(0.015625)"/>
      </defs>
      <use xlink:href="#CMMI12-78" transform="scale(0.996264)"/>
     </g>
    </g>
   </g>
   <g id="matplotlib.axis_2">
    <g id="text_2">
     <!-- $y$ -->
     <g transform="translate(227.473108 15.960682) scale(0.2 -0.2)">
      <defs>
       <path id="CMMI12-79" d="M 1683 -700 
C 1510 -939 1261 -1152 947 -1152 
C 870 -1152 563 -1152 467 -889 
C 486 -895 518 -895 531 -895 
C 723 -895 851 -729 851 -582 
C 851 -435 730 -384 634 -384 
C 531 -384 307 -458 307 -759 
C 307 -1071 582 -1286 947 -1286 
C 1587 -1286 2234 -700 2413 6 
L 3040 2485 
C 3046 2517 3059 2556 3059 2594 
C 3059 2689 2982 2753 2886 2753 
C 2829 2753 2694 2727 2643 2535 
L 2170 658 
C 2138 543 2138 530 2086 460 
C 1958 281 1747 64 1440 64 
C 1082 64 1050 415 1050 588 
C 1050 952 1222 1443 1395 1903 
C 1466 2088 1504 2178 1504 2305 
C 1504 2574 1312 2816 998 2816 
C 410 2816 173 1890 173 1839 
C 173 1814 198 1782 243 1782 
C 301 1782 307 1807 333 1897 
C 486 2433 730 2689 979 2689 
C 1037 2689 1146 2689 1146 2478 
C 1146 2312 1075 2127 979 1884 
C 666 1047 666 837 666 683 
C 666 77 1101 -64 1421 -64 
C 1606 -64 1837 -6 2061 230 
L 2067 224 
C 1971 -147 1907 -392 1683 -700 
z
" transform="scale(0.015625)"/>
      </defs>
      <use xlink:href="#CMMI12-79" transform="scale(0.996264)"/>
     </g>
    </g>
   </g>
   <g id="line2d_1">
    <defs>
     <path id="m047da4e6b8" d="M 3 0 
L -3 -3 
L -3 3 
z
" style="stroke: #000000; stroke-linejoin: miter"/>
    </defs>
    <g>
     <use xlink:href="#m047da4e6b8" x="437.838245" y="177.318158" style="stroke: #000000; stroke-linejoin: miter"/>
    </g>
   </g>
   <g id="line2d_2">
    <defs>
     <path id="me0677147c8" d="M 0 -3 
L -3 3 
L 3 3 
z
" style="stroke: #000000; stroke-linejoin: miter"/>
    </defs>
    <g>
     <use xlink:href="#me0677147c8" x="240.985942" y="19.836315" style="stroke: #000000; stroke-linejoin: miter"/>
    </g>
   </g>
   <g id="line2d_3">
    <path d="M 372.220811 177.318158 
L 372.09954 171.677656 
L 371.735951 166.047579 
L 371.130717 160.438332 
L 370.284955 154.860281 
L 369.200228 149.323736 
L 367.878543 143.838929 
L 366.32234 138.415997 
L 364.534497 133.064961 
L 362.518317 127.795712 
L 360.277527 122.617989 
L 357.816269 117.541359 
L 355.139089 112.575206 
L 352.250938 107.728708 
L 349.157152 103.010822 
L 345.863449 98.430267 
L 342.375917 93.995508 
L 338.701 89.714743 
L 334.845491 85.595882 
L 330.816516 81.646538 
L 326.62152 77.874009 
L 322.268256 74.285269 
L 317.764771 70.886949 
L 313.119386 67.685329 
L 308.340688 64.686328 
L 303.437508 61.895488 
L 298.418908 59.317966 
L 293.294164 56.958527 
L 288.072745 54.82153 
L 282.764304 52.910926 
L 277.378649 51.230245 
L 271.925735 49.782594 
L 266.41564 48.570648 
L 260.858547 47.596647 
L 255.264726 46.862391 
L 249.644516 46.369237 
L 244.008303 46.118096 
L 238.366505 46.109433 
L 232.729548 46.343264 
L 227.10785 46.819156 
L 221.511801 47.536231 
L 215.951742 48.493162 
L 210.437951 49.688181 
L 204.980618 51.119079 
L 199.589827 52.783213 
L 194.275543 54.677506 
L 189.047587 56.798458 
L 183.91562 59.142149 
L 178.889129 61.704246 
L 173.977401 64.480016 
L 169.189516 67.464328 
L 164.534321 70.651666 
L 160.020421 74.03614 
L 155.656157 77.611495 
L 151.449596 81.371123 
L 147.408511 85.308076 
L 143.540371 89.415078 
L 139.852326 93.684537 
L 136.351191 98.108564 
L 133.043437 102.678983 
L 129.935177 107.387346 
L 127.032156 112.224952 
L 124.339739 117.18286 
L 121.862902 122.251907 
L 119.606222 127.422725 
L 117.57387 132.685758 
L 115.769602 138.031277 
L 114.196754 143.449405 
L 112.858231 148.930128 
L 111.756507 154.463316 
L 110.893619 160.038743 
L 110.271161 165.646105 
L 109.890285 171.275039 
L 109.751692 176.915141 
L 109.855641 182.555988 
L 110.201939 188.187155 
L 110.789945 193.798235 
L 111.618573 199.378856 
L 112.686291 204.918707 
L 113.991127 210.407547 
L 115.530669 215.835233 
L 117.302071 221.191733 
L 119.302059 226.467149 
L 121.526938 231.651729 
L 123.972595 236.735893 
L 126.634511 241.710245 
L 129.507765 246.565589 
L 132.587048 251.292954 
L 135.866669 255.883602 
L 139.340566 260.32905 
L 143.002319 264.62108 
L 146.845161 268.751762 
L 150.861989 272.71346 
L 155.04538 276.498854 
L 159.387602 280.100946 
L 163.88063 283.51308 
L 168.516161 286.72895 
L 173.285627 289.742612 
L 178.180213 292.548497 
L 183.190874 295.141418 
L 188.308349 297.516585 
L 193.52318 299.669606 
L 198.825729 301.596503 
L 204.206197 303.293715 
L 209.654639 304.758105 
L 215.160987 305.986967 
L 220.715063 306.978029 
L 226.306602 307.72946 
L 231.925271 308.239871 
L 237.560686 308.508319 
L 243.202431 308.534307 
L 248.84008 308.317788 
L 254.463213 307.859162 
L 260.061438 307.159277 
L 265.624408 306.219425 
L 271.141843 305.041344 
L 276.603546 303.627211 
L 281.999421 301.97964 
L 287.319497 300.101676 
L 292.553942 297.996789 
L 297.693082 295.66887 
L 302.727418 293.12222 
L 307.647646 290.361547 
L 312.444674 287.391953 
L 317.109635 284.218926 
L 321.633907 280.848329 
L 326.00913 277.286394 
L 330.227218 273.539701 
L 334.280374 269.615177 
L 338.161107 265.520074 
L 341.862246 261.26196 
L 345.376951 256.848706 
L 348.698725 252.288467 
L 351.821429 247.589671 
L 354.739293 242.761003 
L 357.446923 237.811387 
L 359.939315 232.74997 
L 362.211864 227.586106 
L 364.260369 222.32934 
L 366.081044 216.989386 
L 367.670524 211.576114 
L 369.025872 206.099528 
L 370.144582 200.56975 
L 371.024588 194.996999 
L 371.664262 189.391575 
L 372.062424 183.763837 
L 372.218336 178.124187 
L 372.220811 177.318158 
L 372.220811 177.318158 
" clip-path="url(#pca4d1d5ac6)" style="fill: none; stroke: #0072b2; stroke-opacity: 0.9; stroke-width: 2.5; stroke-linecap: square"/>
   </g>
   <g id="line2d_4">
    <path d="M 240.985942 177.318158 
L 127.333212 111.700723 
" clip-path="url(#pca4d1d5ac6)" style="fill: none; stroke: #000000; stroke-opacity: 0.7; stroke-width: 2; stroke-linecap: square"/>
   </g>
   <g id="LineCollection_1">
    <path d="M 127.333212 177.318158 
L 127.333212 111.700723 
" clip-path="url(#pca4d1d5ac6)" style="fill: none; stroke-dasharray: 5.55,2.4; stroke-dashoffset: 0; stroke: #000000; stroke-opacity: 0.6; stroke-width: 1.5"/>
   </g>
   <g id="LineCollection_2">
    <path d="M 240.985942 111.700723 
L 127.333212 111.700723 
" clip-path="url(#pca4d1d5ac6)" style="fill: none; stroke-dasharray: 5.55,2.4; stroke-dashoffset: 0; stroke: #000000; stroke-opacity: 0.6; stroke-width: 1.5"/>
   </g>
   <g id="line2d_5">
    <path d="M 267.232916 177.318158 
L 267.121606 174.903474 
L 266.788621 172.509271 
L 266.236785 170.155856 
L 265.470779 167.86319 
L 264.497099 165.650718 
L 263.324004 163.537205 
L 261.961444 161.540579 
L 260.420975 159.677774 
L 258.715664 157.96459 
L 256.859975 156.415557 
L 254.869647 155.043814 
L 252.761561 153.860996 
L 250.553597 152.877135 
L 248.264484 152.100575 
L 245.913636 151.537904 
L 243.520992 151.193894 
L 241.106847 151.071462 
L 238.691677 151.171648 
L 236.295965 151.493601 
L 233.940033 152.03459 
L 231.643862 152.790027 
L 229.426929 153.753505 
L 227.308035 154.916852 
L 225.305154 156.270201 
L 223.435272 157.802072 
L 221.714251 159.499473 
L 220.156686 161.348007 
L 218.775789 163.331995 
L 218.255396 164.194671 
L 218.255396 164.194671 
" clip-path="url(#pca4d1d5ac6)" style="fill: none; stroke: #000000; stroke-opacity: 0.7; stroke-linecap: square"/>
   </g>
   <g id="line2d_6">
    <defs>
     <path id="ma374537147" d="M 0 4 
C 1.060812 4 2.078319 3.578535 2.828427 2.828427 
C 3.578535 2.078319 4 1.060812 4 0 
C 4 -1.060812 3.578535 -2.078319 2.828427 -2.828427 
C 2.078319 -3.578535 1.060812 -4 0 -4 
C -1.060812 -4 -2.078319 -3.578535 -2.828427 -2.828427 
C -3.578535 -2.078319 -4 -1.060812 -4 0 
C -4 1.060812 -3.578535 2.078319 -2.828427 2.828427 
C -2.078319 3.578535 -1.060812 4 0 4 
z
" style="stroke: #000000; stroke-opacity: 0.7"/>
    </defs>
    <g clip-path="url(#pca4d1d5ac6)">
     <use xlink:href="#ma374537147" x="127.333212" y="111.700723" style="fill-opacity: 0.7; stroke: #000000; stroke-opacity: 0.7"/>
    </g>
   </g>
   <g id="patch_3">
    <path d="M 240.985942 334.8 
L 240.985942 19.836315 
" style="fill: none; stroke: #000000; stroke-width: 0.8; stroke-linejoin: miter; stroke-linecap: square"/>
   </g>
   <g id="patch_4">
    <path d="M 437.838245 334.8 
L 437.838245 19.836315 
" style="fill: none"/>
   </g>
   <g id="patch_5">
    <path d="M 44.133639 177.318158 
L 437.838245 177.318158 
" style="fill: none; stroke: #000000; stroke-width: 0.8; stroke-linejoin: miter; stroke-linecap: square"/>
   </g>
   <g id="patch_6">
    <path d="M 44.133639 19.836315 
L 437.838245 19.836315 
" style="fill: none"/>
   </g>
   <g id="text_3">
    <!-- $1$ -->
    <g transform="translate(175.021482 160.319037) scale(0.2 -0.2)">
     <defs>
      <path id="CMR17-31" d="M 1702 4058 
C 1702 4192 1696 4192 1606 4192 
C 1357 3916 979 3827 621 3827 
C 602 3827 570 3827 563 3808 
C 557 3795 557 3782 557 3648 
C 755 3648 1088 3686 1344 3839 
L 1344 461 
C 1344 236 1331 160 781 160 
L 589 160 
L 589 0 
C 896 0 1216 0 1523 0 
C 1830 0 2150 0 2458 0 
L 2458 160 
L 2266 160 
C 1715 160 1702 230 1702 458 
L 1702 4058 
z
" transform="scale(0.015625)"/>
     </defs>
     <use xlink:href="#CMR17-31" transform="scale(0.996264)"/>
    </g>
   </g>
   <g id="text_4">
    <!-- $v$ -->
    <g transform="translate(248.577383 149.490122) scale(0.2 -0.2)">
     <defs>
      <path id="CMMI12-76" d="M 2925 2389 
C 2925 2791 2720 2816 2669 2816 
C 2515 2816 2374 2663 2374 2535 
C 2374 2459 2419 2414 2445 2389 
C 2509 2331 2675 2159 2675 1827 
C 2675 1558 2291 64 1523 64 
C 1133 64 1056 390 1056 626 
C 1056 945 1203 1392 1376 1852 
C 1478 2114 1504 2178 1504 2305 
C 1504 2574 1312 2816 998 2816 
C 410 2816 173 1890 173 1839 
C 173 1814 198 1782 243 1782 
C 301 1782 307 1807 333 1897 
C 486 2446 736 2689 979 2689 
C 1037 2689 1146 2689 1146 2478 
C 1146 2312 1075 2127 979 1884 
C 672 1067 672 869 672 715 
C 672 575 691 313 890 134 
C 1120 -64 1440 -64 1498 -64 
C 2560 -64 2925 2024 2925 2389 
z
" transform="scale(0.015625)"/>
     </defs>
     <use xlink:href="#CMMI12-76" transform="scale(0.996264)"/>
    </g>
   </g>
   <g id="text_5">
    <!-- $P(\cos v, \sin v)$ -->
    <g transform="translate(2.427219 106.73608) scale(0.2 -0.2)">
     <defs>
      <path id="CMMI12-50" d="M 1894 2023 
L 2970 2023 
C 3853 2023 4736 2673 4736 3401 
C 4736 3898 4314 4352 3507 4352 
L 1530 4352 
C 1408 4352 1350 4352 1350 4231 
C 1350 4167 1408 4167 1504 4167 
C 1894 4167 1894 4116 1894 4046 
C 1894 4034 1894 3995 1869 3899 
L 1005 472 
C 947 249 934 185 486 185 
C 365 185 301 185 301 70 
C 301 0 358 0 397 0 
C 518 0 646 0 768 0 
L 1517 0 
C 1638 0 1773 0 1894 0 
C 1946 0 2016 0 2016 121 
C 2016 185 1958 185 1862 185 
C 1478 185 1472 230 1472 293 
C 1472 325 1478 369 1485 401 
L 1894 2023 
z
M 2355 3930 
C 2413 4167 2438 4167 2688 4167 
L 3322 4167 
C 3802 4167 4198 4013 4198 3535 
C 4198 3369 4115 2827 3821 2534 
C 3712 2419 3405 2176 2822 2176 
L 1920 2176 
L 2355 3930 
z
" transform="scale(0.015625)"/>
      <path id="CMR17-28" d="M 1958 -1561 
C 1958 -1555 1958 -1542 1939 -1523 
C 1645 -1224 858 -407 858 1581 
C 858 3569 1632 4379 1946 4697 
C 1946 4704 1958 4717 1958 4736 
C 1958 4755 1939 4768 1914 4768 
C 1843 4768 1299 4296 986 3594 
C 666 2887 576 2199 576 1588 
C 576 1128 621 351 1005 -471 
C 1312 -1135 1837 -1600 1914 -1600 
C 1946 -1600 1958 -1587 1958 -1561 
z
" transform="scale(0.015625)"/>
      <path id="CMR17-63" d="M 2234 2240 
C 2112 2240 1933 2240 1933 2017 
C 1933 1838 2080 1787 2163 1787 
C 2208 1787 2394 1807 2394 2024 
C 2394 2467 1958 2803 1466 2803 
C 787 2803 211 2178 211 1363 
C 211 516 813 -64 1466 -64 
C 2259 -64 2458 677 2458 748 
C 2458 774 2451 793 2406 793 
C 2362 793 2355 787 2330 703 
C 2163 180 1798 51 1523 51 
C 1114 51 621 427 621 1369 
C 621 2338 1094 2688 1472 2688 
C 1722 2688 2093 2573 2234 2240 
z
" transform="scale(0.015625)"/>
      <path id="CMR17-6f" d="M 2758 1356 
C 2758 2176 2163 2816 1466 2816 
C 768 2816 173 2176 173 1356 
C 173 551 768 -64 1466 -64 
C 2163 -64 2758 551 2758 1356 
z
M 1466 51 
C 1165 51 909 230 762 480 
C 602 767 582 1126 582 1408 
C 582 1677 595 2010 762 2298 
C 890 2509 1139 2714 1466 2714 
C 1754 2714 1997 2554 2150 2330 
C 2349 2029 2349 1607 2349 1408 
C 2349 1158 2336 775 2163 467 
C 1984 173 1709 51 1466 51 
z
" transform="scale(0.015625)"/>
      <path id="CMR17-73" d="M 1978 2697 
C 1978 2813 1971 2819 1933 2819 
C 1907 2819 1901 2813 1824 2717 
C 1805 2691 1747 2626 1728 2601 
C 1523 2819 1235 2819 1126 2819 
C 416 2819 160 2447 160 2076 
C 160 1498 813 1365 998 1325 
C 1402 1243 1542 1217 1677 1101 
C 1760 1025 1901 884 1901 654 
C 1901 384 1747 38 1158 38 
C 602 38 403 460 288 1021 
C 269 1110 269 1117 218 1117 
C 166 1117 160 1110 160 983 
L 160 63 
C 160 -51 166 -58 205 -58 
C 237 -58 243 -51 275 0 
C 314 57 410 211 448 276 
C 576 103 800 -64 1158 -64 
C 1792 -64 2131 283 2131 784 
C 2131 1112 1958 1285 1875 1362 
C 1683 1561 1459 1606 1190 1657 
C 838 1735 390 1825 390 2217 
C 390 2383 480 2737 1126 2737 
C 1811 2737 1850 2094 1862 1888 
C 1869 1856 1901 1849 1920 1849 
C 1978 1849 1978 1869 1978 1978 
L 1978 2697 
z
" transform="scale(0.015625)"/>
      <path id="CMMI12-3b" d="M 1248 -31 
C 1248 343 1126 619 864 619 
C 659 619 557 453 557 313 
C 557 172 653 0 870 0 
C 954 0 1024 26 1082 83 
C 1094 96 1101 96 1107 96 
C 1120 96 1120 5 1120 -27 
C 1120 -240 1082 -659 710 -1080 
C 640 -1157 640 -1170 640 -1183 
C 640 -1216 672 -1248 704 -1248 
C 755 -1248 1248 -771 1248 -31 
z
" transform="scale(0.015625)"/>
      <path id="CMR17-69" d="M 992 3909 
C 992 4049 877 4170 730 4170 
C 589 4170 467 4056 467 3909 
C 467 3769 582 3648 730 3648 
C 870 3648 992 3763 992 3909 
z
M 243 2706 
L 243 2541 
C 602 2541 653 2502 653 2197 
L 653 427 
C 653 184 627 153 218 153 
L 218 -13 
C 371 0 646 0 806 0 
C 960 0 1222 0 1370 -13 
L 1370 153 
C 992 153 979 191 979 420 
L 979 2776 
L 243 2706 
z
" transform="scale(0.015625)"/>
      <path id="CMR17-6e" d="M 2656 1933 
C 2656 2259 2592 2790 1837 2790 
C 1331 2790 1069 2400 973 2144 
L 966 2144 
L 966 2790 
L 211 2720 
L 211 2554 
C 589 2554 646 2515 646 2208 
L 646 428 
C 646 184 621 153 211 153 
L 211 -13 
C 365 0 646 0 813 0 
C 979 0 1267 0 1421 -13 
L 1421 153 
C 1011 153 986 178 986 428 
L 986 1658 
C 986 2247 1344 2688 1792 2688 
C 2266 2688 2317 2266 2317 1958 
L 2317 428 
C 2317 184 2291 153 1882 153 
L 1882 -13 
C 2035 0 2317 0 2483 0 
C 2650 0 2938 0 3091 -13 
L 3091 153 
C 2682 153 2656 178 2656 428 
L 2656 1933 
z
" transform="scale(0.015625)"/>
      <path id="CMR17-29" d="M 1683 1581 
C 1683 2040 1638 2817 1254 3639 
C 947 4303 422 4768 346 4768 
C 326 4768 301 4761 301 4729 
C 301 4717 307 4710 314 4697 
C 621 4378 1402 3568 1402 1584 
C 1402 -407 627 -1217 314 -1537 
C 307 -1549 301 -1556 301 -1568 
C 301 -1600 326 -1600 346 -1600 
C 416 -1600 960 -1128 1274 -426 
C 1594 281 1683 969 1683 1581 
z
" transform="scale(0.015625)"/>
     </defs>
     <use xlink:href="#CMMI12-50" transform="scale(0.996264)"/>
     <use xlink:href="#CMR17-28" transform="translate(76.425821 0) scale(0.996264)"/>
     <use xlink:href="#CMR17-63" transform="translate(111.706589 0) scale(0.996264)"/>
     <use xlink:href="#CMR17-6f" transform="translate(152.192249 0) scale(0.996264)"/>
     <use xlink:href="#CMR17-73" transform="translate(197.882726 0) scale(0.996264)"/>
     <use xlink:href="#CMMI12-76" transform="translate(250.288469 0) scale(0.996264)"/>
     <use xlink:href="#CMMI12-3b" transform="translate(301.023642 0) scale(0.996264)"/>
     <use xlink:href="#CMR17-73" transform="translate(344.725225 0) scale(0.996264)"/>
     <use xlink:href="#CMR17-69" transform="translate(380.526562 0) scale(0.996264)"/>
     <use xlink:href="#CMR17-6e" transform="translate(405.397621 0) scale(0.996264)"/>
     <use xlink:href="#CMMI12-76" transform="translate(472.897396 0) scale(0.996264)"/>
     <use xlink:href="#CMR17-29" transform="translate(523.632569 0) scale(0.996264)"/>
    </g>
   </g>
  </g>
 </g>
 <defs>
  <clipPath id="pca4d1d5ac6">
   <rect x="44.133639" y="19.836315" width="393.704606" height="314.963685"/>
  </clipPath>
 </defs>
</svg>
