<?xml version="1.0" encoding="utf-8" standalone="no"?>
<!DOCTYPE svg PUBLIC "-//W3C//DTD SVG 1.1//EN"
  "http://www.w3.org/Graphics/SVG/1.1/DTD/svg11.dtd">
<svg xmlns:xlink="http://www.w3.org/1999/xlink" width="460.8pt" height="345.6pt" viewBox="0 0 460.8 345.6" xmlns="http://www.w3.org/2000/svg" version="1.1">
 <metadata>
  <rdf:RDF xmlns:dc="http://purl.org/dc/elements/1.1/" xmlns:cc="http://creativecommons.org/ns#" xmlns:rdf="http://www.w3.org/1999/02/22-rdf-syntax-ns#">
   <cc:Work>
    <dc:type rdf:resource="http://purl.org/dc/dcmitype/StillImage"/>
    <dc:date>2025-03-09T22:05:08.189424</dc:date>
    <dc:format>image/svg+xml</dc:format>
    <dc:creator>
     <cc:Agent>
      <dc:title>Matplotlib v3.9.1, https://matplotlib.org/</dc:title>
     </cc:Agent>
    </dc:creator>
   </cc:Work>
  </rdf:RDF>
 </metadata>
 <defs>
  <style type="text/css">*{stroke-linejoin: round; stroke-linecap: butt}</style>
 </defs>
 <g id="figure_1">
  <g id="patch_1">
   <path d="M 0 345.6 
L 460.8 345.6 
L 460.8 0 
L 0 0 
z
" style="fill: #ffffff"/>
  </g>
  <g id="axes_1">
   <g id="patch_2">
    <path d="M 30.940333 334.8 
L 426.859667 334.8 
L 426.859667 18.064532 
L 30.940333 18.064532 
z
" style="fill: #ffffff"/>
   </g>
   <g id="matplotlib.axis_1">
    <g id="text_1">
     <!-- $\cos v$ -->
     <g transform="translate(389.711224 194.269263) scale(0.2 -0.2)">
      <defs>
       <path id="CMR17-63" d="M 2234 2240 
C 2112 2240 1933 2240 1933 2017 
C 1933 1838 2080 1787 2163 1787 
C 2208 1787 2394 1807 2394 2024 
C 2394 2467 1958 2803 1466 2803 
C 787 2803 211 2178 211 1363 
C 211 516 813 -64 1466 -64 
C 2259 -64 2458 677 2458 748 
C 2458 774 2451 793 2406 793 
C 2362 793 2355 787 2330 703 
C 2163 180 1798 51 1523 51 
C 1114 51 621 427 621 1369 
C 621 2338 1094 2688 1472 2688 
C 1722 2688 2093 2573 2234 2240 
z
" transform="scale(0.015625)"/>
       <path id="CMR17-6f" d="M 2758 1356 
C 2758 2176 2163 2816 1466 2816 
C 768 2816 173 2176 173 1356 
C 173 551 768 -64 1466 -64 
C 2163 -64 2758 551 2758 1356 
z
M 1466 51 
C 1165 51 909 230 762 480 
C 602 767 582 1126 582 1408 
C 582 1677 595 2010 762 2298 
C 890 2509 1139 2714 1466 2714 
C 1754 2714 1997 2554 2150 2330 
C 2349 2029 2349 1607 2349 1408 
C 2349 1158 2336 775 2163 467 
C 1984 173 1709 51 1466 51 
z
" transform="scale(0.015625)"/>
       <path id="CMR17-73" d="M 1978 2697 
C 1978 2813 1971 2819 1933 2819 
C 1907 2819 1901 2813 1824 2717 
C 1805 2691 1747 2626 1728 2601 
C 1523 2819 1235 2819 1126 2819 
C 416 2819 160 2447 160 2076 
C 160 1498 813 1365 998 1325 
C 1402 1243 1542 1217 1677 1101 
C 1760 1025 1901 884 1901 654 
C 1901 384 1747 38 1158 38 
C 602 38 403 460 288 1021 
C 269 1110 269 1117 218 1117 
C 166 1117 160 1110 160 983 
L 160 63 
C 160 -51 166 -58 205 -58 
C 237 -58 243 -51 275 0 
C 314 57 410 211 448 276 
C 576 103 800 -64 1158 -64 
C 1792 -64 2131 283 2131 784 
C 2131 1112 1958 1285 1875 1362 
C 1683 1561 1459 1606 1190 1657 
C 838 1735 390 1825 390 2217 
C 390 2383 480 2737 1126 2737 
C 1811 2737 1850 2094 1862 1888 
C 1869 1856 1901 1849 1920 1849 
C 1978 1849 1978 1869 1978 1978 
L 1978 2697 
z
" transform="scale(0.015625)"/>
       <path id="CMMI12-76" d="M 2925 2389 
C 2925 2791 2720 2816 2669 2816 
C 2515 2816 2374 2663 2374 2535 
C 2374 2459 2419 2414 2445 2389 
C 2509 2331 2675 2159 2675 1827 
C 2675 1558 2291 64 1523 64 
C 1133 64 1056 390 1056 626 
C 1056 945 1203 1392 1376 1852 
C 1478 2114 1504 2178 1504 2305 
C 1504 2574 1312 2816 998 2816 
C 410 2816 173 1890 173 1839 
C 173 1814 198 1782 243 1782 
C 301 1782 307 1807 333 1897 
C 486 2446 736 2689 979 2689 
C 1037 2689 1146 2689 1146 2478 
C 1146 2312 1075 2127 979 1884 
C 672 1067 672 869 672 715 
C 672 575 691 313 890 134 
C 1120 -64 1440 -64 1498 -64 
C 2560 -64 2925 2024 2925 2389 
z
" transform="scale(0.015625)"/>
      </defs>
      <use xlink:href="#CMR17-63" transform="scale(0.996264)"/>
      <use xlink:href="#CMR17-6f" transform="translate(40.48566 0) scale(0.996264)"/>
      <use xlink:href="#CMR17-73" transform="translate(86.176138 0) scale(0.996264)"/>
      <use xlink:href="#CMMI12-76" transform="translate(138.58188 0) scale(0.996264)"/>
     </g>
    </g>
   </g>
   <g id="matplotlib.axis_2">
    <g id="text_2">
     <!-- $\sin v$ -->
     <g transform="translate(189.833501 14.188899) scale(0.2 -0.2)">
      <defs>
       <path id="CMR17-69" d="M 992 3909 
C 992 4049 877 4170 730 4170 
C 589 4170 467 4056 467 3909 
C 467 3769 582 3648 730 3648 
C 870 3648 992 3763 992 3909 
z
M 243 2706 
L 243 2541 
C 602 2541 653 2502 653 2197 
L 653 427 
C 653 184 627 153 218 153 
L 218 -13 
C 371 0 646 0 806 0 
C 960 0 1222 0 1370 -13 
L 1370 153 
C 992 153 979 191 979 420 
L 979 2776 
L 243 2706 
z
" transform="scale(0.015625)"/>
       <path id="CMR17-6e" d="M 2656 1933 
C 2656 2259 2592 2790 1837 2790 
C 1331 2790 1069 2400 973 2144 
L 966 2144 
L 966 2790 
L 211 2720 
L 211 2554 
C 589 2554 646 2515 646 2208 
L 646 428 
C 646 184 621 153 211 153 
L 211 -13 
C 365 0 646 0 813 0 
C 979 0 1267 0 1421 -13 
L 1421 153 
C 1011 153 986 178 986 428 
L 986 1658 
C 986 2247 1344 2688 1792 2688 
C 2266 2688 2317 2266 2317 1958 
L 2317 428 
C 2317 184 2291 153 1882 153 
L 1882 -13 
C 2035 0 2317 0 2483 0 
C 2650 0 2938 0 3091 -13 
L 3091 153 
C 2682 153 2656 178 2656 428 
L 2656 1933 
z
" transform="scale(0.015625)"/>
      </defs>
      <use xlink:href="#CMR17-73" transform="scale(0.996264)"/>
      <use xlink:href="#CMR17-69" transform="translate(35.801338 0) scale(0.996264)"/>
      <use xlink:href="#CMR17-6e" transform="translate(60.672396 0) scale(0.996264)"/>
      <use xlink:href="#CMMI12-76" transform="translate(128.172171 0) scale(0.996264)"/>
     </g>
    </g>
   </g>
   <g id="line2d_1">
    <defs>
     <path id="mf49866001a" d="M 3 0 
L -3 -3 
L -3 3 
z
" style="stroke: #000000; stroke-linejoin: miter"/>
    </defs>
    <g>
     <use xlink:href="#mf49866001a" x="426.859667" y="176.432266" style="stroke: #000000; stroke-linejoin: miter"/>
    </g>
   </g>
   <g id="line2d_2">
    <defs>
     <path id="ma3872ad7b1" d="M 0 -3 
L -3 3 
L 3 3 
z
" style="stroke: #000000; stroke-linejoin: miter"/>
    </defs>
    <g>
     <use xlink:href="#ma3872ad7b1" x="228.9" y="18.064532" style="stroke: #000000; stroke-linejoin: miter"/>
    </g>
   </g>
   <g id="line2d_3">
    <path d="M 360.873112 176.432266 
L 360.751158 170.760035 
L 360.385524 165.098287 
L 359.776885 159.457486 
L 358.926365 153.848056 
L 357.835537 148.280366 
L 356.506416 142.764705 
L 354.94146 137.311267 
L 353.143559 131.93013 
L 351.116038 126.63124 
L 348.862643 121.424389 
L 346.387538 116.319202 
L 343.695299 111.325112 
L 340.790901 106.451351 
L 337.679711 101.706925 
L 334.36748 97.100603 
L 330.860329 92.640897 
L 327.16474 88.336051 
L 323.287542 84.19402 
L 319.235903 80.22246 
L 315.017308 76.428709 
L 310.639556 72.819781 
L 306.110737 69.402344 
L 301.43922 66.182714 
L 296.63364 63.166843 
L 291.702878 60.360303 
L 286.656047 57.768282 
L 281.502474 55.39557 
L 276.251683 53.246552 
L 270.913379 51.325199 
L 265.497429 49.635064 
L 260.01384 48.17927 
L 254.472749 46.960506 
L 248.884395 45.981026 
L 243.259107 45.242639 
L 237.607281 44.746711 
L 231.939363 44.494158 
L 226.265828 44.485446 
L 220.59716 44.720592 
L 214.943838 45.199162 
L 209.316309 45.92027 
L 203.724974 46.882584 
L 198.180166 48.084325 
L 192.692132 49.523273 
L 187.271017 51.196768 
L 181.926838 53.101717 
L 176.669473 55.2346 
L 171.508637 57.591475 
L 166.45387 60.167985 
L 161.514512 62.95937 
L 156.699693 65.960469 
L 152.018311 69.165738 
L 147.479019 72.569251 
L 143.090204 76.164718 
L 138.859979 79.945496 
L 134.796162 83.904595 
L 130.906263 88.0347 
L 127.197471 92.328177 
L 123.676641 96.777091 
L 120.35028 101.37322 
L 117.224535 106.108069 
L 114.305183 110.972888 
L 111.59762 115.958686 
L 109.10685 121.056249 
L 106.837475 126.256154 
L 104.793691 131.548793 
L 102.979273 136.924383 
L 101.397577 142.37299 
L 100.051524 147.884544 
L 98.943603 153.448858 
L 98.075861 159.055648 
L 97.449902 164.694554 
L 97.066883 170.355153 
L 96.927511 176.026983 
L 97.032044 181.699562 
L 97.38029 187.362406 
L 97.971603 193.00505 
L 98.804893 198.617064 
L 99.878618 204.188078 
L 101.190794 209.707795 
L 102.738996 215.166013 
L 104.520362 220.552646 
L 106.531602 225.857738 
L 108.768996 231.071484 
L 111.228411 236.184248 
L 113.905301 241.186581 
L 116.794718 246.069239 
L 119.891324 250.823197 
L 123.189393 255.439669 
L 126.682832 259.910124 
L 130.365184 264.226299 
L 134.229643 268.380217 
L 138.269067 272.364201 
L 142.475991 276.170889 
L 146.84264 279.793244 
L 151.360943 283.224573 
L 156.02255 286.458533 
L 160.818846 289.489148 
L 165.740966 292.310817 
L 170.779814 294.918325 
L 175.926076 297.306852 
L 181.170242 299.471985 
L 186.50262 301.409722 
L 191.913355 303.116481 
L 197.392447 304.589109 
L 202.92977 305.824883 
L 208.515089 306.82152 
L 214.138083 307.577178 
L 219.788359 308.090461 
L 225.455475 308.360419 
L 231.128957 308.386553 
L 236.79832 308.168817 
L 242.453085 307.707611 
L 248.082802 307.003788 
L 253.677066 306.058649 
L 259.225539 304.873941 
L 264.717965 303.451853 
L 270.144194 301.795014 
L 275.494198 299.906486 
L 280.758088 297.789758 
L 285.926137 295.448743 
L 290.988793 292.887768 
L 295.9367 290.111565 
L 300.760712 287.125266 
L 305.451915 283.934389 
L 310.001639 280.544832 
L 314.401474 276.962859 
L 318.643289 273.19509 
L 322.719246 269.248489 
L 326.62181 265.13035 
L 330.343769 260.848283 
L 333.878245 256.410202 
L 337.218705 251.82431 
L 340.358976 247.099082 
L 343.293254 242.243251 
L 346.016115 237.265791 
L 348.522528 232.175902 
L 350.807861 226.98299 
L 352.867889 221.696653 
L 354.698806 216.32666 
L 356.297227 210.882936 
L 357.660199 205.375542 
L 358.785203 199.814657 
L 359.670159 194.210557 
L 360.313432 188.5736 
L 360.713833 182.914205 
L 360.870622 177.242829 
L 360.873112 176.432266 
L 360.873112 176.432266 
" clip-path="url(#p32b9df51af)" style="fill: none; stroke: #008080; stroke-opacity: 0.7; stroke-width: 2; stroke-linecap: square"/>
   </g>
   <g id="line2d_4">
    <path d="M 228.9 176.432266 
L 114.607933 110.44571 
" clip-path="url(#p32b9df51af)" style="fill: none; stroke: #000000; stroke-opacity: 0.7; stroke-width: 2; stroke-linecap: square"/>
   </g>
   <g id="LineCollection_1">
    <path d="M 114.607933 176.432266 
L 114.607933 110.44571 
" clip-path="url(#p32b9df51af)" style="fill: none; stroke-dasharray: 5.55,2.4; stroke-dashoffset: 0; stroke: #000000; stroke-opacity: 0.6; stroke-width: 1.5"/>
   </g>
   <g id="LineCollection_2">
    <path d="M 228.9 110.44571 
L 114.607933 110.44571 
" clip-path="url(#p32b9df51af)" style="fill: none; stroke-dasharray: 5.55,2.4; stroke-dashoffset: 0; stroke: #000000; stroke-opacity: 0.6; stroke-width: 1.5"/>
   </g>
   <g id="line2d_5">
    <path d="M 255.294622 176.432266 
L 255.182686 174.003999 
L 254.847828 171.596328 
L 254.292888 169.229674 
L 253.522572 166.924111 
L 252.543415 164.699193 
L 251.363721 162.573791 
L 249.993496 160.565933 
L 248.444362 158.692649 
L 246.729458 156.969828 
L 244.86333 155.412081 
L 242.861805 154.032621 
L 240.741861 152.843149 
L 238.521476 151.853754 
L 236.219486 151.072826 
L 233.855413 150.50699 
L 231.44931 150.161044 
L 229.021585 150.037924 
L 226.592828 150.138673 
L 224.18364 150.462437 
L 221.814455 151.006469 
L 219.505368 151.766156 
L 217.275963 152.735054 
L 215.14515 153.904945 
L 213.131001 155.265907 
L 211.250601 156.806395 
L 209.519898 158.513345 
L 207.953572 160.372278 
L 206.564907 162.367427 
L 206.041587 163.234955 
L 206.041587 163.234955 
" clip-path="url(#p32b9df51af)" style="fill: none; stroke: #000000; stroke-opacity: 0.7; stroke-linecap: square"/>
   </g>
   <g id="line2d_6">
    <defs>
     <path id="m184880e10c" d="M 0 4 
C 1.060812 4 2.078319 3.578535 2.828427 2.828427 
C 3.578535 2.078319 4 1.060812 4 0 
C 4 -1.060812 3.578535 -2.078319 2.828427 -2.828427 
C 2.078319 -3.578535 1.060812 -4 0 -4 
C -1.060812 -4 -2.078319 -3.578535 -2.828427 -2.828427 
C -3.578535 -2.078319 -4 -1.060812 -4 0 
C -4 1.060812 -3.578535 2.078319 -2.828427 2.828427 
C -2.078319 3.578535 -1.060812 4 0 4 
z
" style="stroke: #000000; stroke-opacity: 0.7"/>
    </defs>
    <g clip-path="url(#p32b9df51af)">
     <use xlink:href="#m184880e10c" x="114.607933" y="110.44571" style="fill-opacity: 0.7; stroke: #000000; stroke-opacity: 0.7"/>
    </g>
   </g>
   <g id="patch_3">
    <path d="M 228.9 334.8 
L 228.9 18.064532 
" style="fill: none; stroke: #000000; stroke-width: 0.8; stroke-linejoin: miter; stroke-linecap: square"/>
   </g>
   <g id="patch_4">
    <path d="M 426.859667 334.8 
L 426.859667 18.064532 
" style="fill: none"/>
   </g>
   <g id="patch_5">
    <path d="M 30.940333 176.432266 
L 426.859667 176.432266 
" style="fill: none; stroke: #000000; stroke-width: 0.8; stroke-linejoin: miter; stroke-linecap: square"/>
   </g>
   <g id="patch_6">
    <path d="M 30.940333 18.064532 
L 426.859667 18.064532 
" style="fill: none"/>
   </g>
   <g id="text_3">
    <!-- $v$ -->
    <g transform="translate(236.560674 148.41967) scale(0.2 -0.2)">
     <use xlink:href="#CMMI12-76" transform="scale(0.996264)"/>
    </g>
   </g>
   <g id="text_4">
    <!-- $(\cos v, \sin v)$ -->
    <g transform="translate(18.110591 105.481067) scale(0.2 -0.2)">
     <defs>
      <path id="CMR17-28" d="M 1958 -1561 
C 1958 -1555 1958 -1542 1939 -1523 
C 1645 -1224 858 -407 858 1581 
C 858 3569 1632 4379 1946 4697 
C 1946 4704 1958 4717 1958 4736 
C 1958 4755 1939 4768 1914 4768 
C 1843 4768 1299 4296 986 3594 
C 666 2887 576 2199 576 1588 
C 576 1128 621 351 1005 -471 
C 1312 -1135 1837 -1600 1914 -1600 
C 1946 -1600 1958 -1587 1958 -1561 
z
" transform="scale(0.015625)"/>
      <path id="CMMI12-3b" d="M 1248 -31 
C 1248 343 1126 619 864 619 
C 659 619 557 453 557 313 
C 557 172 653 0 870 0 
C 954 0 1024 26 1082 83 
C 1094 96 1101 96 1107 96 
C 1120 96 1120 5 1120 -27 
C 1120 -240 1082 -659 710 -1080 
C 640 -1157 640 -1170 640 -1183 
C 640 -1216 672 -1248 704 -1248 
C 755 -1248 1248 -771 1248 -31 
z
" transform="scale(0.015625)"/>
      <path id="CMR17-29" d="M 1683 1581 
C 1683 2040 1638 2817 1254 3639 
C 947 4303 422 4768 346 4768 
C 326 4768 301 4761 301 4729 
C 301 4717 307 4710 314 4697 
C 621 4378 1402 3568 1402 1584 
C 1402 -407 627 -1217 314 -1537 
C 307 -1549 301 -1556 301 -1568 
C 301 -1600 326 -1600 346 -1600 
C 416 -1600 960 -1128 1274 -426 
C 1594 281 1683 969 1683 1581 
z
" transform="scale(0.015625)"/>
     </defs>
     <use xlink:href="#CMR17-28" transform="scale(0.996264)"/>
     <use xlink:href="#CMR17-63" transform="translate(35.280768 0) scale(0.996264)"/>
     <use xlink:href="#CMR17-6f" transform="translate(75.766428 0) scale(0.996264)"/>
     <use xlink:href="#CMR17-73" transform="translate(121.456905 0) scale(0.996264)"/>
     <use xlink:href="#CMMI12-76" transform="translate(173.862648 0) scale(0.996264)"/>
     <use xlink:href="#CMMI12-3b" transform="translate(224.597822 0) scale(0.996264)"/>
     <use xlink:href="#CMR17-73" transform="translate(268.299404 0) scale(0.996264)"/>
     <use xlink:href="#CMR17-69" transform="translate(304.100742 0) scale(0.996264)"/>
     <use xlink:href="#CMR17-6e" transform="translate(328.9718 0) scale(0.996264)"/>
     <use xlink:href="#CMMI12-76" transform="translate(396.471575 0) scale(0.996264)"/>
     <use xlink:href="#CMR17-29" transform="translate(447.206748 0) scale(0.996264)"/>
    </g>
   </g>
  </g>
 </g>
 <defs>
  <clipPath id="p32b9df51af">
   <rect x="30.940333" y="18.064532" width="395.919335" height="316.735468"/>
  </clipPath>
 </defs>
</svg>
