<?xml version="1.0" encoding="utf-8" standalone="no"?>
<!DOCTYPE svg PUBLIC "-//W3C//DTD SVG 1.1//EN"
  "http://www.w3.org/Graphics/SVG/1.1/DTD/svg11.dtd">
<svg xmlns:xlink="http://www.w3.org/1999/xlink" width="460.8pt" height="345.6pt" viewBox="0 0 460.8 345.6" xmlns="http://www.w3.org/2000/svg" version="1.1">
 <metadata>
  <rdf:RDF xmlns:dc="http://purl.org/dc/elements/1.1/" xmlns:cc="http://creativecommons.org/ns#" xmlns:rdf="http://www.w3.org/1999/02/22-rdf-syntax-ns#">
   <cc:Work>
    <dc:type rdf:resource="http://purl.org/dc/dcmitype/StillImage"/>
    <dc:date>2025-04-18T18:31:43.337713</dc:date>
    <dc:format>image/svg+xml</dc:format>
    <dc:creator>
     <cc:Agent>
      <dc:title>Matplotlib v3.9.1, https://matplotlib.org/</dc:title>
     </cc:Agent>
    </dc:creator>
   </cc:Work>
  </rdf:RDF>
 </metadata>
 <defs>
  <style type="text/css">*{stroke-linejoin: round; stroke-linecap: butt}</style>
 </defs>
 <g id="figure_1">
  <g id="patch_1">
   <path d="M 0 345.6 
L 460.8 345.6 
L 460.8 0 
L 0 0 
L 0 345.6 
z
" style="fill: none"/>
  </g>
  <g id="axes_1">
   <g id="PathCollection_1">
    <defs>
     <path id="mcc840490a6" d="M 0 9.416168 
C 2.497197 9.416168 4.892451 8.424021 6.658236 6.658236 
C 8.424021 4.892451 9.416168 2.497197 9.416168 0 
C 9.416168 -2.497197 8.424021 -4.892451 6.658236 -6.658236 
C 4.892451 -8.424021 2.497197 -9.416168 0 -9.416168 
C -2.497197 -9.416168 -4.892451 -8.424021 -6.658236 -6.658236 
C -8.424021 -4.892451 -9.416168 -2.497197 -9.416168 0 
C -9.416168 2.497197 -8.424021 4.892451 -6.658236 6.658236 
C -4.892451 8.424021 -2.497197 9.416168 0 9.416168 
z
" style="stroke: #4169e1; stroke-opacity: 0.7"/>
    </defs>
    <g clip-path="url(#pbe7a674942)">
     <use xlink:href="#mcc840490a6" x="443.021183" y="58.512012" style="fill: #4169e1; fill-opacity: 0.7; stroke: #4169e1; stroke-opacity: 0.7"/>
    </g>
   </g>
   <g id="PathCollection_2">
    <defs>
     <path id="mc0bdef967c" d="M 0 10.755402 
C 2.852366 10.755402 5.588291 9.622145 7.605218 7.605218 
C 9.622145 5.588291 10.755402 2.852366 10.755402 0 
C 10.755402 -2.852366 9.622145 -5.588291 7.605218 -7.605218 
C 5.588291 -9.622145 2.852366 -10.755402 0 -10.755402 
C -2.852366 -10.755402 -5.588291 -9.622145 -7.605218 -7.605218 
C -9.622145 -5.588291 -10.755402 -2.852366 -10.755402 0 
C -10.755402 2.852366 -9.622145 5.588291 -7.605218 7.605218 
C -5.588291 9.622145 -2.852366 10.755402 0 10.755402 
z
" style="stroke: #008000; stroke-opacity: 0.7"/>
    </defs>
    <g clip-path="url(#pbe7a674942)">
     <use xlink:href="#mc0bdef967c" x="438.211072" y="161.134934" style="fill: #008000; fill-opacity: 0.7; stroke: #008000; stroke-opacity: 0.7"/>
    </g>
   </g>
   <g id="PathCollection_3">
    <defs>
     <path id="mdd1360f30e" d="M 0 9.004023 
C 2.387895 9.004023 4.678309 8.055302 6.366806 6.366806 
C 8.055302 4.678309 9.004023 2.387895 9.004023 0 
C 9.004023 -2.387895 8.055302 -4.678309 6.366806 -6.366806 
C 4.678309 -8.055302 2.387895 -9.004023 0 -9.004023 
C -2.387895 -9.004023 -4.678309 -8.055302 -6.366806 -6.366806 
C -8.055302 -4.678309 -9.004023 -2.387895 -9.004023 0 
C -9.004023 2.387895 -8.055302 4.678309 -6.366806 6.366806 
C -4.678309 8.055302 -2.387895 9.004023 0 9.004023 
z
" style="stroke: #ff0000; stroke-opacity: 0.7"/>
    </defs>
    <g clip-path="url(#pbe7a674942)">
     <use xlink:href="#mdd1360f30e" x="187.226894" y="187.713646" style="fill: #ff0000; fill-opacity: 0.7; stroke: #ff0000; stroke-opacity: 0.7"/>
    </g>
   </g>
   <g id="PathCollection_4">
    <defs>
     <path id="m191b719f75" d="M 0 10.733259 
C 2.846493 10.733259 5.576785 9.602335 7.58956 7.58956 
C 9.602335 5.576785 10.733259 2.846493 10.733259 0 
C 10.733259 -2.846493 9.602335 -5.576785 7.58956 -7.58956 
C 5.576785 -9.602335 2.846493 -10.733259 0 -10.733259 
C -2.846493 -10.733259 -5.576785 -9.602335 -7.58956 -7.58956 
C -9.602335 -5.576785 -10.733259 -2.846493 -10.733259 0 
C -10.733259 2.846493 -9.602335 5.576785 -7.58956 7.58956 
C -5.576785 9.602335 -2.846493 10.733259 0 10.733259 
z
" style="stroke: #008000; stroke-opacity: 0.7"/>
    </defs>
    <g clip-path="url(#pbe7a674942)">
     <use xlink:href="#m191b719f75" x="358.105064" y="99.188024" style="fill: #008000; fill-opacity: 0.7; stroke: #008000; stroke-opacity: 0.7"/>
    </g>
   </g>
   <g id="PathCollection_5">
    <defs>
     <path id="m70d40e2a0a" d="M 0 11.486341 
C 3.046213 11.486341 5.968071 10.276067 8.122069 8.122069 
C 10.276067 5.968071 11.486341 3.046213 11.486341 0 
C 11.486341 -3.046213 10.276067 -5.968071 8.122069 -8.122069 
C 5.968071 -10.276067 3.046213 -11.486341 0 -11.486341 
C -3.046213 -11.486341 -5.968071 -10.276067 -8.122069 -8.122069 
C -10.276067 -5.968071 -11.486341 -3.046213 -11.486341 0 
C -11.486341 3.046213 -10.276067 5.968071 -8.122069 8.122069 
C -5.968071 10.276067 -3.046213 11.486341 0 11.486341 
z
" style="stroke: #4169e1; stroke-opacity: 0.7"/>
    </defs>
    <g clip-path="url(#pbe7a674942)">
     <use xlink:href="#m70d40e2a0a" x="284.883121" y="313.642371" style="fill: #4169e1; fill-opacity: 0.7; stroke: #4169e1; stroke-opacity: 0.7"/>
    </g>
   </g>
   <g id="PathCollection_6">
    <defs>
     <path id="mdb73504f2e" d="M 0 12.531055 
C 3.323275 12.531055 6.510884 11.210704 8.860794 8.860794 
C 11.210704 6.510884 12.531055 3.323275 12.531055 0 
C 12.531055 -3.323275 11.210704 -6.510884 8.860794 -8.860794 
C 6.510884 -11.210704 3.323275 -12.531055 0 -12.531055 
C -3.323275 -12.531055 -6.510884 -11.210704 -8.860794 -8.860794 
C -11.210704 -6.510884 -12.531055 -3.323275 -12.531055 0 
C -12.531055 3.323275 -11.210704 6.510884 -8.860794 8.860794 
C -6.510884 11.210704 -3.323275 12.531055 0 12.531055 
z
" style="stroke: #ff00ff; stroke-opacity: 0.7"/>
    </defs>
    <g clip-path="url(#pbe7a674942)">
     <use xlink:href="#mdb73504f2e" x="252.721573" y="190.875852" style="fill: #ff00ff; fill-opacity: 0.7; stroke: #ff00ff; stroke-opacity: 0.7"/>
    </g>
   </g>
   <g id="PathCollection_7">
    <defs>
     <path id="mef62751d35" d="M 0 7.521773 
C 1.994798 7.521773 3.908162 6.729232 5.318697 5.318697 
C 6.729232 3.908162 7.521773 1.994798 7.521773 0 
C 7.521773 -1.994798 6.729232 -3.908162 5.318697 -5.318697 
C 3.908162 -6.729232 1.994798 -7.521773 0 -7.521773 
C -1.994798 -7.521773 -3.908162 -6.729232 -5.318697 -5.318697 
C -6.729232 -3.908162 -7.521773 -1.994798 -7.521773 0 
C -7.521773 1.994798 -6.729232 3.908162 -5.318697 5.318697 
C -3.908162 6.729232 -1.994798 7.521773 0 7.521773 
z
" style="stroke: #ff00ff; stroke-opacity: 0.7"/>
    </defs>
    <g clip-path="url(#pbe7a674942)">
     <use xlink:href="#mef62751d35" x="270.248331" y="96.366445" style="fill: #ff00ff; fill-opacity: 0.7; stroke: #ff00ff; stroke-opacity: 0.7"/>
    </g>
   </g>
   <g id="PathCollection_8">
    <defs>
     <path id="m8d6820035d" d="M 0 11.417043 
C 3.027835 11.417043 5.932066 10.214072 8.073069 8.073069 
C 10.214072 5.932066 11.417043 3.027835 11.417043 0 
C 11.417043 -3.027835 10.214072 -5.932066 8.073069 -8.073069 
C 5.932066 -10.214072 3.027835 -11.417043 0 -11.417043 
C -3.027835 -11.417043 -5.932066 -10.214072 -8.073069 -8.073069 
C -10.214072 -5.932066 -11.417043 -3.027835 -11.417043 0 
C -11.417043 3.027835 -10.214072 5.932066 -8.073069 8.073069 
C -5.932066 10.214072 -3.027835 11.417043 0 11.417043 
z
" style="stroke: #ff0000; stroke-opacity: 0.7"/>
    </defs>
    <g clip-path="url(#pbe7a674942)">
     <use xlink:href="#m8d6820035d" x="449.689406" y="225.004278" style="fill: #ff0000; fill-opacity: 0.7; stroke: #ff0000; stroke-opacity: 0.7"/>
    </g>
   </g>
   <g id="PathCollection_9">
    <defs>
     <path id="md963ba1aa5" d="M 0 9.042854 
C 2.398193 9.042854 4.698485 8.090042 6.394264 6.394264 
C 8.090042 4.698485 9.042854 2.398193 9.042854 0 
C 9.042854 -2.398193 8.090042 -4.698485 6.394264 -6.394264 
C 4.698485 -8.090042 2.398193 -9.042854 0 -9.042854 
C -2.398193 -9.042854 -4.698485 -8.090042 -6.394264 -6.394264 
C -8.090042 -4.698485 -9.042854 -2.398193 -9.042854 0 
C -9.042854 2.398193 -8.090042 4.698485 -6.394264 6.394264 
C -4.698485 8.090042 -2.398193 9.042854 0 9.042854 
z
" style="stroke: #ff0000; stroke-opacity: 0.7"/>
    </defs>
    <g clip-path="url(#pbe7a674942)">
     <use xlink:href="#md963ba1aa5" x="135.139701" y="181.29377" style="fill: #ff0000; fill-opacity: 0.7; stroke: #ff0000; stroke-opacity: 0.7"/>
    </g>
   </g>
   <g id="PathCollection_10">
    <defs>
     <path id="mf757fc72a1" d="M 0 6.588615 
C 1.747321 6.588615 3.423312 5.894397 4.658854 4.658854 
C 5.894397 3.423312 6.588615 1.747321 6.588615 0 
C 6.588615 -1.747321 5.894397 -3.423312 4.658854 -4.658854 
C 3.423312 -5.894397 1.747321 -6.588615 0 -6.588615 
C -1.747321 -6.588615 -3.423312 -5.894397 -4.658854 -4.658854 
C -5.894397 -3.423312 -6.588615 -1.747321 -6.588615 0 
C -6.588615 1.747321 -5.894397 3.423312 -4.658854 4.658854 
C -3.423312 5.894397 -1.747321 6.588615 0 6.588615 
z
" style="stroke: #ff00ff; stroke-opacity: 0.7"/>
    </defs>
    <g clip-path="url(#pbe7a674942)">
     <use xlink:href="#mf757fc72a1" x="64.470835" y="155.687903" style="fill: #ff00ff; fill-opacity: 0.7; stroke: #ff00ff; stroke-opacity: 0.7"/>
    </g>
   </g>
   <g id="PathCollection_11">
    <defs>
     <path id="mb67bdf380a" d="M 0 13.574645 
C 3.600038 13.574645 7.053112 12.144335 9.598724 9.598724 
C 12.144335 7.053112 13.574645 3.600038 13.574645 0 
C 13.574645 -3.600038 12.144335 -7.053112 9.598724 -9.598724 
C 7.053112 -12.144335 3.600038 -13.574645 0 -13.574645 
C -3.600038 -13.574645 -7.053112 -12.144335 -9.598724 -9.598724 
C -12.144335 -7.053112 -13.574645 -3.600038 -13.574645 0 
C -13.574645 3.600038 -12.144335 7.053112 -9.598724 9.598724 
C -7.053112 12.144335 -3.600038 13.574645 0 13.574645 
z
" style="stroke: #008000; stroke-opacity: 0.7"/>
    </defs>
    <g clip-path="url(#pbe7a674942)">
     <use xlink:href="#mb67bdf380a" x="420.21373" y="270.278109" style="fill: #008000; fill-opacity: 0.7; stroke: #008000; stroke-opacity: 0.7"/>
    </g>
   </g>
   <g id="PathCollection_12">
    <defs>
     <path id="m4b59e8a147" d="M 0 8.78037 
C 2.328581 8.78037 4.562103 7.855215 6.208659 6.208659 
C 7.855215 4.562103 8.78037 2.328581 8.78037 0 
C 8.78037 -2.328581 7.855215 -4.562103 6.208659 -6.208659 
C 4.562103 -7.855215 2.328581 -8.78037 0 -8.78037 
C -2.328581 -8.78037 -4.562103 -7.855215 -6.208659 -6.208659 
C -7.855215 -4.562103 -8.78037 -2.328581 -8.78037 0 
C -8.78037 2.328581 -7.855215 4.562103 -6.208659 6.208659 
C -4.562103 7.855215 -2.328581 8.78037 0 8.78037 
z
" style="stroke: #ff00ff; stroke-opacity: 0.7"/>
    </defs>
    <g clip-path="url(#pbe7a674942)">
     <use xlink:href="#m4b59e8a147" x="369.444352" y="97.515079" style="fill: #ff00ff; fill-opacity: 0.7; stroke: #ff00ff; stroke-opacity: 0.7"/>
    </g>
   </g>
   <g id="PathCollection_13">
    <defs>
     <path id="m730ecc6098" d="M 0 12.50658 
C 3.316784 12.50658 6.498167 11.188808 8.843488 8.843488 
C 11.188808 6.498167 12.50658 3.316784 12.50658 0 
C 12.50658 -3.316784 11.188808 -6.498167 8.843488 -8.843488 
C 6.498167 -11.188808 3.316784 -12.50658 0 -12.50658 
C -3.316784 -12.50658 -6.498167 -11.188808 -8.843488 -8.843488 
C -11.188808 -6.498167 -12.50658 -3.316784 -12.50658 0 
C -12.50658 3.316784 -11.188808 6.498167 -8.843488 8.843488 
C -6.498167 11.188808 -3.316784 12.50658 0 12.50658 
z
" style="stroke: #008000; stroke-opacity: 0.7"/>
    </defs>
    <g clip-path="url(#pbe7a674942)">
     <use xlink:href="#m730ecc6098" x="43.940771" y="198.858826" style="fill: #008000; fill-opacity: 0.7; stroke: #008000; stroke-opacity: 0.7"/>
    </g>
   </g>
   <g id="PathCollection_14">
    <defs>
     <path id="mdfdb2829de" d="M 0 10.327344 
C 2.738844 10.327344 5.36588 9.23919 7.302535 7.302535 
C 9.23919 5.36588 10.327344 2.738844 10.327344 0 
C 10.327344 -2.738844 9.23919 -5.36588 7.302535 -7.302535 
C 5.36588 -9.23919 2.738844 -10.327344 0 -10.327344 
C -2.738844 -10.327344 -5.36588 -9.23919 -7.302535 -7.302535 
C -9.23919 -5.36588 -10.327344 -2.738844 -10.327344 0 
C -10.327344 2.738844 -9.23919 5.36588 -7.302535 7.302535 
C -5.36588 9.23919 -2.738844 10.327344 0 10.327344 
z
" style="stroke: #4169e1; stroke-opacity: 0.7"/>
    </defs>
    <g clip-path="url(#pbe7a674942)">
     <use xlink:href="#mdfdb2829de" x="355.464057" y="245.426417" style="fill: #4169e1; fill-opacity: 0.7; stroke: #4169e1; stroke-opacity: 0.7"/>
    </g>
   </g>
   <g id="PathCollection_15">
    <defs>
     <path id="m4bfef933d3" d="M 0 8.346564 
C 2.213535 8.346564 4.336707 7.467118 5.901912 5.901912 
C 7.467118 4.336707 8.346564 2.213535 8.346564 0 
C 8.346564 -2.213535 7.467118 -4.336707 5.901912 -5.901912 
C 4.336707 -7.467118 2.213535 -8.346564 0 -8.346564 
C -2.213535 -8.346564 -4.336707 -7.467118 -5.901912 -5.901912 
C -7.467118 -4.336707 -8.346564 -2.213535 -8.346564 0 
C -8.346564 2.213535 -7.467118 4.336707 -5.901912 5.901912 
C -4.336707 7.467118 -2.213535 8.346564 0 8.346564 
z
" style="stroke: #008000; stroke-opacity: 0.7"/>
    </defs>
    <g clip-path="url(#pbe7a674942)">
     <use xlink:href="#m4bfef933d3" x="260.192051" y="256.766566" style="fill: #008000; fill-opacity: 0.7; stroke: #008000; stroke-opacity: 0.7"/>
    </g>
   </g>
   <g id="PathCollection_16">
    <defs>
     <path id="md9f380e7ca" d="M 0 12.208045 
C 3.237611 12.208045 6.343054 10.921728 8.632391 8.632391 
C 10.921728 6.343054 12.208045 3.237611 12.208045 0 
C 12.208045 -3.237611 10.921728 -6.343054 8.632391 -8.632391 
C 6.343054 -10.921728 3.237611 -12.208045 0 -12.208045 
C -3.237611 -12.208045 -6.343054 -10.921728 -8.632391 -8.632391 
C -10.921728 -6.343054 -12.208045 -3.237611 -12.208045 0 
C -12.208045 3.237611 -10.921728 6.343054 -8.632391 8.632391 
C -6.343054 10.921728 -3.237611 12.208045 0 12.208045 
z
" style="stroke: #ff00ff; stroke-opacity: 0.7"/>
    </defs>
    <g clip-path="url(#pbe7a674942)">
     <use xlink:href="#md9f380e7ca" x="160.850419" y="260.611432" style="fill: #ff00ff; fill-opacity: 0.7; stroke: #ff00ff; stroke-opacity: 0.7"/>
    </g>
   </g>
   <g id="PathCollection_17">
    <defs>
     <path id="mfa95d4bf4d" d="M 0 8.591858 
C 2.278587 8.591858 4.464156 7.686566 6.075361 6.075361 
C 7.686566 4.464156 8.591858 2.278587 8.591858 0 
C 8.591858 -2.278587 7.686566 -4.464156 6.075361 -6.075361 
C 4.464156 -7.686566 2.278587 -8.591858 0 -8.591858 
C -2.278587 -8.591858 -4.464156 -7.686566 -6.075361 -6.075361 
C -7.686566 -4.464156 -8.591858 -2.278587 -8.591858 0 
C -8.591858 2.278587 -7.686566 4.464156 -6.075361 6.075361 
C -4.464156 7.686566 -2.278587 8.591858 0 8.591858 
z
" style="stroke: #4169e1; stroke-opacity: 0.7"/>
    </defs>
    <g clip-path="url(#pbe7a674942)">
     <use xlink:href="#mfa95d4bf4d" x="51.64154" y="300.471683" style="fill: #4169e1; fill-opacity: 0.7; stroke: #4169e1; stroke-opacity: 0.7"/>
    </g>
   </g>
   <g id="PathCollection_18">
    <defs>
     <path id="m576bb16d41" d="M 0 6.588313 
C 1.747241 6.588313 3.423155 5.894126 4.658641 4.658641 
C 5.894126 3.423155 6.588313 1.747241 6.588313 0 
C 6.588313 -1.747241 5.894126 -3.423155 4.658641 -4.658641 
C 3.423155 -5.894126 1.747241 -6.588313 0 -6.588313 
C -1.747241 -6.588313 -3.423155 -5.894126 -4.658641 -4.658641 
C -5.894126 -3.423155 -6.588313 -1.747241 -6.588313 0 
C -6.588313 1.747241 -5.894126 3.423155 -4.658641 4.658641 
C -3.423155 5.894126 -1.747241 6.588313 0 6.588313 
z
" style="stroke: #4169e1; stroke-opacity: 0.7"/>
    </defs>
    <g clip-path="url(#pbe7a674942)">
     <use xlink:href="#m576bb16d41" x="285.121159" y="284.174848" style="fill: #4169e1; fill-opacity: 0.7; stroke: #4169e1; stroke-opacity: 0.7"/>
    </g>
   </g>
   <g id="PathCollection_19">
    <defs>
     <path id="m1fc4bf9af3" d="M 0 13.227975 
C 3.5081 13.227975 6.87299 11.834192 9.353591 9.353591 
C 11.834192 6.87299 13.227975 3.5081 13.227975 0 
C 13.227975 -3.5081 11.834192 -6.87299 9.353591 -9.353591 
C 6.87299 -11.834192 3.5081 -13.227975 0 -13.227975 
C -3.5081 -13.227975 -6.87299 -11.834192 -9.353591 -9.353591 
C -11.834192 -6.87299 -13.227975 -3.5081 -13.227975 0 
C -13.227975 3.5081 -11.834192 6.87299 -9.353591 9.353591 
C -6.87299 11.834192 -3.5081 13.227975 0 13.227975 
z
" style="stroke: #ff00ff; stroke-opacity: 0.7"/>
    </defs>
    <g clip-path="url(#pbe7a674942)">
     <use xlink:href="#m1fc4bf9af3" x="279.093464" y="168.233833" style="fill: #ff00ff; fill-opacity: 0.7; stroke: #ff00ff; stroke-opacity: 0.7"/>
    </g>
   </g>
   <g id="PathCollection_20">
    <defs>
     <path id="m5e72ad1d9a" d="M 0 9.754815 
C 2.587007 9.754815 5.068406 8.726986 6.897696 6.897696 
C 8.726986 5.068406 9.754815 2.587007 9.754815 0 
C 9.754815 -2.587007 8.726986 -5.068406 6.897696 -6.897696 
C 5.068406 -8.726986 2.587007 -9.754815 0 -9.754815 
C -2.587007 -9.754815 -5.068406 -8.726986 -6.897696 -6.897696 
C -8.726986 -5.068406 -9.754815 -2.587007 -9.754815 0 
C -9.754815 2.587007 -8.726986 5.068406 -6.897696 6.897696 
C -5.068406 8.726986 -2.587007 9.754815 0 9.754815 
z
" style="stroke: #4169e1; stroke-opacity: 0.7"/>
    </defs>
    <g clip-path="url(#pbe7a674942)">
     <use xlink:href="#m5e72ad1d9a" x="244.850931" y="30.939731" style="fill: #4169e1; fill-opacity: 0.7; stroke: #4169e1; stroke-opacity: 0.7"/>
    </g>
   </g>
   <g id="PathCollection_21">
    <defs>
     <path id="m07cc51aab3" d="M 0 13.997212 
C 3.712104 13.997212 7.27267 12.522378 9.897524 9.897524 
C 12.522378 7.27267 13.997212 3.712104 13.997212 0 
C 13.997212 -3.712104 12.522378 -7.27267 9.897524 -9.897524 
C 7.27267 -12.522378 3.712104 -13.997212 0 -13.997212 
C -3.712104 -13.997212 -7.27267 -12.522378 -9.897524 -9.897524 
C -12.522378 -7.27267 -13.997212 -3.712104 -13.997212 0 
C -13.997212 3.712104 -12.522378 7.27267 -9.897524 9.897524 
C -7.27267 12.522378 -3.712104 13.997212 0 13.997212 
z
" style="stroke: #4169e1; stroke-opacity: 0.7"/>
    </defs>
    <g clip-path="url(#pbe7a674942)">
     <use xlink:href="#m07cc51aab3" x="106.798016" y="232.021038" style="fill: #4169e1; fill-opacity: 0.7; stroke: #4169e1; stroke-opacity: 0.7"/>
    </g>
   </g>
   <g id="PathCollection_22">
    <defs>
     <path id="m0c6cb95efe" d="M 0 10.616066 
C 2.815414 10.616066 5.515894 9.49749 7.506692 7.506692 
C 9.49749 5.515894 10.616066 2.815414 10.616066 0 
C 10.616066 -2.815414 9.49749 -5.515894 7.506692 -7.506692 
C 5.515894 -9.49749 2.815414 -10.616066 0 -10.616066 
C -2.815414 -10.616066 -5.515894 -9.49749 -7.506692 -7.506692 
C -9.49749 -5.515894 -10.616066 -2.815414 -10.616066 0 
C -10.616066 2.815414 -9.49749 5.515894 -7.506692 7.506692 
C -5.515894 9.49749 -2.815414 10.616066 0 10.616066 
z
" style="stroke: #ff00ff; stroke-opacity: 0.7"/>
    </defs>
    <g clip-path="url(#pbe7a674942)">
     <use xlink:href="#m0c6cb95efe" x="186.270272" y="141.192898" style="fill: #ff00ff; fill-opacity: 0.7; stroke: #ff00ff; stroke-opacity: 0.7"/>
    </g>
   </g>
   <g id="PathCollection_23">
    <defs>
     <path id="m2f2f1b85a3" d="M 0 8.783821 
C 2.329497 8.783821 4.563897 7.858302 6.211099 6.211099 
C 7.858302 4.563897 8.783821 2.329497 8.783821 0 
C 8.783821 -2.329497 7.858302 -4.563897 6.211099 -6.211099 
C 4.563897 -7.858302 2.329497 -8.783821 0 -8.783821 
C -2.329497 -8.783821 -4.563897 -7.858302 -6.211099 -6.211099 
C -7.858302 -4.563897 -8.783821 -2.329497 -8.783821 0 
C -8.783821 2.329497 -7.858302 4.563897 -6.211099 6.211099 
C -4.563897 7.858302 -2.329497 8.783821 0 8.783821 
z
" style="stroke: #ff00ff; stroke-opacity: 0.7"/>
    </defs>
    <g clip-path="url(#pbe7a674942)">
     <use xlink:href="#m2f2f1b85a3" x="176.873994" y="249.001604" style="fill: #ff00ff; fill-opacity: 0.7; stroke: #ff00ff; stroke-opacity: 0.7"/>
    </g>
   </g>
   <g id="PathCollection_24">
    <defs>
     <path id="m221aea5f03" d="M 0 10.071267 
C 2.670931 10.071267 5.232828 9.010095 7.121461 7.121461 
C 9.010095 5.232828 10.071267 2.670931 10.071267 0 
C 10.071267 -2.670931 9.010095 -5.232828 7.121461 -7.121461 
C 5.232828 -9.010095 2.670931 -10.071267 0 -10.071267 
C -2.670931 -10.071267 -5.232828 -9.010095 -7.121461 -7.121461 
C -9.010095 -5.232828 -10.071267 -2.670931 -10.071267 0 
C -10.071267 2.670931 -9.010095 5.232828 -7.121461 7.121461 
C -5.232828 9.010095 -2.670931 10.071267 0 10.071267 
z
" style="stroke: #ff0000; stroke-opacity: 0.7"/>
    </defs>
    <g clip-path="url(#pbe7a674942)">
     <use xlink:href="#m221aea5f03" x="147.599085" y="243.540633" style="fill: #ff0000; fill-opacity: 0.7; stroke: #ff0000; stroke-opacity: 0.7"/>
    </g>
   </g>
   <g id="PathCollection_25">
    <defs>
     <path id="me0efdecceb" d="M 0 9.849204 
C 2.612039 9.849204 5.117448 8.81143 6.964439 6.964439 
C 8.81143 5.117448 9.849204 2.612039 9.849204 0 
C 9.849204 -2.612039 8.81143 -5.117448 6.964439 -6.964439 
C 5.117448 -8.81143 2.612039 -9.849204 0 -9.849204 
C -2.612039 -9.849204 -5.117448 -8.81143 -6.964439 -6.964439 
C -8.81143 -5.117448 -9.849204 -2.612039 -9.849204 0 
C -9.849204 2.612039 -8.81143 5.117448 -6.964439 6.964439 
C -5.117448 8.81143 -2.612039 9.849204 0 9.849204 
z
" style="stroke: #4169e1; stroke-opacity: 0.7"/>
    </defs>
    <g clip-path="url(#pbe7a674942)">
     <use xlink:href="#me0efdecceb" x="426.633655" y="241.216447" style="fill: #4169e1; fill-opacity: 0.7; stroke: #4169e1; stroke-opacity: 0.7"/>
    </g>
   </g>
   <g id="PathCollection_26">
    <defs>
     <path id="m38d49e9eef" d="M 0 5.346788 
C 1.417985 5.346788 2.778083 4.783417 3.78075 3.78075 
C 4.783417 2.778083 5.346788 1.417985 5.346788 0 
C 5.346788 -1.417985 4.783417 -2.778083 3.78075 -3.78075 
C 2.778083 -4.783417 1.417985 -5.346788 0 -5.346788 
C -1.417985 -5.346788 -2.778083 -4.783417 -3.78075 -3.78075 
C -4.783417 -2.778083 -5.346788 -1.417985 -5.346788 0 
C -5.346788 1.417985 -4.783417 2.778083 -3.78075 3.78075 
C -2.778083 4.783417 -1.417985 5.346788 0 5.346788 
z
" style="stroke: #008000; stroke-opacity: 0.7"/>
    </defs>
    <g clip-path="url(#pbe7a674942)">
     <use xlink:href="#m38d49e9eef" x="387.549571" y="64.969538" style="fill: #008000; fill-opacity: 0.7; stroke: #008000; stroke-opacity: 0.7"/>
    </g>
   </g>
   <g id="PathCollection_27">
    <defs>
     <path id="ma672d77cb3" d="M 0 5.103527 
C 1.353471 5.103527 2.65169 4.565787 3.608738 3.608738 
C 4.565787 2.65169 5.103527 1.353471 5.103527 0 
C 5.103527 -1.353471 4.565787 -2.65169 3.608738 -3.608738 
C 2.65169 -4.565787 1.353471 -5.103527 0 -5.103527 
C -1.353471 -5.103527 -2.65169 -4.565787 -3.608738 -3.608738 
C -4.565787 -2.65169 -5.103527 -1.353471 -5.103527 0 
C -5.103527 1.353471 -4.565787 2.65169 -3.608738 3.608738 
C -2.65169 4.565787 -1.353471 5.103527 0 5.103527 
z
" style="stroke: #008000; stroke-opacity: 0.7"/>
    </defs>
    <g clip-path="url(#pbe7a674942)">
     <use xlink:href="#ma672d77cb3" x="196.565322" y="288.101023" style="fill: #008000; fill-opacity: 0.7; stroke: #008000; stroke-opacity: 0.7"/>
    </g>
   </g>
   <g id="PathCollection_28">
    <defs>
     <path id="mdd69d052f3" d="M 0 12.156293 
C 3.223887 12.156293 6.316165 10.87543 8.595797 8.595797 
C 10.87543 6.316165 12.156293 3.223887 12.156293 0 
C 12.156293 -3.223887 10.87543 -6.316165 8.595797 -8.595797 
C 6.316165 -10.87543 3.223887 -12.156293 0 -12.156293 
C -3.223887 -12.156293 -6.316165 -10.87543 -8.595797 -8.595797 
C -10.87543 -6.316165 -12.156293 -3.223887 -12.156293 0 
C -12.156293 3.223887 -10.87543 6.316165 -8.595797 8.595797 
C -6.316165 10.87543 -3.223887 12.156293 0 12.156293 
z
" style="stroke: #ff0000; stroke-opacity: 0.7"/>
    </defs>
    <g clip-path="url(#pbe7a674942)">
     <use xlink:href="#mdd69d052f3" x="51.994583" y="294.343972" style="fill: #ff0000; fill-opacity: 0.7; stroke: #ff0000; stroke-opacity: 0.7"/>
    </g>
   </g>
   <g id="PathCollection_29">
    <defs>
     <path id="m55fc15e01d" d="M 0 11.454732 
C 3.03783 11.454732 5.951648 10.247789 8.099719 8.099719 
C 10.247789 5.951648 11.454732 3.03783 11.454732 0 
C 11.454732 -3.03783 10.247789 -5.951648 8.099719 -8.099719 
C 5.951648 -10.247789 3.03783 -11.454732 0 -11.454732 
C -3.03783 -11.454732 -5.951648 -10.247789 -8.099719 -8.099719 
C -10.247789 -5.951648 -11.454732 -3.03783 -11.454732 0 
C -11.454732 3.03783 -10.247789 5.951648 -8.099719 8.099719 
C -5.951648 10.247789 -3.03783 11.454732 0 11.454732 
z
" style="stroke: #ff0000; stroke-opacity: 0.7"/>
    </defs>
    <g clip-path="url(#pbe7a674942)">
     <use xlink:href="#m55fc15e01d" x="191.254548" y="122.880355" style="fill: #ff0000; fill-opacity: 0.7; stroke: #ff0000; stroke-opacity: 0.7"/>
    </g>
   </g>
   <g id="PathCollection_30">
    <defs>
     <path id="mac2df28e65" d="M 0 5.557675 
C 1.473913 5.557675 2.887656 4.972083 3.929869 3.929869 
C 4.972083 2.887656 5.557675 1.473913 5.557675 0 
C 5.557675 -1.473913 4.972083 -2.887656 3.929869 -3.929869 
C 2.887656 -4.972083 1.473913 -5.557675 0 -5.557675 
C -1.473913 -5.557675 -2.887656 -4.972083 -3.929869 -3.929869 
C -4.972083 -2.887656 -5.557675 -1.473913 -5.557675 0 
C -5.557675 1.473913 -4.972083 2.887656 -3.929869 3.929869 
C -2.887656 4.972083 -1.473913 5.557675 0 5.557675 
z
" style="stroke: #4169e1; stroke-opacity: 0.7"/>
    </defs>
    <g clip-path="url(#pbe7a674942)">
     <use xlink:href="#mac2df28e65" x="423.946141" y="208.986032" style="fill: #4169e1; fill-opacity: 0.7; stroke: #4169e1; stroke-opacity: 0.7"/>
    </g>
   </g>
   <g id="PathCollection_31">
    <defs>
     <path id="m70c404e9cf" d="M 0 8.554444 
C 2.268665 8.554444 4.444717 7.653094 6.048905 6.048905 
C 7.653094 4.444717 8.554444 2.268665 8.554444 0 
C 8.554444 -2.268665 7.653094 -4.444717 6.048905 -6.048905 
C 4.444717 -7.653094 2.268665 -8.554444 0 -8.554444 
C -2.268665 -8.554444 -4.444717 -7.653094 -6.048905 -6.048905 
C -7.653094 -4.444717 -8.554444 -2.268665 -8.554444 0 
C -8.554444 2.268665 -7.653094 4.444717 -6.048905 6.048905 
C -4.444717 7.653094 -2.268665 8.554444 0 8.554444 
z
" style="stroke: #ff0000; stroke-opacity: 0.7"/>
    </defs>
    <g clip-path="url(#pbe7a674942)">
     <use xlink:href="#m70c404e9cf" x="177.779213" y="41.932132" style="fill: #ff0000; fill-opacity: 0.7; stroke: #ff0000; stroke-opacity: 0.7"/>
    </g>
   </g>
   <g id="PathCollection_32">
    <defs>
     <path id="m45efb32776" d="M 0 11.82828 
C 3.136896 11.82828 6.145736 10.581978 8.363857 8.363857 
C 10.581978 6.145736 11.82828 3.136896 11.82828 0 
C 11.82828 -3.136896 10.581978 -6.145736 8.363857 -8.363857 
C 6.145736 -10.581978 3.136896 -11.82828 0 -11.82828 
C -3.136896 -11.82828 -6.145736 -10.581978 -8.363857 -8.363857 
C -10.581978 -6.145736 -11.82828 -3.136896 -11.82828 0 
C -11.82828 3.136896 -10.581978 6.145736 -8.363857 8.363857 
C -6.145736 10.581978 -3.136896 11.82828 0 11.82828 
z
" style="stroke: #ff0000; stroke-opacity: 0.7"/>
    </defs>
    <g clip-path="url(#pbe7a674942)">
     <use xlink:href="#m45efb32776" x="184.364509" y="325.690066" style="fill: #ff0000; fill-opacity: 0.7; stroke: #ff0000; stroke-opacity: 0.7"/>
    </g>
   </g>
   <g id="PathCollection_33">
    <defs>
     <path id="md5f8743738" d="M 0 9.241934 
C 2.45099 9.241934 4.801923 8.268145 6.535034 6.535034 
C 8.268145 4.801923 9.241934 2.45099 9.241934 0 
C 9.241934 -2.45099 8.268145 -4.801923 6.535034 -6.535034 
C 4.801923 -8.268145 2.45099 -9.241934 0 -9.241934 
C -2.45099 -9.241934 -4.801923 -8.268145 -6.535034 -6.535034 
C -8.268145 -4.801923 -9.241934 -2.45099 -9.241934 0 
C -9.241934 2.45099 -8.268145 4.801923 -6.535034 6.535034 
C -4.801923 8.268145 -2.45099 9.241934 0 9.241934 
z
" style="stroke: #ff00ff; stroke-opacity: 0.7"/>
    </defs>
    <g clip-path="url(#pbe7a674942)">
     <use xlink:href="#md5f8743738" x="241.692413" y="307.168289" style="fill: #ff00ff; fill-opacity: 0.7; stroke: #ff00ff; stroke-opacity: 0.7"/>
    </g>
   </g>
   <g id="PathCollection_34">
    <defs>
     <path id="m89ac378164" d="M 0 12.571847 
C 3.334093 12.571847 6.532079 11.247198 8.889638 8.889638 
C 11.247198 6.532079 12.571847 3.334093 12.571847 0 
C 12.571847 -3.334093 11.247198 -6.532079 8.889638 -8.889638 
C 6.532079 -11.247198 3.334093 -12.571847 0 -12.571847 
C -3.334093 -12.571847 -6.532079 -11.247198 -8.889638 -8.889638 
C -11.247198 -6.532079 -12.571847 -3.334093 -12.571847 0 
C -12.571847 3.334093 -11.247198 6.532079 -8.889638 8.889638 
C -6.532079 11.247198 -3.334093 12.571847 0 12.571847 
z
" style="stroke: #ff00ff; stroke-opacity: 0.7"/>
    </defs>
    <g clip-path="url(#pbe7a674942)">
     <use xlink:href="#m89ac378164" x="220.08734" y="102.301149" style="fill: #ff00ff; fill-opacity: 0.7; stroke: #ff00ff; stroke-opacity: 0.7"/>
    </g>
   </g>
   <g id="PathCollection_35">
    <defs>
     <path id="m255fe741d7" d="M 0 10.121458 
C 2.684242 10.121458 5.258906 9.054997 7.156952 7.156952 
C 9.054997 5.258906 10.121458 2.684242 10.121458 0 
C 10.121458 -2.684242 9.054997 -5.258906 7.156952 -7.156952 
C 5.258906 -9.054997 2.684242 -10.121458 0 -10.121458 
C -2.684242 -10.121458 -5.258906 -9.054997 -7.156952 -7.156952 
C -9.054997 -5.258906 -10.121458 -2.684242 -10.121458 0 
C -10.121458 2.684242 -9.054997 5.258906 -7.156952 7.156952 
C -5.258906 9.054997 -2.684242 10.121458 0 10.121458 
z
" style="stroke: #008000; stroke-opacity: 0.7"/>
    </defs>
    <g clip-path="url(#pbe7a674942)">
     <use xlink:href="#m255fe741d7" x="146.618781" y="12.018535" style="fill: #008000; fill-opacity: 0.7; stroke: #008000; stroke-opacity: 0.7"/>
    </g>
   </g>
   <g id="PathCollection_36">
    <defs>
     <path id="m847d76f0ec" d="M 0 13.428286 
C 3.561223 13.428286 6.977067 12.013397 9.495232 9.495232 
C 12.013397 6.977067 13.428286 3.561223 13.428286 0 
C 13.428286 -3.561223 12.013397 -6.977067 9.495232 -9.495232 
C 6.977067 -12.013397 3.561223 -13.428286 0 -13.428286 
C -3.561223 -13.428286 -6.977067 -12.013397 -9.495232 -9.495232 
C -12.013397 -6.977067 -13.428286 -3.561223 -13.428286 0 
C -13.428286 3.561223 -12.013397 6.977067 -9.495232 9.495232 
C -6.977067 12.013397 -3.561223 13.428286 0 13.428286 
z
" style="stroke: #ff0000; stroke-opacity: 0.7"/>
    </defs>
    <g clip-path="url(#pbe7a674942)">
     <use xlink:href="#m847d76f0ec" x="308.537632" y="28.461892" style="fill: #ff0000; fill-opacity: 0.7; stroke: #ff0000; stroke-opacity: 0.7"/>
    </g>
   </g>
   <g id="PathCollection_37">
    <defs>
     <path id="m766d658432" d="M 0 11.215667 
C 2.97443 11.215667 5.827435 10.033914 7.930674 7.930674 
C 10.033914 5.827435 11.215667 2.97443 11.215667 0 
C 11.215667 -2.97443 10.033914 -5.827435 7.930674 -7.930674 
C 5.827435 -10.033914 2.97443 -11.215667 0 -11.215667 
C -2.97443 -11.215667 -5.827435 -10.033914 -7.930674 -7.930674 
C -10.033914 -5.827435 -11.215667 -2.97443 -11.215667 0 
C -11.215667 2.97443 -10.033914 5.827435 -7.930674 7.930674 
C -5.827435 10.033914 -2.97443 11.215667 0 11.215667 
z
" style="stroke: #008000; stroke-opacity: 0.7"/>
    </defs>
    <g clip-path="url(#pbe7a674942)">
     <use xlink:href="#m766d658432" x="435.767944" y="319.670145" style="fill: #008000; fill-opacity: 0.7; stroke: #008000; stroke-opacity: 0.7"/>
    </g>
   </g>
   <g id="PathCollection_38">
    <defs>
     <path id="m55efa43c8a" d="M 0 10.00225 
C 2.652628 10.00225 5.196968 8.94835 7.072659 7.072659 
C 8.94835 5.196968 10.00225 2.652628 10.00225 0 
C 10.00225 -2.652628 8.94835 -5.196968 7.072659 -7.072659 
C 5.196968 -8.94835 2.652628 -10.00225 0 -10.00225 
C -2.652628 -10.00225 -5.196968 -8.94835 -7.072659 -7.072659 
C -8.94835 -5.196968 -10.00225 -2.652628 -10.00225 0 
C -10.00225 2.652628 -8.94835 5.196968 -7.072659 7.072659 
C -5.196968 8.94835 -2.652628 10.00225 0 10.00225 
z
" style="stroke: #4169e1; stroke-opacity: 0.7"/>
    </defs>
    <g clip-path="url(#pbe7a674942)">
     <use xlink:href="#m55efa43c8a" x="191.175979" y="312.349596" style="fill: #4169e1; fill-opacity: 0.7; stroke: #4169e1; stroke-opacity: 0.7"/>
    </g>
   </g>
   <g id="PathCollection_39">
    <defs>
     <path id="m12f475f89e" d="M 0 11.567704 
C 3.067791 11.567704 6.010346 10.348858 8.179602 8.179602 
C 10.348858 6.010346 11.567704 3.067791 11.567704 0 
C 11.567704 -3.067791 10.348858 -6.010346 8.179602 -8.179602 
C 6.010346 -10.348858 3.067791 -11.567704 0 -11.567704 
C -3.067791 -11.567704 -6.010346 -10.348858 -8.179602 -8.179602 
C -10.348858 -6.010346 -11.567704 -3.067791 -11.567704 0 
C -11.567704 3.067791 -10.348858 6.010346 -8.179602 8.179602 
C -6.010346 10.348858 -3.067791 11.567704 0 11.567704 
z
" style="stroke: #ff00ff; stroke-opacity: 0.7"/>
    </defs>
    <g clip-path="url(#pbe7a674942)">
     <use xlink:href="#m12f475f89e" x="365.369282" y="308.898572" style="fill: #ff00ff; fill-opacity: 0.7; stroke: #ff00ff; stroke-opacity: 0.7"/>
    </g>
   </g>
   <g id="PathCollection_40">
    <defs>
     <path id="m841c916d49" d="M 0 13.274709 
C 3.520494 13.274709 6.897271 11.876002 9.386637 9.386637 
C 11.876002 6.897271 13.274709 3.520494 13.274709 0 
C 13.274709 -3.520494 11.876002 -6.897271 9.386637 -9.386637 
C 6.897271 -11.876002 3.520494 -13.274709 0 -13.274709 
C -3.520494 -13.274709 -6.897271 -11.876002 -9.386637 -9.386637 
C -11.876002 -6.897271 -13.274709 -3.520494 -13.274709 0 
C -13.274709 3.520494 -11.876002 6.897271 -9.386637 9.386637 
C -6.897271 11.876002 -3.520494 13.274709 0 13.274709 
z
" style="stroke: #ff0000; stroke-opacity: 0.7"/>
    </defs>
    <g clip-path="url(#pbe7a674942)">
     <use xlink:href="#m841c916d49" x="307.816334" y="298.933399" style="fill: #ff0000; fill-opacity: 0.7; stroke: #ff0000; stroke-opacity: 0.7"/>
    </g>
   </g>
   <g id="PathCollection_41">
    <defs>
     <path id="m8e0a5c0bd9" d="M 0 10.597595 
C 2.810515 10.597595 5.506297 9.480965 7.493631 7.493631 
C 9.480965 5.506297 10.597595 2.810515 10.597595 0 
C 10.597595 -2.810515 9.480965 -5.506297 7.493631 -7.493631 
C 5.506297 -9.480965 2.810515 -10.597595 0 -10.597595 
C -2.810515 -10.597595 -5.506297 -9.480965 -7.493631 -7.493631 
C -9.480965 -5.506297 -10.597595 -2.810515 -10.597595 0 
C -10.597595 2.810515 -9.480965 5.506297 -7.493631 7.493631 
C -5.506297 9.480965 -2.810515 10.597595 0 10.597595 
z
" style="stroke: #008000; stroke-opacity: 0.7"/>
    </defs>
    <g clip-path="url(#pbe7a674942)">
     <use xlink:href="#m8e0a5c0bd9" x="135.572367" y="11.252276" style="fill: #008000; fill-opacity: 0.7; stroke: #008000; stroke-opacity: 0.7"/>
    </g>
   </g>
   <g id="PathCollection_42">
    <defs>
     <path id="m346b6091c7" d="M 0 8.766459 
C 2.324892 8.766459 4.554876 7.84277 6.198823 6.198823 
C 7.84277 4.554876 8.766459 2.324892 8.766459 0 
C 8.766459 -2.324892 7.84277 -4.554876 6.198823 -6.198823 
C 4.554876 -7.84277 2.324892 -8.766459 0 -8.766459 
C -2.324892 -8.766459 -4.554876 -7.84277 -6.198823 -6.198823 
C -7.84277 -4.554876 -8.766459 -2.324892 -8.766459 0 
C -8.766459 2.324892 -7.84277 4.554876 -6.198823 6.198823 
C -4.554876 7.84277 -2.324892 8.766459 0 8.766459 
z
" style="stroke: #ff00ff; stroke-opacity: 0.7"/>
    </defs>
    <g clip-path="url(#pbe7a674942)">
     <use xlink:href="#m346b6091c7" x="145.626934" y="227.796229" style="fill: #ff00ff; fill-opacity: 0.7; stroke: #ff00ff; stroke-opacity: 0.7"/>
    </g>
   </g>
   <g id="PathCollection_43">
    <defs>
     <path id="macb32502d2" d="M 0 11.045448 
C 2.929287 11.045448 5.738992 9.88163 7.810311 7.810311 
C 9.88163 5.738992 11.045448 2.929287 11.045448 0 
C 11.045448 -2.929287 9.88163 -5.738992 7.810311 -7.810311 
C 5.738992 -9.88163 2.929287 -11.045448 0 -11.045448 
C -2.929287 -11.045448 -5.738992 -9.88163 -7.810311 -7.810311 
C -9.88163 -5.738992 -11.045448 -2.929287 -11.045448 0 
C -11.045448 2.929287 -9.88163 5.738992 -7.810311 7.810311 
C -5.738992 9.88163 -2.929287 11.045448 0 11.045448 
z
" style="stroke: #ff00ff; stroke-opacity: 0.7"/>
    </defs>
    <g clip-path="url(#pbe7a674942)">
     <use xlink:href="#macb32502d2" x="116.529954" y="30.557831" style="fill: #ff00ff; fill-opacity: 0.7; stroke: #ff00ff; stroke-opacity: 0.7"/>
    </g>
   </g>
   <g id="PathCollection_44">
    <defs>
     <path id="m12ce314c59" d="M 0 10.762295 
C 2.854194 10.762295 5.591872 9.628311 7.610092 7.610092 
C 9.628311 5.591872 10.762295 2.854194 10.762295 0 
C 10.762295 -2.854194 9.628311 -5.591872 7.610092 -7.610092 
C 5.591872 -9.628311 2.854194 -10.762295 0 -10.762295 
C -2.854194 -10.762295 -5.591872 -9.628311 -7.610092 -7.610092 
C -9.628311 -5.591872 -10.762295 -2.854194 -10.762295 0 
C -10.762295 2.854194 -9.628311 5.591872 -7.610092 7.610092 
C -5.591872 9.628311 -2.854194 10.762295 0 10.762295 
z
" style="stroke: #4169e1; stroke-opacity: 0.7"/>
    </defs>
    <g clip-path="url(#pbe7a674942)">
     <use xlink:href="#m12ce314c59" x="77.636155" y="138.124327" style="fill: #4169e1; fill-opacity: 0.7; stroke: #4169e1; stroke-opacity: 0.7"/>
    </g>
   </g>
   <g id="PathCollection_45">
    <defs>
     <path id="ma250373e98" d="M 0 5.087447 
C 1.349207 5.087447 2.643335 4.551401 3.597368 3.597368 
C 4.551401 2.643335 5.087447 1.349207 5.087447 0 
C 5.087447 -1.349207 4.551401 -2.643335 3.597368 -3.597368 
C 2.643335 -4.551401 1.349207 -5.087447 0 -5.087447 
C -1.349207 -5.087447 -2.643335 -4.551401 -3.597368 -3.597368 
C -4.551401 -2.643335 -5.087447 -1.349207 -5.087447 0 
C -5.087447 1.349207 -4.551401 2.643335 -3.597368 3.597368 
C -2.643335 4.551401 -1.349207 5.087447 0 5.087447 
z
" style="stroke: #4169e1; stroke-opacity: 0.7"/>
    </defs>
    <g clip-path="url(#pbe7a674942)">
     <use xlink:href="#ma250373e98" x="269.426421" y="83.165531" style="fill: #4169e1; fill-opacity: 0.7; stroke: #4169e1; stroke-opacity: 0.7"/>
    </g>
   </g>
   <g id="PathCollection_46">
    <defs>
     <path id="m1ad9427b84" d="M 0 9.788942 
C 2.596058 9.788942 5.086137 8.757518 6.921827 6.921827 
C 8.757518 5.086137 9.788942 2.596058 9.788942 0 
C 9.788942 -2.596058 8.757518 -5.086137 6.921827 -6.921827 
C 5.086137 -8.757518 2.596058 -9.788942 0 -9.788942 
C -2.596058 -9.788942 -5.086137 -8.757518 -6.921827 -6.921827 
C -8.757518 -5.086137 -9.788942 -2.596058 -9.788942 0 
C -9.788942 2.596058 -8.757518 5.086137 -6.921827 6.921827 
C -5.086137 8.757518 -2.596058 9.788942 0 9.788942 
z
" style="stroke: #ff0000; stroke-opacity: 0.7"/>
    </defs>
    <g clip-path="url(#pbe7a674942)">
     <use xlink:href="#m1ad9427b84" x="136.222452" y="218.78051" style="fill: #ff0000; fill-opacity: 0.7; stroke: #ff0000; stroke-opacity: 0.7"/>
    </g>
   </g>
   <g id="PathCollection_47">
    <defs>
     <path id="m227b09f0e1" d="M 0 12.438532 
C 3.298737 12.438532 6.462811 11.12793 8.79537 8.79537 
C 11.12793 6.462811 12.438532 3.298737 12.438532 0 
C 12.438532 -3.298737 11.12793 -6.462811 8.79537 -8.79537 
C 6.462811 -11.12793 3.298737 -12.438532 0 -12.438532 
C -3.298737 -12.438532 -6.462811 -11.12793 -8.79537 -8.79537 
C -11.12793 -6.462811 -12.438532 -3.298737 -12.438532 0 
C -12.438532 3.298737 -11.12793 6.462811 -8.79537 8.79537 
C -6.462811 11.12793 -3.298737 12.438532 0 12.438532 
z
" style="stroke: #ff0000; stroke-opacity: 0.7"/>
    </defs>
    <g clip-path="url(#pbe7a674942)">
     <use xlink:href="#m227b09f0e1" x="50.952511" y="197.388725" style="fill: #ff0000; fill-opacity: 0.7; stroke: #ff0000; stroke-opacity: 0.7"/>
    </g>
   </g>
   <g id="PathCollection_48">
    <defs>
     <path id="mb7d55a7620" d="M 0 7.339534 
C 1.946467 7.339534 3.813474 6.566194 5.189834 5.189834 
C 6.566194 3.813474 7.339534 1.946467 7.339534 0 
C 7.339534 -1.946467 6.566194 -3.813474 5.189834 -5.189834 
C 3.813474 -6.566194 1.946467 -7.339534 0 -7.339534 
C -1.946467 -7.339534 -3.813474 -6.566194 -5.189834 -5.189834 
C -6.566194 -3.813474 -7.339534 -1.946467 -7.339534 0 
C -7.339534 1.946467 -6.566194 3.813474 -5.189834 5.189834 
C -3.813474 6.566194 -1.946467 7.339534 0 7.339534 
z
" style="stroke: #ff0000; stroke-opacity: 0.7"/>
    </defs>
    <g clip-path="url(#pbe7a674942)">
     <use xlink:href="#mb7d55a7620" x="345.407818" y="300.616749" style="fill: #ff0000; fill-opacity: 0.7; stroke: #ff0000; stroke-opacity: 0.7"/>
    </g>
   </g>
   <g id="PathCollection_49">
    <defs>
     <path id="maebe46bc02" d="M 0 10.87129 
C 2.8831 10.87129 5.648503 9.725822 7.687163 7.687163 
C 9.725822 5.648503 10.87129 2.8831 10.87129 0 
C 10.87129 -2.8831 9.725822 -5.648503 7.687163 -7.687163 
C 5.648503 -9.725822 2.8831 -10.87129 0 -10.87129 
C -2.8831 -10.87129 -5.648503 -9.725822 -7.687163 -7.687163 
C -9.725822 -5.648503 -10.87129 -2.8831 -10.87129 0 
C -10.87129 2.8831 -9.725822 5.648503 -7.687163 7.687163 
C -5.648503 9.725822 -2.8831 10.87129 0 10.87129 
z
" style="stroke: #ff0000; stroke-opacity: 0.7"/>
    </defs>
    <g clip-path="url(#pbe7a674942)">
     <use xlink:href="#maebe46bc02" x="308.260229" y="276.379962" style="fill: #ff0000; fill-opacity: 0.7; stroke: #ff0000; stroke-opacity: 0.7"/>
    </g>
   </g>
   <g id="PathCollection_50">
    <defs>
     <path id="mccbaeeba2f" d="M 0 8.039524 
C 2.132107 8.039524 4.177175 7.192429 5.684802 5.684802 
C 7.192429 4.177175 8.039524 2.132107 8.039524 0 
C 8.039524 -2.132107 7.192429 -4.177175 5.684802 -5.684802 
C 4.177175 -7.192429 2.132107 -8.039524 0 -8.039524 
C -2.132107 -8.039524 -4.177175 -7.192429 -5.684802 -5.684802 
C -7.192429 -4.177175 -8.039524 -2.132107 -8.039524 0 
C -8.039524 2.132107 -7.192429 4.177175 -5.684802 5.684802 
C -4.177175 7.192429 -2.132107 8.039524 0 8.039524 
z
" style="stroke: #ff00ff; stroke-opacity: 0.7"/>
    </defs>
    <g clip-path="url(#pbe7a674942)">
     <use xlink:href="#mccbaeeba2f" x="427.865706" y="291.167322" style="fill: #ff00ff; fill-opacity: 0.7; stroke: #ff00ff; stroke-opacity: 0.7"/>
    </g>
   </g>
   <g id="text_1">
    <!-- 2 -->
    <g style="fill: #4169e1" transform="translate(16.314637 206.26875) scale(1.8 -1.8)">
     <defs>
      <path id="DejaVuSans-Bold-32" d="M 1844 884 
L 3897 884 
L 3897 0 
L 506 0 
L 506 884 
L 2209 2388 
Q 2438 2594 2547 2791 
Q 2656 2988 2656 3200 
Q 2656 3528 2436 3728 
Q 2216 3928 1850 3928 
Q 1569 3928 1234 3808 
Q 900 3688 519 3450 
L 519 4475 
Q 925 4609 1322 4679 
Q 1719 4750 2100 4750 
Q 2938 4750 3402 4381 
Q 3866 4013 3866 3353 
Q 3866 2972 3669 2642 
Q 3472 2313 2841 1759 
L 1844 884 
z
" transform="scale(0.015625)"/>
     </defs>
     <use xlink:href="#DejaVuSans-Bold-32"/>
    </g>
   </g>
   <g id="text_2">
    <!-- 0 -->
    <g style="fill: #ff0000" transform="translate(107.019427 206.26875) scale(1.8 -1.8)">
     <defs>
      <path id="DejaVuSans-Bold-30" d="M 2944 2338 
Q 2944 3213 2780 3570 
Q 2616 3928 2228 3928 
Q 1841 3928 1675 3570 
Q 1509 3213 1509 2338 
Q 1509 1453 1675 1090 
Q 1841 728 2228 728 
Q 2613 728 2778 1090 
Q 2944 1453 2944 2338 
z
M 4147 2328 
Q 4147 1169 3647 539 
Q 3147 -91 2228 -91 
Q 1306 -91 806 539 
Q 306 1169 306 2328 
Q 306 3491 806 4120 
Q 1306 4750 2228 4750 
Q 3147 4750 3647 4120 
Q 4147 3491 4147 2328 
z
" transform="scale(0.015625)"/>
     </defs>
     <use xlink:href="#DejaVuSans-Bold-30"/>
    </g>
   </g>
   <g id="text_3">
    <!-- 2 -->
    <g style="fill: #ff00ff" transform="translate(197.724217 206.26875) scale(1.8 -1.8)">
     <use xlink:href="#DejaVuSans-Bold-32"/>
    </g>
   </g>
   <g id="text_4">
    <!-- 5 -->
    <g style="fill: #008000" transform="translate(288.429007 206.26875) scale(1.8 -1.8)">
     <defs>
      <path id="DejaVuSans-Bold-35" d="M 678 4666 
L 3669 4666 
L 3669 3781 
L 1638 3781 
L 1638 3059 
Q 1775 3097 1914 3117 
Q 2053 3138 2203 3138 
Q 3056 3138 3531 2711 
Q 4006 2284 4006 1522 
Q 4006 766 3489 337 
Q 2972 -91 2053 -91 
Q 1656 -91 1267 -14 
Q 878 63 494 219 
L 494 1166 
Q 875 947 1217 837 
Q 1559 728 1863 728 
Q 2300 728 2551 942 
Q 2803 1156 2803 1522 
Q 2803 1891 2551 2103 
Q 2300 2316 1863 2316 
Q 1603 2316 1309 2248 
Q 1016 2181 678 2041 
L 678 4666 
z
" transform="scale(0.015625)"/>
     </defs>
     <use xlink:href="#DejaVuSans-Bold-35"/>
    </g>
   </g>
  </g>
 </g>
 <defs>
  <clipPath id="pbe7a674942">
   <rect x="37.7055" y="10.8" width="412.2945" height="324"/>
  </clipPath>
 </defs>
</svg>
