<?xml version="1.0" encoding="utf-8" standalone="no"?>
<!DOCTYPE svg PUBLIC "-//W3C//DTD SVG 1.1//EN"
  "http://www.w3.org/Graphics/SVG/1.1/DTD/svg11.dtd">
<svg xmlns:xlink="http://www.w3.org/1999/xlink" width="460.8pt" height="345.6pt" viewBox="0 0 460.8 345.6" xmlns="http://www.w3.org/2000/svg" version="1.1">
 <metadata>
  <rdf:RDF xmlns:dc="http://purl.org/dc/elements/1.1/" xmlns:cc="http://creativecommons.org/ns#" xmlns:rdf="http://www.w3.org/1999/02/22-rdf-syntax-ns#">
   <cc:Work>
    <dc:type rdf:resource="http://purl.org/dc/dcmitype/StillImage"/>
    <dc:date>2026-03-16T16:54:58.888333</dc:date>
    <dc:format>image/svg+xml</dc:format>
    <dc:creator>
     <cc:Agent>
      <dc:title>Matplotlib v3.10.8, https://matplotlib.org/</dc:title>
     </cc:Agent>
    </dc:creator>
   </cc:Work>
  </rdf:RDF>
 </metadata>
 <defs>
  <style type="text/css">*{stroke-linejoin: round; stroke-linecap: butt}</style>
 </defs>
 <g id="figure_1">
  <g id="patch_1">
   <path d="M 0 345.6 
L 460.8 345.6 
L 460.8 0 
L 0 0 
L 0 345.6 
z
" style="fill: none"/>
  </g>
  <g id="axes_1">
   <g id="PathCollection_1">
    <defs>
     <path id="m790d8d4ad3" d="M 0 7.696448 
C 2.041122 7.696448 3.998919 6.885502 5.44221 5.44221 
C 6.885502 3.998919 7.696448 2.041122 7.696448 0 
C 7.696448 -2.041122 6.885502 -3.998919 5.44221 -5.44221 
C 3.998919 -6.885502 2.041122 -7.696448 0 -7.696448 
C -2.041122 -7.696448 -3.998919 -6.885502 -5.44221 -5.44221 
C -6.885502 -3.998919 -7.696448 -2.041122 -7.696448 0 
C -7.696448 2.041122 -6.885502 3.998919 -5.44221 5.44221 
C -3.998919 6.885502 -2.041122 7.696448 0 7.696448 
z
" style="stroke: #4d96ff; stroke-opacity: 0.7"/>
    </defs>
    <g clip-path="url(#pf3691e7813)">
     <use xlink:href="#m790d8d4ad3" x="428.467426" y="114.954134" style="fill: #4d96ff; fill-opacity: 0.7; stroke: #4d96ff; stroke-opacity: 0.7"/>
    </g>
   </g>
   <g id="PathCollection_2">
    <defs>
     <path id="mbc2967f2f8" d="M 0 6.978495 
C 1.850719 6.978495 3.625886 6.243197 4.934541 4.934541 
C 6.243197 3.625886 6.978495 1.850719 6.978495 0 
C 6.978495 -1.850719 6.243197 -3.625886 4.934541 -4.934541 
C 3.625886 -6.243197 1.850719 -6.978495 0 -6.978495 
C -1.850719 -6.978495 -3.625886 -6.243197 -4.934541 -4.934541 
C -6.243197 -3.625886 -6.978495 -1.850719 -6.978495 0 
C -6.978495 1.850719 -6.243197 3.625886 -4.934541 4.934541 
C -3.625886 6.243197 -1.850719 6.978495 0 6.978495 
z
" style="stroke: #ff6b6b; stroke-opacity: 0.7"/>
    </defs>
    <g clip-path="url(#pf3691e7813)">
     <use xlink:href="#mbc2967f2f8" x="283.0758" y="19.866804" style="fill: #ff6b6b; fill-opacity: 0.7; stroke: #ff6b6b; stroke-opacity: 0.7"/>
    </g>
   </g>
   <g id="PathCollection_3">
    <defs>
     <path id="m2865fd45c8" d="M 0 12.201237 
C 3.235806 12.201237 6.339517 10.915637 8.627577 8.627577 
C 10.915637 6.339517 12.201237 3.235806 12.201237 0 
C 12.201237 -3.235806 10.915637 -6.339517 8.627577 -8.627577 
C 6.339517 -10.915637 3.235806 -12.201237 0 -12.201237 
C -3.235806 -12.201237 -6.339517 -10.915637 -8.627577 -8.627577 
C -10.915637 -6.339517 -12.201237 -3.235806 -12.201237 0 
C -12.201237 3.235806 -10.915637 6.339517 -8.627577 8.627577 
C -6.339517 10.915637 -3.235806 12.201237 0 12.201237 
z
" style="stroke: #ffd93d; stroke-opacity: 0.7"/>
    </defs>
    <g clip-path="url(#pf3691e7813)">
     <use xlink:href="#m2865fd45c8" x="325.021855" y="35.498117" style="fill: #ffd93d; fill-opacity: 0.7; stroke: #ffd93d; stroke-opacity: 0.7"/>
    </g>
   </g>
   <g id="PathCollection_4">
    <defs>
     <path id="mfc80229f8f" d="M 0 5.164469 
C 1.369633 5.164469 2.683354 4.620308 3.651831 3.651831 
C 4.620308 2.683354 5.164469 1.369633 5.164469 0 
C 5.164469 -1.369633 4.620308 -2.683354 3.651831 -3.651831 
C 2.683354 -4.620308 1.369633 -5.164469 0 -5.164469 
C -1.369633 -5.164469 -2.683354 -4.620308 -3.651831 -3.651831 
C -4.620308 -2.683354 -5.164469 -1.369633 -5.164469 0 
C -5.164469 1.369633 -4.620308 2.683354 -3.651831 3.651831 
C -2.683354 4.620308 -1.369633 5.164469 0 5.164469 
z
" style="stroke: #6bcb77; stroke-opacity: 0.7"/>
    </defs>
    <g clip-path="url(#pf3691e7813)">
     <use xlink:href="#mfc80229f8f" x="265.759226" y="181.083626" style="fill: #6bcb77; fill-opacity: 0.7; stroke: #6bcb77; stroke-opacity: 0.7"/>
    </g>
   </g>
   <g id="PathCollection_5">
    <defs>
     <path id="me1ee3c3e14" d="M 0 8.509796 
C 2.256824 8.509796 4.421519 7.61315 6.017335 6.017335 
C 7.61315 4.421519 8.509796 2.256824 8.509796 0 
C 8.509796 -2.256824 7.61315 -4.421519 6.017335 -6.017335 
C 4.421519 -7.61315 2.256824 -8.509796 0 -8.509796 
C -2.256824 -8.509796 -4.421519 -7.61315 -6.017335 -6.017335 
C -7.61315 -4.421519 -8.509796 -2.256824 -8.509796 0 
C -8.509796 2.256824 -7.61315 4.421519 -6.017335 6.017335 
C -4.421519 7.61315 -2.256824 8.509796 0 8.509796 
z
" style="stroke: #ffd93d; stroke-opacity: 0.7"/>
    </defs>
    <g clip-path="url(#pf3691e7813)">
     <use xlink:href="#me1ee3c3e14" x="91.055873" y="235.049496" style="fill: #ffd93d; fill-opacity: 0.7; stroke: #ffd93d; stroke-opacity: 0.7"/>
    </g>
   </g>
   <g id="PathCollection_6">
    <defs>
     <path id="mecb9190eda" d="M 0 7.987155 
C 2.118218 7.987155 4.149965 7.145578 5.647771 5.647771 
C 7.145578 4.149965 7.987155 2.118218 7.987155 0 
C 7.987155 -2.118218 7.145578 -4.149965 5.647771 -5.647771 
C 4.149965 -7.145578 2.118218 -7.987155 0 -7.987155 
C -2.118218 -7.987155 -4.149965 -7.145578 -5.647771 -5.647771 
C -7.145578 -4.149965 -7.987155 -2.118218 -7.987155 0 
C -7.987155 2.118218 -7.145578 4.149965 -5.647771 5.647771 
C -4.149965 7.145578 -2.118218 7.987155 0 7.987155 
z
" style="stroke: #ffd93d; stroke-opacity: 0.7"/>
    </defs>
    <g clip-path="url(#pf3691e7813)">
     <use xlink:href="#mecb9190eda" x="144.785473" y="16.431226" style="fill: #ffd93d; fill-opacity: 0.7; stroke: #ffd93d; stroke-opacity: 0.7"/>
    </g>
   </g>
   <g id="PathCollection_7">
    <defs>
     <path id="me0d047a884" d="M 0 9.88774 
C 2.622259 9.88774 5.137471 8.845905 6.991688 6.991688 
C 8.845905 5.137471 9.88774 2.622259 9.88774 0 
C 9.88774 -2.622259 8.845905 -5.137471 6.991688 -6.991688 
C 5.137471 -8.845905 2.622259 -9.88774 0 -9.88774 
C -2.622259 -9.88774 -5.137471 -8.845905 -6.991688 -6.991688 
C -8.845905 -5.137471 -9.88774 -2.622259 -9.88774 0 
C -9.88774 2.622259 -8.845905 5.137471 -6.991688 6.991688 
C -5.137471 8.845905 -2.622259 9.88774 0 9.88774 
z
" style="stroke: #ffd93d; stroke-opacity: 0.7"/>
    </defs>
    <g clip-path="url(#pf3691e7813)">
     <use xlink:href="#me0d047a884" x="428.966422" y="216.762301" style="fill: #ffd93d; fill-opacity: 0.7; stroke: #ffd93d; stroke-opacity: 0.7"/>
    </g>
   </g>
   <g id="PathCollection_8">
    <defs>
     <path id="m8c40f447cb" d="M 0 9.925903 
C 2.63238 9.925903 5.1573 8.880048 7.018674 7.018674 
C 8.880048 5.1573 9.925903 2.63238 9.925903 0 
C 9.925903 -2.63238 8.880048 -5.1573 7.018674 -7.018674 
C 5.1573 -8.880048 2.63238 -9.925903 0 -9.925903 
C -2.63238 -9.925903 -5.1573 -8.880048 -7.018674 -7.018674 
C -8.880048 -5.1573 -9.925903 -2.63238 -9.925903 0 
C -9.925903 2.63238 -8.880048 5.1573 -7.018674 7.018674 
C -5.1573 8.880048 -2.63238 9.925903 0 9.925903 
z
" style="stroke: #ffd93d; stroke-opacity: 0.7"/>
    </defs>
    <g clip-path="url(#pf3691e7813)">
     <use xlink:href="#m8c40f447cb" x="395.794464" y="307.954588" style="fill: #ffd93d; fill-opacity: 0.7; stroke: #ffd93d; stroke-opacity: 0.7"/>
    </g>
   </g>
   <g id="PathCollection_9">
    <defs>
     <path id="m62c2e2e77f" d="M 0 7.230123 
C 1.917451 7.230123 3.756626 6.468312 5.112469 5.112469 
C 6.468312 3.756626 7.230123 1.917451 7.230123 0 
C 7.230123 -1.917451 6.468312 -3.756626 5.112469 -5.112469 
C 3.756626 -6.468312 1.917451 -7.230123 0 -7.230123 
C -1.917451 -7.230123 -3.756626 -6.468312 -5.112469 -5.112469 
C -6.468312 -3.756626 -7.230123 -1.917451 -7.230123 0 
C -7.230123 1.917451 -6.468312 3.756626 -5.112469 5.112469 
C -3.756626 6.468312 -1.917451 7.230123 0 7.230123 
z
" style="stroke: #ffd93d; stroke-opacity: 0.7"/>
    </defs>
    <g clip-path="url(#pf3691e7813)">
     <use xlink:href="#m62c2e2e77f" x="273.027436" y="253.235111" style="fill: #ffd93d; fill-opacity: 0.7; stroke: #ffd93d; stroke-opacity: 0.7"/>
    </g>
   </g>
   <g id="PathCollection_10">
    <defs>
     <path id="m9bfd8ae53e" d="M 0 12.693617 
C 3.366387 12.693617 6.595348 11.356137 8.975743 8.975743 
C 11.356137 6.595348 12.693617 3.366387 12.693617 0 
C 12.693617 -3.366387 11.356137 -6.595348 8.975743 -8.975743 
C 6.595348 -11.356137 3.366387 -12.693617 0 -12.693617 
C -3.366387 -12.693617 -6.595348 -11.356137 -8.975743 -8.975743 
C -11.356137 -6.595348 -12.693617 -3.366387 -12.693617 0 
C -12.693617 3.366387 -11.356137 6.595348 -8.975743 8.975743 
C -6.595348 11.356137 -3.366387 12.693617 0 12.693617 
z
" style="stroke: #4d96ff; stroke-opacity: 0.7"/>
    </defs>
    <g clip-path="url(#pf3691e7813)">
     <use xlink:href="#m9bfd8ae53e" x="435.084628" y="71.490576" style="fill: #4d96ff; fill-opacity: 0.7; stroke: #4d96ff; stroke-opacity: 0.7"/>
    </g>
   </g>
   <g id="PathCollection_11">
    <defs>
     <path id="m5de900bd78" d="M 0 13.416284 
C 3.55804 13.416284 6.970831 12.00266 9.486746 9.486746 
C 12.00266 6.970831 13.416284 3.55804 13.416284 0 
C 13.416284 -3.55804 12.00266 -6.970831 9.486746 -9.486746 
C 6.970831 -12.00266 3.55804 -13.416284 0 -13.416284 
C -3.55804 -13.416284 -6.970831 -12.00266 -9.486746 -9.486746 
C -12.00266 -6.970831 -13.416284 -3.55804 -13.416284 0 
C -13.416284 3.55804 -12.00266 6.970831 -9.486746 9.486746 
C -6.970831 12.00266 -3.55804 13.416284 0 13.416284 
z
" style="stroke: #6bcb77; stroke-opacity: 0.7"/>
    </defs>
    <g clip-path="url(#pf3691e7813)">
     <use xlink:href="#m5de900bd78" x="183.239959" y="93.678097" style="fill: #6bcb77; fill-opacity: 0.7; stroke: #6bcb77; stroke-opacity: 0.7"/>
    </g>
   </g>
   <g id="PathCollection_12">
    <defs>
     <path id="m09962a0c43" d="M 0 13.129927 
C 3.482097 13.129927 6.822046 11.746475 9.284261 9.284261 
C 11.746475 6.822046 13.129927 3.482097 13.129927 0 
C 13.129927 -3.482097 11.746475 -6.822046 9.284261 -9.284261 
C 6.822046 -11.746475 3.482097 -13.129927 0 -13.129927 
C -3.482097 -13.129927 -6.822046 -11.746475 -9.284261 -9.284261 
C -11.746475 -6.822046 -13.129927 -3.482097 -13.129927 0 
C -13.129927 3.482097 -11.746475 6.822046 -9.284261 9.284261 
C -6.822046 11.746475 -3.482097 13.129927 0 13.129927 
z
" style="stroke: #ffd93d; stroke-opacity: 0.7"/>
    </defs>
    <g clip-path="url(#pf3691e7813)">
     <use xlink:href="#m09962a0c43" x="201.788374" y="321.61489" style="fill: #ffd93d; fill-opacity: 0.7; stroke: #ffd93d; stroke-opacity: 0.7"/>
    </g>
   </g>
   <g id="PathCollection_13">
    <defs>
     <path id="ma8c9c46e15" d="M 0 7.742475 
C 2.053328 7.742475 4.022834 6.926679 5.474757 5.474757 
C 6.926679 4.022834 7.742475 2.053328 7.742475 0 
C 7.742475 -2.053328 6.926679 -4.022834 5.474757 -5.474757 
C 4.022834 -6.926679 2.053328 -7.742475 0 -7.742475 
C -2.053328 -7.742475 -4.022834 -6.926679 -5.474757 -5.474757 
C -6.926679 -4.022834 -7.742475 -2.053328 -7.742475 0 
C -7.742475 2.053328 -6.926679 4.022834 -5.474757 5.474757 
C -4.022834 6.926679 -2.053328 7.742475 0 7.742475 
z
" style="stroke: #4d96ff; stroke-opacity: 0.7"/>
    </defs>
    <g clip-path="url(#pf3691e7813)">
     <use xlink:href="#ma8c9c46e15" x="172.288471" y="265.792908" style="fill: #4d96ff; fill-opacity: 0.7; stroke: #4d96ff; stroke-opacity: 0.7"/>
    </g>
   </g>
   <g id="PathCollection_14">
    <defs>
     <path id="ma8854f5e07" d="M 0 6.803529 
C 1.804317 6.803529 3.534977 6.086667 4.810822 4.810822 
C 6.086667 3.534977 6.803529 1.804317 6.803529 0 
C 6.803529 -1.804317 6.086667 -3.534977 4.810822 -4.810822 
C 3.534977 -6.086667 1.804317 -6.803529 0 -6.803529 
C -1.804317 -6.803529 -3.534977 -6.086667 -4.810822 -4.810822 
C -6.086667 -3.534977 -6.803529 -1.804317 -6.803529 0 
C -6.803529 1.804317 -6.086667 3.534977 -4.810822 4.810822 
C -3.534977 6.086667 -1.804317 6.803529 0 6.803529 
z
" style="stroke: #4d96ff; stroke-opacity: 0.7"/>
    </defs>
    <g clip-path="url(#pf3691e7813)">
     <use xlink:href="#ma8854f5e07" x="77.698056" y="144.149118" style="fill: #4d96ff; fill-opacity: 0.7; stroke: #4d96ff; stroke-opacity: 0.7"/>
    </g>
   </g>
   <g id="PathCollection_15">
    <defs>
     <path id="m84ac9f985d" d="M 0 6.606766 
C 1.752135 6.606766 3.432743 5.910635 4.671689 4.671689 
C 5.910635 3.432743 6.606766 1.752135 6.606766 0 
C 6.606766 -1.752135 5.910635 -3.432743 4.671689 -4.671689 
C 3.432743 -5.910635 1.752135 -6.606766 0 -6.606766 
C -1.752135 -6.606766 -3.432743 -5.910635 -4.671689 -4.671689 
C -5.910635 -3.432743 -6.606766 -1.752135 -6.606766 0 
C -6.606766 1.752135 -5.910635 3.432743 -4.671689 4.671689 
C -3.432743 5.910635 -1.752135 6.606766 0 6.606766 
z
" style="stroke: #ffd93d; stroke-opacity: 0.7"/>
    </defs>
    <g clip-path="url(#pf3691e7813)">
     <use xlink:href="#m84ac9f985d" x="249.857631" y="239.352089" style="fill: #ffd93d; fill-opacity: 0.7; stroke: #ffd93d; stroke-opacity: 0.7"/>
    </g>
   </g>
   <g id="PathCollection_16">
    <defs>
     <path id="m83f3ad429a" d="M 0 11.66078 
C 3.092475 11.66078 6.058707 10.432127 8.245417 8.245417 
C 10.432127 6.058707 11.66078 3.092475 11.66078 0 
C 11.66078 -3.092475 10.432127 -6.058707 8.245417 -8.245417 
C 6.058707 -10.432127 3.092475 -11.66078 0 -11.66078 
C -3.092475 -11.66078 -6.058707 -10.432127 -8.245417 -8.245417 
C -10.432127 -6.058707 -11.66078 -3.092475 -11.66078 0 
C -11.66078 3.092475 -10.432127 6.058707 -8.245417 8.245417 
C -6.058707 10.432127 -3.092475 11.66078 0 11.66078 
z
" style="stroke: #4d96ff; stroke-opacity: 0.7"/>
    </defs>
    <g clip-path="url(#pf3691e7813)">
     <use xlink:href="#m83f3ad429a" x="305.175574" y="60.306646" style="fill: #4d96ff; fill-opacity: 0.7; stroke: #4d96ff; stroke-opacity: 0.7"/>
    </g>
   </g>
   <g id="PathCollection_17">
    <defs>
     <path id="m85b66f2f59" d="M 0 6.111873 
C 1.620888 6.111873 3.175606 5.467887 4.321747 4.321747 
C 5.467887 3.175606 6.111873 1.620888 6.111873 0 
C 6.111873 -1.620888 5.467887 -3.175606 4.321747 -4.321747 
C 3.175606 -5.467887 1.620888 -6.111873 0 -6.111873 
C -1.620888 -6.111873 -3.175606 -5.467887 -4.321747 -4.321747 
C -5.467887 -3.175606 -6.111873 -1.620888 -6.111873 0 
C -6.111873 1.620888 -5.467887 3.175606 -4.321747 4.321747 
C -3.175606 5.467887 -1.620888 6.111873 0 6.111873 
z
" style="stroke: #ffd93d; stroke-opacity: 0.7"/>
    </defs>
    <g clip-path="url(#pf3691e7813)">
     <use xlink:href="#m85b66f2f59" x="195.808274" y="271.873976" style="fill: #ffd93d; fill-opacity: 0.7; stroke: #ffd93d; stroke-opacity: 0.7"/>
    </g>
   </g>
   <g id="PathCollection_18">
    <defs>
     <path id="m1f8d03295b" d="M 0 8.339139 
C 2.211566 8.339139 4.332849 7.460475 5.896662 5.896662 
C 7.460475 4.332849 8.339139 2.211566 8.339139 0 
C 8.339139 -2.211566 7.460475 -4.332849 5.896662 -5.896662 
C 4.332849 -7.460475 2.211566 -8.339139 0 -8.339139 
C -2.211566 -8.339139 -4.332849 -7.460475 -5.896662 -5.896662 
C -7.460475 -4.332849 -8.339139 -2.211566 -8.339139 0 
C -8.339139 2.211566 -7.460475 4.332849 -5.896662 5.896662 
C -4.332849 7.460475 -2.211566 8.339139 0 8.339139 
z
" style="stroke: #4d96ff; stroke-opacity: 0.7"/>
    </defs>
    <g clip-path="url(#pf3691e7813)">
     <use xlink:href="#m1f8d03295b" x="128.961972" y="93.975998" style="fill: #4d96ff; fill-opacity: 0.7; stroke: #4d96ff; stroke-opacity: 0.7"/>
    </g>
   </g>
   <g id="PathCollection_19">
    <defs>
     <path id="m10f93cecce" d="M 0 10.254437 
C 2.719508 10.254437 5.327999 9.173964 7.250982 7.250982 
C 9.173964 5.327999 10.254437 2.719508 10.254437 0 
C 10.254437 -2.719508 9.173964 -5.327999 7.250982 -7.250982 
C 5.327999 -9.173964 2.719508 -10.254437 0 -10.254437 
C -2.719508 -10.254437 -5.327999 -9.173964 -7.250982 -7.250982 
C -9.173964 -5.327999 -10.254437 -2.719508 -10.254437 0 
C -10.254437 2.719508 -9.173964 5.327999 -7.250982 7.250982 
C -5.327999 9.173964 -2.719508 10.254437 0 10.254437 
z
" style="stroke: #ff6b6b; stroke-opacity: 0.7"/>
    </defs>
    <g clip-path="url(#pf3691e7813)">
     <use xlink:href="#m10f93cecce" x="237.78896" y="107.711348" style="fill: #ff6b6b; fill-opacity: 0.7; stroke: #ff6b6b; stroke-opacity: 0.7"/>
    </g>
   </g>
   <g id="PathCollection_20">
    <defs>
     <path id="mc0a2f47fc3" d="M 0 7.35314 
C 1.950076 7.35314 3.820544 6.578367 5.199455 5.199455 
C 6.578367 3.820544 7.35314 1.950076 7.35314 0 
C 7.35314 -1.950076 6.578367 -3.820544 5.199455 -5.199455 
C 3.820544 -6.578367 1.950076 -7.35314 0 -7.35314 
C -1.950076 -7.35314 -3.820544 -6.578367 -5.199455 -5.199455 
C -6.578367 -3.820544 -7.35314 -1.950076 -7.35314 0 
C -7.35314 1.950076 -6.578367 3.820544 -5.199455 5.199455 
C -3.820544 6.578367 -1.950076 7.35314 0 7.35314 
z
" style="stroke: #ff6b6b; stroke-opacity: 0.7"/>
    </defs>
    <g clip-path="url(#pf3691e7813)">
     <use xlink:href="#mc0a2f47fc3" x="437.88369" y="296.375289" style="fill: #ff6b6b; fill-opacity: 0.7; stroke: #ff6b6b; stroke-opacity: 0.7"/>
    </g>
   </g>
   <g id="PathCollection_21">
    <defs>
     <path id="m6a525d3d1a" d="M 0 9.296182 
C 2.465376 9.296182 4.830109 8.316678 6.573393 6.573393 
C 8.316678 4.830109 9.296182 2.465376 9.296182 0 
C 9.296182 -2.465376 8.316678 -4.830109 6.573393 -6.573393 
C 4.830109 -8.316678 2.465376 -9.296182 0 -9.296182 
C -2.465376 -9.296182 -4.830109 -8.316678 -6.573393 -6.573393 
C -8.316678 -4.830109 -9.296182 -2.465376 -9.296182 0 
C -9.296182 2.465376 -8.316678 4.830109 -6.573393 6.573393 
C -4.830109 8.316678 -2.465376 9.296182 0 9.296182 
z
" style="stroke: #ffd93d; stroke-opacity: 0.7"/>
    </defs>
    <g clip-path="url(#pf3691e7813)">
     <use xlink:href="#m6a525d3d1a" x="443.274461" y="234.978904" style="fill: #ffd93d; fill-opacity: 0.7; stroke: #ffd93d; stroke-opacity: 0.7"/>
    </g>
   </g>
   <g id="PathCollection_22">
    <defs>
     <path id="me5e6701151" d="M 0 6.569123 
C 1.742152 6.569123 3.413184 5.876959 4.645071 4.645071 
C 5.876959 3.413184 6.569123 1.742152 6.569123 0 
C 6.569123 -1.742152 5.876959 -3.413184 4.645071 -4.645071 
C 3.413184 -5.876959 1.742152 -6.569123 0 -6.569123 
C -1.742152 -6.569123 -3.413184 -5.876959 -4.645071 -4.645071 
C -5.876959 -3.413184 -6.569123 -1.742152 -6.569123 0 
C -6.569123 1.742152 -5.876959 3.413184 -4.645071 4.645071 
C -3.413184 5.876959 -1.742152 6.569123 0 6.569123 
z
" style="stroke: #ffd93d; stroke-opacity: 0.7"/>
    </defs>
    <g clip-path="url(#pf3691e7813)">
     <use xlink:href="#me5e6701151" x="289.461063" y="21.980527" style="fill: #ffd93d; fill-opacity: 0.7; stroke: #ffd93d; stroke-opacity: 0.7"/>
    </g>
   </g>
   <g id="PathCollection_23">
    <defs>
     <path id="mcd85386780" d="M 0 6.382041 
C 1.692537 6.382041 3.31598 5.709588 4.512784 4.512784 
C 5.709588 3.31598 6.382041 1.692537 6.382041 0 
C 6.382041 -1.692537 5.709588 -3.31598 4.512784 -4.512784 
C 3.31598 -5.709588 1.692537 -6.382041 0 -6.382041 
C -1.692537 -6.382041 -3.31598 -5.709588 -4.512784 -4.512784 
C -5.709588 -3.31598 -6.382041 -1.692537 -6.382041 0 
C -6.382041 1.692537 -5.709588 3.31598 -4.512784 4.512784 
C -3.31598 5.709588 -1.692537 6.382041 0 6.382041 
z
" style="stroke: #ff6b6b; stroke-opacity: 0.7"/>
    </defs>
    <g clip-path="url(#pf3691e7813)">
     <use xlink:href="#mcd85386780" x="52.254324" y="218.413766" style="fill: #ff6b6b; fill-opacity: 0.7; stroke: #ff6b6b; stroke-opacity: 0.7"/>
    </g>
   </g>
   <g id="PathCollection_24">
    <defs>
     <path id="m3940afacb8" d="M 0 12.815311 
C 3.39866 12.815311 6.658578 11.465009 9.061793 9.061793 
C 11.465009 6.658578 12.815311 3.39866 12.815311 0 
C 12.815311 -3.39866 11.465009 -6.658578 9.061793 -9.061793 
C 6.658578 -11.465009 3.39866 -12.815311 0 -12.815311 
C -3.39866 -12.815311 -6.658578 -11.465009 -9.061793 -9.061793 
C -11.465009 -6.658578 -12.815311 -3.39866 -12.815311 0 
C -12.815311 3.39866 -11.465009 6.658578 -9.061793 9.061793 
C -6.658578 11.465009 -3.39866 12.815311 0 12.815311 
z
" style="stroke: #4d96ff; stroke-opacity: 0.7"/>
    </defs>
    <g clip-path="url(#pf3691e7813)">
     <use xlink:href="#m3940afacb8" x="364.831003" y="34.467447" style="fill: #4d96ff; fill-opacity: 0.7; stroke: #4d96ff; stroke-opacity: 0.7"/>
    </g>
   </g>
   <g id="PathCollection_25">
    <defs>
     <path id="m718dd48c00" d="M 0 7.818395 
C 2.073463 7.818395 4.062281 6.9946 5.52844 5.52844 
C 6.9946 4.062281 7.818395 2.073463 7.818395 0 
C 7.818395 -2.073463 6.9946 -4.062281 5.52844 -5.52844 
C 4.062281 -6.9946 2.073463 -7.818395 0 -7.818395 
C -2.073463 -7.818395 -4.062281 -6.9946 -5.52844 -5.52844 
C -6.9946 -4.062281 -7.818395 -2.073463 -7.818395 0 
C -7.818395 2.073463 -6.9946 4.062281 -5.52844 5.52844 
C -4.062281 6.9946 -2.073463 7.818395 0 7.818395 
z
" style="stroke: #ff6b6b; stroke-opacity: 0.7"/>
    </defs>
    <g clip-path="url(#pf3691e7813)">
     <use xlink:href="#m718dd48c00" x="213.394764" y="297.792272" style="fill: #ff6b6b; fill-opacity: 0.7; stroke: #ff6b6b; stroke-opacity: 0.7"/>
    </g>
   </g>
   <g id="PathCollection_26">
    <defs>
     <path id="m862f8d2149" d="M 0 13.076237 
C 3.467859 13.076237 6.79415 11.698442 9.246296 9.246296 
C 11.698442 6.79415 13.076237 3.467859 13.076237 0 
C 13.076237 -3.467859 11.698442 -6.79415 9.246296 -9.246296 
C 6.79415 -11.698442 3.467859 -13.076237 0 -13.076237 
C -3.467859 -13.076237 -6.79415 -11.698442 -9.246296 -9.246296 
C -11.698442 -6.79415 -13.076237 -3.467859 -13.076237 0 
C -13.076237 3.467859 -11.698442 6.79415 -9.246296 9.246296 
C -6.79415 11.698442 -3.467859 13.076237 0 13.076237 
z
" style="stroke: #4d96ff; stroke-opacity: 0.7"/>
    </defs>
    <g clip-path="url(#pf3691e7813)">
     <use xlink:href="#m862f8d2149" x="67.603095" y="215.106187" style="fill: #4d96ff; fill-opacity: 0.7; stroke: #4d96ff; stroke-opacity: 0.7"/>
    </g>
   </g>
   <g id="PathCollection_27">
    <defs>
     <path id="m7e99c21e4f" d="M 0 13.881282 
C 3.681359 13.881282 7.212435 12.418663 9.815549 9.815549 
C 12.418663 7.212435 13.881282 3.681359 13.881282 0 
C 13.881282 -3.681359 12.418663 -7.212435 9.815549 -9.815549 
C 7.212435 -12.418663 3.681359 -13.881282 0 -13.881282 
C -3.681359 -13.881282 -7.212435 -12.418663 -9.815549 -9.815549 
C -12.418663 -7.212435 -13.881282 -3.681359 -13.881282 0 
C -13.881282 3.681359 -12.418663 7.212435 -9.815549 9.815549 
C -7.212435 12.418663 -3.681359 13.881282 0 13.881282 
z
" style="stroke: #6bcb77; stroke-opacity: 0.7"/>
    </defs>
    <g clip-path="url(#pf3691e7813)">
     <use xlink:href="#m7e99c21e4f" x="173.621585" y="112.691002" style="fill: #6bcb77; fill-opacity: 0.7; stroke: #6bcb77; stroke-opacity: 0.7"/>
    </g>
   </g>
   <g id="PathCollection_28">
    <defs>
     <path id="mc33849c85d" d="M 0 9.934797 
C 2.634739 9.934797 5.16192 8.888004 7.024962 7.024962 
C 8.888004 5.16192 9.934797 2.634739 9.934797 0 
C 9.934797 -2.634739 8.888004 -5.16192 7.024962 -7.024962 
C 5.16192 -8.888004 2.634739 -9.934797 0 -9.934797 
C -2.634739 -9.934797 -5.16192 -8.888004 -7.024962 -7.024962 
C -8.888004 -5.16192 -9.934797 -2.634739 -9.934797 0 
C -9.934797 2.634739 -8.888004 5.16192 -7.024962 7.024962 
C -5.16192 8.888004 -2.634739 9.934797 0 9.934797 
z
" style="stroke: #6bcb77; stroke-opacity: 0.7"/>
    </defs>
    <g clip-path="url(#pf3691e7813)">
     <use xlink:href="#mc33849c85d" x="228.659608" y="20.563352" style="fill: #6bcb77; fill-opacity: 0.7; stroke: #6bcb77; stroke-opacity: 0.7"/>
    </g>
   </g>
   <g id="PathCollection_29">
    <defs>
     <path id="m02444ae69c" d="M 0 11.756959 
C 3.117982 11.756959 6.108679 10.518172 8.313425 8.313425 
C 10.518172 6.108679 11.756959 3.117982 11.756959 0 
C 11.756959 -3.117982 10.518172 -6.108679 8.313425 -8.313425 
C 6.108679 -10.518172 3.117982 -11.756959 0 -11.756959 
C -3.117982 -11.756959 -6.108679 -10.518172 -8.313425 -8.313425 
C -10.518172 -6.108679 -11.756959 -3.117982 -11.756959 0 
C -11.756959 3.117982 -10.518172 6.108679 -8.313425 8.313425 
C -6.108679 10.518172 -3.117982 11.756959 0 11.756959 
z
" style="stroke: #ff6b6b; stroke-opacity: 0.7"/>
    </defs>
    <g clip-path="url(#pf3691e7813)">
     <use xlink:href="#m02444ae69c" x="287.849716" y="138.221911" style="fill: #ff6b6b; fill-opacity: 0.7; stroke: #ff6b6b; stroke-opacity: 0.7"/>
    </g>
   </g>
   <g id="PathCollection_30">
    <defs>
     <path id="m74bdd69fcc" d="M 0 7.600301 
C 2.015623 7.600301 3.948963 6.799485 5.374224 5.374224 
C 6.799485 3.948963 7.600301 2.015623 7.600301 0 
C 7.600301 -2.015623 6.799485 -3.948963 5.374224 -5.374224 
C 3.948963 -6.799485 2.015623 -7.600301 0 -7.600301 
C -2.015623 -7.600301 -3.948963 -6.799485 -5.374224 -5.374224 
C -6.799485 -3.948963 -7.600301 -2.015623 -7.600301 0 
C -7.600301 2.015623 -6.799485 3.948963 -5.374224 5.374224 
C -3.948963 6.799485 -2.015623 7.600301 0 7.600301 
z
" style="stroke: #ffd93d; stroke-opacity: 0.7"/>
    </defs>
    <g clip-path="url(#pf3691e7813)">
     <use xlink:href="#m74bdd69fcc" x="328.174986" y="256.435091" style="fill: #ffd93d; fill-opacity: 0.7; stroke: #ffd93d; stroke-opacity: 0.7"/>
    </g>
   </g>
   <g id="PathCollection_31">
    <defs>
     <path id="md088e3fa3c" d="M 0 6.128202 
C 1.625218 6.128202 3.18409 5.482496 4.333293 4.333293 
C 5.482496 3.18409 6.128202 1.625218 6.128202 0 
C 6.128202 -1.625218 5.482496 -3.18409 4.333293 -4.333293 
C 3.18409 -5.482496 1.625218 -6.128202 0 -6.128202 
C -1.625218 -6.128202 -3.18409 -5.482496 -4.333293 -4.333293 
C -5.482496 -3.18409 -6.128202 -1.625218 -6.128202 0 
C -6.128202 1.625218 -5.482496 3.18409 -4.333293 4.333293 
C -3.18409 5.482496 -1.625218 6.128202 0 6.128202 
z
" style="stroke: #ff6b6b; stroke-opacity: 0.7"/>
    </defs>
    <g clip-path="url(#pf3691e7813)">
     <use xlink:href="#md088e3fa3c" x="390.73541" y="270.856691" style="fill: #ff6b6b; fill-opacity: 0.7; stroke: #ff6b6b; stroke-opacity: 0.7"/>
    </g>
   </g>
   <g id="PathCollection_32">
    <defs>
     <path id="m1bdce77949" d="M 0 9.39915 
C 2.492684 9.39915 4.883609 8.408796 6.646202 6.646202 
C 8.408796 4.883609 9.39915 2.492684 9.39915 0 
C 9.39915 -2.492684 8.408796 -4.883609 6.646202 -6.646202 
C 4.883609 -8.408796 2.492684 -9.39915 0 -9.39915 
C -2.492684 -9.39915 -4.883609 -8.408796 -6.646202 -6.646202 
C -8.408796 -4.883609 -9.39915 -2.492684 -9.39915 0 
C -9.39915 2.492684 -8.408796 4.883609 -6.646202 6.646202 
C -4.883609 8.408796 -2.492684 9.39915 0 9.39915 
z
" style="stroke: #4d96ff; stroke-opacity: 0.7"/>
    </defs>
    <g clip-path="url(#pf3691e7813)">
     <use xlink:href="#m1bdce77949" x="73.490232" y="261.001066" style="fill: #4d96ff; fill-opacity: 0.7; stroke: #4d96ff; stroke-opacity: 0.7"/>
    </g>
   </g>
   <g id="PathCollection_33">
    <defs>
     <path id="maae371ed06" d="M 0 11.584099 
C 3.072139 11.584099 6.018865 10.363525 8.191195 8.191195 
C 10.363525 6.018865 11.584099 3.072139 11.584099 0 
C 11.584099 -3.072139 10.363525 -6.018865 8.191195 -8.191195 
C 6.018865 -10.363525 3.072139 -11.584099 0 -11.584099 
C -3.072139 -11.584099 -6.018865 -10.363525 -8.191195 -8.191195 
C -10.363525 -6.018865 -11.584099 -3.072139 -11.584099 0 
C -11.584099 3.072139 -10.363525 6.018865 -8.191195 8.191195 
C -6.018865 10.363525 -3.072139 11.584099 0 11.584099 
z
" style="stroke: #ffd93d; stroke-opacity: 0.7"/>
    </defs>
    <g clip-path="url(#pf3691e7813)">
     <use xlink:href="#maae371ed06" x="191.64176" y="75.222304" style="fill: #ffd93d; fill-opacity: 0.7; stroke: #ffd93d; stroke-opacity: 0.7"/>
    </g>
   </g>
   <g id="PathCollection_34">
    <defs>
     <path id="m4174e7d0dc" d="M 0 13.010121 
C 3.450325 13.010121 6.759797 11.639293 9.199545 9.199545 
C 11.639293 6.759797 13.010121 3.450325 13.010121 0 
C 13.010121 -3.450325 11.639293 -6.759797 9.199545 -9.199545 
C 6.759797 -11.639293 3.450325 -13.010121 0 -13.010121 
C -3.450325 -13.010121 -6.759797 -11.639293 -9.199545 -9.199545 
C -11.639293 -6.759797 -13.010121 -3.450325 -13.010121 0 
C -13.010121 3.450325 -11.639293 6.759797 -9.199545 9.199545 
C -6.759797 11.639293 -3.450325 13.010121 0 13.010121 
z
" style="stroke: #6bcb77; stroke-opacity: 0.7"/>
    </defs>
    <g clip-path="url(#pf3691e7813)">
     <use xlink:href="#m4174e7d0dc" x="70.485663" y="137.401338" style="fill: #6bcb77; fill-opacity: 0.7; stroke: #6bcb77; stroke-opacity: 0.7"/>
    </g>
   </g>
   <g id="PathCollection_35">
    <defs>
     <path id="me669ca54ae" d="M 0 10.757653 
C 2.852963 10.757653 5.58946 9.624158 7.606809 7.606809 
C 9.624158 5.58946 10.757653 2.852963 10.757653 0 
C 10.757653 -2.852963 9.624158 -5.58946 7.606809 -7.606809 
C 5.58946 -9.624158 2.852963 -10.757653 0 -10.757653 
C -2.852963 -10.757653 -5.58946 -9.624158 -7.606809 -7.606809 
C -9.624158 -5.58946 -10.757653 -2.852963 -10.757653 0 
C -10.757653 2.852963 -9.624158 5.58946 -7.606809 7.606809 
C -5.58946 9.624158 -2.852963 10.757653 0 10.757653 
z
" style="stroke: #ffd93d; stroke-opacity: 0.7"/>
    </defs>
    <g clip-path="url(#pf3691e7813)">
     <use xlink:href="#me669ca54ae" x="143.071496" y="171.801202" style="fill: #ffd93d; fill-opacity: 0.7; stroke: #ffd93d; stroke-opacity: 0.7"/>
    </g>
   </g>
   <g id="PathCollection_36">
    <defs>
     <path id="m53476d262c" d="M 0 10.930464 
C 2.898793 10.930464 5.679249 9.778762 7.729006 7.729006 
C 9.778762 5.679249 10.930464 2.898793 10.930464 0 
C 10.930464 -2.898793 9.778762 -5.679249 7.729006 -7.729006 
C 5.679249 -9.778762 2.898793 -10.930464 0 -10.930464 
C -2.898793 -10.930464 -5.679249 -9.778762 -7.729006 -7.729006 
C -9.778762 -5.679249 -10.930464 -2.898793 -10.930464 0 
C -10.930464 2.898793 -9.778762 5.679249 -7.729006 7.729006 
C -5.679249 9.778762 -2.898793 10.930464 0 10.930464 
z
" style="stroke: #ffd93d; stroke-opacity: 0.7"/>
    </defs>
    <g clip-path="url(#pf3691e7813)">
     <use xlink:href="#m53476d262c" x="289.34846" y="323.450671" style="fill: #ffd93d; fill-opacity: 0.7; stroke: #ffd93d; stroke-opacity: 0.7"/>
    </g>
   </g>
   <g id="PathCollection_37">
    <defs>
     <path id="mbcae0e59f8" d="M 0 13.058632 
C 3.46319 13.058632 6.785002 11.682692 9.233847 9.233847 
C 11.682692 6.785002 13.058632 3.46319 13.058632 0 
C 13.058632 -3.46319 11.682692 -6.785002 9.233847 -9.233847 
C 6.785002 -11.682692 3.46319 -13.058632 0 -13.058632 
C -3.46319 -13.058632 -6.785002 -11.682692 -9.233847 -9.233847 
C -11.682692 -6.785002 -13.058632 -3.46319 -13.058632 0 
C -13.058632 3.46319 -11.682692 6.785002 -9.233847 9.233847 
C -6.785002 11.682692 -3.46319 13.058632 0 13.058632 
z
" style="stroke: #ffd93d; stroke-opacity: 0.7"/>
    </defs>
    <g clip-path="url(#pf3691e7813)">
     <use xlink:href="#mbcae0e59f8" x="283.572166" y="324.526944" style="fill: #ffd93d; fill-opacity: 0.7; stroke: #ffd93d; stroke-opacity: 0.7"/>
    </g>
   </g>
   <g id="PathCollection_38">
    <defs>
     <path id="mcb54d6a592" d="M 0 12.151322 
C 3.222568 12.151322 6.313582 10.870982 8.592282 8.592282 
C 10.870982 6.313582 12.151322 3.222568 12.151322 0 
C 12.151322 -3.222568 10.870982 -6.313582 8.592282 -8.592282 
C 6.313582 -10.870982 3.222568 -12.151322 0 -12.151322 
C -3.222568 -12.151322 -6.313582 -10.870982 -8.592282 -8.592282 
C -10.870982 -6.313582 -12.151322 -3.222568 -12.151322 0 
C -12.151322 3.222568 -10.870982 6.313582 -8.592282 8.592282 
C -6.313582 10.870982 -3.222568 12.151322 0 12.151322 
z
" style="stroke: #ff6b6b; stroke-opacity: 0.7"/>
    </defs>
    <g clip-path="url(#pf3691e7813)">
     <use xlink:href="#mcb54d6a592" x="107.099128" y="285.58198" style="fill: #ff6b6b; fill-opacity: 0.7; stroke: #ff6b6b; stroke-opacity: 0.7"/>
    </g>
   </g>
   <g id="PathCollection_39">
    <defs>
     <path id="m6d2490797f" d="M 0 10.418578 
C 2.763039 10.418578 5.413284 9.320811 7.367047 7.367047 
C 9.320811 5.413284 10.418578 2.763039 10.418578 0 
C 10.418578 -2.763039 9.320811 -5.413284 7.367047 -7.367047 
C 5.413284 -9.320811 2.763039 -10.418578 0 -10.418578 
C -2.763039 -10.418578 -5.413284 -9.320811 -7.367047 -7.367047 
C -9.320811 -5.413284 -10.418578 -2.763039 -10.418578 0 
C -10.418578 2.763039 -9.320811 5.413284 -7.367047 7.367047 
C -5.413284 9.320811 -2.763039 10.418578 0 10.418578 
z
" style="stroke: #6bcb77; stroke-opacity: 0.7"/>
    </defs>
    <g clip-path="url(#pf3691e7813)">
     <use xlink:href="#m6d2490797f" x="194.958243" y="189.774851" style="fill: #6bcb77; fill-opacity: 0.7; stroke: #6bcb77; stroke-opacity: 0.7"/>
    </g>
   </g>
   <g id="PathCollection_40">
    <defs>
     <path id="m1f1788f975" d="M 0 14.102884 
C 3.740129 14.102884 7.327575 12.616915 9.972245 9.972245 
C 12.616915 7.327575 14.102884 3.740129 14.102884 0 
C 14.102884 -3.740129 12.616915 -7.327575 9.972245 -9.972245 
C 7.327575 -12.616915 3.740129 -14.102884 0 -14.102884 
C -3.740129 -14.102884 -7.327575 -12.616915 -9.972245 -9.972245 
C -12.616915 -7.327575 -14.102884 -3.740129 -14.102884 0 
C -14.102884 3.740129 -12.616915 7.327575 -9.972245 9.972245 
C -7.327575 12.616915 -3.740129 14.102884 0 14.102884 
z
" style="stroke: #4d96ff; stroke-opacity: 0.7"/>
    </defs>
    <g clip-path="url(#pf3691e7813)">
     <use xlink:href="#m1f1788f975" x="233.250939" y="81.931356" style="fill: #4d96ff; fill-opacity: 0.7; stroke: #4d96ff; stroke-opacity: 0.7"/>
    </g>
   </g>
   <g id="PathCollection_41">
    <defs>
     <path id="m7f825c1e54" d="M 0 7.250243 
C 1.922787 7.250243 3.76708 6.486312 5.126696 5.126696 
C 6.486312 3.76708 7.250243 1.922787 7.250243 0 
C 7.250243 -1.922787 6.486312 -3.76708 5.126696 -5.126696 
C 3.76708 -6.486312 1.922787 -7.250243 0 -7.250243 
C -1.922787 -7.250243 -3.76708 -6.486312 -5.126696 -5.126696 
C -6.486312 -3.76708 -7.250243 -1.922787 -7.250243 0 
C -7.250243 1.922787 -6.486312 3.76708 -5.126696 5.126696 
C -3.76708 6.486312 -1.922787 7.250243 0 7.250243 
z
" style="stroke: #4d96ff; stroke-opacity: 0.7"/>
    </defs>
    <g clip-path="url(#pf3691e7813)">
     <use xlink:href="#m7f825c1e54" x="220.853666" y="206.390692" style="fill: #4d96ff; fill-opacity: 0.7; stroke: #4d96ff; stroke-opacity: 0.7"/>
    </g>
   </g>
   <g id="PathCollection_42">
    <defs>
     <path id="ma146ab89ba" d="M 0 12.268448 
C 3.253631 12.268448 6.374439 10.975767 8.675103 8.675103 
C 10.975767 6.374439 12.268448 3.253631 12.268448 0 
C 12.268448 -3.253631 10.975767 -6.374439 8.675103 -8.675103 
C 6.374439 -10.975767 3.253631 -12.268448 0 -12.268448 
C -3.253631 -12.268448 -6.374439 -10.975767 -8.675103 -8.675103 
C -10.975767 -6.374439 -12.268448 -3.253631 -12.268448 0 
C -12.268448 3.253631 -10.975767 6.374439 -8.675103 8.675103 
C -6.374439 10.975767 -3.253631 12.268448 0 12.268448 
z
" style="stroke: #6bcb77; stroke-opacity: 0.7"/>
    </defs>
    <g clip-path="url(#pf3691e7813)">
     <use xlink:href="#ma146ab89ba" x="329.038829" y="205.012185" style="fill: #6bcb77; fill-opacity: 0.7; stroke: #6bcb77; stroke-opacity: 0.7"/>
    </g>
   </g>
   <g id="PathCollection_43">
    <defs>
     <path id="m40ddedc06f" d="M 0 9.631166 
C 2.554215 9.631166 5.00416 8.616365 6.810263 6.810263 
C 8.616365 5.00416 9.631166 2.554215 9.631166 0 
C 9.631166 -2.554215 8.616365 -5.00416 6.810263 -6.810263 
C 5.00416 -8.616365 2.554215 -9.631166 0 -9.631166 
C -2.554215 -9.631166 -5.00416 -8.616365 -6.810263 -6.810263 
C -8.616365 -5.00416 -9.631166 -2.554215 -9.631166 0 
C -9.631166 2.554215 -8.616365 5.00416 -6.810263 6.810263 
C -5.00416 8.616365 -2.554215 9.631166 0 9.631166 
z
" style="stroke: #4d96ff; stroke-opacity: 0.7"/>
    </defs>
    <g clip-path="url(#pf3691e7813)">
     <use xlink:href="#m40ddedc06f" x="210.491482" y="283.780658" style="fill: #4d96ff; fill-opacity: 0.7; stroke: #4d96ff; stroke-opacity: 0.7"/>
    </g>
   </g>
   <g id="PathCollection_44">
    <defs>
     <path id="mce32198a75" d="M 0 11.185899 
C 2.966535 11.185899 5.811968 10.007282 7.909625 7.909625 
C 10.007282 5.811968 11.185899 2.966535 11.185899 0 
C 11.185899 -2.966535 10.007282 -5.811968 7.909625 -7.909625 
C 5.811968 -10.007282 2.966535 -11.185899 0 -11.185899 
C -2.966535 -11.185899 -5.811968 -10.007282 -7.909625 -7.909625 
C -10.007282 -5.811968 -11.185899 -2.966535 -11.185899 0 
C -11.185899 2.966535 -10.007282 5.811968 -7.909625 7.909625 
C -5.811968 10.007282 -2.966535 11.185899 0 11.185899 
z
" style="stroke: #ff6b6b; stroke-opacity: 0.7"/>
    </defs>
    <g clip-path="url(#pf3691e7813)">
     <use xlink:href="#mce32198a75" x="264.06143" y="165.457228" style="fill: #ff6b6b; fill-opacity: 0.7; stroke: #ff6b6b; stroke-opacity: 0.7"/>
    </g>
   </g>
   <g id="PathCollection_45">
    <defs>
     <path id="mb164387712" d="M 0 7.67102 
C 2.034378 7.67102 3.985708 6.862753 5.424231 5.424231 
C 6.862753 3.985708 7.67102 2.034378 7.67102 0 
C 7.67102 -2.034378 6.862753 -3.985708 5.424231 -5.424231 
C 3.985708 -6.862753 2.034378 -7.67102 0 -7.67102 
C -2.034378 -7.67102 -3.985708 -6.862753 -5.424231 -5.424231 
C -6.862753 -3.985708 -7.67102 -2.034378 -7.67102 0 
C -7.67102 2.034378 -6.862753 3.985708 -5.424231 5.424231 
C -3.985708 6.862753 -2.034378 7.67102 0 7.67102 
z
" style="stroke: #ffd93d; stroke-opacity: 0.7"/>
    </defs>
    <g clip-path="url(#pf3691e7813)">
     <use xlink:href="#mb164387712" x="304.294063" y="45.842751" style="fill: #ffd93d; fill-opacity: 0.7; stroke: #ffd93d; stroke-opacity: 0.7"/>
    </g>
   </g>
   <g id="PathCollection_46">
    <defs>
     <path id="mf54f3f6048" d="M 0 8.951667 
C 2.37401 8.951667 4.651106 8.008463 6.329784 6.329784 
C 8.008463 4.651106 8.951667 2.37401 8.951667 0 
C 8.951667 -2.37401 8.008463 -4.651106 6.329784 -6.329784 
C 4.651106 -8.008463 2.37401 -8.951667 0 -8.951667 
C -2.37401 -8.951667 -4.651106 -8.008463 -6.329784 -6.329784 
C -8.008463 -4.651106 -8.951667 -2.37401 -8.951667 0 
C -8.951667 2.37401 -8.008463 4.651106 -6.329784 6.329784 
C -4.651106 8.008463 -2.37401 8.951667 0 8.951667 
z
" style="stroke: #4d96ff; stroke-opacity: 0.7"/>
    </defs>
    <g clip-path="url(#pf3691e7813)">
     <use xlink:href="#mf54f3f6048" x="395.873897" y="93.490298" style="fill: #4d96ff; fill-opacity: 0.7; stroke: #4d96ff; stroke-opacity: 0.7"/>
    </g>
   </g>
   <g id="PathCollection_47">
    <defs>
     <path id="m6eb7280522" d="M 0 11.778815 
C 3.123778 11.778815 6.120035 10.537725 8.32888 8.32888 
C 10.537725 6.120035 11.778815 3.123778 11.778815 0 
C 11.778815 -3.123778 10.537725 -6.120035 8.32888 -8.32888 
C 6.120035 -10.537725 3.123778 -11.778815 0 -11.778815 
C -3.123778 -11.778815 -6.120035 -10.537725 -8.32888 -8.32888 
C -10.537725 -6.120035 -11.778815 -3.123778 -11.778815 0 
C -11.778815 3.123778 -10.537725 6.120035 -8.32888 8.32888 
C -6.120035 10.537725 -3.123778 11.778815 0 11.778815 
z
" style="stroke: #6bcb77; stroke-opacity: 0.7"/>
    </defs>
    <g clip-path="url(#pf3691e7813)">
     <use xlink:href="#m6eb7280522" x="179.991779" y="239.764599" style="fill: #6bcb77; fill-opacity: 0.7; stroke: #6bcb77; stroke-opacity: 0.7"/>
    </g>
   </g>
   <g id="PathCollection_48">
    <defs>
     <path id="mad184da4d8" d="M 0 8.082255 
C 2.143439 8.082255 4.199377 7.230657 5.715017 5.715017 
C 7.230657 4.199377 8.082255 2.143439 8.082255 0 
C 8.082255 -2.143439 7.230657 -4.199377 5.715017 -5.715017 
C 4.199377 -7.230657 2.143439 -8.082255 0 -8.082255 
C -2.143439 -8.082255 -4.199377 -7.230657 -5.715017 -5.715017 
C -7.230657 -4.199377 -8.082255 -2.143439 -8.082255 0 
C -8.082255 2.143439 -7.230657 4.199377 -5.715017 5.715017 
C -4.199377 7.230657 -2.143439 8.082255 0 8.082255 
z
" style="stroke: #ffd93d; stroke-opacity: 0.7"/>
    </defs>
    <g clip-path="url(#pf3691e7813)">
     <use xlink:href="#mad184da4d8" x="399.180483" y="177.603963" style="fill: #ffd93d; fill-opacity: 0.7; stroke: #ffd93d; stroke-opacity: 0.7"/>
    </g>
   </g>
   <g id="PathCollection_49">
    <defs>
     <path id="m066f695180" d="M 0 10.746445 
C 2.84999 10.746445 5.583636 9.614132 7.598884 7.598884 
C 9.614132 5.583636 10.746445 2.84999 10.746445 0 
C 10.746445 -2.84999 9.614132 -5.583636 7.598884 -7.598884 
C 5.583636 -9.614132 2.84999 -10.746445 0 -10.746445 
C -2.84999 -10.746445 -5.583636 -9.614132 -7.598884 -7.598884 
C -9.614132 -5.583636 -10.746445 -2.84999 -10.746445 0 
C -10.746445 2.84999 -9.614132 5.583636 -7.598884 7.598884 
C -5.583636 9.614132 -2.84999 10.746445 0 10.746445 
z
" style="stroke: #6bcb77; stroke-opacity: 0.7"/>
    </defs>
    <g clip-path="url(#pf3691e7813)">
     <use xlink:href="#m066f695180" x="433.905781" y="278.497057" style="fill: #6bcb77; fill-opacity: 0.7; stroke: #6bcb77; stroke-opacity: 0.7"/>
    </g>
   </g>
   <g id="PathCollection_50">
    <defs>
     <path id="ma97fdef6a9" d="M 0 12.100618 
C 3.209121 12.100618 6.287238 10.825621 8.556429 8.556429 
C 10.825621 6.287238 12.100618 3.209121 12.100618 0 
C 12.100618 -3.209121 10.825621 -6.287238 8.556429 -8.556429 
C 6.287238 -10.825621 3.209121 -12.100618 0 -12.100618 
C -3.209121 -12.100618 -6.287238 -10.825621 -8.556429 -8.556429 
C -10.825621 -6.287238 -12.100618 -3.209121 -12.100618 0 
C -12.100618 3.209121 -10.825621 6.287238 -8.556429 8.556429 
C -6.287238 10.825621 -3.209121 12.100618 0 12.100618 
z
" style="stroke: #ff6b6b; stroke-opacity: 0.7"/>
    </defs>
    <g clip-path="url(#pf3691e7813)">
     <use xlink:href="#ma97fdef6a9" x="75.573756" y="114.471904" style="fill: #ff6b6b; fill-opacity: 0.7; stroke: #ff6b6b; stroke-opacity: 0.7"/>
    </g>
   </g>
   <g id="text_1">
    <!-- 2 -->
    <g style="fill: #ff6b6b" transform="translate(16.314637 206.26875) scale(1.8 -1.8)">
     <defs>
      <path id="DejaVuSans-Bold-32" d="M 1844 884 
L 3897 884 
L 3897 0 
L 506 0 
L 506 884 
L 2209 2388 
Q 2438 2594 2547 2791 
Q 2656 2988 2656 3200 
Q 2656 3528 2436 3728 
Q 2216 3928 1850 3928 
Q 1569 3928 1234 3808 
Q 900 3688 519 3450 
L 519 4475 
Q 925 4609 1322 4679 
Q 1719 4750 2100 4750 
Q 2938 4750 3402 4381 
Q 3866 4013 3866 3353 
Q 3866 2972 3669 2642 
Q 3472 2313 2841 1759 
L 1844 884 
z
" transform="scale(0.015625)"/>
     </defs>
     <use xlink:href="#DejaVuSans-Bold-32"/>
    </g>
   </g>
   <g id="text_2">
    <!-- 0 -->
    <g style="fill: #ffd93d" transform="translate(107.019427 206.26875) scale(1.8 -1.8)">
     <defs>
      <path id="DejaVuSans-Bold-30" d="M 2944 2338 
Q 2944 3213 2780 3570 
Q 2616 3928 2228 3928 
Q 1841 3928 1675 3570 
Q 1509 3213 1509 2338 
Q 1509 1453 1675 1090 
Q 1841 728 2228 728 
Q 2613 728 2778 1090 
Q 2944 1453 2944 2338 
z
M 4147 2328 
Q 4147 1169 3647 539 
Q 3147 -91 2228 -91 
Q 1306 -91 806 539 
Q 306 1169 306 2328 
Q 306 3491 806 4120 
Q 1306 4750 2228 4750 
Q 3147 4750 3647 4120 
Q 4147 3491 4147 2328 
z
" transform="scale(0.015625)"/>
     </defs>
     <use xlink:href="#DejaVuSans-Bold-30"/>
    </g>
   </g>
   <g id="text_3">
    <!-- 2 -->
    <g style="fill: #6bcb77" transform="translate(197.724217 206.26875) scale(1.8 -1.8)">
     <use xlink:href="#DejaVuSans-Bold-32"/>
    </g>
   </g>
   <g id="text_4">
    <!-- 6 -->
    <g style="fill: #4d96ff" transform="translate(288.429007 206.26875) scale(1.8 -1.8)">
     <defs>
      <path id="DejaVuSans-Bold-36" d="M 2316 2303 
Q 2000 2303 1842 2098 
Q 1684 1894 1684 1484 
Q 1684 1075 1842 870 
Q 2000 666 2316 666 
Q 2634 666 2792 870 
Q 2950 1075 2950 1484 
Q 2950 1894 2792 2098 
Q 2634 2303 2316 2303 
z
M 3803 4544 
L 3803 3681 
Q 3506 3822 3243 3889 
Q 2981 3956 2731 3956 
Q 2194 3956 1894 3657 
Q 1594 3359 1544 2772 
Q 1750 2925 1990 3001 
Q 2231 3078 2516 3078 
Q 3231 3078 3670 2659 
Q 4109 2241 4109 1563 
Q 4109 813 3618 361 
Q 3128 -91 2303 -91 
Q 1394 -91 895 523 
Q 397 1138 397 2266 
Q 397 3422 980 4083 
Q 1563 4744 2578 4744 
Q 2900 4744 3203 4694 
Q 3506 4644 3803 4544 
z
" transform="scale(0.015625)"/>
     </defs>
     <use xlink:href="#DejaVuSans-Bold-36"/>
    </g>
   </g>
  </g>
 </g>
 <defs>
  <clipPath id="pf3691e7813">
   <rect x="37.7055" y="10.8" width="412.2945" height="324"/>
  </clipPath>
 </defs>
</svg>
