<?xml version="1.0" encoding="utf-8" standalone="no"?>
<!DOCTYPE svg PUBLIC "-//W3C//DTD SVG 1.1//EN"
  "http://www.w3.org/Graphics/SVG/1.1/DTD/svg11.dtd">
<svg xmlns:xlink="http://www.w3.org/1999/xlink" width="460.8pt" height="345.6pt" viewBox="0 0 460.8 345.6" xmlns="http://www.w3.org/2000/svg" version="1.1">
 <metadata>
  <rdf:RDF xmlns:dc="http://purl.org/dc/elements/1.1/" xmlns:cc="http://creativecommons.org/ns#" xmlns:rdf="http://www.w3.org/1999/02/22-rdf-syntax-ns#">
   <cc:Work>
    <dc:type rdf:resource="http://purl.org/dc/dcmitype/StillImage"/>
    <dc:date>2025-03-31T12:53:53.907936</dc:date>
    <dc:format>image/svg+xml</dc:format>
    <dc:creator>
     <cc:Agent>
      <dc:title>Matplotlib v3.9.1, https://matplotlib.org/</dc:title>
     </cc:Agent>
    </dc:creator>
   </cc:Work>
  </rdf:RDF>
 </metadata>
 <defs>
  <style type="text/css">*{stroke-linejoin: round; stroke-linecap: butt}</style>
 </defs>
 <g id="figure_1">
  <g id="patch_1">
   <path d="M 0 345.6 
L 460.8 345.6 
L 460.8 0 
L 0 0 
z
" style="fill: #ffffff"/>
  </g>
  <g id="axes_1">
   <g id="patch_2">
    <path d="M 10.8 334.8 
L 447 334.8 
L 447 18.064532 
L 10.8 18.064532 
z
" style="fill: #ffffff"/>
   </g>
   <g id="matplotlib.axis_1">
    <g id="text_1">
     <!-- $x$ -->
     <g transform="translate(438.13055 244.291099) scale(0.16 -0.16)">
      <defs>
       <path id="CMMI12-78" d="M 3034 2606 
C 2829 2567 2752 2414 2752 2293 
C 2752 2139 2874 2088 2963 2088 
C 3155 2088 3290 2254 3290 2427 
C 3290 2695 2982 2816 2714 2816 
C 2323 2816 2106 2433 2048 2312 
C 1901 2816 1504 2816 1389 2816 
C 736 2816 390 1980 390 1839 
C 390 1814 416 1782 461 1782 
C 512 1782 525 1820 538 1846 
C 755 2555 1184 2689 1370 2689 
C 1658 2689 1715 2420 1715 2267 
C 1715 2127 1677 1980 1600 1673 
L 1382 798 
C 1286 415 1101 64 762 64 
C 730 64 570 64 435 147 
C 666 192 717 383 717 460 
C 717 588 621 664 499 664 
C 346 664 179 530 179 326 
C 179 57 480 -64 755 -64 
C 1062 -64 1280 179 1414 441 
C 1517 64 1837 -64 2074 -64 
C 2726 -64 3072 773 3072 913 
C 3072 945 3046 971 3008 971 
C 2950 971 2944 939 2925 888 
C 2752 326 2381 64 2093 64 
C 1869 64 1747 230 1747 492 
C 1747 632 1773 734 1875 1156 
L 2099 2024 
C 2195 2408 2413 2689 2707 2689 
C 2720 2689 2899 2689 3034 2606 
z
" transform="scale(0.015625)"/>
      </defs>
      <use xlink:href="#CMMI12-78" transform="scale(0.996264)"/>
     </g>
    </g>
   </g>
   <g id="matplotlib.axis_2">
    <g id="text_2">
     <!-- $y$ -->
     <g transform="translate(217.289729 14.965056) scale(0.16 -0.16)">
      <defs>
       <path id="CMMI12-79" d="M 1683 -700 
C 1510 -939 1261 -1152 947 -1152 
C 870 -1152 563 -1152 467 -889 
C 486 -895 518 -895 531 -895 
C 723 -895 851 -729 851 -582 
C 851 -435 730 -384 634 -384 
C 531 -384 307 -458 307 -759 
C 307 -1071 582 -1286 947 -1286 
C 1587 -1286 2234 -700 2413 6 
L 3040 2485 
C 3046 2517 3059 2556 3059 2594 
C 3059 2689 2982 2753 2886 2753 
C 2829 2753 2694 2727 2643 2535 
L 2170 658 
C 2138 543 2138 530 2086 460 
C 1958 281 1747 64 1440 64 
C 1082 64 1050 415 1050 588 
C 1050 952 1222 1443 1395 1903 
C 1466 2088 1504 2178 1504 2305 
C 1504 2574 1312 2816 998 2816 
C 410 2816 173 1890 173 1839 
C 173 1814 198 1782 243 1782 
C 301 1782 307 1807 333 1897 
C 486 2433 730 2689 979 2689 
C 1037 2689 1146 2689 1146 2478 
C 1146 2312 1075 2127 979 1884 
C 666 1047 666 837 666 683 
C 666 77 1101 -64 1421 -64 
C 1606 -64 1837 -6 2061 230 
L 2067 224 
C 1971 -147 1907 -392 1683 -700 
z
" transform="scale(0.015625)"/>
      </defs>
      <use xlink:href="#CMMI12-79" transform="scale(0.996264)"/>
     </g>
    </g>
   </g>
   <g id="line2d_1">
    <defs>
     <path id="mdcfa19107b" d="M 3 0 
L -3 -3 
L -3 3 
z
" style="stroke: #000000; stroke-linejoin: miter"/>
    </defs>
    <g>
     <use xlink:href="#mdcfa19107b" x="447" y="229.221511" style="stroke: #000000; stroke-linejoin: miter"/>
    </g>
   </g>
   <g id="line2d_2">
    <defs>
     <path id="m83cebe704a" d="M 0 -3 
L -3 3 
L 3 3 
z
" style="stroke: #000000; stroke-linejoin: miter"/>
    </defs>
    <g>
     <use xlink:href="#m83cebe704a" x="228.9" y="18.064532" style="stroke: #000000; stroke-linejoin: miter"/>
    </g>
   </g>
   <g id="line2d_3">
    <path d="M 141.824045 346.6 
L 145.228425 315.610858 
L 148.63707 286.606555 
L 151.939194 260.390324 
L 155.134799 236.73774 
L 158.330403 214.731437 
L 161.419487 194.983101 
L 164.402051 177.300817 
L 167.384615 160.943897 
L 170.260659 146.393615 
L 173.030183 133.486957 
L 175.799707 121.635803 
L 178.462711 111.20977 
L 181.019194 102.071388 
L 183.469158 94.093374 
L 185.919121 86.858699 
L 188.262564 80.616253 
L 190.499487 75.259843 
L 192.73641 70.476719 
L 194.866813 66.440843 
L 196.890696 63.064381 
L 198.914579 60.12268 
L 200.831941 57.726936 
L 202.642784 55.805187 
L 204.453626 54.20661 
L 206.157949 52.990269 
L 207.862271 52.046732 
L 209.460073 51.40412 
L 211.057875 50.990159 
L 212.655678 50.799468 
L 214.25348 50.826667 
L 215.851282 51.066376 
L 217.555604 51.550237 
L 219.259927 52.263237 
L 221.070769 53.264564 
L 222.988132 54.590003 
L 225.012015 56.274933 
L 227.142418 58.353896 
L 229.379341 60.860145 
L 231.722784 63.825164 
L 234.279267 67.436193 
L 236.942271 71.592298 
L 239.818315 76.504822 
L 242.907399 82.236645 
L 246.209524 88.842363 
L 249.831209 96.600808 
L 253.772454 105.58298 
L 258.13978 116.097386 
L 263.252747 129.013581 
L 269.537436 145.537989 
L 280.189451 174.30372 
L 289.243663 198.485124 
L 295.102271 213.50899 
L 299.895678 225.216019 
L 304.156484 235.053634 
L 307.991209 243.361951 
L 311.506374 250.457952 
L 314.701978 256.427567 
L 317.684542 261.546388 
L 320.454066 265.876767 
L 323.11707 269.62987 
L 325.567033 272.705382 
L 327.910476 275.290386 
L 330.040879 277.323153 
L 332.064762 278.962425 
L 333.982125 280.243016 
L 335.792967 281.200564 
L 337.60381 281.905425 
L 339.308132 282.330982 
L 341.012454 282.519238 
L 342.610256 282.474404 
L 344.208059 282.209888 
L 345.805861 281.720307 
L 347.403663 281.000284 
L 349.001465 280.044437 
L 350.705788 278.758875 
L 352.41011 277.192348 
L 354.220952 275.212755 
L 356.031795 272.900776 
L 357.949158 270.081805 
L 359.86652 266.872117 
L 361.890403 263.04996 
L 364.020806 258.53312 
L 366.151209 253.497568 
L 368.388132 247.63802 
L 370.731575 240.854905 
L 373.075018 233.395541 
L 375.524982 224.855638 
L 378.081465 215.115652 
L 380.744469 204.04635 
L 383.407473 192.010141 
L 386.176996 178.440017 
L 389.05304 163.182501 
L 391.929084 146.706544 
L 394.911648 128.299848 
L 398.000733 107.781467 
L 401.089817 85.744837 
L 404.285421 61.309259 
L 407.481026 35.164276 
L 410.78315 6.306248 
L 411.58617 -1 
L 411.58617 -1 
" clip-path="url(#pe4a5e27913)" style="fill: none; stroke: #008080; stroke-opacity: 0.7; stroke-width: 2; stroke-linecap: square"/>
   </g>
   <g id="patch_3">
    <path d="M 228.9 334.8 
L 228.9 18.064532 
" style="fill: none; stroke: #000000; stroke-width: 0.8; stroke-linejoin: miter; stroke-linecap: square"/>
   </g>
   <g id="patch_4">
    <path d="M 447 334.8 
L 447 18.064532 
" style="fill: none"/>
   </g>
   <g id="patch_5">
    <path d="M 10.8 229.221511 
L 447 229.221511 
" style="fill: none; stroke: #000000; stroke-width: 0.8; stroke-linejoin: miter; stroke-linecap: square"/>
   </g>
   <g id="patch_6">
    <path d="M 10.8 18.064532 
L 447 18.064532 
" style="fill: none"/>
   </g>
   <g id="legend_1">
    <g id="patch_7">
     <path d="M 26.2 66.32772 
L 110.314364 66.32772 
Q 114.714364 66.32772 114.714364 61.92772 
L 114.714364 33.464532 
Q 114.714364 29.064532 110.314364 29.064532 
L 26.2 29.064532 
Q 21.8 29.064532 21.8 33.464532 
L 21.8 61.92772 
Q 21.8 66.32772 26.2 66.32772 
z
" style="fill: #ffffff; opacity: 0.8; stroke: #cccccc; stroke-linejoin: miter"/>
    </g>
    <g id="line2d_4">
     <path d="M 30.6 45.564532 
L 52.6 45.564532 
L 74.6 45.564532 
" style="fill: none; stroke: #008080; stroke-opacity: 0.7; stroke-width: 2; stroke-linecap: square"/>
    </g>
    <g id="text_3">
     <!-- B -->
     <g transform="translate(92.2 53.264532) scale(0.22 -0.22)">
      <defs>
       <path id="CMSS17-42" d="M 570 4416 
L 570 0 
L 2163 0 
C 3034 0 3667 574 3667 1200 
C 3667 1685 3251 2176 2502 2317 
C 3334 2558 3501 3040 3501 3313 
C 3501 3883 2874 4416 1997 4416 
L 570 4416 
z
M 1088 2496 
L 1088 4059 
L 1824 4059 
C 2483 4059 3002 3724 3002 3306 
C 3002 2926 2592 2496 1766 2496 
L 1088 2496 
z
M 1088 357 
L 1088 2107 
L 1939 2107 
C 2630 2107 3162 1679 3162 1206 
C 3162 772 2694 357 1984 357 
L 1088 357 
z
" transform="scale(0.015625)"/>
      </defs>
      <use xlink:href="#CMSS17-42" transform="scale(0.996264)"/>
     </g>
    </g>
   </g>
  </g>
 </g>
 <defs>
  <clipPath id="pe4a5e27913">
   <rect x="10.8" y="18.064532" width="436.2" height="316.735468"/>
  </clipPath>
 </defs>
</svg>
