<svg xmlns:xlink="http://www.w3.org/1999/xlink" xmlns="http://www.w3.org/2000/svg" width="290.025pt" height="285.337973pt" viewBox="0 0 290.025 285.337973" version="1.1">
 
 <defs>
  <style type="text/css">*{stroke-linejoin: round; stroke-linecap: butt}</style>
 </defs>
 <g id="figure_1">
  <g id="patch_1">
   <path d="M 0 285.337973  L 290.025 285.337973  L 290.025 0  L 0 0  L 0 285.337973  z " style="fill: none; opacity: 0" id="mb_auto_path_0"/>
  </g>
  <g id="axes_1">
   <g id="patch_2">
    <path d="M 7.2 278.137973  L 279.825 278.137973  L 279.825 12.127838  L 7.2 12.127838  L 7.2 278.137973  z " style="fill: none; opacity: 0" id="mb_auto_path_1"/>
   </g>
   <g id="matplotlib.axis_1">
    <g id="text_1">
     <!-- $x$ -->
     <g transform="translate(274.131081 156.051404) scale(0.1 -0.1)" id="mb_auto_g_0">
      <defs>
       <path id="CMMI12-78" d="M 3034 2606  C 2829 2567 2752 2414 2752 2293  C 2752 2139 2874 2088 2963 2088  C 3155 2088 3290 2254 3290 2427  C 3290 2695 2982 2816 2714 2816  C 2323 2816 2106 2433 2048 2312  C 1901 2816 1504 2816 1389 2816  C 736 2816 390 1980 390 1839  C 390 1814 416 1782 461 1782  C 512 1782 525 1820 538 1846  C 755 2555 1184 2689 1370 2689  C 1658 2689 1715 2420 1715 2267  C 1715 2127 1677 1980 1600 1673  L 1382 798  C 1286 415 1101 64 762 64  C 730 64 570 64 435 147  C 666 192 717 383 717 460  C 717 588 621 664 499 664  C 346 664 179 530 179 326  C 179 57 480 -64 755 -64  C 1062 -64 1280 179 1414 441  C 1517 64 1837 -64 2074 -64  C 2726 -64 3072 773 3072 913  C 3072 945 3046 971 3008 971  C 2950 971 2944 939 2925 888  C 2752 326 2381 64 2093 64  C 1869 64 1747 230 1747 492  C 1747 632 1773 734 1875 1156  L 2099 2024  C 2195 2408 2413 2689 2707 2689  C 2720 2689 2899 2689 3034 2606  z " transform="scale(0.015625)"/>
      </defs>
      <use xlink:href="#CMMI12-78" transform="scale(0.996264)" id="mb_auto_use_0"/>
     </g>
    </g>
   </g>
   <g id="matplotlib.axis_2">
    <g id="text_2">
     <!-- $y$ -->
     <g transform="translate(134.628 10.19066) scale(0.1 -0.1)" id="mb_auto_g_1">
      <defs>
       <path id="CMMI12-79" d="M 1683 -700  C 1510 -939 1261 -1152 947 -1152  C 870 -1152 563 -1152 467 -889  C 486 -895 518 -895 531 -895  C 723 -895 851 -729 851 -582  C 851 -435 730 -384 634 -384  C 531 -384 307 -458 307 -759  C 307 -1071 582 -1286 947 -1286  C 1587 -1286 2234 -700 2413 6  L 3040 2485  C 3046 2517 3059 2556 3059 2594  C 3059 2689 2982 2753 2886 2753  C 2829 2753 2694 2727 2643 2535  L 2170 658  C 2138 543 2138 530 2086 460  C 1958 281 1747 64 1440 64  C 1082 64 1050 415 1050 588  C 1050 952 1222 1443 1395 1903  C 1466 2088 1504 2178 1504 2305  C 1504 2574 1312 2816 998 2816  C 410 2816 173 1890 173 1839  C 173 1814 198 1782 243 1782  C 301 1782 307 1807 333 1897  C 486 2433 730 2689 979 2689  C 1037 2689 1146 2689 1146 2478  C 1146 2312 1075 2127 979 1884  C 666 1047 666 837 666 683  C 666 77 1101 -64 1421 -64  C 1606 -64 1837 -6 2061 230  L 2067 224  C 1971 -147 1907 -392 1683 -700  z " transform="scale(0.015625)"/>
      </defs>
      <use xlink:href="#CMMI12-79" transform="scale(0.996264)" id="mb_auto_use_1"/>
     </g>
    </g>
   </g>
   <g id="line2d_1">
    <defs>
     <path id="m41dbb36874" d="M 3 0  L -3 -3  L -3 3  z " style="stroke: #000000; stroke-linejoin: miter"/>
    </defs>
    <g id="mb_auto_g_2">
     <use xlink:href="#m41dbb36874" x="279.825" y="145.132906" style="stroke: #000000; stroke-linejoin: miter" id="mb_auto_use_2"/>
    </g>
   </g>
   <g id="line2d_2">
    <defs>
     <path id="m29bbe2ffe2" d="M 0 -3  L -3 3  L 3 3  z " style="stroke: #000000; stroke-linejoin: miter"/>
    </defs>
    <g id="mb_auto_g_3">
     <use xlink:href="#m29bbe2ffe2" x="143.5125" y="12.127838" style="stroke: #000000; stroke-linejoin: miter" id="mb_auto_use_3"/>
    </g>
   </g>
   <g id="line2d_3">
    <defs>
     <path id="m9040e342e7" d="M 0 5  C 1.326016 5 2.597899 4.473168 3.535534 3.535534  C 4.473168 2.597899 5 1.326016 5 0  C 5 -1.326016 4.473168 -2.597899 3.535534 -3.535534  C 2.597899 -4.473168 1.326016 -5 0 -5  C -1.326016 -5 -2.597899 -4.473168 -3.535534 -3.535534  C -4.473168 -2.597899 -5 -1.326016 -5 0  C -5 1.326016 -4.473168 2.597899 -3.535534 3.535534  C -2.597899 4.473168 -1.326016 5 0 5  z " style="stroke: #000000; stroke-opacity: 0.8"/>
    </defs>
    <g clip-path="url(#pd082ce18aa)" id="mb_auto_g_4">
     <use xlink:href="#m9040e342e7" x="211.66875" y="145.132906" style="fill-opacity: 0.8; stroke: #000000; stroke-opacity: 0.8" id="mb_auto_use_4"/>
    </g>
   </g>
   <g id="line2d_4">
    <path d="M 211.66875 145.132906  L 211.564648 141.458698  L 211.25266 137.795714  L 210.73374 134.155143  L 210.009472 130.548108  L 209.082069 126.985626  L 207.954365 123.47858  L 206.629803 120.037684  L 205.11243 116.673449  L 203.406882 113.396152  L 201.518368 110.215805  L 199.452658 107.142122  L 197.216062 104.184493  L 194.815413 101.351954  L 192.258043 98.653157  L 189.551765 96.096346  L 186.704846 93.689332  L 183.725984 91.439468  L 180.624277 89.353627  L 177.409201 87.438181  L 174.090577 85.69898  L 170.678544 84.141338  L 167.183524 82.770013  L 163.616193 81.589194  L 159.98745 80.602489  L 156.308379 79.812911  L 152.590219 79.222873  L 148.844328 78.834177  L 145.08215 78.64801  L 141.315177 78.664942  L 137.554916 78.88492  L 133.812854 79.307272  L 130.100423 79.930708  L 126.428963 80.753325  L 122.80969 81.772607  L 119.25366 82.985443  L 115.771736 84.388128  L 112.374554 85.976375  L 109.072493 87.745334  L 105.875639 89.6896  L 102.793758 91.803235  L 99.836265 94.079781  L 97.012193 96.512284  L 94.330171 99.093314  L 91.798392 101.814985  L 89.424588 104.668984  L 87.216013 107.646592  L 85.179412 110.738714  L 83.321006 113.935903  L 81.646474 117.228392  L 80.160931 120.606124  L 78.868913 124.058781  L 77.774369 127.575815  L 76.880642 131.146482  L 76.190462 134.759875  L 75.705938 138.404956  L 75.428549 142.070589  L 75.359142 145.745577  L 75.497931 149.418693  L 75.844491 153.078717  L 76.397763 156.714469  L 77.156057 160.31484  L 78.117057 163.868835  L 79.277827 167.365594  L 80.634821 170.794437  L 82.183894 174.144889  L 83.920313 177.406716  L 85.838775 180.569952  L 87.933419 183.624935  L 90.197845 186.562333  L 92.625138 189.373172  L 95.207881 192.048866  L 97.938185 194.581241  L 100.807709 196.962561  L 103.807688 199.185552  L 106.928957 201.243423  L 110.161982 203.129887  L 113.496886 204.839182  L 116.923482 206.366087  L 120.431302 207.705936  L 124.00963 208.854637  L 127.647536 209.808681  L 131.333906 210.565153  L 135.057479 211.121743  L 138.80688 211.47675  L 142.570657 211.629089  L 146.33731 211.578297  L 150.095334 211.324526  L 153.833249 210.868554  L 157.539637 210.211772  L 161.203174 209.356187  L 164.812669 208.304413  L 168.357097 207.059663  L 171.825629 205.625738  L 175.207671 204.00702  L 178.49289 202.208454  L 181.671251 200.235532  L 184.733045 198.094284  L 187.668918 195.791249  L 190.469902 193.333462  L 193.12744 190.728433  L 195.633415 187.984119  L 197.98017 185.108902  L 200.160538 182.111567  L 202.167857 179.001269  L 203.995996 175.78751  L 205.63937 172.480108  L 207.092959 169.089165  L 208.352322 165.625041  L 209.413612 162.098317  L 210.273588 158.519767  L 210.929621 154.900323  L 211.379709 151.251042  L 211.622476 147.583071  L 211.66875 145.132906  L 211.66875 145.132906  " clip-path="url(#pd082ce18aa)" style="fill: none; stroke: #0072b2; stroke-width: 2.5; stroke-linecap: square" id="mb_auto_path_2"/>
   </g>
   <g id="LineCollection_1">
    <path d="M 211.66875 145.132906  L 211.66875 145.132906  " clip-path="url(#pd082ce18aa)" style="fill: none; stroke-dasharray: 9.25,4; stroke-dashoffset: 0; stroke: #808080; stroke-width: 2.5" id="mb_auto_path_3"/>
   </g>
   <g id="LineCollection_2">
    <path d="M 143.5125 145.132906  L 211.66875 145.132906  " clip-path="url(#pd082ce18aa)" style="fill: none; stroke-dasharray: 9.25,4; stroke-dashoffset: 0; stroke: #808080; stroke-width: 2.5" id="mb_auto_path_4"/>
   </g>
   <g id="line2d_5">
    <path d="M 163.959375 145.132906  L 163.959375 145.132906  " clip-path="url(#pd082ce18aa)" style="fill: none; stroke: #dc5e8b; stroke-linecap: square" id="mb_auto_path_5"/>
   </g>
   <g id="line2d_6">
    <path d="M 143.5125 145.132906  L 211.66875 145.132906  " clip-path="url(#pd082ce18aa)" style="fill: none; stroke: #dc5e8b; stroke-width: 2.5; stroke-linecap: square" id="mb_auto_path_6"/>
   </g>
   <g id="patch_3">
    <path d="M 143.5125 278.137973  L 143.5125 12.127838  " style="fill: none; stroke: #000000; stroke-width: 0.8; stroke-linejoin: miter; stroke-linecap: square" id="mb_auto_path_7"/>
   </g>
   <g id="patch_4">
    <path d="M 279.825 278.137973  L 279.825 12.127838  " style="fill: none" id="mb_auto_path_8"/>
   </g>
   <g id="patch_5">
    <path d="M 7.2 145.132906  L 279.825 145.132906  " style="fill: none; stroke: #000000; stroke-width: 0.8; stroke-linejoin: miter; stroke-linecap: square" id="mb_auto_path_9"/>
   </g>
   <g id="patch_6">
    <path d="M 7.2 12.127838  L 279.825 12.127838  " style="fill: none" id="mb_auto_path_10"/>
   </g>
   <g id="text_3">
    <!-- $v = 0^\circ$ -->
    <g transform="translate(170.775 147.623566) scale(0.1 -0.1)" id="mb_auto_g_5">
     <defs>
      <path id="CMMI12-76" d="M 2925 2389  C 2925 2791 2720 2816 2669 2816  C 2515 2816 2374 2663 2374 2535  C 2374 2459 2419 2414 2445 2389  C 2509 2331 2675 2159 2675 1827  C 2675 1558 2291 64 1523 64  C 1133 64 1056 390 1056 626  C 1056 945 1203 1392 1376 1852  C 1478 2114 1504 2178 1504 2305  C 1504 2574 1312 2816 998 2816  C 410 2816 173 1890 173 1839  C 173 1814 198 1782 243 1782  C 301 1782 307 1807 333 1897  C 486 2446 736 2689 979 2689  C 1037 2689 1146 2689 1146 2478  C 1146 2312 1075 2127 979 1884  C 672 1067 672 869 672 715  C 672 575 691 313 890 134  C 1120 -64 1440 -64 1498 -64  C 2560 -64 2925 2024 2925 2389  z " transform="scale(0.015625)"/>
      <path id="CMR17-3d" d="M 4115 2017  C 4211 2017 4307 2017 4307 2125  C 4307 2240 4198 2240 4090 2240  L 512 2240  C 403 2240 294 2240 294 2125  C 294 2017 390 2017 486 2017  L 4115 2017  z M 4090 896  C 4198 896 4307 896 4307 1011  C 4307 1119 4211 1119 4115 1119  L 486 1119  C 390 1119 294 1119 294 1011  C 294 896 403 896 512 896  L 4090 896  z " transform="scale(0.015625)"/>
      <path id="CMR17-30" d="M 2688 2025  C 2688 2416 2682 3080 2413 3591  C 2176 4039 1798 4198 1466 4198  C 1158 4198 768 4058 525 3597  C 269 3118 243 2524 243 2025  C 243 1661 250 1106 448 619  C 723 -39 1216 -128 1466 -128  C 1760 -128 2208 -7 2470 600  C 2662 1042 2688 1559 2688 2025  z M 1466 -26  C 1056 -26 813 325 723 812  C 653 1188 653 1738 653 2096  C 653 2588 653 2997 736 3387  C 858 3929 1216 4096 1466 4096  C 1728 4096 2067 3923 2189 3400  C 2272 3036 2278 2607 2278 2096  C 2278 1680 2278 1169 2202 792  C 2067 95 1690 -26 1466 -26  z " transform="scale(0.015625)"/>
      <path id="CMSY10-e" d="M 2842 1600  C 2842 2277 2272 2828 1600 2828  C 909 2828 352 2264 352 1600  C 352 930 909 372 1600 372  C 2272 372 2842 923 2842 1600  z M 1600 628  C 1043 628 608 1070 608 1600  C 608 2130 1050 2572 1600 2572  C 2131 2572 2586 2142 2586 1600  C 2586 1058 2131 628 1600 628  z " transform="scale(0.015625)"/>
     </defs>
     <use xlink:href="#CMMI12-76" transform="scale(0.996264)" id="mb_auto_use_5"/>
     <use xlink:href="#CMR17-3d" transform="translate(78.409182 0) scale(0.996264)" id="mb_auto_use_6"/>
     <use xlink:href="#CMR17-30" transform="translate(177.797979 0) scale(0.996264)" id="mb_auto_use_7"/>
     <use xlink:href="#CMSY10-e" transform="translate(223.488456 36.153639) scale(0.697382)" id="mb_auto_use_8"/>
    </g>
   </g>
   <g id="text_4">
    <!-- $P(1.00, 0.00)$ -->
    <g transform="translate(211.66875 135.991992) scale(0.1 -0.1)" id="mb_auto_g_6">
     <defs>
      <path id="CMMI12-50" d="M 1894 2023  L 2970 2023  C 3853 2023 4736 2673 4736 3401  C 4736 3898 4314 4352 3507 4352  L 1530 4352  C 1408 4352 1350 4352 1350 4231  C 1350 4167 1408 4167 1504 4167  C 1894 4167 1894 4116 1894 4046  C 1894 4034 1894 3995 1869 3899  L 1005 472  C 947 249 934 185 486 185  C 365 185 301 185 301 70  C 301 0 358 0 397 0  C 518 0 646 0 768 0  L 1517 0  C 1638 0 1773 0 1894 0  C 1946 0 2016 0 2016 121  C 2016 185 1958 185 1862 185  C 1478 185 1472 230 1472 293  C 1472 325 1478 369 1485 401  L 1894 2023  z M 2355 3930  C 2413 4167 2438 4167 2688 4167  L 3322 4167  C 3802 4167 4198 4013 4198 3535  C 4198 3369 4115 2827 3821 2534  C 3712 2419 3405 2176 2822 2176  L 1920 2176  L 2355 3930  z " transform="scale(0.015625)"/>
      <path id="CMR17-28" d="M 1958 -1561  C 1958 -1555 1958 -1542 1939 -1523  C 1645 -1224 858 -407 858 1581  C 858 3569 1632 4379 1946 4697  C 1946 4704 1958 4717 1958 4736  C 1958 4755 1939 4768 1914 4768  C 1843 4768 1299 4296 986 3594  C 666 2887 576 2199 576 1588  C 576 1128 621 351 1005 -471  C 1312 -1135 1837 -1600 1914 -1600  C 1946 -1600 1958 -1587 1958 -1561  z " transform="scale(0.015625)"/>
      <path id="CMR17-31" d="M 1702 4058  C 1702 4192 1696 4192 1606 4192  C 1357 3916 979 3827 621 3827  C 602 3827 570 3827 563 3808  C 557 3795 557 3782 557 3648  C 755 3648 1088 3686 1344 3839  L 1344 461  C 1344 236 1331 160 781 160  L 589 160  L 589 0  C 896 0 1216 0 1523 0  C 1830 0 2150 0 2458 0  L 2458 160  L 2266 160  C 1715 160 1702 230 1702 458  L 1702 4058  z " transform="scale(0.015625)"/>
      <path id="CMMI12-3a" d="M 1178 307  C 1178 492 1024 619 870 619  C 685 619 557 466 557 313  C 557 128 710 0 864 0  C 1050 0 1178 153 1178 307  z " transform="scale(0.015625)"/>
      <path id="CMMI12-3b" d="M 1248 -31  C 1248 343 1126 619 864 619  C 659 619 557 453 557 313  C 557 172 653 0 870 0  C 954 0 1024 26 1082 83  C 1094 96 1101 96 1107 96  C 1120 96 1120 5 1120 -27  C 1120 -240 1082 -659 710 -1080  C 640 -1157 640 -1170 640 -1183  C 640 -1216 672 -1248 704 -1248  C 755 -1248 1248 -771 1248 -31  z " transform="scale(0.015625)"/>
      <path id="CMR17-29" d="M 1683 1581  C 1683 2040 1638 2817 1254 3639  C 947 4303 422 4768 346 4768  C 326 4768 301 4761 301 4729  C 301 4717 307 4710 314 4697  C 621 4378 1402 3568 1402 1584  C 1402 -407 627 -1217 314 -1537  C 307 -1549 301 -1556 301 -1568  C 301 -1600 326 -1600 346 -1600  C 416 -1600 960 -1128 1274 -426  C 1594 281 1683 969 1683 1581  z " transform="scale(0.015625)"/>
     </defs>
     <use xlink:href="#CMMI12-50" transform="scale(0.996264)" id="mb_auto_use_9"/>
     <use xlink:href="#CMR17-28" transform="translate(76.425821 0) scale(0.996264)" id="mb_auto_use_10"/>
     <use xlink:href="#CMR17-31" transform="translate(111.706589 0) scale(0.996264)" id="mb_auto_use_11"/>
     <use xlink:href="#CMMI12-3a" transform="translate(157.397066 0) scale(0.996264)" id="mb_auto_use_12"/>
     <use xlink:href="#CMR17-30" transform="translate(184.494243 0) scale(0.996264)" id="mb_auto_use_13"/>
     <use xlink:href="#CMR17-30" transform="translate(230.18472 0) scale(0.996264)" id="mb_auto_use_14"/>
     <use xlink:href="#CMMI12-3b" transform="translate(275.875197 0) scale(0.996264)" id="mb_auto_use_15"/>
     <use xlink:href="#CMR17-30" transform="translate(319.576779 0) scale(0.996264)" id="mb_auto_use_16"/>
     <use xlink:href="#CMMI12-3a" transform="translate(365.267256 0) scale(0.996264)" id="mb_auto_use_17"/>
     <use xlink:href="#CMR17-30" transform="translate(392.364434 0) scale(0.996264)" id="mb_auto_use_18"/>
     <use xlink:href="#CMR17-30" transform="translate(438.054911 0) scale(0.996264)" id="mb_auto_use_19"/>
     <use xlink:href="#CMR17-29" transform="translate(483.745388 0) scale(0.996264)" id="mb_auto_use_20"/>
    </g>
   </g>
  </g>
 </g>
 <defs>
  <clipPath id="pd082ce18aa">
   <rect x="7.2" y="12.127838" width="272.625" height="266.010135" id="mb_auto_rect_0"/>
  </clipPath>
 </defs>
</svg>