<?xml version="1.0" encoding="utf-8" standalone="no"?>
<!DOCTYPE svg PUBLIC "-//W3C//DTD SVG 1.1//EN"
  "http://www.w3.org/Graphics/SVG/1.1/DTD/svg11.dtd">
<svg xmlns:xlink="http://www.w3.org/1999/xlink" width="640.8pt" height="496.94pt" viewBox="0 0 640.8 496.94" xmlns="http://www.w3.org/2000/svg" version="1.1">
 <metadata>
  <rdf:RDF xmlns:dc="http://purl.org/dc/elements/1.1/" xmlns:cc="http://creativecommons.org/ns#" xmlns:rdf="http://www.w3.org/1999/02/22-rdf-syntax-ns#">
   <cc:Work>
    <dc:type rdf:resource="http://purl.org/dc/dcmitype/StillImage"/>
    <dc:date>2025-10-03T21:50:50.191360</dc:date>
    <dc:format>image/svg+xml</dc:format>
    <dc:creator>
     <cc:Agent>
      <dc:title>Matplotlib v3.9.1, https://matplotlib.org/</dc:title>
     </cc:Agent>
    </dc:creator>
   </cc:Work>
  </rdf:RDF>
 </metadata>
 <defs>
  <style type="text/css">*{stroke-linejoin: round; stroke-linecap: butt}</style>
 </defs>
 <g id="figure_1">
  <g id="patch_1">
   <path d="M 0 496.94 
L 640.8 496.94 
L 640.8 0 
L 0 0 
L 0 496.94 
z
" style="fill: none"/>
  </g>
  <g id="axes_1">
   <g id="patch_2">
    <path d="M 7.2 243.14 
L 312 243.14 
L 312 16.556315 
L 7.2 16.556315 
L 7.2 243.14 
z
" style="fill: none"/>
   </g>
   <g id="matplotlib.axis_1">
    <g id="text_1">
     <!-- $x$ -->
     <g transform="translate(300.913188 147.685154) scale(0.2 -0.2)">
      <defs>
       <path id="CMMI12-78" d="M 3034 2606 
C 2829 2567 2752 2414 2752 2293 
C 2752 2139 2874 2088 2963 2088 
C 3155 2088 3290 2254 3290 2427 
C 3290 2695 2982 2816 2714 2816 
C 2323 2816 2106 2433 2048 2312 
C 1901 2816 1504 2816 1389 2816 
C 736 2816 390 1980 390 1839 
C 390 1814 416 1782 461 1782 
C 512 1782 525 1820 538 1846 
C 755 2555 1184 2689 1370 2689 
C 1658 2689 1715 2420 1715 2267 
C 1715 2127 1677 1980 1600 1673 
L 1382 798 
C 1286 415 1101 64 762 64 
C 730 64 570 64 435 147 
C 666 192 717 383 717 460 
C 717 588 621 664 499 664 
C 346 664 179 530 179 326 
C 179 57 480 -64 755 -64 
C 1062 -64 1280 179 1414 441 
C 1517 64 1837 -64 2074 -64 
C 2726 -64 3072 773 3072 913 
C 3072 945 3046 971 3008 971 
C 2950 971 2944 939 2925 888 
C 2752 326 2381 64 2093 64 
C 1869 64 1747 230 1747 492 
C 1747 632 1773 734 1875 1156 
L 2099 2024 
C 2195 2408 2413 2689 2707 2689 
C 2720 2689 2899 2689 3034 2606 
z
" transform="scale(0.015625)"/>
      </defs>
      <use xlink:href="#CMMI12-78" transform="scale(0.996264)"/>
     </g>
    </g>
   </g>
   <g id="matplotlib.axis_2">
    <g id="text_2">
     <!-- $y$ -->
     <g transform="translate(146.087165 12.680682) scale(0.2 -0.2)">
      <defs>
       <path id="CMMI12-79" d="M 1683 -700 
C 1510 -939 1261 -1152 947 -1152 
C 870 -1152 563 -1152 467 -889 
C 486 -895 518 -895 531 -895 
C 723 -895 851 -729 851 -582 
C 851 -435 730 -384 634 -384 
C 531 -384 307 -458 307 -759 
C 307 -1071 582 -1286 947 -1286 
C 1587 -1286 2234 -700 2413 6 
L 3040 2485 
C 3046 2517 3059 2556 3059 2594 
C 3059 2689 2982 2753 2886 2753 
C 2829 2753 2694 2727 2643 2535 
L 2170 658 
C 2138 543 2138 530 2086 460 
C 1958 281 1747 64 1440 64 
C 1082 64 1050 415 1050 588 
C 1050 952 1222 1443 1395 1903 
C 1466 2088 1504 2178 1504 2305 
C 1504 2574 1312 2816 998 2816 
C 410 2816 173 1890 173 1839 
C 173 1814 198 1782 243 1782 
C 301 1782 307 1807 333 1897 
C 486 2433 730 2689 979 2689 
C 1037 2689 1146 2689 1146 2478 
C 1146 2312 1075 2127 979 1884 
C 666 1047 666 837 666 683 
C 666 77 1101 -64 1421 -64 
C 1606 -64 1837 -6 2061 230 
L 2067 224 
C 1971 -147 1907 -392 1683 -700 
z
" transform="scale(0.015625)"/>
      </defs>
      <use xlink:href="#CMMI12-79" transform="scale(0.996264)"/>
     </g>
    </g>
   </g>
   <g id="line2d_1">
    <defs>
     <path id="ma1ee31b835" d="M 3 0 
L -3 -3 
L -3 3 
z
" style="stroke: #000000; stroke-linejoin: miter"/>
    </defs>
    <g>
     <use xlink:href="#ma1ee31b835" x="312" y="129.848158" style="stroke: #000000; stroke-linejoin: miter"/>
    </g>
   </g>
   <g id="line2d_2">
    <defs>
     <path id="mb1775d3a2a" d="M 0 -3 
L -3 3 
L 3 3 
z
" style="stroke: #000000; stroke-linejoin: miter"/>
    </defs>
    <g>
     <use xlink:href="#mb1775d3a2a" x="159.6" y="16.556315" style="stroke: #000000; stroke-linejoin: miter"/>
    </g>
   </g>
   <g id="line2d_3">
    <path d="M 7.2 130.910269 
L 33.549011 131.327613 
L 50.891722 131.811648 
L 63.098608 132.363079 
L 72.104908 132.981186 
L 79.027106 133.668755 
L 84.535092 134.431847 
L 89.001026 135.269599 
L 92.648205 136.171403 
L 95.774359 137.169878 
L 98.453919 138.259323 
L 100.761319 139.436065 
L 102.770989 140.704513 
L 104.557363 142.085432 
L 106.194872 143.627073 
L 107.683516 145.327596 
L 109.097729 147.286969 
L 110.437509 149.546464 
L 111.628425 151.984071 
L 112.819341 154.949773 
L 113.935824 158.358856 
L 114.977875 162.265434 
L 116.019927 167.103649 
L 116.987546 172.715724 
L 117.880733 179.189436 
L 118.773919 187.356184 
L 119.592674 196.886396 
L 120.411429 209.152447 
L 121.155751 223.655317 
L 121.900073 242.761317 
L 122.569963 265.690292 
L 123.239853 296.732161 
L 123.835311 334.617938 
L 124.430769 387.587099 
L 124.951795 453.46011 
L 125.219285 497.94 
M 132.786108 497.94 
L 133.362637 401.866265 
L 133.958095 336.832354 
L 134.627985 287.640305 
L 135.297875 253.760391 
L 136.042198 227.204282 
L 136.78652 208.124609 
L 137.605275 192.765732 
L 138.424029 181.362955 
L 139.317216 171.992162 
L 140.210403 164.850316 
L 141.178022 158.883563 
L 142.145641 154.237625 
L 143.187692 150.303629 
L 144.229744 147.185447 
L 145.346227 144.515588 
L 146.537143 142.239453 
L 147.802491 140.304829 
L 149.142271 138.663733 
L 150.556484 137.273254 
L 152.11956 136.043221 
L 153.905934 134.931395 
L 155.915604 133.955872 
L 158.223004 133.095161 
L 160.902564 132.341735 
L 164.10315 131.680566 
L 168.048059 131.103265 
L 173.035018 130.611157 
L 179.510623 130.207496 
L 188.442491 129.888327 
L 201.616996 129.658659 
L 223.574505 129.524056 
L 271.211136 129.501255 
L 312 129.533458 
L 312 129.533458 
" clip-path="url(#p50bba155b5)" style="fill: none; stroke: #0072b2; stroke-width: 2.5; stroke-linecap: square"/>
   </g>
   <g id="line2d_4">
    <defs>
     <path id="macc93926b7" d="M 0 5 
C 1.326016 5 2.597899 4.473168 3.535534 3.535534 
C 4.473168 2.597899 5 1.326016 5 0 
C 5 -1.326016 4.473168 -2.597899 3.535534 -3.535534 
C 2.597899 -4.473168 1.326016 -5 0 -5 
C -1.326016 -5 -2.597899 -4.473168 -3.535534 -3.535534 
C -4.473168 -2.597899 -5 -1.326016 -5 0 
C -5 1.326016 -4.473168 2.597899 -3.535534 3.535534 
C -2.597899 4.473168 -1.326016 5 0 5 
z
" style="stroke: #000000; stroke-opacity: 0.8"/>
    </defs>
    <g clip-path="url(#p50bba155b5)">
     <use xlink:href="#macc93926b7" x="190.08" y="129.848158" style="fill-opacity: 0.8; stroke: #000000; stroke-opacity: 0.8"/>
    </g>
   </g>
   <g id="line2d_5">
    <path d="M 129.12 243.14 
L 129.12 16.556315 
" clip-path="url(#p50bba155b5)" style="fill: none; stroke-dasharray: 9.25,4; stroke-dashoffset: 0; stroke: #dc5e8b; stroke-width: 2.5"/>
   </g>
   <g id="patch_3">
    <path d="M 159.6 243.14 
L 159.6 16.556315 
" style="fill: none; stroke: #000000; stroke-width: 0.8; stroke-linejoin: miter; stroke-linecap: square"/>
   </g>
   <g id="patch_4">
    <path d="M 312 243.14 
L 312 16.556315 
" style="fill: none"/>
   </g>
   <g id="patch_5">
    <path d="M 7.2 129.848158 
L 312 129.848158 
" style="fill: none; stroke: #000000; stroke-width: 0.8; stroke-linejoin: miter; stroke-linecap: square"/>
   </g>
   <g id="patch_6">
    <path d="M 7.2 16.556315 
L 312 16.556315 
" style="fill: none"/>
   </g>
   <g id="legend_1">
    <g id="patch_7">
     <path d="M 219.374426 60.431949 
L 298 60.431949 
Q 302 60.431949 302 56.431949 
L 302 30.556315 
Q 302 26.556315 298 26.556315 
L 219.374426 26.556315 
Q 215.374426 26.556315 215.374426 30.556315 
L 215.374426 56.431949 
Q 215.374426 60.431949 219.374426 60.431949 
z
" style="fill: #ffffff; opacity: 0.8; stroke: #cccccc; stroke-linejoin: miter"/>
    </g>
    <g id="line2d_6">
     <path d="M 223.374426 41.556315 
L 243.374426 41.556315 
L 263.374426 41.556315 
" style="fill: none; stroke: #0072b2; stroke-width: 2.5; stroke-linecap: square"/>
    </g>
    <g id="text_3">
     <!-- $A$ -->
     <g transform="translate(279.374426 48.556315) scale(0.2 -0.2)">
      <defs>
       <path id="CMMI12-41" d="M 1088 691 
C 864 314 646 186 339 186 
C 269 180 218 180 218 58 
C 218 24 250 0 294 0 
C 410 0 698 0 813 0 
C 998 0 1203 0 1382 0 
C 1421 0 1498 0 1498 122 
C 1498 180 1446 186 1408 186 
C 1261 186 1139 236 1139 388 
C 1139 476 1178 546 1261 685 
L 1747 1479 
L 3379 1479 
C 3386 1423 3386 1373 3392 1316 
C 3411 1152 3488 495 3488 376 
C 3488 186 3162 186 3059 186 
C 2989 186 2918 186 2918 70 
C 2918 0 2976 0 3014 0 
C 3123 0 3251 0 3360 0 
L 3725 0 
C 4115 0 4397 0 4403 0 
C 4448 0 4518 0 4518 122 
C 4518 186 4461 186 4365 186 
C 4013 186 4006 244 3987 434 
L 3597 4404 
C 3584 4531 3558 4544 3488 4544 
C 3424 4544 3386 4531 3328 4435 
L 1088 691 
z
M 1856 1664 
L 3142 3819 
L 3360 1664 
L 1856 1664 
z
" transform="scale(0.015625)"/>
      </defs>
      <use xlink:href="#CMMI12-41" transform="scale(0.996264)"/>
     </g>
    </g>
   </g>
  </g>
  <g id="axes_2">
   <g id="patch_8">
    <path d="M 325.8 243.14 
L 630.6 243.14 
L 630.6 16.556315 
L 325.8 16.556315 
L 325.8 243.14 
z
" style="fill: none"/>
   </g>
   <g id="matplotlib.axis_3">
    <g id="text_4">
     <!-- $x$ -->
     <g transform="translate(619.513188 147.685154) scale(0.2 -0.2)">
      <use xlink:href="#CMMI12-78" transform="scale(0.996264)"/>
     </g>
    </g>
   </g>
   <g id="matplotlib.axis_4">
    <g id="text_5">
     <!-- $y$ -->
     <g transform="translate(464.687165 12.680682) scale(0.2 -0.2)">
      <use xlink:href="#CMMI12-79" transform="scale(0.996264)"/>
     </g>
    </g>
   </g>
   <g id="line2d_7">
    <g>
     <use xlink:href="#ma1ee31b835" x="630.6" y="129.848158" style="stroke: #000000; stroke-linejoin: miter"/>
    </g>
   </g>
   <g id="line2d_8">
    <g>
     <use xlink:href="#mb1775d3a2a" x="478.2" y="16.556315" style="stroke: #000000; stroke-linejoin: miter"/>
    </g>
   </g>
   <g id="line2d_9">
    <path d="M 325.8 130.162857 
L 423.529524 130.136178 
L 444.370549 129.918074 
L 456.05641 129.588278 
L 463.797363 129.15917 
L 469.37978 128.63751 
L 473.622418 128.02875 
L 477.0463 127.318214 
L 479.800293 126.527636 
L 482.107692 125.643815 
L 484.117363 124.640127 
L 485.829304 123.547502 
L 487.392381 122.290492 
L 488.806593 120.86748 
L 490.071941 119.289109 
L 491.262857 117.456862 
L 492.379341 115.338553 
L 493.421392 112.902704 
L 494.463443 109.882415 
L 495.431062 106.383697 
L 496.398681 101.986791 
L 497.291868 96.850438 
L 498.185055 90.294739 
L 499.00381 82.562975 
L 499.822564 72.516213 
L 500.566886 60.537837 
L 501.311209 44.645202 
L 501.981099 25.463886 
L 502.659322 -1 
M 515.360526 -1 
L 516.048791 21.214389 
L 516.867546 40.800418 
L 517.6863 55.383591 
L 518.579487 67.427805 
L 519.472674 76.669964 
L 520.440293 84.456824 
L 521.482344 90.996521 
L 522.524396 96.155697 
L 523.640879 100.566166 
L 524.757363 104.11901 
L 525.948278 107.200708 
L 527.213626 109.869555 
L 528.553407 112.17965 
L 529.967619 114.179826 
L 531.456264 115.91331 
L 533.093773 117.482754 
L 534.880147 118.886806 
L 536.889817 120.17494 
L 539.122784 121.333949 
L 541.65348 122.389778 
L 544.556337 123.353208 
L 547.905788 124.227121 
L 551.925128 125.0379 
L 556.763223 125.776557 
L 562.64337 126.441223 
L 570.012161 127.041589 
L 579.465055 127.578268 
L 591.96967 128.053068 
L 609.089084 128.466412 
L 630.6 128.786047 
L 630.6 128.786047 
" clip-path="url(#p2293dbffef)" style="fill: none; stroke: #0072b2; stroke-width: 2.5; stroke-linecap: square"/>
   </g>
   <g id="line2d_10">
    <g clip-path="url(#p2293dbffef)">
     <use xlink:href="#macc93926b7" x="447.72" y="129.848158" style="fill-opacity: 0.8; stroke: #000000; stroke-opacity: 0.8"/>
    </g>
   </g>
   <g id="line2d_11">
    <path d="M 508.68 243.14 
L 508.68 16.556315 
" clip-path="url(#p2293dbffef)" style="fill: none; stroke-dasharray: 9.25,4; stroke-dashoffset: 0; stroke: #dc5e8b; stroke-width: 2.5"/>
   </g>
   <g id="patch_9">
    <path d="M 478.2 243.14 
L 478.2 16.556315 
" style="fill: none; stroke: #000000; stroke-width: 0.8; stroke-linejoin: miter; stroke-linecap: square"/>
   </g>
   <g id="patch_10">
    <path d="M 630.6 243.14 
L 630.6 16.556315 
" style="fill: none"/>
   </g>
   <g id="patch_11">
    <path d="M 325.8 129.848158 
L 630.6 129.848158 
" style="fill: none; stroke: #000000; stroke-width: 0.8; stroke-linejoin: miter; stroke-linecap: square"/>
   </g>
   <g id="patch_12">
    <path d="M 325.8 16.556315 
L 630.6 16.556315 
" style="fill: none"/>
   </g>
   <g id="legend_2">
    <g id="patch_13">
     <path d="M 537.778399 60.431949 
L 616.6 60.431949 
Q 620.6 60.431949 620.6 56.431949 
L 620.6 30.556315 
Q 620.6 26.556315 616.6 26.556315 
L 537.778399 26.556315 
Q 533.778399 26.556315 533.778399 30.556315 
L 533.778399 56.431949 
Q 533.778399 60.431949 537.778399 60.431949 
z
" style="fill: #ffffff; opacity: 0.8; stroke: #cccccc; stroke-linejoin: miter"/>
    </g>
    <g id="line2d_12">
     <path d="M 541.778399 41.556315 
L 561.778399 41.556315 
L 581.778399 41.556315 
" style="fill: none; stroke: #0072b2; stroke-width: 2.5; stroke-linecap: square"/>
    </g>
    <g id="text_6">
     <!-- $B$ -->
     <g transform="translate(597.778399 48.556315) scale(0.2 -0.2)">
      <defs>
       <path id="CMMI12-42" d="M 2342 3921 
C 2400 4160 2426 4160 2675 4160 
L 3507 4160 
C 4230 4160 4230 3544 4230 3485 
C 4230 2966 3712 2304 2867 2304 
L 1946 2304 
L 2342 3921 
z
M 3424 2275 
C 4122 2402 4755 2886 4755 3473 
C 4755 3970 4314 4352 3590 4352 
L 1536 4352 
C 1414 4352 1357 4352 1357 4226 
C 1357 4160 1414 4160 1510 4160 
C 1901 4160 1901 4112 1901 4044 
C 1901 4032 1901 3993 1875 3897 
L 1011 472 
C 954 249 941 185 493 185 
C 371 185 307 185 307 70 
C 307 0 346 0 474 0 
L 2669 0 
C 3648 0 4403 739 4403 1383 
C 4403 1906 3942 2224 3424 2275 
z
M 2515 185 
L 1651 185 
C 1562 185 1549 185 1510 192 
C 1440 198 1434 211 1434 261 
C 1434 305 1446 343 1459 399 
L 1907 2176 
L 3110 2176 
C 3866 2176 3866 1483 3866 1433 
C 3866 828 3309 185 2515 185 
z
" transform="scale(0.015625)"/>
      </defs>
      <use xlink:href="#CMMI12-42" transform="scale(0.996264)"/>
     </g>
    </g>
   </g>
  </g>
  <g id="axes_3">
   <g id="patch_14">
    <path d="M 7.2 489.74 
L 312 489.74 
L 312 263.156315 
L 7.2 263.156315 
L 7.2 489.74 
z
" style="fill: none"/>
   </g>
   <g id="matplotlib.axis_5">
    <g id="text_7">
     <!-- $x$ -->
     <g transform="translate(300.913188 394.285154) scale(0.2 -0.2)">
      <use xlink:href="#CMMI12-78" transform="scale(0.996264)"/>
     </g>
    </g>
   </g>
   <g id="matplotlib.axis_6">
    <g id="text_8">
     <!-- $y$ -->
     <g transform="translate(146.087165 259.280682) scale(0.2 -0.2)">
      <use xlink:href="#CMMI12-79" transform="scale(0.996264)"/>
     </g>
    </g>
   </g>
   <g id="line2d_13">
    <g>
     <use xlink:href="#ma1ee31b835" x="312" y="376.448158" style="stroke: #000000; stroke-linejoin: miter"/>
    </g>
   </g>
   <g id="line2d_14">
    <g>
     <use xlink:href="#mb1775d3a2a" x="159.6" y="263.156315" style="stroke: #000000; stroke-linejoin: miter"/>
    </g>
   </g>
   <g id="line2d_15">
    <path d="M 7.2 418.160154 
L 42.778608 405.4908 
L 68.011136 396.729665 
L 86.544762 390.519354 
L 100.538022 386.054703 
L 111.405128 382.81164 
L 119.964835 380.479181 
L 126.887033 378.81463 
L 132.543883 377.675124 
L 137.233114 376.950172 
L 141.178022 376.559957 
L 144.527473 376.448502 
L 147.355897 376.56954 
L 149.812161 376.889624 
L 151.970696 377.389569 
L 153.905934 378.066114 
L 155.617875 378.898886 
L 157.180952 379.908005 
L 158.595165 381.084691 
L 159.934945 382.49743 
L 161.200293 384.17635 
L 162.391209 386.15563 
L 163.507692 388.473521 
L 164.549744 391.17193 
L 165.517363 394.295269 
L 166.484982 398.225361 
L 167.378168 402.840611 
L 168.196923 408.239933 
L 169.015678 415.242836 
L 169.76 423.653092 
L 170.42989 433.729431 
L 171.09978 447.504397 
L 171.695238 464.764613 
L 172.216264 486.376386 
L 172.429236 497.94 
M 175.815562 -1 
L 176.161172 91.929652 
L 176.607766 157.793737 
L 177.128791 202.067487 
L 177.724249 232.99384 
L 178.319707 253.260025 
L 178.989597 269.031255 
L 179.733919 281.411046 
L 180.552674 291.219514 
L 181.371429 298.49258 
L 182.264615 304.520833 
L 183.232234 309.523666 
L 184.199853 313.417753 
L 185.241905 316.726336 
L 186.358388 319.529164 
L 187.474872 321.763306 
L 188.665788 323.674801 
L 189.931136 325.29865 
L 191.270916 326.666457 
L 192.75956 327.859024 
L 194.322637 328.824073 
L 196.034579 329.619385 
L 197.969817 330.263245 
L 200.128352 330.735258 
L 202.510183 331.025366 
L 205.264176 331.131383 
L 208.464762 331.022101 
L 212.186374 330.662186 
L 216.503443 330.015638 
L 221.639267 329.016247 
L 227.817143 327.580427 
L 235.334799 325.59618 
L 244.564396 322.921212 
L 256.101392 319.336131 
L 270.764542 314.535521 
L 289.744762 308.075348 
L 312 300.290864 
L 312 300.290864 
" clip-path="url(#pce46f459cc)" style="fill: none; stroke: #0072b2; stroke-width: 2.5; stroke-linecap: square"/>
   </g>
   <g id="line2d_16">
    <g clip-path="url(#pce46f459cc)">
     <use xlink:href="#macc93926b7" x="144.36" y="376.448158" style="fill-opacity: 0.8; stroke: #000000; stroke-opacity: 0.8"/>
    </g>
   </g>
   <g id="line2d_17">
    <path d="M 7.2 416.100302 
L 312 302.80846 
" clip-path="url(#pce46f459cc)" style="fill: none; stroke-dasharray: 9.25,4; stroke-dashoffset: 0; stroke: #dc5e8b; stroke-width: 2.5"/>
   </g>
   <g id="line2d_18">
    <path d="M 174.84 489.74 
L 174.84 263.156315 
" clip-path="url(#pce46f459cc)" style="fill: none; stroke-dasharray: 9.25,4; stroke-dashoffset: 0; stroke: #dc5e8b; stroke-width: 2.5"/>
   </g>
   <g id="patch_15">
    <path d="M 159.6 489.74 
L 159.6 263.156315 
" style="fill: none; stroke: #000000; stroke-width: 0.8; stroke-linejoin: miter; stroke-linecap: square"/>
   </g>
   <g id="patch_16">
    <path d="M 312 489.74 
L 312 263.156315 
" style="fill: none"/>
   </g>
   <g id="patch_17">
    <path d="M 7.2 376.448158 
L 312 376.448158 
" style="fill: none; stroke: #000000; stroke-width: 0.8; stroke-linejoin: miter; stroke-linecap: square"/>
   </g>
   <g id="patch_18">
    <path d="M 7.2 263.156315 
L 312 263.156315 
" style="fill: none"/>
   </g>
   <g id="legend_3">
    <g id="patch_19">
     <path d="M 21.2 307.031949 
L 99.158398 307.031949 
Q 103.158398 307.031949 103.158398 303.031949 
L 103.158398 277.156315 
Q 103.158398 273.156315 99.158398 273.156315 
L 21.2 273.156315 
Q 17.2 273.156315 17.2 277.156315 
L 17.2 303.031949 
Q 17.2 307.031949 21.2 307.031949 
z
" style="fill: #ffffff; opacity: 0.8; stroke: #cccccc; stroke-linejoin: miter"/>
    </g>
    <g id="line2d_19">
     <path d="M 25.2 288.156315 
L 45.2 288.156315 
L 65.2 288.156315 
" style="fill: none; stroke: #0072b2; stroke-width: 2.5; stroke-linecap: square"/>
    </g>
    <g id="text_9">
     <!-- $C$ -->
     <g transform="translate(81.2 295.156315) scale(0.2 -0.2)">
      <defs>
       <path id="CMMI12-43" d="M 4781 4423 
C 4781 4480 4736 4480 4723 4480 
C 4710 4480 4685 4480 4634 4416 
L 4192 3882 
C 3968 4264 3616 4480 3136 4480 
C 1754 4480 320 3088 320 1595 
C 320 533 1069 -128 2003 -128 
C 2515 -128 2963 88 3334 400 
C 3891 863 4058 1481 4058 1531 
C 4058 1588 4006 1588 3987 1588 
C 3930 1588 3923 1550 3910 1524 
C 3616 534 2752 57 2112 57 
C 1434 57 845 489 845 1391 
C 845 1595 909 2700 1632 3532 
C 1984 3939 2586 4295 3194 4295 
C 3898 4295 4211 3717 4211 3068 
C 4211 2903 4192 2764 4192 2738 
C 4192 2681 4256 2681 4275 2681 
C 4346 2681 4352 2687 4378 2801 
L 4781 4423 
z
" transform="scale(0.015625)"/>
      </defs>
      <use xlink:href="#CMMI12-43" transform="scale(0.996264)"/>
     </g>
    </g>
   </g>
  </g>
  <g id="axes_4">
   <g id="patch_20">
    <path d="M 325.8 489.74 
L 630.6 489.74 
L 630.6 263.156315 
L 325.8 263.156315 
L 325.8 489.74 
z
" style="fill: none"/>
   </g>
   <g id="matplotlib.axis_7">
    <g id="text_10">
     <!-- $x$ -->
     <g transform="translate(619.513188 394.285154) scale(0.2 -0.2)">
      <use xlink:href="#CMMI12-78" transform="scale(0.996264)"/>
     </g>
    </g>
   </g>
   <g id="matplotlib.axis_8">
    <g id="text_11">
     <!-- $y$ -->
     <g transform="translate(464.687165 259.280682) scale(0.2 -0.2)">
      <use xlink:href="#CMMI12-79" transform="scale(0.996264)"/>
     </g>
    </g>
   </g>
   <g id="line2d_20">
    <g>
     <use xlink:href="#ma1ee31b835" x="630.6" y="376.448158" style="stroke: #000000; stroke-linejoin: miter"/>
    </g>
   </g>
   <g id="line2d_21">
    <g>
     <use xlink:href="#mb1775d3a2a" x="478.2" y="263.156315" style="stroke: #000000; stroke-linejoin: miter"/>
    </g>
   </g>
   <g id="line2d_22">
    <path d="M 325.8 334.736161 
L 361.378608 347.405515 
L 386.611136 356.16665 
L 405.144762 362.376961 
L 419.138022 366.841612 
L 430.005128 370.084675 
L 438.564835 372.417134 
L 445.487033 374.081685 
L 451.143883 375.221191 
L 455.833114 375.946143 
L 459.778022 376.336358 
L 463.127473 376.447814 
L 465.955897 376.326775 
L 468.412161 376.006691 
L 470.570696 375.506746 
L 472.505934 374.830201 
L 474.217875 373.997429 
L 475.780952 372.98831 
L 477.195165 371.811624 
L 478.534945 370.398885 
L 479.800293 368.719965 
L 480.991209 366.740685 
L 482.107692 364.422794 
L 483.149744 361.724385 
L 484.117363 358.601046 
L 485.084982 354.670954 
L 485.978168 350.055704 
L 486.796923 344.656382 
L 487.615678 337.653479 
L 488.36 329.243223 
L 489.02989 319.166884 
L 489.69978 305.391918 
L 490.295238 288.131702 
L 490.816264 266.519929 
L 491.262857 239.688719 
L 491.709451 198.923468 
L 492.081612 144.393352 
L 492.379341 73.147308 
L 492.574784 -1 
M 496.981279 497.94 
L 497.589597 483.86506 
L 498.333919 471.485269 
L 499.152674 461.676801 
L 499.971429 454.403735 
L 500.864615 448.375482 
L 501.832234 443.372649 
L 502.799853 439.478562 
L 503.841905 436.16998 
L 504.958388 433.367151 
L 506.074872 431.133009 
L 507.265788 429.221514 
L 508.531136 427.597665 
L 509.870916 426.229858 
L 511.35956 425.037292 
L 512.922637 424.072242 
L 514.634579 423.27693 
L 516.569817 422.633071 
L 518.728352 422.161057 
L 521.110183 421.870949 
L 523.864176 421.764933 
L 527.064762 421.874215 
L 530.786374 422.234129 
L 535.103443 422.880677 
L 540.239267 423.880068 
L 546.417143 425.315888 
L 553.934799 427.300135 
L 563.164396 429.975103 
L 574.701392 433.560185 
L 589.364542 438.360795 
L 608.344762 444.820968 
L 630.6 452.605452 
L 630.6 452.605452 
" clip-path="url(#pb024debf61)" style="fill: none; stroke: #0072b2; stroke-width: 2.5; stroke-linecap: square"/>
   </g>
   <g id="line2d_23">
    <g clip-path="url(#pb024debf61)">
     <use xlink:href="#macc93926b7" x="462.96" y="376.448158" style="fill-opacity: 0.8; stroke: #000000; stroke-opacity: 0.8"/>
    </g>
   </g>
   <g id="line2d_24">
    <path d="M 325.8 336.796013 
L 630.6 450.087855 
" clip-path="url(#pb024debf61)" style="fill: none; stroke-dasharray: 9.25,4; stroke-dashoffset: 0; stroke: #dc5e8b; stroke-width: 2.5"/>
   </g>
   <g id="line2d_25">
    <path d="M 493.44 489.74 
L 493.44 263.156315 
" clip-path="url(#pb024debf61)" style="fill: none; stroke-dasharray: 9.25,4; stroke-dashoffset: 0; stroke: #dc5e8b; stroke-width: 2.5"/>
   </g>
   <g id="patch_21">
    <path d="M 478.2 489.74 
L 478.2 263.156315 
" style="fill: none; stroke: #000000; stroke-width: 0.8; stroke-linejoin: miter; stroke-linecap: square"/>
   </g>
   <g id="patch_22">
    <path d="M 630.6 489.74 
L 630.6 263.156315 
" style="fill: none"/>
   </g>
   <g id="patch_23">
    <path d="M 325.8 376.448158 
L 630.6 376.448158 
" style="fill: none; stroke: #000000; stroke-width: 0.8; stroke-linejoin: miter; stroke-linecap: square"/>
   </g>
   <g id="patch_24">
    <path d="M 325.8 263.156315 
L 630.6 263.156315 
" style="fill: none"/>
   </g>
   <g id="legend_4">
    <g id="patch_25">
     <path d="M 536.401163 307.031949 
L 616.6 307.031949 
Q 620.6 307.031949 620.6 303.031949 
L 620.6 277.156315 
Q 620.6 273.156315 616.6 273.156315 
L 536.401163 273.156315 
Q 532.401163 273.156315 532.401163 277.156315 
L 532.401163 303.031949 
Q 532.401163 307.031949 536.401163 307.031949 
z
" style="fill: #ffffff; opacity: 0.8; stroke: #cccccc; stroke-linejoin: miter"/>
    </g>
    <g id="line2d_26">
     <path d="M 540.401163 288.156315 
L 560.401163 288.156315 
L 580.401163 288.156315 
" style="fill: none; stroke: #0072b2; stroke-width: 2.5; stroke-linecap: square"/>
    </g>
    <g id="text_12">
     <!-- $D$ -->
     <g transform="translate(596.401163 295.156315) scale(0.2 -0.2)">
      <defs>
       <path id="CMMI12-44" d="M 1005 472 
C 947 249 934 185 486 185 
C 365 185 301 185 301 70 
C 301 0 339 0 467 0 
L 2496 0 
C 3789 0 5050 1332 5050 2753 
C 5050 3671 4499 4352 3584 4352 
L 1530 4352 
C 1408 4352 1350 4352 1350 4231 
C 1350 4167 1408 4167 1504 4167 
C 1894 4167 1894 4116 1894 4046 
C 1894 4034 1894 3995 1869 3899 
L 1005 472 
z
M 2355 3931 
C 2413 4167 2438 4167 2688 4167 
L 3392 4167 
C 3994 4167 4544 3842 4544 2963 
C 4544 2644 4416 1536 3795 835 
C 3616 625 3130 185 2394 185 
L 1664 185 
C 1574 185 1562 185 1523 192 
C 1453 198 1446 211 1446 262 
C 1446 307 1459 345 1472 402 
L 2355 3931 
z
" transform="scale(0.015625)"/>
      </defs>
      <use xlink:href="#CMMI12-44" transform="scale(0.996264)"/>
     </g>
    </g>
   </g>
  </g>
 </g>
 <defs>
  <clipPath id="p50bba155b5">
   <rect x="7.2" y="16.556315" width="304.8" height="226.583685"/>
  </clipPath>
  <clipPath id="p2293dbffef">
   <rect x="325.8" y="16.556315" width="304.8" height="226.583685"/>
  </clipPath>
  <clipPath id="pce46f459cc">
   <rect x="7.2" y="263.156315" width="304.8" height="226.583685"/>
  </clipPath>
  <clipPath id="pb024debf61">
   <rect x="325.8" y="263.156315" width="304.8" height="226.583685"/>
  </clipPath>
 </defs>
</svg>
