<?xml version="1.0" encoding="utf-8" standalone="no"?>
<!DOCTYPE svg PUBLIC "-//W3C//DTD SVG 1.1//EN"
  "http://www.w3.org/Graphics/SVG/1.1/DTD/svg11.dtd">
<svg xmlns:xlink="http://www.w3.org/1999/xlink" width="640.8pt" height="497.12pt" viewBox="0 0 640.8 497.12" xmlns="http://www.w3.org/2000/svg" version="1.1">
 <metadata>
  <rdf:RDF xmlns:dc="http://purl.org/dc/elements/1.1/" xmlns:cc="http://creativecommons.org/ns#" xmlns:rdf="http://www.w3.org/1999/02/22-rdf-syntax-ns#">
   <cc:Work>
    <dc:type rdf:resource="http://purl.org/dc/dcmitype/StillImage"/>
    <dc:date>2025-09-27T15:18:25.069605</dc:date>
    <dc:format>image/svg+xml</dc:format>
    <dc:creator>
     <cc:Agent>
      <dc:title>Matplotlib v3.9.1, https://matplotlib.org/</dc:title>
     </cc:Agent>
    </dc:creator>
   </cc:Work>
  </rdf:RDF>
 </metadata>
 <defs>
  <style type="text/css">*{stroke-linejoin: round; stroke-linecap: butt}</style>
 </defs>
 <g id="figure_1">
  <g id="patch_1">
   <path d="M 0 497.12 
L 640.8 497.12 
L 640.8 0 
L 0 0 
L 0 497.12 
z
" style="fill: none"/>
  </g>
  <g id="axes_1">
   <g id="patch_2">
    <path d="M 7.2 243.32 
L 312 243.32 
L 312 16.556315 
L 7.2 16.556315 
L 7.2 243.32 
z
" style="fill: none"/>
   </g>
   <g id="matplotlib.axis_1">
    <g id="text_1">
     <!-- $x$ -->
     <g transform="translate(300.913188 147.775154) scale(0.2 -0.2)">
      <defs>
       <path id="CMMI12-78" d="M 3034 2606 
C 2829 2567 2752 2414 2752 2293 
C 2752 2139 2874 2088 2963 2088 
C 3155 2088 3290 2254 3290 2427 
C 3290 2695 2982 2816 2714 2816 
C 2323 2816 2106 2433 2048 2312 
C 1901 2816 1504 2816 1389 2816 
C 736 2816 390 1980 390 1839 
C 390 1814 416 1782 461 1782 
C 512 1782 525 1820 538 1846 
C 755 2555 1184 2689 1370 2689 
C 1658 2689 1715 2420 1715 2267 
C 1715 2127 1677 1980 1600 1673 
L 1382 798 
C 1286 415 1101 64 762 64 
C 730 64 570 64 435 147 
C 666 192 717 383 717 460 
C 717 588 621 664 499 664 
C 346 664 179 530 179 326 
C 179 57 480 -64 755 -64 
C 1062 -64 1280 179 1414 441 
C 1517 64 1837 -64 2074 -64 
C 2726 -64 3072 773 3072 913 
C 3072 945 3046 971 3008 971 
C 2950 971 2944 939 2925 888 
C 2752 326 2381 64 2093 64 
C 1869 64 1747 230 1747 492 
C 1747 632 1773 734 1875 1156 
L 2099 2024 
C 2195 2408 2413 2689 2707 2689 
C 2720 2689 2899 2689 3034 2606 
z
" transform="scale(0.015625)"/>
      </defs>
      <use xlink:href="#CMMI12-78" transform="scale(0.996264)"/>
     </g>
    </g>
   </g>
   <g id="matplotlib.axis_2">
    <g id="text_2">
     <!-- $y$ -->
     <g transform="translate(146.087165 12.680682) scale(0.2 -0.2)">
      <defs>
       <path id="CMMI12-79" d="M 1683 -700 
C 1510 -939 1261 -1152 947 -1152 
C 870 -1152 563 -1152 467 -889 
C 486 -895 518 -895 531 -895 
C 723 -895 851 -729 851 -582 
C 851 -435 730 -384 634 -384 
C 531 -384 307 -458 307 -759 
C 307 -1071 582 -1286 947 -1286 
C 1587 -1286 2234 -700 2413 6 
L 3040 2485 
C 3046 2517 3059 2556 3059 2594 
C 3059 2689 2982 2753 2886 2753 
C 2829 2753 2694 2727 2643 2535 
L 2170 658 
C 2138 543 2138 530 2086 460 
C 1958 281 1747 64 1440 64 
C 1082 64 1050 415 1050 588 
C 1050 952 1222 1443 1395 1903 
C 1466 2088 1504 2178 1504 2305 
C 1504 2574 1312 2816 998 2816 
C 410 2816 173 1890 173 1839 
C 173 1814 198 1782 243 1782 
C 301 1782 307 1807 333 1897 
C 486 2433 730 2689 979 2689 
C 1037 2689 1146 2689 1146 2478 
C 1146 2312 1075 2127 979 1884 
C 666 1047 666 837 666 683 
C 666 77 1101 -64 1421 -64 
C 1606 -64 1837 -6 2061 230 
L 2067 224 
C 1971 -147 1907 -392 1683 -700 
z
" transform="scale(0.015625)"/>
      </defs>
      <use xlink:href="#CMMI12-79" transform="scale(0.996264)"/>
     </g>
    </g>
   </g>
   <g id="line2d_1">
    <defs>
     <path id="me10e28fe42" d="M 3 0 
L -3 -3 
L -3 3 
z
" style="stroke: #000000; stroke-linejoin: miter"/>
    </defs>
    <g>
     <use xlink:href="#me10e28fe42" x="312" y="129.938158" style="stroke: #000000; stroke-linejoin: miter"/>
    </g>
   </g>
   <g id="line2d_2">
    <defs>
     <path id="m994da984fa" d="M 0 -3 
L -3 3 
L 3 3 
z
" style="stroke: #000000; stroke-linejoin: miter"/>
    </defs>
    <g>
     <use xlink:href="#m994da984fa" x="159.6" y="16.556315" style="stroke: #000000; stroke-linejoin: miter"/>
    </g>
   </g>
   <g id="line2d_3">
    <path d="M 21.333568 -1 
L 25.808059 10.170102 
L 30.273993 20.734091 
L 34.665495 30.552353 
L 38.908132 39.501317 
L 43.076337 47.779849 
L 47.095678 55.280768 
L 51.040586 62.182655 
L 54.911062 68.511312 
L 58.707106 74.292053 
L 62.354286 79.448529 
L 65.927033 84.121999 
L 69.425348 88.335829 
L 72.849231 92.112902 
L 76.198681 95.475609 
L 79.4737 98.445859 
L 82.599853 100.988031 
L 85.726007 103.243954 
L 88.777729 105.170056 
L 91.755018 106.786298 
L 94.657875 108.112152 
L 97.4863 109.166603 
L 100.314725 109.986732 
L 103.14315 110.572539 
L 105.897143 110.917775 
L 108.651136 111.040859 
L 111.405128 110.941791 
L 114.159121 110.620572 
L 116.913114 110.0772 
L 119.741538 109.287903 
L 122.569963 108.264283 
L 125.398388 107.006341 
L 128.301245 105.471641 
L 131.278535 103.641199 
L 134.330256 101.495541 
L 137.381978 99.077102 
L 140.508132 96.316834 
L 143.708718 93.19429 
L 146.983736 89.688539 
L 150.333187 85.778159 
L 153.75707 81.441245 
L 157.329817 76.54968 
L 160.976996 71.170565 
L 164.698608 65.280046 
L 168.494652 58.853782 
L 172.43956 51.728282 
L 176.458901 43.999531 
L 180.552674 35.641242 
L 184.720879 26.626638 
L 189.037949 16.753609 
L 193.429451 6.150269 
L 196.266432 -1 
L 196.266432 -1 
" clip-path="url(#pc82dae4b1a)" style="fill: none; stroke: #0072b2; stroke-width: 2.5; stroke-linecap: square"/>
   </g>
   <g id="patch_3">
    <path d="M 159.6 243.32 
L 159.6 16.556315 
" style="fill: none; stroke: #000000; stroke-width: 0.8; stroke-linejoin: miter; stroke-linecap: square"/>
   </g>
   <g id="patch_4">
    <path d="M 312 243.32 
L 312 16.556315 
" style="fill: none"/>
   </g>
   <g id="patch_5">
    <path d="M 7.2 129.938158 
L 312 129.938158 
" style="fill: none; stroke: #000000; stroke-width: 0.8; stroke-linejoin: miter; stroke-linecap: square"/>
   </g>
   <g id="patch_6">
    <path d="M 7.2 16.556315 
L 312 16.556315 
" style="fill: none"/>
   </g>
   <g id="legend_1">
    <g id="patch_7">
     <path d="M 219.374426 60.431949 
L 298 60.431949 
Q 302 60.431949 302 56.431949 
L 302 30.556315 
Q 302 26.556315 298 26.556315 
L 219.374426 26.556315 
Q 215.374426 26.556315 215.374426 30.556315 
L 215.374426 56.431949 
Q 215.374426 60.431949 219.374426 60.431949 
z
" style="fill: #ffffff; opacity: 0.8; stroke: #cccccc; stroke-linejoin: miter"/>
    </g>
    <g id="line2d_4">
     <path d="M 223.374426 41.556315 
L 243.374426 41.556315 
L 263.374426 41.556315 
" style="fill: none; stroke: #0072b2; stroke-width: 2.5; stroke-linecap: square"/>
    </g>
    <g id="text_3">
     <!-- $A$ -->
     <g transform="translate(279.374426 48.556315) scale(0.2 -0.2)">
      <defs>
       <path id="CMMI12-41" d="M 1088 691 
C 864 314 646 186 339 186 
C 269 180 218 180 218 58 
C 218 24 250 0 294 0 
C 410 0 698 0 813 0 
C 998 0 1203 0 1382 0 
C 1421 0 1498 0 1498 122 
C 1498 180 1446 186 1408 186 
C 1261 186 1139 236 1139 388 
C 1139 476 1178 546 1261 685 
L 1747 1479 
L 3379 1479 
C 3386 1423 3386 1373 3392 1316 
C 3411 1152 3488 495 3488 376 
C 3488 186 3162 186 3059 186 
C 2989 186 2918 186 2918 70 
C 2918 0 2976 0 3014 0 
C 3123 0 3251 0 3360 0 
L 3725 0 
C 4115 0 4397 0 4403 0 
C 4448 0 4518 0 4518 122 
C 4518 186 4461 186 4365 186 
C 4013 186 4006 244 3987 434 
L 3597 4404 
C 3584 4531 3558 4544 3488 4544 
C 3424 4544 3386 4531 3328 4435 
L 1088 691 
z
M 1856 1664 
L 3142 3819 
L 3360 1664 
L 1856 1664 
z
" transform="scale(0.015625)"/>
      </defs>
      <use xlink:href="#CMMI12-41" transform="scale(0.996264)"/>
     </g>
    </g>
   </g>
  </g>
  <g id="axes_2">
   <g id="patch_8">
    <path d="M 325.8 243.32 
L 630.6 243.32 
L 630.6 16.556315 
L 325.8 16.556315 
L 325.8 243.32 
z
" style="fill: none"/>
   </g>
   <g id="matplotlib.axis_3">
    <g id="text_4">
     <!-- $x$ -->
     <g transform="translate(619.513188 147.775154) scale(0.2 -0.2)">
      <use xlink:href="#CMMI12-78" transform="scale(0.996264)"/>
     </g>
    </g>
   </g>
   <g id="matplotlib.axis_4">
    <g id="text_5">
     <!-- $y$ -->
     <g transform="translate(464.687165 12.680682) scale(0.2 -0.2)">
      <use xlink:href="#CMMI12-79" transform="scale(0.996264)"/>
     </g>
    </g>
   </g>
   <g id="line2d_5">
    <g>
     <use xlink:href="#me10e28fe42" x="630.6" y="129.938158" style="stroke: #000000; stroke-linejoin: miter"/>
    </g>
   </g>
   <g id="line2d_6">
    <g>
     <use xlink:href="#m994da984fa" x="478.2" y="16.556315" style="stroke: #000000; stroke-linejoin: miter"/>
    </g>
   </g>
   <g id="line2d_7">
    <path d="M 493.291992 -1 
L 496.100952 15.934129 
L 498.854945 31.190573 
L 501.460073 44.395559 
L 503.990769 56.081181 
L 506.372601 66.051249 
L 508.68 74.758994 
L 510.838535 82.057883 
L 512.922637 88.328121 
L 514.857875 93.466991 
L 516.718681 97.787516 
L 518.430623 101.22495 
L 520.068132 104.030979 
L 521.631209 106.269863 
L 523.045421 107.925537 
L 524.385201 109.169849 
L 525.650549 110.055374 
L 526.841465 110.631768 
L 528.032381 110.958911 
L 529.148864 111.039237 
L 530.265348 110.900493 
L 531.381832 110.54268 
L 532.572747 109.919551 
L 533.763663 109.04717 
L 535.029011 107.847159 
L 536.368791 106.269863 
L 537.783004 104.262706 
L 539.346081 101.635339 
L 540.98359 98.422329 
L 542.695531 94.559414 
L 544.481905 89.979414 
L 546.417143 84.384881 
L 548.426813 77.878535 
L 550.585348 70.099642 
L 552.818315 61.190841 
L 555.125714 51.064503 
L 557.581978 39.25669 
L 560.112674 25.982089 
L 562.792234 10.699843 
L 564.708008 -1 
L 564.708008 -1 
" clip-path="url(#pa33bf9b62d)" style="fill: none; stroke: #0072b2; stroke-width: 2.5; stroke-linecap: square"/>
   </g>
   <g id="patch_9">
    <path d="M 478.2 243.32 
L 478.2 16.556315 
" style="fill: none; stroke: #000000; stroke-width: 0.8; stroke-linejoin: miter; stroke-linecap: square"/>
   </g>
   <g id="patch_10">
    <path d="M 630.6 243.32 
L 630.6 16.556315 
" style="fill: none"/>
   </g>
   <g id="patch_11">
    <path d="M 325.8 129.938158 
L 630.6 129.938158 
" style="fill: none; stroke: #000000; stroke-width: 0.8; stroke-linejoin: miter; stroke-linecap: square"/>
   </g>
   <g id="patch_12">
    <path d="M 325.8 16.556315 
L 630.6 16.556315 
" style="fill: none"/>
   </g>
   <g id="legend_2">
    <g id="patch_13">
     <path d="M 339.8 60.431949 
L 418.621601 60.431949 
Q 422.621601 60.431949 422.621601 56.431949 
L 422.621601 30.556315 
Q 422.621601 26.556315 418.621601 26.556315 
L 339.8 26.556315 
Q 335.8 26.556315 335.8 30.556315 
L 335.8 56.431949 
Q 335.8 60.431949 339.8 60.431949 
z
" style="fill: #ffffff; opacity: 0.8; stroke: #cccccc; stroke-linejoin: miter"/>
    </g>
    <g id="line2d_8">
     <path d="M 343.8 41.556315 
L 363.8 41.556315 
L 383.8 41.556315 
" style="fill: none; stroke: #0072b2; stroke-width: 2.5; stroke-linecap: square"/>
    </g>
    <g id="text_6">
     <!-- $B$ -->
     <g transform="translate(399.8 48.556315) scale(0.2 -0.2)">
      <defs>
       <path id="CMMI12-42" d="M 2342 3921 
C 2400 4160 2426 4160 2675 4160 
L 3507 4160 
C 4230 4160 4230 3544 4230 3485 
C 4230 2966 3712 2304 2867 2304 
L 1946 2304 
L 2342 3921 
z
M 3424 2275 
C 4122 2402 4755 2886 4755 3473 
C 4755 3970 4314 4352 3590 4352 
L 1536 4352 
C 1414 4352 1357 4352 1357 4226 
C 1357 4160 1414 4160 1510 4160 
C 1901 4160 1901 4112 1901 4044 
C 1901 4032 1901 3993 1875 3897 
L 1011 472 
C 954 249 941 185 493 185 
C 371 185 307 185 307 70 
C 307 0 346 0 474 0 
L 2669 0 
C 3648 0 4403 739 4403 1383 
C 4403 1906 3942 2224 3424 2275 
z
M 2515 185 
L 1651 185 
C 1562 185 1549 185 1510 192 
C 1440 198 1434 211 1434 261 
C 1434 305 1446 343 1459 399 
L 1907 2176 
L 3110 2176 
C 3866 2176 3866 1483 3866 1433 
C 3866 828 3309 185 2515 185 
z
" transform="scale(0.015625)"/>
      </defs>
      <use xlink:href="#CMMI12-42" transform="scale(0.996264)"/>
     </g>
    </g>
   </g>
  </g>
  <g id="axes_3">
   <g id="patch_14">
    <path d="M 7.2 489.92 
L 312 489.92 
L 312 263.156315 
L 7.2 263.156315 
L 7.2 489.92 
z
" style="fill: none"/>
   </g>
   <g id="matplotlib.axis_5">
    <g id="text_7">
     <!-- $x$ -->
     <g transform="translate(300.913188 394.375154) scale(0.2 -0.2)">
      <use xlink:href="#CMMI12-78" transform="scale(0.996264)"/>
     </g>
    </g>
   </g>
   <g id="matplotlib.axis_6">
    <g id="text_8">
     <!-- $y$ -->
     <g transform="translate(146.087165 259.280682) scale(0.2 -0.2)">
      <use xlink:href="#CMMI12-79" transform="scale(0.996264)"/>
     </g>
    </g>
   </g>
   <g id="line2d_9">
    <g>
     <use xlink:href="#me10e28fe42" x="312" y="376.538158" style="stroke: #000000; stroke-linejoin: miter"/>
    </g>
   </g>
   <g id="line2d_10">
    <g>
     <use xlink:href="#m994da984fa" x="159.6" y="263.156315" style="stroke: #000000; stroke-linejoin: miter"/>
    </g>
   </g>
   <g id="line2d_11">
    <path d="M 10.860477 498.12 
L 15.610842 484.82317 
L 20.300073 472.345736 
L 24.914872 460.695165 
L 29.380806 450.01434 
L 33.772308 440.081189 
L 38.014945 431.021229 
L 42.18315 422.63365 
L 46.276923 414.891187 
L 50.221832 407.894695 
L 54.092308 401.473218 
L 57.888352 395.601441 
L 61.609963 390.254537 
L 65.182711 385.503177 
L 68.681026 381.213078 
L 72.104908 377.36136 
L 75.454359 373.925629 
L 78.729377 370.883979 
L 81.929963 368.21499 
L 85.056117 365.897728 
L 88.107839 363.911747 
L 91.085128 362.237087 
L 93.987985 360.854275 
L 96.890842 359.718281 
L 99.719267 358.848821 
L 102.547692 358.213684 
L 105.301685 357.820415 
L 108.055678 357.649298 
L 110.80967 357.700332 
L 113.563663 357.973519 
L 116.317656 358.468859 
L 119.071648 359.18635 
L 121.900073 360.154472 
L 124.728498 361.356917 
L 127.631355 362.834658 
L 130.608645 364.606682 
L 133.585934 366.638343 
L 136.637656 368.990251 
L 139.76381 371.682364 
L 142.964396 374.735129 
L 146.239414 378.16948 
L 149.588864 382.006837 
L 153.012747 386.269106 
L 156.511062 390.978682 
L 160.158242 396.270331 
L 163.879853 402.0716 
L 167.675897 408.406829 
L 171.546374 415.300846 
L 175.565714 422.924443 
L 179.659487 431.175632 
L 183.827692 440.081189 
L 188.144762 449.841276 
L 192.536264 460.329726 
L 197.002198 471.575262 
L 201.616996 483.809367 
L 206.306227 496.879748 
L 206.739523 498.12 
L 206.739523 498.12 
" clip-path="url(#p830ab9f9e7)" style="fill: none; stroke: #0072b2; stroke-width: 2.5; stroke-linecap: square"/>
   </g>
   <g id="patch_15">
    <path d="M 159.6 489.92 
L 159.6 263.156315 
" style="fill: none; stroke: #000000; stroke-width: 0.8; stroke-linejoin: miter; stroke-linecap: square"/>
   </g>
   <g id="patch_16">
    <path d="M 312 489.92 
L 312 263.156315 
" style="fill: none"/>
   </g>
   <g id="patch_17">
    <path d="M 7.2 376.538158 
L 312 376.538158 
" style="fill: none; stroke: #000000; stroke-width: 0.8; stroke-linejoin: miter; stroke-linecap: square"/>
   </g>
   <g id="patch_18">
    <path d="M 7.2 263.156315 
L 312 263.156315 
" style="fill: none"/>
   </g>
   <g id="legend_3">
    <g id="patch_19">
     <path d="M 220.041602 307.031949 
L 298 307.031949 
Q 302 307.031949 302 303.031949 
L 302 277.156315 
Q 302 273.156315 298 273.156315 
L 220.041602 273.156315 
Q 216.041602 273.156315 216.041602 277.156315 
L 216.041602 303.031949 
Q 216.041602 307.031949 220.041602 307.031949 
z
" style="fill: #ffffff; opacity: 0.8; stroke: #cccccc; stroke-linejoin: miter"/>
    </g>
    <g id="line2d_12">
     <path d="M 224.041602 288.156315 
L 244.041602 288.156315 
L 264.041602 288.156315 
" style="fill: none; stroke: #0072b2; stroke-width: 2.5; stroke-linecap: square"/>
    </g>
    <g id="text_9">
     <!-- $C$ -->
     <g transform="translate(280.041602 295.156315) scale(0.2 -0.2)">
      <defs>
       <path id="CMMI12-43" d="M 4781 4423 
C 4781 4480 4736 4480 4723 4480 
C 4710 4480 4685 4480 4634 4416 
L 4192 3882 
C 3968 4264 3616 4480 3136 4480 
C 1754 4480 320 3088 320 1595 
C 320 533 1069 -128 2003 -128 
C 2515 -128 2963 88 3334 400 
C 3891 863 4058 1481 4058 1531 
C 4058 1588 4006 1588 3987 1588 
C 3930 1588 3923 1550 3910 1524 
C 3616 534 2752 57 2112 57 
C 1434 57 845 489 845 1391 
C 845 1595 909 2700 1632 3532 
C 1984 3939 2586 4295 3194 4295 
C 3898 4295 4211 3717 4211 3068 
C 4211 2903 4192 2764 4192 2738 
C 4192 2681 4256 2681 4275 2681 
C 4346 2681 4352 2687 4378 2801 
L 4781 4423 
z
" transform="scale(0.015625)"/>
      </defs>
      <use xlink:href="#CMMI12-43" transform="scale(0.996264)"/>
     </g>
    </g>
   </g>
  </g>
  <g id="axes_4">
   <g id="patch_20">
    <path d="M 325.8 489.92 
L 630.6 489.92 
L 630.6 263.156315 
L 325.8 263.156315 
L 325.8 489.92 
z
" style="fill: none"/>
   </g>
   <g id="matplotlib.axis_7">
    <g id="text_10">
     <!-- $x$ -->
     <g transform="translate(619.513188 394.375154) scale(0.2 -0.2)">
      <use xlink:href="#CMMI12-78" transform="scale(0.996264)"/>
     </g>
    </g>
   </g>
   <g id="matplotlib.axis_8">
    <g id="text_11">
     <!-- $y$ -->
     <g transform="translate(464.687165 259.280682) scale(0.2 -0.2)">
      <use xlink:href="#CMMI12-79" transform="scale(0.996264)"/>
     </g>
    </g>
   </g>
   <g id="line2d_13">
    <g>
     <use xlink:href="#me10e28fe42" x="630.6" y="376.538158" style="stroke: #000000; stroke-linejoin: miter"/>
    </g>
   </g>
   <g id="line2d_14">
    <g>
     <use xlink:href="#m994da984fa" x="478.2" y="263.156315" style="stroke: #000000; stroke-linejoin: miter"/>
    </g>
   </g>
   <g id="line2d_15">
    <path d="M 489.016366 498.12 
L 491.932747 478.374431 
L 494.835604 460.204857 
L 497.589597 444.335993 
L 500.269158 430.17538 
L 502.799853 417.960099 
L 505.256117 407.180449 
L 507.563516 398.019962 
L 509.796484 390.045854 
L 511.880586 383.393949 
L 513.890256 377.702539 
L 515.751062 373.065581 
L 517.537436 369.186601 
L 519.249377 365.995498 
L 520.812454 363.531703 
L 522.301099 361.584424 
L 523.715311 360.095242 
L 525.055092 359.008661 
L 526.32044 358.272102 
L 527.511355 357.835912 
L 528.627839 357.653354 
L 529.744322 357.689866 
L 530.860806 357.945446 
L 532.051722 358.459528 
L 533.242637 359.222861 
L 534.507985 360.307009 
L 535.847766 361.761626 
L 537.261978 363.63929 
L 538.750623 365.995498 
L 540.3137 368.888667 
L 542.025641 372.550039 
L 543.812015 376.919733 
L 545.672821 382.067852 
L 547.682491 388.311315 
L 549.766593 395.53572 
L 551.925128 403.822853 
L 554.232527 413.586997 
L 556.614359 424.647542 
L 559.145055 437.491794 
L 561.750183 451.889489 
L 564.504176 468.406796 
L 567.332601 486.757954 
L 568.983634 498.12 
L 568.983634 498.12 
" clip-path="url(#pe89d603803)" style="fill: none; stroke: #0072b2; stroke-width: 2.5; stroke-linecap: square"/>
   </g>
   <g id="patch_21">
    <path d="M 478.2 489.92 
L 478.2 263.156315 
" style="fill: none; stroke: #000000; stroke-width: 0.8; stroke-linejoin: miter; stroke-linecap: square"/>
   </g>
   <g id="patch_22">
    <path d="M 630.6 489.92 
L 630.6 263.156315 
" style="fill: none"/>
   </g>
   <g id="patch_23">
    <path d="M 325.8 376.538158 
L 630.6 376.538158 
" style="fill: none; stroke: #000000; stroke-width: 0.8; stroke-linejoin: miter; stroke-linecap: square"/>
   </g>
   <g id="patch_24">
    <path d="M 325.8 263.156315 
L 630.6 263.156315 
" style="fill: none"/>
   </g>
   <g id="legend_4">
    <g id="patch_25">
     <path d="M 536.401163 307.031949 
L 616.6 307.031949 
Q 620.6 307.031949 620.6 303.031949 
L 620.6 277.156315 
Q 620.6 273.156315 616.6 273.156315 
L 536.401163 273.156315 
Q 532.401163 273.156315 532.401163 277.156315 
L 532.401163 303.031949 
Q 532.401163 307.031949 536.401163 307.031949 
z
" style="fill: #ffffff; opacity: 0.8; stroke: #cccccc; stroke-linejoin: miter"/>
    </g>
    <g id="line2d_16">
     <path d="M 540.401163 288.156315 
L 560.401163 288.156315 
L 580.401163 288.156315 
" style="fill: none; stroke: #0072b2; stroke-width: 2.5; stroke-linecap: square"/>
    </g>
    <g id="text_12">
     <!-- $D$ -->
     <g transform="translate(596.401163 295.156315) scale(0.2 -0.2)">
      <defs>
       <path id="CMMI12-44" d="M 1005 472 
C 947 249 934 185 486 185 
C 365 185 301 185 301 70 
C 301 0 339 0 467 0 
L 2496 0 
C 3789 0 5050 1332 5050 2753 
C 5050 3671 4499 4352 3584 4352 
L 1530 4352 
C 1408 4352 1350 4352 1350 4231 
C 1350 4167 1408 4167 1504 4167 
C 1894 4167 1894 4116 1894 4046 
C 1894 4034 1894 3995 1869 3899 
L 1005 472 
z
M 2355 3931 
C 2413 4167 2438 4167 2688 4167 
L 3392 4167 
C 3994 4167 4544 3842 4544 2963 
C 4544 2644 4416 1536 3795 835 
C 3616 625 3130 185 2394 185 
L 1664 185 
C 1574 185 1562 185 1523 192 
C 1453 198 1446 211 1446 262 
C 1446 307 1459 345 1472 402 
L 2355 3931 
z
" transform="scale(0.015625)"/>
      </defs>
      <use xlink:href="#CMMI12-44" transform="scale(0.996264)"/>
     </g>
    </g>
   </g>
  </g>
 </g>
 <defs>
  <clipPath id="pc82dae4b1a">
   <rect x="7.2" y="16.556315" width="304.8" height="226.763685"/>
  </clipPath>
  <clipPath id="pa33bf9b62d">
   <rect x="325.8" y="16.556315" width="304.8" height="226.763685"/>
  </clipPath>
  <clipPath id="p830ab9f9e7">
   <rect x="7.2" y="263.156315" width="304.8" height="226.763685"/>
  </clipPath>
  <clipPath id="pe89d603803">
   <rect x="325.8" y="263.156315" width="304.8" height="226.763685"/>
  </clipPath>
 </defs>
</svg>
