<?xml version="1.0" encoding="utf-8" standalone="no"?>
<!DOCTYPE svg PUBLIC "-//W3C//DTD SVG 1.1//EN"
  "http://www.w3.org/Graphics/SVG/1.1/DTD/svg11.dtd">
<svg xmlns:xlink="http://www.w3.org/1999/xlink" width="640.8pt" height="497.12pt" viewBox="0 0 640.8 497.12" xmlns="http://www.w3.org/2000/svg" version="1.1">
 <metadata>
  <rdf:RDF xmlns:dc="http://purl.org/dc/elements/1.1/" xmlns:cc="http://creativecommons.org/ns#" xmlns:rdf="http://www.w3.org/1999/02/22-rdf-syntax-ns#">
   <cc:Work>
    <dc:type rdf:resource="http://purl.org/dc/dcmitype/StillImage"/>
    <dc:date>2025-08-25T19:35:13.415442</dc:date>
    <dc:format>image/svg+xml</dc:format>
    <dc:creator>
     <cc:Agent>
      <dc:title>Matplotlib v3.9.1, https://matplotlib.org/</dc:title>
     </cc:Agent>
    </dc:creator>
   </cc:Work>
  </rdf:RDF>
 </metadata>
 <defs>
  <style type="text/css">*{stroke-linejoin: round; stroke-linecap: butt}</style>
 </defs>
 <g id="figure_1">
  <g id="patch_1">
   <path d="M 0 497.12 
L 640.8 497.12 
L 640.8 0 
L 0 0 
L 0 497.12 
z
" style="fill: none"/>
  </g>
  <g id="axes_1">
   <g id="patch_2">
    <path d="M 7.2 243.32 
L 312 243.32 
L 312 16.556315 
L 7.2 16.556315 
L 7.2 243.32 
z
" style="fill: none"/>
   </g>
   <g id="matplotlib.axis_1">
    <g id="text_1">
     <!-- $x$ -->
     <g transform="translate(300.913188 147.775154) scale(0.2 -0.2)">
      <defs>
       <path id="CMMI12-78" d="M 3034 2606 
C 2829 2567 2752 2414 2752 2293 
C 2752 2139 2874 2088 2963 2088 
C 3155 2088 3290 2254 3290 2427 
C 3290 2695 2982 2816 2714 2816 
C 2323 2816 2106 2433 2048 2312 
C 1901 2816 1504 2816 1389 2816 
C 736 2816 390 1980 390 1839 
C 390 1814 416 1782 461 1782 
C 512 1782 525 1820 538 1846 
C 755 2555 1184 2689 1370 2689 
C 1658 2689 1715 2420 1715 2267 
C 1715 2127 1677 1980 1600 1673 
L 1382 798 
C 1286 415 1101 64 762 64 
C 730 64 570 64 435 147 
C 666 192 717 383 717 460 
C 717 588 621 664 499 664 
C 346 664 179 530 179 326 
C 179 57 480 -64 755 -64 
C 1062 -64 1280 179 1414 441 
C 1517 64 1837 -64 2074 -64 
C 2726 -64 3072 773 3072 913 
C 3072 945 3046 971 3008 971 
C 2950 971 2944 939 2925 888 
C 2752 326 2381 64 2093 64 
C 1869 64 1747 230 1747 492 
C 1747 632 1773 734 1875 1156 
L 2099 2024 
C 2195 2408 2413 2689 2707 2689 
C 2720 2689 2899 2689 3034 2606 
z
" transform="scale(0.015625)"/>
      </defs>
      <use xlink:href="#CMMI12-78" transform="scale(0.996264)"/>
     </g>
    </g>
   </g>
   <g id="matplotlib.axis_2">
    <g id="text_2">
     <!-- $y$ -->
     <g transform="translate(146.087165 12.680682) scale(0.2 -0.2)">
      <defs>
       <path id="CMMI12-79" d="M 1683 -700 
C 1510 -939 1261 -1152 947 -1152 
C 870 -1152 563 -1152 467 -889 
C 486 -895 518 -895 531 -895 
C 723 -895 851 -729 851 -582 
C 851 -435 730 -384 634 -384 
C 531 -384 307 -458 307 -759 
C 307 -1071 582 -1286 947 -1286 
C 1587 -1286 2234 -700 2413 6 
L 3040 2485 
C 3046 2517 3059 2556 3059 2594 
C 3059 2689 2982 2753 2886 2753 
C 2829 2753 2694 2727 2643 2535 
L 2170 658 
C 2138 543 2138 530 2086 460 
C 1958 281 1747 64 1440 64 
C 1082 64 1050 415 1050 588 
C 1050 952 1222 1443 1395 1903 
C 1466 2088 1504 2178 1504 2305 
C 1504 2574 1312 2816 998 2816 
C 410 2816 173 1890 173 1839 
C 173 1814 198 1782 243 1782 
C 301 1782 307 1807 333 1897 
C 486 2433 730 2689 979 2689 
C 1037 2689 1146 2689 1146 2478 
C 1146 2312 1075 2127 979 1884 
C 666 1047 666 837 666 683 
C 666 77 1101 -64 1421 -64 
C 1606 -64 1837 -6 2061 230 
L 2067 224 
C 1971 -147 1907 -392 1683 -700 
z
" transform="scale(0.015625)"/>
      </defs>
      <use xlink:href="#CMMI12-79" transform="scale(0.996264)"/>
     </g>
    </g>
   </g>
   <g id="line2d_1">
    <defs>
     <path id="mf05bc051cd" d="M 3 0 
L -3 -3 
L -3 3 
z
" style="stroke: #000000; stroke-linejoin: miter"/>
    </defs>
    <g>
     <use xlink:href="#mf05bc051cd" x="312" y="129.938158" style="stroke: #000000; stroke-linejoin: miter"/>
    </g>
   </g>
   <g id="line2d_2">
    <defs>
     <path id="m897d92df48" d="M 0 -3 
L -3 3 
L 3 3 
z
" style="stroke: #000000; stroke-linejoin: miter"/>
    </defs>
    <g>
     <use xlink:href="#m897d92df48" x="159.6" y="16.556315" style="stroke: #000000; stroke-linejoin: miter"/>
    </g>
   </g>
   <g id="line2d_3">
    <path d="M 7.2 117.025226 
L 39.131429 116.547371 
L 60.940073 116.010755 
L 76.49641 115.41723 
L 88.033407 114.76533 
L 96.81641 114.056934 
L 103.664176 113.29249 
L 109.172161 112.461705 
L 113.638095 111.569406 
L 117.285275 110.622333 
L 120.336996 109.608907 
L 122.942125 108.515294 
L 125.175092 107.341519 
L 127.11033 106.078435 
L 128.822271 104.698816 
L 130.310916 103.225846 
L 131.725128 101.505031 
L 132.990476 99.602484 
L 134.10696 97.533792 
L 135.149011 95.150547 
L 136.11663 92.398018 
L 137.009817 89.213983 
L 137.903004 85.149062 
L 138.721758 80.291504 
L 139.466081 74.465121 
L 140.135971 67.465761 
L 140.731429 59.074506 
L 141.326886 47.388525 
L 141.847912 32.618743 
L 142.294505 14.028207 
L 142.553277 -1 
M 144.931449 498.12 
L 145.197363 376.543665 
L 145.569524 297.176375 
L 146.016117 249.020941 
L 146.537143 217.809085 
L 147.058168 198.651464 
L 147.653626 184.178878 
L 148.323516 173.095119 
L 149.067839 164.479286 
L 149.886593 157.682351 
L 150.705348 152.639463 
L 151.598535 148.439218 
L 152.566154 144.920758 
L 153.608205 141.955036 
L 154.724689 139.43923 
L 155.915604 137.291545 
L 157.180952 135.446804 
L 158.595165 133.773132 
L 160.158242 132.2719 
L 161.870183 130.935219 
L 163.805421 129.707596 
L 166.038388 128.563464 
L 168.569084 127.52193 
L 171.546374 126.544851 
L 175.044689 125.639067 
L 179.212894 124.797232 
L 184.274286 124.011379 
L 190.452161 123.286072 
L 198.118681 122.617788 
L 207.869304 122.00093 
L 220.448352 121.438679 
L 237.04674 120.930322 
L 259.599707 120.474261 
L 291.307839 120.069831 
L 312 119.888403 
L 312 119.888403 
" clip-path="url(#p3d4a542c64)" style="fill: none; stroke: #0072b2; stroke-width: 2.5; stroke-linecap: square"/>
   </g>
   <g id="line2d_4">
    <path d="M 144.36 243.32 
L 144.36 16.556315 
" clip-path="url(#p3d4a542c64)" style="fill: none; stroke-dasharray: 9.25,4; stroke-dashoffset: 0; stroke: #dc5e8b; stroke-width: 2.5"/>
   </g>
   <g id="patch_3">
    <path d="M 159.6 243.32 
L 159.6 16.556315 
" style="fill: none; stroke: #000000; stroke-width: 0.8; stroke-linejoin: miter; stroke-linecap: square"/>
   </g>
   <g id="patch_4">
    <path d="M 312 243.32 
L 312 16.556315 
" style="fill: none"/>
   </g>
   <g id="patch_5">
    <path d="M 7.2 129.938158 
L 312 129.938158 
" style="fill: none; stroke: #000000; stroke-width: 0.8; stroke-linejoin: miter; stroke-linecap: square"/>
   </g>
   <g id="patch_6">
    <path d="M 7.2 16.556315 
L 312 16.556315 
" style="fill: none"/>
   </g>
   <g id="legend_1">
    <g id="patch_7">
     <path d="M 219.374426 60.431949 
L 298 60.431949 
Q 302 60.431949 302 56.431949 
L 302 30.556315 
Q 302 26.556315 298 26.556315 
L 219.374426 26.556315 
Q 215.374426 26.556315 215.374426 30.556315 
L 215.374426 56.431949 
Q 215.374426 60.431949 219.374426 60.431949 
z
" style="fill: #ffffff; opacity: 0.8; stroke: #cccccc; stroke-linejoin: miter"/>
    </g>
    <g id="line2d_5">
     <path d="M 223.374426 41.556315 
L 243.374426 41.556315 
L 263.374426 41.556315 
" style="fill: none; stroke: #0072b2; stroke-width: 2.5; stroke-linecap: square"/>
    </g>
    <g id="text_3">
     <!-- $A$ -->
     <g transform="translate(279.374426 48.556315) scale(0.2 -0.2)">
      <defs>
       <path id="CMMI12-41" d="M 1088 691 
C 864 314 646 186 339 186 
C 269 180 218 180 218 58 
C 218 24 250 0 294 0 
C 410 0 698 0 813 0 
C 998 0 1203 0 1382 0 
C 1421 0 1498 0 1498 122 
C 1498 180 1446 186 1408 186 
C 1261 186 1139 236 1139 388 
C 1139 476 1178 546 1261 685 
L 1747 1479 
L 3379 1479 
C 3386 1423 3386 1373 3392 1316 
C 3411 1152 3488 495 3488 376 
C 3488 186 3162 186 3059 186 
C 2989 186 2918 186 2918 70 
C 2918 0 2976 0 3014 0 
C 3123 0 3251 0 3360 0 
L 3725 0 
C 4115 0 4397 0 4403 0 
C 4448 0 4518 0 4518 122 
C 4518 186 4461 186 4365 186 
C 4013 186 4006 244 3987 434 
L 3597 4404 
C 3584 4531 3558 4544 3488 4544 
C 3424 4544 3386 4531 3328 4435 
L 1088 691 
z
M 1856 1664 
L 3142 3819 
L 3360 1664 
L 1856 1664 
z
" transform="scale(0.015625)"/>
      </defs>
      <use xlink:href="#CMMI12-41" transform="scale(0.996264)"/>
     </g>
    </g>
   </g>
  </g>
  <g id="axes_2">
   <g id="patch_8">
    <path d="M 325.8 243.32 
L 630.6 243.32 
L 630.6 16.556315 
L 325.8 16.556315 
L 325.8 243.32 
z
" style="fill: none"/>
   </g>
   <g id="matplotlib.axis_3">
    <g id="text_4">
     <!-- $x$ -->
     <g transform="translate(619.513188 147.775154) scale(0.2 -0.2)">
      <use xlink:href="#CMMI12-78" transform="scale(0.996264)"/>
     </g>
    </g>
   </g>
   <g id="matplotlib.axis_4">
    <g id="text_5">
     <!-- $y$ -->
     <g transform="translate(464.687165 12.680682) scale(0.2 -0.2)">
      <use xlink:href="#CMMI12-79" transform="scale(0.996264)"/>
     </g>
    </g>
   </g>
   <g id="line2d_6">
    <g>
     <use xlink:href="#mf05bc051cd" x="630.6" y="129.938158" style="stroke: #000000; stroke-linejoin: miter"/>
    </g>
   </g>
   <g id="line2d_7">
    <g>
     <use xlink:href="#m897d92df48" x="478.2" y="16.556315" style="stroke: #000000; stroke-linejoin: miter"/>
    </g>
   </g>
   <g id="line2d_8">
    <path d="M 325.8 124.31169 
L 407.377729 124.468253 
L 430.228425 124.709291 
L 441.39326 125.030644 
L 448.017729 125.426893 
L 452.409231 125.895681 
L 455.535385 126.436478 
L 457.917216 127.063976 
L 459.778022 127.779553 
L 461.266667 128.587527 
L 462.457582 129.473117 
L 463.499634 130.517737 
L 464.392821 131.717877 
L 465.211575 133.194986 
L 465.955897 135.020052 
L 466.625788 137.280177 
L 467.221245 140.077271 
L 467.742271 143.51903 
L 468.263297 148.548095 
L 468.70989 155.131117 
L 469.082051 163.655397 
L 469.454212 177.867408 
L 469.751941 198.488942 
L 469.975238 227.325371 
L 470.198535 289.986431 
L 470.272967 331.146053 
M 471.11841 -1 
L 471.389451 39.727259 
L 471.761612 64.821457 
L 472.208205 79.711629 
L 472.729231 89.169924 
L 473.250256 94.847531 
L 473.845714 99.015837 
L 474.515604 102.072492 
L 475.185495 104.106252 
L 475.855385 105.48325 
L 476.525275 106.398585 
L 477.195165 106.960812 
L 477.865055 107.228865 
L 478.460513 107.241887 
L 479.055971 107.04444 
L 479.651429 106.621515 
L 480.246886 105.939161 
L 480.842344 104.937222 
L 481.437802 103.514636 
L 482.03326 101.499743 
L 482.628718 98.586483 
L 483.149744 94.847531 
L 483.596337 90.150799 
L 484.04293 82.992774 
L 484.415092 73.463106 
L 484.787253 56.965115 
L 485.084982 31.643821 
L 485.28159 -1 
M 486.127033 331.146053 
L 486.424762 227.325371 
L 486.722491 192.053716 
L 487.094652 171.181033 
L 487.541245 158.094562 
L 488.062271 149.460839 
L 488.657729 143.51903 
L 489.253187 139.6729 
L 489.923077 136.711618 
L 490.667399 134.410799 
L 491.486154 132.605536 
L 492.379341 131.175298 
L 493.34696 130.031687 
L 494.463443 129.052733 
L 495.803223 128.190756 
L 497.3663 127.461993 
L 499.301538 126.819402 
L 501.68337 126.270502 
L 504.809524 125.788317 
L 509.052161 125.373929 
L 515.00674 125.030644 
L 524.01304 124.75296 
L 538.899487 124.541382 
L 567.183736 124.394703 
L 630.6 124.31169 
L 630.6 124.31169 
" clip-path="url(#pcd5d22ac5c)" style="fill: none; stroke: #0072b2; stroke-width: 2.5; stroke-linecap: square"/>
   </g>
   <g id="line2d_9">
    <path d="M 470.58 243.32 
L 470.58 16.556315 
" clip-path="url(#pcd5d22ac5c)" style="fill: none; stroke-dasharray: 9.25,4; stroke-dashoffset: 0; stroke: #dc5e8b; stroke-width: 2.5"/>
   </g>
   <g id="line2d_10">
    <path d="M 485.82 243.32 
L 485.82 16.556315 
" clip-path="url(#pcd5d22ac5c)" style="fill: none; stroke-dasharray: 9.25,4; stroke-dashoffset: 0; stroke: #dc5e8b; stroke-width: 2.5"/>
   </g>
   <g id="patch_9">
    <path d="M 478.2 243.32 
L 478.2 16.556315 
" style="fill: none; stroke: #000000; stroke-width: 0.8; stroke-linejoin: miter; stroke-linecap: square"/>
   </g>
   <g id="patch_10">
    <path d="M 630.6 243.32 
L 630.6 16.556315 
" style="fill: none"/>
   </g>
   <g id="patch_11">
    <path d="M 325.8 129.938158 
L 630.6 129.938158 
" style="fill: none; stroke: #000000; stroke-width: 0.8; stroke-linejoin: miter; stroke-linecap: square"/>
   </g>
   <g id="patch_12">
    <path d="M 325.8 16.556315 
L 630.6 16.556315 
" style="fill: none"/>
   </g>
   <g id="legend_2">
    <g id="patch_13">
     <path d="M 537.778399 60.431949 
L 616.6 60.431949 
Q 620.6 60.431949 620.6 56.431949 
L 620.6 30.556315 
Q 620.6 26.556315 616.6 26.556315 
L 537.778399 26.556315 
Q 533.778399 26.556315 533.778399 30.556315 
L 533.778399 56.431949 
Q 533.778399 60.431949 537.778399 60.431949 
z
" style="fill: #ffffff; opacity: 0.8; stroke: #cccccc; stroke-linejoin: miter"/>
    </g>
    <g id="line2d_11">
     <path d="M 541.778399 41.556315 
L 561.778399 41.556315 
L 581.778399 41.556315 
" style="fill: none; stroke: #0072b2; stroke-width: 2.5; stroke-linecap: square"/>
    </g>
    <g id="text_6">
     <!-- $B$ -->
     <g transform="translate(597.778399 48.556315) scale(0.2 -0.2)">
      <defs>
       <path id="CMMI12-42" d="M 2342 3921 
C 2400 4160 2426 4160 2675 4160 
L 3507 4160 
C 4230 4160 4230 3544 4230 3485 
C 4230 2966 3712 2304 2867 2304 
L 1946 2304 
L 2342 3921 
z
M 3424 2275 
C 4122 2402 4755 2886 4755 3473 
C 4755 3970 4314 4352 3590 4352 
L 1536 4352 
C 1414 4352 1357 4352 1357 4226 
C 1357 4160 1414 4160 1510 4160 
C 1901 4160 1901 4112 1901 4044 
C 1901 4032 1901 3993 1875 3897 
L 1011 472 
C 954 249 941 185 493 185 
C 371 185 307 185 307 70 
C 307 0 346 0 474 0 
L 2669 0 
C 3648 0 4403 739 4403 1383 
C 4403 1906 3942 2224 3424 2275 
z
M 2515 185 
L 1651 185 
C 1562 185 1549 185 1510 192 
C 1440 198 1434 211 1434 261 
C 1434 305 1446 343 1459 399 
L 1907 2176 
L 3110 2176 
C 3866 2176 3866 1483 3866 1433 
C 3866 828 3309 185 2515 185 
z
" transform="scale(0.015625)"/>
      </defs>
      <use xlink:href="#CMMI12-42" transform="scale(0.996264)"/>
     </g>
    </g>
   </g>
  </g>
  <g id="axes_3">
   <g id="patch_14">
    <path d="M 7.2 489.92 
L 312 489.92 
L 312 263.156315 
L 7.2 263.156315 
L 7.2 489.92 
z
" style="fill: none"/>
   </g>
   <g id="matplotlib.axis_5">
    <g id="text_7">
     <!-- $x$ -->
     <g transform="translate(300.913188 394.375154) scale(0.2 -0.2)">
      <use xlink:href="#CMMI12-78" transform="scale(0.996264)"/>
     </g>
    </g>
   </g>
   <g id="matplotlib.axis_6">
    <g id="text_8">
     <!-- $y$ -->
     <g transform="translate(146.087165 259.280682) scale(0.2 -0.2)">
      <use xlink:href="#CMMI12-79" transform="scale(0.996264)"/>
     </g>
    </g>
   </g>
   <g id="line2d_12">
    <g>
     <use xlink:href="#mf05bc051cd" x="312" y="376.538158" style="stroke: #000000; stroke-linejoin: miter"/>
    </g>
   </g>
   <g id="line2d_13">
    <g>
     <use xlink:href="#m897d92df48" x="159.6" y="263.156315" style="stroke: #000000; stroke-linejoin: miter"/>
    </g>
   </g>
   <g id="line2d_14">
    <path d="M 7.2 370.272319 
L 57.590623 369.95374 
L 85.204982 369.575214 
L 102.101099 369.136931 
L 113.191502 368.641679 
L 120.932454 368.086335 
L 126.514872 367.47631 
L 130.757509 366.798056 
L 134.032527 366.055186 
L 136.563223 365.264978 
L 138.647326 364.388973 
L 140.359267 363.434339 
L 141.77348 362.404186 
L 143.038828 361.206242 
L 144.155311 359.827481 
L 145.12293 358.269374 
L 146.016117 356.382368 
L 146.834872 354.077071 
L 147.579194 351.236987 
L 148.249084 347.712026 
L 148.844542 343.31425 
L 149.365568 337.822899 
L 149.886593 329.598075 
L 150.333187 318.405942 
L 150.705348 303.088241 
L 151.003077 282.431228 
L 151.300806 243.663957 
L 151.524103 181.359415 
L 151.672967 89.475947 
M 152.660466 498.12 
L 153.012747 454.526479 
L 153.384908 432.365575 
L 153.831502 417.532246 
L 154.352527 407.284645 
L 154.947985 399.978698 
L 155.617875 394.618357 
L 156.287766 390.925162 
L 157.032088 387.970305 
L 157.850842 385.585346 
L 158.744029 383.642068 
L 159.711648 382.043521 
L 160.828132 380.633495 
L 162.09348 379.411819 
L 163.507692 378.363797 
L 165.145201 377.43159 
L 167.08044 376.590552 
L 169.462271 375.811041 
L 172.365128 375.1073 
L 176.012308 374.464099 
L 180.627106 373.884971 
L 186.730549 373.35527 
L 194.918095 372.881194 
L 206.306227 372.459402 
L 222.681319 372.091065 
L 247.467253 371.773866 
L 287.36293 371.507233 
L 312 371.408979 
L 312 371.408979 
" clip-path="url(#p648f91aafd)" style="fill: none; stroke: #0072b2; stroke-width: 2.5; stroke-linecap: square"/>
   </g>
   <g id="line2d_15">
    <path d="M 151.98 489.92 
L 151.98 263.156315 
" clip-path="url(#p648f91aafd)" style="fill: none; stroke-dasharray: 9.25,4; stroke-dashoffset: 0; stroke: #dc5e8b; stroke-width: 2.5"/>
   </g>
   <g id="patch_15">
    <path d="M 159.6 489.92 
L 159.6 263.156315 
" style="fill: none; stroke: #000000; stroke-width: 0.8; stroke-linejoin: miter; stroke-linecap: square"/>
   </g>
   <g id="patch_16">
    <path d="M 312 489.92 
L 312 263.156315 
" style="fill: none"/>
   </g>
   <g id="patch_17">
    <path d="M 7.2 376.538158 
L 312 376.538158 
" style="fill: none; stroke: #000000; stroke-width: 0.8; stroke-linejoin: miter; stroke-linecap: square"/>
   </g>
   <g id="patch_18">
    <path d="M 7.2 263.156315 
L 312 263.156315 
" style="fill: none"/>
   </g>
   <g id="legend_3">
    <g id="patch_19">
     <path d="M 220.041602 307.031949 
L 298 307.031949 
Q 302 307.031949 302 303.031949 
L 302 277.156315 
Q 302 273.156315 298 273.156315 
L 220.041602 273.156315 
Q 216.041602 273.156315 216.041602 277.156315 
L 216.041602 303.031949 
Q 216.041602 307.031949 220.041602 307.031949 
z
" style="fill: #ffffff; opacity: 0.8; stroke: #cccccc; stroke-linejoin: miter"/>
    </g>
    <g id="line2d_16">
     <path d="M 224.041602 288.156315 
L 244.041602 288.156315 
L 264.041602 288.156315 
" style="fill: none; stroke: #0072b2; stroke-width: 2.5; stroke-linecap: square"/>
    </g>
    <g id="text_9">
     <!-- $C$ -->
     <g transform="translate(280.041602 295.156315) scale(0.2 -0.2)">
      <defs>
       <path id="CMMI12-43" d="M 4781 4423 
C 4781 4480 4736 4480 4723 4480 
C 4710 4480 4685 4480 4634 4416 
L 4192 3882 
C 3968 4264 3616 4480 3136 4480 
C 1754 4480 320 3088 320 1595 
C 320 533 1069 -128 2003 -128 
C 2515 -128 2963 88 3334 400 
C 3891 863 4058 1481 4058 1531 
C 4058 1588 4006 1588 3987 1588 
C 3930 1588 3923 1550 3910 1524 
C 3616 534 2752 57 2112 57 
C 1434 57 845 489 845 1391 
C 845 1595 909 2700 1632 3532 
C 1984 3939 2586 4295 3194 4295 
C 3898 4295 4211 3717 4211 3068 
C 4211 2903 4192 2764 4192 2738 
C 4192 2681 4256 2681 4275 2681 
C 4346 2681 4352 2687 4378 2801 
L 4781 4423 
z
" transform="scale(0.015625)"/>
      </defs>
      <use xlink:href="#CMMI12-43" transform="scale(0.996264)"/>
     </g>
    </g>
   </g>
  </g>
  <g id="axes_4">
   <g id="patch_20">
    <path d="M 325.8 489.92 
L 630.6 489.92 
L 630.6 263.156315 
L 325.8 263.156315 
L 325.8 489.92 
z
" style="fill: none"/>
   </g>
   <g id="matplotlib.axis_7">
    <g id="text_10">
     <!-- $x$ -->
     <g transform="translate(619.513188 394.375154) scale(0.2 -0.2)">
      <use xlink:href="#CMMI12-78" transform="scale(0.996264)"/>
     </g>
    </g>
   </g>
   <g id="matplotlib.axis_8">
    <g id="text_11">
     <!-- $y$ -->
     <g transform="translate(464.687165 259.280682) scale(0.2 -0.2)">
      <use xlink:href="#CMMI12-79" transform="scale(0.996264)"/>
     </g>
    </g>
   </g>
   <g id="line2d_17">
    <g>
     <use xlink:href="#mf05bc051cd" x="630.6" y="376.538158" style="stroke: #000000; stroke-linejoin: miter"/>
    </g>
   </g>
   <g id="line2d_18">
    <g>
     <use xlink:href="#m897d92df48" x="478.2" y="263.156315" style="stroke: #000000; stroke-linejoin: miter"/>
    </g>
   </g>
   <g id="line2d_19">
    <path d="M 325.8 473.992551 
L 373.659927 438.846719 
L 402.539634 417.895174 
L 421.370989 404.491359 
L 434.322198 395.530249 
L 443.626227 389.348163 
L 450.548425 385.001928 
L 455.833114 381.93361 
L 459.926886 379.798982 
L 463.201905 378.328726 
L 465.881465 377.361898 
L 468.04 376.808114 
L 469.826374 376.564577 
L 471.389451 376.571937 
L 472.729231 376.800676 
L 473.920147 377.235664 
L 474.962198 377.85399 
L 475.929817 378.691098 
L 476.823004 379.761068 
L 477.641758 381.074693 
L 478.460513 382.816138 
L 479.204835 384.904189 
L 479.949158 387.662112 
L 480.69348 391.381684 
L 481.36337 395.949741 
L 481.958828 401.486083 
L 482.554286 409.202926 
L 483.075311 418.859518 
L 483.596337 433.223026 
L 484.04293 452.419203 
L 484.415092 477.900025 
L 484.613694 498.12 
M 486.310209 -1 
L 486.573626 124.017828 
L 486.945788 199.537076 
L 487.392381 242.798806 
L 487.838974 266.774718 
L 488.36 283.942986 
L 488.955458 296.419454 
L 489.625348 305.622524 
L 490.295238 311.921208 
L 491.03956 316.873492 
L 491.783883 320.451413 
L 492.602637 323.339754 
L 493.421392 325.474661 
L 494.314579 327.200361 
L 495.207766 328.471234 
L 496.175385 329.471254 
L 497.217436 330.221606 
L 498.333919 330.743603 
L 499.524835 331.057484 
L 500.864615 331.183533 
L 502.427692 331.101624 
L 504.214066 330.783054 
L 506.372601 330.163761 
L 508.977729 329.1714 
L 512.103883 327.733088 
L 515.974359 325.697376 
L 520.812454 322.890232 
L 526.99033 319.035029 
L 534.954579 313.790126 
L 545.523956 306.549339 
L 559.889377 296.423133 
L 580.134945 281.861701 
L 609.758974 260.260062 
L 630.6 244.955546 
L 630.6 244.955546 
" clip-path="url(#p6ae451045c)" style="fill: none; stroke: #0072b2; stroke-width: 2.5; stroke-linecap: square"/>
   </g>
   <g id="line2d_20">
    <path d="M 485.82 489.92 
L 485.82 263.156315 
" clip-path="url(#p6ae451045c)" style="fill: none; stroke-dasharray: 9.25,4; stroke-dashoffset: 0; stroke: #dc5e8b; stroke-width: 2.5"/>
   </g>
   <g id="patch_21">
    <path d="M 478.2 489.92 
L 478.2 263.156315 
" style="fill: none; stroke: #000000; stroke-width: 0.8; stroke-linejoin: miter; stroke-linecap: square"/>
   </g>
   <g id="patch_22">
    <path d="M 630.6 489.92 
L 630.6 263.156315 
" style="fill: none"/>
   </g>
   <g id="patch_23">
    <path d="M 325.8 376.538158 
L 630.6 376.538158 
" style="fill: none; stroke: #000000; stroke-width: 0.8; stroke-linejoin: miter; stroke-linecap: square"/>
   </g>
   <g id="patch_24">
    <path d="M 325.8 263.156315 
L 630.6 263.156315 
" style="fill: none"/>
   </g>
   <g id="legend_4">
    <g id="patch_25">
     <path d="M 339.8 307.031949 
L 419.998837 307.031949 
Q 423.998837 307.031949 423.998837 303.031949 
L 423.998837 277.156315 
Q 423.998837 273.156315 419.998837 273.156315 
L 339.8 273.156315 
Q 335.8 273.156315 335.8 277.156315 
L 335.8 303.031949 
Q 335.8 307.031949 339.8 307.031949 
z
" style="fill: #ffffff; opacity: 0.8; stroke: #cccccc; stroke-linejoin: miter"/>
    </g>
    <g id="line2d_21">
     <path d="M 343.8 288.156315 
L 363.8 288.156315 
L 383.8 288.156315 
" style="fill: none; stroke: #0072b2; stroke-width: 2.5; stroke-linecap: square"/>
    </g>
    <g id="text_12">
     <!-- $D$ -->
     <g transform="translate(399.8 295.156315) scale(0.2 -0.2)">
      <defs>
       <path id="CMMI12-44" d="M 1005 472 
C 947 249 934 185 486 185 
C 365 185 301 185 301 70 
C 301 0 339 0 467 0 
L 2496 0 
C 3789 0 5050 1332 5050 2753 
C 5050 3671 4499 4352 3584 4352 
L 1530 4352 
C 1408 4352 1350 4352 1350 4231 
C 1350 4167 1408 4167 1504 4167 
C 1894 4167 1894 4116 1894 4046 
C 1894 4034 1894 3995 1869 3899 
L 1005 472 
z
M 2355 3931 
C 2413 4167 2438 4167 2688 4167 
L 3392 4167 
C 3994 4167 4544 3842 4544 2963 
C 4544 2644 4416 1536 3795 835 
C 3616 625 3130 185 2394 185 
L 1664 185 
C 1574 185 1562 185 1523 192 
C 1453 198 1446 211 1446 262 
C 1446 307 1459 345 1472 402 
L 2355 3931 
z
" transform="scale(0.015625)"/>
      </defs>
      <use xlink:href="#CMMI12-44" transform="scale(0.996264)"/>
     </g>
    </g>
   </g>
  </g>
 </g>
 <defs>
  <clipPath id="p3d4a542c64">
   <rect x="7.2" y="16.556315" width="304.8" height="226.763685"/>
  </clipPath>
  <clipPath id="pcd5d22ac5c">
   <rect x="325.8" y="16.556315" width="304.8" height="226.763685"/>
  </clipPath>
  <clipPath id="p648f91aafd">
   <rect x="7.2" y="263.156315" width="304.8" height="226.763685"/>
  </clipPath>
  <clipPath id="p6ae451045c">
   <rect x="325.8" y="263.156315" width="304.8" height="226.763685"/>
  </clipPath>
 </defs>
</svg>
