<?xml version="1.0" encoding="utf-8" standalone="no"?>
<!DOCTYPE svg PUBLIC "-//W3C//DTD SVG 1.1//EN"
  "http://www.w3.org/Graphics/SVG/1.1/DTD/svg11.dtd">
<svg xmlns:xlink="http://www.w3.org/1999/xlink" width="640.8pt" height="496.538125pt" viewBox="0 0 640.8 496.538125" xmlns="http://www.w3.org/2000/svg" version="1.1">
 <metadata>
  <rdf:RDF xmlns:dc="http://purl.org/dc/elements/1.1/" xmlns:cc="http://creativecommons.org/ns#" xmlns:rdf="http://www.w3.org/1999/02/22-rdf-syntax-ns#">
   <cc:Work>
    <dc:type rdf:resource="http://purl.org/dc/dcmitype/StillImage"/>
    <dc:date>2025-11-03T08:52:29.538326</dc:date>
    <dc:format>image/svg+xml</dc:format>
    <dc:creator>
     <cc:Agent>
      <dc:title>Matplotlib v3.9.1, https://matplotlib.org/</dc:title>
     </cc:Agent>
    </dc:creator>
   </cc:Work>
  </rdf:RDF>
 </metadata>
 <defs>
  <style type="text/css">*{stroke-linejoin: round; stroke-linecap: butt}</style>
 </defs>
 <g id="figure_1">
  <g id="patch_1">
   <path d="M 0 496.538125 
L 640.8 496.538125 
L 640.8 0 
L 0 0 
L 0 496.538125 
z
" style="fill: none"/>
  </g>
  <g id="axes_1">
   <g id="patch_2">
    <path d="M 7.2 242.738125 
L 312 242.738125 
L 312 17.378125 
L 7.2 17.378125 
L 7.2 242.738125 
z
" style="fill: none"/>
   </g>
   <g id="matplotlib.axis_1">
    <g id="text_1">
     <!-- $x$ -->
     <g transform="translate(300 149.255) scale(0.2 -0.2)">
      <defs>
       <path id="DejaVuSans-Oblique-78" d="M 3841 3500 
L 2234 1784 
L 3219 0 
L 2559 0 
L 1819 1388 
L 531 0 
L -166 0 
L 1556 1844 
L 641 3500 
L 1300 3500 
L 1972 2234 
L 3144 3500 
L 3841 3500 
z
" transform="scale(0.015625)"/>
      </defs>
      <use xlink:href="#DejaVuSans-Oblique-78" transform="translate(0 0.3125)"/>
     </g>
    </g>
   </g>
   <g id="matplotlib.axis_2">
    <g id="text_2">
     <!-- $y$ -->
     <g transform="translate(143.6 13.178125) scale(0.2 -0.2)">
      <defs>
       <path id="DejaVuSans-Oblique-79" d="M 1588 -325 
Q 1188 -997 936 -1164 
Q 684 -1331 294 -1331 
L -159 -1331 
L -63 -850 
L 269 -850 
Q 509 -850 678 -719 
Q 847 -588 1056 -206 
L 1234 128 
L 459 3500 
L 1069 3500 
L 1650 819 
L 3256 3500 
L 3859 3500 
L 1588 -325 
z
" transform="scale(0.015625)"/>
      </defs>
      <use xlink:href="#DejaVuSans-Oblique-79" transform="translate(0 0.3125)"/>
     </g>
    </g>
   </g>
   <g id="line2d_1">
    <defs>
     <path id="m541f9b2fe7" d="M 3 0 
L -3 -3 
L -3 3 
z
" style="stroke: #000000; stroke-linejoin: miter"/>
    </defs>
    <g>
     <use xlink:href="#m541f9b2fe7" x="312" y="130.058125" style="stroke: #000000; stroke-linejoin: miter"/>
    </g>
   </g>
   <g id="line2d_2">
    <defs>
     <path id="m09a9a6c2c4" d="M 0 -3 
L -3 3 
L 3 3 
z
" style="stroke: #000000; stroke-linejoin: miter"/>
    </defs>
    <g>
     <use xlink:href="#m09a9a6c2c4" x="159.6" y="17.378125" style="stroke: #000000; stroke-linejoin: miter"/>
    </g>
   </g>
   <g id="line2d_3">
    <path d="M 7.2 195.251554 
L 30.125128 189.139872 
L 47.542271 184.716839 
L 61.088938 181.49736 
L 71.807179 179.169852 
L 80.441319 177.513392 
L 87.512381 176.374355 
L 93.392527 175.644625 
L 98.305055 175.250403 
L 102.47326 175.130129 
L 106.046007 175.240964 
L 109.172161 175.556034 
L 111.851722 176.041046 
L 114.233553 176.690565 
L 116.392088 177.509802 
L 118.327326 178.48503 
L 120.039267 179.591166 
L 121.602344 180.855583 
L 123.090989 182.347233 
L 124.430769 183.99481 
L 125.696117 185.889393 
L 126.887033 188.056412 
L 128.077949 190.704537 
L 129.194432 193.758706 
L 130.236484 197.270362 
L 131.204103 201.293905 
L 132.171722 206.312917 
L 133.064908 212.163277 
L 133.883663 218.965486 
L 134.702418 227.740338 
L 135.44674 238.228217 
L 136.11663 250.741508 
L 136.78652 267.779997 
L 137.381978 289.044894 
L 137.903004 315.564878 
L 138.424029 355.159244 
L 138.870623 408.727695 
L 139.242784 481.396817 
L 139.303441 497.538125 
M 143.360737 -1 
L 143.932015 24.654534 
L 144.601905 45.442946 
L 145.346227 61.665544 
L 146.164982 74.475411 
L 146.983736 83.963291 
L 147.876923 91.833602 
L 148.844542 98.382803 
L 149.812161 103.503819 
L 150.854212 107.883054 
L 151.970696 111.625878 
L 153.161612 114.823351 
L 154.352527 117.408273 
L 155.617875 119.646037 
L 156.957656 121.57632 
L 158.371868 123.234353 
L 159.860513 124.651106 
L 161.498022 125.904691 
L 163.284396 126.986715 
L 165.219634 127.895731 
L 167.378168 128.657507 
L 169.76 129.257934 
L 172.43956 129.700426 
L 175.491282 129.973674 
L 178.989597 130.057238 
L 183.008938 129.925778 
L 187.698168 129.54458 
L 193.206154 128.868073 
L 199.75619 127.832897 
L 207.646007 126.352158 
L 217.173333 124.330052 
L 228.933626 121.597485 
L 243.596777 117.95207 
L 262.204835 113.086022 
L 286.246447 106.558076 
L 312 99.384125 
L 312 99.384125 
" clip-path="url(#pa10fdda82d)" style="fill: none; stroke: #0072b2; stroke-width: 2.5; stroke-linecap: square"/>
   </g>
   <g id="line2d_4">
    <defs>
     <path id="m81dc601e81" d="M 0 5 
C 1.326016 5 2.597899 4.473168 3.535534 3.535534 
C 4.473168 2.597899 5 1.326016 5 0 
C 5 -1.326016 4.473168 -2.597899 3.535534 -3.535534 
C 2.597899 -4.473168 1.326016 -5 0 -5 
C -1.326016 -5 -2.597899 -4.473168 -3.535534 -3.535534 
C -4.473168 -2.597899 -5 -1.326016 -5 0 
C -5 1.326016 -4.473168 2.597899 -3.535534 3.535534 
C -2.597899 4.473168 -1.326016 5 0 5 
z
" style="stroke: #000000; stroke-opacity: 0.8"/>
    </defs>
    <g clip-path="url(#pa10fdda82d)">
     <use xlink:href="#m81dc601e81" x="178.65" y="130.058125" style="fill-opacity: 0.8; stroke: #000000; stroke-opacity: 0.8"/>
    </g>
   </g>
   <g id="line2d_5">
    <path d="M 7.2 192.032125 
L 312 101.888125 
" clip-path="url(#pa10fdda82d)" style="fill: none; stroke-dasharray: 9.25,4; stroke-dashoffset: 0; stroke: #dc5e8b; stroke-width: 2.5"/>
   </g>
   <g id="line2d_6">
    <path d="M 140.55 242.738125 
L 140.55 17.378125 
" clip-path="url(#pa10fdda82d)" style="fill: none; stroke-dasharray: 9.25,4; stroke-dashoffset: 0; stroke: #dc5e8b; stroke-width: 2.5"/>
   </g>
   <g id="patch_3">
    <path d="M 159.6 242.738125 
L 159.6 17.378125 
" style="fill: none; stroke: #000000; stroke-width: 0.8; stroke-linejoin: miter; stroke-linecap: square"/>
   </g>
   <g id="patch_4">
    <path d="M 312 242.738125 
L 312 17.378125 
" style="fill: none"/>
   </g>
   <g id="patch_5">
    <path d="M 7.2 130.058125 
L 312 130.058125 
" style="fill: none; stroke: #000000; stroke-width: 0.8; stroke-linejoin: miter; stroke-linecap: square"/>
   </g>
   <g id="patch_6">
    <path d="M 7.2 17.378125 
L 312 17.378125 
" style="fill: none"/>
   </g>
   <g id="legend_1">
    <g id="patch_7">
     <path d="M 220.2 62.734375 
L 298 62.734375 
Q 302 62.734375 302 58.734375 
L 302 31.378125 
Q 302 27.378125 298 27.378125 
L 220.2 27.378125 
Q 216.2 27.378125 216.2 31.378125 
L 216.2 58.734375 
Q 216.2 62.734375 220.2 62.734375 
z
" style="fill: #ffffff; opacity: 0.8; stroke: #cccccc; stroke-linejoin: miter"/>
    </g>
    <g id="line2d_7">
     <path d="M 224.2 43.575 
L 244.2 43.575 
L 264.2 43.575 
" style="fill: none; stroke: #0072b2; stroke-width: 2.5; stroke-linecap: square"/>
    </g>
    <g id="text_3">
     <!-- $A$ -->
     <g transform="translate(280.2 50.575) scale(0.2 -0.2)">
      <defs>
       <path id="DejaVuSans-Oblique-41" d="M 2356 4666 
L 3072 4666 
L 3938 0 
L 3278 0 
L 3084 1197 
L 984 1197 
L 325 0 
L -341 0 
L 2356 4666 
z
M 2584 4044 
L 1275 1722 
L 2988 1722 
L 2584 4044 
z
" transform="scale(0.015625)"/>
      </defs>
      <use xlink:href="#DejaVuSans-Oblique-41" transform="translate(0 0.09375)"/>
     </g>
    </g>
   </g>
  </g>
  <g id="axes_2">
   <g id="patch_8">
    <path d="M 325.8 242.738125 
L 630.6 242.738125 
L 630.6 17.378125 
L 325.8 17.378125 
L 325.8 242.738125 
z
" style="fill: none"/>
   </g>
   <g id="matplotlib.axis_3">
    <g id="text_4">
     <!-- $x$ -->
     <g transform="translate(618.6 149.255) scale(0.2 -0.2)">
      <use xlink:href="#DejaVuSans-Oblique-78" transform="translate(0 0.3125)"/>
     </g>
    </g>
   </g>
   <g id="matplotlib.axis_4">
    <g id="text_5">
     <!-- $y$ -->
     <g transform="translate(462.2 13.178125) scale(0.2 -0.2)">
      <use xlink:href="#DejaVuSans-Oblique-79" transform="translate(0 0.3125)"/>
     </g>
    </g>
   </g>
   <g id="line2d_8">
    <g>
     <use xlink:href="#m541f9b2fe7" x="630.6" y="130.058125" style="stroke: #000000; stroke-linejoin: miter"/>
    </g>
   </g>
   <g id="line2d_9">
    <g>
     <use xlink:href="#m09a9a6c2c4" x="478.2" y="17.378125" style="stroke: #000000; stroke-linejoin: miter"/>
    </g>
   </g>
   <g id="line2d_10">
    <path d="M 325.8 64.864696 
L 348.725128 70.976378 
L 366.142271 75.399411 
L 379.688938 78.61889 
L 390.407179 80.946398 
L 399.041319 82.602858 
L 406.112381 83.741895 
L 411.992527 84.471625 
L 416.905055 84.865847 
L 421.07326 84.986121 
L 424.646007 84.875286 
L 427.772161 84.560216 
L 430.451722 84.075204 
L 432.833553 83.425685 
L 434.992088 82.606448 
L 436.927326 81.63122 
L 438.639267 80.525084 
L 440.202344 79.260667 
L 441.690989 77.769017 
L 443.030769 76.12144 
L 444.296117 74.226857 
L 445.487033 72.059838 
L 446.677949 69.411713 
L 447.794432 66.357544 
L 448.836484 62.845888 
L 449.804103 58.822345 
L 450.771722 53.803333 
L 451.664908 47.952973 
L 452.483663 41.150764 
L 453.302418 32.375912 
L 454.04674 21.888033 
L 454.71663 9.374742 
L 455.150231 -1 
M 460.252837 497.538125 
L 460.671209 390.1889 
L 461.117802 326.271758 
L 461.638828 280.753369 
L 462.234286 247.627238 
L 462.904176 222.987954 
L 463.574066 205.870408 
L 464.318388 192.1154 
L 465.137143 180.998265 
L 466.03033 171.953805 
L 466.923516 165.048488 
L 467.891136 159.221146 
L 468.933187 154.297994 
L 469.975238 150.381992 
L 471.091722 147.00436 
L 472.282637 144.096449 
L 473.547985 141.597722 
L 474.887766 139.455557 
L 476.301978 137.624602 
L 477.790623 136.065978 
L 479.3537 134.746448 
L 481.065641 133.592875 
L 482.926447 132.6101 
L 484.936117 131.797231 
L 487.169084 131.130799 
L 489.69978 130.60999 
L 492.528205 130.255673 
L 495.803223 130.075014 
L 499.524835 130.096031 
L 503.841905 130.345676 
L 508.903297 130.865356 
L 514.932308 131.715815 
L 522.077802 132.955174 
L 530.711941 134.685578 
L 541.281319 137.039427 
L 554.381392 140.194702 
L 570.830916 144.39562 
L 591.895238 150.015364 
L 619.435165 157.604566 
L 630.6 160.732125 
L 630.6 160.732125 
" clip-path="url(#pcac6cc3eda)" style="fill: none; stroke: #0072b2; stroke-width: 2.5; stroke-linecap: square"/>
   </g>
   <g id="line2d_11">
    <g clip-path="url(#pcac6cc3eda)">
     <use xlink:href="#m81dc601e81" x="497.25" y="130.058125" style="fill-opacity: 0.8; stroke: #000000; stroke-opacity: 0.8"/>
    </g>
   </g>
   <g id="line2d_12">
    <path d="M 325.8 68.084125 
L 630.6 158.228125 
" clip-path="url(#pcac6cc3eda)" style="fill: none; stroke-dasharray: 9.25,4; stroke-dashoffset: 0; stroke: #dc5e8b; stroke-width: 2.5"/>
   </g>
   <g id="line2d_13">
    <path d="M 459.15 242.738125 
L 459.15 17.378125 
" clip-path="url(#pcac6cc3eda)" style="fill: none; stroke-dasharray: 9.25,4; stroke-dashoffset: 0; stroke: #dc5e8b; stroke-width: 2.5"/>
   </g>
   <g id="patch_9">
    <path d="M 478.2 242.738125 
L 478.2 17.378125 
" style="fill: none; stroke: #000000; stroke-width: 0.8; stroke-linejoin: miter; stroke-linecap: square"/>
   </g>
   <g id="patch_10">
    <path d="M 630.6 242.738125 
L 630.6 17.378125 
" style="fill: none"/>
   </g>
   <g id="patch_11">
    <path d="M 325.8 130.058125 
L 630.6 130.058125 
" style="fill: none; stroke: #000000; stroke-width: 0.8; stroke-linejoin: miter; stroke-linecap: square"/>
   </g>
   <g id="patch_12">
    <path d="M 325.8 17.378125 
L 630.6 17.378125 
" style="fill: none"/>
   </g>
   <g id="legend_2">
    <g id="patch_13">
     <path d="M 538.8 62.734375 
L 616.6 62.734375 
Q 620.6 62.734375 620.6 58.734375 
L 620.6 31.378125 
Q 620.6 27.378125 616.6 27.378125 
L 538.8 27.378125 
Q 534.8 27.378125 534.8 31.378125 
L 534.8 58.734375 
Q 534.8 62.734375 538.8 62.734375 
z
" style="fill: #ffffff; opacity: 0.8; stroke: #cccccc; stroke-linejoin: miter"/>
    </g>
    <g id="line2d_14">
     <path d="M 542.8 43.575 
L 562.8 43.575 
L 582.8 43.575 
" style="fill: none; stroke: #0072b2; stroke-width: 2.5; stroke-linecap: square"/>
    </g>
    <g id="text_6">
     <!-- $B$ -->
     <g transform="translate(598.8 50.575) scale(0.2 -0.2)">
      <defs>
       <path id="DejaVuSans-Oblique-42" d="M 1081 4666 
L 2694 4666 
Q 3350 4666 3675 4422 
Q 4000 4178 4000 3688 
Q 4000 3238 3720 2911 
Q 3441 2584 2988 2516 
Q 3375 2428 3569 2181 
Q 3763 1934 3763 1522 
Q 3763 819 3242 409 
Q 2722 0 1819 0 
L 172 0 
L 1081 4666 
z
M 1234 2228 
L 903 519 
L 1919 519 
Q 2491 519 2800 781 
Q 3109 1044 3109 1522 
Q 3109 1891 2904 2059 
Q 2700 2228 2247 2228 
L 1234 2228 
z
M 1606 4147 
L 1331 2741 
L 2272 2741 
Q 2775 2741 3058 2959 
Q 3341 3178 3341 3566 
Q 3341 3869 3150 4008 
Q 2959 4147 2541 4147 
L 1606 4147 
z
" transform="scale(0.015625)"/>
      </defs>
      <use xlink:href="#DejaVuSans-Oblique-42" transform="translate(0 0.09375)"/>
     </g>
    </g>
   </g>
  </g>
  <g id="axes_3">
   <g id="patch_14">
    <path d="M 7.2 489.338125 
L 312 489.338125 
L 312 263.978125 
L 7.2 263.978125 
L 7.2 489.338125 
z
" style="fill: none"/>
   </g>
   <g id="matplotlib.axis_5">
    <g id="text_7">
     <!-- $x$ -->
     <g transform="translate(300 395.855) scale(0.2 -0.2)">
      <use xlink:href="#DejaVuSans-Oblique-78" transform="translate(0 0.3125)"/>
     </g>
    </g>
   </g>
   <g id="matplotlib.axis_6">
    <g id="text_8">
     <!-- $y$ -->
     <g transform="translate(143.6 259.778125) scale(0.2 -0.2)">
      <use xlink:href="#DejaVuSans-Oblique-79" transform="translate(0 0.3125)"/>
     </g>
    </g>
   </g>
   <g id="line2d_15">
    <g>
     <use xlink:href="#m541f9b2fe7" x="312" y="376.658125" style="stroke: #000000; stroke-linejoin: miter"/>
    </g>
   </g>
   <g id="line2d_16">
    <g>
     <use xlink:href="#m09a9a6c2c4" x="159.6" y="263.978125" style="stroke: #000000; stroke-linejoin: miter"/>
    </g>
   </g>
   <g id="line2d_17">
    <path d="M 7.2 407.332125 
L 40.247912 398.15618 
L 64.438388 391.658891 
L 82.748718 386.961331 
L 96.890842 383.553155 
L 108.055678 381.081635 
L 117.061978 379.307348 
L 124.430769 378.07541 
L 130.534212 377.274726 
L 135.595604 376.826736 
L 139.912674 376.661226 
L 143.634286 376.738472 
L 146.834872 377.025307 
L 149.588864 377.489577 
L 152.045128 378.127012 
L 154.203663 378.913436 
L 156.138901 379.850811 
L 157.925275 380.966331 
L 159.562784 382.259191 
L 161.051429 383.721507 
L 162.465641 385.434895 
L 163.730989 387.310483 
L 164.921905 389.454605 
L 166.112821 392.072984 
L 167.229304 395.090372 
L 168.271355 398.556412 
L 169.238974 402.523272 
L 170.206593 407.464932 
L 171.09978 413.21579 
L 171.918535 419.889667 
L 172.737289 428.478917 
L 173.481612 438.7154 
L 174.151502 450.886797 
L 174.821392 467.386773 
L 175.41685 487.86238 
L 175.637768 497.538125 
M 179.8611 -1 
L 180.254945 86.154944 
L 180.775971 151.557006 
L 181.296996 191.151372 
L 181.892454 220.760134 
L 182.562344 243.232691 
L 183.306667 260.552198 
L 184.050989 273.037351 
L 184.869744 283.258774 
L 185.76293 291.6621 
L 186.730549 298.603406 
L 187.698168 303.998887 
L 188.74022 308.590742 
L 189.856703 312.499371 
L 190.973187 315.639922 
L 192.164103 318.357741 
L 193.429451 320.703313 
L 194.769231 322.72144 
L 196.183443 324.45139 
L 197.672088 325.927312 
L 199.309597 327.231878 
L 201.021538 328.315743 
L 202.956777 329.271258 
L 205.040879 330.049682 
L 207.348278 330.675204 
L 209.953407 331.149697 
L 212.930696 331.460279 
L 216.354579 331.584899 
L 220.299487 331.496662 
L 224.839853 331.167084 
L 230.198974 330.548405 
L 236.525714 329.587691 
L 244.117802 328.202565 
L 253.347399 326.283184 
L 264.661099 323.69317 
L 278.728791 320.234291 
L 296.518095 315.620569 
L 312 311.464696 
L 312 311.464696 
" clip-path="url(#p59026c6f6b)" style="fill: none; stroke: #0072b2; stroke-width: 2.5; stroke-linecap: square"/>
   </g>
   <g id="line2d_18">
    <g clip-path="url(#p59026c6f6b)">
     <use xlink:href="#m81dc601e81" x="140.55" y="376.658125" style="fill-opacity: 0.8; stroke: #000000; stroke-opacity: 0.8"/>
    </g>
   </g>
   <g id="line2d_19">
    <path d="M 7.2 404.828125 
L 312 314.684125 
" clip-path="url(#p59026c6f6b)" style="fill: none; stroke-dasharray: 9.25,4; stroke-dashoffset: 0; stroke: #dc5e8b; stroke-width: 2.5"/>
   </g>
   <g id="line2d_20">
    <path d="M 178.65 489.338125 
L 178.65 263.978125 
" clip-path="url(#p59026c6f6b)" style="fill: none; stroke-dasharray: 9.25,4; stroke-dashoffset: 0; stroke: #dc5e8b; stroke-width: 2.5"/>
   </g>
   <g id="patch_15">
    <path d="M 159.6 489.338125 
L 159.6 263.978125 
" style="fill: none; stroke: #000000; stroke-width: 0.8; stroke-linejoin: miter; stroke-linecap: square"/>
   </g>
   <g id="patch_16">
    <path d="M 312 489.338125 
L 312 263.978125 
" style="fill: none"/>
   </g>
   <g id="patch_17">
    <path d="M 7.2 376.658125 
L 312 376.658125 
" style="fill: none; stroke: #000000; stroke-width: 0.8; stroke-linejoin: miter; stroke-linecap: square"/>
   </g>
   <g id="patch_18">
    <path d="M 7.2 263.978125 
L 312 263.978125 
" style="fill: none"/>
   </g>
   <g id="legend_3">
    <g id="patch_19">
     <path d="M 220 309.334375 
L 298 309.334375 
Q 302 309.334375 302 305.334375 
L 302 277.978125 
Q 302 273.978125 298 273.978125 
L 220 273.978125 
Q 216 273.978125 216 277.978125 
L 216 305.334375 
Q 216 309.334375 220 309.334375 
z
" style="fill: #ffffff; opacity: 0.8; stroke: #cccccc; stroke-linejoin: miter"/>
    </g>
    <g id="line2d_21">
     <path d="M 224 290.175 
L 244 290.175 
L 264 290.175 
" style="fill: none; stroke: #0072b2; stroke-width: 2.5; stroke-linecap: square"/>
    </g>
    <g id="text_9">
     <!-- $C$ -->
     <g transform="translate(280 297.175) scale(0.2 -0.2)">
      <defs>
       <path id="DejaVuSans-Oblique-43" d="M 4447 4306 
L 4319 3641 
Q 4019 3944 3683 4091 
Q 3347 4238 2956 4238 
Q 2422 4238 2017 3981 
Q 1613 3725 1319 3200 
Q 1131 2863 1032 2486 
Q 934 2109 934 1728 
Q 934 1091 1264 756 
Q 1594 422 2222 422 
Q 2656 422 3056 561 
Q 3456 700 3834 978 
L 3688 231 
Q 3316 72 2936 -9 
Q 2556 -91 2175 -91 
Q 1278 -91 773 396 
Q 269 884 269 1753 
Q 269 2309 461 2846 
Q 653 3384 1013 3828 
Q 1394 4300 1883 4525 
Q 2372 4750 3022 4750 
Q 3422 4750 3780 4639 
Q 4138 4528 4447 4306 
z
" transform="scale(0.015625)"/>
      </defs>
      <use xlink:href="#DejaVuSans-Oblique-43" transform="translate(0 0.78125)"/>
     </g>
    </g>
   </g>
  </g>
  <g id="axes_4">
   <g id="patch_20">
    <path d="M 325.8 489.338125 
L 630.6 489.338125 
L 630.6 263.978125 
L 325.8 263.978125 
L 325.8 489.338125 
z
" style="fill: none"/>
   </g>
   <g id="matplotlib.axis_7">
    <g id="text_10">
     <!-- $x$ -->
     <g transform="translate(618.6 395.855) scale(0.2 -0.2)">
      <use xlink:href="#DejaVuSans-Oblique-78" transform="translate(0 0.3125)"/>
     </g>
    </g>
   </g>
   <g id="matplotlib.axis_8">
    <g id="text_11">
     <!-- $y$ -->
     <g transform="translate(462.2 259.778125) scale(0.2 -0.2)">
      <use xlink:href="#DejaVuSans-Oblique-79" transform="translate(0 0.3125)"/>
     </g>
    </g>
   </g>
   <g id="line2d_22">
    <g>
     <use xlink:href="#m541f9b2fe7" x="630.6" y="376.658125" style="stroke: #000000; stroke-linejoin: miter"/>
    </g>
   </g>
   <g id="line2d_23">
    <g>
     <use xlink:href="#m09a9a6c2c4" x="478.2" y="263.978125" style="stroke: #000000; stroke-linejoin: miter"/>
    </g>
   </g>
   <g id="line2d_24">
    <path d="M 325.8 345.984125 
L 358.847912 355.16007 
L 383.038388 361.657359 
L 401.348718 366.354919 
L 415.490842 369.763095 
L 426.655678 372.234615 
L 435.661978 374.008902 
L 443.030769 375.24084 
L 449.134212 376.041524 
L 454.195604 376.489514 
L 458.512674 376.655024 
L 462.234286 376.577778 
L 465.434872 376.290943 
L 468.188864 375.826673 
L 470.645128 375.189238 
L 472.803663 374.402814 
L 474.738901 373.465439 
L 476.525275 372.349919 
L 478.162784 371.057059 
L 479.651429 369.594743 
L 481.065641 367.881355 
L 482.330989 366.005767 
L 483.521905 363.861645 
L 484.712821 361.243266 
L 485.829304 358.225878 
L 486.871355 354.759838 
L 487.838974 350.792978 
L 488.806593 345.851318 
L 489.69978 340.10046 
L 490.518535 333.426583 
L 491.337289 324.837333 
L 492.081612 314.60085 
L 492.751502 302.429453 
L 493.421392 285.929477 
L 494.01685 265.45387 
L 494.537875 240.098846 
L 495.058901 202.612099 
L 495.505495 152.585071 
L 495.877656 85.95802 
L 496.176323 -1 
M 501.6744 497.538125 
L 502.35326 484.828217 
L 503.172015 473.439595 
L 504.065201 464.202827 
L 504.958388 457.167843 
L 505.926007 451.242568 
L 506.968059 446.244823 
L 508.01011 442.274772 
L 509.126593 438.854242 
L 510.317509 435.912115 
L 511.582857 433.385951 
L 512.922637 431.221654 
L 514.33685 429.372744 
L 515.825495 427.799466 
L 517.388571 426.467906 
L 519.100513 425.304002 
L 520.961319 424.312434 
L 522.970989 423.492126 
L 525.203956 422.819236 
L 527.734652 422.292751 
L 530.563077 421.933557 
L 533.838095 421.748602 
L 537.559707 421.76595 
L 541.876777 422.012433 
L 546.938168 422.529404 
L 552.967179 423.377549 
L 560.112674 424.614981 
L 568.746813 426.343781 
L 579.31619 428.696314 
L 592.341832 431.832044 
L 608.716923 436.011712 
L 629.706813 441.609105 
L 630.6 441.851554 
L 630.6 441.851554 
" clip-path="url(#paffe44f547)" style="fill: none; stroke: #0072b2; stroke-width: 2.5; stroke-linecap: square"/>
   </g>
   <g id="line2d_25">
    <g clip-path="url(#paffe44f547)">
     <use xlink:href="#m81dc601e81" x="459.15" y="376.658125" style="fill-opacity: 0.8; stroke: #000000; stroke-opacity: 0.8"/>
    </g>
   </g>
   <g id="line2d_26">
    <path d="M 325.8 348.488125 
L 630.6 438.632125 
" clip-path="url(#paffe44f547)" style="fill: none; stroke-dasharray: 9.25,4; stroke-dashoffset: 0; stroke: #dc5e8b; stroke-width: 2.5"/>
   </g>
   <g id="line2d_27">
    <path d="M 497.25 489.338125 
L 497.25 263.978125 
" clip-path="url(#paffe44f547)" style="fill: none; stroke-dasharray: 9.25,4; stroke-dashoffset: 0; stroke: #dc5e8b; stroke-width: 2.5"/>
   </g>
   <g id="patch_21">
    <path d="M 478.2 489.338125 
L 478.2 263.978125 
" style="fill: none; stroke: #000000; stroke-width: 0.8; stroke-linejoin: miter; stroke-linecap: square"/>
   </g>
   <g id="patch_22">
    <path d="M 630.6 489.338125 
L 630.6 263.978125 
" style="fill: none"/>
   </g>
   <g id="patch_23">
    <path d="M 325.8 376.658125 
L 630.6 376.658125 
" style="fill: none; stroke: #000000; stroke-width: 0.8; stroke-linejoin: miter; stroke-linecap: square"/>
   </g>
   <g id="patch_24">
    <path d="M 325.8 263.978125 
L 630.6 263.978125 
" style="fill: none"/>
   </g>
   <g id="legend_4">
    <g id="patch_25">
     <path d="M 537 309.334375 
L 616.6 309.334375 
Q 620.6 309.334375 620.6 305.334375 
L 620.6 277.978125 
Q 620.6 273.978125 616.6 273.978125 
L 537 273.978125 
Q 533 273.978125 533 277.978125 
L 533 305.334375 
Q 533 309.334375 537 309.334375 
z
" style="fill: #ffffff; opacity: 0.8; stroke: #cccccc; stroke-linejoin: miter"/>
    </g>
    <g id="line2d_28">
     <path d="M 541 290.175 
L 561 290.175 
L 581 290.175 
" style="fill: none; stroke: #0072b2; stroke-width: 2.5; stroke-linecap: square"/>
    </g>
    <g id="text_12">
     <!-- $D$ -->
     <g transform="translate(597 297.175) scale(0.2 -0.2)">
      <defs>
       <path id="DejaVuSans-Oblique-44" d="M 1081 4666 
L 2438 4666 
Q 3519 4666 4070 4208 
Q 4622 3750 4622 2847 
Q 4622 2250 4412 1698 
Q 4203 1147 3834 769 
Q 3463 381 2891 190 
Q 2319 0 1538 0 
L 172 0 
L 1081 4666 
z
M 1613 4147 
L 909 519 
L 1734 519 
Q 2794 519 3375 1128 
Q 3956 1738 3956 2847 
Q 3956 3519 3581 3833 
Q 3206 4147 2406 4147 
L 1613 4147 
z
" transform="scale(0.015625)"/>
      </defs>
      <use xlink:href="#DejaVuSans-Oblique-44" transform="translate(0 0.09375)"/>
     </g>
    </g>
   </g>
  </g>
 </g>
 <defs>
  <clipPath id="pa10fdda82d">
   <rect x="7.2" y="17.378125" width="304.8" height="225.36"/>
  </clipPath>
  <clipPath id="pcac6cc3eda">
   <rect x="325.8" y="17.378125" width="304.8" height="225.36"/>
  </clipPath>
  <clipPath id="p59026c6f6b">
   <rect x="7.2" y="263.978125" width="304.8" height="225.36"/>
  </clipPath>
  <clipPath id="paffe44f547">
   <rect x="325.8" y="263.978125" width="304.8" height="225.36"/>
  </clipPath>
 </defs>
</svg>
