<?xml version="1.0" encoding="utf-8" standalone="no"?>
<!DOCTYPE svg PUBLIC "-//W3C//DTD SVG 1.1//EN"
  "http://www.w3.org/Graphics/SVG/1.1/DTD/svg11.dtd">
<svg xmlns:xlink="http://www.w3.org/1999/xlink" width="640.8pt" height="496.94pt" viewBox="0 0 640.8 496.94" xmlns="http://www.w3.org/2000/svg" version="1.1">
 <metadata>
  <rdf:RDF xmlns:dc="http://purl.org/dc/elements/1.1/" xmlns:cc="http://creativecommons.org/ns#" xmlns:rdf="http://www.w3.org/1999/02/22-rdf-syntax-ns#">
   <cc:Work>
    <dc:type rdf:resource="http://purl.org/dc/dcmitype/StillImage"/>
    <dc:date>2025-09-29T23:14:58.940722</dc:date>
    <dc:format>image/svg+xml</dc:format>
    <dc:creator>
     <cc:Agent>
      <dc:title>Matplotlib v3.9.1, https://matplotlib.org/</dc:title>
     </cc:Agent>
    </dc:creator>
   </cc:Work>
  </rdf:RDF>
 </metadata>
 <defs>
  <style type="text/css">*{stroke-linejoin: round; stroke-linecap: butt}</style>
 </defs>
 <g id="figure_1">
  <g id="patch_1">
   <path d="M 0 496.94 
L 640.8 496.94 
L 640.8 0 
L 0 0 
L 0 496.94 
z
" style="fill: none"/>
  </g>
  <g id="axes_1">
   <g id="patch_2">
    <path d="M 7.2 243.14 
L 312 243.14 
L 312 16.556315 
L 7.2 16.556315 
L 7.2 243.14 
z
" style="fill: none"/>
   </g>
   <g id="matplotlib.axis_1">
    <g id="text_1">
     <!-- $x$ -->
     <g transform="translate(300.913188 147.685154) scale(0.2 -0.2)">
      <defs>
       <path id="CMMI12-78" d="M 3034 2606 
C 2829 2567 2752 2414 2752 2293 
C 2752 2139 2874 2088 2963 2088 
C 3155 2088 3290 2254 3290 2427 
C 3290 2695 2982 2816 2714 2816 
C 2323 2816 2106 2433 2048 2312 
C 1901 2816 1504 2816 1389 2816 
C 736 2816 390 1980 390 1839 
C 390 1814 416 1782 461 1782 
C 512 1782 525 1820 538 1846 
C 755 2555 1184 2689 1370 2689 
C 1658 2689 1715 2420 1715 2267 
C 1715 2127 1677 1980 1600 1673 
L 1382 798 
C 1286 415 1101 64 762 64 
C 730 64 570 64 435 147 
C 666 192 717 383 717 460 
C 717 588 621 664 499 664 
C 346 664 179 530 179 326 
C 179 57 480 -64 755 -64 
C 1062 -64 1280 179 1414 441 
C 1517 64 1837 -64 2074 -64 
C 2726 -64 3072 773 3072 913 
C 3072 945 3046 971 3008 971 
C 2950 971 2944 939 2925 888 
C 2752 326 2381 64 2093 64 
C 1869 64 1747 230 1747 492 
C 1747 632 1773 734 1875 1156 
L 2099 2024 
C 2195 2408 2413 2689 2707 2689 
C 2720 2689 2899 2689 3034 2606 
z
" transform="scale(0.015625)"/>
      </defs>
      <use xlink:href="#CMMI12-78" transform="scale(0.996264)"/>
     </g>
    </g>
   </g>
   <g id="matplotlib.axis_2">
    <g id="text_2">
     <!-- $y$ -->
     <g transform="translate(146.087165 12.680682) scale(0.2 -0.2)">
      <defs>
       <path id="CMMI12-79" d="M 1683 -700 
C 1510 -939 1261 -1152 947 -1152 
C 870 -1152 563 -1152 467 -889 
C 486 -895 518 -895 531 -895 
C 723 -895 851 -729 851 -582 
C 851 -435 730 -384 634 -384 
C 531 -384 307 -458 307 -759 
C 307 -1071 582 -1286 947 -1286 
C 1587 -1286 2234 -700 2413 6 
L 3040 2485 
C 3046 2517 3059 2556 3059 2594 
C 3059 2689 2982 2753 2886 2753 
C 2829 2753 2694 2727 2643 2535 
L 2170 658 
C 2138 543 2138 530 2086 460 
C 1958 281 1747 64 1440 64 
C 1082 64 1050 415 1050 588 
C 1050 952 1222 1443 1395 1903 
C 1466 2088 1504 2178 1504 2305 
C 1504 2574 1312 2816 998 2816 
C 410 2816 173 1890 173 1839 
C 173 1814 198 1782 243 1782 
C 301 1782 307 1807 333 1897 
C 486 2433 730 2689 979 2689 
C 1037 2689 1146 2689 1146 2478 
C 1146 2312 1075 2127 979 1884 
C 666 1047 666 837 666 683 
C 666 77 1101 -64 1421 -64 
C 1606 -64 1837 -6 2061 230 
L 2067 224 
C 1971 -147 1907 -392 1683 -700 
z
" transform="scale(0.015625)"/>
      </defs>
      <use xlink:href="#CMMI12-79" transform="scale(0.996264)"/>
     </g>
    </g>
   </g>
   <g id="line2d_1">
    <defs>
     <path id="m7054e8661d" d="M 3 0 
L -3 -3 
L -3 3 
z
" style="stroke: #000000; stroke-linejoin: miter"/>
    </defs>
    <g>
     <use xlink:href="#m7054e8661d" x="312" y="129.848158" style="stroke: #000000; stroke-linejoin: miter"/>
    </g>
   </g>
   <g id="line2d_2">
    <defs>
     <path id="m156968f636" d="M 0 -3 
L -3 3 
L 3 3 
z
" style="stroke: #000000; stroke-linejoin: miter"/>
    </defs>
    <g>
     <use xlink:href="#m156968f636" x="159.6" y="16.556315" style="stroke: #000000; stroke-linejoin: miter"/>
    </g>
   </g>
   <g id="line2d_3">
    <path d="M 7.2 413.077764 
L 11.963663 385.41203 
L 16.652894 359.475892 
L 21.19326 335.589583 
L 25.659194 313.272022 
L 29.976264 292.808096 
L 34.218901 273.759853 
L 38.312674 256.37878 
L 42.332015 240.268108 
L 46.202491 225.647868 
L 49.998535 212.160531 
L 53.720147 199.756481 
L 57.292894 188.61132 
L 60.791209 178.422326 
L 64.140659 169.338183 
L 67.415678 161.090868 
L 70.541832 153.804097 
L 73.593553 147.242598 
L 76.570842 141.366483 
L 79.399267 136.264771 
L 82.15326 131.747264 
L 84.832821 127.777968 
L 87.363516 124.415093 
L 89.81978 121.509626 
L 92.201612 119.029465 
L 94.509011 116.943477 
L 96.741978 115.221503 
L 98.900513 113.834357 
L 100.984615 112.753826 
L 102.994286 111.952671 
L 105.003956 111.387922 
L 106.939194 111.067524 
L 108.874432 110.966346 
L 110.80967 111.084387 
L 112.744908 111.421648 
L 114.754579 112.003908 
L 116.764249 112.822576 
L 118.848352 113.921266 
L 120.932454 115.2742 
L 123.090989 116.943477 
L 125.323956 118.957311 
L 127.631355 121.344888 
L 130.013187 124.136366 
L 132.469451 127.362879 
L 135.000147 131.056529 
L 137.605275 135.250395 
L 140.359267 140.115863 
L 143.187692 145.574942 
L 146.090549 151.664601 
L 149.142271 158.598384 
L 152.268425 166.266519 
L 155.469011 174.709867 
L 158.818462 184.18802 
L 162.242344 194.555536 
L 165.740659 205.857165 
L 169.387839 218.402443 
L 173.109451 232.006362 
L 176.979927 247.014452 
L 180.924835 263.213492 
L 185.018608 280.986955 
L 189.186813 300.091462 
L 193.429451 320.581493 
L 197.820952 342.900189 
L 202.286886 366.75488 
L 206.901685 392.631187 
L 211.590916 420.201742 
L 216.429011 449.996594 
L 221.341538 481.651729 
L 223.787545 497.94 
L 223.787545 497.94 
" clip-path="url(#pe5bf259185)" style="fill: none; stroke: #0072b2; stroke-width: 2.5; stroke-linecap: square"/>
   </g>
   <g id="patch_3">
    <path d="M 159.6 243.14 
L 159.6 16.556315 
" style="fill: none; stroke: #000000; stroke-width: 0.8; stroke-linejoin: miter; stroke-linecap: square"/>
   </g>
   <g id="patch_4">
    <path d="M 312 243.14 
L 312 16.556315 
" style="fill: none"/>
   </g>
   <g id="patch_5">
    <path d="M 7.2 129.848158 
L 312 129.848158 
" style="fill: none; stroke: #000000; stroke-width: 0.8; stroke-linejoin: miter; stroke-linecap: square"/>
   </g>
   <g id="patch_6">
    <path d="M 7.2 16.556315 
L 312 16.556315 
" style="fill: none"/>
   </g>
   <g id="legend_1">
    <g id="patch_7">
     <path d="M 219.374426 60.431949 
L 298 60.431949 
Q 302 60.431949 302 56.431949 
L 302 30.556315 
Q 302 26.556315 298 26.556315 
L 219.374426 26.556315 
Q 215.374426 26.556315 215.374426 30.556315 
L 215.374426 56.431949 
Q 215.374426 60.431949 219.374426 60.431949 
z
" style="fill: #ffffff; opacity: 0.8; stroke: #cccccc; stroke-linejoin: miter"/>
    </g>
    <g id="line2d_4">
     <path d="M 223.374426 41.556315 
L 243.374426 41.556315 
L 263.374426 41.556315 
" style="fill: none; stroke: #0072b2; stroke-width: 2.5; stroke-linecap: square"/>
    </g>
    <g id="text_3">
     <!-- $A$ -->
     <g transform="translate(279.374426 48.556315) scale(0.2 -0.2)">
      <defs>
       <path id="CMMI12-41" d="M 1088 691 
C 864 314 646 186 339 186 
C 269 180 218 180 218 58 
C 218 24 250 0 294 0 
C 410 0 698 0 813 0 
C 998 0 1203 0 1382 0 
C 1421 0 1498 0 1498 122 
C 1498 180 1446 186 1408 186 
C 1261 186 1139 236 1139 388 
C 1139 476 1178 546 1261 685 
L 1747 1479 
L 3379 1479 
C 3386 1423 3386 1373 3392 1316 
C 3411 1152 3488 495 3488 376 
C 3488 186 3162 186 3059 186 
C 2989 186 2918 186 2918 70 
C 2918 0 2976 0 3014 0 
C 3123 0 3251 0 3360 0 
L 3725 0 
C 4115 0 4397 0 4403 0 
C 4448 0 4518 0 4518 122 
C 4518 186 4461 186 4365 186 
C 4013 186 4006 244 3987 434 
L 3597 4404 
C 3584 4531 3558 4544 3488 4544 
C 3424 4544 3386 4531 3328 4435 
L 1088 691 
z
M 1856 1664 
L 3142 3819 
L 3360 1664 
L 1856 1664 
z
" transform="scale(0.015625)"/>
      </defs>
      <use xlink:href="#CMMI12-41" transform="scale(0.996264)"/>
     </g>
    </g>
   </g>
  </g>
  <g id="axes_2">
   <g id="patch_8">
    <path d="M 325.8 243.14 
L 630.6 243.14 
L 630.6 16.556315 
L 325.8 16.556315 
L 325.8 243.14 
z
" style="fill: none"/>
   </g>
   <g id="matplotlib.axis_3">
    <g id="text_4">
     <!-- $x$ -->
     <g transform="translate(619.513188 147.685154) scale(0.2 -0.2)">
      <use xlink:href="#CMMI12-78" transform="scale(0.996264)"/>
     </g>
    </g>
   </g>
   <g id="matplotlib.axis_4">
    <g id="text_5">
     <!-- $y$ -->
     <g transform="translate(464.687165 12.680682) scale(0.2 -0.2)">
      <use xlink:href="#CMMI12-79" transform="scale(0.996264)"/>
     </g>
    </g>
   </g>
   <g id="line2d_5">
    <g>
     <use xlink:href="#m7054e8661d" x="630.6" y="129.848158" style="stroke: #000000; stroke-linejoin: miter"/>
    </g>
   </g>
   <g id="line2d_6">
    <g>
     <use xlink:href="#m156968f636" x="478.2" y="16.556315" style="stroke: #000000; stroke-linejoin: miter"/>
    </g>
   </g>
   <g id="line2d_7">
    <path d="M 365.548042 -1 
L 369.342857 12.317505 
L 372.990037 24.322517 
L 376.562784 35.327585 
L 379.986667 45.172995 
L 383.336117 54.140394 
L 386.611136 62.273559 
L 389.737289 69.451369 
L 392.789011 75.906502 
L 395.691868 81.540859 
L 398.520293 86.556311 
L 401.274286 90.989826 
L 403.879414 94.775088 
L 406.41011 98.071809 
L 408.866374 100.913066 
L 411.248205 103.330964 
L 413.555604 105.356635 
L 415.788571 107.020237 
L 417.947106 108.350956 
L 420.031209 109.377006 
L 422.040879 110.125627 
L 424.050549 110.637841 
L 425.985788 110.90765 
L 427.921026 110.958239 
L 429.856264 110.789609 
L 431.791502 110.401759 
L 433.801172 109.766964 
L 435.810842 108.895761 
L 437.894945 107.74259 
L 439.979048 106.335176 
L 442.137582 104.609473 
L 444.370549 102.537267 
L 446.677949 100.089372 
L 449.05978 97.23563 
L 451.516044 93.944909 
L 454.04674 90.185103 
L 456.7263 85.795529 
L 459.480293 80.84607 
L 462.308718 75.30073 
L 465.286007 68.957639 
L 468.337729 61.91749 
L 471.463883 54.140394 
L 474.738901 45.379405 
L 478.088352 35.769915 
L 481.512234 25.268144 
L 485.084982 13.578178 
L 488.732161 0.873999 
L 489.251958 -1 
L 489.251958 -1 
" clip-path="url(#p383aed7a11)" style="fill: none; stroke: #0072b2; stroke-width: 2.5; stroke-linecap: square"/>
   </g>
   <g id="patch_9">
    <path d="M 478.2 243.14 
L 478.2 16.556315 
" style="fill: none; stroke: #000000; stroke-width: 0.8; stroke-linejoin: miter; stroke-linecap: square"/>
   </g>
   <g id="patch_10">
    <path d="M 630.6 243.14 
L 630.6 16.556315 
" style="fill: none"/>
   </g>
   <g id="patch_11">
    <path d="M 325.8 129.848158 
L 630.6 129.848158 
" style="fill: none; stroke: #000000; stroke-width: 0.8; stroke-linejoin: miter; stroke-linecap: square"/>
   </g>
   <g id="patch_12">
    <path d="M 325.8 16.556315 
L 630.6 16.556315 
" style="fill: none"/>
   </g>
   <g id="legend_2">
    <g id="patch_13">
     <path d="M 537.778399 60.431949 
L 616.6 60.431949 
Q 620.6 60.431949 620.6 56.431949 
L 620.6 30.556315 
Q 620.6 26.556315 616.6 26.556315 
L 537.778399 26.556315 
Q 533.778399 26.556315 533.778399 30.556315 
L 533.778399 56.431949 
Q 533.778399 60.431949 537.778399 60.431949 
z
" style="fill: #ffffff; opacity: 0.8; stroke: #cccccc; stroke-linejoin: miter"/>
    </g>
    <g id="line2d_8">
     <path d="M 541.778399 41.556315 
L 561.778399 41.556315 
L 581.778399 41.556315 
" style="fill: none; stroke: #0072b2; stroke-width: 2.5; stroke-linecap: square"/>
    </g>
    <g id="text_6">
     <!-- $B$ -->
     <g transform="translate(597.778399 48.556315) scale(0.2 -0.2)">
      <defs>
       <path id="CMMI12-42" d="M 2342 3921 
C 2400 4160 2426 4160 2675 4160 
L 3507 4160 
C 4230 4160 4230 3544 4230 3485 
C 4230 2966 3712 2304 2867 2304 
L 1946 2304 
L 2342 3921 
z
M 3424 2275 
C 4122 2402 4755 2886 4755 3473 
C 4755 3970 4314 4352 3590 4352 
L 1536 4352 
C 1414 4352 1357 4352 1357 4226 
C 1357 4160 1414 4160 1510 4160 
C 1901 4160 1901 4112 1901 4044 
C 1901 4032 1901 3993 1875 3897 
L 1011 472 
C 954 249 941 185 493 185 
C 371 185 307 185 307 70 
C 307 0 346 0 474 0 
L 2669 0 
C 3648 0 4403 739 4403 1383 
C 4403 1906 3942 2224 3424 2275 
z
M 2515 185 
L 1651 185 
C 1562 185 1549 185 1510 192 
C 1440 198 1434 211 1434 261 
C 1434 305 1446 343 1459 399 
L 1907 2176 
L 3110 2176 
C 3866 2176 3866 1483 3866 1433 
C 3866 828 3309 185 2515 185 
z
" transform="scale(0.015625)"/>
      </defs>
      <use xlink:href="#CMMI12-42" transform="scale(0.996264)"/>
     </g>
    </g>
   </g>
  </g>
  <g id="axes_3">
   <g id="patch_14">
    <path d="M 7.2 489.74 
L 312 489.74 
L 312 263.156315 
L 7.2 263.156315 
L 7.2 489.74 
z
" style="fill: none"/>
   </g>
   <g id="matplotlib.axis_5">
    <g id="text_7">
     <!-- $x$ -->
     <g transform="translate(300.913188 394.285154) scale(0.2 -0.2)">
      <use xlink:href="#CMMI12-78" transform="scale(0.996264)"/>
     </g>
    </g>
   </g>
   <g id="matplotlib.axis_6">
    <g id="text_8">
     <!-- $y$ -->
     <g transform="translate(146.087165 259.280682) scale(0.2 -0.2)">
      <use xlink:href="#CMMI12-79" transform="scale(0.996264)"/>
     </g>
    </g>
   </g>
   <g id="line2d_9">
    <g>
     <use xlink:href="#m7054e8661d" x="312" y="376.448158" style="stroke: #000000; stroke-linejoin: miter"/>
    </g>
   </g>
   <g id="line2d_10">
    <g>
     <use xlink:href="#m156968f636" x="159.6" y="263.156315" style="stroke: #000000; stroke-linejoin: miter"/>
    </g>
   </g>
   <g id="line2d_11">
    <path d="M 17.830664 -1 
L 22.905201 32.812035 
L 27.892161 64.571996 
L 32.804689 94.434625 
L 37.568352 122.043283 
L 42.257582 147.923239 
L 46.797949 171.755148 
L 51.263883 194.019202 
L 55.580952 214.431403 
L 59.82359 233.428814 
L 63.917363 250.760839 
L 67.936703 266.823354 
L 71.807179 281.39722 
L 75.603223 294.839076 
L 79.250403 306.959292 
L 82.82315 318.077212 
L 86.321465 328.239534 
L 89.670916 337.298139 
L 92.945934 345.520483 
L 96.072088 352.783419 
L 99.12381 359.321651 
L 102.101099 365.175065 
L 104.929524 370.255213 
L 107.683516 374.751721 
L 110.363077 378.700587 
L 112.893773 382.044168 
L 115.350037 384.930906 
L 117.731868 387.392907 
L 120.039267 389.461303 
L 122.272234 391.166252 
L 124.430769 392.53694 
L 126.514872 393.60158 
L 128.524542 394.387413 
L 130.534212 394.93684 
L 132.469451 395.242482 
L 134.404689 395.328905 
L 136.339927 395.196109 
L 138.275165 394.844093 
L 140.284835 394.24651 
L 142.294505 393.41252 
L 144.378608 392.297939 
L 146.462711 390.929116 
L 148.621245 389.243381 
L 150.854212 387.212522 
L 153.161612 384.807352 
L 155.543443 381.997713 
L 157.999707 378.752473 
L 160.530403 375.039528 
L 163.209963 370.69957 
L 165.963956 365.801105 
L 168.792381 360.308138 
L 171.695238 354.183699 
L 174.74696 347.213352 
L 177.873114 339.507762 
L 181.0737 331.026067 
L 184.42315 321.507783 
L 187.847033 311.099245 
L 191.41978 299.506566 
L 195.06696 286.9017 
L 198.788571 273.236977 
L 202.659048 258.165651 
L 206.603956 241.902158 
L 210.697729 224.06181 
L 214.865934 204.889203 
L 219.183004 183.95976 
L 223.574505 161.550182 
L 228.04044 137.603069 
L 232.655238 111.631259 
L 237.344469 83.963661 
L 242.182564 54.068685 
L 247.095092 22.311885 
L 250.569334 -1 
L 250.569334 -1 
" clip-path="url(#pba32435402)" style="fill: none; stroke: #0072b2; stroke-width: 2.5; stroke-linecap: square"/>
   </g>
   <g id="patch_15">
    <path d="M 159.6 489.74 
L 159.6 263.156315 
" style="fill: none; stroke: #000000; stroke-width: 0.8; stroke-linejoin: miter; stroke-linecap: square"/>
   </g>
   <g id="patch_16">
    <path d="M 312 489.74 
L 312 263.156315 
" style="fill: none"/>
   </g>
   <g id="patch_17">
    <path d="M 7.2 376.448158 
L 312 376.448158 
" style="fill: none; stroke: #000000; stroke-width: 0.8; stroke-linejoin: miter; stroke-linecap: square"/>
   </g>
   <g id="patch_18">
    <path d="M 7.2 263.156315 
L 312 263.156315 
" style="fill: none"/>
   </g>
   <g id="legend_3">
    <g id="patch_19">
     <path d="M 220.041602 307.031949 
L 298 307.031949 
Q 302 307.031949 302 303.031949 
L 302 277.156315 
Q 302 273.156315 298 273.156315 
L 220.041602 273.156315 
Q 216.041602 273.156315 216.041602 277.156315 
L 216.041602 303.031949 
Q 216.041602 307.031949 220.041602 307.031949 
z
" style="fill: #ffffff; opacity: 0.8; stroke: #cccccc; stroke-linejoin: miter"/>
    </g>
    <g id="line2d_12">
     <path d="M 224.041602 288.156315 
L 244.041602 288.156315 
L 264.041602 288.156315 
" style="fill: none; stroke: #0072b2; stroke-width: 2.5; stroke-linecap: square"/>
    </g>
    <g id="text_9">
     <!-- $C$ -->
     <g transform="translate(280.041602 295.156315) scale(0.2 -0.2)">
      <defs>
       <path id="CMMI12-43" d="M 4781 4423 
C 4781 4480 4736 4480 4723 4480 
C 4710 4480 4685 4480 4634 4416 
L 4192 3882 
C 3968 4264 3616 4480 3136 4480 
C 1754 4480 320 3088 320 1595 
C 320 533 1069 -128 2003 -128 
C 2515 -128 2963 88 3334 400 
C 3891 863 4058 1481 4058 1531 
C 4058 1588 4006 1588 3987 1588 
C 3930 1588 3923 1550 3910 1524 
C 3616 534 2752 57 2112 57 
C 1434 57 845 489 845 1391 
C 845 1595 909 2700 1632 3532 
C 1984 3939 2586 4295 3194 4295 
C 3898 4295 4211 3717 4211 3068 
C 4211 2903 4192 2764 4192 2738 
C 4192 2681 4256 2681 4275 2681 
C 4346 2681 4352 2687 4378 2801 
L 4781 4423 
z
" transform="scale(0.015625)"/>
      </defs>
      <use xlink:href="#CMMI12-43" transform="scale(0.996264)"/>
     </g>
    </g>
   </g>
  </g>
  <g id="axes_4">
   <g id="patch_20">
    <path d="M 325.8 489.74 
L 630.6 489.74 
L 630.6 263.156315 
L 325.8 263.156315 
L 325.8 489.74 
z
" style="fill: none"/>
   </g>
   <g id="matplotlib.axis_7">
    <g id="text_10">
     <!-- $x$ -->
     <g transform="translate(619.513188 394.285154) scale(0.2 -0.2)">
      <use xlink:href="#CMMI12-78" transform="scale(0.996264)"/>
     </g>
    </g>
   </g>
   <g id="matplotlib.axis_8">
    <g id="text_11">
     <!-- $y$ -->
     <g transform="translate(464.687165 259.280682) scale(0.2 -0.2)">
      <use xlink:href="#CMMI12-79" transform="scale(0.996264)"/>
     </g>
    </g>
   </g>
   <g id="line2d_13">
    <g>
     <use xlink:href="#m7054e8661d" x="630.6" y="376.448158" style="stroke: #000000; stroke-linejoin: miter"/>
    </g>
   </g>
   <g id="line2d_14">
    <g>
     <use xlink:href="#m156968f636" x="478.2" y="263.156315" style="stroke: #000000; stroke-linejoin: miter"/>
    </g>
   </g>
   <g id="line2d_15">
    <path d="M 383.544697 497.94 
L 387.504322 482.347288 
L 391.374799 467.99264 
L 395.170842 454.765788 
L 398.818022 442.852144 
L 402.390769 431.93658 
L 405.814652 422.176944 
L 409.164103 413.293455 
L 412.364689 405.418343 
L 415.490842 398.305229 
L 418.542564 391.913251 
L 421.445421 386.338969 
L 424.273846 381.382051 
L 427.027839 377.005529 
L 429.632967 373.27418 
L 432.163663 370.029832 
L 434.619927 367.239407 
L 437.001758 364.870801 
L 439.309158 362.892882 
L 441.542125 361.275491 
L 443.700659 359.989443 
L 445.784762 359.006523 
L 447.794432 358.299492 
L 449.804103 357.828868 
L 451.739341 357.599109 
L 453.674579 357.58857 
L 455.609817 357.79725 
L 457.545055 358.225149 
L 459.554725 358.901535 
L 461.564396 359.814327 
L 463.648498 361.010628 
L 465.807033 362.51768 
L 467.965568 364.297458 
L 470.198535 366.425604 
L 472.505934 368.931303 
L 474.887766 371.844715 
L 477.344029 375.19697 
L 479.949158 379.138296 
L 482.628718 383.606673 
L 485.382711 388.637123 
L 488.211136 394.265643 
L 491.188425 400.696292 
L 494.240147 407.826188 
L 497.3663 415.69522 
L 500.641319 424.552522 
L 503.990769 434.260516 
L 507.489084 445.101088 
L 511.061832 456.911689 
L 514.709011 469.739017 
L 518.505055 483.916846 
L 522.055301 497.94 
L 522.055301 497.94 
" clip-path="url(#pc07d8b0b79)" style="fill: none; stroke: #0072b2; stroke-width: 2.5; stroke-linecap: square"/>
   </g>
   <g id="patch_21">
    <path d="M 478.2 489.74 
L 478.2 263.156315 
" style="fill: none; stroke: #000000; stroke-width: 0.8; stroke-linejoin: miter; stroke-linecap: square"/>
   </g>
   <g id="patch_22">
    <path d="M 630.6 489.74 
L 630.6 263.156315 
" style="fill: none"/>
   </g>
   <g id="patch_23">
    <path d="M 325.8 376.448158 
L 630.6 376.448158 
" style="fill: none; stroke: #000000; stroke-width: 0.8; stroke-linejoin: miter; stroke-linecap: square"/>
   </g>
   <g id="patch_24">
    <path d="M 325.8 263.156315 
L 630.6 263.156315 
" style="fill: none"/>
   </g>
   <g id="legend_4">
    <g id="patch_25">
     <path d="M 536.401163 307.031949 
L 616.6 307.031949 
Q 620.6 307.031949 620.6 303.031949 
L 620.6 277.156315 
Q 620.6 273.156315 616.6 273.156315 
L 536.401163 273.156315 
Q 532.401163 273.156315 532.401163 277.156315 
L 532.401163 303.031949 
Q 532.401163 307.031949 536.401163 307.031949 
z
" style="fill: #ffffff; opacity: 0.8; stroke: #cccccc; stroke-linejoin: miter"/>
    </g>
    <g id="line2d_16">
     <path d="M 540.401163 288.156315 
L 560.401163 288.156315 
L 580.401163 288.156315 
" style="fill: none; stroke: #0072b2; stroke-width: 2.5; stroke-linecap: square"/>
    </g>
    <g id="text_12">
     <!-- $D$ -->
     <g transform="translate(596.401163 295.156315) scale(0.2 -0.2)">
      <defs>
       <path id="CMMI12-44" d="M 1005 472 
C 947 249 934 185 486 185 
C 365 185 301 185 301 70 
C 301 0 339 0 467 0 
L 2496 0 
C 3789 0 5050 1332 5050 2753 
C 5050 3671 4499 4352 3584 4352 
L 1530 4352 
C 1408 4352 1350 4352 1350 4231 
C 1350 4167 1408 4167 1504 4167 
C 1894 4167 1894 4116 1894 4046 
C 1894 4034 1894 3995 1869 3899 
L 1005 472 
z
M 2355 3931 
C 2413 4167 2438 4167 2688 4167 
L 3392 4167 
C 3994 4167 4544 3842 4544 2963 
C 4544 2644 4416 1536 3795 835 
C 3616 625 3130 185 2394 185 
L 1664 185 
C 1574 185 1562 185 1523 192 
C 1453 198 1446 211 1446 262 
C 1446 307 1459 345 1472 402 
L 2355 3931 
z
" transform="scale(0.015625)"/>
      </defs>
      <use xlink:href="#CMMI12-44" transform="scale(0.996264)"/>
     </g>
    </g>
   </g>
  </g>
 </g>
 <defs>
  <clipPath id="pe5bf259185">
   <rect x="7.2" y="16.556315" width="304.8" height="226.583685"/>
  </clipPath>
  <clipPath id="p383aed7a11">
   <rect x="325.8" y="16.556315" width="304.8" height="226.583685"/>
  </clipPath>
  <clipPath id="pba32435402">
   <rect x="7.2" y="263.156315" width="304.8" height="226.583685"/>
  </clipPath>
  <clipPath id="pc07d8b0b79">
   <rect x="325.8" y="263.156315" width="304.8" height="226.583685"/>
  </clipPath>
 </defs>
</svg>
