<?xml version="1.0" encoding="utf-8" standalone="no"?>
<!DOCTYPE svg PUBLIC "-//W3C//DTD SVG 1.1//EN"
  "http://www.w3.org/Graphics/SVG/1.1/DTD/svg11.dtd">
<svg xmlns:xlink="http://www.w3.org/1999/xlink" width="640.8pt" height="496.538125pt" viewBox="0 0 640.8 496.538125" xmlns="http://www.w3.org/2000/svg" version="1.1">
 <metadata>
  <rdf:RDF xmlns:dc="http://purl.org/dc/elements/1.1/" xmlns:cc="http://creativecommons.org/ns#" xmlns:rdf="http://www.w3.org/1999/02/22-rdf-syntax-ns#">
   <cc:Work>
    <dc:type rdf:resource="http://purl.org/dc/dcmitype/StillImage"/>
    <dc:date>2025-11-03T08:52:29.769389</dc:date>
    <dc:format>image/svg+xml</dc:format>
    <dc:creator>
     <cc:Agent>
      <dc:title>Matplotlib v3.9.1, https://matplotlib.org/</dc:title>
     </cc:Agent>
    </dc:creator>
   </cc:Work>
  </rdf:RDF>
 </metadata>
 <defs>
  <style type="text/css">*{stroke-linejoin: round; stroke-linecap: butt}</style>
 </defs>
 <g id="figure_1">
  <g id="patch_1">
   <path d="M 0 496.538125 
L 640.8 496.538125 
L 640.8 0 
L 0 0 
L 0 496.538125 
z
" style="fill: none"/>
  </g>
  <g id="axes_1">
   <g id="patch_2">
    <path d="M 7.2 242.738125 
L 312 242.738125 
L 312 17.378125 
L 7.2 17.378125 
L 7.2 242.738125 
z
" style="fill: none"/>
   </g>
   <g id="matplotlib.axis_1">
    <g id="text_1">
     <!-- $x$ -->
     <g transform="translate(300 149.255) scale(0.2 -0.2)">
      <defs>
       <path id="DejaVuSans-Oblique-78" d="M 3841 3500 
L 2234 1784 
L 3219 0 
L 2559 0 
L 1819 1388 
L 531 0 
L -166 0 
L 1556 1844 
L 641 3500 
L 1300 3500 
L 1972 2234 
L 3144 3500 
L 3841 3500 
z
" transform="scale(0.015625)"/>
      </defs>
      <use xlink:href="#DejaVuSans-Oblique-78" transform="translate(0 0.3125)"/>
     </g>
    </g>
   </g>
   <g id="matplotlib.axis_2">
    <g id="text_2">
     <!-- $y$ -->
     <g transform="translate(143.6 13.178125) scale(0.2 -0.2)">
      <defs>
       <path id="DejaVuSans-Oblique-79" d="M 1588 -325 
Q 1188 -997 936 -1164 
Q 684 -1331 294 -1331 
L -159 -1331 
L -63 -850 
L 269 -850 
Q 509 -850 678 -719 
Q 847 -588 1056 -206 
L 1234 128 
L 459 3500 
L 1069 3500 
L 1650 819 
L 3256 3500 
L 3859 3500 
L 1588 -325 
z
" transform="scale(0.015625)"/>
      </defs>
      <use xlink:href="#DejaVuSans-Oblique-79" transform="translate(0 0.3125)"/>
     </g>
    </g>
   </g>
   <g id="line2d_1">
    <defs>
     <path id="mbcffb920f6" d="M 3 0 
L -3 -3 
L -3 3 
z
" style="stroke: #000000; stroke-linejoin: miter"/>
    </defs>
    <g>
     <use xlink:href="#mbcffb920f6" x="312" y="130.058125" style="stroke: #000000; stroke-linejoin: miter"/>
    </g>
   </g>
   <g id="line2d_2">
    <defs>
     <path id="md55b32ffdd" d="M 0 -3 
L -3 3 
L 3 3 
z
" style="stroke: #000000; stroke-linejoin: miter"/>
    </defs>
    <g>
     <use xlink:href="#md55b32ffdd" x="159.6" y="17.378125" style="stroke: #000000; stroke-linejoin: miter"/>
    </g>
   </g>
   <g id="line2d_3">
    <path d="M 7.2 119.162621 
L 50.296264 119.465015 
L 75.305495 119.846771 
L 91.755018 120.306588 
L 103.440879 120.843608 
L 112.223883 121.460083 
L 119.071648 122.156025 
L 124.505201 122.921933 
L 128.971136 123.765671 
L 132.767179 124.704019 
L 135.967766 125.717963 
L 138.721758 126.814728 
L 141.178022 128.028541 
L 143.336557 129.337897 
L 145.271795 130.763783 
L 147.058168 132.353102 
L 148.695678 134.105301 
L 150.258755 136.114956 
L 151.672967 138.294675 
L 153.012747 140.762581 
L 154.278095 143.550093 
L 155.543443 146.903768 
L 156.734359 150.723804 
L 157.850842 155.058916 
L 158.967326 160.340655 
L 160.009377 166.384759 
L 161.051429 173.85038 
L 162.019048 182.474984 
L 162.912234 192.36992 
L 163.805421 204.763752 
L 164.698608 220.574621 
L 165.517363 239.238011 
L 166.336117 263.548011 
L 167.08044 292.651265 
L 167.824762 331.502096 
L 168.494652 378.785651 
L 169.164542 443.783834 
L 169.582321 497.538125 
M 180.09747 497.538125 
L 180.701538 423.476845 
L 181.445861 358.683319 
L 182.190183 312.557405 
L 183.008938 275.662182 
L 183.827692 248.382775 
L 184.720879 226.012542 
L 185.614066 208.971636 
L 186.581685 194.720565 
L 187.549304 183.598812 
L 188.591355 174.148809 
L 189.633407 166.62453 
L 190.74989 160.146494 
L 191.866374 154.900537 
L 193.057289 150.333579 
L 194.322637 146.3693 
L 195.587985 143.107959 
L 196.927766 140.247332 
L 198.341978 137.742687 
L 199.830623 135.552 
L 201.3937 133.636714 
L 203.105641 131.892773 
L 204.966447 130.324151 
L 206.976117 128.92667 
L 209.209084 127.652311 
L 211.665348 126.509516 
L 214.493773 125.447572 
L 217.694359 124.490281 
L 221.415971 123.615743 
L 225.807473 122.819991 
L 231.092161 122.098375 
L 237.493333 121.456912 
L 245.532015 120.884894 
L 255.803663 120.387094 
L 269.499194 119.958416 
L 288.553846 119.599687 
L 312 119.346569 
L 312 119.346569 
" clip-path="url(#pa47247bf61)" style="fill: none; stroke: #0072b2; stroke-width: 2.5; stroke-linecap: square"/>
   </g>
   <g id="line2d_4">
    <defs>
     <path id="m7bc7f6539a" d="M 0 5 
C 1.326016 5 2.597899 4.473168 3.535534 3.535534 
C 4.473168 2.597899 5 1.326016 5 0 
C 5 -1.326016 4.473168 -2.597899 3.535534 -3.535534 
C 2.597899 -4.473168 1.326016 -5 0 -5 
C -1.326016 -5 -2.597899 -4.473168 -3.535534 -3.535534 
C -4.473168 -2.597899 -5 -1.326016 -5 0 
C -5 1.326016 -4.473168 2.597899 -3.535534 3.535534 
C -2.597899 4.473168 -1.326016 5 0 5 
z
" style="stroke: #000000; stroke-opacity: 0.8"/>
    </defs>
    <g clip-path="url(#pa47247bf61)">
     <use xlink:href="#m7bc7f6539a" x="144.36" y="130.058125" style="fill-opacity: 0.8; stroke: #000000; stroke-opacity: 0.8"/>
     <use xlink:href="#m7bc7f6539a" x="205.32" y="130.058125" style="fill-opacity: 0.8; stroke: #000000; stroke-opacity: 0.8"/>
    </g>
   </g>
   <g id="line2d_5">
    <path d="M 174.84 242.738125 
L 174.84 17.378125 
" clip-path="url(#pa47247bf61)" style="fill: none; stroke-dasharray: 9.25,4; stroke-dashoffset: 0; stroke: #dc5e8b; stroke-width: 2.5"/>
   </g>
   <g id="line2d_6">
    <path d="M 7.2 118.790125 
L 312 118.790125 
" clip-path="url(#pa47247bf61)" style="fill: none; stroke-dasharray: 9.25,4; stroke-dashoffset: 0; stroke: #dc5e8b; stroke-width: 2.5"/>
   </g>
   <g id="patch_3">
    <path d="M 159.6 242.738125 
L 159.6 17.378125 
" style="fill: none; stroke: #000000; stroke-width: 0.8; stroke-linejoin: miter; stroke-linecap: square"/>
   </g>
   <g id="patch_4">
    <path d="M 312 242.738125 
L 312 17.378125 
" style="fill: none"/>
   </g>
   <g id="patch_5">
    <path d="M 7.2 130.058125 
L 312 130.058125 
" style="fill: none; stroke: #000000; stroke-width: 0.8; stroke-linejoin: miter; stroke-linecap: square"/>
   </g>
   <g id="patch_6">
    <path d="M 7.2 17.378125 
L 312 17.378125 
" style="fill: none"/>
   </g>
   <g id="legend_1">
    <g id="patch_7">
     <path d="M 220.2 62.734375 
L 298 62.734375 
Q 302 62.734375 302 58.734375 
L 302 31.378125 
Q 302 27.378125 298 27.378125 
L 220.2 27.378125 
Q 216.2 27.378125 216.2 31.378125 
L 216.2 58.734375 
Q 216.2 62.734375 220.2 62.734375 
z
" style="fill: #ffffff; opacity: 0.8; stroke: #cccccc; stroke-linejoin: miter"/>
    </g>
    <g id="line2d_7">
     <path d="M 224.2 43.575 
L 244.2 43.575 
L 264.2 43.575 
" style="fill: none; stroke: #0072b2; stroke-width: 2.5; stroke-linecap: square"/>
    </g>
    <g id="text_3">
     <!-- $A$ -->
     <g transform="translate(280.2 50.575) scale(0.2 -0.2)">
      <defs>
       <path id="DejaVuSans-Oblique-41" d="M 2356 4666 
L 3072 4666 
L 3938 0 
L 3278 0 
L 3084 1197 
L 984 1197 
L 325 0 
L -341 0 
L 2356 4666 
z
M 2584 4044 
L 1275 1722 
L 2988 1722 
L 2584 4044 
z
" transform="scale(0.015625)"/>
      </defs>
      <use xlink:href="#DejaVuSans-Oblique-41" transform="translate(0 0.09375)"/>
     </g>
    </g>
   </g>
  </g>
  <g id="axes_2">
   <g id="patch_8">
    <path d="M 325.8 242.738125 
L 630.6 242.738125 
L 630.6 17.378125 
L 325.8 17.378125 
L 325.8 242.738125 
z
" style="fill: none"/>
   </g>
   <g id="matplotlib.axis_3">
    <g id="text_4">
     <!-- $x$ -->
     <g transform="translate(618.6 149.255) scale(0.2 -0.2)">
      <use xlink:href="#DejaVuSans-Oblique-78" transform="translate(0 0.3125)"/>
     </g>
    </g>
   </g>
   <g id="matplotlib.axis_4">
    <g id="text_5">
     <!-- $y$ -->
     <g transform="translate(462.2 13.178125) scale(0.2 -0.2)">
      <use xlink:href="#DejaVuSans-Oblique-79" transform="translate(0 0.3125)"/>
     </g>
    </g>
   </g>
   <g id="line2d_8">
    <g>
     <use xlink:href="#mbcffb920f6" x="630.6" y="130.058125" style="stroke: #000000; stroke-linejoin: miter"/>
    </g>
   </g>
   <g id="line2d_9">
    <g>
     <use xlink:href="#md55b32ffdd" x="478.2" y="17.378125" style="stroke: #000000; stroke-linejoin: miter"/>
    </g>
   </g>
   <g id="line2d_10">
    <path d="M 325.8 113.782125 
L 344.78022 112.977817 
L 360.038828 112.116112 
L 372.469011 111.199344 
L 382.815092 110.219434 
L 391.449231 109.184617 
L 398.74359 108.093525 
L 404.995897 106.939734 
L 410.355018 105.732478 
L 415.044249 104.454603 
L 419.138022 103.115404 
L 422.785201 101.692409 
L 425.985788 100.212386 
L 428.888645 98.629574 
L 431.493773 96.960457 
L 433.875604 95.172743 
L 436.034139 93.279435 
L 438.04381 91.221814 
L 439.904615 88.996769 
L 441.616557 86.607067 
L 443.254066 83.932743 
L 444.742711 81.084335 
L 446.156923 77.910869 
L 447.496703 74.368984 
L 448.762051 70.410088 
L 449.952967 65.980443 
L 451.143883 60.657892 
L 452.260366 54.59192 
L 453.302418 47.664946 
L 454.270037 39.745226 
L 455.163223 30.689963 
L 456.05641 19.291559 
L 456.875165 5.903373 
L 457.225629 -1 
M 464.773912 497.538125 
L 465.286007 414.101869 
L 465.881465 353.91094 
L 466.551355 310.054208 
L 467.221245 279.986492 
L 467.965568 256.016772 
L 468.784322 236.726125 
L 469.677509 221.044884 
L 470.570696 209.044325 
L 471.538315 198.863808 
L 472.580366 190.19045 
L 473.69685 182.765806 
L 474.887766 176.378219 
L 476.078681 171.150363 
L 477.344029 166.544288 
L 478.68381 162.475294 
L 480.098022 158.870438 
L 481.586667 155.667216 
L 483.149744 152.812215 
L 484.861685 150.152885 
L 486.648059 147.787743 
L 488.583297 145.597654 
L 490.667399 143.581238 
L 492.900366 141.732305 
L 495.35663 139.992864 
L 498.03619 138.373132 
L 501.01348 136.840965 
L 504.288498 135.410552 
L 507.935678 134.062764 
L 512.029451 132.788596 
L 516.718681 131.567546 
L 522.077802 130.409252 
L 528.181245 129.321928 
L 535.252308 128.29179 
L 543.514286 127.31726 
L 553.264908 126.396547 
L 564.876337 125.52994 
L 578.869597 124.716272 
L 595.914579 123.956531 
L 616.904469 123.252106 
L 630.6 122.88758 
L 630.6 122.88758 
" clip-path="url(#p4e8da101d8)" style="fill: none; stroke: #0072b2; stroke-width: 2.5; stroke-linecap: square"/>
   </g>
   <g id="line2d_11">
    <g clip-path="url(#p4e8da101d8)">
     <use xlink:href="#m7bc7f6539a" x="523.92" y="130.058125" style="fill-opacity: 0.8; stroke: #000000; stroke-opacity: 0.8"/>
    </g>
   </g>
   <g id="line2d_12">
    <path d="M 462.96 242.738125 
L 462.96 17.378125 
" clip-path="url(#p4e8da101d8)" style="fill: none; stroke-dasharray: 9.25,4; stroke-dashoffset: 0; stroke: #dc5e8b; stroke-width: 2.5"/>
   </g>
   <g id="line2d_13">
    <path d="M 325.8 118.790125 
L 630.6 118.790125 
" clip-path="url(#p4e8da101d8)" style="fill: none; stroke-dasharray: 9.25,4; stroke-dashoffset: 0; stroke: #dc5e8b; stroke-width: 2.5"/>
   </g>
   <g id="patch_9">
    <path d="M 478.2 242.738125 
L 478.2 17.378125 
" style="fill: none; stroke: #000000; stroke-width: 0.8; stroke-linejoin: miter; stroke-linecap: square"/>
   </g>
   <g id="patch_10">
    <path d="M 630.6 242.738125 
L 630.6 17.378125 
" style="fill: none"/>
   </g>
   <g id="patch_11">
    <path d="M 325.8 130.058125 
L 630.6 130.058125 
" style="fill: none; stroke: #000000; stroke-width: 0.8; stroke-linejoin: miter; stroke-linecap: square"/>
   </g>
   <g id="patch_12">
    <path d="M 325.8 17.378125 
L 630.6 17.378125 
" style="fill: none"/>
   </g>
   <g id="legend_2">
    <g id="patch_13">
     <path d="M 538.8 62.734375 
L 616.6 62.734375 
Q 620.6 62.734375 620.6 58.734375 
L 620.6 31.378125 
Q 620.6 27.378125 616.6 27.378125 
L 538.8 27.378125 
Q 534.8 27.378125 534.8 31.378125 
L 534.8 58.734375 
Q 534.8 62.734375 538.8 62.734375 
z
" style="fill: #ffffff; opacity: 0.8; stroke: #cccccc; stroke-linejoin: miter"/>
    </g>
    <g id="line2d_14">
     <path d="M 542.8 43.575 
L 562.8 43.575 
L 582.8 43.575 
" style="fill: none; stroke: #0072b2; stroke-width: 2.5; stroke-linecap: square"/>
    </g>
    <g id="text_6">
     <!-- $B$ -->
     <g transform="translate(598.8 50.575) scale(0.2 -0.2)">
      <defs>
       <path id="DejaVuSans-Oblique-42" d="M 1081 4666 
L 2694 4666 
Q 3350 4666 3675 4422 
Q 4000 4178 4000 3688 
Q 4000 3238 3720 2911 
Q 3441 2584 2988 2516 
Q 3375 2428 3569 2181 
Q 3763 1934 3763 1522 
Q 3763 819 3242 409 
Q 2722 0 1819 0 
L 172 0 
L 1081 4666 
z
M 1234 2228 
L 903 519 
L 1919 519 
Q 2491 519 2800 781 
Q 3109 1044 3109 1522 
Q 3109 1891 2904 2059 
Q 2700 2228 2247 2228 
L 1234 2228 
z
M 1606 4147 
L 1331 2741 
L 2272 2741 
Q 2775 2741 3058 2959 
Q 3341 3178 3341 3566 
Q 3341 3869 3150 4008 
Q 2959 4147 2541 4147 
L 1606 4147 
z
" transform="scale(0.015625)"/>
      </defs>
      <use xlink:href="#DejaVuSans-Oblique-42" transform="translate(0 0.09375)"/>
     </g>
    </g>
   </g>
  </g>
  <g id="axes_3">
   <g id="patch_14">
    <path d="M 7.2 489.338125 
L 312 489.338125 
L 312 263.978125 
L 7.2 263.978125 
L 7.2 489.338125 
z
" style="fill: none"/>
   </g>
   <g id="matplotlib.axis_5">
    <g id="text_7">
     <!-- $x$ -->
     <g transform="translate(300 395.855) scale(0.2 -0.2)">
      <use xlink:href="#DejaVuSans-Oblique-78" transform="translate(0 0.3125)"/>
     </g>
    </g>
   </g>
   <g id="matplotlib.axis_6">
    <g id="text_8">
     <!-- $y$ -->
     <g transform="translate(143.6 259.778125) scale(0.2 -0.2)">
      <use xlink:href="#DejaVuSans-Oblique-79" transform="translate(0 0.3125)"/>
     </g>
    </g>
   </g>
   <g id="line2d_15">
    <g>
     <use xlink:href="#mbcffb920f6" x="312" y="376.658125" style="stroke: #000000; stroke-linejoin: miter"/>
    </g>
   </g>
   <g id="line2d_16">
    <g>
     <use xlink:href="#md55b32ffdd" x="159.6" y="263.978125" style="stroke: #000000; stroke-linejoin: miter"/>
    </g>
   </g>
   <g id="line2d_17">
    <path d="M 7.2 365.004894 
L 47.914432 364.700561 
L 71.360586 364.319631 
L 86.619194 363.862769 
L 97.263004 363.333142 
L 105.078388 362.731608 
L 111.032967 362.058715 
L 115.647766 361.324271 
L 119.369377 360.516516 
L 122.421099 359.634227 
L 124.951795 358.678818 
L 127.11033 357.630593 
L 128.971136 356.480332 
L 130.608645 355.200818 
L 132.022857 353.813682 
L 133.288205 352.264062 
L 134.404689 350.562148 
L 135.44674 348.581616 
L 136.414359 346.269898 
L 137.307546 343.565437 
L 138.1263 340.398049 
L 138.945055 336.26428 
L 139.689377 331.239752 
L 140.359267 325.110416 
L 140.954725 317.629172 
L 141.550183 306.967162 
L 142.071209 293.076796 
L 142.517802 274.907402 
L 142.889963 251.324439 
L 143.262125 211.74217 
L 143.559853 153.554536 
L 143.78315 70.487428 
L 143.891879 -1 
M 145.689437 497.538125 
L 146.090549 467.520528 
L 146.611575 444.583691 
L 147.207033 428.662075 
L 147.802491 418.259466 
L 148.472381 410.16879 
L 149.216703 403.809192 
L 150.035458 398.753666 
L 150.928645 394.690361 
L 151.821832 391.613731 
L 152.789451 389.031109 
L 153.831502 386.855955 
L 154.947985 385.018037 
L 156.213333 383.374519 
L 157.553114 382.001383 
L 159.041758 380.797258 
L 160.679267 379.759729 
L 162.540073 378.850002 
L 164.624176 378.08411 
L 167.006007 377.455136 
L 169.611136 376.999793 
L 172.513993 376.72413 
L 175.491282 376.663272 
L 178.468571 376.820115 
L 181.296996 377.187568 
L 183.827692 377.731171 
L 186.135092 378.451823 
L 188.144762 379.310502 
L 189.931136 380.317393 
L 191.494212 381.454012 
L 192.908425 382.763121 
L 194.173773 384.243949 
L 195.290256 385.883386 
L 196.332308 387.800884 
L 197.299927 390.045698 
L 198.193114 392.675343 
L 199.011868 395.754964 
L 199.830623 399.768919 
L 200.574945 404.63507 
L 201.244835 410.548165 
L 201.840293 417.727883 
L 202.435751 427.885685 
L 202.956777 440.986027 
L 203.40337 457.895578 
L 203.775531 479.467002 
L 203.991199 497.538125 
M 205.785153 -1 
L 206.008498 118.756962 
L 206.380659 206.255581 
L 206.827253 254.207154 
L 207.273846 280.229241 
L 207.794872 298.710064 
L 208.39033 312.141792 
L 209.06022 322.131383 
L 209.73011 329.078295 
L 210.474432 334.67165 
L 211.293187 339.206537 
L 212.186374 342.912484 
L 213.153993 345.965927 
L 214.196044 348.502146 
L 215.312527 350.625122 
L 216.503443 352.415215 
L 217.843223 354.014574 
L 219.257436 355.361834 
L 220.894945 356.608185 
L 222.755751 357.731627 
L 224.839853 358.726462 
L 227.296117 359.646553 
L 230.198974 360.488278 
L 233.697289 361.260857 
L 237.939927 361.960781 
L 243.224615 362.596656 
L 249.923516 363.166847 
L 258.557656 363.668254 
L 270.169084 364.107024 
L 286.320879 364.479754 
L 309.99033 364.786297 
L 312 364.804774 
L 312 364.804774 
" clip-path="url(#p3c60912298)" style="fill: none; stroke: #0072b2; stroke-width: 2.5; stroke-linecap: square"/>
   </g>
   <g id="line2d_18">
    <g clip-path="url(#p3c60912298)">
     <use xlink:href="#m7bc7f6539a" x="174.84" y="376.658125" style="fill-opacity: 0.8; stroke: #000000; stroke-opacity: 0.8"/>
    </g>
   </g>
   <g id="line2d_19">
    <path d="M 144.36 489.338125 
L 144.36 263.978125 
" clip-path="url(#p3c60912298)" style="fill: none; stroke-dasharray: 9.25,4; stroke-dashoffset: 0; stroke: #dc5e8b; stroke-width: 2.5"/>
   </g>
   <g id="line2d_20">
    <path d="M 205.32 489.338125 
L 205.32 263.978125 
" clip-path="url(#p3c60912298)" style="fill: none; stroke-dasharray: 9.25,4; stroke-dashoffset: 0; stroke: #dc5e8b; stroke-width: 2.5"/>
   </g>
   <g id="line2d_21">
    <path d="M 7.2 365.390125 
L 312 365.390125 
" clip-path="url(#p3c60912298)" style="fill: none; stroke-dasharray: 9.25,4; stroke-dashoffset: 0; stroke: #dc5e8b; stroke-width: 2.5"/>
   </g>
   <g id="patch_15">
    <path d="M 159.6 489.338125 
L 159.6 263.978125 
" style="fill: none; stroke: #000000; stroke-width: 0.8; stroke-linejoin: miter; stroke-linecap: square"/>
   </g>
   <g id="patch_16">
    <path d="M 312 489.338125 
L 312 263.978125 
" style="fill: none"/>
   </g>
   <g id="patch_17">
    <path d="M 7.2 376.658125 
L 312 376.658125 
" style="fill: none; stroke: #000000; stroke-width: 0.8; stroke-linejoin: miter; stroke-linecap: square"/>
   </g>
   <g id="patch_18">
    <path d="M 7.2 263.978125 
L 312 263.978125 
" style="fill: none"/>
   </g>
   <g id="legend_3">
    <g id="patch_19">
     <path d="M 220 309.334375 
L 298 309.334375 
Q 302 309.334375 302 305.334375 
L 302 277.978125 
Q 302 273.978125 298 273.978125 
L 220 273.978125 
Q 216 273.978125 216 277.978125 
L 216 305.334375 
Q 216 309.334375 220 309.334375 
z
" style="fill: #ffffff; opacity: 0.8; stroke: #cccccc; stroke-linejoin: miter"/>
    </g>
    <g id="line2d_22">
     <path d="M 224 290.175 
L 244 290.175 
L 264 290.175 
" style="fill: none; stroke: #0072b2; stroke-width: 2.5; stroke-linecap: square"/>
    </g>
    <g id="text_9">
     <!-- $C$ -->
     <g transform="translate(280 297.175) scale(0.2 -0.2)">
      <defs>
       <path id="DejaVuSans-Oblique-43" d="M 4447 4306 
L 4319 3641 
Q 4019 3944 3683 4091 
Q 3347 4238 2956 4238 
Q 2422 4238 2017 3981 
Q 1613 3725 1319 3200 
Q 1131 2863 1032 2486 
Q 934 2109 934 1728 
Q 934 1091 1264 756 
Q 1594 422 2222 422 
Q 2656 422 3056 561 
Q 3456 700 3834 978 
L 3688 231 
Q 3316 72 2936 -9 
Q 2556 -91 2175 -91 
Q 1278 -91 773 396 
Q 269 884 269 1753 
Q 269 2309 461 2846 
Q 653 3384 1013 3828 
Q 1394 4300 1883 4525 
Q 2372 4750 3022 4750 
Q 3422 4750 3780 4639 
Q 4138 4528 4447 4306 
z
" transform="scale(0.015625)"/>
      </defs>
      <use xlink:href="#DejaVuSans-Oblique-43" transform="translate(0 0.78125)"/>
     </g>
    </g>
   </g>
  </g>
  <g id="axes_4">
   <g id="patch_20">
    <path d="M 325.8 489.338125 
L 630.6 489.338125 
L 630.6 263.978125 
L 325.8 263.978125 
L 325.8 489.338125 
z
" style="fill: none"/>
   </g>
   <g id="matplotlib.axis_7">
    <g id="text_10">
     <!-- $x$ -->
     <g transform="translate(618.6 395.855) scale(0.2 -0.2)">
      <use xlink:href="#DejaVuSans-Oblique-78" transform="translate(0 0.3125)"/>
     </g>
    </g>
   </g>
   <g id="matplotlib.axis_8">
    <g id="text_11">
     <!-- $y$ -->
     <g transform="translate(462.2 259.778125) scale(0.2 -0.2)">
      <use xlink:href="#DejaVuSans-Oblique-79" transform="translate(0 0.3125)"/>
     </g>
    </g>
   </g>
   <g id="line2d_23">
    <g>
     <use xlink:href="#mbcffb920f6" x="630.6" y="376.658125" style="stroke: #000000; stroke-linejoin: miter"/>
    </g>
   </g>
   <g id="line2d_24">
    <g>
     <use xlink:href="#md55b32ffdd" x="478.2" y="263.978125" style="stroke: #000000; stroke-linejoin: miter"/>
    </g>
   </g>
   <g id="line2d_25">
    <path d="M 325.8 387.553629 
L 368.896264 387.251235 
L 393.905495 386.869479 
L 410.355018 386.409662 
L 422.040879 385.872642 
L 430.823883 385.256167 
L 437.671648 384.560225 
L 443.105201 383.794317 
L 447.571136 382.950579 
L 451.367179 382.012231 
L 454.567766 380.998287 
L 457.321758 379.901522 
L 459.778022 378.687709 
L 461.936557 377.378353 
L 463.871795 375.952467 
L 465.658168 374.363148 
L 467.295678 372.610949 
L 468.858755 370.601294 
L 470.272967 368.421575 
L 471.612747 365.953669 
L 472.878095 363.166157 
L 474.143443 359.812482 
L 475.334359 355.992446 
L 476.450842 351.657334 
L 477.567326 346.375595 
L 478.609377 340.331491 
L 479.651429 332.86587 
L 480.619048 324.241266 
L 481.512234 314.34633 
L 482.405421 301.952498 
L 483.298608 286.141629 
L 484.117363 267.478239 
L 484.936117 243.168239 
L 485.68044 214.064985 
L 486.424762 175.214154 
L 487.094652 127.930599 
L 487.764542 62.932416 
L 488.251545 -1 
M 498.628131 -1 
L 499.227106 75.351402 
L 499.971429 142.534125 
L 500.715751 190.174019 
L 501.534505 228.1558 
L 502.35326 256.160051 
L 503.246447 279.069867 
L 504.139634 296.485551 
L 505.107253 311.023786 
L 506.074872 322.35161 
L 507.116923 331.963258 
L 508.158974 339.60671 
L 509.275458 346.180063 
L 510.391941 351.497911 
L 511.582857 356.123322 
L 512.848205 360.135007 
L 514.113553 363.432869 
L 515.453333 366.323569 
L 516.867546 368.852942 
L 518.35619 371.063954 
L 519.919267 372.995952 
L 521.631209 374.754196 
L 523.492015 376.334893 
L 525.501685 377.742461 
L 527.734652 379.025429 
L 530.190916 380.175434 
L 532.944908 381.218409 
L 536.145495 382.18616 
L 539.867106 383.069512 
L 544.258608 383.872615 
L 549.468864 384.591453 
L 555.870037 385.240227 
L 563.834286 385.8136 
L 574.031502 386.314373 
L 587.578168 386.744866 
L 606.409524 387.10586 
L 630.6 387.369681 
L 630.6 387.369681 
" clip-path="url(#p1b78f11006)" style="fill: none; stroke: #0072b2; stroke-width: 2.5; stroke-linecap: square"/>
   </g>
   <g id="line2d_26">
    <g clip-path="url(#p1b78f11006)">
     <use xlink:href="#m7bc7f6539a" x="462.96" y="376.658125" style="fill-opacity: 0.8; stroke: #000000; stroke-opacity: 0.8"/>
     <use xlink:href="#m7bc7f6539a" x="523.92" y="376.658125" style="fill-opacity: 0.8; stroke: #000000; stroke-opacity: 0.8"/>
    </g>
   </g>
   <g id="line2d_27">
    <path d="M 493.44 489.338125 
L 493.44 263.978125 
" clip-path="url(#p1b78f11006)" style="fill: none; stroke-dasharray: 9.25,4; stroke-dashoffset: 0; stroke: #dc5e8b; stroke-width: 2.5"/>
   </g>
   <g id="line2d_28">
    <path d="M 325.8 387.926125 
L 630.6 387.926125 
" clip-path="url(#p1b78f11006)" style="fill: none; stroke-dasharray: 9.25,4; stroke-dashoffset: 0; stroke: #dc5e8b; stroke-width: 2.5"/>
   </g>
   <g id="patch_21">
    <path d="M 478.2 489.338125 
L 478.2 263.978125 
" style="fill: none; stroke: #000000; stroke-width: 0.8; stroke-linejoin: miter; stroke-linecap: square"/>
   </g>
   <g id="patch_22">
    <path d="M 630.6 489.338125 
L 630.6 263.978125 
" style="fill: none"/>
   </g>
   <g id="patch_23">
    <path d="M 325.8 376.658125 
L 630.6 376.658125 
" style="fill: none; stroke: #000000; stroke-width: 0.8; stroke-linejoin: miter; stroke-linecap: square"/>
   </g>
   <g id="patch_24">
    <path d="M 325.8 263.978125 
L 630.6 263.978125 
" style="fill: none"/>
   </g>
   <g id="legend_4">
    <g id="patch_25">
     <path d="M 537 309.334375 
L 616.6 309.334375 
Q 620.6 309.334375 620.6 305.334375 
L 620.6 277.978125 
Q 620.6 273.978125 616.6 273.978125 
L 537 273.978125 
Q 533 273.978125 533 277.978125 
L 533 305.334375 
Q 533 309.334375 537 309.334375 
z
" style="fill: #ffffff; opacity: 0.8; stroke: #cccccc; stroke-linejoin: miter"/>
    </g>
    <g id="line2d_29">
     <path d="M 541 290.175 
L 561 290.175 
L 581 290.175 
" style="fill: none; stroke: #0072b2; stroke-width: 2.5; stroke-linecap: square"/>
    </g>
    <g id="text_12">
     <!-- $D$ -->
     <g transform="translate(597 297.175) scale(0.2 -0.2)">
      <defs>
       <path id="DejaVuSans-Oblique-44" d="M 1081 4666 
L 2438 4666 
Q 3519 4666 4070 4208 
Q 4622 3750 4622 2847 
Q 4622 2250 4412 1698 
Q 4203 1147 3834 769 
Q 3463 381 2891 190 
Q 2319 0 1538 0 
L 172 0 
L 1081 4666 
z
M 1613 4147 
L 909 519 
L 1734 519 
Q 2794 519 3375 1128 
Q 3956 1738 3956 2847 
Q 3956 3519 3581 3833 
Q 3206 4147 2406 4147 
L 1613 4147 
z
" transform="scale(0.015625)"/>
      </defs>
      <use xlink:href="#DejaVuSans-Oblique-44" transform="translate(0 0.09375)"/>
     </g>
    </g>
   </g>
  </g>
 </g>
 <defs>
  <clipPath id="pa47247bf61">
   <rect x="7.2" y="17.378125" width="304.8" height="225.36"/>
  </clipPath>
  <clipPath id="p4e8da101d8">
   <rect x="325.8" y="17.378125" width="304.8" height="225.36"/>
  </clipPath>
  <clipPath id="p3c60912298">
   <rect x="7.2" y="263.978125" width="304.8" height="225.36"/>
  </clipPath>
  <clipPath id="p1b78f11006">
   <rect x="325.8" y="263.978125" width="304.8" height="225.36"/>
  </clipPath>
 </defs>
</svg>
